<?xml version="1.0" encoding="utf-8"?>
<!-- Generator: Adobe Illustrator 24.1.1, SVG Export Plug-In . SVG Version: 6.00 Build 0)  -->
<svg version="1.1" id="Слой_1" xmlns="http://www.w3.org/2000/svg" xmlns:xlink="http://www.w3.org/1999/xlink" x="0px" y="0px"
	 viewBox="0 0 32 13" enable-background="new 0 0 32 13" xml:space="preserve" width="32px" height="13px">
<g>
	<path fill="#232323" d="M25.6158295,1.4501688c0.5505676,0.637028,0.4829273,1.3182316,0.1357841,1.9981554
		c-0.1859169,0.3641419-0.4350605,0.7012472-0.6556702,1.0505533c-0.3783035,0.3784699-0.5120602,0.8949075-0.8666077,1.28688
		c-0.2244568,0.1686425-0.160471,0.5500293-0.5352917,0.6080341c-0.0928326-0.0266223-0.1552773-0.0825915-0.19067-0.1648288
		c0.1279678-0.5843744,0.521965-1.0481234,0.849041-1.5402641c0.1130905-0.1701622,0.0064259-0.1335969-0.1015148-0.1274362
		c-0.1497002-0.017417-0.2893181,0.0296264-0.4326649,0.0464673c-0.8931408,0.1049318-0.8931122,0.1051345-0.9085979,0.882926
		c-0.0161934,0.0560088-0.0438938,0.1066437-0.0804749,0.1535892c-0.0510311,0.0375824-0.1083965,0.0516415-0.1729622,0.038898
		c-0.0763283-0.0561252-0.1128597-0.1326809-0.1341839-0.2169881c-0.0276623-0.1326299-0.045784-0.2675519-0.0960083-0.3960361
		c-0.0588627-0.1787853-0.1224957-0.3560877-0.19524-0.5306606c-0.0803928-0.2168479-0.2505779-0.3796525-0.391222-0.5614164
		c-0.1112728-0.1438012-0.2819443-0.3120093,0.0160179-0.4534717c0.4011688,0.0742972,0.5549335,0.4446318,0.8777847,0.6125824
		c0.4793949,0.193275,0.9120941,0.0477595,1.3367443-0.1521635c0.2923794-0.0269334-0.0479927-0.1571703,0.0409374-0.2170186
		c0.0281887-0.2024345,0.191349-0.3118944,0.3472805-0.4263248c0.2161789-0.131633,0.2688522-0.3606806,0.387249-0.5506003
		c0.0823307-0.1751719,0.1003323-0.3483086-0.0119438-0.5185022c-0.0775623-0.1045892-0.1606255-0.205442-0.2508297-0.3016347
		c-0.2534389-0.2492448-0.4999657-0.5047488-0.8296432-0.6746455c-0.4388332-0.2774539-0.8569069-0.1216233-1.2734261,0.0517836
		c-0.1785603,0.0093371-0.4452457,0.3927841-0.5091534-0.099813c-0.0178146-0.1373163,0.2879448-0.1907709,0.1024895-0.3639287
		c-0.1104012-0.0753469-0.2292576-0.1316065-0.3577156-0.1727281c-0.7019691-0.0396905-1.402462-0.0477855-2.1019459,0.0074105
		c-0.111578,0.0389438-0.2256508,0.0726706-0.3323441,0.1225067c-0.157238,0.0696016-0.2775116,0.198543-0.4526215,0.2405404
		C18.7391396,1.097719,18.6511097,1.092105,18.564003,1.0695935c-0.2374706-0.1039873-0.4967918-0.154716-0.7385845-0.2488127
		c-0.0479355-0.0301485-0.0904636-0.0661086-0.1291008-0.1055088c-0.245245-0.2921984-0.5982494-0.0732861-0.8884811-0.156085
		c-0.1247482-0.0767053-0.232357-0.1576059-0.0961647-0.3035706c0.1317997-0.0827818,0.2826729-0.0742394,0.4296169-0.074462
		c2.0517044-0.0031059,4.1034069-0.0024433,6.1551132-0.0011062c0.2787476,0.0001816,0.5433731,0.0673429,0.8077602,0.1323228
		C24.7736874,0.5062084,25.2603111,0.9052193,25.6158295,1.4501688z"/>
	<path fill="#222222" d="M22.0228443,9.6313906c-1.2583389,2.0986547-3.2220688,3.2220497-5.8075047,3.2974806
		c-2.5420742,0.0741663-5.0898924,0.0333271-7.6339111-0.0142498c-1.9872808-0.0371647-3.1772642-1.7793398-2.3206716-3.4266768
		c0.6069384-1.1672192,1.3330455-2.2860661,2.111568-3.3705311c0.3961353-0.4231114,0.6065588-0.9516521,0.9515991-1.4037056
		c0.1002302-0.1313148,0.1637259-0.3548155,0.4107361-0.1466246C9.7697067,5.2486815,9.563448,5.9008398,9.445755,6.5634031
		C9.3677626,6.626277,9.2841339,6.6301312,9.1995077,6.5823121c-0.0400944-0.0219865-0.0530491-0.082809-0.1027746-0.0906301
		c-0.0409718-0.0064445-0.054224,0.0310578-0.0330162,0.0753803C9.0059557,6.6810555,8.9339762,6.7858891,8.893013,6.9039283
		C8.8426399,7.0000262,8.7887592,7.0931034,8.6444836,7.0763206C8.5321989,6.9054413,8.5321989,6.9054413,8.334733,7.2277207
		C8.0759621,7.6384492,7.8342795,8.0586948,7.5170798,8.4366693C7.11026,8.8149452,6.8446946,9.2708473,6.5786614,9.7394056
		c-0.6148539,1.0829296,0.2541294,2.5076666,1.4585233,2.7572479c0.5900507,0.1222744,1.1804266,0.1592417,1.7674637,0.0806179
		c0.9116793-0.1221085,1.8148813-0.0610371,2.7262821-0.0180521c1.5008383,0.0707846,3.006176,0.1477823,4.5037622-0.0574245
		c1.8940125-0.2595282,3.3348942-1.1712732,4.4225121-2.5886965c0.1412544-0.1840868,0.234705-0.4277058,0.5479145-0.4349079
		C22.0751572,9.5231628,22.0809116,9.5742702,22.0228443,9.6313906z"/>
	<path fill="#333335" d="M24.3058968,0.4300515c-0.8090668-0.2203104-1.6397114-0.1245831-2.4616451-0.1313131
		c-1.5055809-0.0123276-3.011385-0.0064155-4.5170536,0.0001203c-0.2236767,0.000971-0.4713726-0.0746543-0.6635227,0.1076354
		c-0.0987644,0.105646-0.2296143,0.1132348-0.3668747,0.1019894c-0.2491436-0.0618854-0.5045128-0.0633722-0.7600384-0.0591541
		c-0.3398647-0.0294326-0.6634998,0.0683475-0.9938059,0.1099519c-0.0845861,0.0121081-0.1686687,0.0284536-0.2516623,0.04782
		c-0.2151489,0.046748-0.4225702,0.1130685-0.6174498,0.2112708c-0.0507936,0.0242066-0.1033087,0.0437755-0.1570501,0.0613876
		c-0.6549063,0.0912505-1.0718184,0.625209-1.7001066,0.7658741c-0.0605469-0.0097951-0.110219-0.0366013-0.1491957-0.0800048
		c1.3208361-1.1179916,2.9424-1.4978347,4.6753407-1.5215054c2.1852722-0.0298494,4.3715611-0.0034618,6.5573483,0.0084534
		c0.5491543,0.0029935,1.1068478,0.009808,1.5748844,0.3423216C24.4315472,0.458498,24.3751564,0.470214,24.3058968,0.4300515z"/>
	<path fill="#323231" d="M22.0228443,9.6313906c-0.0113945-0.0400209-0.0227871-0.0800419-0.0341797-0.1200638
		c-0.1609287-0.1913939-0.0191326-0.361413,0.0440655-0.5378275c0.2839355-0.7925997,0.8031616-1.4679589,1.2826385-2.1632047
		c0.1338959-0.1407628,0.1898746-0.3341336,0.3595772-0.4510894c0.289238-0.1110806,0.2787342-0.4327888,0.4977264-0.5932317
		c0.0668259,0.0468249,0.0762005,0.1018476,0.0281296,0.1650696C23.4748154,7.1644921,22.7488308,8.3979416,22.0228443,9.6313906z"
		/>
	<path fill="#191924" d="M11.8368349,1.5871775c0.5647106-0.3231764,1.0491228-0.7905634,1.7734671-0.8270469
		c0.0649099,0.2695254-0.1791401,0.3096101-0.355628,0.3915637c-0.4313307,0.2002898-0.8270168,0.4487895-1.2032385,0.7245276
		c-0.542079,0.3617964-0.856451,0.9470351-1.4597616,1.2489827c-0.1437159-0.0430043-0.0928011-0.1843731-0.1603241-0.2659903
		c0.002759-0.0381441,0.0055199-0.0762887,0.0082808-0.1144328C10.897356,2.3508172,11.2270002,1.8273787,11.8368349,1.5871775z"/>
	<path fill="#262627" d="M9.663022,4.4912796C9.1702042,4.8794761,9.0051975,5.4611125,8.6553793,5.934289
		C8.5756416,6.0421453,8.5135527,6.1155543,8.3723249,6.1174135c0.4660149-0.7779746,0.9320288-1.5559492,1.3980436-2.3339233
		c0.0480099-0.0380719,0.099473-0.0424948,0.1545124-0.0132971c0.093153,0.2617106-0.088685,0.4569454-0.1932354,0.6711102
		C9.7090616,4.4581857,9.6860409,4.4747329,9.663022,4.4912796z"/>
	<path fill="#2E2E2E" d="M11.8368349,1.5871775c-0.4841366,0.3672609-0.8385229,0.8656857-1.3972044,1.1575966
		c0.3056536-0.4834261,0.714139-0.8771768,1.2278643-1.1791438C11.7239389,1.5728116,11.7803879,1.5799944,11.8368349,1.5871775z"/>
	<path fill="#2D2D32" d="M24.3058968,0.4300515c0.0563831-0.0117154,0.1127701-0.0234309,0.1691628-0.0351498
		c0.5751724,0.1752862,0.9605045,0.5224457,1.14077,1.0552682C25.1815434,1.1075922,24.8594475,0.644362,24.3058968,0.4300515z"/>
	<path fill="#3C3C3B" d="M24.2008018,5.9310431c-0.0093212-0.0549793-0.0186405-0.1099586-0.0280437-0.1650038
		c0.3423595-0.4012618,0.4074764-0.9717016,0.9231853-1.2671614C24.8742313,5.0164008,24.5770264,5.4944043,24.2008018,5.9310431z"
		/>
	<path fill="#262627" d="M10.4313498,2.8592143c0.1003628,0.0515068,0.1206846,0.1382473,0.1225271,0.2331228
		c-0.0081491,0.3305993-0.0763884,0.6118653-0.5495892,0.5607893c-0.0433502-0.1220191-0.0281181-0.2407353,0.0250168-0.3572297
		C10.1633205,3.150336,10.2973347,3.004775,10.4313498,2.8592143z"/>
	<path fill="#3E3E3D" d="M10.0293045,3.2958968c0.0066376,0.1269364,0.0132742,0.2538733,0.0199118,0.3808098
		c0.0267859,0.0270495,0.0374537,0.0553191,0.0320091,0.0848098c-0.0055552,0.0301001-0.0123053,0.0451505-0.0201969,0.0452271
		c-0.0492926,0.0266604-0.0976353,0.0265844-0.1447973-0.0045419C9.8676119,3.7959647,9.8189907,3.7897282,9.7703695,3.7834904
		C9.7773819,3.5856893,9.9098549,3.4436891,10.0293045,3.2958968z"/>
	<path fill="#202020" d="M21.8888645,3.5591924c-0.2409515,0.2149014,0.0325432,0.3029227,0.1386223,0.4083333
		c0.1613503,0.1603367,0.2833328,0.3348868,0.3658028,0.5362403c-0.1132908,0.2245789,0.0541325,0.4442697,0.0144081,0.6675205
		c-0.0026073,0.0854263-0.0284767,0.1639695-0.0839653,0.2331238c-0.251358,0.1053352-0.2771263-0.0870895-0.3033295-0.2181759
		c-0.0391827-0.1960402-0.1035671-0.3593593-0.3204689-0.439662c-0.3797531-0.551796-0.6520863-1.1595132-1.0586338-1.6971965
		c-0.2259846-0.4790149-0.6903744-0.7591422-1.0908585-1.0929008c-0.0753803-0.0885272-0.1267586-0.18532-0.1235752-0.3007263
		c0.1994572-0.2872182,0.4158745-0.1414981,0.62994-0.0190419c0.2799835,0.1601622,0.4676342,0.4153543,0.7190952,0.6035907
		c-0.1257496-0.1104965-0.2831306-0.2027545-0.2042866-0.4021338c0.3075275,0.0153025,0.590086-0.2326838,0.9128361-0.0730714
		c0.224802,0.3440881,0.1800556,0.728204,0.1994419,1.1024206C21.6588993,3.1209416,22.0211811,3.2791634,21.8888645,3.5591924z"/>
	<path fill="#EAE903" d="M22.7944469,5.5185952c-0.0448456-0.3169298-0.2300282-0.7034087-0.0951862-0.9312873
		C22.834919,4.3580503,23.3104,4.5640616,23.6375294,4.5041595c0.2084332-0.038166,0.4387722-0.3264375,0.6610851-0.0129976
		c-0.1323547,0.664609-0.6558876,1.1428165-0.9765377,1.7186246c-0.4250507,0.2021937-0.5487862,0.143435-0.5685406-0.2497087
		C22.7459373,5.8088584,22.8957653,5.6736736,22.7944469,5.5185952z"/>
	<path fill="#111124" d="M11.9542904,1.8099967c0.3581161-0.3523674,0.8019276-0.5943224,1.2713947-0.7932389
		c0.1536608-0.0651074,0.3151131-0.0956954,0.3846245-0.2566118c-0.0000076-0.0000154-0.0001898,0.0002296-0.0001898,0.0002296
		c0.2013407-0.1032012,0.4569016-0.0826895,0.6372004-0.2339005c0.0465097-0.0288061,0.0930204-0.0576121,0.139533-0.0864178
		c0.4083776,0.1131929,0.7887955-0.1033642,1.1894217-0.0845449c0.2374372,0.0240532,0.4838924-0.0546856,0.7134991,0.0537043
		c0.1246605-0.0008668,0.249321-0.0017336,0.3739414-0.0026613c0.0865135,0.0391052,0.173069,0.0782713,0.2596245,0.1174371
		c0.3115768-0.0501454,0.6341019-0.1675184,0.8904667,0.1214367c0.0004253,0.0377766,0.0006161,0.0755544,0.0005703,0.1133328
		c0.0427418,0.0640634,0.031683,0.1190722-0.0328503,0.165203c-0.2697086,0.1317648-0.5467472,0.0286775-0.8009434-0.0199344
		c-1.1515951-0.2202264-2.2517948-0.0647814-3.3308992,0.3123698c-0.5605001,0.1309285-0.9412956,0.6029214-1.5313425,0.6793789
		C12.0529842,1.8843811,11.9983368,1.8556254,11.9542904,1.8099967z"/>
	<path fill="#171724" d="M20.6151752,1.8129786c0.0062828,0.3483847,0.3745041,0.4078323,0.6832905,0.6141845
		c-0.5408306,0.1232047-0.6690636-0.2913277-0.961298-0.4011099c-0.2897263-0.1088372-0.401907-0.615638-0.8671627-0.3313954
		c-0.0405083,0.0295136-0.0858669,0.038479-0.1363029,0.0271908c-0.0421333-0.0245466-0.0794258-0.0542345-0.1132069-0.087767
		c-0.0850601-0.0842861-0.1790524-0.1613107-0.2542305-0.2543113c-0.0701675-0.1204548-0.2263374-0.2161888-0.1346302-0.3838797
		c0.1322842-0.0703347,0.1830139-0.2524574,0.3809681-0.2327752c0.2104053,0.1173397,0.3454552,0.3302445,0.5990181,0.3930997
		C20.1288376,1.3246891,20.6216278,1.3141048,20.6151752,1.8129786z"/>
	<path fill="#111124" d="M21.5080471,2.9757018c0.0396385-0.4443233-0.0402489-0.8777137-0.1429558-1.3090172
		c-0.1323204-0.3509861,0.1956158-0.4560665,0.3989029-0.628296c0.1208496-0.0650092,0.233757-0.1473526,0.3815479-0.1587338
		c0.0751896,0.001662,0.2378845-0.1297616,0.1995564,0.0427095c-0.0325909,0.1466535-0.2017975,0.2678801-0.3274517,0.4209303
		c0.1946735,0.0828551,0.2565842-0.1043285,0.3817825-0.1151289c0.0698261,0.0399884,0.1510811,0.0700325,0.1651688,0.1588023
		c-0.0135918,0.0802683-0.0638428,0.1404557-0.1255913,0.1944442c-0.2517128,0.1611756-0.3372631,0.4520863-0.5751781,0.6234676
		c-0.1863785,0.2338893,0.0202808,0.5532243-0.2010307,0.7795682C21.6086178,3.0171213,21.5571766,3.0123751,21.5080471,2.9757018z"
		/>
	<path fill="#060625" d="M24.1816711,4.0252271c-0.4568634,0.3597169-0.9588203,0.468111-1.5231495,0.228898
		c-0.1339798-0.1550727-0.1088428-0.2913418,0.0571918-0.4112518c0.299572-0.1469617,0.6581554-0.026078,0.9569988-0.1767061
		c0.2424068-0.0900702,0.3908863-0.298151,0.6122513-0.4119253c0.191597-0.0984745,0.1964645-0.0905457,0.2755756,0.1857727
		c-0.1677914,0.0797236-0.2953968,0.1958375-0.379694,0.351171C24.1510773,3.8692884,23.9709187,3.9478352,24.1816711,4.0252271z"/>
	<path fill="#111124" d="M23.2696114,6.0926919c0.2655659-0.5755148,0.6052895-1.1111226,1.029007-1.6015301
		c0.1085606-0.0499415,0.2310467-0.1550059,0.3221321-0.1357369c0.1114445,0.0235744,0.0693607,0.1634483,0.0022335,0.2331486
		c-0.4714088,0.4894795-0.6903877,1.1149545-1.0722942,1.6521044c0.0432777,0.1150541-0.0358295,0.1505079-0.1345711,0.1733313
		c-0.0651112-0.0040607-0.1206379-0.0273023-0.1667252-0.0695744C23.2112675,6.2575226,23.2323132,6.1745582,23.2696114,6.0926919z"
		/>
	<path fill="#2C2C1F" d="M22.1455421,0.8796548c-0.0604076,0.1168936-0.1389713,0.2122994-0.2988377,0.2114905
		c-0.6633415-0.1114385-1.3365269-0.0106212-2.0014954-0.0774825c-0.250658-0.025203-0.0293388,0.1766022-0.1348362,0.2162205
		c-0.295599-0.0397846-0.4598694-0.1968428-0.4977379-0.4667846c0.0585289-0.0955677,0.157526-0.1168079,0.2657623-0.1210716
		c0.8023396,0.0096727,1.6046925-0.0028434,2.4070358,0.0014292C22.0522976,0.6482555,22.1398907,0.7261685,22.1455421,0.8796548z"
		/>
	<path fill="#181823" d="M24.5605392,3.4400146c-0.0094452-0.1570392-0.0718994-0.2021472-0.2141514-0.0866799
		c-0.1813087,0.1471717-0.3638515,0.2930708-0.5458622,0.4395187c-0.0454559-0.0380142-0.0683079-0.0856276-0.0721588-0.1414521
		c0.0728493-0.3157344,0.3770065-0.4625196,0.5883789-0.6769898c0.2606678-0.2283387,0.1426773-0.5250115,0.1702423-0.7955074
		c0.0356045-0.1070778,0.092617-0.1995023,0.2063866-0.2528652c0.0842304,0.0781525,0.1684589,0.156305,0.2526875,0.2344569
		c0.0974236,0.2331192,0.0964317,0.4663391,0.0008545,0.6996558C24.7992897,3.0429287,24.8619308,3.3430481,24.5605392,3.4400146z"
		/>
	<path fill="#070725" d="M21.8854332,0.6434563c-0.802515,0.1427243-1.6049633,0.1847369-2.4071445-0.0014028
		C20.2808743,0.457005,21.0832214,0.455112,21.8854332,0.6434563z"/>
	<path fill="#181823" d="M22.7813931,3.9065552c-0.1486225,0.0839989-0.1246471,0.2191339-0.1229267,0.3476138
		c-0.2980404-0.193151-0.5468864-0.4319394-0.7695923-0.6949804c-0.1269512-0.1944907-0.2538929-0.388984-0.3808308-0.583482
		c0.0417805,0.0005393,0.083559,0.0009305,0.1253376,0.0011694c0.0776577,0.0141976,0.1428375-0.0503676,0.2220116-0.0296998
		c0.1529598,0.0643795,0.2327633,0.1981559,0.3451576,0.3011308c0.0910339,0.0897942,0.1846371,0.1771898,0.2835541,0.2598345
		C22.5845318,3.6398768,22.8416595,3.6747942,22.7813931,3.9065552z"/>
	<path fill="#060625" d="M22.5326557,1.3478998c-0.0444145-0.0399135-0.0888271-0.0798277-0.1332321-0.1197379
		c0.4668198-0.1635869,0.9336281-0.4708755,1.4004803-0.0000646c0.0172253,0.0613325-0.0035381,0.1087265-0.0620804,0.1425016
		C23.3359699,1.3750831,22.9329739,1.42021,22.5326557,1.3478998z"/>
	<path fill="#3A391D" d="M23.2696114,6.0926919c0.0099983,0.0866032,0.0199966,0.1732068,0.029995,0.25981
		c0.000885,0.2107449-0.1662922,0.2081518-0.3262005,0.2155147c-0.5158615-0.2134275-0.3970833-0.5559635-0.2207394-0.9101739
		c0.0139103-0.0463915,0.0278206-0.0927825,0.0417576-0.1392102c0.1301308,0.1507277,0.0802803,0.3269491,0.0885143,0.4966311
		C22.9051037,6.4721003,23.0945435,6.2587428,23.2696114,6.0926919z"/>
	<path fill="#050526" d="M23.8033676,1.3360391c-0.0015259-0.0359731-0.0026798-0.0719558-0.0034637-0.1079453
		c0.4371243,0.0833039,0.6375675,0.4203418,0.8934479,0.6979574c-0.0033035,0.0896933-0.0154743,0.1756732-0.1134186,0.2255206
		C24.52882,2.135674,24.4844093,2.1100469,24.4459343,2.0755584c-0.0894451-0.0885423-0.1752644-0.1803935-0.2721996-0.262971
		c-0.0404854-0.0326248-0.0775509-0.0680075-0.1143475-0.1039215c-0.0922146-0.0920861-0.189867-0.1804339-0.2459145-0.297451
		C23.8097668,1.3862573,23.8065681,1.3611482,23.8033676,1.3360391z"/>
	<path fill="#121222" d="M22.2723293,5.4237747c0.0001755-0.0779018,0.0003529-0.1558037,0.0005283-0.233705
		c0.0874767-0.0336161,0.185236-0.0484438,0.2539158-0.1164002c0.1464939,0.0922084,0.1174126,0.231307,0.115778,0.3630762
		c-0.1256218,0.2968607,0.1456814,0.6231251-0.0806313,0.9127746c-0.0630741,0.0409741-0.1277885,0.0431705-0.1942997,0.0069895
		C22.1647167,6.0602903,22.2191372,5.7419801,22.2723293,5.4237747z"/>
	<path fill="#070724" d="M22.5267735,5.0736694c0.0059013,0.2042379-0.1143494,0.1779952-0.253931,0.1164064
		c0.0406036-0.2288165-0.1093369-0.48564,0.1205006-0.6864634C22.4377823,4.6937342,22.4822788,4.8837018,22.5267735,5.0736694z"/>
	<path fill="#040426" d="M17.8163452,0.8752171c-0.001339-0.0387871-0.001997-0.0775839-0.0019722-0.1164227
		c0.2860851-0.005915,0.564249,0.0098137,0.7657204,0.2348962c-0.0234852,0.0865379-0.0814686,0.1421183-0.1762161,0.1651505
		C18.1613979,1.1455967,17.921978,1.126263,17.8163452,0.8752171z"/>
	<path fill="#222221" d="M22.7526665,5.6578426c0.1278019,0.2652001-0.2025242,0.6597648,0.2782516,0.8252931
		c-0.168869,0.3120127-0.3136406,0.1941772-0.4530811-0.0211444c0.0575085-0.2658005-0.063446-0.5468788,0.0814629-0.8053989
		C22.6904259,5.6566844,22.72155,5.6571007,22.7526665,5.6578426z"/>
	<path fill="#030324" d="M22.6593018,5.6565924c-0.0028763,0.2704864-0.0057507,0.5409732-0.0086231,0.81146
		c-0.1128483,0.0296035-0.1570377-0.0051079-0.1247063-0.1114988c0.0547676-0.3050232-0.1183472-0.6342669,0.1166744-0.9199648
		C22.6481361,5.5100279,22.6537189,5.5833101,22.6593018,5.6565924z"/>
	<path fill="#222221" d="M23.4180164,6.3596349c0.0441837-0.0396676,0.0883675-0.0793347,0.1326122-0.1189795
		c0.0414581,0.0395093,0.0828552,0.0789952,0.1242847,0.118515c0.0037632,0.1959705-0.0279293,0.3754058-0.2573147,0.4627557
		C23.1179619,6.6676021,23.3194675,6.5136571,23.4180164,6.3596349z"/>
	<path fill="#030326" d="M18.4518108,1.1067069c0.0427456-0.0376631,0.0854931-0.0753261,0.1282635-0.1130027
		c0.0838757,0.0007105,0.1677322,0.0014346,0.2515755,0.0021726c0.0852966,0.1159756,0.1706066,0.2319373,0.2559166,0.3478987
		c-0.2306232,0.1546237-0.4202652,0.0379033-0.6104317-0.0768338C18.4299812,1.2187952,18.4216385,1.1652662,18.4518108,1.1067069z"
		/>
	<path fill="#1E1E22" d="M17.8138065,0.6454293c-0.2767887-0.1636729-0.5894413-0.1069223-0.8904896-0.1213931
		C17.2498245,0.382294,17.5753536,0.2464724,17.8138065,0.6454293z"/>
	<path fill="#1B1B22" d="M24.9469166,2.8601515c-0.0002842-0.2332201-0.0005665-0.4664409-0.0008526-0.6996584
		C25.1400852,2.3935161,25.1382179,2.6267371,24.9469166,2.8601515z"/>
	<path fill="#181823" d="M24.1816711,4.0252271c-0.0927906-0.015975-0.1855831-0.0319498-0.2783737-0.0479245
		c0.0925274-0.0620337,0.185051-0.1240668,0.2775631-0.1861086C24.1925755,3.8691657,24.3248787,3.946789,24.1816711,4.0252271z"/>
	<path fill="#212121" d="M23.4180164,6.3596349c-0.0064964,0.1540961-0.123064,0.3081102-0.0004139,0.4622965
		c-0.4090538,0.8034062-1.0180035,1.5116658-1.340065,2.3561091c-0.040947,0.1073627-0.0595207,0.2218714-0.088665,0.3331776
		c-0.6906052,0.8748407-1.3962498,1.7259235-2.4272385,2.3127937c-1.0525551,0.5991478-2.2019844,0.8993483-3.4117451,0.9281626
		c-1.4737253,0.0351048-2.9528055,0.0807276-4.4253492-0.0970564c-0.8866138-0.1070423-1.7644691,0.120265-2.650753,0.1113911
		c-1.7393317-0.017416-2.5279593-0.6212959-2.9220095-2.0893831c-0.0905495-0.3373537,0.1195483-0.5654535,0.2173333-0.8193817
		C6.5949235,9.271349,6.8157573,8.6535664,7.4955578,8.3374643c0.0945153,0.1628523,0.0278826,0.3434248,0.0685353,0.5126848
		c0.0025187,0.2961044-0.244781,0.5286264-0.247169,0.8236065c-0.1308579,0.4321012-0.4059405,0.8524294-0.1209188,1.3163576
		c0.021111,0.0775232,0.0264745,0.1565142,0.0239072,0.2358246c0.0062528,0.3433104,0.2497115,0.4809456,0.5709391,0.5508947
		c0.222784,0.1065073,0.5147429,0.0793667,0.6826992,0.2923927c0.1395483,0.171216,0.277566,0.1099997,0.4149799-0.0040693
		c0.3591766-0.3036432,0.6919765-0.0465555,1.0337372,0.0384417c0.8363047,0.0543556,1.6716442,0.0858221,2.50453-0.0206432
		c0.002142-0.101058,0.3260012,0.0616312,0.1643066-0.1725063c-0.0448723-0.028986-0.0844584-0.0603962-0.123065-0.094698
		c-0.6289063-0.5071745-0.6289063-0.5071745-0.0033426-1.2191544c0.1614037-0.2603712,0.5300226-0.4205942,0.4534388-0.7942429
		c-0.0383949-0.1368151-0.1566048-0.2200603-0.25453-0.3175316c-1.4725189-1.509459-1.4158888-3.2114139-0.7528286-4.9903307
		c0.1043053-0.1876354,0.248147-0.3532205,0.3595495-0.5373156c0.7016716-0.9799719,1.7393112-1.4347565,2.9694405-1.5897713
		c0.529665-0.0194798,1.0591202-0.0422034,1.5874653,0.0152457c0.6759892,0.1036973,1.2977257,0.345433,1.9023647,0.6305263
		c1.8830643,1.3817313,2.2352276,3.5881975,1.3972855,5.5107651c-0.1625366,0.3729219-0.6484451,0.572175-0.6172295,1.0318947
		c0.0421143,0.1333742-0.0037708,0.2725544,0.0239658,0.4048138c0.0564156,0.2689772,0.2463913,0.4676838,0.5159054,0.544837
		c0.2511292,0.0718899,0.3458023-0.1700754,0.4814167-0.3100233c0.2676277-0.2761755,0.4859314-0.5868158,0.7323627-0.877655
		c0.2109814-0.1462259,0.313961-0.3529539,0.3833199-0.5784941c0.0176373-0.0503912,0.0401955-0.0986357,0.0645313-0.1463995
		c0.1717129-0.3132734,0.2777901-0.6432548,0.3060246-0.9942107c0.0077801-0.0579157,0.0210094-0.1139994,0.0364876-0.1703038
		c0.1523647-0.3478222-0.1345291-0.8142724,0.3456516-1.072598c0.0422211,0.0003653,0.0844421,0.0006127,0.1266575,0.0007467
		c0.0415916,0.0372081,0.0831871,0.0744114,0.1247444,0.1115594c0.1200275,0.1490259,0.2466774,0.1571856,0.3802795,0.0149269
		c0.1076622-0.0120058,0.2125454-0.0290384,0.2685127-0.1305037C23.3390293,6.3555369,23.3784981,6.3579149,23.4180164,6.3596349z"
		/>
	<path fill="#111124" d="M11.9542904,1.8099967c0.0434504,0.0005747,0.0868979,0.0011494,0.1303473,0.001724
		c-0.0349131,0.5421945-0.6632214,0.6904618-0.8792553,1.1119882c-0.0292397,0.0434005-0.0627851,0.0842991-0.0979166,0.1237521
		c-0.1263866,0.1282272-0.2501984,0.2585766-0.3368464,0.4143898c-0.0510378,0.0879605-0.1019974,0.175868-0.1588955,0.2608359
		c-0.1508856,0.1825678-0.2617521,0.383194-0.3267851,0.6050229c-0.0175753,0.0503426-0.0397253,0.098577-0.0638628,0.1463447
		c-0.1484079,0.2668839-0.1933622,0.5622101-0.2784357,0.8466163c-0.2498894,1.2923293-0.1689262,2.5401931,0.5825901,3.6992745
		c0.2803984,0.3509369,0.4884062,0.7368507,0.6569386,1.1418247c-0.024498,0.2272968,0.3432932,0.4412251,0.0310211,0.6796837
		c-0.3647575,0.0123539-0.4644241-0.1452093-0.618639-0.4683323c-0.2976084-0.6235752-0.6830778-1.2293949-1.1329947-1.7875385
		C9.3573141,8.3191843,9.3035908,8.0386162,9.1841221,7.7758117C9.1611462,7.7177086,9.1460876,7.6586404,9.1349783,7.5979424
		c0.0006399-0.3421035-0.1292667-0.7001834,0.1466913-1.008142c0.1271172-0.6995068,0.2542353-1.399013,0.3813524-2.0985198
		c0-0.000001-0.0000029,0.0000463-0.0000029,0.0000463c0.1223049-0.2361641,0.2064466-0.489502,0.3780022-0.7035029
		c0.0024548-0.0370584,0.0051613-0.0741012,0.0081558-0.1111231c0.2544651-0.132432,0.3313875-0.3932614,0.5047083-0.5843606
		C11.0199013,2.6641765,11.4034786,2.1606066,11.9542904,1.8099967z"/>
	<path fill="#E8E803" d="M8.6427879,7.0499682C8.7815886,7.0440269,8.7777138,6.9466486,8.78895,6.8589549
		c0.2567053-0.3501325,0.362855-0.1117511,0.4150515,0.1077933C9.2661915,7.2283301,9.163372,7.5065656,9.2618952,7.7707491
		L9.257617,7.7648511c0.1297283,0.0781536,0.0756273,0.2085996,0.1017742,0.3143153
		c0.1451321,0.5867701,0.1135235,0.6248369-0.5354061,0.6093254C8.6764269,8.6849642,8.5335026,8.6950617,8.3879013,8.7074652
		c-0.603086,0.0513763-0.6238809,0.0283451-0.557446-0.5560589C7.8603158,8.035737,7.9062314,7.9263082,7.9909334,7.8340125
		C8.1574287,7.7109113,8.2407303,7.5438766,8.2846889,7.356214C8.3825788,7.2332573,8.3851366,7.0159874,8.6427879,7.0499682z"/>
	<path fill="#111124" d="M8.1347618,7.8720379c-0.0384674,0.0777955-0.0769348,0.155591-0.1154022,0.233386
		C7.8845377,8.2421007,7.7716699,8.3908596,7.7152123,8.5704794C7.6631517,8.6636229,7.6046686,8.7521143,7.4969535,8.8013411
		C7.2633047,8.6472807,7.4351325,8.49224,7.4955859,8.3374662c0.2056847-0.4160132,0.437799-0.8175511,0.7641273-1.1674414
		c0.0841112,0.0639081,0.0696297,0.1505036,0.0646524,0.234899C8.3465176,7.5896101,8.2385397,7.7301097,8.1347618,7.8720379z"/>
	<path fill="#32321F" d="M9.2618942,7.7707491C9.0909348,7.535531,9.1311865,7.2685523,9.1267338,7.0088239
		c-0.0044231-0.2579594-0.1212559-0.2961106-0.337801-0.1499224C8.727252,6.6568599,8.936821,6.5967536,9.0288363,6.4751153
		c0.0405254-0.0426631,0.0820694-0.0435085,0.1246309-0.0025406C9.1961956,6.5116463,9.238924,6.5507188,9.2816601,6.5897961
		C9.2750769,6.9834499,9.268486,7.3770995,9.2618942,7.7707491z"/>
	<path fill="#010127" d="M8.2618484,7.4072843c-0.0006933-0.079071-0.0013876-0.1581426-0.0021086-0.237236
		c0.0096121-0.2089014,0.1711721-0.33425,0.309021-0.4821963c0.1437464,0.1067958,0.0363626,0.2470746,0.074028,0.3621173
		C8.5574303,7.1682658,8.4720716,7.2865648,8.386714,7.4048629C8.346323,7.4588556,8.3046455,7.4572134,8.2618484,7.4072843z"/>
	<path fill="#171722" d="M9.1534672,6.4725747c-0.0415697,0.000597-0.0831327,0.0014238-0.1246605,0.0025125
		c-0.0720539-0.0126977-0.1762524,0.000061-0.1608992-0.1032467c0.0055609-0.0374203,0.0837126-0.092526,0.1295223-0.093173
		C9.1313963,6.2767787,9.1406422,6.3804822,9.1534672,6.4725747z"/>
	<path fill="#1B1B22" d="M15.5215263,0.4114919C15.1450176,0.4822246,14.771266,0.6458324,14.386694,0.439891
		c0.3832054-0.0138578,0.7414417-0.1968751,1.1349878-0.1393848c0.0417166,0.0247123,0.0555553,0.0493722,0.0416565,0.0740445
		C15.5494776,0.3991563,15.5355864,0.4114919,15.5215263,0.4114919z"/>
	<path fill="#191924" d="M14.2473202,0.5264754c-0.1260052,0.2750553-0.3910589,0.2328961-0.6371908,0.2339125
		C13.778698,0.582423,14.0003996,0.5256804,14.2473202,0.5264754z"/>
	<path fill="#191924" d="M15.5215263,0.4114921c0.0000525-0.0370334,0.000103-0.0740669,0.0001554-0.111043
		c0.2572966,0.0286701,0.5407629-0.0974927,0.7680521,0.108793C16.0336914,0.4099753,15.7776079,0.4107338,15.5215263,0.4114921z"/>
	<path fill="#222222" d="M10.0410213,3.7878239C9.9965401,4.0590096,9.8699169,4.2932301,9.6630201,4.4913268
		C9.6320734,4.2260466,9.8033247,4.0229845,9.9162607,3.8020945C9.9578028,3.797225,9.9993992,3.7924323,10.0410213,3.7878239z"/>
	<path fill="#313131" d="M21.3780937,9.3861361c-0.2403584,0.2882195-0.4790611,0.5776119-0.7216263,0.8642673
		c-0.1795216,0.2121534-0.3209133,0.6305895-0.6700039,0.4320707c-0.3674679-0.208971-0.8866711-0.4932165-0.517004-1.0627661
		c0.461277-0.6258287,0.7958794-1.3155308,1.187582-1.976624c0.3406811-0.9843822,0.2342453-1.9394455-0.2183552-2.8719344
		c-0.1079082-0.0982723-0.197298-0.2102132-0.2850704-0.3231215c-0.1946335-0.2894673-0.376236-0.5871499-0.6146679-0.850467
		c-0.1006451-0.2421398-0.2385101-0.4530125-0.5355453-0.5311623c-0.0528526-0.0278995-0.0978622-0.0630665-0.1366005-0.1060824
		c-0.1093616-0.366323,0.1458683-0.4391868,0.452404-0.4711828c0.7834702,0.8345823,1.6273479,1.616955,1.9262161,2.7551696
		c0.4196148,1.5980515,0.1037521,3.0320039-0.9440327,4.3478723c-0.0849628,0.1066999-0.2250023,0.1843662-0.2021523,0.4566631
		c0.3587704-0.2244205,0.572401-0.4949827,0.7222385-0.7837677c0.9106293-1.7550578,1.1182861-3.525362,0.0847759-5.3113766
		c-0.302269-0.5223455-0.7296944-0.9493556-1.1889038-1.3527634c-0.1347733-0.118398-0.3338814-0.1829174-0.3349056-0.3941422
		c0.0105381-0.0921476,0.0545902-0.1650157,0.1452961-0.2106615c0.5674896,0.1579555,0.8425961,0.620313,1.2163353,0.9801372
		c0.4298649,0.538523,0.7818947,1.1151845,1.0219688,1.7467091c0.125248,0.0815077,0.21245,0.1858878,0.2362862,0.3284259
		c0.2499485,0.9614911,0.1684284,1.9238086,0.0072365,2.8861666c-0.0377789,0.2621875-0.1301403,0.5094171-0.247591,0.7497067
		l0.0000973-0.0001593C21.6408672,8.9232454,21.5579433,9.1769867,21.3780937,9.3861361z"/>
	<path fill="#DEDD05" d="M19.7103729,1.2298833c-0.105608-0.1972476-0.3318195-0.422474,0.1876831-0.3934909
		c0.5252533,0.0293041,1.0535507,0.0147443,1.5805225,0.0154631c0.1887264,0.0002574,0.4062805-0.0482579,0.3681374,0.2392951
		c-0.2278214,0.1447066-0.4174118,0.3162011-0.4816151,0.5755515c-0.1830406,0.3361422-0.4028378,0.5144547-0.7499256,0.1462753
		C20.4129314,1.4894894,20.044981,1.3813509,19.7103729,1.2298833z"/>
	<path fill="#222221" d="M21.8895454,4.9583473c-0.1023579-0.0515423-0.1249046-0.1381893-0.1235466-0.235353
		c0.2820377-0.1225624,0.3579426,0.0207438,0.3776417,0.2425756c0.014122,0.1590405-0.0517979,0.337956,0.1286812,0.4582028
		c0.2535114,0.2865849,0.0715408,0.6228571,0.1269932,0.9320345c-0.2869339,0.3516197,0.0453148,0.8168082-0.2553196,1.1659198
		c-0.1626186-0.2555099-0.0575676-0.5321822-0.0520763-0.7939944C22.1044979,6.1277404,22.0073261,5.5432043,21.8895454,4.9583473z"
		/>
	<path fill="#212133" d="M19.2154903,2.5101719c-0.0099525,0.1894498-0.4377098,0.1869245-0.2550411,0.4648793
		c-0.0678692,0.0647793-0.1473713,0.0782495-0.2376251,0.045212c-0.0522537-0.0268593-0.0940857-0.0635962-0.1265087-0.1097088
		c-0.057127-0.0971775-0.0909462-0.1987665-0.0682888-0.3106146c0.0951099-0.2516952,0.2555313-0.4626484,0.477562-0.6344529
		c0.1419392-0.0670462,0.2098522-0.2164031,0.3597965-0.2753495c0.0348339,0.0022039,0.069706,0.0037048,0.1046162,0.0045115
		c0.1022396,0.049932,0.1250515,0.1365263,0.1280441,0.2322712c0.0436363,0.0264093,0.0578671,0.0524092,0.0428352,0.0780696
		c-0.0148849,0.0254107-0.0297279,0.038151-0.0446701,0.0381505c-0.0422821,0.0388024-0.0845642,0.0776055-0.1268463,0.1164091
		C19.3723583,2.2689157,19.4192142,2.4655221,19.2154903,2.5101719z"/>
	<path fill="#303030" d="M19.5962105,2.0431404c0.0007477-0.0387368,0.0013504-0.0774759,0.0018234-0.1162186
		c0.5338993,0.2108524,0.9171753,0.559469,1.1460323,1.0493398C20.361454,2.6652226,19.9788322,2.3541811,19.5962105,2.0431404z"/>
	<path fill="#2D2D32" d="M18.4518108,1.1067071c0.0054321,0.0294232,0.0150852,0.0576363,0.0289612,0.0846393
		c-0.0317688,0.0605079-0.0829582,0.0998696-0.1533184,0.1185139c-0.0620556,0.0097123-0.1288013,0.0270088-0.1870499,0.0072316
		c-1.3967152-0.4742429-2.7944651-0.4598866-4.1962156-0.0181732c-0.1408777,0.0443928-0.2901974,0.0430321-0.4294052-0.0245572
		c-0.0669003-0.0457236-0.0753813-0.0993211-0.0257244-0.1606216c1.4087057-0.5917527,2.8593035-0.5468715,4.3272619-0.2384941
		C18.0281677,0.9523801,18.2399883,1.0295435,18.4518108,1.1067071z"/>
	<path fill="#191924" d="M13.4890585,1.1137398c0.0014772,0.044522,0.0029535,0.0890437,0.0044308,0.1335655
		c0.0118837,0.1111727-0.0592022,0.1827985-0.1502094,0.2337492c-0.6852341,0.3836339-1.320919,0.8227768-1.8713446,1.3621953
		C11.372613,2.9405842,11.248765,3.0235031,11.0820236,2.990859c0.1003914-0.5595431,0.7555494-0.7240381,1.002594-1.1791507
		C12.5527773,1.5790606,13.0209179,1.3464,13.4890585,1.1137398z"/>
	<path fill="#2C2C1F" d="M18.480772,1.1913462c0.2022667,0.050814,0.4045334,0.1016282,0.6067963,0.1524355
		c0.0858631,0.0782713,0.1717243,0.1565492,0.2575855,0.2348273c-0.0486259,0.0384281-0.1033268,0.0668182-0.1650391,0.0840812
		c-0.3262081-0.0249171-0.6381569-0.0712191-0.7426701-0.422555C18.4524097,1.2242608,18.4668522,1.2079979,18.480772,1.1913462z"/>
	<path fill="#303030" d="M19.1902161,1.5883198c0.0516205-0.0032464,0.1032429-0.0064926,0.1549015-0.0097247
		c0.0030212,0.0377457,0.0096436,0.074935,0.0200844,0.1115623c-0.0237026,0.1610343-0.0132084,0.3440858-0.271265,0.3553189
		C18.9811249,1.8675315,19.0833778,1.7275212,19.1902161,1.5883198z"/>
	<path fill="#202020" d="M22.1530094,3.3251605c-0.208334-0.043304-0.2312927-0.2588644-0.3882351-0.3499217
		c-0.1027069-0.2714193-0.0973148-0.5431533-0.0028286-0.8151457c0.2519894-0.2026829,0.2814426-0.5759165,0.63867-0.6979445
		c0.0438652,0.0426272,0.0669956,0.0931985,0.0699387,0.1515729C22.0757351,2.1390765,22.0829811,2.7272322,22.1530094,3.3251605z"
		/>
	<path fill="#34341E" d="M22.413496,1.6082288c-0.004303-0.0487019-0.0086079-0.0974035-0.0128956-0.1460923
		c0.0439892-0.0380927,0.087965-0.0761987,0.1319962-0.1142707c0.4215412-0.1917735,0.8453293-0.1739742,1.2707386-0.0117503
		c0.0000324-0.0000764-0.0018196,0.0073365-0.0018196,0.0073365c0.0494747,0.0528204,0.0470276,0.1035383-0.007019,0.1522771
		C23.3345947,1.5354131,22.881752,1.6511672,22.413496,1.6082288z"/>
	<path fill="#040425" d="M21.7619457,2.1600931c0.0009232,0.2717214,0.0018444,0.5434422,0.0027981,0.8151548
		c-0.0426102,0.0782859-0.0863457,0.0822687-0.1313457,0.0016193c0.0072556-0.2692649,0.0140018-0.5385547,0.0237789-0.8077524
		c0.0003796-0.0105417,0.0292625-0.0274742,0.0457153-0.028374C21.7220879,2.1396918,21.7422199,2.1530087,21.7619457,2.1600931z"/>
	<path fill="#202020" d="M22.7813931,3.9065552c-0.0989857-0.1445556-0.3364525-0.1655982-0.3815155-0.3582482
		c0.47295-0.0845525,0.9273281,0.0495887,1.3889198,0.0987954c0.0039043,0.0485771,0.0078087,0.0971544,0.0117188,0.1457412
		C23.4797115,3.9726255,23.1250935,3.8986032,22.7813931,3.9065552z"/>
	<path fill="#F8F601" d="M23.7887974,3.6471019c-0.4805889,0.1744759-0.9361038,0.0537374-1.3889198-0.0987933
		c-0.0822887-0.0743835-0.1645813-0.1487656-0.24687-0.2231479C21.816782,2.699091,21.8307838,2.1175222,22.4134941,1.608222
		c0.4393635-0.2249827,0.8990498-0.2759951,1.381155-0.1351486c0.1468487,0.0524118,0.269352,0.1360291,0.3730564,0.2437433
		l-0.0105209-0.0098596c0.1269035,0.1419268,0.3050804,0.2514373,0.3405857,0.451396
		c0.0126133,0.3117294,0.1304054,0.6324837-0.0968113,0.9229054C24.1969051,3.2698724,23.9928513,3.458487,23.7887974,3.6471019z"/>
	<path fill="#2D2D1F" d="M24.400959,3.081259c0.0818882-0.3422606,0.0803623-0.6854198,0.0132408-1.0292857
		c0.0466461-0.0534471,0.0964012-0.0533397,0.1488285-0.0072393c0.0030613,0.0359819,0.0086117,0.0716398,0.016777,0.1069059
		C24.6525402,2.4827929,24.7677479,2.8208826,24.400959,3.081259z"/>
	<path fill="#1B1B22" d="M24.1677055,1.7168167c-0.1662159-0.0275853-0.2749157-0.1288959-0.3730526-0.2437449
		c0.0022774-0.0432006,0.0045547-0.0864028,0.0068474-0.1296124C23.9716721,1.4284024,24.1266727,1.5258024,24.1677055,1.7168167z"
		/>
	<path fill="#1B1B22" d="M24.5630283,2.044734c-0.0496082,0.0024121-0.0992146,0.0048246-0.1488266,0.0072379
		c-0.1293888-0.0877322-0.2299595-0.1934365-0.2569714-0.3450292C24.3652077,1.7463509,24.4733429,1.8862581,24.5630283,2.044734z"
		/>
	<path fill="#FDFB00" d="M17.5508003,4.2778029c0.1596775,0.1784177,0.6349602,0.1332731,0.4625664,0.5469146
		c0.0190353,0.0556064,0.0192661,0.1115117,0.0042782,0.1676564c-0.0105858,0.0263128-0.0222702,0.0526452-0.0324478,0.0792747
		c-0.1757126,0.4008427-0.4726582,0.5206141-0.9438572,0.4206562c-0.4020271-0.0852838-0.8299065-0.1006718-1.1957741,0.154407
		c-0.0396852,0.0351782-0.082037,0.0684161-0.1235123,0.1014199c-0.0466385,0.0682817-0.181612,0.1086416-0.1060276,0.2133975
		c0.0258818,0.0358701,0.1097431-0.0134544,0.167305-0.033947c0.0577106-0.0215774,0.114872-0.0356412,0.1749668-0.0468898
		c0.8797817-0.114821,1.6319447,0.0828338,2.1644135,0.7682729c0.4757862,0.6124678,0.4183674,1.3126593-0.1370697,1.9055257
		c-0.1501827,0.1603041-0.3159962,0.3079462-0.4896755,0.4482794c-0.1454906,0.1021795-0.3097324,0.1609735-0.4913559,0.180069
		c-0.6404457,0.0072393-1.2854891,0.0727472-1.9121561-0.1145048c-0.239171-0.0532188-0.4324818-0.1982174-0.6601343-0.275773
		c-0.2588043-0.1343832-0.4246349-0.3326674-0.4903059-0.5994873c-0.3178339-0.715795-0.2805996-1.4598689-0.2112951-2.2066803
		c0.0731068-0.2398348,0.1602678-0.4752712,0.2914753-0.6952338c0.2592297-0.4102969,0.6226816-0.7219014,1.0766764-0.9484677
		C15.9079046,4.0537057,16.7221527,3.9326582,17.5508003,4.2778029z"/>
	<path fill="#202020" d="M18.7085743,2.9740562c0.0839577,0.0003405,0.1679153,0.0006812,0.251873,0.0010083
		c0.0000019-0.0000134,0.0029221,0.0002198,0.0029221,0.0002198c0.2781563,0.1324666,0.4916573,0.3240461,0.6339493,0.5807309
		c0.3729725,0.1681094,0.4528999,0.5271442,0.6367207,0.8184912c0.0448513,0.2241702,0.2737789,0.3459473,0.3628387,0.5458598
		c0.1079464,0.6117802,0.4457264,1.1792784,0.3488655,1.8348274c-0.0500069,0.3384371-0.0504684,0.6799645-0.2023945,0.9996791
		C20.3301964,8.38305,20.2036476,9.1751976,19.4694633,9.619709c-0.3469315-0.0613308-0.2872105-0.2416754-0.1174469-0.4076433
		c1.6869469-1.6491957,1.2066669-4.5536551-0.4583206-5.8929834c-0.0767441-0.0617344-0.1265335-0.1515331-0.1888771-0.228261
		c-0.0313625-0.0268152-0.0412464-0.0530469-0.0296974-0.0787122C18.686533,2.9867461,18.6976681,2.9740562,18.7085743,2.9740562z"
		/>
	<path fill="#121223" d="M15.0187483,4.507947c-0.2931843,0.2681804-0.5863686,0.5363612-0.8795509,0.8045416
		c-0.2175932,0.1701818-0.2177973,0.4353132-0.3378029,0.6482453c-0.0849657,0.7762122-0.189209,1.5544868,0.3190727,2.2603755
		c0.1272297,0.154295,0.2544613,0.308589,0.381691,0.4628839c0.1796741,0.1019955,0.3108511,0.2716331,0.5305548,0.3181953
		c0.1342525,0.0457478,0.2624969,0.0972672,0.2943325,0.2455387c-0.0015354,0.0534582-0.0210638,0.1004133-0.0612173,0.1397705
		c-0.8291883-0.1603909-1.8267202-1.1103058-1.899642-1.8908687c-0.1450329-1.5523834,0.1579075-2.6443987,1.7916708-3.4266386
		c0.8547564-0.4092536,1.7632742-0.438287,2.6576071-0.046207c-0.1266212,0.0978398-0.3141899,0.0627427-0.4374981,0.1680379
		C16.5628834,4.118268,15.7457819,4.0315771,15.0187483,4.507947z"/>
	<path fill="#141423" d="M9.7941475,12.1861715c-0.2984343-0.0092812-0.5959826-0.3552666-0.8953714-0.0019751
		c-0.1698399,0.1080818-0.3396091,0.1076117-0.5093117-0.0002699c-0.088275-0.3055-0.511641-0.1003361-0.6366343-0.3498783
		c-0.3463097-0.0535364-0.4833908-0.279274-0.5519605-0.5616379c0.0343866-0.0815277,0.0913134-0.1428137,0.1841846-0.172081
		c0.0978723-0.0006866,0.1730661,0.0431147,0.2408786,0.1016073c0.8844738,0.7396364,1.7470407,0.6167212,2.2468987-0.2998066
		c0.2234793-0.4097652,0.076272-0.7394314-0.1666164-1.0716219c-0.1143503-0.2170448-0.4566097-0.2866096-0.451499-0.5813036
		C9.3058434,9.1691504,9.3766747,9.1170712,9.4821854,9.112895c0.9106731,0.4442654,1.3775091,1.456645,1.0719481,2.3198013
		C10.3052597,11.6866484,10.1215839,11.9972725,9.7941475,12.1861715z"/>
	<path fill="#141423" d="M12.0830498,4.4915633c-0.5658236,1.0096102-0.4609747,2.1024361-0.3469524,3.1580033
		c0.0763502,0.7068138,0.6216745,1.2926178,1.1120701,1.8524647c0.0468092,0.1110239-0.0314102,0.1476917-0.1247206,0.1757975
		c-0.2053175,0.0038958-0.3482027-0.1173096-0.5062122-0.2097158c-0.2193384-0.1504622-0.337512-0.3631887-0.434845-0.589386
		c-0.6847935-1.2351379-0.859643-2.5136981-0.3866634-3.8454776c0.0904293-0.2546196,0.1708326-0.5180779,0.443223-0.6743417
		C11.9725256,4.3226047,12.0343313,4.3970265,12.0830498,4.4915633z"/>
	<path fill="#0C0C24" d="M18.7085743,2.9740562c-0.0012455,0.0389369-0.002491,0.0778732-0.003746,0.1167879
		c-0.5943394-0.1936319-1.1886673-0.3872414-1.7829952-0.5808511c-0.5944939-0.0999949-1.1890421-0.0983574-1.7836409-0.0007706
		c-0.7527933,0.1446922-1.4548683,0.3764255-2.0769453,0.8204362c-0.2876225,0.205292-0.4172421,0.5232131-0.7211599,0.6988223
		c-0.1112862-0.0590456-0.1610146-0.1520939-0.1753035-0.2651212c0.0135279-0.0856609,0.0647755-0.151489,0.1307058-0.2099776
		c0.4510698-0.4183452,0.9809647-0.742965,1.5129433-1.0665286c1.448205-0.7116718,2.8951216-0.6125371,4.3416357,0.0033374
		c0.2173691,0.08232,0.3565559,0.2635705,0.5559521,0.3692727C18.7068043,2.8976626,18.707655,2.9358602,18.7085743,2.9740562z"/>
	<path fill="#1F1E22" d="M17.9411793,5.5396385c-0.1841621,0.1958952-0.2298794,0.3616595,0.0293808,0.5628181
		c0.3290501,0.255301,0.630846,0.5459781,0.7340393,0.9549456c-0.1253033,0.0500174-0.2533054-0.0027022-0.3805008,0.0081038
		c-0.6585388-1.0550952-1.3446846-1.3338709-2.5386896-1.0313435l0.0164175-0.0067644
		c-0.5126009,0.0370584-0.2286844-0.2000694-0.1505747-0.3663526l0.0023355-0.0020385
		c0.4871635-0.3254437,1.0087109-0.4041076,1.5705814-0.180295c0.182972,0.0728841,0.3622894,0.0576973,0.5422459-0.0063987
		C17.8348751,5.4725938,17.8931046,5.4951296,17.9411793,5.5396385z"/>
	<path fill="#111123" d="M7.1144829,11.0196199c-0.4527597-0.504961-0.0983424-0.9472122,0.1297975-1.3992739
		C7.5177159,9.3602114,7.4625888,8.890852,7.9116445,8.742238c0.0893931-0.0109024,0.1749978-0.0392923,0.2649884-0.0480375
		c0.274168-0.0228548,0.5497961-0.0110054,0.8241177-0.032362c0.1369038-0.0250864,0.244936,0.0269451,0.3431902,0.1062536
		C9.4495659,8.9008026,9.4868765,9.0252199,9.2914515,9.119668C8.9843931,9.2531252,8.640748,9.0980835,8.3329887,9.2216024
		C8.2289143,9.360055,8.0801001,9.4558754,7.9502783,9.5699091C7.8529816,9.6553659,7.7583847,9.7427597,7.6715336,9.8370218
		c-0.2580123,0.2317419-0.2626133,0.5488701-0.338172,0.8420763C7.28443,10.8055944,7.2450013,10.9373369,7.1144829,11.0196199z"/>
	<path fill="#0E0D25" d="M11.1904926,10.7854137c0.0841236-0.2271919-0.2457542-0.3956556-0.1068096-0.6306248
		c0.09272,0.0064173,0.1627789,0.0509176,0.224123,0.1101847c0.2840958,0.1354952,0.3328896,0.7205753,0.8654623,0.3769474
		c0.0341558-0.0384407,0.0730677-0.0722733,0.1149082-0.1032753c0.0475578-0.0240707,0.098588-0.0341768,0.1529093-0.0289078
		c0.0840006,0.0257292,0.1047888,0.1019125,0.1501217,0.1586666c-0.0465565,0.0619202-0.0794115,0.1408329-0.14188,0.1830196
		c-0.4258375,0.2875824-0.5053673,0.5454435,0.0474081,0.7861013c0.0539627,0.0234928,0.0648203,0.1299086,0.0956869,0.1978331
		c-0.0974302,0.1024303-0.224802,0.1162195-0.3615656,0.1032696c-0.4945889-0.1804361-0.9283447-0.4252625-1.1336708-0.9089346
		C11.0889463,10.9357929,11.1163406,10.8530703,11.1904926,10.7854137z"/>
	<path fill="#2D2C1F" d="M12.1931267,11.8419085c0.1330986-0.0021915,0.2661953-0.0043821,0.3992958-0.0065622
		c0,0.0000124-0.0016155,0.0000486-0.0016155,0.0000486c0.0752993,0.0750294,0.0815649,0.1523361,0.0091438,0.2322359
		c-0.0403423,0.0644665-0.0787544,0.1840324-0.1213102,0.1852827c-0.8959341,0.026289-1.7966585,0.1690054-2.6845446-0.066762
		c0.0733891-0.336875,0.373394-0.5114946,0.6195307-0.724679c0.0206404,0.0195036,0.0412807,0.0390091,0.0621138,0.0584879
		c-0.0221291,0.26476-0.0668154,0.5319939,0.4028959,0.4139109C11.307004,11.8261814,11.7726765,12.0972929,12.1931267,11.8419085z"
		/>
	<path fill="#121223" d="M17.0500336,9.0371113c0.1115913-0.0447388,0.2231789-0.0894766,0.3347702-0.1342154
		c0.5439663-0.1307087,0.6416645-0.689579,1.0687389-0.9326911c0.0365009,0.0311646,0.0481606,0.0619016,0.0353031,0.0922437
		c-0.0127678,0.0301256-0.0253315,0.0451956-0.0377369,0.0451956c-0.1878586,0.6836195-0.717001,1.0531225-1.4038658,1.2774544
		c-0.12397-0.072176-0.3086777,0.0220814-0.4057655-0.1239729C16.6485558,8.9893188,16.9541855,9.1734514,17.0500336,9.0371113z"/>
	<path fill="#2B2B20" d="M15.0187483,4.507947c0.7154865-0.6267526,1.5666475-0.5265322,2.4265852-0.3793006
		c0.0441704-0.0371389,0.0819263-0.0323067,0.1132698,0.0144963C17.5560017,4.1880288,17.5534,4.2329149,17.5508003,4.277802
		C16.688179,4.1830893,15.8340549,4.1666751,15.0187483,4.507947z"/>
	<path fill="#303030" d="M21.8895454,4.9583473c0.3704929,0.8307104,0.2267189,1.7041745,0.2544537,2.5633798
		c-0.0007076,0.0383763-0.0008678,0.076755-0.0004807,0.1151357c-0.1642017,0.0692811,0.0807781,0.3852854-0.2534523,0.3520455
		C22.0940552,6.9786916,21.9906063,5.9685192,21.8895454,4.9583473z"/>
	<path fill="#222222" d="M7.8884373,8.8158522c-0.2440925,0.2484655-0.2147999,0.680274-0.6441684,0.8044853
		C7.0883002,9.2852879,7.4760332,9.0907393,7.496963,8.8013716c0.0023775-0.0951004,0.026525-0.1806622,0.1224904-0.2348452
		C7.7488985,8.6136885,7.8145199,8.7185192,7.8884373,8.8158522z"/>
	<path fill="#030326" d="M16.645647,9.2580729c0.1406345,0.0245018,0.3042336-0.0118103,0.4016342,0.1270418
		c-0.5935574,0.1751738-1.1873016,0.2076235-1.7814417,0.0023727c0.0035152-0.0531464,0.0070429-0.1063051,0.0105696-0.159462
		c0.1065683-0.0731287,0.2265663-0.0672207,0.3484163-0.050993c0.2811861,0.0801096,0.567256,0.0788422,0.8556643,0.0386667
		C16.5406036,9.2133694,16.5953732,9.2285728,16.645647,9.2580729z"/>
	<path fill="#050526" d="M18.4511089,8.1076441c-0.0006104-0.0402174-0.0012207-0.0804348-0.001833-0.1206522
		c-0.1097393-0.3105373-0.1063499-0.6214046-0.0032406-0.9325614c0.0879765-0.1306887,0.1725712-0.0112624,0.2585773,0.0029502
		C18.6231995,7.4081082,18.9095306,7.8331518,18.4511089,8.1076441z"/>
	<path fill="#222222" d="M7.2426519,11.252367c0.1700578,0.1938953,0.3401151,0.3877916,0.5101762,0.5816841
		c-0.44103,0.0170403-0.6605425-0.1856527-0.6326609-0.5841913C7.1619549,11.2114067,7.2027841,11.2122431,7.2426519,11.252367z"/>
	<path fill="#1E1E22" d="M15.1381922,2.5092225c0.5946474-0.185075,1.1892004-0.1861031,1.7836485,0.0007701
		C16.3272858,2.5097361,15.7327404,2.5094795,15.1381922,2.5092225z"/>
	<path fill="#0D0E24" d="M17.9362392,4.9542542c-0.0237617-0.0679231,0.0071144-0.1085505,0.0772038-0.1295438
		c0.2611752-0.0217857,0.1139393-0.3083658,0.3643208-0.4139872c0.1049671,0.2740273,0.1367855,0.4954143-0.1782055,0.6667542
		C18.0873413,5.0801516,17.9952641,5.0467782,17.9362392,4.9542542z"/>
	<path fill="#0C0D24" d="M12.5912075,10.6684046c-0.0419846-0.0383863-0.0839663-0.0767736-0.1259508-0.11516
		c-0.0963049-0.2630615,0.1866512-0.3594131,0.2805176-0.5392313c0.1133795-0.0967875,0.1056423-0.3260622,0.3548565-0.2760916
		C13.2244434,10.1827164,12.7804413,10.3671513,12.5912075,10.6684046z"/>
	<path fill="#222221" d="M21.8900661,7.9889073c0.0844898-0.1173372,0.1689777-0.2346749,0.2534618-0.3520284
		c0.0030499,0.3897409-0.090353,0.7501535-0.3815498,1.0503941C21.8046722,8.4544849,21.8473682,8.2216969,21.8900661,7.9889073z"/>
	<path fill="#060526" d="M12.209053,3.7919347c0.1049833,0.0503757,0.126133,0.1396408,0.1310053,0.2365081
		c0.0121145,0.1998477-0.1863403,0.3017778-0.2570105,0.4631176c-0.0437698-0.0397115-0.0875444-0.0794258-0.1313162-0.1191406
		c-0.1501341-0.1621132-0.0377903-0.3040228,0.0403185-0.449101C12.0455856,3.8537242,12.1151791,3.8058896,12.209053,3.7919347z"/>
	<path fill="#090825" d="M17.9362392,4.9542542c0.1079121,0.0049438,0.2061367,0.0272336,0.2632751,0.1231871
		c0.013979,0.2009439-0.185091,0.3021221-0.2583332,0.4622054c-0.0412941-0.0000501-0.0825844-0.0002875-0.1238728-0.000721
		c-0.1417217-0.22644,0.0926895-0.3915472,0.1151066-0.5912232L17.9362392,4.9542542z"/>
	<path fill="#1B1B22" d="M12.5999508,12.0676308c-0.0030355-0.0774193-0.006073-0.1548395-0.0091257-0.2322474
		c0.1847286,0.009366,0.3316717,0.0708447,0.3620214,0.2551498c0.0075998,0.0461445-0.0250444,0.1316671-0.0616903,0.1442614
		C12.7274933,12.2910423,12.7122126,12.1046362,12.5999508,12.0676308z"/>
	<path fill="#222221" d="M21.3780937,9.3861361c0.0585823-0.2649403,0.1726742-0.5043411,0.3839798-0.6990213
		C21.7578354,8.9770565,21.6766682,9.2316065,21.3780937,9.3861361z"/>
	<path fill="#020226" d="M7.2426519,11.252367c-0.0408502-0.0012732-0.0817113-0.0020962-0.1225333-0.0024881
		c-0.0018358-0.0767746-0.0037198-0.1535311-0.0056205-0.2302732c0.0083799-0.1219225-0.0256977-0.2553787,0.1109133-0.3425417
		c0.1913834,0.1149588,0.2956638,0.2529106,0.1444473,0.4583054C7.327457,11.1743689,7.2850537,11.2133675,7.2426519,11.252367z"/>
	<path fill="#161623" d="M13.1006308,9.7379217c-0.0787182,0.1178465-0.1574354,0.2356939-0.2361546,0.3535404
		c-0.1762581-0.1241932-0.2364731-0.2783318-0.1452894-0.4715385c0.042985-0.0392895,0.085968-0.078578,0.1289654-0.1178789
		C12.967948,9.548728,13.0542545,9.6254282,13.1006308,9.7379217z"/>
	<path fill="#040426" d="M17.5586033,4.1431427c-0.0381088-0.0031114-0.075964-0.0078735-0.1134205-0.0143909
		c0.0912037-0.1305954,0.2380295-0.0961661,0.3702641-0.1049523c0.0820045,0.0450754,0.2303352,0.1050339,0.1380692,0.188756
		C17.8319893,4.3228283,17.6921902,4.1736231,17.5586033,4.1431427z"/>
	<path fill="#222222" d="M8.3894644,12.1839266c0.1697721,0.0000877,0.3395443,0.0001764,0.5093136,0.000268
		C8.7288275,12.4649935,8.5590572,12.4644508,8.3894644,12.1839266z"/>
	<path fill="#FDFC00" d="M12.209053,3.7919347C12.1684017,3.8370256,12.1277504,3.882117,12.0871,3.9272084
		c-1.1753798,1.6527829-1.1308699,3.3370032-0.1552429,5.0452199c0.1365728,0.1305656,0.1315603,0.3556576,0.3460989,0.4341726
		c0.6106853,0.5394468,0.6106853,0.5394468,0.0380049,1.1298008l0.0041952-0.0033436
		c-0.1768064,0.3542633-0.4075947,0.4263678-0.7065477,0.1093683c-0.1238317-0.1313057-0.2957592-0.2157278-0.4073048-0.3580456
		c-0.0408726-0.0431976-0.0817461-0.0863943-0.1226196-0.1295919c-0.2115622-0.3362913-0.4231243-0.6725836-0.6346865-1.0088758
		c-0.7003298-1.23139-0.8660126-2.5307388-0.5898695-3.8860278c0.1730862-0.273139,0.139863-0.6133294,0.3395395-0.8781028
		l-0.0083818,0.0138383c0.078475-0.260026,0.190464-0.5055914,0.371623-0.7213089
		c0.0399952-0.0755565,0.0799904-0.1511128,0.1199856-0.2266693c0.1203527-0.1645546,0.2582026-0.3164802,0.4007387-0.4650233
		c0,0-0.0006351,0.0082085-0.0006227,0.008224c0.6985235-0.703135,1.5013208-1.2854859,2.4114599-1.7435312
		c1.3228598-0.3870806,2.6555548-0.6407487,4.0367937-0.2542902c0.3017273,0.0844204,0.6047821,0.1648581,0.9072037,0.2471216
		c0.2262611,0.160648,0.4784145,0.2744619,0.752737,0.3481606c0.0854816,0.1731378-0.0431252,0.3084993-0.0962696,0.4571722
		c-0.1694069,0.2053876-0.3388195,0.4107754-0.5082283,0.6161637c-0.1012897,0.0378635-0.1979523,0.0262504-0.2910843-0.0226345
		c-1.5238533-0.754474-3.0544996-0.7564837-4.5911341-0.0344982c-0.5017958,0.3211074-1.0095396,0.6361759-1.4261303,1.0545149
		C12.2085609,3.6835151,12.1660585,3.7193253,12.209053,3.7919347z"/>
	<path fill="#222221" d="M11.1904926,10.7854137c-0.0055676,0.0889368-0.0111341,0.1778736-0.0167027,0.2668104
		c-0.3590269-0.003746-0.375391,0.4406624-0.7172804,0.4593306c-0.0126457-0.0177212-0.0268879-0.0342932-0.0428038-0.0498991
		c0.2941761-0.8564177-0.0343599-1.6096153-1.0064602-2.3074026C9.273283,9.1976967,9.2530565,9.1393595,9.2819901,9.0370274
		C9.4241209,8.9585447,9.2919846,8.8822622,9.279768,8.8050184c0.0588608-0.114954,0.1626606-0.1869268,0.2804146-0.2455511
		c0.5010414,0.6023178,1.0175619,1.1949654,1.1776495,1.970542C10.7818317,10.7431784,11.059,10.6694336,11.1904926,10.7854137z"/>
	<path fill="#32321F" d="M9.9374304,5.1985025c-0.2299423,1.3592701-0.0705595,2.6762819,0.5115662,3.9474106
		c-0.7981472-1.0069122-0.837965-2.1620755-0.7696476-3.3353572C9.6913538,5.6043863,9.7530622,5.400641,9.7918177,5.195776
		C9.8416977,5.1366487,9.8902349,5.1375604,9.9374304,5.1985025z"/>
	<path fill="#32321F" d="M9.5601826,8.5594673C9.5331926,8.7048864,9.4554996,8.8018103,9.2797813,8.8050041
		C9.1902523,8.7711821,9.1007366,8.7373457,9.01122,8.7035093C8.7279873,8.8187895,8.4075708,8.6570778,8.1284199,8.802763
		C8.048378,8.8070507,7.9683361,8.8113403,7.8883653,8.8157396C7.720582,8.8034544,7.6260767,8.7247877,7.6195159,8.5665693
		c0.0233951-0.2335253,0.186214-0.3657818,0.399837-0.4611444C8.0572834,8.283,7.7819238,8.3861122,7.9069729,8.6176271
		c0.3820057-0.0385942,0.7777166-0.1716442,1.1923752-0.0571766c0.2684603,0.0741072,0.3167315-0.069376,0.2423935-0.2925243
		c-0.0534964-0.1605825-0.0578032-0.334888-0.0840883-0.5030746C9.5179987,7.9788494,9.5231514,8.2742405,9.5601826,8.5594673z"/>
	<path fill="#111124" d="M9.9374304,5.1985025C9.8888855,5.197556,9.8403397,5.1966095,9.7918062,5.1957192
		c0.1886158-0.2490726,0.0504389-0.6349549,0.4067926-0.8139248C10.1843777,4.673522,10.0682392,4.9379773,9.9374304,5.1985025z"/>
	<path fill="#111124" d="M10.5619087,3.6743119c-0.0545788,0.2703204-0.1729612,0.5130937-0.3716898,0.7212293
		C10.1595221,4.0884581,10.2562141,3.836293,10.5619087,3.6743119z"/>
	<path fill="#111124" d="M11.082633,2.9826193c-0.0870352,0.1885984-0.1626883,0.3854129-0.4007378,0.4650202
		C10.69559,3.2061093,10.8530064,3.0683055,11.082633,2.9826193z"/>
	<path fill="#171723" d="M8.2618484,7.4072843C8.303442,7.4052567,8.3450642,7.404449,8.386714,7.4048629
		c0.0206575,0.2029901-0.0195866,0.3784719-0.2519531,0.467175C8.1771231,7.7171197,8.2194853,7.562202,8.2618484,7.4072843z"/>
	<path fill="#303030" d="M19.2154903,2.5101724c0.0846291-0.116869,0.1692562-0.2337382,0.2538776-0.3506148
		c0.6649342,0.5981638,1.3281727,1.1870821,1.7319469,1.987478c0.7822361,1.5506167,0.6833191,3.0783119,0.0379829,4.6411896
		c-0.1996136,0.4834223-0.5232239,0.8695745-0.8218994,1.2821503c-0.1166306,0.1611128-0.2682076,0.3205528-0.5130749,0.1194868
		c-0.2247715-0.1845675-0.1295185-0.3222885,0.039505-0.4823847c1.172987-1.1110439,1.4642715-2.4920158,1.2813396-3.947453
		c-0.1160526-0.9233236-0.6074467-1.752759-1.3213291-2.4398854C19.6436214,3.0696716,19.3695621,2.8340518,19.2154903,2.5101724z"
		/>
	<path fill="#303030" d="M20.7433491,7.7548728c0.0730686-0.5332813,0.1929379-1.0661316,0.1216354-1.6054511
		c-0.0594234-0.4494805-0.4374847-0.8266039-0.3765869-1.3084798c-0.0718613-0.0767694-0.0782509-0.1541176-0.0024529-0.2321935
		c0.4235592,0.1930494,0.3358612,0.6271853,0.3985119,0.9183068C21.0422916,6.2604647,21.2242603,7.0379853,20.7433491,7.7548728z"
		/>
	<path fill="#303030" d="M19.5973186,3.5560153c-0.262228-0.1470392-0.4745617-0.3397005-0.6339836-0.5807211
		C19.3906364,2.9714227,19.6032047,3.1638546,19.5973186,3.5560153z"/>
	<path fill="#212121" d="M20.4859447,4.608748c0.0008183,0.0773988,0.0016365,0.154798,0.0024548,0.2321949
		c-0.2319336-0.0882711-0.2665176-0.2666769-0.2543602-0.466433C20.3180084,4.4525871,20.4019756,4.5306673,20.4859447,4.608748z"/>
	<path fill="#1E1E22" d="M18.3506966,2.6143117c0.078331,0.0157695,0.156662,0.0315392,0.2350006,0.0473185
		c0.0401115,0.0659511,0.0802135,0.1318932,0.1203175,0.1978345c-0.2023087-0.0153978-0.3766975-0.0855691-0.5177631-0.2210968
		C18.2320023,2.571543,18.28615,2.5635221,18.3506966,2.6143117z"/>
	<path fill="#1B1A24" d="M16.0806541,8.1735382c-0.4108868-0.0646105-0.709156-0.2623873-0.6790886-0.6470294
		c0.0295506-0.3780079,0.3524971-0.584012,0.753109-0.5631075c0.4008217,0.0209131,0.6890545,0.2454515,0.6613998,0.6408858
		C16.7885036,7.9985237,16.4800491,8.1556787,16.0806541,8.1735382z"/>
	<path fill="#222222" d="M18.4460354,7.0544305c0.001091,0.3108592,0.0021839,0.6217184,0.0032578,0.9325695
		c-0.3343334,0.3252273-0.4316273,0.8811507-1.0644398,0.9159036c0.8248329-0.6272612,1.0718479-1.2598801,0.7646275-1.9583731
		c-0.3209095-0.7296185-1.1140194-1.0351005-2.3640451-0.9104576c0.8125563-0.4007578,1.8437662-0.1271372,2.3890829,0.6344924
		C18.2661343,6.7965221,18.3555851,6.9257755,18.4460354,7.0544305z"/>
	<path fill="#35341F" d="M14.1204672,8.2211094c-0.5819311-0.5583739-0.5412159-1.2426-0.4622803-1.9326997
		c0.0152235-0.1331048,0.0543671-0.263917,0.0824776-0.3957863c0.0475845-0.0498385,0.0942173-0.0491042,0.1398926,0.0022149
		C13.7985411,6.6842532,13.7686834,7.4691639,14.1204672,8.2211094z"/>
	<path fill="#868613" d="M15.6510954,9.280921c-0.1249104-0.017519-0.2498198-0.035037-0.3747072-0.0527258
		c-0.0980501-0.0635777-0.1961212-0.1269836-0.2941923-0.1903915c-0.038393-0.0519514-0.0270834-0.0922108,0.0339231-0.1207809
		c0.6685305,0.1739454,1.3526115,0.1273298,2.0339146,0.1200876c-0.1347141,0.0737-0.2694302,0.1474018-0.4042645,0.2210331
		c-0.0001221-0.0000706-0.0533409-0.0048103-0.0533409-0.0048103l-0.0512905,0.013834
		C16.2462673,9.3698654,15.949008,9.3430977,15.6510954,9.280921z"/>
	<path fill="#222222" d="M17.932415,4.9477024c0.0689259,0.2145967-0.1081142,0.3890619-0.1151466,0.5912414
		c-0.134613,0.0494952-0.2761631,0.1664476-0.41576,0.0866537c-0.5959702-0.3406582-1.1704979-0.1881166-1.7479229,0.0334096
		c0.3434134-0.4209733,0.8604145-0.4602661,1.3071194-0.3188367C17.4912167,5.5081334,17.7301979,5.3301969,17.932415,4.9477024z"/>
	<path fill="#222222" d="M15.6512518,5.6610456c0.0093098,0.1361041-0.1707335,0.3373508,0.1504908,0.3662663
		c-0.1212711,0.1192646-0.2911825,0.3058944-0.4251204,0.1121106C15.237628,5.9383311,15.4698782,5.7815223,15.6512518,5.6610456z"
		/>
	<path fill="#212121" d="M13.8805571,5.8948383c-0.0466452-0.0007577-0.0932913-0.0015144-0.1399164-0.0022435
		c0.1427259-0.1876764,0.0765142-0.4955826,0.3985548-0.5801063C14.0529842,5.5066056,13.9667702,5.7007217,13.8805571,5.8948383z"
		/>
	<path fill="#171723" d="M15.016119,8.9170227c-0.0112352,0.0402622-0.0224714,0.0805244-0.0338144,0.1207838
		c-0.2428675-0.0239124-0.3764353-0.1718969-0.4801464-0.3538122C14.7168732,8.6815109,14.8354044,8.8566999,15.016119,8.9170227z"
		/>
	<path fill="#151523" d="M9.7990026,9.73594c0.729517,0.7193346,0.2472582,1.4203892-0.3651676,1.8825493
		c-0.5649261,0.4263153-1.3465776,0.2630749-1.9362597-0.3652287c0.0442014-0.0409498,0.0972366-0.0641842,0.1602168-0.0674877
		c0.1516552,0.0113792,0.2750449,0.0866098,0.4016438,0.1531458c0.3596983,0.1890459,0.7228088,0.3220892,1.1124277,0.0644283
		c0.4224977-0.2794027,0.6571255-0.6369438,0.5619192-1.1326284c-0.025238-0.1314058-0.0643864-0.262598-0.0355606-0.3987408
		C9.7169085,9.8172884,9.7499332,9.771595,9.7990026,9.73594z"/>
	<path fill="#1C1C21" d="M9.7990026,9.73594C9.7947149,9.7782001,9.7904263,9.8204594,9.7861376,9.8627186
		c-0.163084,0.0517483-0.2825613-0.0374794-0.3973532-0.1144524C9.015584,9.4980221,8.627697,9.3587351,8.168273,9.5524826
		C8.0715818,9.5932608,7.9639983,9.5743885,7.8798103,9.500824c0.0537-0.1838064,0.2856474-0.2028522,0.3826056-0.346673
		c0.3529358-0.0597248,0.7140837-0.1813984,1.0200424,0.1132498C9.4366236,9.4402161,9.6993399,9.5128012,9.7990026,9.73594z"/>
	<path fill="#222222" d="M7.6402311,11.2466259c-0.0475492,0.0021982-0.095099,0.0043964-0.142652,0.0066147
		c-0.0425701-0.039279-0.0851374-0.078578-0.1277122-0.1178751c-0.0480504-0.1528091-0.0960922-0.3056231-0.1442952-0.4583683
		c0.0229921-0.3525114-0.0127268-0.7259846,0.3985605-0.9408045C7.6249495,10.2397108,7.6055365,10.7434101,7.6402311,11.2466259z"
		/>
	<path fill="#040425" d="M9.2824574,9.2673998C8.9607697,9.0914154,8.6061306,9.1639595,8.262414,9.1541414
		c0.3113518-0.2468185,0.6827965-0.0555182,1.0195646-0.1171141C9.3237514,9.0760975,9.3655128,9.1151667,9.407259,9.1542435
		C9.3656483,9.191967,9.3240528,9.2296839,9.2824574,9.2673998z"/>
	<path fill="#282820" d="M11.9318571,8.9724283C10.7917881,7.4648972,10.8633423,5.1394691,12.0871,3.927207
		c-0.0450964,0.1484175-0.0901937,0.2968335-0.1353302,0.445231c-0.876564,1.295939-0.817482,2.6375337-0.2306442,4.003655
		C11.8049479,8.5712233,11.9785299,8.7388973,11.9318571,8.9724283z"/>
	<path fill="#252521" d="M12.3159609,10.5364017c0.4256096-0.388917,0.4491301-0.7665339-0.0379581-1.1298008
		c0.1938753-0.0100393,0.2818565,0.1634502,0.4411898,0.2133198c0.0961828,0.1448269,0.1490946,0.3007975,0.1451302,0.4714994
		c-0.1329212,0.1539612-0.2659969,0.3078804-0.3990698,0.461813C12.4154911,10.5476294,12.3657265,10.542016,12.3159609,10.5364017z
		"/>
	<path fill="#34341F" d="M18.3506966,2.6143117c-0.0541096,0.0079534-0.1082153,0.0159073-0.1623859,0.0239584
		c-1.484602-0.5993638-2.9678888-0.684181-4.4492826,0.0091667C13.683835,2.6814153,13.638298,2.670953,13.6010599,2.6223223
		C14.9286871,1.7920022,17.1437378,1.7882663,18.3506966,2.6143117z"/>
	<path fill="#181823" d="M13.6010599,2.6223221c0.0460091,0.0082645,0.0920153,0.0165286,0.1379957,0.0249538
		c-0.4872065,0.3373516-0.9743843,0.6745422-1.4616318,1.0117395C12.6145725,3.2022192,13.0601387,2.861285,13.6010599,2.6223221z"
		/>
	<path fill="#FAF901" d="M7.6402311,11.2466259c-0.3495774-0.5004053-0.2910419-1.0044537-0.016099-1.5104332
		C7.7093582,9.6577368,7.7945838,9.5792799,7.8798103,9.500824c0.7387218-0.3350163,1.3683243-0.1886225,1.9063282,0.3618917
		c0.291501,0.7536879,0.183857,1.1951466-0.3881578,1.591876C8.8674784,11.8225317,8.3937283,11.7664785,7.6402311,11.2466259z"/>
	<path fill="#050525" d="M8.1284199,8.802763C8.3991547,8.5938215,8.7143202,8.7152395,9.011385,8.7033958
		C8.739171,8.9021006,8.4217567,8.7627487,8.1284199,8.802763z"/>
	<path fill="#EFEF02" d="M10.4565096,11.5115547c0.1255398-0.0820436,0.1857948-0.2009172,0.2095461-0.3340101
		c0.0693645-0.3886786,0.2795916-0.283927,0.507741-0.1253319c0.2312908,0.3805246,0.6570425,0.5508099,1.0193405,0.7896919
		c0.2301741,0.2445011,0.1459942,0.3156767-0.1783829,0.3005295c-0.479002-0.0223656-0.9594288-0.0179663-1.4390326-0.0314074
		c-0.1533432-0.0042982-0.3634453,0.1203814-0.4430285-0.0769224c-0.0556984-0.1380892,0.1424408-0.2125206,0.2203674-0.3195696
		C10.3977728,11.6531115,10.4226837,11.5796156,10.4565096,11.5115547z"/>
	<path fill="#242421" d="M11.2063036,10.2843809c0.1538906,0.0267439,0.278511,0.1039639,0.3589659,0.2202997
		c0.2411747,0.3487415,0.4923086,0.2674065,0.7549162,0.0284138c-0.0923738,0.4501657-0.2937746,0.6377869-0.7083902,0.2285471
		C11.4629078,10.6146832,11.2397032,10.5151386,11.2063036,10.2843809z"/>
	<path fill="#121223" d="M15.6510954,9.280921c0.2966747-0.0045748,0.5933504-0.0091505,0.8900347-0.0137396
		C16.2479401,9.4605589,15.9508333,9.4419537,15.6510954,9.280921z"/>
	<path fill="#262620" d="M16.3475304,7.5422349c-0.0431347,0.0814309-0.1226387,0.0963693-0.2064953,0.0856972
		c-0.0783978-0.0099773-0.1873159-0.0149932-0.1585913-0.1246595c0.0223932-0.0854902,0.1183939-0.096014,0.2018633-0.0861712
		C16.2633438,7.4264216,16.3578053,7.4310303,16.3475304,7.5422349z"/>
</g>
</svg>
