<?xml version="1.0" encoding="utf-8"?>
<!-- Generator: Adobe Illustrator 24.1.1, SVG Export Plug-In . SVG Version: 6.00 Build 0)  -->
<svg version="1.1" id="Слой_1" xmlns="http://www.w3.org/2000/svg" xmlns:xlink="http://www.w3.org/1999/xlink" x="0px" y="0px"
	 viewBox="0 0 32 13" enable-background="new 0 0 32 13" xml:space="preserve" width="32px" height="13px">
<g>
	<path fill="#2C2C2C" d="M8.1369791,6.3757296c0.7535353-1.2374992,1.404933-2.5391462,2.2845039-3.6974893
		c1.3250761-1.7450492,3.2260332-2.6470504,5.6015463-2.6408048c2.5149994,0.0066122,5.0305119,0.0301917,7.5448532-0.0068567
		c1.3456707-0.0198281,2.9244976,1.6127781,2.3202553,2.9680018c-0.0845814,0.0145485-0.1437778-0.0141745-0.1780243-0.0855992
		c-0.0209579-0.0537949-0.0465698-0.1078269-0.0476704-0.165803c-0.0315781-1.6636543-1.1314716-2.4125211-2.9080563-2.4277267
		c-2.108593-0.0180474-4.2172203,0.0168741-6.3256607-0.0101067c-0.4882326-0.0062475-0.9678421,0.0210654-1.4347477,0.1560756
		c-0.1238937,0.0363165-0.2525826,0.0499174-0.3812046,0.058639c-0.17278,0.0022403-0.3350449,0.0359651-0.4717827,0.1413523
		c-0.0733929,0.0364866-0.1522217,0.0580289-0.2340059,0.0708029c-0.1901493,0.0128238-0.3619919,0.0715433-0.5163403,0.1740461
		c-0.0960064,0.0515956-0.1955824,0.0961384-0.2980814,0.1357802c-0.301548,0.0928652-0.5574636,0.2535514-0.7949572,0.4415854
		c-0.108285,0.0883642-0.2150793,0.1784385-0.3431463,0.2435335c-0.7769394,0.264591-1.0037212,0.9906658-1.5037775,1.487218
		c-0.1123629,0.1115758-0.1852465,0.2533641-0.2779665,0.3800821c-0.1202402,0.1432798-0.214488,0.2993901-0.2775888,0.47135
		C9.8720827,4.1196098,9.8436918,4.166265,9.81248,4.2119622c-0.3493214,0.6549959-0.7893524,1.263186-1.1760902,1.8987131
		C8.5373726,6.2733922,8.4670067,6.5453315,8.1369791,6.3757296z"/>
	<path fill="#222222" d="M8.1369801,6.3757296C8.5344028,6.24506,8.5737219,5.8678174,8.7775879,5.604187
		C9.1562834,5.1144772,9.3564358,4.5250301,9.807271,4.0752277c0.1116734,0.0937605,0.1195078,0.2137985,0.1054935,0.3397021
		C9.8721466,4.80726,9.7220068,5.1693435,9.5405569,5.522871c-0.1268263,0.3627424-0.0451813,0.7355013-0.0653076,1.103054
		c-0.0219908,0.3390856,0.0493126,0.6837959-0.071784,1.016201C9.0901022,7.7305517,9.0473318,7.7315903,9.0368595,7.3747449
		C9.0273104,7.049334,8.8958139,6.9493661,8.5694141,6.9985671C8.489604,6.9429379,8.4892044,6.873857,8.5290546,6.7980843
		c-0.0669689-0.0113811-0.0600863,0.046988-0.0792141,0.0749364c-0.2869511,0.41925-0.4334898,0.920711-0.8826866,1.2457738
		c-0.6476555,0.5842876-1.0774994,1.3098974-1.2301817,2.0964899c-0.1580811,0.8144159,0.3221712,1.4731817,1.0539646,1.9604921
		c0.1750259,0.1165514,0.4525003,0.1655293,0.3974791,0.4523067c-0.2159696,0.0999832-0.3557839-0.0559359-0.5205956-0.1278877
		c-1.2724762-0.6892767-1.6934924-2.240406-0.8498049-3.453598C7.023963,8.1752663,7.566278,7.2673345,8.1369801,6.3757296z"/>
	<path fill="#A6A6A6" d="M7.2678204,12.5001955c0.1696544,0.0356894,0.3393092,0.0713797,0.5089636,0.10707
		c0.0677786-0.041049,0.1422987-0.0591841,0.2234592-0.0550013c1.4493599,0.029211,2.8989859,0.0078058,4.3485699,0.0101404
		c1.340766-0.034008,2.6817656-0.0071983,4.0226145-0.015048c0.3150043-0.0018435,0.6282692-0.0146084,0.9376602-0.0713377
		c0.331461,0.0081501,0.670187-0.2352381,0.9957581,0.0194721c-0.4803009,0.2818708-1.0135937,0.4597559-1.5763283,0.4632063
		c-2.7671156,0.0169697-5.5344152,0.0090075-8.3016491,0.0092173C7.965178,12.9679499,7.5825243,12.8029528,7.2678204,12.5001955z"
		/>
	<path fill="#2E2E2E" d="M18.3048458,12.495491c-0.315567-0.0774584-0.5776558,0.1676531-0.8879871,0.121767
		c0.005619-0.3232718,0.3058739-0.3091049,0.5290222-0.3777294c1.2016602-0.369544,2.2871456-0.8969078,3.0609093-1.8506937
		c0.6428242-0.5722895,0.9066906-1.3364687,1.2561169-2.05721c0.2587719-0.439189,0.5286026-0.8713713,0.9610023-1.1954398
		c0.0643177,0.0003309,0.1211796,0.0188017,0.1693707,0.0580897c-0.5073986,0.8955851-0.9706516,1.8148594-1.5326614,2.6811399
		C21.0408192,11.1390533,19.8050117,11.9753504,18.3048458,12.495491z"/>
	<path fill="#252525" d="M23.39328,7.1942749c-0.0467644-0.004221-0.0935268-0.0084429-0.1402912-0.0126648
		c-0.079565-0.3648252,0.1490498-0.6406088,0.3347473-0.9237375c0.1373005-0.2093349,0.2813702-0.4109192,0.2798691-0.6663146
		c0.0236778-0.1418567,0.0724659-0.272459,0.202055-0.365963c0.1591473-0.082118,0.2941437-0.0281367,0.4225559,0.0626664
		C24.5077,5.3120499,24.5230637,5.33603,24.5384254,5.3600101C24.2188816,6.0035353,23.8304043,6.611465,23.39328,7.1942749z"/>
	<path fill="#222424" d="M25.8881378,2.9985807c-0.2528172,0.8803153-0.829483,1.6075332-1.3497143,2.3614295
		c0.0000019,0-0.0369625-0.0356708-0.0369625-0.0356708c-0.2148037-0.4238763,0.2550201-0.6713815,0.3171902-1.0241146
		c0.2403984-0.3495514,0.4675865-0.7053947,0.6551342-1.0822611c0.0619259-0.1244349,0.0708847-0.3113272,0.3051033-0.295423
		C25.8153057,2.9478877,25.8517227,2.9732342,25.8881378,2.9985807z"/>
	<path fill="#222222" d="M25.7788887,2.9225407c-0.2636185,0.4763055-0.3815899,1.0290256-0.8775444,1.3834357
		c-0.0233822-0.0025091-0.0467625-0.0050173-0.0699444-0.0069194c-0.1101246-0.0054984-0.1680565,0.0691662-0.2359638,0.1292295
		c-0.0986881,0.0867248-0.1947193,0.179863-0.3530865,0.1182847c-0.0738602-0.2893834-0.3271923-0.0940862-0.4875278-0.1490107
		c-0.0566044-0.017488-0.1047974-0.0467834-0.1448612-0.0872207c-0.023737-0.1314058,0.0801239-0.1883297,0.1751099-0.2506876
		c0.2406044-0.3743286,0.5719509-0.6931429,0.7914658-1.0798826c0.2330952-0.3330257,0.2156792-0.6751184,0.044714-1.0224478
		c-0.5156097-0.7806013-1.2195377-1.142697-2.2276764-0.8339038c-0.1084423-0.0704653-0.1263142-0.1573712-0.0458374-0.2745493
		c-0.1445332,0.1408588-0.1821442,0.347401-0.4010315,0.403681c-0.0929089,0.0139694-0.1761856-0.0018584-0.2437954-0.0656379
		c-0.0326862-0.1861608-0.1173172-0.3123412-0.3588123-0.3101722c-0.3732357,0.0033523-0.7507057,0.0307063-1.1188488-0.0074824
		c-0.3751392-0.0389144-0.3037128,0.3008647-0.4962425,0.406092c-0.3107395,0.0899781-0.5945129-0.0102257-0.8493576-0.1400423
		c-0.9270916-0.4722618-1.9106903-0.6649692-2.9713688-0.602336c-0.3425303,0.0202267-0.7232056,0.102579-1.0288715-0.1507785
		c0.3343458-0.1799214,0.7012825-0.2295077,1.0825109-0.2293546c2.3653784,0.0009504,4.7320051-0.0417844,7.0956869,0.0158307
		c1.5071373,0.0367368,2.4727097,0.6092817,2.7703876,2.0804443C25.8780994,2.4967325,25.7540455,2.6972976,25.7788887,2.9225407z"
		/>
	<path fill="#0E2424" d="M14.8794079,0.3821923c0.4633112,0.0003416,0.9290972,0.0287512,1.3894157-0.0048311
		c0.9520569-0.0694567,1.802187,0.1954577,2.6207542,0.5923113c0.3012199,0.1460363,0.6109943,0.2530577,0.9612789,0.2108471
		c0.2161274-0.1152146,0.3305645,0.0276834,0.4549522,0.1467086c0.1702766,0.2704111,0.5127029,0.4258864,0.6086731,0.7465736
		c-0.0415726,0.2508008,0.2254696,0.3393803,0.329689,0.5131364c0.0362339,0.0408053,0.0681667,0.0846238,0.0984974,0.1291742
		c0.1434288,0.2219779,0.297411,0.4374979,0.4856739,0.6314137c0.2114048,0.3712773,0.6289082,0.6531014,0.597393,1.1311307
		c-0.1000404,0.0618415-0.2099628,0.0978541-0.3313656,0.1043119c-0.1617699-0.017755-0.2596855-0.1242218-0.3675575-0.2176824
		c-0.456831-0.734858-0.9910049-1.4224334-1.5564861-2.0909719c-0.8268299-0.8590513-1.9218063-1.2672213-3.1074867-1.5031297
		C15.7351418,0.50702,14.4863958,0.7676941,13.290884,1.3045439c-0.048069,0.0318794-0.0995522,0.059382-0.1521406,0.08442
		c-0.4529314,0.1735159-0.8362522,0.4419472-1.2012672,0.7358578c-0.0510025,0.0291843-0.1065388,0.0463371-0.1658859,0.0545452
		c-0.2958174-0.2013366-0.2819242-0.2402132,0.1896648-0.5307308c0.0845976-0.0760063,0.1691942-0.1520128,0.2537909-0.228019
		c0.297698-0.1518097,0.5699625-0.3440754,0.8888474-0.4621812c0.0546398-0.0925049,0.1491795-0.1119688,0.2530594-0.1143292
		c0.1486874-0.11492,0.3649235-0.1057168,0.508997-0.2291148c0.0836115-0.0016057,0.1672249-0.0032117,0.2508364-0.0048177
		c0.1042728-0.1083238,0.2658081-0.134118,0.3850012-0.2209364C14.6276608,0.3868892,14.7535334,0.3845407,14.8794079,0.3821923z"/>
	<path fill="#132525" d="M11.9612551,1.648636c0.1096811,0.1884074-0.6022692,0.2286311-0.1061344,0.4867367
		c-0.1210642,0.440536-0.4746151,0.7249854-0.8211784,1.0145495c-0.4713688,0.3170066-0.5966759,0.8265514-0.8496933,1.2649596
		c-0.0435429,0.0735693-0.1018505,0.1319828-0.1944418,0.1544447C9.8889542,4.5604763,9.8312531,4.5074677,9.8067112,4.420711
		c0.000185-0.1151614,0.00037-0.2303224,0.0005579-0.3454833c0.0000019,0-0.0001917,0.0001869-0.0001917,0.0001869
		C9.9436646,3.9449134,9.931963,3.7471461,10.060648,3.6130605c0.3693428-0.6561852,0.8105202-1.2650478,1.3928051-1.7848619
		C11.5999212,1.6974436,11.7629623,1.6406403,11.9612551,1.648636z"/>
	<path fill="#132525" d="M13.1038933,0.9584358c-0.2598867,0.2119347-0.5219316,0.4204366-0.8888264,0.4621966
		C12.4478827,1.1656373,12.7113895,0.9594417,13.1038933,0.9584358z"/>
	<path fill="#222222" d="M10.060648,3.6130605c0.0121918,0.197988-0.023262,0.3743632-0.2535706,0.4623518
		C9.7989779,3.8792815,9.8318806,3.7017479,10.060648,3.6130605z"/>
	<path fill="#132525" d="M13.8659496,0.6149918c-0.09692,0.2100016-0.290843,0.2417955-0.5089779,0.2291278
		C13.4555788,0.6372032,13.6494246,0.605262,13.8659496,0.6149918z"/>
	<path fill="#222424" d="M14.5017872,0.3892377c-0.077507,0.1468617-0.2006626,0.2279717-0.3849716,0.2209866
		C14.13587,0.3790674,14.3180599,0.3830458,14.5017872,0.3892377z"/>
	<path fill="#212121" d="M21.0974541,10.4196119c-0.3081722,0.7084913-1.033638,1.0100937-1.6720772,1.3812637
		c-0.4828835,0.280735-0.9998283,0.5224285-1.5884228,0.5933046c-0.1638088,0.0197248-0.3209114,0.0852299-0.4200916,0.2230673
		c-1.0339928,0.2444801-2.0871439,0.108469-3.1319914,0.124279c-0.6488667,0.0098171-1.2984343-0.0187454-1.9476881-0.0300827
		c-1.2377834-0.0972052-2.4781494-0.015728-3.7168303-0.0457449c-0.2497234-0.0060511-0.5048685,0.0458546-0.7488699-0.0444851
		l-0.0503316,0.0098c0,0-0.0443635-0.023737-0.0443654-0.0237427c-0.4938641-0.3680582-1.0459495-0.6564531-1.3734207-1.2099562
		c-0.5602899-0.9470243-0.1406989-1.7421179,0.3679714-2.5269995c0.2038188-0.3144941,0.2879095-0.7369184,0.7529202-0.8728747
		c0.2224154,0.1849771-0.187871,0.4409099,0.0864015,0.6191125c0.0898314,0.0674353,0.1883798,0.1266642,0.2394147,0.2271614
		c0.05793,0.1842985-0.001317,0.3214045-0.1957788,0.4040356C7.4429355,9.2905674,7.3260903,9.4060068,7.3231888,9.6087685
		c-0.2572622,0.488431-0.3475327,0.9612665,0.0175238,1.4571304c0.4644885,0.6309252,1.0858192,0.8604574,1.8893261,0.636096
		c0.1192007-0.0332842,0.2286768-0.0943012,0.3595228-0.0795174c0.2250977,0.0662746,0.1555386,0.2849264,0.2586775,0.4143448
		c-0.0294037,0.1695585,0.1121941,0.1981754,0.2412233,0.2380905c0.7463341,0.0988626,1.4904022,0.1181812,2.2319021-0.0156517
		c0.1091347-0.0710554,0.2214308-0.1394653,0.2692871-0.2622013c0.0342169-0.2107391-0.1336918-0.3243227-0.28162-0.4157944
		c-0.4426098-0.2736864-0.4698992-0.5509319-0.0583076-0.8631573c0.1837177-0.1613874,0.3689795-0.3213654,0.5368452-0.4968872
		c0.265645-0.2332277,0.2269144-0.4513216,0.0010195-0.6985435c-0.1750402-0.1915684-0.3496742-0.3815861-0.5454149-0.5560608
		c-0.2135401-0.2061987-0.3764887-0.4366302-0.4210777-0.7238808c-0.0031853-0.2261744-0.090765-0.4278898-0.2193966-0.6180673
		c-0.094099-0.2224045-0.1734915-0.4478049-0.1833668-0.6887398c0.0410461-0.8723607,0.0217304-1.7469163,0.4779739-2.5637736
		c0.3332691-0.5966842,0.8029461-1.0641825,1.3790264-1.4601524c1.7046089-0.96735,3.465086-1.0158507,5.1795387-0.0998344
		c1.2102718,0.646637,1.9661388,1.6388466,2.0269699,2.9778035c-0.028511,0.1231532-0.0764503,0.2348108-0.2168026,0.28791
		c-0.3348656,0.0087309-0.3141117-0.2606668-0.4023075-0.437088c-0.2825966-0.5652676-0.7026005-1.0146947-1.3708553-1.1887388
		c-1.1837292-0.3082976-1.7536716-0.1263618-2.5218525,0.9826708c-0.9341536,1.3486433-0.0754652,2.7590466,1.0662708,3.3449154
		c0.7127647,0.3657475,1.3519459,0.2870464,1.976181-0.1950254c0.425005-0.3282137,0.7318954-0.7349896,0.9874611-1.1792564
		c0.087841-0.0860205,0.1872272-0.1483068,0.3253098-0.1273384c0.3168411,0.4713411-0.103548,0.8217039-0.2709732,1.195837
		c-0.1546478,0.3455849-0.4287853,0.6459675-0.7814541,0.9587059c-0.0084915,0.0059299,0.1353779,0.0294304,0.0744648-0.0239115
		c-0.0157433-0.0137892-0.0038757-0.0260248,0.0203514-0.0496502c0.0900154-0.0877762,0.1919289-0.1426687,0.3297882-0.1158752
		c0.0975933,0.3591318-0.1918335,0.6906757-0.0904217,1.050065c-0.1749573,0.101202-0.2568054-0.0180235-0.4060879-0.1461563
		c0.2612267,0.3038034,0.5239964,0.5272274,0.8163071,0.7228146c0.2842293,0.0639381,0.400486-0.1456194,0.5603123-0.2828169
		C20.7245884,10.4616556,20.8445721,10.2706594,21.0974541,10.4196119z"/>
	<path fill="#E70303" d="M8.5611801,7.0022373c0.2309847-0.0151868,0.22614-0.3977523,0.4661465-0.3030877
		c0.2254972,0.0889421,0.0777082,0.3484659,0.1168928,0.5291562c0.0400782,0.1848083-0.0076857,0.3882499,0.1456804,0.5481668
		c0.0259323,0.0197091,0.0518656,0.0394182,0.0782328,0.0588322c0.2394476,0.6371894,0.1707048,0.7387109-0.5278244,0.7713704
		C8.6548367,8.615346,8.4681578,8.6061411,8.2852898,8.6441221C8.2212057,8.6621571,8.1555357,8.6718616,8.0888186,8.6764536
		c-0.2242742,0.003233-0.3838654-0.072547-0.4252257-0.2906713c0.003962-0.3587551,0.282496-0.5976834,0.4647546-0.8786197
		C8.2762442,7.3982058,8.387475,7.264894,8.4454813,7.0971475C8.4723272,7.0537047,8.5106068,7.0216956,8.5611801,7.0022373z"/>
	<path fill="#032525" d="M9.8067112,4.420711c0.0436611,0.0408688,0.0873232,0.081738,0.1309843,0.1226072
		c0.224658,0.2335773,0.1262178,0.4733338,0.0183983,0.7135577c-0.1449394,0.2211185-0.096674,0.4664774-0.1037159,0.7048216
		C9.8515854,6.2641792,9.8530645,6.5665817,9.8512173,6.8686099C9.8521166,7.0673695,9.8286324,7.267715,9.8927364,7.4630632
		c0.0162745,0.0542874,0.0258579,0.1096959,0.0319834,0.1656237c0.0067348,0.0838933-0.0026379,0.1666527-0.023983,0.2483068
		C9.8301039,8.0571585,9.8424158,8.258357,9.7354717,8.4302292C9.6887255,8.473918,9.634037,8.4875717,9.569973,8.467042
		c-0.1257057-0.2348871-0.2666807-0.4666233-0.1730042-0.743772c0.040904-0.4321213,0.0693932-0.8636894-0.0291967-1.2932663
		c0.0225878-0.3235669-0.065176-0.6522746,0.0583954-0.9704428C9.5530148,5.1132779,9.6798639,4.7669945,9.8067112,4.420711z"/>
	<path fill="#152323" d="M8.5611801,7.0022373c0.017931,0.0236669,0.0162525,0.0461211-0.0050344,0.0673633
		C8.4318333,7.204432,8.4341478,7.4016724,8.2851715,7.5243492C8.115922,7.7973895,7.9466724,8.0704288,7.7774224,8.3434677
		C7.6609917,8.4390259,7.6848578,8.6204634,7.5225048,8.687912C6.8980837,8.4564486,7.6618094,8.2278852,7.5242524,7.9974399
		c0.3214164-0.1892915,0.3440671-0.5516868,0.5625253-0.8034105c0.1919298-0.2211533,0.2590475-0.5310221,0.5647554-0.7056289
		C8.7724142,6.7125649,8.5370855,6.8345323,8.5611801,7.0022373z"/>
	<path fill="#012828" d="M9.4274788,6.4978747C9.6309395,6.920857,9.6322937,7.3437462,9.4267626,7.7665372
		c-0.0428762,0.0535717-0.0886698,0.05832-0.137826,0.0068121c0,0,0.0010128,0.0030723,0.0009871,0.003098
		C9.2954588,7.390739,9.3010168,7.0050044,9.3065748,6.6192708C9.3473663,6.5792093,9.3480921,6.5061431,9.4274788,6.4978747z"/>
	<path fill="#1B2222" d="M9.4274788,6.4978747C9.3871326,6.5383019,9.3467855,6.5787296,9.3065071,6.6192136
		C9.3516722,6.2331462,9.169528,5.8276372,9.4261713,5.4595594C9.4266052,5.8056655,9.427042,6.1517701,9.4274788,6.4978747z"/>
	<path fill="#222222" d="M7.8714828,12.6212139c1.3301878-0.003252,2.6603746-0.0073614,3.9905653-0.0086603
		c0.1648827-0.0001612,0.3421974-0.034132,0.4751711,0.0989304C10.8476267,12.7218485,9.3547153,12.8696394,7.8714828,12.6212139z"
		/>
	<path fill="#122424" d="M21.0974541,10.4196119c-0.3453121-0.0143528-0.361105,0.3383646-0.5957546,0.4425268
		c-0.1707306,0.0757875-0.2720299,0.4075241-0.5474224,0.1348171c-0.0448685-0.0349531-0.0569878-0.0776033-0.0368633-0.1280842
		c0.0837078-0.0965185,0.2032967-0.1561966,0.2986279-0.2410316c0.0363426-0.0350437,0.0749836-0.06777,0.1132946-0.1008272
		c0.1409912-0.1157227,0.2399712-0.2587843,0.3243828-0.4117908c0.2286339-0.3363905,0.4449711-0.6803446,0.7485847-0.9686375
		c0.4986095-0.4813099,0.4748669-1.1737595,0.8353786-1.7109823c0.1481686-0.1059275,0.0889072-0.4500937,0.4428711-0.3209901
		c0.1427689,0.2807965,0.146328,0.5570731-0.1160355,0.7733073c-0.1610088,0.1326981-0.0922642,0.3204203-0.1992779,0.4562502
		C22.0657902,9.0982008,21.8605328,9.8998232,21.0974541,10.4196119z"/>
	<path fill="#1E2222" d="M22.3652401,8.3441696c-0.0467701-0.4448767,0.4005032-0.8089309,0.2513084-1.2705641
		c-0.2535954-0.321239-0.2095451-0.6551476-0.052494-0.9931107c0.3362026-0.2032242,0.316515,0.3411074,0.6041069,0.2384648
		c0.2987213,0.0162115,0.2324638-0.2566776,0.3579082-0.3773818c0.1231956-0.1654944,0.167202-0.4185061,0.4869518-0.3673491
		c0.0060806,0.6373072-0.6043282,1.0335231-0.7600574,1.6074615C22.9570713,7.5691295,22.6611557,7.9566488,22.3652401,8.3441696z"
		/>
	<path fill="#092525" d="M24.0130215,5.5742288c-0.2287331,0.0845156-0.2742596,0.2937922-0.3802757,0.4618759
		c-0.2466717,0.0381866-0.2053604-0.1299968-0.2231102-0.2563748c0.0097885-0.0532236,0.0291348-0.1038218,0.0557804-0.151989
		c0.1066971-0.1551042,0.2226276-0.3051109,0.3332443-0.458281c0.1337757-0.1692228,0.213356-0.3673315,0.3441448-0.5384088
		c0.0372829-0.0419326,0.0841808-0.0719838,0.1387138-0.0924377c0.0802021-0.0765686,0.1604061-0.1531377,0.2406063-0.2297063
		c0.1915932-0.0330462,0.1890354,0.0893459,0.1975651,0.2033648c-0.1284485,0.2816272-0.2324867,0.5800281-0.5779419,0.7173839
		C24.0988369,5.3445129,24.0559292,5.4593706,24.0130215,5.5742288z"/>
	<path fill="#222222" d="M24.1417484,5.2296557c0.1683979-0.2310739,0.3367939-0.4621477,0.5051918-0.6932216
		c0.1089878-0.0547328,0.0136795-0.2958269,0.2542496-0.2305269c0,0,0.0001526,0.0000682,0.0001545,0.0000687
		c0.071104,0.4058528-0.4026718,0.6348906-0.3997669,1.018507C24.3815575,5.292778,24.261652,5.2612171,24.1417484,5.2296557z"/>
	<path fill="#E10404" d="M24.2815189,4.5386133c-0.0183334,0.0271134-0.0263367,0.0565505-0.0240059,0.0883107
		c-0.1702213,0.1339569-0.2566109,0.315414-0.3410664,0.4980879c-0.1990013,0.1507416-0.2514935,0.3915515-0.4181728,0.5620704
		l0.0062504,0.0010347c-0.1325226,0.1709232-0.0609589,0.4240184-0.2736778,0.5631256
		c-0.2268715,0.1118789-0.3528786,0.0994411-0.4366894-0.172822c-0.0843544-0.274035-0.0584793-0.5595121-0.1643429-0.8254461
		c-0.0452728-0.1888428-0.0897827-0.3776813-0.1205139-0.5694313c0.0112648-0.3311248,0.261425-0.3821778,0.5547695-0.417809
		c0.2539349-0.0308437,0.48312,0.1191936,0.7341576,0.0541606C23.9828281,4.3498435,24.3318672,4.0792689,24.2815189,4.5386133z"/>
	<path fill="#DF0505" d="M20.2182426,1.3980972c-0.0927715-0.1140705-0.2046013-0.2015011-0.3674622-0.2175441
		c-0.084816-0.1169868-0.3417759-0.1526788-0.2450714-0.3500023c0.07551-0.1540762,0.2600956-0.0790375,0.3988972-0.0800372
		c0.5051365-0.0036383,1.0103588-0.003523,1.5154839,0.0008962c0.1376934,0.0012044,0.3292637-0.0731944,0.3885193,0.0916791
		c0.0503674,0.1401281-0.1308727,0.2244834-0.2061062,0.3353772c0.0131454,0.0774107-0.0211067,0.1416647-0.0666847,0.2031192
		c-0.099062,0.1177371-0.1754818,0.2470423-0.2353039,0.3854176c-0.1584568,0.3430886-0.3710709,0.372359-0.6422596,0.0950775
		C20.5932999,1.6934202,20.3984432,1.5526034,20.2182426,1.3980972z"/>
	<path fill="#0E2424" d="M24.6478615,3.0388374c-0.0722237,0.483458-0.5723953,0.7304702-0.7660866,1.1468172
		c-0.4142189-0.1153154-0.8418159,0.148294-1.2541828-0.0356107c-0.3143578-0.1897531-0.5882263-0.4113829-0.7069263-0.7528963
		c0.241251-0.3519828,0.4199467-0.0152874,0.5904942,0.0650387c0.4646645,0.2188532,0.9082928,0.3966646,1.3520927-0.0211875
		c0.0907001-0.1013782,0.1926785-0.1919451,0.3084812-0.2693052c0.1715546-0.0755501,0.2467995-0.3026512,0.493-0.2621286
		C24.7057552,2.9576867,24.697937,3.0005612,24.6478615,3.0388374z"/>
	<path fill="#152323" d="M22.3650265,1.0751377c1.0550957-0.5224376,1.6696033-0.0936186,2.4078465,0.8105047
		c-0.0414886,0.0640889-0.0757465,0.1351303-0.1712151,0.1475188c-0.2333431-0.0548978-0.3129501-0.2702761-0.489151-0.3856093
		c-0.0439301-0.0320421-0.0854034-0.0660017-0.1276455-0.0996693c-0.3301239-0.2317305-0.6746464-0.4036018-1.1062984-0.2381878
		c-0.1827736,0.0468904-0.3157768,0.1601139-0.4435673,0.2801678c-0.0966835,0.0859443-0.1903362,0.1745528-0.2936363,0.2544947
		c-0.0933533,0.0655518-0.1937618,0.1125784-0.3169651,0.1000438c-0.0594349-0.015033-0.102684-0.0477327-0.1303387-0.0978638
		C21.7944107,1.5007405,21.9364872,1.184842,22.3650265,1.0751377z"/>
	<path fill="#262020" d="M21.9823551,3.3840804c0.2120647,0.2304533,0.4241314,0.4609063,0.6361942,0.6913586
		c0.3005028,0.2029114,0.7049618,0.0096664,1.0040588,0.2179255c0.0583878,0.00881,0.1167755,0.0176201,0.1753922,0.0264802
		c-0.2362347,0.1620069-0.509964,0.1264539-0.7706642,0.0990682c-0.3048286-0.0320201-0.4209099,0.0740967-0.383749,0.3415012
		c-0.0502415,0.0356951-0.1059647,0.0454316-0.1673813,0.0293431c-0.1171532-0.102025-0.1929874-0.2151337-0.1188049-0.3681917
		c-0.2091637-0.3461413-0.4183273-0.6922832-0.627491-1.0384252c-0.0589828-0.0947254,0.0120125-0.1229331,0.0910549-0.1471622
		C21.9135113,3.2504275,21.9393692,3.3249631,21.9823551,3.3840804z"/>
	<path fill="#042525" d="M19.5365868,0.4428271c0.7848625,0,1.5697231,0,2.3545856,0
		c0.0011768,0.0323332,0.0023556,0.0646664,0.0035343,0.0969996c-0.7848873,0-1.5697765,0-2.3546638,0
		C19.5388927,0.5074935,19.5377388,0.4751603,19.5365868,0.4428271z"/>
	<path fill="#042626" d="M21.7302284,1.8836448c0.0425358-0.0001682,0.0850716-0.0003363,0.1276073-0.0005044
		c0.1684685,0.3039309,0.0363655,0.591777-0.0563278,0.8817433c-0.0399055,0.0543027-0.0961704,0.0786216-0.1677322,0.0731742
		c-0.2498035-0.1625791-0.1467381-0.4340911-0.2417984-0.6448002c-0.0196743-0.0557151-0.0316238-0.1128187-0.0388927-0.1708031
		c-0.0212746-0.2729342,0.1021099-0.5072141,0.239912-0.7375971c0.036541-0.0354468,0.0730801-0.0708935,0.1095638-0.1063658
		c0.0938206,0.0040685,0.1877003,0.0081625,0.2815762,0.0122567C22.0604305,1.4704899,21.6382713,1.5991561,21.7302284,1.8836448z"
		/>
	<path fill="#162323" d="M21.7302284,1.8836448c-0.2123375-0.3209691,0.1564884-0.4657952,0.2539043-0.6928896
		c0.1033249-0.1288832,0.0972538-0.3337345,0.3192425-0.3801949c0.0205441,0.088199,0.04109,0.176398,0.0616417,0.2645873
		C22.0741692,1.2931699,21.9525547,1.6211077,21.7302284,1.8836448z"/>
	<path fill="#052626" d="M23.6226082,4.2933645c-0.3542576,0.0019293-0.7278881,0.0776768-1.0040627-0.2179284
		c0.4145947,0.098618,0.872427-0.2123818,1.2632942,0.1102676C23.7953854,4.2215581,23.7089958,4.2574615,23.6226082,4.2933645z"/>
	<path fill="#022626" d="M24.6483936,1.9988217c0.0415039-0.0377463,0.0830097-0.0754925,0.1244965-0.1132089
		c0.1389122,0.4006077,0.3207359,0.8050324-0.1250324,1.1532029c0.0002079-0.0387542,0.0004082-0.0775299,0.0006104-0.1163058
		c-0.0425911-0.0356288-0.0639267-0.0793312-0.0617733-0.1321645c0.0442963-0.1968014,0.0333252-0.3921366-0.0227451-0.5863886
		C24.558588,2.1241288,24.5765171,2.0521631,24.6483936,1.9988217z"/>
	<path fill="#1B2222" d="M24.9011898,4.3059072c-0.0847435,0.0768433-0.1694889,0.153687-0.2542419,0.2305288
		c-0.0019913-0.0938478-0.0213089-0.1798301-0.1248341-0.2275672C24.6467266,4.1245379,24.7713432,3.9419208,24.9011898,4.3059072z"
		/>
	<path fill="#FD0000" d="M21.4514084,9.2597694c-0.24473,0.3169537-0.48946,0.6339083-0.73419,0.9508619
		c-0.1463337,0.1344891-0.2531605,0.299963-0.4066525,0.4288349l0.0121231-0.0122414
		c-0.2584763,0.219245-0.4406757,0.0495863-0.6274185-0.100934c-0.0611687-0.0666647-0.0999622-0.140708-0.0880756-0.2305498
		c-0.5286636-0.3920593-0.0438099-0.6965132,0.1076183-1.0297871c-0.0505733-0.3875608,0.2633018-0.6177769,0.4666595-0.8957901
		c0.7207203-1.0266008,0.6397991-2.1253557,0.344101-3.2397261c-0.0536537-0.2021899-0.1398315-0.3990183-0.2450886-0.5857806
		c-0.0703259-0.1440129-0.1569748-0.277987-0.2938786-0.3801441c-0.15271-0.1558633-0.2888947-0.3225026-0.3977585-0.5068562
		c-0.1163597-0.2768497-0.3446045-0.4629111-0.6093006-0.6191623c-0.0489597-0.0273848-0.0946846-0.0585809-0.1391277-0.0914602
		c-0.2278671-0.2070298-0.5091839-0.3345337-0.8025761-0.4447296c-1.3551807-0.5958346-2.7070398-0.5872551-4.0557356,0.0138175
		c-0.6839857,0.2595251-1.2433109,0.6608989-1.667057,1.215986c-0.0507193,0.0643945-0.1033087,0.1274757-0.1596289,0.1879017
		c-0.1897478,0.1744475-0.2790346,0.4020338-0.3931179,0.6168165c-0.6984472,1.366375-0.6418896,2.7121868,0.1289864,4.038568
		c0.0877018,0.2032204,0.2458315,0.3644886,0.3906116,0.5336113c0.1533308,0.3051138,0.5775356,0.4728069,0.5407991,0.8754873
		c-0.0117044,0.0532236-0.0331898,0.1030798-0.0624809,0.1503201c-0.1015148,0.1331415-0.2310858,0.2434235-0.3547029,0.3589268
		c-0.2301197,0.1956358-0.4695139,0.3554716-0.7937021,0.1566515c-0.0456562-0.0327606-0.086133-0.0708027-0.1219053-0.1125031
		c-0.1311016-0.1977882-0.3110228-0.3590431-0.4855604-0.5244722c-0.1418724-0.1616449-0.2612686-0.3377228-0.394558-0.5054045
		c-0.0644865-0.093235-0.1229-0.18929-0.1803007-0.2864771C10.1260891,8.6935854,9.8438053,8.159935,9.8633871,7.5417762
		c-0.1140022-1.0126014-0.1291237-2.0181255,0.2372408-2.9980841c0.187788-0.5487497,0.4575443-1.0589149,0.8692293-1.5010979
		c0.2950363-0.3024387,0.5900717-0.6048775,0.8851862-0.9072688c0.0000772,0.0000472-0.0092497-0.0007792-0.0092497-0.0007792
		c0.3778982-0.3338006,0.8112116-0.5959041,1.2768021-0.8162484l-0.0103426,0.007201
		c2.4556055-1.3009541,5.4444809-0.6831066,7.2120323,0.9399812c0.5959606,0.6255376,1.0988331,1.3078437,1.5090199,2.0466714
		c0.8305378,1.34624,0.6681538,2.7106361,0.0793915,4.0779262C21.783886,8.6892147,21.7189484,9.0201063,21.4514084,9.2597694z"/>
	<path fill="#132525" d="M20.3242855,2.26548c-0.7674217-0.5348918-1.5575027-1.0322058-2.4971123-1.2937369
		c-1.3981819-0.3891696-2.7728662-0.34079-4.1275415,0.1650585c-0.1918259,0.07163-0.3914003,0.1260937-0.5873852,0.1885999
		C13.2098789,1.023243,13.542407,1.0428954,13.775219,0.954432c2.2199202-0.8435184,4.2412968-0.4008225,6.1225071,0.8315672
		C20.0771408,1.9035357,20.2691422,2.0421429,20.3242855,2.26548z"/>
	<path fill="#1E2222" d="M21.4514103,9.2597704c0.8691406-1.601841,0.9747314-3.2524366,0.3819218-4.9476213
		c0.0923843,0.0748868,0.1847935,0.1497712,0.2772045,0.2246561c0.3263435,0.3046741,0.438036,0.6981964,0.419157,1.0923243
		c-0.0304699,0.6361217,0.0156956,1.2810397-0.1668282,1.9070349c-0.2789345,0.3807473-0.2903976,0.8521299-0.513689,1.2524862
		C21.7481461,8.9697971,21.7125053,9.19207,21.4514103,9.2597704z"/>
	<path fill="#032727" d="M22.3628654,7.5361643c-0.002739-1.0054493,0.1034966-2.0184808-0.2523251-2.999361
		c0.0526409-0.0910559,0.1443081-0.1129384,0.2469406-0.1152425c0.0444298,0.1153255,0.0889397,0.2306466,0.1334457,0.3459682
		c0.3133163,0.2104645,0.1504097,0.5656395,0.3032551,0.8249378c-0.0006905,0.1473026,0.0635204,0.3015094-0.055872,0.4361997
		c-0.2380619,0.3292894-0.0695724,0.697751-0.1217461,1.0449462C22.4135818,7.1740818,22.5705509,7.437829,22.3628654,7.5361643z"/>
	<path fill="#2E1F1F" d="M20.2182426,1.3980972c0.214323,0.0476151,0.366724,0.1850592,0.4900742,0.3311056
		c0.2792454,0.3306243,0.4736004,0.2609572,0.6402054-0.0788506c0.1396255,0.1325819-0.0155373,0.3322515,0.127676,0.4640166
		l-0.0000057-0.0000279c0.1150532,0.1709299,0.0761051,0.3626904,0.0503368,0.5374942
		c-0.0376587,0.2555134-0.177145,0.1797547-0.303833,0.0392821l-0.0004654-0.0000246
		c-0.0930939-0.2106047-0.1531467-0.4391897-0.3797531-0.5771317C20.7045383,1.8247529,20.3279858,1.7076415,20.2182426,1.3980972z"
		/>
	<path fill="#162323" d="M21.2226963,2.691117c0.5780411-0.012845,0.1038246-0.4082136,0.2535-0.5767775
		c0.2307014,0.2019064,0.0847149,0.4611361,0.1272583,0.6916752c0.1859646,0.1083868,0.3578358,0.2231498,0.2532845,0.4629891
		c-0.0422726,0.0380454-0.084547,0.0760911-0.1268253,0.114136C21.4613686,3.2127666,21.3046246,2.9746199,21.2226963,2.691117z"/>
	<path fill="#132525" d="M13.1225958,1.3182979c-0.4256105,0.2720091-0.851222,0.5440183-1.2768173,0.816138
		C12.138464,1.6904789,12.574316,1.4316616,13.1225958,1.3182979z"/>
	<path fill="#132323" d="M20.8424778,2.1139607c0.4129696,0.0365121,0.5517178,0.2222719,0.3797607,0.5771308
		C21.0401478,2.5289185,20.7500916,2.4255087,20.8424778,2.1139607z"/>
	<path fill="#781414" d="M10.1940851,4.4258485C9.8385496,5.4817934,9.9160576,6.5659771,9.9401531,7.646677
		C9.8954573,7.7024455,9.852993,7.703773,9.8131037,7.6423664c0.0008888-0.0361238-0.0035343-0.0717001-0.0132704-0.10673
		C9.6672831,7.3564186,9.8270998,7.1298828,9.6856508,6.952105C9.6852856,6.610467,9.6849203,6.2688279,9.6845551,5.9271903
		c0.1573906-0.2156558-0.0377798-0.4839888,0.1262093-0.6986585c0.1342173-0.2143536,0.1291199-0.4500413,0.1269083-0.6852527
		c0.0441036-0.0352693,0.0881853-0.0705771,0.132268-0.1058855C10.1032267,4.3615541,10.1446085,4.3577013,10.1940851,4.4258485z"/>
	<path fill="#222222" d="M10.1940851,4.4258485c-0.0421276-0.0026221-0.0835533,0.0011377-0.1242123,0.0114126
		c0.203907-0.516089,0.336709-1.0702174,0.8999548-1.3946705C10.7112656,3.5036788,10.4526749,3.9647636,10.1940851,4.4258485z"/>
	<path fill="#F00202" d="M14.7650261,6.6595325c0.000453,0.478251-0.0344238,0.9592118,0.0101805,1.4339972
		c0.0453281,0.482461-0.1874523,0.583293-0.6603127,0.5821743c-0.4551249-0.0010786-0.643816-0.116293-0.6210823-0.5579052
		c0.0363598-0.7062902,0.0048723-1.4152794,0.0144873-2.1229892c0.0040512-0.2980061-0.0224838-0.5396132-0.4564943-0.5241389
		c-0.3936596,0.0140347-0.3336582-0.2601328-0.3417683-0.4859848c-0.0100021-0.278523,0.154788-0.3734303,0.4354658-0.3528585
		c0.0209045,0.0015321,0.0420866,0.0011349,0.0630798,0.0003343c1.5558672-0.0593224,1.555871-0.0593324,1.5559893,1.3386884
		C14.7645903,6.2004108,14.7645731,6.4299722,14.7650261,6.6595325z"/>
	<path fill="#112424" d="M20.0818806,7.4208684c-0.3615532,0.9993825-1.3111191,1.7546506-2.2356377,1.7245622
		c-1.0688438-0.0347815-1.7127991-0.6769409-2.1513119-1.4554992c-0.617981-1.0971913-0.0909166-2.1491113,0.5296898-2.8411632
		c1.2475109-1.3911321,3.559906-0.4015841,3.8522491,0.9399977c0.0210018,0.0963793,0.0357857,0.1874599,0.1312466,0.2475262
		C20.522028,6.5246625,20.451973,6.9840784,20.0818806,7.4208684z"/>
	<path fill="#0D2424" d="M20.2269077,8.507823c-0.1359043,0.2721634-0.2801628,0.5396566-0.5121193,0.7581348
		c-0.2097988,0.1480675-0.4196205,0.2961369-0.6294422,0.4442081c0.4277096-0.8071003,1.1802311-1.4550123,1.2489929-2.4044538
		c-0.0866165-0.5001936,0.2259712-1.0001645,0.0010071-1.5004354C20.221983,4.339354,19.3526917,3.31971,17.9422588,2.727284
		c-1.5581169-0.6544569-3.116703-0.5412846-4.5838394,0.3090501c-0.0493832-0.0437834-0.0703192-0.0968492-0.0628672-0.1592431
		c0.1619234-0.2995956,0.5309029-0.3186088,0.7924986-0.4837317c1.2917204-0.5306884,2.582901-0.5116801,3.8734341,0.0011401
		c0.3520756,0.1397786,0.6722107,0.3321047,1.0005131,0.5112085l-0.0109978-0.0075648
		c0.2664509,0.2293549,0.5463371,0.4468756,0.7650108,0.7183163c0.121748,0.1522546,0.243494,0.3045092,0.3652401,0.4567642
		c0.1296482,0.1683135,0.2112179,0.360477,0.3227024,0.538156C20.9598637,5.9335122,21.0082932,7.2362733,20.2269077,8.507823z"/>
	<path fill="#122323" d="M7.5240774,9.150959c0.2570534-0.0105133,0.2551413-0.1785192,0.2543111-0.3458662
		c0.033524-0.1953173,0.2833419-0.1222181,0.3726182-0.2483482L8.1446352,8.5632524
		c0.8797045-0.2085485,1.459136,0.1229048,1.824955,0.8390398c0.0038919,0.05966-0.0229883,0.1056643-0.0760517,0.1398993
		C9.7347231,9.5937166,9.5942698,9.5385256,9.454093,9.4804935C9.4002562,9.4573889,9.3492441,9.4293137,9.2997808,9.39923
		C8.8760176,9.0916224,8.4439745,9.1375475,8.0085897,9.3749027c-0.210001,0.0955334-0.3220491,0.2530594-0.3519702,0.4627237
		c-0.1509666,0.4497013-0.1268229,0.8816843,0.1519637,1.288723c0.4537802,0.509778,1.0899153,0.5758963,1.6257095,0.1739483
		c0.2076435-0.1557713,0.3310518-0.3950768,0.5962315-0.4934301c0.1684313-0.0328665,0.3082275,0.0104818,0.4196215,0.1294136
		c0.0322332,0.049592,0.0462255,0.1035423,0.0428391,0.1611338c-0.1799994,0.2995119-0.4035044,0.5503874-0.8121538,0.5906124
		c-1.1940937,0.4477882-1.8614516,0.2803316-2.4860845-0.5621414C6.7657075,10.5472183,6.84446,10.0244884,7.2702389,9.496994
		C7.2883139,9.3412781,7.4200883,9.2545481,7.5240774,9.150959z"/>
	<path fill="#142424" d="M10.5816231,9.2630253c0.0405169,0.0711555,0.0810347,0.142312,0.1215515,0.2134686
		c0.1269941,0.1898661,0.1901274,0.4165382,0.3925343,0.5629148c0.1862211,0.1480722,0.3368626,0.3270187,0.5106153,0.4858904
		l-0.0074301-0.0089397c0.1094189,0.3051605,0.3517723,0.2517471,0.5997162,0.1835537
		c0.0571127,0.0067129,0.1052418,0.0295801,0.1457567,0.0662317c-0.2641373,0.2581062-0.431304,0.4781618,0.0602627,0.7201242
		c0.1608896,0.079196,0.5571012,0.2062063,0.3198118,0.5486431c-0.2547207,0.0535021-0.3528442-0.2286081-0.5851612-0.2240496
		c-0.1772251-0.0467606-0.3158579-0.1423483-0.4259548-0.2745943c-0.2654734-0.2921801-0.6649008-0.5308771-0.8221378-0.8429747
		C10.5104342,9.9375477,9.8010683,9.3277617,9.6806431,8.460187L9.6800804,8.4568052
		c0.0882025-0.073391,0.1681633-0.1603193,0.3050051-0.153923C10.2478476,8.5898676,10.2863531,8.9924116,10.5816231,9.2630253z"/>
	<path fill="#092525" d="M13.3586731,2.9211519c0.0000248,0.0383997-0.0000563,0.0767996-0.0002499,0.115191
		c-1.5128765,0.9627972-1.8128719,2.3796728-1.7755976,3.9228137c-0.1108456,0.0548172-0.0044518,0.2851186-0.2364836,0.2421284
		c-0.3106279-0.8993106-0.0589314-1.7461348,0.2916136-2.5833578c0.151083-0.2644401,0.2933521-0.53333,0.4410591-0.7997413
		c0.026722-0.0341964,0.0534468-0.0683928,0.0801716-0.1025891c0.2720823-0.1945002,0.4757795-0.4528706,0.73808-0.6557617
		C13.0269442,2.9595275,13.1375294,2.7802565,13.3586731,2.9211519z"/>
	<path fill="#1A2222" d="M12.4699316,12.2661428c-0.0172625,0.0982218-0.058073,0.209959-0.1715279,0.2114
		c-0.7306547,0.0092773-1.4615927,0.0092649-2.1922474-0.0000687c-0.1134024-0.0014486-0.1541815-0.1132841-0.1715403-0.2114601
		c0.075388-0.1228476,0.1959839-0.2228813,0.3400879-0.2223616C11.014204,12.046319,11.7932835,11.7514648,12.4699316,12.2661428z"
		/>
	<path fill="#072424" d="M13.3490324,5.919107c0,0.8972158,0,1.7944317,0,2.6916471
		c-0.0816336,0.0000324-0.1632652,0.0000658-0.2448988,0.0000982c0-0.8965039,0-1.7930088,0-2.6895137
		C13.1851072,5.8607445,13.2666454,5.8513975,13.3490324,5.919107z"/>
	<path fill="#222222" d="M12.4699316,12.2661428c-0.8450985-0.1781645-1.6902103-0.178051-2.5353241-0.0001345
		c-0.2252941,0.0054989-0.1909561-0.1072626-0.1282663-0.2329378c-0.0420685-0.2000837,0.0828094-0.2574587,0.2696867-0.26231
		c0.7062759,0.1215973,1.4143629,0.280653,2.1042109-0.0639343c0.3101645-0.0672951,0.36973,0.209219,0.5442028,0.3280849
		C12.7202244,12.1853838,12.6345501,12.2616968,12.4699316,12.2661428z"/>
	<path fill="#162323" d="M12.179884,9.1611633c-0.1703043-0.1219387-0.309392-0.2629766-0.3454762-0.4670353
		c-0.0324364-0.0291662-0.0449352-0.0596733-0.0375185-0.0915279c0.0075712-0.0325222,0.0162573-0.0487862,0.0258551-0.0488253
		c0.2740898,0.0036058,0.2748795,0.3314648,0.5235834,0.3654652c0.377141,0.1668835,0.5456161,0.512846,0.7741776,0.7943258
		c0.2069559,0.2548685-0.0441189,0.4422722-0.2679806,0.5919437c-0.128561-0.0453119-0.1931009-0.1226883-0.1529112-0.2525187
		l-0.0052605,0.0101633C12.9772892,9.5481129,12.3475838,9.4636154,12.179884,9.1611633z"/>
	<path fill="#032626" d="M15.0062752,8.5528555c0-0.1103554,0-0.2207108,0-0.3310671c0-1.1415715,0-2.2831421,0-3.4247136
		c0.0285282-0.0001502,0.0570545-0.0003014,0.0855837-0.0004525c0,1.2488456,0,2.4976902,0,3.7465343
		C15.0633297,8.5463905,15.0348034,8.5496235,15.0062752,8.5528555z"/>
	<path fill="#192222" d="M20.3353462,5.8052769c0.5414581,0.5004373,0.0920258,1.0003314-0.0009995,1.5004287
		c-0.0841656,0.0383906-0.1683235,0.0767736-0.2524719,0.1151605c0.1802635-0.4511027,0.1182041-0.9204812,0.1262417-1.3845739
		C20.3103275,5.9865279,20.332325,5.9002247,20.3353462,5.8052769z"/>
	<path fill="#042525" d="M12.3463278,8.91924c-0.33428,0.0778484-0.3187542-0.2467833-0.4922886-0.3538847
		c-0.2529068-0.4293699-0.6412954-0.8262334-0.3987045-1.3744841c0.0031481-0.0951462,0.0251799-0.1816978,0.127491-0.2317147
		c0.0421486,0.2307758,0.0842981,0.4615517,0.1264477,0.6923275c0.1766195,0.1590338,0.1603966,0.3879409,0.2529573,0.5774322
		C11.9791527,8.5101576,12.2000542,8.6975269,12.3463278,8.91924z"/>
	<path fill="#0E2424" d="M13.4916601,8.8427172c0.2314434-0.0163231,0.3745117-0.040678,0.5154943-0.0330782
		c0.2224417,0.0119905,0.4601698-0.0659666,0.6615381,0.0708523c0.024683,0.0167713,0.0167074,0.1232634-0.015193,0.1509361
		c-0.2265472,0.1965256-0.508709,0.115243-0.7703981,0.0993662C13.7452803,9.1224318,13.6177588,9.0510025,13.4916601,8.8427172z"/>
	<path fill="#102424" d="M10.0707531,11.8072004c-0.1318769,0.032959-0.2125645,0.1154718-0.2644043,0.2258921
		c-0.3391705-0.0255623-0.0754261-0.2325277-0.1255264-0.3450565c0.2529593-0.1919394,0.5059099-0.3838701,0.7588615-0.5758018
		c0.081727,0.0623999,0.1127319,0.1456137,0.1195126,0.2391396C10.5212698,11.6136951,10.4203625,11.820859,10.0707531,11.8072004z"
		/>
	<path fill="#122424" d="M19.6071949,10.2957411c0.0340576,0.0351753,0.0681152,0.0703487,0.1021767,0.1055241
		c0.0342255,0.1800232,0.3184414,0.2544699,0.24506,0.4799395c-0.0000496,0.0385809-0.0000992,0.0771627-0.0001526,0.1157475
		c-0.4399891-0.2627192-0.7447815-0.6252165-1.0785446-1.1621637
		C19.2123489,10.0469179,19.4097729,10.1713285,19.6071949,10.2957411z"/>
	<ellipse fill="#012626" cx="13.7391968" cy="4.3633766" rx="1.2420518" ry="0.0376047"/>
	<path fill="#102525" d="M12.6996136,10.0529909c0.0509605,0.0841646,0.1019211,0.1683292,0.152895,0.2525072
		c-0.1237507,0.1951838-0.2907629,0.3508968-0.5081472,0.4606438c-0.0419416-0.0001926-0.08389-0.0003309-0.1258392-0.0004148
		c-0.0800371-0.1529779,0.078022-0.242466,0.117238-0.3636446C12.4259663,10.2589254,12.5149889,10.1147499,12.6996136,10.0529909z"
		/>
	<path fill="#0B2424" d="M12.3639574,5.5446553c-0.1866379-0.378015-0.1787386-0.5980496-0.0507612-0.8897896
		C12.543252,4.9267802,12.4795876,5.1545219,12.3639574,5.5446553z"/>
	<path fill="#222222" d="M8.1510067,8.5567446C8.0836039,8.7100306,7.9105115,8.7321463,7.778379,8.80509
		C7.6728334,8.8026657,7.5776052,8.7815847,7.5225234,8.6879301c0.0032506-0.1648455,0.084981-0.2816458,0.254899-0.3444633
		C7.7924175,8.5732508,7.9739504,8.5617533,8.1510067,8.5567446z"/>
	<path fill="#012828" d="M13.3490324,5.919107c-0.0816259,0.000741-0.1632538,0.0014815-0.2448893,0.0022268
		c-0.0888281-0.0343719-0.2094393-0.047471-0.2586851-0.1083326c-0.0665665-0.0822682,0.0273733-0.1173272,0.1144381-0.1188169
		C13.1434193,5.6910453,13.3409538,5.6702533,13.3490324,5.919107z"/>
	<path fill="#222222" d="M7.5240774,9.150959C7.5230198,9.3169994,7.4380932,9.4321537,7.2702389,9.496994
		C7.0443993,9.1932878,7.3351531,9.2030144,7.5240774,9.150959z"/>
	<path fill="#162323" d="M11.9622307,8.2289162c-0.1698008-0.1615057-0.1986313-0.3740878-0.2529526-0.5774336
		C12.0054188,7.7672105,11.9619389,8.0059929,11.9622307,8.2289162z"/>
	<path fill="#222121" d="M10.4563265,11.3696346c-0.0055342-0.0858021-0.0110683-0.1716042-0.0166225-0.2574034
		c0.0009251-0.0384293,0.0016451-0.0768642,0.00214-0.1153011c-0.2118092-0.3333616-0.2780504-0.7071714-0.3635893-1.07549
		C10.0156641,9.784277,9.8437881,9.6775169,9.9329119,9.4978485c-0.4432058-0.5533981-0.913229-1.064352-1.7882137-0.9345407
		c0.1198988-0.1412458,0.3036079-0.1467505,0.4565544-0.1180925c0.6523809,0.1222382,0.9114056-0.0641918,0.6877136-0.6718836
		C9.334877,7.7710795,9.3808174,7.7688098,9.4267607,7.7665391c0.0147476,0.252357,0.0726147,0.4916606,0.2538757,0.6936316
		c0.2922554,0.4548073,0.6861515,0.8810644,0.8525009,1.3711977c0.238759,0.7034798,0.9286327,1.0700521,1.2834911,1.6689739
		c-0.1295128,0.0548897-0.2711048,0.032217-0.3455124-0.0546112C11.1559038,11.0778913,10.8268213,11.0407152,10.4563265,11.3696346
		z"/>
	<path fill="#172323" d="M8.2851715,7.5243492c0.0269499-0.182765,0.0915346-0.3469868,0.2709131-0.4547138
		C8.5618992,7.2685361,8.4940987,7.4312191,8.2851715,7.5243492z"/>
	<path fill="#1F2222" d="M10.5816231,9.2630253c-0.4230156-0.1858587-0.3788309-0.64396-0.6478453-0.9195566
		C9.7829294,8.215292,9.7755747,8.0536442,9.8040962,7.8836288c0.0029669-0.0803709,0.0059347-0.1607413,0.008955-0.2411876
		c0.042388,0.0013728,0.0847244,0.0028205,0.1270809,0.0042515C10.0715132,8.2125282,10.3561106,8.7280798,10.5816231,9.2630253z"/>
	<path fill="#012828" d="M9.8040962,7.8836288c0.0896358,0.1424551,0.1416826,0.2936773,0.1296835,0.4598398
		C9.8790979,8.4365673,9.7848835,8.4565048,9.6800823,8.4568291C9.7108717,8.2638578,9.5965548,8.0449448,9.8040962,7.8836288z"/>
	<path fill="#1B2222" d="M9.8107643,5.2285318c-0.0288486,0.2348323,0.057209,0.4868445-0.1262426,0.698607
		C9.7131824,5.6922956,9.5750628,5.432487,9.8107643,5.2285318z"/>
	<path fill="#1F2222" d="M9.6856508,6.952105C9.853179,7.1256609,9.787159,7.3370495,9.7998877,7.5356541
		C9.599184,7.3674402,9.7002401,7.150414,9.6856508,6.952105z"/>
	<path fill="#212121" d="M19.9544315,10.8812046c-0.0742798-0.1630898-0.2850227-0.2685347-0.2450752-0.4799061
		c0.1893978,0.1092043,0.3355751,0.3153324,0.6133728,0.2260675C20.2808762,10.8089523,20.1425762,10.8749666,19.9544315,10.8812046
		z"/>
	<path fill="#212121" d="M20.3105659,10.6394663c0.0620785-0.2005796,0.2062836-0.3367538,0.4066525-0.4288588
		C20.6859093,10.4353371,20.5398483,10.5700388,20.3105659,10.6394663z"/>
	<path fill="#252525" d="M22.7383099,6.0286665c-0.0006294-0.1491241-0.001255-0.2982483-0.0018845-0.4473729
		c-0.0681553-0.1316199-0.0916576-0.2608657,0.0246029-0.3826795c0.1735668,0.2428641,0.1243782,0.5177317,0.1294785,0.7827616
		c0.0054569,0.2835765,0.1366272,0.2851887,0.347393,0.1447792c0.0860596,0.0815897,0.094902,0.166738,0.0142593,0.2560081
		C22.7762241,6.6306133,22.7269669,6.3660688,22.7383099,6.0286665z"/>
	<path fill="#122323" d="M23.2521591,6.382163c-0.0047264-0.0852904-0.0094509-0.1705823-0.0142174-0.2559404
		c-0.0063953-0.1940217,0.138546-0.3118033,0.2665882-0.4380975c0.0096798,0.1260629-0.0225353,0.264905,0.1282177,0.3479824
		C23.5046577,6.1503415,23.5788803,6.4486074,23.2521591,6.382163z"/>
	<path fill="#1B2222" d="M23.8774338,5.0946279c0.048315-0.2085743,0.1321831-0.3932471,0.3800831-0.4676771
		c-0.0955544,0.2153387-0.1735001,0.4395328-0.3672447,0.6056533c-0.0402069-0.0277872-0.0554924-0.0574856-0.0459156-0.0891109
		C23.8542175,5.1109204,23.8652267,5.0946279,23.8774338,5.0946279z"/>
	<path fill="#252525" d="M23.8774338,5.0946279c0.0042534,0.0459647,0.0085087,0.0919299,0.0127983,0.1379356
		c-0.1157246,0.1621547-0.1482372,0.3836489-0.3919315,0.4545269C23.5624771,5.4566822,23.6703625,5.249404,23.8774338,5.0946279z"
		/>
	<path fill="#1E2222" d="M22.7610283,5.1986141c-0.0081539,0.1275268-0.0163097,0.2550535-0.0245342,0.3826299
		c-0.2310429-0.2339931-0.0276699-0.5764112-0.2455635-0.8137169c0.050827-0.0023603,0.1016598-0.0047221,0.1525726-0.0070987
		C22.7692032,4.8873129,22.7697086,5.0419455,22.7610283,5.1986141z"/>
	<path fill="#162323" d="M21.4761982,2.1143687c-0.1863708-0.121938-0.0988255-0.3062127-0.1276722-0.4640088
		c0.006752-0.1631746,0.1114388-0.2721319,0.2444935-0.3654386C21.5548153,1.5614489,21.4272003,1.8276246,21.4761982,2.1143687z"/>
	<path fill="#F90101" d="M22.1251488,1.7652482c0.0797348-0.0758507,0.1594696-0.1517019,0.2392025-0.2275532
		c0.1717491-0.0772744,0.279356-0.2427682,0.4760323-0.2861458c0.4984913-0.1345375,0.913023,0.020324,1.2890358,0.3083261
		L24.11586,1.5475813c0.6711636,0.7303573,0.6882725,1.0088586,0.1049156,1.7078
		c-0.0738525,0.0643291-0.147707,0.1286581-0.2215595,0.1929865c-0.6673565,0.461056-1.1405354,0.3918219-1.959137-0.286463
		C21.742794,2.6799662,21.778244,2.2147226,22.1251488,1.7652482z"/>
	<path fill="#152323" d="M22.139101,3.145761c0.5396519,0.5091667,1.148489,0.6669586,1.8600941,0.3027651
		c-0.267067,0.4914076-0.7063198,0.4282222-1.1766872,0.3171372c-0.3137569-0.0740993-0.4852486-0.3928263-0.8401299-0.3815913
		c-0.041893-0.0383606-0.0837631-0.0767291-0.1256371-0.1150832c-0.0844307-0.1543121-0.1688595-0.3086393-0.2532864-0.46297
		c0.0424385,0.0001879,0.0848789,0.0003793,0.1273174,0.0005708C22.0149765,2.7721815,21.9489059,3.08656,22.139101,3.145761z"/>
	<path fill="#1A2222" d="M24.2207756,3.2553809c0.4836922-0.5955634,0.3363495-1.1591449-0.1047821-1.7078217
		c0.2807484,0.0495317,0.3394222,0.3159319,0.5323906,0.4512608c0.0032845,0.0755762,0.0065594,0.1511503,0.0098324,0.2267247
		c0.0763359,0.1952362,0.0823917,0.3900881-0.0038624,0.5844355c-0.0014668,0.0375261-0.0034351,0.0750303-0.0058956,0.1125214
		C24.4835739,3.0097361,24.464777,3.2522221,24.2207756,3.2553809z"/>
	<path fill="#162323" d="M22.139101,3.145761c-0.2255707-0.0239816-0.2469883-0.2512529-0.4083366-0.3391759
		c-0.0322361-0.3162968,0.0232162-0.6226187,0.1270618-0.9234397c0.0890827-0.0392897,0.178154-0.0785751,0.2672768-0.1178789
		C21.9434109,2.2269769,21.8843632,2.6876807,22.139101,3.145761z"/>
	<path fill="#1A2222" d="M24.1294193,1.5598752c-0.4309311-0.2149843-0.8824806-0.3284605-1.3768139-0.2313101
		c-0.0400944-0.0287448-0.0545635-0.0586529-0.0434685-0.0897423c0.011301-0.0316598,0.0232468-0.0474985,0.0358944-0.0474985
		C23.3050098,1.0081022,23.7794113,1.0907543,24.1294193,1.5598752z"/>
	<path fill="#162323" d="M22.7450314,1.1913244c0.0025196,0.0457227,0.0050373,0.0914453,0.0075645,0.1372042
		c-0.0977612,0.1183414-0.2093143,0.2154844-0.3882446,0.2091651C22.4467106,1.3817551,22.5738392,1.2665108,22.7450314,1.1913244z"
		/>
	<path fill="#152323" d="M24.6543541,2.8099802c0.0012321-0.1948006,0.0024662-0.3896005,0.0037804-0.5844181
		C24.827774,2.4212904,24.8319416,2.6161323,24.6543541,2.8099802z"/>
	<path fill="#212121" d="M11.4553347,7.1908712c-0.079299,0.5090547,0.2903728,0.9104824,0.3985558,1.3745575
		c-0.0063915,0.0428438-0.0129309,0.085762-0.0194788,0.1286907c-0.9383326-1.4076099-0.9819994-2.838429-0.1345797-4.2923551
		c0.0418129,0.0252991,0.0586987,0.053659,0.0507126,0.0850921c-0.0083704,0.0329556-0.01859,0.049439-0.0307064,0.049439
		c-0.268178,0.7240338-0.4515076,1.460146-0.3898726,2.2320476C11.341857,6.9172645,11.3011703,7.0774975,11.4553347,7.1908712z"/>
	<path fill="#212121" d="M18.0546417,2.4707131c-1.3543243-0.4698803-2.7088976-0.5095437-4.0637913-0.0019553
		c-0.0604982,0.048583-0.1116619,0.0414877-0.1534929-0.0212822c1.4553719-0.7196778,2.9101973-0.7204546,4.3644686,0.0027535
		C18.1607018,2.50423,18.1116409,2.5110583,18.0546417,2.4707131z"/>
	<path fill="#2B1F1F" d="M20.2269077,8.507823c0.6097679-1.3142023,0.6621189-2.6390061,0.0914288-3.9756613
		c-0.0378971-0.0462384-0.0330925-0.0862808,0.0209084-0.1191845c0.7985802,1.2856932,0.7140503,2.5947123,0.1148148,3.9128532
		C20.4194546,8.4019537,20.3044777,8.4478559,20.2269077,8.507823z"/>
	<path fill="#132424" d="M13.8373575,2.4474752c0.0511942,0.0070417,0.1023893,0.0140834,0.1535378,0.0212035
		c-0.1655416,0.2031558-0.52069,0.1870389-0.6322241,0.4524789c-0.5479755,0.0796893-0.6853714,0.6719971-1.1993141,0.7944188
		C12.5822754,3.1436999,13.1166134,2.6935737,13.8373575,2.4474752z"/>
	<path fill="#212121" d="M12.179884,9.1611633c0.6752844,0.4005861,0.7284651,0.4937563,0.514657,0.9019823
		C12.8536158,9.6064568,12.2323236,9.5179901,12.179884,9.1611633z"/>
	<path fill="#1D2222" d="M12.3357601,10.4020824c-0.0390921,0.1212158-0.0781832,0.2424326-0.1172552,0.3636475
		c-0.3161879,0.1424665-0.5897884,0.1972799-0.6196871-0.2492628
		C11.8960485,10.7530985,12.1185455,10.5916777,12.3357601,10.4020824z"/>
	<path fill="#132424" d="M19.716011,3.6164598c-0.3139324-0.1874371-0.5933323-0.4053047-0.7650394-0.7181857
		C19.3036289,3.0515862,19.587904,3.2652423,19.716011,3.6164598z"/>
	<path fill="#132424" d="M18.0546417,2.4707131c0.0490303-0.0068126,0.0980568-0.0136244,0.1471367-0.0204601
		c0.3123932,0.0704134,0.5696487,0.2168443,0.7600937,0.4555333C18.597971,2.8669424,18.3427601,2.6404412,18.0546417,2.4707131z"/>
	<path fill="#1D2222" d="M11.6063242,10.5252991c-0.2496729-0.0811071-0.3996267-0.2599335-0.5358229-0.4522429
		c-0.0372324-0.0285349-0.0485916-0.0558243-0.0341616-0.0819092c0.0140724-0.0254374,0.0277386-0.0381756,0.0410843-0.0381756
		C11.2971067,10.1105881,11.5075216,10.2752886,11.6063242,10.5252991z"/>
	<path fill="#132424" d="M11.7198381,4.5362954c-0.0066538-0.0448179-0.0133085-0.0896354-0.0199852-0.1344919
		c0.0574017-0.2316051,0.1851959-0.4253397,0.3791809-0.5835478C12.0641756,4.1009464,11.9141216,4.3277698,11.7198381,4.5362954z"
		/>
	<path fill="#162323" d="M11.077424,9.9529715c-0.0022717,0.0400391-0.0045452,0.0800772-0.0068703,0.1201
		c-0.2533312-0.1321993-0.3464546-0.3459635-0.3673916-0.5965347C10.8949089,9.5918026,10.9855824,9.7727671,11.077424,9.9529715z"
		/>
	<path fill="#132424" d="M20.3392467,4.4129772c-0.0068741,0.0397835-0.0137501,0.079567-0.0207672,0.119267
		c-0.1472473-0.1239686-0.2221336-0.2787127-0.2372284-0.459013C20.2590199,4.1288347,20.3040657,4.267807,20.3392467,4.4129772z"/>
	<path fill="#FC0000" d="M19.0517139,4.9270296c0.1725388,0.1773171,0.3450756,0.3546343,0.5176125,0.531951
		c0.6568432,1.1591215,0.2788391,2.5868378-0.8240871,3.1125774c-0.9344425,0.4454269-1.7687912,0.24722-2.4641094-0.5853701
		C15.7567024,6.893043,15.717061,5.8499641,16.665369,4.9089165C17.6305771,4.3123698,18.1700954,4.3164649,19.0517139,4.9270296z"
		/>
	<path fill="#212121" d="M16.2811298,7.9861879c0.3627548,0.2861872,0.7003288,0.6029997,1.207859,0.6849022
		c1.0402641,0.1678715,1.9545155-0.3913984,2.2238522-1.3525405c0.1788101-0.638103,0.0406437-1.2485147-0.1435032-1.8595648
		c0.7228642,0.6937008,0.4779587,2.6429687-0.728035,3.1605372c-0.2232418,0.0958061-0.4425678,0.1991653-0.6636982,0.2990408
		c-0.2107029,0.0888758-0.4213543,0.0893459-0.6319618-0.0002804C17.1064796,8.6273994,16.4097042,8.6255779,16.2811298,7.9861879z"
		/>
	<path fill="#212121" d="M19.0517139,4.9270296c-0.7907677-0.5137334-1.5869541-0.4403195-2.3863506-0.0181632
		C17.3327141,4.1998281,18.4570732,4.2083616,19.0517139,4.9270296z"/>
	<path fill="#042525" d="M17.5456429,8.9182825c0.210659,0.0001097,0.42132,0.0002184,0.6319695,0.0003042
		c-0.1769676,0.2261562-0.419014,0.0862589-0.6348896,0.0913019c-0.007576,0.0001774-0.0229359-0.0284615-0.02211-0.0430822
		C17.5215454,8.9502859,17.5366821,8.9344282,17.5456429,8.9182825z"/>
	<path fill="#FB0000" d="M7.6630702,11.1921577C7.3356676,10.73487,7.2771988,10.2579384,7.5363994,9.757803
		C7.6326671,9.5622931,7.771419,9.4032679,7.9946909,9.316494c0.4931393-0.2313023,0.9716997-0.2570276,1.424758,0.0821915
		L9.4098778,9.3927603c0.3009501,0.1409168,0.5128031,0.3549061,0.6375971,0.6414728
		c0.0768309,0.6480484-0.2495632,1.2367182-0.8657875,1.4955769C8.5893154,11.7786503,8.0859957,11.6150465,7.6630702,11.1921577z"
		/>
	<path fill="#222121" d="M7.6630702,11.1921577c0.9869761,0.5477152,1.6754403,0.4520073,2.1354585-0.2793407
		c0.1939449-0.308342,0.134346-0.6259604,0.1122904-0.947238c0.0644665-0.0411482,0.1281233-0.0401373,0.1911154,0.0029678
		c0.0429583,0.0523853,0.0679693,0.1111069,0.0753365,0.176054c-0.0134459,0.2488337,0.0915518,0.5132189-0.1162786,0.7367115
		c-0.4036837,0.4654799-0.8109102,0.9175749-1.5762014,0.8112049C8.1180239,11.6415405,7.8012686,11.5436764,7.6630702,11.1921577z"
		/>
	<path fill="#102424" d="M10.0609922,10.8813124c0.0026493-0.2715769,0.0052977-0.5431557,0.007947-0.8147335
		c0.0805254-0.0565434,0.0204315-0.1748543,0.118741-0.2235851c0.1103687,0.3799696,0.2977953,0.7459021,0.2541561,1.1539326
		C10.3148928,10.9583912,10.1879425,10.9198513,10.0609922,10.8813124z"/>
	<path fill="#182222" d="M9.4194489,9.3986855c-0.5032492-0.2102661-1.0058832-0.2277975-1.50772,0.0039854
		C7.8717198,9.374135,7.8573151,9.3444633,7.8684549,9.3136396c0.0113397-0.0313797,0.0232987-0.0470791,0.0359383-0.0470791
		C8.4412374,9.0087595,8.9699707,8.8278866,9.4194489,9.3986855z"/>
	<path fill="#182222" d="M10.0610847,9.9582253c-0.0500631,0.0024452-0.1001263,0.0048904-0.1502275,0.0073442
		C9.7438955,9.7746058,9.576972,9.5836325,9.4099627,9.3927088c0.1322632,0.0347843,0.2646112,0.0695171,0.3969603,0.10425
		C9.8765841,9.6575775,10.1201992,9.7389174,10.0610847,9.9582253z"/>
	<path fill="#022626" d="M10.0610847,9.9582243c-0.0703936-0.160284-0.2687607-0.2622452-0.2541599-0.4612656
		C9.8489285,9.4971247,9.890933,9.4974155,9.9329243,9.497839c0.0849104,0.1150579,0.1698322,0.2301073,0.254755,0.3451557
		c-0.003088,0.0906487-0.0182266,0.1760025-0.1188173,0.2236767C10.0650101,10.0305395,10.0623913,9.994421,10.0610847,9.9582243z"
		/>
	<path fill="#182222" d="M7.9043922,9.2665606C7.9068298,9.311904,7.9092679,9.3572474,7.9117179,9.4026308
		c-0.1251135,0.1183653-0.2502384,0.2366896-0.3753405,0.355093C7.5132418,9.503706,7.6929893,9.3753262,7.9043922,9.2665606z"/>
	<path fill="#EE0202" d="M10.4563265,11.3696346c0.4131002-0.5652876,0.4118805-0.5640039,1.0526543-0.0601931
		c0.0932875,0.073349,0.2046957,0.127635,0.307683,0.1908207c0.0848055,0.1219635,0.1928101,0.2100821,0.3636522,0.2065239
		c0.0663614,0.1159058,0.2839041,0.3038769-0.0300636,0.3181696c-0.6580429,0.0299578-1.3201313-0.0083027-1.9800072-0.0315247
		c-0.0357647-0.0012589-0.0664682-0.1214247-0.0995102-0.1862354C10.2389717,11.6902761,10.4152365,11.579215,10.4563265,11.3696346
		z"/>
	<path fill="#192323" d="M18.186182,5.6904173c0.0398712,0.0423846,0.0797424,0.0847697,0.1196117,0.1271553
		c0.204052,0.538075,0.1659927,1.0777516,0.0129452,1.6181898l0.0079021-0.0081005
		c-0.3096027,0.3689141-0.6185913,0.3804178-0.9269047-0.0013194l0.0069828,0.0075769
		c-0.1920567-0.5499802-0.1363163-1.0996003,0.0028973-1.6490984c0.0299168-0.0361156,0.0598316-0.0722318,0.0897465-0.1083484
		C17.7311535,5.5649419,17.9617386,5.5025411,18.186182,5.6904173z"/>
	<path fill="#192323" d="M18.3187389,7.4357624c-0.0043182-0.5394278-0.0086346-1.0788555-0.012949-1.6182365
		C18.6744671,6.3545589,18.6589584,6.8940859,18.3187389,7.4357624z"/>
	<path fill="#192323" d="M17.4096146,5.784821c-0.0009308,0.5496583-0.0018635,1.0993161-0.0028439,1.6490359
		C17.0517616,6.8837028,17.0971661,6.3340673,17.4096146,5.784821z"/>
	<path fill="#192323" d="M17.3997364,7.4263425c0.3084698,0.2506032,0.6173801,0.24297,0.9267941,0.0013108
		C17.9719086,7.9149446,17.7626762,7.9146471,17.3997364,7.4263425z"/>
	<path fill="#192323" d="M18.186182,5.6904173c-0.2288437-0.0046377-0.4576893-0.009275-0.686676-0.0139289
		C17.7339516,5.4510202,17.9658337,5.3357,18.186182,5.6904173z"/>
	<path fill="#192323" d="M17.9237022,5.9215245c0.2067204,0.4610586,0.400938,0.9221201,0.00033,1.3832989
		C17.7318382,6.8437619,17.732254,6.3826613,17.9237022,5.9215245z"/>
	<path fill="#262020" d="M17.9237022,5.9215245c0.0001183,0.4611025,0.0002365,0.9222054,0.0003414,1.3833041
		c-0.0000114-0.0000052-0.0624485,0.0002131-0.0624485,0.0002131l-0.062439-0.0000968
		c-0.1024361-0.4612265-0.1029167-0.9224377,0.0002499-1.3836336C17.8408413,5.9212127,17.8822727,5.9212837,17.9237022,5.9215245z"
		/>
	<path fill="#192323" d="M17.7994061,5.9213114c-0.0000916,0.4612126-0.0001812,0.9224248-0.0002613,1.3836355
		C17.5953712,6.8437037,17.5949631,6.3824925,17.7994061,5.9213114z"/>
</g>
</svg>
