<?xml version="1.0" encoding="utf-8"?>
<!-- Generator: Adobe Illustrator 24.1.1, SVG Export Plug-In . SVG Version: 6.00 Build 0)  -->
<svg version="1.1" id="Слой_1" xmlns="http://www.w3.org/2000/svg" xmlns:xlink="http://www.w3.org/1999/xlink" x="0px" y="0px"
	 viewBox="0 0 32 13" enable-background="new 0 0 32 13" xml:space="preserve" width="32px" height="13px">
<g>
	<path fill="#2A292A" d="M21.5605221,10.1625996c-1.05933,1.4806538-2.5952816,2.2659616-4.4617538,2.6212072
		c-1.724391,0.3282042-3.459094,0.1143475-5.1874762,0.1487627c-1.2558413,0.0250053-2.5183258,0.1132936-3.7755079-0.126894
		c-1.7017164-0.3251171-2.631917-1.898984-1.9098902-3.3415976c0.3005667-0.6005335,0.6524553-1.177309,1.0734916-1.7165709
		c0.025547,0.0217514,0.0510955,0.0435023,0.0768647,0.0651426c0.1294045,0.3581295-0.1497407,0.6112261-0.293148,0.8917122
		C6.9168849,9.02946,6.684351,9.3254242,6.5396013,9.6622744c-0.5882044,1.3688202,0.4052615,2.8025303,2.0143452,2.8299694
		c2.6778002,0.0456629,5.3573294,0.0421486,8.0346022-0.0074625c1.2566948-0.0232868,2.3497677-0.5742197,3.3748512-1.2093267
		c0.3932552-0.2379398,0.7240276-0.5344791,0.9865589-0.8936224c0.0791531-0.1111612,0.1544609-0.2260513,0.2936554-0.2860365
		c0.0562134-0.0163927,0.113884-0.0210886,0.1726093-0.0165339C21.4737034,10.0933256,21.522253,10.1205873,21.5605221,10.1625996z"
		/>
	<path fill="#232323" d="M10.4313955,2.7302463c0.9102554-1.2943465,2.2609863-2.0040855,3.8269033-2.4631472
		c0.7707815-0.2259611,1.5459137-0.2312887,2.3325863-0.2306377c2.1828976,0.0018065,4.3662014-0.0209289,6.5485306,0.0115627
		c1.1833057,0.0176177,2.0989151,0.4893149,2.5479794,1.5536314c-0.0249805,0.0188582-0.0499573,0.0377165-0.0749168,0.0566804
		c-0.1420708,0.0280319-0.2496471-0.0332807-0.312191-0.1353303c-0.4887333-0.7974465-1.2845669-1.0625951-2.2264099-1.0975612
		c-0.4334431-0.0160917-0.8651848-0.0544867-1.2919884,0.0515798c-0.1006641,0.0231011-0.2027225,0.0340714-0.3060913,0.039207
		c-0.4977379,0.0092074-0.9951763,0.0068355-1.4926147,0.0041308c-0.1410656-0.0027478-0.2815075-0.011628-0.4194202-0.0401253
		c-1.323576-0.1272239-2.6473789-0.0890883-3.972497-0.0166948c-1.9106903,0.1043845-3.4525261,0.8589997-4.6843281,2.176414
		c-0.119976,0.1283145-0.240202,0.2679598-0.4595308,0.2506042C10.3813305,2.8420658,10.3761101,2.7886167,10.4313955,2.7302463z"/>
	<path fill="#232323" d="M21.5605221,10.1625996c-0.0450916-0.003828-0.0901833-0.0076571-0.1352749-0.011487
		c-0.099226-0.2220116,0.0866241-0.3908005,0.1297169-0.5864658c0.0689983-0.1668625,0.157938-0.3239746,0.2776699-0.4655199
		c0.133255-0.1276226,0.198534-0.2843542,0.2310791-0.4553852c0.0146713-0.0494671,0.0359459-0.0961113,0.0614243-0.1415443
		c0.3842182-0.537672,0.7370739-1.0922284,1.0774822-1.6533837c0.1133442-0.144609,0.1974373-0.2992063,0.196701-0.48312
		c0.0160942-0.396368,0.3695221-0.65171,0.4988403-1.0008044c0.0188427-0.0504827,0.0423698-0.099072,0.0678253-0.1469097
		c0.2302456-0.2562537,0.240593-0.6654515,0.6562195-0.79351c0.5107193-0.5765321,0.8845539-1.2011547,0.8874207-1.9713233
		c0.0010281-0.2763882-0.0717335-0.5695921,0.1379623-0.8192641c0,0,0.0398045-0.0322254,0.0398064-0.0322258
		c0.574831,0.6770953,0.3113823,1.3348321-0.0781307,1.9727381c-0.9039516,1.4803989-1.8065796,2.96192-2.7448959,4.424201
		C22.4078541,8.7100306,22.1993523,9.5445862,21.5605221,10.1625996z"/>
	<path fill="#2A292A" d="M10.4313955,2.7302463c0.0070162,0.0463977,0.0140333,0.0927949,0.0210505,0.1391926
		c0.0283298,0.505079-0.3912926,0.8440666-0.5724831,1.2719328c-0.0877895,0.2073073-0.2357044,0.394093-0.3509054,0.5930209
		C8.9909153,5.6585436,8.3855104,6.5474958,7.8166866,7.4555783C7.7187819,7.6118746,7.6809649,7.8871403,7.3484001,7.787961
		C7.3321042,7.7744336,7.3157659,7.7609491,7.2993865,7.7475071c0.9835858-1.6234121,1.9664063-3.2472138,2.953732-4.8687291
		C10.2901735,2.8179231,10.3709784,2.7792544,10.4313955,2.7302463z"/>
	<path fill="#212121" d="M7.3484001,7.787961C7.9381618,7.2106819,8.198657,6.4468379,8.6905251,5.8149009
		c0.2796078-0.3592315,0.3912945-0.8109903,0.7546568-1.122045c0.246213,0.4761906,0.1130762,0.979888,0.1166477,1.471818
		c0.0011234,0.154644-0.1050224,0.3026237-0.3255348,0.2039356C9.0114145,6.2679663,8.8952761,6.393126,8.7739582,6.524611
		C8.229413,7.0656929,7.9115038,7.7126989,7.7119408,8.4136591c0.1597257,0.1049137,0.3461008,0.0569334,0.5199366,0.0800486
		C8.2862587,8.5137558,8.326355,8.5473509,8.3533058,8.5947075C8.1207056,8.9695435,7.773232,9.2604284,7.4759502,9.5872583
		c-0.5281515,0.5806475-0.552248,1.1225128-0.0451875,1.6621885c0.6181588,0.6579199,1.2784295,0.7702188,2.0036712,0.3417206
		c0.152667-0.0902023,0.2821436-0.2272224,0.4905081-0.207983c0.0692015,0.0495939,0.1225204,0.1394644,0.074152,0.1891699
		c-0.2350693,0.2415714,0.1258917,0.1098042,0.1382799,0.1913385c0.4456577,0.2498655,1.502079,0.2707939,1.8977356,0.0365744
		c-0.0156097-0.0450373-0.0179615-0.0897694-0.009654-0.1348715c0.0738363-0.0825062,0.1585512-0.163743,0.0409594-0.272378
		c-0.1600771-0.2446766-0.0192928-0.4243441,0.1561823-0.5920258c0.196331-0.1876097,0.3680573-0.394825,0.556591-0.5868397
		c0.2705822-0.2755823,0.2139969-0.486495-0.0752373-0.6938782c-0.5965528-0.5186052-0.9891109-1.1443443-1.1842546-1.8742757
		c-0.5374622-1.7822013,0.5243845-4.1062508,2.3080339-4.9287925c0.7196493-0.3318715,1.5212965-0.4700274,2.3412323-0.4488301
		c0.9675636,0.1259892,1.8954124,0.2750463,2.7007828,0.8946955c1.6075573,1.2368519,2.1747837,3.2253067,1.310957,4.9697495
		c-0.239809,0.4842758-0.4833946,0.9668894-0.9404716,1.3241034c-0.267107,0.2087498-0.2712364,0.4306154-0.0760689,0.6995716
		c0.2318668,0.3195219,0.5473232,0.5698977,0.7990456,0.8705349c0.0774403,0.0853567,0.1648273,0.1649027,0.2117252,0.2705126
		c-1.3580093,0.9817142-2.8866501,1.4220037-4.6334324,1.3787384c-2.2589903-0.055953-4.5228853-0.0675869-6.7809305,0.0022936
		c-1.9213076,0.0594616-3.2938333-1.7873402-2.1849484-3.4895267C6.8685489,8.7393923,7.2040892,8.3068933,7.3484001,7.787961z"/>
	<path fill="#202020" d="M19.9269791,11.183919c-0.3061981-0.3283958-0.6575012-0.6169567-0.9288731-0.9786587
		c-0.2290268-0.3052626-0.2401752-0.5252161,0.0548668-0.7922888c1.0765152-0.9744549,1.5632668-2.1920285,1.3404102-3.5313129
		c-0.161747-0.9720244-0.6703224-1.8536739-1.5377293-2.5518427c-0.7866898-0.6331999-1.705595-0.7965395-2.6721573-0.9143379
		c-0.1056118-0.124269-0.046896-0.2154255,0.070715-0.2950387c0.3371792-0.1279932,0.674099-0.0485399,1.0110912,0.001332
		c0.2211514,0.053874,0.4286861,0.1545472,0.6637478,0.163624c0.0856743,0.0084531,0.1691284,0.0256207,0.2503796,0.0515828
		c0.2324562,0.0945938,0.4620438,0.1943951,0.6635303,0.3396909c0.1809387,0.152909,0.3505611,0.3179126,0.558939,0.4424691
		c0.0439644,0.0308304,0.0826244,0.0665898,0.1180363,0.1052942c0.1353378,0.1876624,0.3110275,0.343899,0.479002,0.5062172
		c0.1582336,0.174716,0.2543087,0.3827779,0.373745,0.5786278c0.0837574,0.160881,0.1716595,0.3198862,0.2551327,0.481607
		c0.0230598,0.0504575,0.0390644,0.1022396,0.0513115,0.1555996c0.0322742,0.2506342,0.0390663,0.5043836,0.1278496,0.7472425
		c0.0622368,0.5183721,0.0457287,1.0370846,0.0170059,1.5554509c-0.0081787,0.0578017-0.0245686,0.1144834-0.045599,0.169415
		c-0.1999855,0.3981423-0.2997417,0.8314171-0.501915,1.2295523c-0.1109142,0.1841354-0.2466869,0.3532572-0.3859806,0.5202274
		c-0.1312122,0.1338854-0.2758236,0.2561827-0.4089909,0.3888006c-0.5311413,0.4829082,0.1242256,0.6372299,0.3069382,0.9206295
		c0.0391693,0.0340595,0.0766792,0.0700779,0.1145649,0.104435c0.13484,0.1072254,0.2282639,0.0482445,0.3078232-0.0655403
		c0.410017-0.4787931,0.8195744-0.9567327,1.1172695-1.5039349c0.0690422-0.1158504,0.1536942-0.221818,0.2472897-0.3220758
		c0.1664371-0.164176,0.206089-0.3790751,0.2784424-0.5813513c0.33004-0.8470783,0.2642365-1.7286987,0.2785225-2.6032434
		c0.2888393-0.1673293,0.3679905,0.027885,0.4232578,0.2184601c0.0577526,0.1991439,0.0341473,0.4172163,0.1689491,0.5986619
		c0.0267715,0.0549455,0.0437355,0.1126838,0.0536442,0.171958c0.0561581,0.7521424-0.2455502,1.4178605-0.6052055,2.0694342
		c-0.0002403,0.0380669-0.0004787,0.0761328-0.000721,0.1141987c-0.1333942,0.1288185-0.1219044,0.3235588-0.2487679,0.455349
		c-0.0836639,0.1519327-0.1673241,0.3038664-0.250988,0.4557991c-0.1604233,0.1694183-0.2177391,0.3952675-0.3729649,0.5675316
		c-0.0836258,0.0764484-0.1672554,0.1528969-0.2508831,0.2293453C20.7089996,10.6926403,20.5102119,11.163559,19.9269791,11.183919z
		"/>
	<path fill="#202020" d="M19.9269791,11.183919c0.4808216-0.1403933,0.7126389-0.5726213,1.1217041-0.7970915
		c-0.1306248,0.4319086-0.533905,0.6459599-0.8737316,0.9107199C20.0725651,11.2954998,19.9802666,11.2751617,19.9269791,11.183919z
		"/>
	<path fill="#202020" d="M21.299551,10.1574841c0.0437679-0.2332773,0.1233482-0.4469538,0.372982-0.5675373
		c-0.0824528,0.1871147-0.1648903,0.3742228-0.2473068,0.5612497C21.3833485,10.1532373,21.3414497,10.1553602,21.299551,10.1574841
		z"/>
	<path fill="#202020" d="M8.6954165,6.5161276c0.2552109-0.5029531,0.2612209-0.5049515,0.7497663-0.2024617
		c0-0.5599546,0-1.0903802,0-1.6208081c0.2565556-0.6441884,0.6561394-1.2225828,1.0071783-1.8233829
		c0.8395357-0.9154357,1.7874222-1.6866733,3.0217943-2.1614234c0.7956495-0.306014,1.6240091-0.3873233,2.4489527-0.4382443
		c1.0939779-0.0675279,2.1967325-0.0165771,3.2957144-0.0168311c0.1271839-0.0000294,0.2490387,0.011102,0.3337326,0.1138932
		c0.0369358,0.1970029,0.4701366,0.0606523,0.3740406,0.3699268c-0.0879574,0.117749-0.3786163,0.0496352-0.3247108,0.2976223
		c0.0095997,0.0483874,0.0107899,0.0956863,0.0073833,0.1435344c0.3087444,0.4627532,0.7961807,0.7386541,1.2766094,1.0193185
		c0.0520172,0.0303879,0.1064339-0.0318427,0.1242714-0.091578c0.0154858-0.0767817,0.0299854-0.1522299,0.0545444-0.2264014
		c0.054594-0.1027793,0.1073723-0.2086374,0.2687893-0.1411096c0.2378559,0.3199716,0.2103901,0.7035289,0.3061314,1.0572143
		c0.0427246,0.2096822,0.1659832,0.3943865,0.2285233,0.5979855c-0.0005493,0.4039791,0.4233589,0.6402237,0.4860115,1.01917
		c-0.1141472,0.1130776-0.0829639,0.2754683-0.1614456,0.4017453c-0.1197433,0.0586524-0.2261715,0.0157828-0.3322315-0.0344825
		c-0.1304531-0.07652-0.210062-0.1898875-0.2747192-0.314168c-0.4849892-1.200407-1.4014511-2.0697145-2.5476494-2.762176
		c-0.2700691-0.1885848-0.5633717-0.3367127-0.8910217-0.4247738c-0.0538559-0.0144988-0.106123-0.0329651-0.1580276-0.0521492
		c-0.2597256-0.1008465-0.5326557-0.156402-0.8111954-0.1956692c-0.0604496-0.0086895-0.1186085-0.0225751-0.1768169-0.0386815
		c-1.1165466-0.0298443-2.2403765-0.1265886-3.2923479,0.3443167c-0.9633512,0.4398973-1.8849192,0.9188923-2.5144892,1.7677475
		c-0.2445049,0.3296654-0.4496164,0.6720438-0.6448326,1.0233581c-0.1749563,0.275805-0.3241863,0.5605021-0.3662043,0.8829055
		C10.17237,5.0654707,10.155551,5.1184316,10.1365223,5.1711411c-0.1606216,0.7579341-0.2615662,1.5162315-0.0459814,2.2799578
		c0.0286455,0.0532107,0.042964,0.1093831,0.0453215,0.168416c-0.01548,0.1484723-0.0568037,0.2872939-0.1811619,0.3941474
		C9.8524618,8.0350952,9.7740126,7.9938936,9.702632,7.9342208C9.4857759,7.731863,9.4277077,7.4797101,9.4100952,7.2064829
		c-0.0115204-0.17874,0.0652733-0.3883433-0.1559639-0.5168166C9.08918,6.6453257,8.9091253,6.6569967,8.7553911,6.5746722
		C8.7352171,6.5553761,8.7153168,6.5357513,8.6954165,6.5161276z"/>
	<path fill="#202020" d="M25.6475887,1.6338824c0.2058563,1.0990092-0.1796551,2.0541806-0.8588428,2.9376068
		c-0.0093822,0.0122023-0.0284138,0.0182242-0.042944,0.0271292c-0.0256939-0.0444179-0.0513859-0.0888357-0.0770779-0.1332536
		c-0.066349-0.0515537-0.1150169-0.1140428-0.1424885-0.1899238c-0.1115055-0.3266592-0.0536938-0.6629219-0.0676174-0.9955077
		c0.3607979-0.5301368,0.2763958-1.0588703-0.0080166-1.5869213c0.0029526-0.264196-0.06534-0.4595108-0.4287281-0.3741152
		c-0.2031517,0.001457-0.3510151-0.1300207-0.5318966-0.1825081c-0.2628517-0.0923629-0.5281639-0.0640099-0.7939796-0.0140637
		c-0.0820351,0.0099308-0.1616821,0.002907-0.2375698-0.0284207c-0.1334381-0.0784423-0.1898289-0.2239774-0.3202515-0.305365
		c-0.0862389-0.0540542-0.1791573-0.098694-0.2611847-0.1587042c-0.0727272-0.0755442-0.1492634-0.1503952-0.0788898-0.2616382
		c1.0768585-0.268205,3.1800919-0.1278635,3.6535702,1.1466571C25.4716225,1.5685623,25.5802631,1.5948308,25.6475887,1.6338824z"/>
	<path fill="#042509" d="M21.7981014,0.3681971c0.0408726,0.0746967,0.0817451,0.1493933,0.1226158,0.2240899
		c-0.1190376,0.1433094-0.2950382,0.1916219-0.472971,0.2378772c-0.5108204,0.0044144-1.0375824,0.163169-1.5192471-0.1258759
		c-0.0984402-0.129327-0.2575455-0.0820631-0.3891373-0.1175447c-0.27458-0.074037-0.1122532-0.1515906,0.0131931-0.219889
		c0.124176-0.0001028,0.2483521-0.0002204,0.3725281-0.0003377c0.5419426,0.0932339,1.0838795,0.0933453,1.6258106-0.0000803
		C21.633297,0.3670234,21.7157001,0.3676102,21.7981014,0.3681971z"/>
	<path fill="#202020" d="M21.5508938,0.3664365c-0.541914,0.1815127-1.0838394,0.1813757-1.6257915,0.0000722
		C20.46702,0.3664901,21.0089569,0.3664632,21.5508938,0.3664365z"/>
	<path fill="#202020" d="M22.1729927,8.5646057c0.1008129-0.6965036,0.4938469-1.3337312,0.4992085-2.0495968
		c0.0362167-0.0373907,0.0802708-0.0506315,0.1327477-0.0370216c0.0621128,0.0201988,0.1251049,0.0429683,0.1710014-0.0278225
		c0.0301018-0.085187,0.0620861-0.1679001,0.11936-0.240943c0.0358009-0.0389686,0.0814095-0.0598292,0.1361275-0.0661082
		c0.1600361,0.0404124,0.1926689,0.1661553,0.2324524,0.2872052c-0.0336285,0.1493559-0.0602188,0.301054-0.1677876,0.4261785
		C23.0127144,7.4756875,22.6989746,8.0782585,22.1729927,8.5646057z"/>
	<path fill="#1A2218" d="M23.4208393,6.4015241c-0.0805321-0.0761728-0.161068-0.1523442-0.2416019-0.2285166
		c-0.0481224-0.0329118-0.0825691-0.0751209-0.1039448-0.1264176c-0.0515327-0.1966424,0.0160389-0.3691239,0.1295891-0.5322719
		c0.033802-0.0418715,0.0744781-0.0780473,0.1196213-0.1097178c0.1139679-0.0695472,0.2233772-0.1481495,0.3611584-0.1781478
		c0.1517715-0.0180993,0.1519127,0.2704062,0.3564129,0.1470423c-0.038353,0.3935895-0.544239,0.5987515-0.4969273,1.026866
		C23.5043087,6.4540133,23.4629059,6.4571691,23.4208393,6.4015241z"/>
	<path fill="#132412" d="M24.6686745,4.2369199c0.0000172,0.0761471,0.0000324,0.1522946,0.0000496,0.2284431
		c-0.3393097,0.1800666-0.2985935,0.6077714-0.6236839,0.7971025c-0.1480293-0.0218821-0.2351093-0.1090441-0.2934208-0.2274227
		c-0.0246792-0.1248012,0.0207481-0.2386508,0.0665588-0.3526244c0.0319691-0.0660362,0.0792923-0.1208224,0.1451397-0.1613779
		c0.0426655-0.0238876,0.0878658-0.0441523,0.1331596-0.0632505c0.0650349-0.03337,0.125103-0.0732136,0.1780357-0.1223249
		C24.3863487,4.2375436,24.4887562,4.1056628,24.6686745,4.2369199z"/>
	<path fill="#012604" d="M23.8066692,5.0358849c0.0794563,0.0755262,0.1589088,0.1510525,0.2383671,0.2265797
		c-0.0011139,0.0370269-0.0020828,0.0740561-0.0029297,0.1110592c-0.1849728,0.1342344-0.2568913-0.0391831-0.3657932-0.1119246
		C23.6156731,5.1362953,23.6864262,5.0741873,23.8066692,5.0358849z"/>
	<path fill="#222222" d="M23.4208393,6.4015241c0.041441-0.0003166,0.0828819-0.0006981,0.1243153-0.0011539
		c0.0122337,0.1953506-0.0219593,0.369597-0.249052,0.4561291C23.2767162,6.6909189,23.3356361,6.5432205,23.4208393,6.4015241z"/>
	<path fill="#202020" d="M21.9235039,9.1341534c-0.0116711-0.1948299,0.0221252-0.3689718,0.2487774-0.4553518
		C22.1845303,8.8738947,22.1502724,9.0478191,21.9235039,9.1341534z"/>
	<path fill="#202020" d="M16.308279,2.1877122c-0.1004791,0.0490544-0.1223412,0.1339793-0.1247826,0.2277658
		c-1.8051443,0.0084248-3.2805481,0.5826244-4.087472,2.1372592c-0.3742275,0.7209973-0.5853758,1.5025797-0.4314785,2.3339877
		c0.045125,0.2437801-0.1688414,0.5140285,0.0262833,0.7681632c-0.1340523,0.0655766-0.2420616,0.0051303-0.3499002-0.0595846
		c-0.0764389-0.0614328-0.1227884-0.1392369-0.1508522-0.2276359c-0.0267153-0.0903845-0.0354586-0.1826825-0.0391531-0.2758689
		c-0.0076036-0.6650033-0.0396605-1.3311243,0.1185646-1.9873619c0.0047188-0.2131352,0.0709486-0.415823,0.1286411-0.6197114
		c0.3134327-0.8747671,0.9779081-1.4728241,1.8264217-1.9257607c0.1925707-0.0653441,0.3836651-0.1347289,0.5680513-0.2199626
		c0.0553503-0.024071,0.1123629-0.0428669,0.1704588-0.0603216c0.1521988-0.041357,0.3010683-0.0923977,0.4579258-0.1193812
		c0.4323759-0.1016068,0.8781996-0.1244771,1.3166609-0.1889451C15.9554482,1.9383307,16.2351894,1.8629241,16.308279,2.1877122z"/>
	<path fill="#112312" d="M9.9446602,11.4112158c-0.3658991,0.1966743-0.6303921,0.5250235-1.1086788,0.5790529
		c-0.9834552,0.1110945-1.7957206-0.7183361-1.9709721-1.4815063c-0.0699377-0.3045635,0.1315985-0.6516066,0.3684936-0.8675222
		C7.6115508,9.2966681,7.7891202,8.7806883,8.3246107,8.575429C8.5212641,8.382781,8.7465696,8.464015,8.9694023,8.5181875
		c0.0943661,0.0222712,0.1828794,0.0570898,0.2647133,0.1053581c0.7517958,0.6497211,1.3442612,1.3799562,1.4221745,2.3675728
		c-0.0222273,0.0799627-0.0668621,0.1488895-0.1276054,0.2092237C10.3578243,11.3240852,10.2077742,11.4985771,9.9446602,11.4112158
		z"/>
	<path fill="#172315" d="M12.8133717,9.4764233c0.3740644,0.1939983,0.5039043,0.4129019,0.1397161,0.7376842
		c-0.2305994,0.2056484-0.4079323,0.4603739-0.632246,0.6727781c-0.1693869,0.1603928-0.3040876,0.3039103-0.1302414,0.524478
		c-0.0538578,0.0943928-0.1565084,0.1293783-0.25243,0.1734238c-0.0538988,0.0129423-0.1083736,0.0169115-0.1640129,0.0120516
		c-0.0553503-0.0108356-0.107152-0.0295639-0.1565609-0.0546188c-0.2344208-0.1523428-0.4269295-0.3391132-0.5635681-0.5718536
		C10.565134,10.3989,10.2193604,9.7592678,9.9675665,9.0742064c0.0521927-0.1443491-0.0178194-0.3220072,0.1402273-0.4384737
		c0.5431585,0.0280848,0.4837027,0.5516014,0.777339,0.7851019c0.1818838,0.2647305,0.3562622,0.5336771,0.5150776,0.8107557
		c0.1716223,0.2034941,0.2580853,0.5362015,0.6722555,0.3611717c0.0381174-0.0352888,0.0776901-0.0684986,0.1161919-0.1030626
		c0.3093529-0.2310658,0.5150261-0.5122595,0.5231371-0.8907995C12.7339716,9.5499048,12.7675228,9.5088692,12.8133717,9.4764233z"
		/>
	<path fill="#272123" d="M14.1986151,8.8038969c-0.1070671-0.0112362-0.2090816-0.0309954-0.263895-0.1303434
		c-0.2352839-0.4855461-0.1019478-0.9974055-0.1134996-1.4963527c-0.0107613-0.4648876-0.0658855-0.9343891,0.040164-1.3970966
		c0.0382004-0.0669227,0.0993519-0.0967231,0.1814623-0.0891647c0.2720785,0.2247639,0.17904,0.52632,0.1879978,0.8008046
		c0.0148172,0.4540057,0.0003986,0.9087071,0.0051298,1.3630638c0.006959,0.667963,0.174202,0.7684984,0.9178696,0.5591059
		c0.2061253-0.3399839,0.0971327-0.7080641,0.1019878-1.0612583c0.010684-0.7775965,0.0259066-1.5558019-0.0107384-2.3327494
		c-0.0245504-0.0861454-0.0682487-0.1666455-0.0978727-0.2514725c-0.0205812-0.0575466-0.0193968-0.1152391,0.0022955-0.1725821
		c0.1507463-0.013854,0.3056908-0.0421371,0.4111576,0.0996308c0.1238594,0.1663728,0.1225185,0.356144,0.1227055,0.5457144
		c0.0009403,0.963284,0.0008526,1.926568,0.0000706,2.8898516c-0.0001564,0.1897011-0.0002251,0.3791609-0.1210661,0.5464754
		c-0.08918,0.0419617-0.178359,0.0839233-0.2675381,0.125886C14.9295168,8.9576998,14.5641079,8.958189,14.1986151,8.8038969z"/>
	<path fill="#0B2510" d="M18.5442009,4.6930728c0.2650127,0.0226092,0.2599468,0.1992006,0.2598381,0.3757935
		c-0.0006733,1.0816803,0.0030727,2.1633801-0.0045929,3.2450156c-0.0008907,0.1259022,0.0903473,0.3831425-0.2492771,0.2458735
		C18.2637997,7.2712269,18.2748184,5.9823155,18.5442009,4.6930728z"/>
	<path fill="#022608" d="M15.5623837,8.6775246c-0.000577-1.3273678-0.0011559-2.654736-0.0017233-3.9820733
		c0.2307615,0.0912776,0.2500353,0.2723336,0.2493944,0.4693327c-0.0033112,1.0135355-0.0040045,2.0270853-0.0017385,3.0406232
		C15.8087559,8.4021645,15.7904787,8.5833921,15.5623837,8.6775246z"/>
	<path fill="#0A250F" d="M13.9564848,5.6842957c-0.0072355,0.9964633-0.0144701,1.9929261-0.0217361,2.9893236
		c-0.2672272-0.1048622-0.2474537-0.3201399-0.2470198-0.5296755c0.0011711-0.5665426,0.0036669-1.1331139-0.0014267-1.6996207
		c-0.0016565-0.1840205,0.0649643-0.3992105-0.1263628-0.5317702c-0.3680286-0.2549896,0.1836367-0.1776695,0.1268539-0.3137083
		C13.8133659,5.5309305,13.9101734,5.5412521,13.9564848,5.6842957z"/>
	<path fill="#122314" d="M7.7145123,8.4554415C7.5911026,8.4744873,7.5670743,8.66259,7.4155288,8.6150093
		c-0.0888033-0.0278807-0.1069517-0.1336336-0.0580125-0.19065C7.8455148,7.8558121,7.9870758,7.1075416,8.5222101,6.566103
		c0.0349865-0.0353994,0.1144543-0.0341854,0.1732197-0.0499892C8.6954165,6.5161276,8.6974792,6.5159764,8.6974792,6.5159764
		c0.0403891,0.0349598,0.0686779,0.0769067,0.0870571,0.1249204C8.793169,6.6914063,8.7915201,6.7416563,8.7825041,6.7920146
		C8.755599,6.8916602,8.7086325,6.9843802,8.6651926,7.078548C8.5153542,7.3851957,8.3216534,7.6730947,8.2022839,7.9925156
		C8.1614523,8.0888891,8.1044312,8.1770563,8.0381765,8.2604895C7.9481964,8.349699,7.8910522,8.4858084,7.7145123,8.4554415z"/>
	<path fill="#501B48" d="M18.5442009,4.6930728c0.002018,1.2889247,0.0040379,2.5778494,0.0060101,3.8667283
		c-0.0302982,0.0058374-0.0600357,0.0134068-0.089262,0.0226622c-0.0294876-0.020606-0.0589771-0.0412121-0.0888081-0.0615654
		c-0.2178555-0.4349928-0.0943375-0.8955579-0.1109161-1.3441343c-0.0223732-0.6052575-0.0124683-1.2117691-0.0040798-1.8174934
		c0.0049858-0.3599577-0.1554298-0.5161605-0.5552444-0.5104289c-0.392767,0.00563-0.7884731,0.0318713-1.1802673-0.0319185
		c-0.0734901-0.0205879-0.1368656-0.0561595-0.1906128-0.1060176c-0.0076218-0.0485783-0.0152416-0.0971565-0.0228634-0.1457348
		c0.0375595-0.0417447,0.0790558-0.0453062,0.1244888-0.0106907C17.1324005,4.6526561,17.8574982,4.429285,18.5442009,4.6930728z"/>
	<path fill="#BE0AA4" d="M13.9564867,5.6842957c-0.0557518-0.1182456-0.1577339-0.1149497-0.2696934-0.085443
		c-0.4873238-0.2016749-0.5452251-0.4465261-0.2386398-1.0091658L13.4425039,4.588552
		c0.5686092,0.0994067,1.1378851,0.0659103,1.7071514,0.0072212c0.0178804,0.0313215,0.027668,0.0645828,0.0292196,0.0998616
		c-0.0688639,0.1122789-0.1823378,0.169405-0.3092995,0.2100267c-0.3374882,0.0836134-0.6845798,0.0382509-1.0257273,0.0622697
		c-0.21385,0.0351839-0.2984457,0.1045394-0.0819559,0.255332c0.1809864,0.0599766,0.3849888,0.0907803,0.4486704,0.2969432
		c-0.0022993,0.0879526-0.0512753,0.1444149-0.1405878,0.1735868C14.031765,5.6944222,13.9939356,5.6912565,13.9564867,5.6842957z"
		/>
	<path fill="#032509" d="M12.2262764,12.3967028c-0.6878071,0-1.3756142,0-2.0634232,0
		c-0.0021324-0.0352612-0.0042658-0.0705223-0.0063982-0.1057835c0.6887922,0,1.3775845,0,2.0663767,0
		C12.2239799,12.3261805,12.2251282,12.3614416,12.2262764,12.3967028z"/>
	<path fill="#022608" d="M17.0429039,5.8271308c-0.2453938,0.5871949-0.0582447,1.1963401-0.1056747,1.7938852
		c-0.0250378,0.315455-0.004427,0.6339278-0.004427,0.9760251c-0.2677422-0.0588903-0.1735916-0.1860094-0.174633-0.3114252
		c-0.0067825-0.8165336,0.2617474-1.6497512-0.1776352-2.443027c-0.1022148-0.1845436,0.2275429-0.1049876,0.2236843-0.24894
		c0.0887718-0.0562673,0.1789341-0.0570612,0.2704353-0.0056849C17.1265144,5.6745672,17.123745,5.755168,17.0429039,5.8271308z"/>
	<path fill="#06250B" d="M13.4481535,4.5896869c-0.1435738-0.1320744-0.1850185-0.3129144,0.0485268-0.3285022
		c0.5745268-0.0383468,1.1573782-0.0673389,1.7315454,0.0729651c-0.5673265,0.2817912-1.2292233-0.0478039-1.785737,0.2543645
		C13.4425039,4.588552,13.4481535,4.5896869,13.4481535,4.5896869z"/>
	<path fill="#06250B" d="M16.4326458,4.5544796c-0.041502,0.0036511-0.0830002,0.0073023-0.1244946,0.0108223
		c0.0164967-0.1154594,0.0511322-0.2544446,0.1777763-0.2727685c0.6129646-0.0886889,1.2259445-0.0928135,1.831295,0.0626097
		C17.7017612,4.572968,17.0409393,4.3343887,16.4326458,4.5544796z"/>
	<path fill="#012704" d="M12.8133717,9.4764233c-0.0003033,0.0369091-0.0001011,0.0738163,0.0006037,0.1107206
		c-0.2080688,0.0861778-0.3058853-0.0755615-0.438303-0.1607409c-0.1385889-0.1269522-0.2784519-0.2532177-0.3892479-0.4028482
		c-0.1414728-0.2199764-0.2542114-0.4537868-0.3899212-0.6768761c-0.0992432-0.1890459-0.1830854-0.383184-0.2343893-0.5883508
		c-0.0095196-0.0832195,0.0068731-0.1587524,0.0792685-0.2170205c0.0831528,0.0378513,0.1663055,0.0757031,0.2494526,0.1135683
		C11.8364267,8.379384,12.3119268,8.9345617,12.8133717,9.4764233z"/>
	<path fill="#761661" d="M17.0429039,5.8271308c0.0007572-0.0712667,0.0015125-0.1425328,0.0022697-0.2137995
		c0.0762482-0.0418668,0.1419182-0.0309148,0.1973476,0.0325809c0.2351284,0.9212055,0.0728168,1.8535833,0.0929031,2.7812815
		c-0.012249,0.0700722-0.0385818,0.1354237-0.0777493,0.1965981c-0.0276928,0.0242805-0.0557289,0.048315-0.0837631,0.0723495
		c-0.2507191-0.5075188-0.0711441-1.0417128-0.1106167-1.5623641C17.0304012,6.6998754,17.0477867,6.2628002,17.0429039,5.8271308z"
		/>
	<path fill="#BE09A5" d="M12.0737934,11.738163c0.1578617,0.0172787,0.3007708,0.085474,0.2954359,0.2344427
		c-0.0054741,0.1527891-0.173151,0.1237879-0.2904682,0.1236572c-0.5772715-0.0006428-1.1545773-0.0089769-1.7317905-0.0050211
		c-0.2741146,0.0018787-0.3153505-0.1186399-0.2376404-0.3223619c0.0491533-0.0331631,0.1025534-0.0404606,0.1601067-0.0227585
		C10.8714914,11.8831158,11.4730787,11.9031754,12.0737934,11.738163z"/>
	<path fill="#EC03D3" d="M12.0737934,11.738163c-0.0024967,0.0703115-0.0025949,0.2020521-0.0078278,0.2022219
		c-0.6009836,0.0195351-1.2041731,0.0821495-1.8005304-0.0357494c-0.0333719-0.0065985-0.0469074-0.0967569-0.0696764-0.1480236
		c-0.0263042-0.0511541-0.0179863-0.095746,0.0299911-0.1327953c0.0549049-0.0166559,0.1092052-0.0137997,0.1628017,0.004694
		c0.2503986,0.1288958,0.5253029,0.1015406,0.795989,0.1005116c0.0822887-0.0027733,0.1643753-0.0013456,0.2462854,0.0014372
		c0.1559353-0.0098944,0.3981123,0.1369686,0.3834782-0.1788778c0.0375719-0.0123968,0.0756636-0.0139141,0.1142759-0.0045519
		c0.0605049,0.0156622,0.0938559,0.0529261,0.103878,0.1087475C12.0416307,11.6851635,12.0554075,11.7126255,12.0737934,11.738163z"
		/>
	<path fill="#07250C" d="M14.1986151,8.8038969c0.365531-0.0002422,0.7310619-0.0004845,1.0964117-0.0006065
		C14.9599924,9.1172361,14.3381424,9.1175127,14.1986151,8.8038969z"/>
	<path fill="#112412" d="M10.3254957,11.613904c-0.0432472,0.0475693-0.0864935,0.0951385-0.1297388,0.1427078
		c-0.028842,0.0042515-0.0577173,0.0083294-0.086524,0.0122499c-0.2275591-0.0308399-0.2289181,0.2928553-0.4785671,0.2565327
		c-0.0353479-0.2722139,0.3590765-0.352129,0.3139887-0.6141739c0.1661501-0.0757723,0.3322945-0.1515369,0.4984388-0.2273016
		C10.5270319,11.3552952,10.4610739,11.492528,10.3254957,11.613904z"/>
	<path fill="#BC0A9C" d="M17.1739311,5.6162562c-0.0429077-0.0009823-0.0858173-0.0019655-0.1287422-0.0029364
		c-0.080328-0.0065374-0.1606445-0.0130858-0.2409649-0.0196533c-0.1591873-0.0346966-0.3427067,0.0196586-0.4763527-0.1084495
		c-0.1227055-0.2604361-0.1222801-0.5207906,0.0006256-0.7810631c0,0,0.0023975,0.0066271,0.0024605,0.0066891
		c0.0373859,0.0034842,0.0746269,0.0075393,0.1117859,0.012228c0.039278,0.0371561,0.0702267,0.0793939,0.093462,0.126174
		c0.0449982,0.2126336,0.0635948,0.4453063,0.4001312,0.4373794c0.1178532,0.0271106,0.2136421,0.0814919,0.2740574,0.1805339
		C17.2252522,5.5223584,17.2129936,5.5720601,17.1739311,5.6162562z"/>
	<path fill="#781566" d="M8.9282122,8.661602c-0.1855612-0.1199245-0.3901157-0.12918-0.6036119-0.0862246
		C8.2793083,8.5674696,8.2340059,8.5595112,8.1887045,8.5515518C8.1791983,8.5270653,8.1696939,8.5025787,8.1600456,8.4782553
		c0.0240088-0.0476665,0.061265-0.0848694,0.1091738-0.1133966c0.2851973-0.2261038,0.7217188,0.0724392,0.9839945-0.2375259
		c0.0488739-0.0356913,0.1030359-0.0484457,0.1643715-0.035984C9.5024452,8.1414852,9.5397072,8.2162905,9.553936,8.3040094
		C9.5758772,8.759347,9.1526175,8.5652723,8.9282122,8.661602z"/>
	<path fill="#122314" d="M17.3064651,9.0203152c-0.2269917,0.0051479-0.1833229-0.1099195-0.1237564-0.232049
		c0.4128685-0.223218,0.8275013-0.2174988,1.2437038-0.0079794c0.0003738,0.0974283-0.0178204,0.1868944-0.123064,0.2390366
		C17.9709435,8.9256105,17.6386452,8.9242058,17.3064651,9.0203152z"/>
	<path fill="#042507" d="M12.9960232,5.4987721c-0.2292776-0.319828-0.2254753-0.5202045-0.00809-0.7818499
		C13.0971184,4.9887629,13.0800905,5.1927881,12.9960232,5.4987721z"/>
	<path fill="#5B184E" d="M18.4264107,8.7802868c-0.4145718,0.0026827-0.8291416,0.0053663-1.2437077,0.0080128
		C17.181097,8.75739,17.1781921,8.726615,17.1739521,8.6960411c0.0099659-0.0194864,0.0200291-0.0390482,0.0301476-0.0585861
		c0.3179665-0.1795893,0.6806812-0.0658827,1.016531-0.1299191c0.0653782-0.0049248,0.1261349,0.0082054,0.1824055,0.0386314
		c0.0194187,0.0117254,0.0385971,0.0237722,0.0577202,0.0362177C18.4494362,8.6484041,18.4379234,8.7143459,18.4264107,8.7802868z"
		/>
	<path fill="#07250B" d="M17.3064651,9.0203152c0.3321018-0.1763315,0.6644115-0.1757135,0.9969025-0.0009823
		C17.9710541,9.0196533,17.6387596,9.0199842,17.3064651,9.0203152z"/>
	<path fill="#022703" d="M12.0324583,11.655777c-0.034626-0.0362492-0.0692511-0.0724974-0.103878-0.1087465
		c0.0497141-0.1057405,0.1491146-0.1315584,0.2620182-0.135663c0.0524654,0.0497255,0.1585712,0.113554,0.148097,0.146739
		C12.2935343,11.7011986,12.1297493,11.602273,12.0324583,11.655777z"/>
	<path fill="#AB0C9C" d="M8.2004023,8.4549093C8.197382,8.4872313,8.1934948,8.5194664,8.1887226,8.5515833
		C8.0123892,8.5944147,7.8145809,8.7255917,7.714479,8.4554348c0.0759435-0.0797567,0.1518545-0.1595192,0.2277646-0.2392817
		C8.065568,8.2621756,8.1531086,8.3404217,8.2004023,8.4549093z"/>
	<path fill="#501B48" d="M16.3284969,4.704154c-0.0002804,0.260354-0.0005627,0.5207076-0.0007362,0.7810626
		C16.1114693,5.2247186,16.1061306,4.9643602,16.3284969,4.704154z"/>
	<path fill="#313131" d="M13.9373531,2.4141555c-0.0414162,0.0010402-0.0828428,0.0015409-0.1242781,0.0015018
		c-0.1646585,0.0790112-0.3619032,0.0983169-0.499445,0.227015c-0.7625923,0.4637978-1.4535723,0.9847817-1.7476673,1.822695
		c-0.0487757,0.0615554-0.0890913,0.1281343-0.1348791,0.1912975c-0.0988874,0.1364198-0.0409346,0.4705205-0.3458185,0.3479309
		c-0.2204418-0.0886364-0.1018124-0.3420272-0.0144148-0.5118837c0.7569895-1.4712212,1.9629641-2.439476,3.6995974-2.9017043
		c2.2841101-0.6079459,5.121213,0.8394202,6.0576677,2.715456c0.8522797,1.7074137,0.7288818,3.3412652-0.3805599,4.9220567
		c-0.1507053,0.2147341-0.3780365,0.3997717-0.4273396,0.7500448c0.4804096-0.2568884,0.662035-0.6569042,0.8899174-1.0143175
		c0.3602295-0.5649881,0.4525833-1.2142429,0.6633778-1.8265758c0.061655-0.1790981,0.0349541-0.521616,0.3067265-0.4756522
		c0.279705,0.0473056,0.189661,0.37148,0.1857643,0.591217c-0.0013332,0.0751476-0.0178089,0.1506705-0.0220451,0.2257977
		c-0.0029335,0.0539823-0.0121708,0.1077819-0.0262127,0.1603422c-0.1166668,0.2337942-0.1357727,0.4942141-0.2324905,0.7338295
		c-0.0129719,0.0488377-0.0339966,0.0949202-0.060482,0.138792c-0.1087341,0.1648979-0.2352848,0.3212709-0.3005505,0.5079489
		c-0.196785,0.6354389-0.7078743,1.086215-1.1237602,1.592927c-0.1653767,0.2220392-0.3312778,0.2221727-0.4977036,0.0009813
		l0.0002174,0.0004129c-0.1165485-0.1807175-0.2858868-0.3200483-0.4444733-0.4671688
		c-0.1948471-0.1807623-0.2006969-0.3585939-0.0061359-0.5404015c0.1685524-0.1426811,0.3268738-0.2938986,0.4504852-0.4726801
		c0.1044579-0.1657314,0.150177-0.371542,0.3736572-0.4560575c0.1514511-0.3001394,0.2880898-0.6059866,0.4222584-0.9130468
		c0.390892-0.7333364,0.2738991-1.499958,0.1454487-2.2567492c-0.0394173-0.2322187-0.04179-0.4884672-0.1937389-0.7012076
		l0.0001602,0.000236c-0.0843334-0.151494-0.1090717-0.3303223-0.250843-0.4554725
		c-0.198719-0.1488476-0.2480145-0.3794641-0.3734818-0.5683954c-0.1353836-0.2128105-0.3558979-0.3634984-0.4996262-0.5702195
		l0.0006313,0.0005629c-0.2264919-0.1311767-0.3916893-0.3322814-0.6247005-0.4560215
		c-0.2072487-0.114176-0.4596367-0.1595855-0.6230335-0.340575c-0.1357975-0.122098-0.321394-0.1039839-0.4869823-0.1432941
		c-0.0549011-0.0220239-0.1078758-0.0469775-0.1599579-0.0739725c-0.8853874-0.2652917-1.7811451-0.3120178-2.6884394-0.110065
		c-0.0517426,0.0227888-0.1043739,0.0450704-0.1564131,0.0675535C14.4157476,2.188581,14.1332235,2.1956081,13.9373531,2.4141555z"
		/>
	<path fill="#0D2412" d="M22.1726284,4.8068194c0.1588116-0.0790596-0.3793621-0.3696837,0.1252918-0.3437653
		c0.2790852-0.0139132,0.2631721,0.2120008,0.3493176,0.3557639c0.0607128,0.1988173,0.0710831,0.4076462,0.1456509,0.6042199
		c0.0508919,0.2751069,0.0697994,0.5500984-0.0028915,0.8249645c-0.0243282,0.0603423-0.0648575,0.1098108-0.1207314,0.148809
		c-0.2677612-0.1038394-0.2485638-0.3189058-0.2475224-0.5282025c0.0008507-0.1709428,0.0198002-0.3538318-0.2471275-0.3810954
		C21.9625607,5.2611299,21.9733582,5.0342035,22.1726284,4.8068194z"/>
	<path fill="#303030" d="M20.5504761,4.8069568c0.607336,1.0057244,0.6267738,2.0312228,0.1241608,3.0742807
		c-0.1268272-0.1520267-0.0835285-0.3036513,0.0012932-0.4551778L20.6758289,7.426199
		c0.1049995-0.6073194,0.1054821-1.2146306-0.0001526-1.8219342C20.4378853,5.3641353,20.6000843,5.0716963,20.5504761,4.8069568z"
		/>
	<path fill="#222222" d="M22.1726284,4.8068194c0.0006504,0.2269187,0.0013008,0.4538383,0.0019703,0.6807256
		c0.237257,0.9364476,0.1792545,1.8503928-0.2507133,2.7359495c-0.0199642-0.0222645-0.0399265-0.044528-0.0599442-0.0667696
		c0.0152073-0.1680808-0.0521221-0.3444052,0.0600529-0.502862l-0.0001717,0.0002589
		c0.2493229-0.7964587,0.0147934-1.5811934-0.0708942-2.3693051c-0.0223045-0.056437-0.0367718-0.1143765-0.0470409-0.173449
		c-0.0220699-0.1532598-0.0149841-0.3001609,0.1161499-0.4179411C22.0055676,4.7312245,22.089098,4.769022,22.1726284,4.8068194z"/>
	<path fill="#212121" d="M16.308279,2.1877122c-0.497077-0.2665235-0.9697971,0.0888772-1.4606571,0.0506873
		c-0.1758108-0.013679-0.3579082,0.0399168-0.537137,0.0628076c-0.0362568-0.2978349,0.3023415-0.0801113,0.3755417-0.2274048
		l0.0000706-0.000037c0.8759909-0.2362808,1.750186-0.2310398,2.6226072,0.016243
		c-0.0008392,0.0327542-0.0017033,0.0655191-0.0025692,0.098284C16.9735165,2.1880989,16.6408978,2.1879056,16.308279,2.1877122z"/>
	<path fill="#212121" d="M19.427702,9.5893259c-0.1432285,0.2094049-0.1559219,0.3991156,0.0683384,0.5796194
		c0.146389,0.1178255,0.3095551,0.2370834,0.3069248,0.4453249c-0.1537952-0.1210833-0.3057957-0.2441454-0.4617653-0.3628578
		c-0.3924751-0.2987213-0.3504963-0.5550804,0.0865726-0.7757006c0.038063,0.0252666,0.0507126,0.0505104,0.0380402,0.0757656
		C19.4531631,9.5766973,19.4404869,9.5893259,19.427702,9.5893259z"/>
	<path fill="#212121" d="M20.6756763,5.6042647c0.2044945,0.607296,0.2032547,1.2146063,0.0001507,1.8219323
		C20.6757774,6.8188877,20.6757278,6.2115765,20.6756763,5.6042647z"/>
	<path fill="#212121" d="M20.67593,7.4260597c-0.0004234,0.1517282-0.0008469,0.3034554-0.0012817,0.4551806
		c-0.2242565,0.2352719-0.2151051,0.592073-0.4981403,0.7967277C20.3041534,8.2477598,20.355938,7.7923555,20.67593,7.4260597z"/>
	<path fill="#303030" d="M19.4266853,3.2131054c0.2339134,0.1408992,0.4706421,0.2797453,0.4996319,0.5702043
		C19.697031,3.6390331,19.4594402,3.5008063,19.4266853,3.2131054z"/>
	<path fill="#303030" d="M18.8026161,2.7576468c0.3181343,0.0266118,0.4703083,0.2425761,0.6247063,0.4560099
		C19.1121635,3.1836448,18.9601059,2.9675488,18.8026161,2.7576468z"/>
	<path fill="#222222" d="M22.6692657,6.3968115c0.0029716-0.0388641,0.0059395-0.0777292,0.0089092-0.1165934
		c0.0444202-0.0343633,0.0932465-0.0621586,0.1471634-0.0827537c0.1197472-0.0255027,0.2311573-0.0115585,0.330471,0.0586953
		c-0.0364304,0.0861516-0.0728588,0.1723032-0.1092892,0.2584543c-0.0822582,0.0606947-0.164856,0.0690727-0.2479496,0.0013452
		c-0.0421219-0.0003161-0.0842476-0.0006332-0.1263695-0.0009503C22.6712208,6.4756093,22.6702423,6.4362106,22.6692657,6.3968115z"
		/>
	<path fill="#303030" d="M21.424221,9.0199461c-0.007019-0.2227316,0.0507565-0.4216948,0.2504559-0.568593
		c0.0964737,0.1142912,0.0814438,0.2276402-0.0034485,0.3404016C21.588892,8.8678179,21.5065556,8.943882,21.424221,9.0199461z"/>
	<path fill="#212121" d="M17.9316654,2.4149516c-0.2449207,0.0081327-0.4625244-0.0465188-0.6255264-0.2266655
		c-0.0000038,0.0000062,0.0005283-0.000751,0.0005283-0.000751c0.1248989-0.0856748,0.2495461-0.0749404,0.3740234,0.0008142
		l-0.00037-0.0001943C17.736805,2.2889488,18.0062313,2.1932027,17.9316654,2.4149516z"/>
	<path fill="#222222" d="M21.6712284,8.7917547c0.0011444-0.113471,0.0022888-0.2269421,0.0034409-0.3404083
		c0.0000076,0.0000067-0.0002747,0.0000563-0.0002747,0.0000563c0.1117039-0.0500927,0.0045452-0.2981243,0.2483788-0.2287188
		c0,0,0.0011024,0.0008011,0.0011082,0.0008059C21.9297829,8.4462833,21.8742943,8.6463413,21.6712284,8.7917547z"/>
	<path fill="#212121" d="M19.427702,9.5893259c0.0000877-0.0378704,0.0001125-0.0757418,0.0000706-0.1136131
		c0.0815601-0.1536283,0.2063236-0.2677603,0.3750706-0.341692C19.7925072,9.3644981,19.6280155,9.4892035,19.427702,9.5893259z"/>
	<path fill="#222222" d="M19.8027573,10.6138554c0.1661434,0.1041546,0.332056,0.1052485,0.4977131-0.0009623
		c-0.0140972,0.1216574-0.0647945,0.2120352-0.217783,0.2212038C19.9088955,10.844511,19.8155613,10.7724905,19.8027573,10.6138554z
		"/>
	<path fill="#303030" d="M20.2997932,4.3517203c0.2293797,0.0849638,0.2627277,0.2598424,0.250845,0.4554696
		C20.3884773,4.6913943,20.3230343,4.5312357,20.2997932,4.3517203z"/>
	<path fill="#303030" d="M17.9316654,2.4149518c-0.0837784-0.0756018-0.1675568-0.1512039-0.251339-0.2268012
		c0.2145252-0.0111017,0.4062004,0.0193162,0.4992599,0.2289023C18.0969448,2.4163649,18.0143051,2.4156582,17.9316654,2.4149518z"
		/>
	<path fill="#303030" d="M21.9235802,5.1484241c0.2679214,0.8352094,0.4015884,1.6704288,0.0002403,2.5056944
		c0.0000019-0.3014441,0.0000019-0.602891,0.0000019-0.9043374c-0.3778095,1.0863934-0.61022,2.2127662-1.451952,3.10922
		c-0.1585636,0.1688738-0.2238274,0.5293112-0.5876274,0.2993221c-0.3759575-0.2376776-0.0406799-0.4037018,0.1181889-0.5836535
		c1.5531464-1.7592635,1.646637-4.399745-0.0420609-6.2043881c-1.0861053-1.1606753-2.4802704-1.6621355-3.989399-1.8081183
		c-0.9150848-0.0885187-1.908411,0.2711076-2.7314186,0.781708c-0.9484816,0.5884454-1.6449623,1.3744013-2.1007576,2.336129
		c-0.0404167,0.0852766-0.0988379,0.1707735-0.0089636,0.272645c0.2720842-0.0678406,0.1450529-0.4390616,0.4361362-0.4872804
		c-0.0416241,0.189333-0.0832434,0.378664-0.1248627,0.5679946c-0.3111019,0.6954646-0.1873121,1.4390841-0.2862835,2.1581573
		c-0.1476402,0.1587749-0.3581247,0.2224369-0.5558701,0.3056893c-0.1728668,0.0574803-0.3501616,0.0755215-0.5322218,0.044003
		c-0.1314402-0.021255-0.2402573-0.0746403-0.2372093-0.2105346c0.0172758-0.7706499-0.1399746-1.5569773,0.239543-2.2961736
		c0.1416597,0.1181669,0.1453314,0.2633572,0.0959806,0.4175229c-0.1521778,0.4753857-0.0826178,0.9612999-0.0907927,1.3131742
		c-0.2003317-3.741519,3.1183577-6.1866798,6.9149714-5.7035966c0.2001057,0.068462,0.3785133,0.1977934,0.6098156,0.1797125
		c0.1587124,0.0066956,0.3162899,0.0187411,0.4660969,0.0721862c0.7120495,0.3423935,1.420887,0.6862046,2.0249577,1.186561
		c1.1770535,0.9749591,1.664259,2.2162538,1.715826,3.6928897C21.8492374,5.8027687,21.6292782,5.4515271,21.9235802,5.1484241z"/>
	<path fill="#313131" d="M18.0552387,1.3905952c-0.166378,0-0.332756,0-0.4991322,0
		c-0.1595516-0.0883729-0.3590813-0.1037821-0.4991302-0.2277517c-1.2368994-0.0370628-2.4627829-0.0279518-3.6076803,0.5044823
		c-1.3846397,0.6439271-2.43363,1.5853937-2.8773375,2.9533775c-0.2740068,0.8447862-0.6871281,1.7205281-0.2092772,2.6445255
		C9.9340677,7.3695893,9.9667664,7.123035,9.9405985,6.8924303c-0.0711746-0.6272192,0.1328068-1.2361856,0.1284666-1.8579278
		c-0.000001-0.0000014-0.0000391,0.0001073-0.0000391,0.0001073c0.085206-0.317615,0.2395744-0.6116486,0.3736057-0.9126167
		c0.5410137-1.4038382,1.6595221-2.280519,3.1191797-2.845788c1.1709881-0.4290826,2.3837509-0.4889897,3.6200237-0.341151
		l-0.0000744-0.0000325c0.2728958,0.1346463,0.5878124,0.1349226,0.8738365,0.2275872l-0.0002041-0.0001881
		c0.0838032,0.0636445,0.1932888,0.1151718,0.1383801,0.2443985C18.1421185,1.4401479,18.0956535,1.4367031,18.0552387,1.3905952z"
		/>
	<path fill="#313131" d="M18.0552387,1.3905952c0.0415936,0,0.083189,0,0.1247826,0
		c0.3731251-0.1855973,0.5920334,0.1240052,0.8752785,0.2270182c1.2585583,0.6535546,2.2180901,1.536213,2.618988,2.8468742
		c0.1372337,0.211566,0.1479397,0.4615378,0.2492924,0.6839943c0,0-0.0000019-0.0000558,0-0.0000567
		c0,0.3776383,0,0.7552786,0,1.2117057c-0.3179836-0.30444-0.3308144-0.6321769-0.3655682-0.9300718
		c-0.1716633-1.4713256-1.0113983-2.5293541-2.3232708-3.3527596C18.8483944,1.8348057,18.3420963,1.7667414,18.0552387,1.3905952z"
		/>
	<path fill="#0C240E" d="M22.422863,1.0495576c0.0831356-0.0006855,0.1662731-0.001371,0.2494106-0.0020565
		c0.1777477-0.1012693,0.373167-0.0365999,0.5596256-0.0498341c0.0626507,0.0175216,0.0974541,0.0564362,0.1038914,0.1159953
		c-0.2104931,0.2800015-0.6415977,0.2027245-0.8727894,0.4489522c-0.0753574,0.0723642-0.1476688,0.1473024-0.2192173,0.2228125
		c-0.0522194,0.0578235-0.1065655,0.113966-0.1578121,0.1725252c-0.2992725,0.3395568-0.2448044,0.6965359-0.0632076,1.0589629
		c0.1297646,0.1924098,0.3173923,0.335501,0.4972973,0.4851549c0.332655,0.2718887,0.6847267,0.3348565,1.0664616,0.0855355
		c0.1869354-0.1057081,0.3121223-0.3153768,0.5781498-0.2896836c0.1050606,0.0625887,0.1549339,0.1555359,0.1754913,0.2648358
		c-0.004652,0.0833783-0.0494404,0.148145-0.1134701,0.2037632c-0.2565613,0.0830884-0.1490593,0.2655439-0.1372337,0.4230523
		c-0.0985584,0.1702099-0.2869301,0.2058082-0.4623508,0.2621255c-1.0127926,0.1033969-1.4148483-0.1192832-1.8286171-1.0112357
		c-0.1118183-0.1795752-0.3005676-0.3308644-0.2514763-0.5696034c-0.1429977-0.54426-0.1578789-1.0633852,0.3471279-1.4811523
		c0.1331863-0.1214812,0.2637157-0.2468014,0.4367504-0.3242422C22.3613873,1.0598338,22.3921261,1.0546956,22.422863,1.0495576z"/>
	<path fill="#1C2318" d="M22.0483494,1.3911443c-0.4012833,0.4271706-0.5947952,0.912961-0.5013103,1.4797227
		c-0.1704388-0.3772175-0.2138958-0.7787223-0.2706146-1.177689c-0.0516567-0.0685419-0.052948-0.1416118-0.0243931-0.2175146
		c0.0877514-0.152293,0.1973381-0.2911909,0.3198357-0.4214218c0.0348301-0.0331012,0.0739384-0.0625693,0.1139908-0.0901605
		c0.0762177-0.0549901,0.1429329-0.1201982,0.213953-0.1812633c0.0804024-0.0572839,0.1745434-0.0734971,0.2734108-0.0752356
		c0.2538357,0.0102516,0.250742,0.176711,0.2496376,0.3419683c0.0000038,0.000007,0.0003834-0.0004027,0.0003834-0.0004027
		C22.2622719,1.1302747,22.1403866,1.2470844,22.0483494,1.3911443z"/>
	<path fill="#162315" d="M21.1696892,2.1719012c-0.0251026,0.2135482-0.0587292,0.4113474-0.362215,0.1933982
		c-0.4526634-0.3250806-0.9121914-0.6424385-1.3579712-0.9751632c-0.2301731-0.1717968-0.0251446-0.1972067,0.1161995-0.233091
		c0.0376682-0.0349445,0.08325-0.0546223,0.1368408-0.0594894c0.1077805,0.0053387,0.2038212,0.0444961,0.2996082,0.0851463
		c0.0480862,0.0203725,0.0928726,0.0457859,0.1358528,0.0739443c0.139801,0.1079894,0.2834854,0.2113962,0.4399986,0.299382
		c0.1295567,0.0873712,0.2292919,0.1960008,0.2857609,0.3346879C20.9163628,2.0288,21.0611935,2.0840318,21.1696892,2.1719012z"/>
	<path fill="#172217" d="M9.452652,8.2201729C9.4140978,8.178607,9.3755445,8.137043,9.3369913,8.0954781
		C9.0466366,7.7418699,9.0125074,7.3406,9.0730505,6.9211607C9.1103134,6.7634335,9.204566,6.6342096,9.319994,6.5158081
		c0.3426476,0.0490413,0.2471457,0.2972846,0.2458467,0.4830914c-0.0022306,0.3194427-0.0070686,0.632174,0.2509604,0.8872762
		C9.7501354,8.0124359,9.718627,8.1572704,9.5867844,8.2493382C9.5340939,8.2705088,9.4893284,8.2606764,9.452652,8.2201729z"/>
	<path fill="#222222" d="M21.7984924,3.4404631c0.4412212,0.5855861,0.9578915,1.0450649,1.8293629,0.9115047
		c0.0240974,0.0152192,0.0481949,0.0304389,0.0722561,0.0455508c0.0004997,0.0564137-0.0262184,0.0997443-0.0761642,0.1319656
		c-0.2970409,0.1553507-0.6914711-0.0467896-0.9585094,0.2183661c-0.0397434,0.0373168-0.0875797,0.0623102-0.1416779,0.0776014
		c-0.0752792-0.1207805-0.1505604-0.2415614-0.2258396-0.36237C22.1555519,4.1123853,21.6657639,3.9030273,21.7984924,3.4404631z"/>
	<path fill="#303030" d="M17.1818352,0.9350542c-1.2281046-0.075725-2.4337158,0.0472914-3.6200104,0.3411565
		c0.4890566-0.3002945,1.0497446-0.4419158,1.6177444-0.4412077C15.8455687,0.8358329,16.5283089,0.6937498,17.1818352,0.9350542z"
		/>
	<path fill="#012802" d="M9.5636415,8.2283583c0.0073843-0.1615515,0.0812683-0.2821326,0.2531881-0.3422399
		c0.0322227,0.0427999,0.0644741,0.0855427,0.0967255,0.1282849c0.1145411,0.0867662,0.164608,0.2104692,0.226675,0.3276243
		c0.0332909,0.1045847,0.0391855,0.2060165-0.0455437,0.2955503c-0.0177326,0.1278429,0.1714888,0.267725-0.0268955,0.3850584
		C9.7017612,9.0433817,9.638813,8.7674332,9.5139837,8.5518866C9.5176992,8.4425106,9.4793959,8.3275547,9.5636415,8.2283583z"/>
	<path fill="#66175C" d="M21.9450188,0.8226427c-0.0185051,0.0929108-0.0236111,0.1942387-0.160511,0.2127619
		c-0.7570705-0.0949625-1.5129929-0.1119198-2.2666073,0.0278095c-0.1297073-0.0316328-0.2448215-0.110095-0.1811981-0.2280456
		c0.1288433-0.2388765,0.3947296-0.0784667,0.5917854-0.1308584c0.5398827-0.0015016,1.079752-0.0029811,1.6196251-0.0044607
		C21.7110119,0.6584157,21.894083,0.5626763,21.9450188,0.8226427z"/>
	<path fill="#303030" d="M10.0730915,8.3337402C9.8762932,8.2868786,9.824563,8.1798115,9.9137106,8.0143089
		c0.0358715-0.1283722,0.0059891-0.2805753,0.1586123-0.3670487c0.2039137-0.1450582,0.4849567-0.1305456,0.688426-0.2771192
		c0.1938248-0.0581307,0.384079-0.0877976,0.5542269,0.0540094c0.0421371,0.0390406,0.0842752,0.0780811,0.1264095,0.1171398
		c0.0048161,0.0719228,0.009634,0.1438279,0.0144529,0.2157335c0.0497694,0.0740089,0.050107,0.1518226,0.021452,0.2317429
		C10.684659,7.6839771,10.4844055,7.7331915,10.0730915,8.3337402z"/>
	<path fill="#C808B3" d="M19.5179005,1.0632141c0.0309677-0.0893673,0.0527077-0.2124284,0.1698284-0.2137021
		c0.663105-0.0072115,1.3264751-0.0037345,1.9895554,0.0066585c0.0962296,0.0015082,0.0999851,0.1042358,0.1072254,0.1792384
		c-0.0334377,0.0088483-0.0669079,0.0175864-0.1004162,0.0262096c-0.6633034,0.0896137-1.336956-0.0443516-1.9987907,0.0770475
		c-0.0379524,0.0164958-0.077816,0.0226246-0.1195984,0.0183829C19.5515194,1.1250252,19.5355854,1.093748,19.5179005,1.0632141z"/>
	<path fill="#303030" d="M19.0552998,1.6176134c-0.3113632-0.012728-0.5453453-0.273921-0.8752785-0.2270182
		c-0.0415421-0.076055-0.0830841-0.15211-0.1246281-0.2281696C18.4591866,1.1851945,18.8018875,1.3197273,19.0552998,1.6176134z"/>
	<path fill="#303030" d="M10.4426317,4.1219931c0.0011024,0.3470402-0.2043047,0.6236725-0.3736038,0.9126167
		C10.0412188,4.6784644,10.1829405,4.3801179,10.4426317,4.1219931z"/>
	<path fill="#303030" d="M18.0555973,1.1626089c-0.315321,0.0010213-0.6408958,0.0348252-0.8738365-0.2275866
		C17.4990616,0.9276748,17.8003368,0.9715685,18.0555973,1.1626089z"/>
	<path fill="#113817" d="M10.691659,7.425529c-0.1604385,0.1809711-0.3784285,0.2281437-0.6193686,0.2218075
		c-0.0021191-0.0354228-0.0039616-0.0707831-0.0055275-0.106142c0.1314116-0.1673002,0.3271971-0.1023517,0.5013065-0.1156507
		C10.6092596,7.3836641,10.6504564,7.3816361,10.691659,7.425529z"/>
	<path fill="#621752" d="M21.1696892,2.1719012c-0.1508045-0.0309784-0.4196014,0.1090796-0.3699169-0.2125267
		c0.057785-0.0645065,0.1338463-0.0867251,0.2224083-0.0802428c0.0540771,0.0146229,0.1028671,0.0382816,0.1455059,0.0722281
		C21.168354,2.0248737,21.1690235,2.0983872,21.1696892,2.1719012z"/>
	<path fill="#303030" d="M21.9235802,5.1484818c-0.1833858-0.1975508-0.2392216-0.4338193-0.2492962-0.6839857
		c0.0825977,0.0763021,0.1651936,0.1526122,0.2477703,0.2289262C21.9225521,4.8451118,21.9230652,4.9967971,21.9235802,5.1484818z"
		/>
	<path fill="#303030" d="M9.319994,6.5158081C9.3169804,6.6384521,9.3383102,6.7670436,9.218668,6.8611913
		c-0.1798191-0.0523062-0.3603811-0.103179-0.5073376-0.2189131C8.7067051,6.6001687,8.7020807,6.5580606,8.6974669,6.5159645
		C8.9049835,6.5159211,9.1124897,6.5158644,9.319994,6.5158081z"/>
	<path fill="#C808B3" d="M21.1676846,1.9513599c-0.0421028-0.0024227-0.0842037-0.0048454-0.1263065-0.007268
		C20.9051342,1.68729,20.93993,1.5151458,21.3022633,1.5051205c-0.008585,0.062732-0.01717,0.1254637-0.0257988,0.1881266
		C21.2401791,1.7792389,21.2039318,1.8652996,21.1676846,1.9513599z"/>
	<path fill="#05250B" d="M24.2949562,3.5544889c-0.1108379-0.0567894-0.1257763-0.1563256-0.1376648-0.2572203
		c-0.0345821-0.1723199,0.1136475-0.275099,0.1838284-0.4078164c0.3304577-0.5276036,0.0394592-0.903782-0.3655167-1.2512832
		c-0.0453644-0.0267915-0.088625-0.0564281-0.1314659-0.0861992c-0.1619473-0.1542255-0.4650097-0.1467115-0.5465069-0.3938205
		c-0.0006504-0.0363343-0.0011292-0.0726702-0.00144-0.109008c0.0823421-0.0643525,0.1653862-0.0654835,0.2491474-0.0023102
		c0.2164402-0.0146817,0.3249283,0.1673775,0.4998245,0.2284079c0.3006306-0.0473577,0.410059,0.1347078,0.4963665,0.3445164
		c0.3422775,0.5680771,0.5160332,1.1362553,0.0012264,1.7048457C24.458952,3.4001489,24.5299416,3.6146574,24.2949562,3.5544889z"/>
	<path fill="#232323" d="M24.2949562,3.5544894c0.0826111-0.0766156,0.1652203-0.1532314,0.2478123-0.2298672
		c0.1920242,0.2868402-0.0649509,0.625315,0.125906,0.9123049c-0.1938667-0.0184221-0.2416801,0.1553912-0.3644199,0.2305889
		c-0.1338234-0.0707612-0.1422825-0.196692-0.1669998-0.3153133c-0.0271702-0.1629691-0.0466881-0.3257563,0.0345745-0.4824898
		C24.2128696,3.6313045,24.2539139,3.5928965,24.2949562,3.5544894z"/>
	<path fill="#232323" d="M24.5415287,1.6197556c-0.1654606-0.1148264-0.3309193-0.2296535-0.4963722-0.3444985
		c0.022316-0.1172707,0.0836449-0.269688,0.2182274-0.1535623C24.4048195,1.2437339,24.7921715,1.3012155,24.5415287,1.6197556z"/>
	<path fill="#1C2318" d="M23.5453377,1.0468313c-0.0830517,0.0007687-0.1660995,0.0015373-0.2491474,0.002308
		c-0.2079754-0.0005345-0.4159527-0.0010713-0.6239223-0.001623C22.963131,0.8705257,23.2541523,0.8710197,23.5453377,1.0468313z"/>
	<path fill="#232323" d="M21.9450188,0.8226427c-0.0985394-0.1318816-0.2554092-0.1066024-0.3969135-0.1227435
		c0.0938339-0.1236257,0.2374992-0.1033568,0.3726444-0.1075976c0.1032963,0.0034654,0.1980152,0.0226473,0.25247,0.1152779
		C22.1260319,0.7936344,22.0414047,0.8178493,21.9450188,0.8226427z"/>
	<path fill="#A50D86" d="M23.1558094,6.2561593c-0.1165237,0.0083966-0.2330475,0.0167928-0.3495731,0.0251899
		c-0.1452255-0.2736969-0.0391083-0.5634985-0.0649738-0.8444791c0.2401791-0.1786647,0.2377033,0.0458508,0.306303,0.1525526
		c0.0226612,0.1548963-0.042675,0.3272018,0.1056938,0.4588685c0.0086517,0.0415721,0.0173054,0.0831432,0.0259666,0.1247163
		C23.1597862,6.1979942,23.1519775,6.2257109,23.1558094,6.2561593z"/>
	<path fill="#17221A" d="M22.7985706,6.5159593c0.0826511-0.0004449,0.1652985-0.0008898,0.2479496-0.0013399
		c0.0866356,0.0655098,0.1353378,0.1539698,0.0043564,0.1979694C22.8745308,6.7718291,22.8117847,6.658412,22.7985706,6.5159593z"/>
	<path fill="#F801E8" d="M24.0402908,4.5739942c-0.0434113,0.0396662-0.0868263,0.0793324-0.1302376,0.1189981
		c-0.1946144,0.2483797-0.289669,0.5480194-0.4904041,0.7932472c-0.0254059,0.0297084-0.0587578,0.0444221-0.10005,0.0441422
		c-0.1106548-0.0335331-0.2693577,0.0667968-0.3325176-0.0997357c0.1311932-0.3175974,0.1696548-0.6816096,0.5332737-0.8820286
		c0.11516-0.0203838,0.2145748-0.0707412,0.3076859-0.1336975C23.9516411,4.4092474,24.0723934,4.4068804,24.0402908,4.5739942z"/>
	<path fill="#F601EB" d="M23.0471802,5.4902639c0.0979767-0.027184,0.2059078-0.110671,0.272419,0.0401154
		c-0.0554485,0.1726456-0.1108971,0.3452883-0.1663437,0.5179219c-0.2940903,0.0044818-0.2144756-0.1850438-0.2093735-0.3358846
		C23.0058365,5.649024,22.9577732,5.5430255,23.0471802,5.4902639z"/>
	<path fill="#E604CD" d="M23.4196491,5.4862394c0.0839233-0.3053684,0.1931324-0.5977173,0.4904022-0.7932434
		c-0.0344601,0.1142936-0.0689201,0.228591-0.1033821,0.3428884c-0.0434513,0.0752397-0.0869045,0.1504798-0.1303558,0.2257166
		C23.5862503,5.3321891,23.5787735,5.4813647,23.4196491,5.4862394z"/>
	<path fill="#721560" d="M24.1696053,4.1240749c0.1504993,0.0800018,0.1332836,0.2147169,0.1345844,0.3434272
		c-0.0497646,0.0319214-0.0995941,0.0638285-0.1494236,0.0957355c-0.069437-0.1772184-0.2700882-0.1314044-0.4044952-0.1981888
		c-0.0416107,0.0031805-0.0822525-0.0011792-0.1221695-0.0130801c0.1444874-0.0690346,0.2892227-0.1380687,0.4339561-0.2071023
		C24.0851059,4.0827928,24.1215878,4.0785885,24.1696053,4.1240749z"/>
	<path fill="#C608AF" d="M23.7502708,4.3650494c0.1631908,0.0178804,0.4090462-0.1047449,0.4045086,0.1981969
		c-0.0381603,0.0035744-0.0763073,0.0071573-0.1144714,0.0107436c-0.046608-0.0824265-0.1271935-0.098948-0.2188511-0.0940022
		c-0.0646496,0.0409694-0.1215782,0.0334229-0.1707859-0.0226364C23.6838703,4.4265842,23.7170715,4.3958168,23.7502708,4.3650494z"
		/>
	<path fill="#212121" d="M11.0670166,7.1949921c0.0311604-0.7340178-0.0529671-1.4846516,0.3740959-2.1616187
		c-0.1425095,0.7168126-0.1339636,1.4408588-0.124258,2.1649599C11.2324619,7.2665353,11.1492996,7.2580986,11.0670166,7.1949921z"
		/>
	<path fill="#132F18" d="M11.0670166,7.1949921c0.0832806,0.0011129,0.1665602,0.0022268,0.2498398,0.0033402
		c-0.0006123,0.0752892-0.0012217,0.1505761-0.0018559,0.2258415c-0.2077856,0.0004406-0.4155464,0.0009036-0.6233244,0.0013614
		c-0.0000172-0.0000062-0.0618105,0.0002613-0.0618105,0.0002613s-0.0617943-0.0002422-0.0617952-0.0002475
		C10.6951866,7.2780442,10.8705158,7.2174401,11.0670166,7.1949921z"/>
	<path fill="#303030" d="M14.6860266,2.0738022c-0.1251707,0.075804-0.2503424,0.151608-0.3755283,0.2274084
		c-0.1243906,0.0376563-0.2487698,0.0753162-0.3731451,0.1129606C14.0407724,2.0329828,14.3831711,2.0896142,14.6860266,2.0738022z"
		/>
	<path fill="#303030" d="M13.3136301,2.6426723c0.0947313-0.207129,0.2856464-0.2380273,0.4994392-0.2270172
		C13.6852531,2.5621629,13.5120773,2.6255729,13.3136301,2.6426723z"/>
	<path fill="#FE00ED" d="M7.6717486,9.7029972c0.0198922-0.0354805,0.0397849-0.070962,0.0596781-0.1064434
		C8.2506227,9.2304449,8.7944822,9.14534,9.3755026,9.4759817c0.1552839,0.0791502,0.2739,0.1865892,0.3237419,0.3473663
		c0.1948023,0.363122,0.2163124,0.7356367,0.0733776,1.1173458c-0.4769058,0.571558-1.0550318,0.8168402-1.8165946,0.4672155
		c-0.1545997-0.0735073-0.2773185-0.1777086-0.3632202-0.316947C7.369267,10.683444,7.3483152,10.2722492,7.5669661,9.8569221
		C7.5983815,9.8037148,7.6334119,9.7524157,7.6717486,9.7029972z"/>
	<path fill="#222120" d="M9.583272,8.554925c0.1615162,0.1558847,0.3230333,0.3117695,0.4845343,0.4676828
		c-0.0422211,0.3005629,0.2169571,0.4776678,0.3493214,0.7061253c0.2471771,0.4266214,0.5001535,0.8504448,0.7507172,1.2754316
		c-0.1882029,0.0034122-0.3688412,0.0440207-0.5479031,0.0930252c-0.0231428-0.013216-0.0461969-0.026659-0.069252-0.0401011
		c-0.1061153-0.9565821-0.7363062-1.6629457-1.360055-2.372386C9.3018494,8.5918951,9.4612646,8.6205368,9.583272,8.554925z"/>
	<path fill="#162317" d="M7.6788192,11.1115055c0.0732789,0.0691872,0.1465583,0.1383743,0.2198381,0.2075615
		c0.4357257,0.2866192,0.9310699,0.1713591,1.4089122,0.1740704c-0.1445313,0.3880243-0.5101318,0.2650995-0.7900314,0.2517338
		c-0.8079638-0.0385847-1.5151238-0.9462271-1.2819986-1.6221619C7.3026953,9.92799,7.3851533,9.7200565,7.6717477,9.7029972
		c0.0148554,0.0302534,0.0198565,0.0618067,0.0150046,0.0946617C7.3691301,10.234024,7.4150057,10.6722164,7.6788192,11.1115055z"/>
	<path fill="#E504D0" d="M9.3075705,11.4931383c-0.4979477,0.1330204-0.9937887,0.2518597-1.4088545-0.1740818
		c0.6612148,0.1285591,1.3124437,0.218852,1.7802715-0.3893166c0.0210295,0.0163898,0.042058,0.0327787,0.0631371,0.0491657
		c0.0247183,0.0780153,0.0175486,0.1480169-0.0604773,0.2001753C9.5569553,11.2837667,9.4322634,11.3884525,9.3075705,11.4931383z"
		/>
	<path fill="#D706C5" d="M9.3400183,9.5798025c-0.540144-0.3100729-1.0737429-0.0966597-1.6085916,0.0167513
		c0.072145-0.0782557,0.1442904-0.1565123,0.2164354-0.2347679c0.4444766-0.2832117,0.8996692-0.2305765,1.3594518-0.0361567
		C9.3869648,9.4029837,9.4004364,9.487443,9.3400183,9.5798025z"/>
	<path fill="#FD00CC" d="M9.6789875,10.92974c0.0127516-0.3836441,0.0712414-0.7704029-0.0934048-1.141963
		c0.0925226-0.0305233,0.1806574-0.050415,0.210001,0.0721693c0.0457878,0.0617123,0.0915756,0.1234236,0.1373653,0.1851358
		c0.1057005,0.3439035,0.1945028,0.684597-0.2124357,0.9310913C9.7083063,10.9594774,9.6944647,10.9439993,9.6789875,10.92974z"/>
	<path fill="#162317" d="M9.3104048,9.3667383C8.8571081,9.1625967,8.4026241,9.2301779,7.9478621,9.3617859
		C8.040391,9.1505728,8.2431374,9.1296387,8.4516926,9.1187344C8.5318298,9.0603704,8.612463,9.0596123,8.6935968,9.1169987
		c0.2753906,0.0140467,0.552063,0.0246754,0.7535057,0.2356482C9.4067354,9.3993492,9.3611698,9.4040451,9.3104048,9.3667383z"/>
	<path fill="#311E2F" d="M9.7205133,10.9761734c0.3018694-0.2664547,0.1732445-0.6147165,0.2124443-0.9310875
		c0.2592506,0.441308,0.2138863,0.8263998-0.2513084,1.1340027C9.694602,11.1114454,9.7075577,11.0438099,9.7205133,10.9761734z"/>
	<path fill="#311E2F" d="M9.3104048,9.3667393c0.0455542-0.0046349,0.0911074-0.0092707,0.1366796-0.013998
		c0.1886024,0.1275473,0.4018412,0.2410803,0.3485117,0.5071726C9.7255764,9.835886,9.6555691,9.8118267,9.5855732,9.7877722
		C9.5353785,9.6873236,9.4592905,9.6123228,9.3400097,9.5798063C9.3301477,9.5087814,9.3202763,9.4377594,9.3104048,9.3667393z"/>
	<path fill="#042606" d="M8.6935968,9.1169977c-0.0806475,0.0006618-0.161293,0.0013227-0.2419224,0.0018597
		c0.0038481-0.0947371-0.260438-0.0540571-0.1290016-0.2130623c0.2074566-0.0847301,0.4149847-0.0839472,0.6225834-0.0004416
		C8.9824972,8.9126034,9.0322561,8.908596,9.0545759,8.929266c0.0611067,0.0565863,0.0068665,0.081871-0.0478525,0.0862303
		C8.891674,9.0246639,8.7754545,9.0248184,8.6935968,9.1169977z"/>
	<path fill="#311E2F" d="M9.583272,8.554925C9.4911098,8.6956816,9.3359241,8.6775236,9.1906853,8.6846409
		c-0.0874634-0.007576-0.1748762-0.015213-0.2623806-0.0229445c0.1833181-0.1386919,0.630497-0.0163317,0.5243034-0.4415073
		C9.4897223,8.2225304,9.526763,8.2252245,9.5637083,8.2283077C9.5701847,8.3372135,9.5767279,8.4460697,9.583272,8.554925z"/>
	<path fill="#222120" d="M10.3254957,11.613905c-0.032979-0.1597719,0.0431499-0.2946882,0.1176033-0.429986
		c0.0359077-0.0422487,0.0718212-0.0844994,0.1076632-0.1267891c-0.0000725-0.000041,0.0232639,0.0170317,0.0232639,0.0170317
		c0.0750914,0.0679064,0.1068153,0.151825,0.1100807,0.2465906c-0.0317745,0.1969595-0.1025934,0.3591166-0.3714657,0.3413944
		L10.3254957,11.613905z"/>
	<path fill="#132315" d="M8.9452562,8.9053535c-0.2075329,0.0001526-0.4150658,0.0003033-0.622591,0.0004492
		C8.5300579,8.7377939,8.737586,8.7378969,8.9452562,8.9053535z"/>
	<path fill="#F501DC" d="M11.316143,10.2852879c-0.1713371-0.2580814-0.3426752-0.5161638-0.5140133-0.7742453
		c-0.1263161-0.2735062-0.2881241-0.5310955-0.4298553-0.7977114c-0.2695284-0.5070171-0.4862843-0.7952728,0.3948622-0.9826121
		c0.1383972,0.031189,0.2078085,0.1130662,0.2132254,0.2417865c-0.21278,0.2490578-0.2204905,0.498744-0.0525751,0.7806854
		c0.186924,0.3138599,0.3651018,0.6304274,0.5884132,0.9254179c0.1501513,0.19835,0.3211508,0.34202,0.6051502,0.3150396
		c0.1151714,0.0559025,0.2733831-0.0298872,0.3702469,0.0912981c0.0525284,0.2552557-0.206686,0.3513269-0.3193293,0.5221863
		l0.0062742-0.0078564c-0.1296387,0.2445927-0.3014431,0.2129002-0.4898214,0.061161
		C11.5493078,10.5481424,11.4275265,10.4209356,11.316143,10.2852879z"/>
	<path fill="#E904CE" d="M10.8276291,7.777585c-0.6367979,0.0884104-0.6761408,0.3939228-0.4117002,0.8604326
		c0.1567307,0.276495,0.3907776,0.5337343,0.3862095,0.8729858c-0.3624105-0.2057304-0.273406-0.7159872-0.7074537-0.8734274
		c-0.0071936-0.1012611-0.014389-0.2025251-0.0215893-0.303812c-0.1693583-0.6233168,0.4216175-0.5583115,0.7726326-0.7137952
		c0.4482317-0.198545,0.4326,0.2029753,0.5936375,0.376452c0.1428118,0.1313419,0.1617241,0.3283901,0.2959461,0.4644899
		c0.0315418,0.1496792,0.21138,0.2685032,0.1111555,0.4454737c-0.0497351,0.0320969-0.104764,0.0436106-0.1649427,0.0349798
		c-0.3361158-0.2038202-0.4132204-0.5551653-0.5840092-0.8528748C11.0804787,7.9326925,10.9778967,7.8380337,10.8276291,7.777585z"
		/>
	<path fill="#24211E" d="M12.1722679,10.6071329c0.0225668-0.219388,0.3206835-0.3095465,0.3073416-0.5457754
		c0.0064335-0.0449638,0.0134144-0.0898581,0.0198689-0.13482c0.0214911-0.2192211-0.2918978-0.3460846-0.1940174-0.586236
		c0.0514698-0.0301409,0.0981283-0.0249023,0.14007,0.0153322c0.122818,0.0771914,0.245636,0.1543818,0.3684502,0.2315397
		C12.9080343,10.0884981,12.6097488,10.3842821,12.1722679,10.6071329z"/>
	<path fill="#DB05C6" d="M10.5735769,11.2997971c0.0001488-0.0752125,0.0002975-0.150425,0.0004473-0.2256365
		c0.1642952-0.26089,0.3529568-0.3498163,0.5938416-0.0700426c0.1749172,0.1736307,0.3498554,0.3472147,0.5247927,0.5207996
		c-0.0225639,0.0156813-0.0451269,0.0313635-0.0676327,0.0472298c-0.1057539,0.0249739-0.2258072,0.0167665-0.284586-0.0561304
		C11.1384516,11.2655191,10.8569288,11.2881927,10.5735769,11.2997971z"/>
	<path fill="#222120" d="M11.316143,10.2852879c0.3113375,0.050149,0.4005194,0.608345,0.8624277,0.3140354
		C11.8688068,10.9755249,11.6400585,10.8922405,11.316143,10.2852879z"/>
	<path fill="#F601EF" d="M11.8143044,11.5515814c0.1544724,0.3759289-0.1348848,0.3149891-0.3669338,0.3104591
		c-0.0434942-0.0287724-0.0669413-0.0676212-0.070509-0.1166c0.0228739-0.1582384,0.1657686-0.1551933,0.2887621-0.1789217
		c0,0,0.0270147-0.0416079,0.0270243-0.041605C11.7332067,11.5338049,11.773756,11.5426922,11.8143044,11.5515814z"/>
	<path fill="#C00AA9" d="M15.3143444,4.7987719c0.1895943,0.6413426,0.0719156,1.2952361,0.0760403,1.9419765
		c0.0038996,0.6118922,0.1015797,1.2299743-0.0594807,1.8384418c-0.1484308,0.0422421-0.1895657-0.0536852-0.2322807-0.1489611
		c-0.1538992-1.1016631-0.0969152-2.205791-0.0423117-3.3103943C15.0992327,4.9840598,15.1717463,4.8678031,15.3143444,4.7987719z"
		/>
	<path fill="#A20E8F" d="M15.1779737,8.4852419c0.0509424,0.0312843,0.1018848,0.0625677,0.1528769,0.0939007
		c-0.3249607,0.2510738-0.7065392,0.1272726-1.055933,0.1005135c-0.2719555-0.0208282-0.2148628-0.2774334-0.2147045-0.4582071
		c0.0007343-0.8425145,0.0060339-1.6850257,0.0097313-2.5275974c0.0386572-0.0298858,0.0772867-0.0597124,0.1159134-0.0895395
		c0.0256462,0.024363,0.0512896,0.0487251,0.0773611,0.0728211c0.2039852,0.7834077,0.0476027,1.5792494,0.0977173,2.3664393
		c-0.0203905,0.4500389,0.3090611,0.3668852,0.6087408,0.3291044C15.0610266,8.3767872,15.1437817,8.3939991,15.1779737,8.4852419z"
		/>
	<path fill="#E305D6" d="M15.3143444,4.7987714c-0.0411034,0.0803351-0.0822058,0.1606693-0.1233082,0.241004
		c-0.1040201-0.0313473-0.1742401-0.1002321-0.2373133-0.1773133c-0.0093298-0.0220819-0.0181684-0.0444493-0.0270071-0.0668163
		c0.0840635-0.033339,0.168128-0.066678,0.2521744-0.1000137C15.2240324,4.7300134,15.2691889,4.7643924,15.3143444,4.7987714z"/>
	<path fill="#F601E8" d="M8.2004023,8.4549093C8.0256433,8.4552069,7.9532619,8.3633099,7.9422436,8.2161541
		c0.0515466-0.0726223,0.1030931-0.1452417,0.1546392-0.2178626C8.4098244,7.708715,8.4881353,7.2843361,8.7927542,6.9893999
		c0.3638544-0.025104,0.2352304,0.2357788,0.2775803,0.3974109C9.0690804,7.5794253,9.1568022,7.7651401,9.1260557,7.9603977
		C9.0619974,8.130969,8.9140348,8.2093163,8.7363052,8.2542782c-0.1836405,0.052228-0.3561497,0.1337461-0.5430651,0.1787415
		L8.2004023,8.4549093z"/>
	<path fill="#ED02D1" d="M8.8197298,7.0818129C8.5753613,7.3850508,8.6006269,7.865406,8.0968847,7.9982791
		c0.10326-0.3709197,0.3266897-0.6818752,0.5846634-0.9755907C8.7436533,7.011168,8.7897139,7.0308757,8.8197298,7.0818129z"/>
	<path fill="#781566" d="M8.7113304,6.6422782c0.2192554-0.0239358,0.4520788-0.0740447,0.5072021,0.2189107
		C9.1259794,7.283174,9.3442316,7.6803408,9.3369732,8.0954914C9.3190327,8.1102266,9.3010654,8.1249676,9.2830915,8.139699
		c-0.059618-0.0116405-0.10674-0.0403566-0.1414461-0.0859852C9.1313648,7.8409939,8.9950428,7.6502433,9.0105696,7.4330597
		C9.009202,7.1840096,9.0688658,6.9147577,8.7494173,6.7697153C8.736722,6.7272358,8.7240267,6.6847572,8.7113304,6.6422782z"/>
	<path fill="#C908B4" d="M8.7494173,6.7697153c0.591383,0.0269876,0.2221613,0.4343863,0.3135395,0.6593819
		C9.0195971,7.4792271,8.9840174,7.4726224,8.9551897,7.4167891C8.8975868,7.3093414,9.0680809,7.1250787,8.8197422,7.0818353
		C8.7735929,7.0620346,8.727457,7.0422564,8.6814346,7.022583C8.5868034,6.9121399,8.7291269,6.8545609,8.7494173,6.7697153z"/>
	<path fill="#D307B5" d="M18.4030361,8.5461674c-0.0319996,0.0093031-0.0647678,0.0147343-0.0983067,0.0162954
		c-0.0564499-0.0443926-0.096674-0.0987797-0.1217346-0.1628532c-0.0348301-0.0958385-0.0486565-0.19452-0.0474453-0.2951088
		c-0.011034-0.9493928,0.0032959-1.8990068-0.0101185-2.8471584c0.0022869-0.2599077-0.1823864-0.3061395-0.4144955-0.297327
		c-0.2578773-0.0014014-0.5150051,0.0054379-0.7726231,0.0020127c-0.1714935-0.0106444-0.3449364-0.0156708-0.4808769-0.1324883
		c-0.0061607-0.0354018-0.0110741-0.0709472-0.0147171-0.1065521c0.493248-0.0141559,0.9871044-0.018733,1.4794903-0.0456924
		c0.3941917-0.0215826,0.4876995,0.1529937,0.4837246,0.4793711C18.3921757,6.2863698,18.4021168,7.4163146,18.4030361,8.5461674z"
		/>
	<path fill="#FE00CE" d="M14.9551105,8.4697657c-0.3151493,0.0812435-0.7009964,0.3452101-0.7567921-0.2438612
		c0.084137-0.8746953,0.0948458-1.749269-0.0051985-2.6236606c0,0-0.0072432,0.002068-0.0072527,0.002068
		c-0.0873756-0.2174139-0.289628-0.2218566-0.4941912-0.2220116c-0.1582279-0.1926565-0.1605844-0.385129,0.0008202-0.5774069
		c0.4114656-0.0030069,0.8229313-0.0060139,1.2343073-0.0091343c-0.0000877-0.0001135,0.0119591,0.0199881,0.0119591,0.0199881
		c0.0856133,0.0908689,0.1208506,0.1995115,0.1158056,0.3157134C15.0062838,6.2438645,15.1820602,7.3618588,14.9551105,8.4697657z"
		/>
	<path fill="#FE00F5" d="M13.6924982,4.804893c-0.0002966,0.1924324-0.000596,0.3848648-0.0008564,0.5773525
		C13.3226452,5.1893945,13.3072815,4.9969068,13.6924982,4.804893z"/>
	<path fill="#182315" d="M11.8348236,8.8999662c-0.052496-0.1400251-0.104991-0.2800512-0.1574869-0.4200764
		c-0.0475454-0.0592327-0.0385704-0.1101751,0.0269175-0.1528273c0.1850767,0.1989355,0.2974319,0.4319143,0.3812284,0.6782598
		c-0.0245342,0.0137892-0.0490656,0.0275793-0.0736141,0.0413933C11.9171677,9.0336523,11.8563375,8.986557,11.8348236,8.8999662z"
		/>
	<path fill="#212121" d="M11.7042542,8.3270626c-0.0089607,0.0509167-0.0179214,0.1018353-0.0268993,0.1527891
		c-0.148694-0.1326685-0.2125139-0.3001614-0.2379761-0.4834065c0.0054169-0.0797744,0.0108461-0.1595254,0.016367-0.2393484
		C11.5386438,7.9470363,11.6214495,8.1370497,11.7042542,8.3270626z"/>
	<path fill="#182315" d="M12.4455309,9.3556337c-0.0431204,0.0020266-0.0862389,0.0040522-0.1293602,0.0060787
		c-0.0476179,0.0379543-0.1010637,0.0447855-0.1597328,0.0251026c-0.1305294-0.0891523-0.2041731-0.1945868-0.1177893-0.3453636
		c0,0,0.0466013-0.0359592,0.0467176-0.0360441C12.2054987,9.1220932,12.3255138,9.238863,12.4455309,9.3556337z"/>
	<path fill="#C909AD" d="M17.1739311,5.6162562c0.0022812-0.0410471,0.0045624-0.0820937,0.0068436-0.1231408
		c0.1475925-0.0240321,0.1985569,0.0705476,0.2481518,0.1673813c0.1078186,0.8156271,0.0287457,1.634573,0.0476074,2.4519386
		c-0.0040073,0.1347122-0.0133152,0.2686939-0.0867367,0.3905153c-0.0415134,0.067008-0.1015358,0.0854282-0.1794472,0.0553102
		C17.1982098,7.5775924,17.1860714,6.5969248,17.1739311,5.6162562z"/>
	<path fill="#B90AA0" d="M17.21035,8.5582609c0.0369682,0.0008497,0.0738888-0.0000257,0.1107616-0.0026245
		c0.0719566-0.0563087,0.1523972-0.0972147,0.2462406-0.1142254c0.2430153-0.0119781,0.4847565-0.0799799,0.7302303-0.0186911
		c0.0023823,0.0465946,0.0047626,0.0931883,0.0071449,0.1397629c-0.3511524,0.2171316-0.728941,0.1101236-1.1007118,0.075141
		C17.2008286,8.6107054,17.2029133,8.5843077,17.21035,8.5582609z"/>
	<path fill="#FA01ED" d="M11.6656237,11.5665188c-0.0750132,0.062932-0.1500263,0.125865-0.2250395,0.188797
		c-0.0479355,0.1104469-0.3363466-0.2607346-0.2560749,0.1064825c-0.2872496-0.0788193-0.6726971,0.1994934-0.8718691-0.1996517
		c0.1536913-0.0807829,0.2472324-0.1976376,0.2609386-0.36236c0.2691069-0.2386427,0.5109921-0.2937737,0.7480564,0.0492067
		C11.3901243,11.448081,11.5484715,11.4954433,11.6656237,11.5665188z"/>
	<path fill="#FE00D0" d="M11.1845093,11.8617983c-0.0195827-0.0320311-0.0440655-0.0624027-0.0578785-0.096386
		c-0.0527887-0.1298819-0.4459171-0.157074-0.1941347-0.3541708c0.1943007-0.1520967,0.275794,0.1135654,0.3846807,0.2255917
		c0.0395927,0.0407352,0.0821991,0.07903,0.1234188,0.1184607c0.0006418,0.0357151,0.0028629,0.0713272,0.006712,0.1068029
		C11.3597498,11.8619604,11.27213,11.8618793,11.1845093,11.8617983z"/>
	<path fill="#FE00CD" d="M17.3096733,5.604424c-0.0429611-0.0371218-0.0859241-0.0742435-0.128891-0.1113367
		c-0.0830021-0.0384431-0.1659927-0.0769153-0.2489853-0.115387c-0.187706-0.1854095-0.3378849-0.3712168-0.0071812-0.5621419
		c0.2952518,0.0000267,0.5905056,0.0000529,0.8857574,0.0000796c0.1134033,0.0947471,0.2223034,0.192307,0.2551212,0.3378305
		c0.0802784,0.8800068,0.0288754,1.7616754,0.0307274,2.6427884c0.0003185,0.1513753-0.02742,0.2999678-0.1515598,0.4148951
		c-0.2590981,0.0625963-0.2723885-0.1370344-0.2761192-0.2619801c-0.0229607-0.768744-0.1018143-1.5395169,0.045681-2.3054442
		c0.0071392-0.0370784,0.0263271-0.0710535,0.0266685-0.1068807c-0.004879,0.0109906-0.0097618,0.0219803-0.0174599,0.0396991
		c-0.0217037,0.0451894-0.0520115,0.0734444-0.0974522,0.0933666c-0.0565014,0.0153971-0.1101322,0.0193-0.16642,0.0136209
		C17.4020519,5.6670632,17.3526936,5.6406808,17.3096733,5.604424z"/>
	<path fill="#FE00EF" d="M16.9246159,4.8155584c-0.1683311,0.1891913-0.0070324,0.3748679,0.0071888,0.5621271
		c-0.6385384,0.1634345-0.4682732-0.2561169-0.474493-0.5482569C16.613163,4.8248796,16.7688885,4.820219,16.9246159,4.8155584z"/>
	<path fill="#ED02D1" d="M9.2109041,8.0977211C9.2378969,8.1075296,9.2619934,8.1214972,9.283143,8.1396618
		c0.0400152,0.1838417,0.0446177,0.3754654-0.2438946,0.2983627C8.7492371,8.3605213,8.474638,8.4271965,8.1932411,8.4330587
		c0.1392651-0.1282797,0.3098736-0.1943636,0.50488-0.2120647c0.1291447-0.0960445,0.3072872-0.0162697,0.4392595-0.1021442
		C9.161849,8.1116848,9.1863766,8.1047039,9.2109041,8.0977211z"/>
	<path fill="#303030" d="M17.6806908,2.1883492c-0.1246758-0.0002699-0.2493496-0.00054-0.3740234-0.0008121
		c-0.6162224-0.1962711-1.2386723-0.3012509-1.8939924-0.1685081c-0.2350512,0.0476115-0.4839811,0.0381505-0.7265778,0.0547369
		C15.7043295,1.6759148,16.7009487,1.7484978,17.6806908,2.1883492z"/>
	<path fill="#303030" d="M21.9227734,8.222683c-0.082798,0.0762367-0.1655922,0.1524725-0.2483826,0.228714
		c0.0243683-0.2811756,0.080637-0.5540395,0.2495995-0.797534C21.9235878,7.8434696,21.9231796,8.0330763,21.9227734,8.222683z"/>
	<path fill="#4D1B41" d="M22.7959805,5.3769279c0.0033913,0.3014908,0.0067806,0.6029816,0.0102139,0.9044476
		c-0.0426884-0.0003548-0.0854187-0.0006828-0.1280842-0.0010843c-0.0086555-0.3014693-0.0173759-0.6028652-0.0260963-0.9042616
		c-0.0211525-0.1447473-0.1456108-0.3278375,0.1571064-0.3523893C22.908247,5.1446295,22.9025288,5.2623467,22.7959805,5.3769279z"
		/>
	<path fill="#222222" d="M22.7504578,5.0288296c-0.1229038,0.094532-0.0754471,0.2291694-0.0983047,0.3472433
		c-0.1754017-0.1579962-0.0740223-0.3694472-0.1282139-0.550734c-0.0001793,0.000113,0.0362606-0.0289941,0.0362606-0.0289941
		c0.0502491-0.0281777,0.1015701-0.0299106,0.154129-0.0054083C22.7764969,4.8638039,22.8959579,4.9296498,22.7504578,5.0288296z"/>
	<path fill="#313131" d="M17.0569763,1.1628435c0.1978836,0.0184115,0.3722668,0.0797158,0.4991302,0.2277517
		C17.342289,1.4012643,17.1513157,1.3702444,17.0569763,1.1628435z"/>
	<path fill="#D306BB" d="M24.4325275,2.9838033c-0.0917435,0.1044941-0.1834869,0.2089882-0.2752342,0.3134732
		c-0.1625023,0.1254175-0.3250008,0.250843-0.4874992,0.3762693c-0.3384666,0.1055622-0.6764832,0.1922555-1.0072365-0.0197949
		c-0.0262604-0.0676806-0.0066528-0.1217005,0.0581074-0.1618686c0.057785-0.0321486,0.1205788-0.0544965,0.1865368-0.0682504
		c0.9356365-0.1241214,1.0402012-0.2170391,1.2486267-1.0902627c0.0287971-0.1206427,0.0289936-0.2735562,0.2335052-0.2766395
		C24.6648598,2.3558817,24.4775448,2.6725688,24.4325275,2.9838033z"/>
	<path fill="#E703D3" d="M22.7975426,3.5387361c-0.047884,0.0079679-0.0957699,0.0159352-0.1436558,0.0239034
		c-0.0790825,0.0606449-0.1560802,0.0571408-0.2311363-0.0062475c-0.1663265-0.1525407-0.332653-0.3050818-0.4989796-0.4576225
		c-0.1212254-0.4300435-0.1863022-0.855684,0.1179256-1.2523628c0.0473232-0.0238471,0.0946445-0.0476944,0.1419659-0.071542
		c0.0684052,0.057807,0.0956097,0.1320729,0.1038437,0.214177c0.0043144,0.0804358-0.0081711,0.1592457-0.0293789,0.2371271
		c-0.1337852,0.4019225,0.0045986,0.7245455,0.3363972,0.9980524C22.6947556,3.3068423,22.8342896,3.3782599,22.7975426,3.5387361z"
		/>
	<path fill="#F401DF" d="M22.1872253,1.9564022c-0.0011845-0.0605224-0.0023708-0.1210446-0.0035591-0.1815521
		c0.0425682-0.0786947,0.0851383-0.1574042,0.1277084-0.2361139c0.528883-0.3171948,1.0613823-0.3749304,1.5996513-0.0185601
		l-0.0062904-0.0040888c0.1600628,0.0670744,0.2578831,0.1600119,0.1658745,0.3317032
		c-0.0989704,0.0512329-0.2010727,0.0362748-0.2909603-0.0100292c-0.4794044-0.2469645-0.9309597-0.2277046-1.3609428,0.098322
		C22.3550873,1.98432,22.2685413,1.9881231,22.1872253,1.9564022z"/>
	<path fill="#202120" d="M23.911026,1.5201762c-0.5368729-0.2563831-1.0688934-0.1641328-1.5996552,0.0185494
		c0.2412777-0.3156315,0.600071-0.3775787,0.9862423-0.3805224C23.489109,1.2971488,23.8313484,1.2234148,23.911026,1.5201762z"/>
	<path fill="#202020" d="M22.4227505,3.556392c0.0770645,0.0020759,0.1541271,0.0041516,0.231163,0.0062373
		c0.3100147,0.2551494,0.6747971,0.0926557,1.0158844,0.1109109C23.2090607,4.0338988,22.7971058,3.9617994,22.4227505,3.556392z"/>
	<path fill="#202120" d="M22.0416965,1.8464066c-0.1777306,0.4065992-0.1538372,0.8290097-0.1179256,1.2523628
		C21.6542873,2.6570992,21.5567284,2.2289116,22.0416965,1.8464066z"/>
	<path fill="#192219" d="M24.1696053,4.1240749c-0.0357819,0.0074544-0.071701,0.0143156-0.1076508,0.0206876
		c-0.4616661-0.2541165-0.0936928-0.3487871,0.1098461-0.4750655C24.2841072,3.8216279,24.2821941,3.9730768,24.1696053,4.1240749z"
		/>
	<path fill="#202120" d="M22.0483494,1.3911443C22.0596695,1.1734027,22.184,1.05883,22.4232368,1.0491462
		C22.3404121,1.2016139,22.2166634,1.3167223,22.0483494,1.3911443z"/>
	<path fill="#F401E5" d="M21.3022652,1.5051208c-0.2359505,0.0726309-0.2478695,0.2561046-0.2608624,0.4390153
		c-0.0805588,0.0050555-0.1610947,0.0101552-0.2416286,0.0152467c-0.091362-0.0997113-0.1827202-0.1994141-0.2740784-0.299117
		c-0.0594673-0.1402339-0.2471371-0.1848154-0.2980461-0.3310851c-0.0639248-0.1483067-0.1621971-0.1755961-0.2985325-0.070433
		c-0.0812798-0.0400273-0.1625557-0.0800552-0.243824-0.1200821c0.0433102-0.0586985,0.0883503-0.1694437,0.1296482-0.1682934
		c0.623621,0.017373,1.259943-0.1579114,1.8691521,0.0912446C21.5361519,1.1946354,21.5181694,1.4208342,21.3022652,1.5051208z"/>
	<path fill="#FD00F8" d="M19.9291172,1.2587475c0.0226727-0.1967663,0.1707935-0.238759,0.3398266-0.1933558
		c0.1428795,0.0383778,0.0414543,0.1460931,0.030344,0.2249677c-0.0897751,0.0565426-0.1799641,0.0474499-0.2703876,0.0014224
		C19.9892006,1.2969642,19.9559402,1.2859528,19.9291172,1.2587475z"/>
	<path fill="#C808B3" d="M20.0289001,1.2917815c0.0901356-0.0005599,0.1802731-0.0011201,0.2703972-0.0015513
		c0.0510693,0.1358473,0.2442608,0.1991094,0.2264023,0.3700043C20.3600979,1.5374373,20.1945,1.4146093,20.0289001,1.2917815z"/>
	<path fill="#C808B3" d="M22.6594715,4.8254013c-0.0336704-0.0080481-0.0667706-0.0177283-0.0992851-0.029048
		c-0.0168114-0.1987681-0.0251045-0.3792605,0.2979031-0.3531909c0.2626247,0.0211959,0.528326,0.0106783,0.7926197,0.0142064
		c0.0567703,0.007483,0.1135807,0.0149846,0.1705685,0.022553c-0.0916386,0.037343-0.1834526,0.0746193-0.2752686,0.1118951
		C23.2515984,4.6731558,22.9613819,4.7677579,22.6594715,4.8254013z"/>
	<path fill="#202120" d="M24.0798473,1.8375578c-0.0583515-0.107174-0.1167049-0.2143482-0.1750832-0.3214965
		c0.7022629,0.2737799,0.8860378,0.784843,0.5277596,1.4677429c-0.0646591-0.2960014,0.1755753-0.6326609-0.1432667-0.8947656
		C24.085289,2.0982552,24.0621586,1.9820603,24.0798473,1.8375578z"/>
	<path fill="#FE00CC" d="M22.6594715,4.8254013c0.178484-0.4475722,0.5898552-0.1596203,0.8865547-0.2336836
		c-0.1662979,0.2995806-0.3325787,0.5990615-0.4988537,0.8985443c-0.0344963,0.0740976-0.0690022,0.1481934-0.1033993,0.2222223
		c-0.0360641-0.1167173-0.0085793-0.2567382-0.1477909-0.3355575c-0.015173-0.1160331-0.030344-0.2320671-0.0455189-0.3480992
		C22.720129,4.96102,22.6898022,4.8932104,22.6594715,4.8254013z"/>
	<path fill="#FD00CC" d="M8.6957321,11.1852493c-0.5272903,0.0006371-0.9938483-0.346179-0.9956369-0.7401066
		c-0.0019841-0.4368277,0.4752417-0.8621426,0.9588566-0.854557c0.4503288,0.0070639,0.8875561,0.3838339,0.9043922,0.7793388
		C9.5847902,10.873765,9.2540493,11.1845741,8.6957321,11.1852493z"/>
	<path fill="#FD00CC" d="M7.6788192,11.1115055c-0.4165864-0.5296021-0.4144711-0.8785496,0.0079484-1.3138638
		C7.532342,10.2348442,7.5678844,10.672986,7.6788192,11.1115055z"/>
	<path fill="#FD00CA" d="M12.1896877,10.0451641c-0.2139063,0.175909-0.4082241,0.2114105-0.6006613-0.0366602
		c-0.3652077-0.470789-0.7056923-0.9511557-0.9340363-1.4945841c-0.1221294-0.2906551-0.0836201-0.4736061,0.287981-0.5204501
		c0.0582829-0.0333977,0.1124821-0.026998,0.1631784,0.0138774c0.1942873,0.5263119,0.5169811,0.9813728,0.9121637,1.4002323
		C12.187727,9.5871401,12.421917,9.7685585,12.1896877,10.0451641z"/>
	<path fill="#FD00E2" d="M12.1896877,10.0451641c0.0356913-0.2307472-0.1195726-0.3725882-0.2656088-0.5361586
		c-0.3995762-0.4475517-0.778513-0.9112139-0.8582916-1.5125656c0.0408716-0.0399675,0.0824003-0.040545,0.1245852-0.0017295
		c0.1668406,0.3044677,0.3336821,0.6089349,0.5005236,0.913403c0.2776041,0.1104565,0.3216639,0.412324,0.5526266,0.5612469
		c0.1251183,0.1819038,0.4741106,0.259243,0.320219,0.5711651l-0.0381269,0.0236826c0,0-0.0460129-0.0028534-0.0460091-0.0028515
		C12.3835058,10.0479679,12.2788639,10.1618786,12.1896877,10.0451641z"/>
	<path fill="#FE00ED" d="M11.1903725,7.9947104c-0.0415173,0.0005045-0.0830326,0.0010729-0.1245661,0.0017166
		c-0.0409622-0.0008445-0.0819016-0.0018191-0.1228361-0.0029349c-0.0385199-0.0720482-0.0770397-0.144073-0.1154509-0.2160029
		C11.0139828,7.7589102,11.1799383,7.7686162,11.1903725,7.9947104z"/>
	<path fill="#F501DC" d="M12.1792784,9.4787035c-0.2413282-0.1342306-0.3210869-0.383625-0.4883804-0.57061
		c0.0479698-0.002696,0.0959425-0.0054111,0.1439199-0.0081272c0.0679493,0.0471611,0.1358929,0.0943213,0.2038326,0.1414833
		c0.0528526,0.1026564,0.1057062,0.2053108,0.1585608,0.3079643C12.2549143,9.3998661,12.2489319,9.4429617,12.1792784,9.4787035z"
		/>
	<path fill="#DE05CE" d="M12.1792784,9.4787035c0.0059729-0.0430984,0.0119467-0.0861979,0.0179253-0.1292934
		c0.0401669,0.0000324,0.0798187,0.0041313,0.1189671,0.0123014c-0.0297842,0.2603865,0.6664581,0.300252,0.247571,0.6788177
		C12.571188,9.7759705,12.2845163,9.679038,12.1792784,9.4787035z"/>
	<path fill="#FE00F5" d="M14.9551105,8.4697657c-0.0054684-1.2180762-0.0109367-2.4361529-0.0163765-3.6541238
		c0.1709175-0.0066781,0.2394648,0.0825129,0.2522469,0.2240915c-0.0043049,1.1484089-0.0086641,2.2967744-0.0130167,3.4453244
		C15.1036863,8.4800835,15.0293989,8.4749241,14.9551105,8.4697657z"/>
	<path fill="#D407B5" d="M14.19312,5.6022439c0.1875324,0.8742571,0.1806164,1.7488251,0.0051298,2.6236625
		C14.1965857,7.3513508,14.1948528,6.4767971,14.19312,5.6022439z"/>
	<path fill="#ED02D1" d="M8.9551897,7.4167891C8.9908686,7.4228454,9.0268154,7.42694,9.062994,7.4290857
		C9.1122484,7.651989,9.16154,7.8748813,9.2108679,8.0977468c0.0000362-0.0000257-0.0356007,0.0245914-0.0356007,0.0245914
		c-0.089839-0.0015697-0.1500349-0.0253925-0.1112957-0.1234794C8.9571943,7.8158112,8.9254341,7.6210871,8.9551897,7.4167891z"/>
	<path fill="#FE00EE" d="M9.0639715,7.9988589C9.1011868,8.0399628,9.138402,8.081068,9.1754427,8.1222553
		c-0.0666542,0.405776-0.3299751,0.0188961-0.4773455,0.0987625C8.8200712,8.1469488,8.9420214,8.0729036,9.0639715,7.9988589z"/>
	<path fill="#FB00DC" d="M17.80546,8.2227993c0.2541485-0.3047991,0.1065426-0.6551089,0.1172981-0.9821515
		c0.0241585-0.734498,0.0073166-1.4701185,0.007164-2.2052813c0.1113148-0.0646272,0.2139263-0.0731916,0.2978821,0.0384684
		c0.0553856,1.0483122-0.0492153,2.0989609,0.054039,3.1466374c0.0052776,0.0675526,0.0105572,0.1351042,0.0157871,0.2024527
		c-0.2147923,0.1926918-0.4825344,0.1362286-0.7394581,0.1306744c-0.0769787-0.1085358-0.0769386-0.2220383-0.026495-0.3390188
		c0.040596-0.0315323,0.0871887-0.050868,0.1403904-0.0564127C17.7255192,8.1641159,17.7700024,8.1857138,17.80546,8.2227993z"/>
	<path fill="#E904D2" d="M18.2818413,8.2204723c-0.2256565-0.6592116-0.054224-1.3350925-0.0970268-2.0022349
		c-0.025198-0.3926806-0.0034332-0.7878709-0.0027905-1.181932c0.0252419-0.0452466,0.0579796-0.0481648,0.0972271-0.0143452
		C18.2801132,6.0881305,18.2809792,7.1543016,18.2818413,8.2204723z"/>
	<path fill="#FE00EF" d="M18.2792511,5.0219603c-0.0318737,0.0078864-0.0642967,0.0126553-0.09725,0.0143261
		c-0.0840054-0.0002999-0.1680355-0.0006189-0.2520714-0.0009294c-0.0960369-0.0478497-0.1218243-0.1275373-0.1196041-0.2198057
		C18.0129108,4.7968874,18.2003078,4.8067908,18.2792511,5.0219603z"/>
	<path fill="#FE00C7" d="M14.5249453,5.1715136c0.042984-0.0082521,0.2812853-0.2167931,0.283639,0.1632729
		c0.0057077,0.9221268,0.0018539,1.8443031-0.0415325,2.7676268C14.56462,7.1594214,14.8691053,6.1640339,14.5249453,5.1715136z"/>
	<path fill="#FE00E4" d="M17.5574951,8.2221041c0.0699615,0.1104507,0.0835018,0.2209902,0.0006485,0.3315878
		c-0.0790482,0.0006256-0.1581249,0.0013428-0.2371159,0.0020027c-0.0031776-0.1113806-0.0064392-0.222703-0.0097027-0.3340254
		c0.1278534-0.6489143,0.022562-1.3038263,0.0615177-1.9548545c0.0132141-0.2208567-0.0615826-0.4490714,0.0587864-0.6620703
		c0.0412388-0.0002751,0.0824757-0.0003996,0.1237164-0.0003738C17.7571239,6.4768109,17.7538528,7.3493915,17.5574951,8.2221041z"
		/>
	<path fill="#F701DE" d="M17.4316292,5.6047444c-0.0001011,0.6955152,0.0039787,1.3910656-0.0031548,2.0865207
		c-0.0018559,0.1805964,0.0673294,0.3808975-0.1171913,0.5304308c-0.0005322-0.8724451-0.0011024-1.7448626-0.0016422-2.6172762
		C17.3503265,5.6041112,17.3909779,5.604218,17.4316292,5.6047444z"/>
	<path fill="#FE00C7" d="M17.80546,8.2227993l-0.0621338,0.0003633l-0.0621319-0.0002632
		c-0.1011257-0.872931-0.1003971-1.745873-0.0003815-2.6188278c0.045063-0.2208295-0.2858162-0.1846776-0.3121567-0.3828077
		c0.4165554-0.1569462,0.436964,0.0818524,0.4368515,0.3448777C17.8051243,6.451694,17.8054218,7.3372464,17.80546,8.2227993z"/>
	<path fill="#FE00D1" d="M17.6808128,5.6040716c0.0001259,0.8729444,0.0002499,1.7458887,0.0003777,2.6188297
		c-0.0412445,0.0001202-0.082489-0.0001373-0.1237125-0.0007849c-0.0006924-0.8725929-0.0014038-1.7451744-0.0021229-2.6177506
		C17.597168,5.6042709,17.6389904,5.6041713,17.6808128,5.6040716z"/>
	<path fill="#F501E1" d="M24.0798473,1.8375583c0.069809,0.0838273,0.1396179,0.1676543,0.2094193,0.2514808
		c0.0086384,1.0907989-0.2938404,1.4141026-1.36273,1.4565427c-0.0254135-0.2295713,0.2140026-0.220588,0.3384361-0.3156803
		c0.126091-0.066335,0.249815-0.1363118,0.3525238-0.2318668c0.3286095-0.3057246,0.3355503-0.6814604,0.0191212-0.9489989
		C23.3389549,1.797362,22.87817,1.8282553,22.5892372,2.1226037c-0.1082764,0.1103091-0.1561527,0.272423-0.3352776,0.3217368
		C22.1006756,2.3914218,22.0861454,2.30182,22.1714363,2.185811c0.0051765-0.076431,0.010355-0.1528623,0.0156612-0.229351
		C22.9735966,1.3820926,23.1553726,1.3706785,24.0798473,1.8375583z"/>
	<path fill="#F401DF" d="M22.1714363,2.185811c0.0039349,0.0937107,0.0247612,0.1797597,0.1251202,0.2297325
		c0.2260857,0.402128,0.5324669,0.7310758,0.9996338,0.9134929c-0.1232624,0.0722318-0.2465248,0.1444643-0.3697205,0.2166204
		c-0.0429077-0.0022719-0.085886-0.0044682-0.1288948-0.0067923C22.0403156,3.0219133,21.9324436,2.7888124,22.1714363,2.185811z"/>
	<path fill="#FE00D0" d="M20.7871151,1.1701258c0.1048088,0.0066605,0.2123299,0.016646,0.2324066,0.1356366
		c0.0192566,0.1141521-0.0505943,0.1766647-0.1712818,0.1779507c-0.1108265,0.0011811-0.2051487-0.0489484-0.2352352-0.1480588
		C20.5740814,1.2074225,20.6782475,1.1817951,20.7871151,1.1701258z"/>
	<path fill="#FC00CB" d="M23.2961903,3.3290365c-0.6895466,0.0202496-0.9606857-0.3408065-0.9996185-0.9134939
		c0.09618-0.4686942,0.3591805-0.7306743,0.9281845-0.6873987c0.4644108,0.0353208,0.7266369,0.2854445,0.8024426,0.6531763
		C24.1317368,2.8884499,23.7927208,3.1745961,23.2961903,3.3290365z"/>
</g>
</svg>
