<?xml version="1.0" encoding="utf-8"?>
<!-- Generator: Adobe Illustrator 24.1.1, SVG Export Plug-In . SVG Version: 6.00 Build 0)  -->
<svg version="1.1" id="Слой_1" xmlns="http://www.w3.org/2000/svg" xmlns:xlink="http://www.w3.org/1999/xlink" x="0px" y="0px"
	 viewBox="0 0 32 13" enable-background="new 0 0 32 13" xml:space="preserve" width="32px" height="13px">
<g>
	<path fill="#212121" d="M22.1829395,9.3627214c-1.2209854,2.2767534-3.24189,3.4819345-5.9625206,3.5685768
		c-2.4839144,0.0791025-4.9734888,0.013257-7.4605007,0.0001965c-0.7144833-0.0037508-1.3864102-0.1437092-1.8763947-0.6864643
		c-0.9690833-1.0846062-0.9070168-2.1742287-0.1493793-3.3566065C7.6662927,7.4337049,8.5786839,5.96632,9.4559193,4.4814019
		c0.097909-0.1657305,0.1534004-0.425746,0.4516993-0.4417868c0.0783329,0.054049,0.1057653,0.1301088,0.1107616,0.2159548
		C9.9330597,4.7520142,9.5917845,5.193325,9.6460209,5.7205715C9.5842323,6.0825634,9.6406059,6.4564834,9.516016,6.811954
		C9.404789,7.2717848,9.7277231,7.7323403,9.5136595,8.1917324c-0.0423727,0.0508051-0.097888,0.0694065-0.1659393,0.0562267
		c-0.264102-0.2085209-0.2618294-0.4969692-0.2762089-0.7800999C9.0685644,7.2998714,9.0848961,7.1314607,9.0748749,6.962328
		C9.0643063,6.7839789,8.9407568,6.7915258,8.804554,6.8140979C8.6499796,6.8239088,8.5727339,6.9122472,8.506217,7.032434
		C8.2782192,7.4443989,8.0611649,7.8624191,7.7681723,8.2410908C7.6872277,8.345706,7.6188784,8.4565916,7.7605886,8.5689402
		c0.0713649,0.0753345,0.1271992,0.1591187,0.1745949,0.2482967c0.1423359,0.2497206,0.0354781,0.421092-0.1674232,0.609128
		c-1.14959,1.0653667-0.46486,1.8045502,0.4072018,2.3650789c0.3497143,0.2247849,1.0736799,0.0910988,1.4636555-0.2062912
		c0.1427736-0.1088772,0.2284298-0.3051548,0.4706984-0.2631502c0.2457924,0.1896858,0.0403624,0.2942924-0.0681744,0.4103193
		c0.1364431-0.0536537,0.2178116-0.2844152,0.4503222-0.180192c0.1168489,0.1380091-0.0372505,0.2416496-0.0506992,0.3615198
		c0.5615282,0.1598063,1.1348171,0.0277929,1.6986513,0.0747547c0.0918341,0.0076485,0.0691748-0.1052837,0.0865221-0.168932
		c0.0489597-0.0639534,0.1137476-0.0873222,0.195858-0.0672426c0.0224152-0.0871964-0.0709753-0.0633287-0.107913-0.0913363
		c-0.1948767-0.1477623-0.5233765-0.1703682-0.5332384-0.4899731c0.1111269-0.1462955,0.3070564-0.1874924,0.441638-0.3048668
		c0.1810484-0.1292152,0.3134651-0.3011827,0.4672699-0.4537506c0.4430761-0.4395151,0.4389687-0.4799862-0.0349188-0.9286413
		c-0.3034-0.3131685-0.6028824-0.6288939-0.7746706-1.0268469c-0.1387091-0.3454771-0.3309107-0.6751652-0.3616314-1.0522766
		c-0.0120573-0.6107588-0.0126867-1.2211881-0.0019703-1.831203c0.3110924-1.5038948,1.2143297-2.5459218,2.807579-3.0490921
		c0.3757124-0.1271007,0.7133226-0.3684869,1.1460447-0.325846c0.6709242,0.0497005,1.3713541-0.146034,2.0061293,0.2027404
		c0.2534199,0.1680532,0.5671921,0.217047,0.8362007,0.3566353c1.0205593,0.5295699,1.7249413,1.2906742,2.0259495,2.3454094
		c0.0350952,0.1229615,0.1042633,0.227829,0.155695,0.3412256c0.1084423,0.2029395-0.0158863,0.4396353,0.1216717,0.7198305
		c-0.0013638-0.0078759,0.0942841-0.0860229,0.0195541-0.0662503c-0.0290585,0.007688-0.0370007-0.0049529-0.0485096-0.0269852
		c-0.0667839-0.1278615-0.0362282-0.2303815,0.0869198-0.3124552c0.0827904,0.0063362,0.1405678,0.0473695,0.1743183,0.1144533
		c0.0890179,0.1769409,0.0737076,0.4413347,0.4093456,0.4082317c0.337431-0.0332789,0.7386875,0.1363835,0.9622707-0.257895
		c0.2858982-0.1234803,0.3455143,0.164638,0.5206947,0.2421045c0.0744572,0.0289598-0.0148029,0.2426357,0.1865864,0.1351113
		c0.1283684-0.0685382,0.2549686-0.1461382,0.4081306-0.1661057c0.0819206-0.0064187,0.1581497,0.0079079,0.2260342,0.052371
		c0.0481434,0.2132039-0.0756569,0.4164324-0.043293,0.6293139C23.0987034,7.7439165,22.4410725,8.460784,22.1829395,9.3627214z"/>
	<path fill="#282929" d="M9.9221649,4.0619431c-0.582509,0.6193342-0.9195366,1.3775682-1.3707438,2.0707297
		C7.886498,7.1541543,7.2162504,8.1757355,6.623405,9.233036c-0.4725337,0.8427296-0.5309377,1.7323675,0.0446544,2.5874052
		c0.089314,0.1326752,0.2434802,0.2403479,0.2154641,0.4245892c-0.9552312-0.8831816-1.1800189-1.7848148-0.5484433-2.8226871
		c1.0303459-1.6931753,2.0736427-3.3796711,3.1009417-5.0744047c0.4329596-0.714252,0.7773905-1.4774415,1.3940306-2.0867233
		c0.2486496-0.2456825,0.4613638-0.5277902,0.8010721-0.6830716c0.42451-0.131144,0.638607-0.6316041,1.1740685-0.5680799
		c0.1518774,0.3259161-0.1820192,0.3787323-0.3531876,0.5012025c-0.7345638,0.5255789-1.4045868,1.1055018-1.9209204,1.8240215
		c-0.1035681,0.169385-0.189785,0.3475201-0.2968597,0.5155549C10.1554747,3.9527364,10.0673904,4.0434403,9.9221649,4.0619431z"/>
	<path fill="#292A2A" d="M12.8379107,1.0538194c-0.5172577-0.0498999-0.7194796,0.515667-1.2067747,0.5243256
		c1.025836-0.8935155,2.2679014-1.4029918,3.6515121-1.4669583c2.7702503-0.1280725,5.5463009-0.0799846,8.3188572-0.0187943
		c1.0705204,0.0236264,1.9084377,0.7425311,2.2791309,1.6587299c0.2269955,0.5610365,0.1622276,1.0696732-0.0784473,1.5750312
		c-0.2869987,0.6026287-0.625639,1.1841347-1.0507221,1.7178524c-0.0233288-0.0222316-0.0466537-0.0444622-0.070219-0.0665841
		c-0.1263351-0.4238443,0.2141094-0.7009168,0.3945389-1.0215321c0.2592087-0.4606037,0.5396442-0.9032326,0.54105-1.4488692
		c0.00243-0.9433066-0.6061077-1.7266529-1.5875931-2.0121195c-0.4116058-0.1197163-0.8333817-0.1472045-1.2622375-0.1466111
		c-2.3433533,0.0032422-4.6867161,0.0016734-7.0293722-0.006783c-0.2060795,0.0032893-0.4146919-0.0209121-0.6167994,0.0390926
		c-0.1332092,0.032595-0.2667303,0.0651358-0.398119,0.104365c-0.0761194,0.0218842-0.154254,0.0350243-0.2332201,0.0424919
		c-0.2035627,0.0051113-0.3985367,0.0343769-0.554389,0.1719826c-0.1257763,0.0870659-0.2699261,0.1330456-0.4215059,0.1623428
		c-0.2031517,0.0300468-0.3580475,0.1568122-0.5396614,0.2304797C12.9206867,1.1032403,12.8757076,1.0891603,12.8379107,1.0538194z"
		/>
	<path fill="#292A2A" d="M22.1829395,9.3627214c-0.0020046-0.737339,0.5671043-1.2470961,0.8771992-1.8597121
		c0.1131039-0.2234411,0.259367-0.4326348,0.3905029-0.6483288c0.1889286-0.6693597,0.6363316-1.2165403,1.0075703-1.7991943
		c0.0517559-0.0812325,0.1556911-0.0913463,0.253233-0.0449109c0,0,0.0400219,0.0334301,0.0400219,0.0334306
		c-0.6415901,1.0659904-1.2851639,2.1309738-1.9236908,3.1985211C22.6063919,8.6126556,22.3975239,8.9891396,22.1829395,9.3627214z"
		/>
	<path fill="#212222" d="M24.7114449,5.0105753c-0.534832,0.5482264-0.801672,1.2519732-1.2607937,1.8441229
		c-0.1804562-0.2195749-0.092802-0.389894,0.1163635-0.5378981c-0.2104187-0.2573719,0.0234394-0.436698,0.1304073-0.6385493
		c0.1484699-0.1748023,0.2347317-0.3801818,0.3297691-0.5811739c0.0695457-0.130827,0.1511154-0.2545009,0.2601357-0.3614435
		c0.1137333-0.1273232,0.2562447-0.2439947,0.1764545-0.4365263c0.0041084-0.1426005-0.1158791-0.1672783-0.2278061-0.2002592
		c-0.0688057-0.0399699-0.1201859-0.0933342-0.1537418-0.1616304c-0.0269337-0.0731876-0.0290337-0.1469076-0.0080566-0.2213886
		c0.2162514-0.3012543,0.5665092-0.5270233,0.612772-0.9241002c0.0209236-0.1980436,0.021843-0.3956776-0.0061684-0.5929737
		c-0.1530418-0.4466493-0.4520702-0.7767729-0.9131393-0.9797032c-0.463522-0.2040118-0.8959846-0.1599108-1.2977467,0.1349627
		c-0.0602913,0.0442504-0.1099701,0.1011567-0.1720009,0.1419851c-0.1872463,0.1232429-0.3644962,0.4583685-0.5940456,0.2557255
		c-0.2017651-0.1781133,0.1074314-0.4016356,0.228632-0.591759c0.0522499-0.1138536,0.3047924-0.1673268,0.121069-0.3508493
		c-0.0848789-0.0485744-0.1758099-0.082468-0.2659531-0.1189756c-0.7323818-0.0482731-1.4638691-0.0517856-2.1947823-0.0109259
		c-0.0947895,0.0371858-0.1903687,0.0732445-0.2835197,0.1120911c-0.1938019,0.0509446-0.1114311,0.3619965-0.3795853,0.3451615
		c-0.3321972-0.0347081-0.6154213-0.1829652-0.9029484-0.3229296c-0.8010807-0.3519163-1.6571712-0.2375866-2.4979811-0.2585401
		c-0.2808628-0.0069992-0.5849733,0.0688005-0.824728-0.1460957c0.0847712-0.124333,0.2222614-0.1025133,0.3501835-0.1072232
		c0.1760368-0.1209323,0.4008856,0.0122129,0.5796509-0.0945253c2.5414934-0.0031518,5.0836573-0.0406948,7.6242628,0.0015136
		c2.0035477,0.0332861,3.3558102,1.814712,1.9871006,3.8134665C25.0311718,4.3347526,24.7628727,4.6231408,24.7114449,5.0105753z"/>
	<path fill="#303030" d="M22.1685028,7.1152678c-0.1501789,1.3425426-0.7523708,2.500329-1.7760029,3.4568386
		c-0.443718,0.4146214-0.6052399-0.1439381-0.8673954-0.3041964c-0.2418556-0.1478491-0.3286495-0.3249903-0.054472-0.5569954
		c0.8542423-0.7228432,1.2586479-1.6663485,1.4001274-2.6947384c0.0892105-0.6484532,0.5741501-0.3034635,0.8834877-0.3658814
		C22.1504517,6.5703521,22.1977749,6.8286991,22.1685028,7.1152678z"/>
	<path fill="#231414" d="M10.1554213,11.3701506c-0.4513044,0.2223082-0.7242374,0.7067575-1.3675632,0.6580458
		c-0.7183094-0.054389-1.3888631-0.4481268-1.6898932-1.1454163C6.8252459,10.25107,7.183054,9.7763824,7.6268392,9.3688841
		C7.8272223,9.184886,7.9369998,9.04389,7.8262167,8.7997751c0.0527577-0.1044455,0.151938-0.1568108,0.2609186-0.1988611
		C8.1419516,8.5816498,8.1986732,8.5694466,8.256671,8.5617628c0.4015408-0.0031586,0.9108973-0.151062,1.1528301,0.1870508
		c0.4299164,0.6008301,1.2671852,1.0226831,1.107934,1.9148569c-0.0074463,0.0497837-0.0215816,0.0987597-0.0393782,0.1462889
		c-0.0745792,0.1512785-0.1570225,0.3000917-0.2217512,0.4563551
		C10.2325563,11.3089657,10.1981945,11.3430729,10.1554213,11.3701506z"/>
	<path fill="#03E7EA" d="M12.7139311,5.4698873c-0.240613-0.6870399-0.1693602-0.786366,0.5649099-0.7874894
		c1.4003849-0.0021415,1.4000521-0.002142,1.400506,1.2815948c0.0002775,0.7874851-0.0171318,1.5755339,0.0105124,2.3622222
		c0.0142899,0.4066486-0.2179813,0.4497366-0.5476055,0.4026804c-0.2915516-0.0416212-0.7534132,0.2044792-0.7278614-0.3886614
		c0.0277109-0.6433177-0.036005-1.2916985,0.0214062-1.931684c0.0487947-0.5439301-0.0280085-0.924047-0.7257328-0.9417925
		c0.6623993-0.2803183,0.9617929-0.1331425,0.9929695,0.5108161c0.0284719,0.5880771,0.00525,1.1773858,0.0098839,1.7661319
		c0.0012617,0.1602335-0.0099277,0.3227515,0.0561323,0.4758773c0.0591002,0.1369858,0.1852436,0.1726456,0.3299541,0.1662912
		c0.1468716-0.0064507,0.1998281-0.1004133,0.1985025-0.2167044c-0.0108004-0.9453526,0.0227127-1.8909926-0.0188169-2.8360605
		c-0.0078287-0.1781425-0.098258-0.3225732-0.3071442-0.3299804c-0.3542557-0.0125608-0.7406549-0.1456523-1.0333652,0.156744
		C12.850523,5.2504306,12.80898,5.3784151,12.7139311,5.4698873z"/>
	<path fill="#240E0D" d="M11.671155,7.5009828c0.1168509,0.322454,0.2336998,0.6449075,0.3505507,0.967361
		c-0.0451803,0.0862293-0.1002283,0.1563683-0.2230415,0.1163883c-0.6616354-0.8357968-0.7218933-1.7877693-0.5768843-2.7590513
		c0.0652227-0.4368739,0.1776218-0.8788214,0.4204283-1.2743196c0.0942202-0.1633191,0.1965942-0.323626,0.257266-0.5020289
		c0.081542-0.1906247,0.1829433-0.3691678,0.3684568-0.4940226c0.2632933-0.1572795,0.4610796-0.3825061,0.6923571-0.5732949
		c0.0390692-0.0319867,0.0812578-0.0600784,0.125083-0.0861151c0.1781883-0.0981205,0.3529778-0.201268,0.5236969-0.3105683
		c0.157855-0.094022,0.3126526-0.1961956,0.5161142-0.1789207c0.1234732,0.0494297,0.271513,0.0806835,0.2299461,0.2559879
		c-1.4966879,0.4420016-2.3128834,1.4382234-2.6837835,2.7971096C11.573041,6.1399918,11.5732946,6.8204832,11.671155,7.5009828z"/>
	<path fill="#231718" d="M16.4486122,8.788003c-0.4756126,0.0806255-0.3583717-0.1282072-0.2303562-0.3763876
		c0.3095665-0.6001601,0.6008759-1.2082939,0.9034214-1.8115625c0.0767536-0.1530428,0.1607914-0.2985926-0.084198-0.3884201
		c-0.1701221-0.4391308-0.0932159-0.6118245,0.2947712-0.6619081c0.4453659-0.0574913,0.611515,0.1220765,0.4753113,0.519752
		c-0.0465698,0.1359706-0.1255722,0.2622943-0.1426907,0.4066682c-0.0279713,0.1989822-0.1071968,0.3849764-0.1757851,0.5735211
		c-0.2514019,0.4081755-0.3448257,0.8888912-0.6734276,1.2624984C16.6506538,8.4424582,16.624651,8.6646357,16.4486122,8.788003z"/>
	<path fill="#250504" d="M10.1534824,3.8465993c0.0788345-0.1783323,0.1576691-0.3566649,0.2365036-0.534997
		c0.1282253-0.0928323,0.2205162-0.0467048,0.2962399,0.0647404c0.032568,0.0803933,0.0332909,0.1618168,0.0089083,0.2439642
		c-0.096365,0.1948318-0.2440891,0.3656051-0.318038,0.5716324C9.7680588,5.3274918,9.7906399,6.532114,9.9178314,7.7480779
		c-0.0398092,0.154664-0.0779819,0.3100629-0.1175556,0.465282C9.7710171,8.2907057,9.72332,8.353899,9.6387377,8.3877935
		C9.5799112,8.3880987,9.5289192,8.3701286,9.4871025,8.3313541C9.4746065,8.307868,9.4621382,8.2842684,9.4496698,8.2606697
		C9.5174475,7.751852,9.255023,7.2629323,9.3426352,6.7529187C9.7270565,6.4487109,9.3711185,6.011693,9.5705824,5.6743064
		C9.3774385,5.1424255,9.7565699,4.7338958,9.9246702,4.2798791C10.0095615,4.139317,10.0317526,3.9706485,10.1534824,3.8465993z"/>
	<path fill="#241211" d="M11.7888393,11.1546125c0.1900492,0.3248367,0.7101526,0.2992716,0.8565617,0.7001734
		c-0.1512976-0.0128994-0.2931957-0.0249987-0.4350948-0.037097c-0.3328371,0.031455-0.4954634-0.2352037-0.7410889-0.3574638
		c-0.1580477-0.101757-0.298274-0.2172556-0.3567829-0.3952122c-0.0128574-0.0491104-0.0176134-0.0990906-0.0161734-0.1495867
		c0.2652578-0.2946405-0.1656122-0.3051233-0.2266903-0.4658813c-0.4090176-0.4679003-0.8304567-0.9294281-0.9784622-1.5385952
		c0.0599098-0.0963898,0.1558104-0.1409988,0.2698755-0.1594658c0.3822393,0.115901,0.3870964,0.5053492,0.6224155,0.728075
		c0.0536823,0.0791168,0.0985861,0.1628637,0.1450806,0.2455626c0.08323,0.165781,0.2145376,0.2970638,0.3583498,0.419404
		c0.1678438,0.1712351,0.3808756,0.3096476,0.4659443,0.5411243c0.029171,0.1325893,0.0211124,0.2683382,0.0369062,0.4023142
		C11.7896433,11.1101742,11.7892418,11.1323938,11.7888393,11.1546125z"/>
	<path fill="#1E3B3D" d="M17.5160465,6.5528269c-0.0764084-0.3077602,0.2181702-0.5164852,0.2543926-0.7942657
		c-0.6866455-0.1692786-0.7192936-0.1489334-0.7329655,0.4530706c-0.079483,0.0381241-0.1589718,0.0762482-0.2384605,0.1143713
		c-0.3079872,0.1497998-0.6156197,0.146349-0.9229116-0.0018272c-0.2114382-0.5847883-0.2282963-1.1685877,0.0104818-1.7510881
		c0.031929-0.0290093,0.0648108-0.0313625,0.0987883-0.002995c0.9817839,0.0073953,1.9635611,0.0158672,2.9453554,0.021389
		c0.2312889,0.0013013,0.4644279-0.0157766,0.6659355,0.1207094c0.1644573,0.1692023,0.1525955,0.3635435,0.0955944,0.5641055
		c-0.0257473,0.0521703-0.0685196,0.0884123-0.1268959,0.1084576c-0.180418-0.0166368-0.2101078-0.148725-0.2476921-0.2742114
		c0.0087204-0.1330061-0.0633888-0.2103572-0.202549-0.2414823c-0.9943905,0.0021548-1.9882889-0.0788379-2.9758968,0.045588
		c-0.034996,0.0373087-0.0666752,0.0766206-0.0911484,0.1206446C16.0056,5.2885709,16.0226593,5.5419426,16.0354443,5.7950048
		c0.0074902,0.0496955,0.0205994,0.0980663,0.041317,0.1441898c0.3172474,0.1992574,0.5603809,0.1997237,0.7163486-0.1814928
		c0.1776886-0.4343014,0.5900383-0.340023,0.9456749-0.298522c0.341568,0.0398588,0.3705997,0.2658687,0.2750549,0.5251236
		c-0.0191536,0.0489526-0.0436077,0.0959044-0.070303,0.1416945C17.8106632,6.2759347,17.7969284,6.5285201,17.5160465,6.5528269z"
		/>
	<path fill="#231516" d="M20.4192715,5.4593415c-0.3804741-0.1497388-0.2612247-0.5289674-0.3848534-0.7869191
		c-0.4860039-1.0140402-1.2810307-1.6639805-2.3964443-2.0187669c-0.0506878-0.0161221-0.0898476-0.0630047-0.1343765-0.0955603
		c0.1132488-0.1214454,0.2695255-0.1287322,0.4254074-0.1374726c0.1194878-0.0035226,0.2391052-0.0013664,0.3580837,0.0109243
		c0.3862782,0.0622134,0.6683311,0.2686563,0.8946476,0.55146c0.1331825,0.1747546,0.3052425,0.3180354,0.4629955,0.4729419
		c0.0672607,0.0679052,0.1237144,0.1433256,0.1772614,0.2205722c0.07691,0.1157658,0.17976,0.2125528,0.2756653,0.3148644
		c0.0324631,0.0362978,0.059866,0.0753503,0.0848904,0.1161776c0.1102142,0.2386255,0.2953796,0.4513602,0.2987747,0.7272897
		C20.4070034,5.0383005,20.5793304,5.2631359,20.4192715,5.4593415z"/>
	<path fill="#00EDFE" d="M11.1807423,11.0502462c0.1235113,0.1143017,0.2470217,0.2286024,0.370533,0.3429041
		c0.150486,0.2270088,0.435997,0.3355675,0.7098913,0.6370163c-0.7347603,0.0491133-1.3482475,0.070015-1.9643126-0.0088673
		c-0.0628052-0.0080423-0.0460148-0.086442-0.0412035-0.1382513c0.0778646-0.1000566,0.1557283-0.2001133,0.233592-0.3001699
		c-0.0789518-0.1139154-0.0265694-0.2050304,0.0583897-0.2909222
		C10.7504902,11.1941977,10.8359947,10.8328505,11.1807423,11.0502462z"/>
	<path fill="#02EEF0" d="M16.7168274,8.2629223c0.2159843-0.4027133,0.4319668-0.8054266,0.6479511-1.2081389
		c0.0223351,0.0147076,0.0446682,0.0294161,0.0672264,0.0439172c0.1833038,0.366437-0.1500168,0.6429758-0.198328,0.9690962
		c-0.0166225,0.1122046-0.1794968,0.2401495-0.0163345,0.3325987c0.1384239,0.078433,0.3057194,0.0293808,0.436182-0.0628958
		c0.1605892-0.1135864,0.2311687-0.2854633,0.3062782-0.449574c0.2564697-0.56037,0.4740105-1.1357183,0.7512589-1.6878381
		c0.0793839-0.1580882,0.0900173-0.4258685,0.419487-0.3204474C19.2857037,6.0590463,19.1662369,6.2329755,19.1201,6.408493
		c-0.1897354,0.4230185-0.3991051,0.8387146-0.5782242,1.266016c-0.0967598,0.175209-0.1605148,0.3661699-0.2884369,0.5272493
		c-0.0231552,0.0123825-0.0466118,0.0244789-0.0700703,0.0365763c-0.1334839,0.1126976-0.1951599,0.2579231-0.223259,0.4183598
		c-0.2726727,0.2430954-0.6167469,0.1795359-0.9371643,0.16471C16.5379124,8.7989607,16.5067635,8.725461,16.7168274,8.2629223z"/>
	<path fill="#240907" d="M15.0032387,4.7834191c0,1.274704,0,2.549408,0,3.8241105
		c-0.0382004,0.0005121-0.0763988,0.0010223-0.1145992,0.0015345c0-1.2750502,0-2.5500994,0-3.8251486
		C14.9268398,4.7837505,14.9650383,4.7835846,15.0032387,4.7834191z"/>
	<path fill="#240D0B" d="M12.9553795,8.6812325c0.0001554-0.7285814,0.0039797-1.4571891-0.0022602-2.1857243
		c-0.0014572-0.1702828,0.0645723-0.3604622-0.113842-0.4991884c-0.0925684-0.087935-0.4754076-0.0905423-0.1085758-0.3135219
		c0.2345619,0.029943,0.5948486-0.1361332,0.5642624,0.3072028c-0.109355,0.7811975-0.0155592,1.5662389-0.0554781,2.3484125
		C13.2316637,8.4916506,13.3608446,8.7885666,12.9553795,8.6812325z"/>
	<path fill="#250A09" d="M15.9853716,4.5700927l-0.0493555,0.0060959c0,0-0.049716-0.0025969-0.0495758-0.0028491
		c-0.0206089-0.1632614,0.0199976-0.2933865,0.231039-0.291626c1.0623512,0.0088611,2.1246624,0.0218253,3.1869183,0.0373821
		c0.0240383,0.0003519,0.0472507,0.0484328,0.1609058,0.1727829c-0.4671135,0-0.8518829-0.0142016-1.2349873,0.0030198
		C17.4822426,4.5285258,16.7277031,4.3995414,15.9853716,4.5700927z"/>
	<path fill="#260707" d="M22.7470474,6.3100977c-0.3110428,0.07693-0.3286247-0.1788812-0.4394417-0.3289781
		c-0.2506561-0.2391572-0.233181-0.5509701-0.2721405-0.8472118c0.0025387-0.0515957,0.0116863-0.1030941,0.0242271-0.1533494
		c0.0698452-0.1690569,0.0809498-0.3273478-0.1015415-0.4499679c-0.0538845-0.0733914-0.0677299-0.1428237,0.02285-0.2023973
		c0.1504459-0.0671263,0.2958107-0.0581131,0.4371529,0.0227957c0.1353798,0.1324878,0.1843853,0.306592,0.2659874,0.465435
		C22.7493362,5.3126731,23.055439,5.8006225,22.7470474,6.3100977z"/>
	<path fill="#231314" d="M7.6973124,8.5723114C7.3750739,8.6195135,7.341105,8.5971193,7.4228516,8.4918671
		c0.4347882-0.5598049,0.7688608-1.1704392,1.1134501-1.777288c0.0528727-0.0931149,0.1687069-0.0321183,0.2307749,0.0503101
		c0.056097,0.1249132,0.0068989,0.2425294-0.0280161,0.3613644C8.513545,7.5321221,8.345171,7.9648414,8.0736694,8.3499746
		c-0.051755,0.0525923-0.1087499,0.1002827-0.1688137,0.144906C7.8439221,8.5390253,7.777565,8.5717392,7.6973124,8.5723114z"/>
	<path fill="#02EEF2" d="M7.9339075,8.3540888C8.178443,7.9358602,8.4229794,7.5176315,8.6675138,7.0994034
		c0.0484428-0.0909977,0.1266766-0.083014,0.2110844-0.0542684c0.1836081,0.216857,0.0324793,0.3962665-0.0805407,0.5770726
		c-0.1039391,0.166275-0.2267056,0.3233032-0.303462,0.5384398c0.2540703,0.1378822,0.5273447,0.0272532,0.7745714,0.0775023
		c0.02666,0.0029573,0.0533075,0.0062361,0.0799541,0.0095158c0.0328894,0.0084658,0.0664082,0.0127983,0.1005535,0.0130014
		c-0.0000048,0.0000029-0.001483-0.0035982-0.001483-0.0035982c0.1844921,0.3400955-0.0143032,0.4224339-0.3219671,0.3640156
		c-0.32446-0.0616064-0.6379471-0.0257788-0.9563761,0.0061493C7.9737053,8.6222439,7.816833,8.5885077,7.9339075,8.3540888z"/>
	<path fill="#240D0C" d="M12.4922562,12.500474c-0.7907486,0-1.5814981,0-2.3722467,0
		c0.0010958-0.0343895,0.0021906-0.068779,0.0032854-0.1031685c0.7900877,0,1.5801744,0,2.3702612,0
		C12.4931231,12.431695,12.492691,12.4660845,12.4922562,12.500474z"/>
	<path fill="#231415" d="M12.7238913,9.4336281c0.5683718,0.3650579,0.6126795,0.5734606,0.1496315,0.9786415
		c-0.2028751,0.1775227-0.3063955,0.4594173-0.6188517,0.5271463c-0.0163851-0.0190697-0.0327711-0.0381393-0.0493956-0.0571718
		c-0.0471525-0.1528845,0.0250845-0.2872982,0.076273-0.4252748c0.1073265-0.2379942,0.4014635-0.3872986,0.380908-0.6855764
		C12.6942806,9.660697,12.675168,9.5418024,12.7238913,9.4336281z"/>
	<path fill="#260504" d="M17.9763298,2.5580406c-0.1575775,0.0000198-0.3151569,0.0000393-0.4727345,0.0000565
		c-0.6628647-0.3782566-1.3982258-0.1530387-2.0992022-0.2140634c-0.0793304-0.0520575-0.1813536-0.0934567-0.1179066-0.2127757
		c0.5043192-0.2713488,1.037118-0.1479039,1.5603228-0.0823059c0.282877,0.0354667,0.558342,0.1194105,0.8350334,0.1900218
		C17.827219,2.308044,17.9967213,2.3590872,17.9763298,2.5580406z"/>
	<path fill="#303030" d="M22.1683788,5.0309405c0.0463047,0.3167963,0.0926094,0.6335921,0.1390705,0.9502835
		c0.020092,0.3281851-0.1220131,0.5003176-0.5033855,0.4500999c-0.0749664-0.009871-0.1564331-0.0154324-0.2286835,0.0006847
		c-0.6041374,0.1347709-0.8537636-0.1477876-0.9191589-0.6531992c-0.1144238-0.0854564-0.113884-0.2044935-0.1117153-0.3239236
		c0.0050545-0.0879493,0.0338421-0.1664968,0.1073647-0.2265525c0.3248558,0.069046,0.3035488,0.3431211,0.3543549,0.5518122
		c0.0922356,0.3788552,0.3740692,0.4261394,0.7068901,0.382123c0.3922329-0.0518727,0.2706451-0.3263426,0.2451553-0.5466452
		c-0.0226097-0.1954317-0.0779877-0.3904533,0.0536308-0.5729771C22.0606079,4.9973254,22.1127701,4.993608,22.1683788,5.0309405z"
		/>
	<path fill="#250A09" d="M12.6837006,4.2970281c0.6391315-0.0213385,1.2785673-0.0543427,1.9152269,0.0185471
		c-0.0007277,0.0461116-0.0014553,0.0922236-0.002182,0.1383352c-0.6383696,0-1.2767391,0-1.9151106,0
		C12.6823235,4.4016161,12.683012,4.3493223,12.6837006,4.2970281z"/>
	<path fill="#212222" d="M22.7470474,6.3100977c0.0036221-0.5087633-0.0910416-1.004806-0.2280159-1.4953718
		c0.0405426-0.0367479,0.0887756-0.0541091,0.1456242-0.049418c0.3493462,0.2273021,0.2843742,0.5869884,0.3504314,0.9082689
		c0.0243111,0.1182389-0.1283264,0.3684716,0.2148037,0.3096862c0.0571918-0.0032835,0.1036701,0.0152435,0.1428185,0.0522938
		c0.0585442,0.1024299,0.0497799,0.1970081-0.0362988,0.2829976c-0.2359543,0.1288729-0.4719067,0.2577453-0.7153549,0.3907118
		C22.4685631,6.5161428,22.74436,6.4497724,22.7470474,6.3100977z"/>
	<path fill="#05D9DD" d="M10.2556505,11.8830481c0.5723057,0.2976875,1.1819038,0.0181513,1.8684711,0.1800947
		c-0.1912813-0.3241482-0.5693598-0.369009-0.5728407-0.6699915c0.2197018,0.1415014,0.4394102,0.2830029,0.659071,0.4245205
		c0.0603209,0.0849524,0.224659,0.123168,0.1871538,0.2447004c-0.0416832,0.1350784-0.1910257,0.0825167-0.2990828,0.0826759
		c-0.5612364,0.0008297-1.1224794-0.0023661-1.6837206-0.0033083C10.1951046,12.1413717,9.9623117,12.1501102,10.2556505,11.8830481
		z"/>
	<path fill="#1F2B2D" d="M16.7168274,8.2629223c-0.1558418,0.3680315-0.0247097,0.510005,0.4014759,0.4600525
		c0.2787075-0.0326643,0.5684242,0.0392637,0.8418121-0.0662622c-0.0361385,0.0791101-0.0722733,0.1582403-0.1084061,0.2373686
		c-0.3865471,0.172184-0.7741604,0.163146-1.1626453,0.0057964c-0.0986176-0.0035067-0.187273-0.0251894-0.240387-0.1118488
		C16.4585629,8.5785255,16.481514,8.3746843,16.7168274,8.2629223z"/>
	<path fill="#231616" d="M19.5958366,5.3424764c0.00033-0.2101245,0.0006599-0.420249,0.0009079-0.6303291
		c0.4029465,0.012219,0.3515892,0.3661876,0.3122711,0.5126071c-0.0725098,0.2700229-0.1106739,0.5966339-0.4191551,0.7739825
		c-0.0777912-0.0566106-0.1109371-0.1343699-0.124733-0.2216516C19.3426838,5.5876384,19.4217701,5.4435725,19.5958366,5.3424764z"
		/>
	<path fill="#221F20" d="M12.9553795,8.6812325c0.2910604-0.0353298,0.2307024-0.2440567,0.2320013-0.4131231
		c0.0045347-0.5895834-0.0018415-1.1792436,0.0039349-1.7688088c0.0016975-0.1732497-0.0551901-0.3613238,0.1037159-0.509253
		c0.0030289,0.8050199,0.0126934,1.6101446,0.0041199,2.4151068C13.2972574,8.5828104,13.3952742,8.9363947,12.9553795,8.6812325z"
		/>
	<path fill="#241112" d="M10.6078043,11.3632832c-0.1211576,0.0357847-0.0870924,0.1427078-0.1185617,0.2195959
		c-0.3475027,0.0233803-0.4362278,0.3675737-0.7539978,0.5241671c0.0024548-0.3485098,0.4407616-0.4382267,0.4201832-0.7369061
		c0.0001707-0.0361166,0.000349-0.0722446,0.0005264-0.1083717c0.1599655-0.1053238,0.1436214-0.2919216,0.233326-0.4296341
		l0.0000706-0.0003328c0.0807495-0.0638218,0.1667156-0.0629578,0.2565098-0.0176401
		c0.0421152,0.0442982,0.0702705,0.0951452,0.0852613,0.1523142C10.7415352,11.1122065,10.7461901,11.256691,10.6078043,11.3632832z
		"/>
	<path fill="#260101" d="M12.7238913,9.4336281c0.0694304,0.1074772,0.0696497,0.214509-0.0024347,0.3210754
		c-0.1660318,0.0572729-0.2376032-0.0509205-0.3141718-0.1509705c-0.0726671-0.176507-0.1999025-0.3143177-0.3623991-0.4271288
		c-0.078043-0.0684462-0.1202574-0.1544304-0.1459169-0.2488842c-0.0207453-0.1173096-0.0779686-0.2355118,0.0054607-0.3513966
		c0.039094-0.0359964,0.0781879-0.0719919,0.1172791-0.1079836C12.2557669,8.7901049,12.4898291,9.111867,12.7238913,9.4336281z"/>
	<path fill="#260403" d="M20.6382465,5.4694462c0.0059662,0.1031427,0.0119305,0.206286,0.0179367,0.3093963
		c-0.0108299,0.1532922-0.0217037,0.3066168-0.0370922,0.5236392c-0.315134-0.2850389-0.1503487-0.5835052-0.1998215-0.8431387
		c0.0087662-0.2119732-0.2624874-0.4187379-0.0139141-0.63517C20.6871681,4.9767118,20.5346146,5.262321,20.6382465,5.4694462z"/>
	<path fill="#240F0F" d="M16.6890659,8.8998775c0.3875561-0.0018988,0.7751122-0.0037966,1.1626568-0.0057459
		c-0.1695824,0.2545338-0.9522686,0.3255072-1.1909313,0.1040201C16.6476936,8.9859962,16.678627,8.9335632,16.6890659,8.8998775z"
		/>
	<path fill="#18575E" d="M8.8578501,7.0252461c-0.0634508,0.024714-0.1269016,0.0494275-0.1903448,0.0741496
		C8.5926037,6.9605851,8.6965799,6.8668466,8.7669888,6.7647581c0.1299963-0.0502191,0.2023067-0.2473879,0.3801928-0.1593027
		c0.1368504,0.0677633,0.0868874,0.2183828,0.0889654,0.3346639c0.0027857,0.1558914-0.0148973,0.3120956-0.0237923,0.4681654
		C9.167676,7.438211,9.1178808,7.4480386,9.0636654,7.4405637C8.8173523,7.3769598,9.0685196,7.1039915,8.8578501,7.0252461z"/>
	<path fill="#240D0C" d="M14.7391977,8.9434156c-0.4925213,0.2461891-0.8645134,0.175108-1.4028635,0.0933046
		C13.8562193,8.8373461,14.2277946,8.9020557,14.7391977,8.9434156z"/>
	<path fill="#250504" d="M15.2843885,2.2347038c0.0399981,0.0364387,0.079998,0.0728772,0.1200018,0.1093228
		c-0.4192724-0.0882967-0.6879368,0.2446585-1.049262,0.3184075c-0.0763731-0.0666084-0.1527462-0.1331809-0.2291183-0.1997533
		c0.0056868-0.0565414,0.0292902-0.1057966,0.0703754-0.1482191c0.0449524-0.0373981,0.0956593-0.0664523,0.1511221-0.0886817
		C14.6604977,2.1422796,14.9747782,2.0024781,15.2843885,2.2347038z"/>
	<path fill="#241314" d="M11.6711559,7.5009828c-0.1855955-0.6805096-0.1859035-1.3610024,0.0001965-2.0414777
		C11.6712818,6.1399999,11.6712189,6.8204913,11.6711559,7.5009828z"/>
	<path fill="#250504" d="M15.8761015,6.3241758c0.3076658,0.0005622,0.6153288,0.0011253,0.9229536,0.0017586
		C16.6774216,6.6295586,16.1757355,6.6285644,15.8761015,6.3241758z"/>
	<path fill="#24100F" d="M12.3823919,5.4944048c-0.1434116-0.2423134-0.1733971-0.4828162-0.0082788-0.8265615
		C12.5339556,5.0161972,12.4792032,5.255578,12.3823919,5.4944048z"/>
	<path fill="#250C0C" d="M18.667963,7.9307323c-0.1191998,0.2832513-0.2215042,0.5754571-0.5246716,0.849092
		c0.0167618-0.2262449,0.0284367-0.383853,0.0400963-0.5414753c-0.0000191-0.0000143-0.0015717,0.0058737-0.0015717,0.0058737
		c0.1218204-0.0590353,0.0672722-0.2257309,0.1998863-0.2785263C18.4713631,7.9137669,18.5619812,7.868206,18.667963,7.9307323z"/>
	<path fill="#250A09" d="M23.3364105,6.3185554c-0.0024166-0.1095157-0.0048294-0.2190318-0.0072441-0.328548
		c0.0037251-0.0232286,0.0074463-0.0464573,0.0104313-0.0698695c0.0450268-0.110991,0.0939083-0.2204962,0.1578503-0.3242149
		c0.0329342-0.0400882,0.0750732-0.0678306,0.1274643-0.0823169c0.1090431,0.0077929,0.2244644,0.0098429,0.1788254,0.1622319
		c-0.0076637,0.2359996-0.3054218,0.3810744-0.2367096,0.6409893C23.4901466,6.3173847,23.4132786,6.3179703,23.3364105,6.3185554z"
		/>
	<path fill="#260706" d="M18.667963,7.9307323c-0.0772133,0.0358453-0.1544266,0.0716891-0.2316399,0.1075349
		c-0.07341-0.0626221-0.0603447-0.1370287-0.0343914-0.2132163c0.2061634-0.2426848,0.1563015-0.6086874,0.4569244-0.8061662
		c0.0573921-0.0071344,0.1118088,0.0021076,0.1637516,0.0252051c0.0746574,0.1495452-0.0591488,0.2388082-0.119133,0.349443
		C18.8249702,7.5725989,18.7464657,7.7516651,18.667963,7.9307323z"/>
	<path fill="#240C0A" d="M15.6081867,4.8167787c0,0.4202023,0,0.840404,0,1.2606058
		c-0.0173655,0.0003304-0.034729,0.0006609-0.0520945,0.0009913c0-0.4202323,0-0.8404651,0-1.2606974
		C15.5734577,4.8173785,15.5908213,4.8170786,15.6081867,4.8167787z"/>
	<path fill="#270202" d="M19.0180683,7.0708723c-0.0378437,0.0000539-0.0756836,0.0001974-0.1135273,0.0004301
		c-0.1640091-0.261065,0.0584927-0.4380121,0.1640911-0.6405602c0.0258465-0.084146,0.0741386-0.142436,0.180954-0.1337743
		c0.0558548,0.0424943,0.0574245,0.0866289,0.00494,0.1323929C19.2143841,6.6063972,19.174242,6.7834344,19.1341,6.9604712
		C19.0956497,6.9974737,19.0855083,7.059732,19.0180683,7.0708723z"/>
	<path fill="#221818" d="M9.5705824,5.6743064C9.4529352,6.0263438,9.8294153,6.467052,9.3426037,6.7528777
		C9.5952034,6.4250584,9.3046398,5.9997673,9.5705824,5.6743064z"/>
	<path fill="#02EEF2" d="M9.1048822,7.4170485c0.0355825-0.0055108,0.0714149-0.0084438,0.1074839-0.008781
		c0.045577,0.2798119,0.0911665,0.5596061,0.1367559,0.8393989C9.3491211,8.2476654,9.313077,8.2598228,9.313077,8.2598228
		C8.8146238,8.0688667,8.9017048,7.7551298,9.1048822,7.4170485z"/>
	<path fill="#260605" d="M19.2545261,6.4293609c-0.0006962-0.0372043-0.0013943-0.0744095-0.0020905-0.1116138
		c-0.1004181-0.2455177-0.1052895-0.4559584,0.2336292-0.5401878c0.0012379,0.0737104,0.0024719,0.1474214,0.0037498,0.2211547
		C19.4670925,6.1681061,19.40205,6.3178635,19.2545261,6.4293609z"/>
	<path fill="#240D0B" d="M12.2546711,10.9394159c-0.0872192,0.1967897-0.2659721,0.2253847-0.4658337,0.2151937
		c0.0000019,0.0000029,0.000267-0.0002365,0.000267-0.0002365c-0.123702-0.2049398,0.0127563-0.2692165,0.1961622-0.3084908
		c0.1046934-0.0046902,0.1921797,0.0329447,0.2699738,0.0940876L12.2546711,10.9394159z"/>
	<path fill="#221F20" d="M12.7307014,5.6827979c-0.1524143,0.1599398,0.0478315,0.2162323,0.1085672,0.3135266
		c-0.1257772-0.0122266-0.2910242,0.0318446-0.3241854-0.1374884C12.4873161,5.7170334,12.6067839,5.6881919,12.7307014,5.6827979z"
		/>
	<path fill="#221C1D" d="M19.0180683,7.0708723c0.0386944-0.0367765,0.0773869-0.0735536,0.1160564-0.1103659
		c0.0145683,0.1856704-0.0176086,0.3502331-0.2306557,0.4330277C18.9416733,7.2859793,18.9798717,7.1784263,19.0180683,7.0708723z"
		/>
	<path fill="#221A1B" d="M10.1534824,3.8465993c-0.0120163,0.1732285-0.0828352,0.3200896-0.2288332,0.4332554
		C9.9238386,4.2072392,9.923008,4.1345987,9.9221716,4.0619507C9.9992714,3.9901614,10.0763769,3.9183805,10.1534824,3.8465993z"/>
	<path fill="#1B4447" d="M7.6973119,8.5723104c0.0417347-0.0349016,0.0834694-0.0698042,0.1252046-0.1047058
		C7.8884969,8.5501747,7.9621997,8.6256094,8.0562153,8.682272C8.0079556,8.7686796,7.9187937,8.7870064,7.8261971,8.7996788
		C7.7271881,8.7509212,7.70578,8.6647291,7.6973119,8.5723104z"/>
	<path fill="#221717" d="M10.6487579,3.4582479c-0.0507679-0.1020501-0.1430092-0.1419871-0.2587795-0.1466596
		c0.492363-0.7508085,1.1848583-1.3247499,1.921874-1.8624132c0.1770029-0.1291263,0.4229221-0.1830039,0.5260639-0.3953539
		c0.0386419-0.0002728,0.0772905-0.0004525,0.1159401-0.0005406c0.1588726-0.0995185,0.370739-0.1305983,0.4690638-0.3083088
		c0.1691723,0.0047454,0.3215599-0.0446168,0.4651108-0.1224696c0.1691332-0.1333157,0.4178963-0.0755911,0.5874681-0.2078528
		c0.0761871-0.0019125,0.1523733-0.0038252,0.2285557-0.0057424c0.6181412-0.0000722,1.237998,0.0262101,1.85394-0.0077753
		c0.590992-0.032609,1.1205635,0.1186264,1.6437664,0.3323546c-0.1422291,0.1368504-0.3339005,0.1591721-0.5212307,0.1923988
		c-1.2045956-0.1912671-2.4052639-0.2796109-3.5853024,0.1232527c-0.2362299,0.0597585-0.4774847,0.1090006-0.68258,0.2439308
		c-0.0430984,0.0279857-0.0890045,0.0519896-0.1353912,0.0748496c-0.2781382,0.1211059-0.5578756,0.2400599-0.7840996,0.4400544
		c-0.0383396,0.0309545-0.0799446,0.0579603-0.1224232,0.0836252c-0.2448044,0.1241957-0.4262571,0.3161963-0.6197147,0.4952811
		c-0.0517693,0.0515263-0.1059437,0.100713-0.1602306,0.1499112c-0.168808,0.1456754-0.3221884,0.3028977-0.4382,0.4888685
		C10.9998188,3.1847661,10.9295416,3.4260504,10.6487579,3.4582479z"/>
	<path fill="#262626" d="M14.4754992,0.4146494c-0.1258364,0.2371778-0.3614254,0.211095-0.587472,0.2078719
		C14.0093431,0.3744602,14.2486963,0.4096096,14.4754992,0.4146494z"/>
	<path fill="#221B1B" d="M13.4229202,0.7449718c-0.0265131,0.2704275-0.2247143,0.3191553-0.4690514,0.3083168
		C13.0446243,0.8658121,13.2411728,0.8149482,13.4229202,0.7449718z"/>
	<path fill="#262626" d="M15.6338854,0.2071541c-0.1685877,0.1597113-0.3849516,0.0707315-0.5796509,0.0945269
		C15.2202024,0.1283347,15.4360447,0.2145968,15.6338854,0.2071541z"/>
	<path fill="#241111" d="M24.1515007,3.9547043c0.0374432,0.0354712,0.0748882,0.0709424,0.1123314,0.1064129
		c-0.4724197,0.5598559-1.0676537,0.5088868-1.6964664,0.2906494c-0.2508392-0.5150342-0.8365135-0.8062699-1.0549469-1.3514104
		c-0.1012917-0.2527933-0.2609653-0.5018637-0.0915928-0.7513728c0.163456-0.2407949-0.2976036-0.2664198-0.147625-0.4713429
		c0.0356865-0.3004453,0.1302776-0.5665424,0.4769001-0.6839803c0.0541306-0.0125798,0.10882-0.0155964,0.1642799-0.0103289
		c0.0546818,0.0134287,0.1014652,0.0388956,0.1392899,0.0778677c-0.1077423,0.1794547-0.2154865,0.3589098-0.3232269,0.5383646
		c0.5534821-0.3460789,0.9772243-0.9173767,1.7838249-0.7186735c0.6705227,0.1651808,1.0638332,0.5952109,1.3350506,1.1496767
		c-0.0932064,0.2495725-0.0939522,0.4990978,0.0004482,0.7485747c-0.1508751,0.3434625-0.3529549,0.6517129-0.6980228,0.8616407
		C24.1601601,3.8120978,23.8823872,3.8831367,24.1515007,3.9547043z"/>
	<path fill="#262626" d="M21.9351826,1.1613718c-0.0557289-0.0078455-0.1114578-0.0156909-0.1671867-0.0235364
		c-0.1046772-0.1583948-0.2668037-0.1757993-0.4498768-0.172008c-0.4224644,0.0087488-0.8500843,0.0441208-1.2661877-0.0170138
		c-0.3296871-0.0484383-0.2476883,0.1673121-0.3023186,0.3061931c-0.1173744,0.0854931-0.215519,0.0217028-0.3156013-0.0329599
		c-0.1395264-0.1381825-0.33074-0.2605951-0.1819782-0.4896097c0.0529327-0.0881799,0.1435757-0.1068366,0.2418823-0.1113633
		c0.8109493-0.0821692,1.6218891-0.0802074,2.4328213,0.0002133c0.0808754,0.036894,0.1617489,0.0737877,0.2426243,0.1106815
		C22.3373032,0.9889812,22.0611362,1.0404087,21.9351826,1.1613718z"/>
	<path fill="#212322" d="M22.5241108,4.2736988c0.6077995,0.1227355,1.1994839,0.1334944,1.7397652-0.2125673
		c0.1763573-0.0165381,0.4545078-0.1270337,0.2383003,0.2190423c0.0837154,0.1410508-0.0255375,0.2409711-0.0878391,0.3509564
		c-0.0824432,0.0753932-0.1698303,0.1299939-0.2865639,0.0560284c-0.5167408-0.2014108-1.0054379-0.1186166-1.4784241,0.1240678
		c-0.0434437,0.0011668-0.0868893,0.0023336-0.1303253,0.0034995c-0.0793114-0.1313429-0.1366463-0.2680955-0.1224651-0.4224477
		C22.3687916,4.288578,22.4123726,4.2500229,22.5241108,4.2736988z"/>
	<path fill="#250404" d="M19.4872856,1.1675649c0.0865173,0.0285378,0.1730328,0.0570754,0.2595501,0.0856134
		c0.0523758-0.0122085,0.0914879,0.0024222,0.1152477,0.0483752c-0.0305176,0.1573877-0.2012939,0.1891838-0.3001785,0.2863611
		C19.5207977,1.6182255,19.475172,1.639448,19.42449,1.6523829c-0.1440163,0.0173863-0.2581825-0.0440845-0.3688011-0.1162028
		c-0.3685284-0.3432649-0.9747639-0.3123269-1.3111763-0.7058325c0.1225815-0.1518534,0.3003693-0.0825696,0.4572659-0.0968829
		c0.2550468,0.1440501,0.5230827,0.2601593,0.8163433,0.3219786C19.1689949,1.1124034,19.3284512,1.1388843,19.4872856,1.1675649z"
		/>
	<path fill="#260201" d="M21.9267368,0.621287c-0.8110027-0.0000491-1.6220016-0.000098-2.4329147-0.0001803
		c0.0192719-0.0305614,0.0388947-0.0880039,0.0575657-0.0877431C20.3439083,0.5444295,21.1437302,0.3983876,21.9267368,0.621287z"/>
	<path fill="#221B1C" d="M19.4872856,1.1675649c-0.2233028,0.2002211-0.3506603,0.0597913-0.4691505-0.1121424
		c0.1002064-0.0939817-0.1906147-0.4283599,0.2339058-0.3229954C19.2361393,0.9207614,19.423584,1.0157685,19.4872856,1.1675649z"/>
	<path fill="#231211" d="M23.8037376,5.675838c-0.0527306-0.0879912-0.1430073-0.1079659-0.2414551-0.1131411
		c-0.0685024-0.1694646,0.0334606-0.2796712,0.1559525-0.3833137c0.0884628-0.0576863,0.1835194-0.1005378,0.294157-0.1065698
		c0.0544682,0.0047841,0.1003418,0.0259666,0.137537,0.0631099C24.0217857,5.3089576,24.0686913,5.5772653,23.8037376,5.675838z"/>
	<path fill="#231211" d="M24.3844452,4.5979023c0.0392361-0.1059308,0.0784721-0.2118616,0.1177177-0.3177609
		c0.4454956,0.2697997-0.077877,0.3558655-0.1191158,0.5333471C24.3127403,4.7412367,24.3178062,4.6693997,24.3844452,4.5979023z"/>
	<path fill="#221A1A" d="M21.9351826,1.1613718c0.0676785-0.1479399,0.2489567-0.2432969,0.2341671-0.4294077
		c0.488306,0.2636657-0.0414352,0.2943361-0.1156998,0.4292396C22.0141754,1.1612568,21.974678,1.1613144,21.9351826,1.1613718z"/>
	<path fill="#270000" d="M24.3844452,4.5979028c-0.0004559,0.0718713-0.0009117,0.143743-0.0013828,0.2156
		c-0.077713,0.1074729-0.1554089,0.2149601-0.2331181,0.3224339c-0.0391312,0.0005322-0.0782509,0.0010772-0.1173668,0.0016227
		c-0.1388645-0.1460099-0.0428619-0.2707281,0.041954-0.3966999c0.0207481-0.0151505,0.0418758-0.0300274,0.0630035-0.0449038
		C24.2198391,4.6632714,24.3021412,4.6305871,24.3844452,4.5979028z"/>
	<path fill="#260404" d="M24.8497677,2.8791416c-0.1824341-0.2494583-0.1819725-0.4990029-0.0004311-0.7486036
		C24.8494701,2.3800917,24.8496189,2.6296167,24.8497677,2.8791416z"/>
	<path fill="#221A19" d="M24.1515026,3.9547043c-0.1169872,0.0376968-0.2202053,0.1360207-0.4122982,0.0641122
		c0.1574783-0.1061406,0.2850037-0.1920934,0.4125347-0.2780399C24.1516647,3.8120897,24.1515827,3.8833969,24.1515026,3.9547043z"
		/>
	<path fill="#01F1F4" d="M9.559145,9.585535c0.1201153,0.12883,0.2402315,0.2576609,0.3603458,0.3864918
		c0.2893219,0.3606644,0.2109137,0.7151566-0.0211029,1.0670691l0.0075083-0.0115728
		c-0.1211281,0.2470789-0.3325243,0.4134598-0.5783014,0.5491076l0.0062618-0.0057001
		c-0.6514263,0.3345242-1.246666,0.1846323-1.7274542-0.4350042l0.0070963,0.0080223
		c-0.3555365-0.4060364-0.3059316-0.8304853-0.0678043-1.2634459c0.2792473-0.3199568,0.5868111-0.6120462,1.0607958-0.6498833
		C8.9798241,9.2008171,9.3253403,9.2768536,9.559145,9.585535z"/>
	<path fill="#212020" d="M10.6177139,10.8350792c-0.0761223-0.001091-0.1522446-0.002182-0.2283649-0.0032759
		c0.1248741-0.6554976-0.2326183-1.1375837-0.709795-1.5448322C8.9749193,8.6855984,8.9606667,8.6997738,8.1449099,8.6688013
		C8.1224413,8.6303234,8.1302977,8.5981226,8.1684732,8.5722017c0.3011246-0.0778074,0.6071863-0.1205692,0.9113941-0.0320454
		c0.2990046,0.0870104,0.3847504-0.0351391,0.368329-0.2830887c0.0483437,0.0330648,0.096694,0.0661287,0.1450424,0.0991917
		c0.1901999,0.1378145,0.469698,0.2285509,0.3341942,0.5380764c0.3369303,0.5094566,0.6239977,1.0482559,1.0454359,1.5079832
		c-0.0482788,0.1046677-0.036664,0.222909-0.0869312,0.3275166C10.8167677,10.8087215,10.7255688,10.8400249,10.6177139,10.8350792z
		"/>
	<path fill="#221818" d="M9.559145,9.585535C8.7082748,9.137639,8.3450527,9.1901865,7.6007595,9.8688574
		C7.5555024,9.9254417,7.5129251,9.9237785,7.4730277,9.8638687c0.6184087-0.7123423,1.0787148-0.8823023,1.7075019-0.642787
		C9.3705721,9.2934723,9.5159855,9.3906355,9.559145,9.585535z"/>
	<path fill="#212121" d="M7.6064024,11.1359262c0.4769258,0.4783239,1.0307655,0.6974182,1.7274542,0.4350357
		C8.8046455,12.028039,7.8647308,11.7913513,7.6064024,11.1359262z"/>
	<path fill="#202223" d="M7.4730277,9.8638687c0.0425768,0.0016632,0.0851541,0.0033245,0.1277308,0.0049877
		c-0.2040839,0.4267864-0.1971498,0.8518,0.0126758,1.2751017C7.0779915,10.7627745,7.2003284,10.3203249,7.4730277,9.8638687z"/>
	<path fill="#221C1C" d="M9.8983879,11.0390959c0.1265764-0.3536825,0.1315298-0.7094069,0.0211039-1.0670691
		C10.3054581,10.3343134,10.2638903,10.6894236,9.8983879,11.0390959z"/>
	<path fill="#211C1D" d="M9.3275948,11.5766296c0.1928015-0.182991,0.385602-0.3659801,0.5783529-0.5490389
		C9.877347,11.3573637,9.6709385,11.528204,9.3275948,11.5766296z"/>
	<path fill="#231615" d="M10.3892803,10.8321342c-0.0224876,0.1686983,0.079339,0.3947029-0.233326,0.4296341
		C10.1748075,11.0913954,10.2375746,10.9412651,10.3892803,10.8321342z"/>
	<path fill="#0DA0A8" d="M8.1684732,8.5722017C8.1727095,8.606904,8.1648932,8.6391249,8.1449671,8.6688328
		c-0.0000572-0.0000315-0.0456629-0.000329-0.0456629-0.000329s-0.043088,0.0137701-0.0430889,0.0137691
		C7.9066567,8.6769371,7.8292856,8.6048937,7.8225179,8.4676056c0.0371284-0.037838,0.0742598-0.075675,0.1113896-0.1135139
		C7.9573884,8.4767332,8.0230312,8.5608912,8.1684732,8.5722017z"/>
	<path fill="#00EAFE" d="M12.7139311,5.4698873c-0.0946426-0.5506639,0.1717691-0.692523,0.7468882-0.6652522
		c1.1744175,0.0556879,0.9962215-0.132175,1.0083752,0.9498506c0.0092192,0.8208394-0.0191946,1.642601,0.0150137,2.4623275
		c0.0116692,0.279644-0.0289888,0.3947048-0.3465528,0.3607635c-0.2673206-0.0285721-0.6115265,0.0957489-0.6000538-0.3566656
		c0.0171862-0.6777802,0.0039759-1.3562131,0.0038443-2.034368c-0.0001459-0.7445688-0.0000715-0.7445688-0.8313532-0.7198071
		C12.7100658,5.4667573,12.7139311,5.4698873,12.7139311,5.4698873z"/>
	<path fill="#00F9FC" d="M19.1367378,1.4726698c0.1089802,0.0564195,0.1774349,0.189467,0.3365517,0.1510872
		c0.213438-0.0035303,0.3178768,0.1553857,0.4593544,0.2598172c0.3746777,0.3478563,0.7585125,0.6873224,1.1266747,1.0412474
		c0.1040497,0.1117656,0.1812115,0.2394712,0.2567616,0.3681314c0.0946102,0.1967249,0.2284508,0.3730953,0.3458519,0.5582018
		c0.0691681,0.1823416,0.1690788,0.3548198,0.2098103,0.5465255c0.0638981,0.2110543,0.2375374,0.3983679,0.1628284,0.6392541
		c0.0185585,0.1588387,0.0278702,0.3191442,0.0572376,0.4762688c0.1417294,0.7583342-0.153162,0.9987893-0.960825,0.7900577
		c-0.188427-0.048697-0.2262783-0.165421-0.2491913-0.3153877C20.8416252,5.7249913,20.8266468,5.454886,20.66749,5.2197247
		c-0.2281094-0.3758078-0.3076191-0.8152971-0.5896683-1.1679897l0.0014858,0.0072432
		c-0.0905724-0.1401465-0.2463264-0.2275751-0.3445072-0.3615651c-0.0398521-0.0570645-0.0797024-0.1141293-0.1195526-0.1711941
		c-0.1323891-0.1709213-0.2848072-0.3231413-0.4794903-0.4358988c-0.1963921-0.2625868-0.4589329-0.4436355-0.7880287-0.5426378
		c-0.1930599-0.0585415-0.3890934-0.1105275-0.5612545-0.2157922c-1.1874752-0.4074154-2.3746634-0.3839812-3.5618486,0.0000379
		l0.0059261-0.0010052c-0.2173872,0.1210229-0.4887304,0.154284-0.6626167,0.3459435
		c-0.1991854,0.0585408-0.3182688,0.237865-0.5197802,0.293005l0.0126295-0.0035851
		c-0.2693386,0.1967459-0.4790449,0.4512234-0.7439384,0.6522729c-0.2075195,0.0614431-0.1754007,0.2843039-0.3121796,0.393398
		c-0.0451403,0.1607575-0.1503954,0.2945304-0.2320976,0.4391599c-0.7899036,1.5308466-0.7109518,3.0231662,0.2321653,4.477448
		c-0.0076914,0.0828171-0.0121126,0.1643972,0.091382,0.2051802c0.170742,0.1106033,0.2912655,0.2584734,0.3775024,0.4317875
		c0.0504484,0.0988283,0.1058254,0.192174,0.247838,0.1891708c0.3008146,0.4164782-0.3388329,0.4587584-0.3517513,0.7504063
		c-0.1142864,0.1352053-0.1881447,0.3056345-0.3817072,0.3719244c-0.1626301,0.0231323-0.2619944-0.0404015-0.3010836-0.1864786
		c-0.1564875-0.1674385-0.312973-0.334877-0.4694595-0.5023155c-0.1196852-0.1453085-0.2513161-0.2821712-0.3615894-0.4341335
		c-0.0404615-0.0705805-0.0809231-0.14116-0.1213846-0.2117414c-1.208333-1.7273583-1.1969585-3.5346074-0.4163399-5.3919349
		c0.0858717-0.1797349,0.1872158-0.3522317,0.3027868-0.5176635c0.0092764-0.0581722,0.0185518-0.1163442,0.0278292-0.1745176
		c0.2552509-0.0737171,0.2609291-0.3431265,0.4401417-0.4764652c0.1440773-0.1892648,0.3349476-0.3428695,0.4782648-0.5327134
		c0.0343351-0.0318625,0.0686703-0.0637252,0.1030064-0.0955884c0.2656946-0.149282,0.4289179-0.4154469,0.719985-0.5357893
		l-0.0100889,0.0073274c0.2639179-0.2569895,0.6190529-0.3786077,0.9464788-0.5413458l-0.0109072,0.0088805
		c0.1810017-0.1646837,0.4434071-0.1742008,0.650569-0.2896254C15.7662191,0.4466469,17.4890518,0.6086659,19.1367378,1.4726698z"/>
	<path fill="#212121" d="M12.004734,8.928565c-0.839735-0.9568243-0.9417572-2.0690742-0.7619286-3.2239523
		c0.0734062-0.4714222,0.1979504-0.9453182,0.5381966-1.3349557c0.0372429,0.0210538,0.0532303,0.0457621,0.0480108,0.074132
		c-0.0055542,0.0301924-0.0134687,0.0452919-0.0237923,0.0452919c-0.6106901,1.3756762-0.7357531,2.7413445,0.0992184,4.0872359
		C11.960268,8.6883221,12.0352421,8.7956953,12.004734,8.928565z"/>
	<path fill="#241314" d="M12.3168459,3.6185591c0.1960239-0.2677009,0.4128008-0.5153065,0.743948-0.6522138
		C12.8837233,3.2523675,12.6633997,3.4965665,12.3168459,3.6185591z"/>
	<path fill="#212121" d="M13.5179338,2.6581929c0.193882-0.1897829,0.4255505-0.3097236,0.7126207-0.3272593
		c-0.0348759,0.0438399-0.0697489,0.0876906-0.1045837,0.1316442c-0.1552639,0.0696781-0.3105669,0.1392534-0.4658699,0.2088284
		C13.6071787,2.7175391,13.5597897,2.7131376,13.5179338,2.6581929z"/>
	<path fill="#221E1F" d="M13.5179338,2.6581929c0.0473604,0.0043731,0.0947199,0.0087464,0.1421232,0.0131662
		c-0.1895561,0.1245162-0.3385401,0.3196433-0.6118469,0.2985516C13.154665,2.8019016,13.3157587,2.703768,13.5179338,2.6581929z"/>
	<path fill="#241314" d="M11.8052206,4.4890809c-0.0080719-0.0398073-0.0161419-0.0796151-0.0242157-0.1194234
		c0.0124769-0.152132,0.1191559-0.2542391,0.2236605-0.3576007C12.0292635,4.2033157,11.947546,4.3569508,11.8052206,4.4890809z"/>
	<path fill="#02EEF0" d="M17.5160465,6.5528269c0.1046371-0.1553879,0.2092743-0.3107753,0.3139133-0.4661622
		c0.2044735,0.4572816,0.0738659,0.7574611-0.4314365,0.9915919c0,0-0.0337391-0.0234709-0.033741-0.0234718
		C17.4152012,6.8874645,17.4656219,6.7201457,17.5160465,6.5528269z"/>
	<path fill="#221E1F" d="M10.4058456,4.0673695c-0.8147011,1.8720889-0.6751375,3.6955571,0.3286352,5.4749947
		c-0.3342447-0.1583338-0.3068066-0.5527258-0.5782509-0.7520485c-0.2576675-0.1917105-0.351882-0.448329-0.3481913-0.7436981
		C9.8068733,7.9722857,9.8066273,7.8977494,9.8051739,7.823225c-0.2262487-1.2938333-0.1827564-2.5593386,0.4653778-3.7613425
		C10.3178101,4.0184803,10.3629084,4.0203085,10.4058456,4.0673695z"/>
	<path fill="#270302" d="M9.9096212,7.9510484c-0.0445452,0.3113675,0.2009811,0.5503898,0.2466049,0.8392692
		c-0.0494194,0.0848675-0.1334143,0.1052094-0.2288465,0.1040602c-0.1114511-0.1793518-0.2229548-0.3586607-0.3343-0.538044
		C9.6252794,8.3220301,9.65732,8.2878008,9.6893606,8.2535706C9.8537474,8.2089491,9.5978746,7.9045992,9.9096212,7.9510484z"/>
	<path fill="#221A1B" d="M10.4058456,4.0673695c-0.045085-0.0018239-0.0901699-0.0036478-0.1352739-0.0054793
		c0.0993805-0.1550994,0.1333055-0.355571,0.3503561-0.4291224C10.6384001,3.8150916,10.513484,3.9376016,10.4058456,4.0673695z"/>
	<path fill="#221818" d="M9.9096212,7.9510484C9.8362026,8.0518856,9.7627831,8.1527233,9.6893616,8.2535658
		c0.0170612-0.148365-0.0522509-0.3164701,0.1158228-0.4303384C9.8399897,7.8658328,9.8748055,7.9084401,9.9096212,7.9510484z"/>
	<path fill="#231718" d="M10.8593273,10.7180338c-0.0774746-0.1404381-0.1859522-0.2903385,0.1135349-0.3157177
		c0.2037697,0.1412201,0.3363066,0.3067694,0.2237797,0.5560341c-0.0415974,0.0245218-0.0842619,0.0250778-0.1279364,0.0051003
		C10.9786024,10.8964701,10.899683,10.8211946,10.8593273,10.7180338z"/>
	<path fill="#05D9DD" d="M11.0907917,10.926055c0.0339155,0.0145702,0.0691986,0.0253353,0.1058502,0.0322952
		c0.004158,0.0320196-0.0011425,0.0626488-0.0158997,0.0918932c-0.3243799-0.1029043-0.2942343,0.3449707-0.5729342,0.3130369
		c0.0102282-0.1317558,0.0204582-0.2635136,0.0306883-0.3952723C10.7734261,10.809104,10.9284344,10.8339529,11.0907917,10.926055z"
		/>
	<path fill="#231718" d="M11.6869144,10.6905556c0.1092072,0.0478916,0.1821918,0.1725225,0.3325481,0.133235
		c0.0307417,0.0261307,0.0409546,0.0522327,0.0306759,0.0783224c-0.0102692,0.0260687-0.0205317,0.0391092-0.0308313,0.0391092
		c-0.1501417,0.0037546-0.2268162,0.0748615-0.2302074,0.21315C11.488596,11.0495977,11.6896515,10.8510208,11.6869144,10.6905556z"
		/>
	<path fill="#221B1D" d="M10.8558655,9.7541065c0.210454,0.0811329,0.3189163,0.2343702,0.3615847,0.4341316
		C11.0193291,10.0983887,10.8652811,9.9773741,10.8558655,9.7541065z"/>
	<path fill="#00E9FE" d="M17.3985233,7.0782566c0.2532444-0.2900705,0.5183716-0.5757508,0.4314747-0.9915295
		c-0.0000381-0.0000625-0.0004559,0.0088973-0.0004559,0.0088973c0.1546822-0.1256981,0.2613487-0.2899837,0.1765289-0.4669681
		c-0.1002102-0.209095-0.3382359-0.1067648-0.5153332-0.1124983c-0.3067036-0.0099292-0.5701218-0.081336-0.683918,0.3872695
		c-0.0908833,0.3742542-0.595911,0.2130418-0.9372053,0.0937204c-0.0008984-0.0358353-0.0017986-0.0716705-0.0026999-0.1075058
		c0.0990276-0.3227091,0.1011772-0.6453037-0.0013418-0.9677753c0.0068932-0.0358305,0.0137835-0.071661,0.0206757-0.107492
		c1.1587076-0.0860929,2.3174238-0.0857301,3.4761457-0.0001588c0.0439281,0.0701518,0.1631184,0.1207323,0.0694408,0.2266684
		c-0.1346817,0.253448-0.0616493,0.5554018-0.2205887,0.8033428c-0.0198269,0.0192108-0.0400066,0.0381799-0.0601902,0.0571489
		c-0.4975147,0.3117304-0.4588757,0.8801374-0.7287445,1.3027763c-0.1453514,0.2276368-0.2166786,0.4948702-0.3270054,0.7421165
		c-0.3045979,0.6826172-0.3710709,0.7128096-1.2058773,0.5661707C17.057972,8.0340309,17.3281364,7.5862384,17.3985233,7.0782566z"
		/>
	<path fill="#02EEF0" d="M15.8696146,5.997148c0.3820181-0.0534606,0.9239187,0.2127857,0.9993391-0.453577
		c0.0137768-0.1217217,1.0761986-0.140933,1.1481991-0.0125084c0.1265545,0.2257309,0.1262779,0.447577-0.1874962,0.5645695
		c-0.0265999-0.1858988,0.3626289-0.4889832-0.0730515-0.5318198c-0.2751617-0.0270548-0.804121-0.3095016-0.880228,0.3269
		C16.8329773,6.2536087,16.2959347,6.3004146,15.8696146,5.997148z"/>
	<path fill="#02EEF0" d="M19.3623943,4.8142161c-1.1587353,0.0000591-2.3174706,0.0001178-3.4761782,0.0001678
		c0.0915136-0.1718907,0.2657862-0.1121011,0.4080725-0.112956c0.8870335-0.0053287,1.774147-0.0054688,2.6611748,0.0003338
		C19.0968571,4.7026863,19.2721462,4.6398702,19.3623943,4.8142161z"/>
	<path fill="#212121" d="M19.4860649,5.7775593c-0.1789436,0.1429715-0.236208,0.3306093-0.2336254,0.5402036
		c-0.0389061,0.0361948-0.0778084,0.0724058-0.1167107,0.1086173c-0.0452919,0.0440331-0.0888481,0.0426221-0.1306667-0.0042367
		c0.0486565-0.1735983,0.0973148-0.3471961,0.1459846-0.5207806c0.0000095,0.0000134-0.0041485,0.0006094-0.0041485,0.0006094
		c0.1283016-0.1750946,0.0239754-0.4628005,0.3180313-0.5576549c0.0436783-0.0005465,0.0873585-0.0010929,0.13097-0.0017405
		C19.5592442,5.4875035,19.5226536,5.6325312,19.4860649,5.7775593z"/>
	<path fill="#02EEF0" d="M19.4649296,5.3443174c-0.106041,0.1858549-0.21208,0.3717098-0.3180771,0.5576096
		c-0.010006-0.3164496,0.0129604-0.6236753,0.2849121-0.8610291C19.4428654,5.1420288,19.4538975,5.2431736,19.4649296,5.3443174z"
		/>
	<path fill="#02EEF0" d="M15.8655729,4.9218669c0.1957655,0.3223643,0.1938505,0.6449628,0.0013456,0.9677811
		C15.8664665,5.5670505,15.8660202,5.2444587,15.8655729,4.9218669z"/>
	<path fill="#212121" d="M20.0778217,4.0517349c0.3336887,0.3305612,0.5010147,0.7324114,0.5896492,1.1679897
		c-0.0096684,0.0831971-0.0193558,0.1663947-0.0291348,0.2496562c-0.1459255-0.1941848-0.2037926-0.4153523-0.2328701-0.6452856
		C20.3283157,4.5551267,20.0836048,4.3464289,20.0778217,4.0517349z"/>
	<path fill="#222022" d="M19.1357574,3.0903201c0.2572002,0.054379,0.4122276,0.2041581,0.4794846,0.4358959
		C19.4032173,3.4296615,19.2463989,3.281549,19.1357574,3.0903201z"/>
	<path fill="#212121" d="M17.8775539,2.3345234c0.1905594,0.0076954,0.3444843,0.0839717,0.4701557,0.2131646
		c-0.1238308,0.003449-0.2476826,0.0069034-0.3714561,0.0103555c-0.0869732-0.0639448-0.1740246-0.1278872-0.2610722-0.1918302
		C17.7560177,2.2978537,17.8101425,2.2872913,17.8775539,2.3345234z"/>
	<path fill="#231719" d="M19.7348003,3.6974125c0.1994324,0.0520992,0.3072319,0.1783068,0.3444939,0.3615661
		C19.9036255,3.9876668,19.7695713,3.8826885,19.7348003,3.6974125z"/>
	<path fill="#221C1D" d="M19.0050621,6.4221435c0.0435581,0.0014133,0.0871181,0.0028267,0.1306725,0.0042381
		c-0.0929356,0.2101469-0.2590103,0.3980365-0.2312107,0.6449208c-0.2731628,0.1935201-0.2043991,0.5594339-0.454195,0.7647443
		c-0.062809-0.0420847-0.071722-0.0922933-0.0267467-0.1506243C18.562336,7.2428122,18.7483788,6.8186779,19.0050621,6.4221435z"/>
	<path fill="#212121" d="M18.4235821,7.6854224c0.0088425,0.0501399,0.0176849,0.1002789,0.026638,0.1505218
		c-0.0045586,0.0675092-0.0092258,0.1349158-0.013895,0.202323c-0.0848103,0.0686569-0.1696186,0.1373138-0.2544689,0.2059631
		C18.1790771,8.0273542,18.2905579,7.8524332,18.4235821,7.6854224z"/>
	<path fill="#212222" d="M21.8098164,4.3880644c-0.1436367-0.1529651-0.2321491-0.3280554-0.2511082-0.5310612
		c0.0399799-0.0344641,0.0870113-0.0477688,0.1362495-0.0416343c-0.0125561,0.0695593,0.0218849-0.038866,0.0415192,0.0304453
		c0.0156021,0.0550807,0.0597973,0.0386653,0.0371704,0.0053837c-0.2854767-0.4199345-0.6423569-0.7994902-0.8382244-1.2698214
		c0.1104527-0.2060103-0.1179409-0.3846283-0.0579033-0.5873046c0.1715527-0.0756714,0.2244225-0.3220576,0.476572-0.2820332
		c0.4354439,0.328795-0.0458565,0.8186455,0.2728977,1.209775c0.2480621,0.304388,0.3708515,0.6938024,0.7745304,0.8858752
		c0.2330132,0.1108689,0.1453114,0.2964623,0.1225224,0.4660585c-0.0424061,0.0394235-0.084877,0.0788951-0.1274185,0.1184492
		c-0.1504173-0.0010614-0.3007679-0.0022044-0.4511185-0.0033479C21.8998909,4.4447212,21.8546638,4.4444604,21.8098164,4.3880644z"
		/>
	<path fill="#212322" d="M21.8098164,4.3880644c0.0451488,0.000236,0.0902996,0.0004725,0.1355686,0.0007467
		c0.0353317,0.0346246,0.0705433,0.0692105,0.1057549,0.1037974c0.1422653,0.1185937,0.1090679,0.2787147,0.1194801,0.4285145
		c-0.0007477,0.0365953-0.0014954,0.0731912-0.0022411,0.1098022c-0.0446053,0.0019984-0.0892086,0.0039811-0.13381,0.0059862
		C21.9121838,4.8346009,21.8202934,4.623301,21.8098164,4.3880644z"/>
	<path fill="#260606" d="M22.17062,4.921123c-0.1608982-0.1141882-0.1023312-0.2803097-0.1194706-0.4285164
		C22.3804474,4.5669341,22.3286018,4.7314687,22.17062,4.921123z"/>
	<path fill="#00EBFE" d="M9.1048822,7.4170485C9.1489992,7.7033277,8.974061,8.035635,9.3132935,8.259841
		C8.998662,8.47474,8.647316,8.3045502,8.3144369,8.3659515C8.261858,7.8204713,8.9298668,7.5525069,8.8578796,7.025456
		C9.0334253,6.8989544,9.143589,6.9327369,9.0854158,7.1403332C9.0552444,7.2480063,9.0242205,7.3278632,9.1048822,7.4170485z"/>
	<path fill="#212121" d="M12.0193071,10.9412212c0.0000515-0.0391436,0.000103-0.0782871,0.0001564-0.1174307
		c0.0816526-0.1389685,0.1997404-0.243947,0.3502436-0.3186817c-0.0381565,0.1449509-0.0763102,0.2898998-0.1144667,0.4348545
		C12.1765957,10.9403868,12.0979519,10.9408035,12.0193071,10.9412212z"/>
	<path fill="#202526" d="M17.8775539,2.3345232c-0.0540295,0.0104604-0.108057,0.020921-0.1622295,0.0315356
		c-0.6268673-0.0806835-1.2313652-0.3113468-1.8816519-0.2344189c-0.1860895,0.0220144-0.3917675-0.0477815-0.5492496,0.1030762
		c-0.3635359-0.0624743-0.7004595,0.1208279-1.0597763,0.0972366C15.4427166,1.7964277,16.660347,1.8138365,17.8775539,2.3345232z"
		/>
	<path fill="#02EDF2" d="M23.7518005,5.2290506c-0.0631733,0.111217-0.1263447,0.2224336-0.189518,0.3336487
		c0-0.0000024-0.0024414-0.0055323-0.0024414-0.0055323c-0.0240631,0.0136137-0.0481224,0.0272269-0.071909,0.0409489
		c-0.05126-0.0232468-0.0888596-0.0586753-0.1105213-0.1077418c-0.0888004-0.2749004,0.2152424-0.446209,0.2258434-0.7194791
		c-0.3857861-0.0883083-0.6605721-0.1000772-0.4929047,0.3992553c0.0849228,0.2529149-0.0739861,0.5342078,0.0815144,0.7853875
		c0.0146809,0.0176554,0.0280666,0.035903,0.0414524,0.0541506c-0.0113564,0.136972-0.0751381,0.2666941-0.231575,0.251811
		c-0.1458549-0.013876-0.1091824-0.1632924-0.1115322-0.2639155c-0.0095291-0.4079304-0.0294514-0.8134542-0.2408619-1.1863565
		c-0.0059586-0.1818409-0.0384617-0.3810077,0.2813854-0.3276243c0.4328461,0.0722437,0.8418179-0.0152698,1.2256336-0.1865592
		c0.1880035,0.1620407-0.054924,0.269803-0.0188293,0.3989153c-0.0000019-0.0000033,0.0036049,0.000072,0.0036049,0.000072
		C23.9974022,4.8650484,23.9723358,5.1076479,23.7518005,5.2290506z"/>
	<path fill="#02EDF2" d="M23.3291683,5.9900074c-0.0325546,0.0040717-0.0645065,0.0106306-0.0958538,0.0196786
		c0.0000019,0.0000024-0.0279293-0.0215054-0.0279293-0.0215054c-0.1331177-0.2409949-0.0772915-0.3941808,0.2345448-0.4283881
		l0.0310707,0.0240998c0.0867329,0.1764073-0.0569534,0.2846265-0.1429157,0.4099274L23.3291683,5.9900074z"/>
	<path fill="#202A2D" d="M11.0907917,10.926055c-0.1507654,0.0139818-0.3015318,0.0279636-0.4522963,0.0419502
		c-0.0068874-0.0443277-0.0137758-0.0886574-0.0207224-0.1329565c0.0523481-0.0882292,0.1429672-0.1094742,0.2415171-0.1169453
		C11.0007439,10.7266798,11.0841513,10.7901144,11.0907917,10.926055z"/>
	<path fill="#1F2F32" d="M12.4736185,9.5655327c-0.1735802-0.1084938-0.3081989-0.2459011-0.3774948-0.4317884
		C12.3418493,9.1886959,12.4868908,9.3183708,12.4736185,9.5655327z"/>
	<path fill="#212121" d="M23.3280849,5.9938202c0.0476379-0.1366439,0.0952759-0.2732878,0.1429138-0.4099293
		c0.0308571-0.005415,0.0604763-0.0143185,0.08885-0.0267167C23.5917606,5.7519021,23.5519886,5.9143391,23.3280849,5.9938202z"/>
	<path fill="#262626" d="M19.1367378,1.4726697c-0.5231647-0.1777996-1.0381947-0.3804851-1.5711327-0.528389
		c-1.2347927-0.3426867-2.4577856-0.1818857-3.6703844,0.1286712c-0.0372849-0.0264288-0.0507011-0.0539405-0.0403099-0.0825531
		c0.0105848-0.0291421,0.0217409-0.043722,0.0335226-0.043722c1.2721157-0.4105379,2.5579281-0.435185,3.8560104-0.116253
		C18.2179585,1.0272123,18.7720146,1.0757726,19.1367378,1.4726697z"/>
	<path fill="#231718" d="M13.3265448,1.2836746c-0.3154945,0.1804099-0.6309881,0.3608196-0.9464808,0.5412875
		C12.5725889,1.4620738,12.9343538,1.3502975,13.3265448,1.2836746z"/>
	<path fill="#231718" d="M12.3901548,1.8176928c-0.2179871,0.2036915-0.4128561,0.4337537-0.7199821,0.5357821
		C11.8580227,2.1154106,12.0163717,1.8436846,12.3901548,1.8176928z"/>
	<path fill="#221B1B" d="M13.8884335,0.9466769c0.0022593,0.0420886,0.0045195,0.0841771,0.0067854,0.1262703
		c-0.1754484,0.1129532-0.3594465,0.2067363-0.5795889,0.2195467C13.3856716,1.0073142,13.7068138,1.075061,13.8884335,0.9466769z"
		/>
	<path fill="#22181A" d="M11.5671635,2.4490702c-0.0753412,0.2416468-0.2605991,0.3995311-0.4782639,0.532717
		C11.1251287,2.7103324,11.34128,2.5759926,11.5671635,2.4490702z"/>
	<path fill="#01F2F5" d="M21.9389343,2.4900763c0.0131588-0.6325634,0.650177-1.2010484,1.3225555-1.1802672
		c0.6449833,0.0199343,1.2434216,0.5971036,1.2447624,1.200524c0.0014038,0.630687-0.6238575,1.2116017-1.2961693,1.2042403
		C22.5304375,3.7071326,21.9257355,3.1246252,21.9389343,2.4900763z"/>
	<path fill="#05D6DA" d="M21.3540916,1.7120388c-0.1768951,0.0653841-0.1408482,0.4214892-0.4633503,0.2880805
		c-0.3471451-0.0358138-0.6196861-0.139245-0.5708122-0.5338877c0.0798111-0.0607406,0.1703129-0.0709453,0.2695618-0.0506388
		c0.4631844,0.0947686,0.4632874,0.0943438,0.7139626-0.309314c-0.3629055-0.0689152-0.7289009,0.009051-1.1061172-0.0516735
		c0.0732327,0.1424584,0.2599792,0.257805,0.1064911,0.4322063c-0.268898,0.1377147-0.3678837-0.0405935-0.4697838-0.2134771
		l-0.0403595-0.022002c0,0-0.046854,0.0018541-0.0468502,0.00185c0.0304012-0.1748558-0.292099-0.2434243-0.1819916-0.4082361
		c0.1122532-0.1680222,0.3198948-0.0322031,0.4845543-0.0349926c0.5219173-0.0088421,1.0444679,0.0005027,1.5658264-0.0188506
		c0.4426651-0.016432,0.2614555,0.1721058,0.1527996,0.3467453C21.5894508,1.3044086,21.3244896,1.4181072,21.3540916,1.7120388z"/>
	<path fill="#260607" d="M20.9999752,2.5597055c0.3623161,0.5288122,0.8146935,1.0112052,1.0475368,1.6986783
		c-0.2735825-0.092248-0.3186455-0.2450051-0.3464527-0.4100978c-0.261425-0.0985429-0.2826118-0.3960779-0.5100937-0.5227332
		c-0.0699196-0.0989535-0.1398373-0.1979067-0.2097569-0.2968595c-0.2901688-0.459105-0.6992893-0.8105109-1.1750355-1.1015906
		c-0.11096-0.1011153-0.2219219-0.2022308-0.3328838-0.303346c0.0046177-0.0471132,0.0092373-0.0942266,0.0138569-0.14134
		C20.2949352,1.4797229,20.6218166,2.0502758,20.9999752,2.5597055z"/>
	<path fill="#221818" d="M20.9999752,2.5597055c-0.5359802-0.3213058-0.8219585-0.9406277-1.5128441-1.077273
		c0.1156464-0.0697099,0.2312813-0.1394043,0.3469124-0.2090982c0.1577415,0.0673885,0.3154812,0.1347768,0.4732208,0.2021649
		c0-0.0000002,0.0048981,0.0034515,0.0048981,0.0034517c0.1928596,0.1737404,0.3857193,0.3474809,0.5785789,0.5211948
		C20.9113407,2.1892681,21.4273739,2.2963259,20.9999752,2.5597055z"/>
	<path fill="#221B1C" d="M23.7518005,5.2290506c0.1251488-0.180541,0.1698971-0.4109411,0.3893585-0.5330038
		c-0.03619,0.1471558-0.0723629,0.2943273-0.1085587,0.4415059C23.9389839,5.1680565,23.8453922,5.1985536,23.7518005,5.2290506z"/>
	<path fill="#00E9FE" d="M8.6906404,11.2618446c-0.5893574-0.001193-0.8769298-0.272891-0.8649297-0.8171864
		c0.00946-0.429018,0.4185052-0.7804213,0.9175096-0.7882175c0.5024347-0.0078487,0.837965,0.3485241,0.8294935,0.8810205
		C9.5643024,11.0662489,9.3245659,11.2631273,8.6906404,11.2618446z"/>
	<path fill="#00E8FE" d="M10.2706776,6.655508c0.0308552-1.8810248,0.7044868-3.3800044,2.2257719-4.4527922
		c0.8697996-0.6133684,1.8843718-0.98321,3.0277033-1.0548152c1.4208374-0.088985,2.7343273,0.1875393,3.8796291,0.9206864
		c0.9807186,0.6277928,1.735611,1.4906223,2.035183,2.5892878c0.0787106,0.2886729,0.3312836,0.5316868,0.2655945,0.8577437
		c-0.0303783,0.1507845,0.0358372,0.3470531-0.2303066,0.3583026c-0.2240601,0.0094714-0.2042561-0.1526504-0.2445793-0.2927766
		c-0.4891891-1.6999526-1.5618057-2.95467-3.3403683-3.6513267c-2.1939354-0.8593569-4.5703506-0.0474679-5.9663525,1.5620672
		c-0.7510939,0.8659825-1.1316986,1.8672786-1.1729813,2.9586086c-0.0465326,1.2301145,0.494544,2.280448,1.3411083,3.2076998
		c0.1432734,0.156929,0.398716,0.2841635,0.110837,0.5201063c-0.2874899,0.2356243-0.4717007,0.0378199-0.6259584-0.1426601
		C10.6978083,9.008213,10.3200197,7.8190155,10.2706776,6.655508z"/>
	<path fill="#212222" d="M19.8061733,1.9271028c0.5740986,0.2020135,0.9810753,0.5553515,1.1750431,1.1015718
		C20.5895309,2.6614969,20.1978531,2.2942996,19.8061733,1.9271028z"/>
	<path fill="#23191A" d="M21.1909657,3.3255527c0.3075981,0.0602877,0.3407364,0.3479316,0.5101032,0.5227268
		c-0.0474586,0.0029101-0.0949078,0.0058134-0.1423569,0.0087199C21.4361286,3.6798522,21.3135471,3.5027022,21.1909657,3.3255527z"
		/>
	<path fill="#00FDFE" d="M17.8310375,5.3336148c-0.2574749,0-0.5149517,0-0.7724285,0
		c-0.0005512-0.0180497-0.0011005-0.0360985-0.0016499-0.0541482c0.2575741,0,0.5151482,0,0.7727242,0
		C17.8301353,5.2975163,17.8305855,5.3155651,17.8310375,5.3336148z"/>
	<path fill="#00EAFE" d="M23.43993,5.5597925c-0.1925468,0.0896978-0.231596,0.2506742-0.2344742,0.4284339
		c-0.290308,0.1186533-0.2133121-0.0929275-0.2165604-0.212851c-0.0099468-0.3672357,0.0475216-0.7410288-0.2005577-1.1309905
		c0.3784599,0,0.7016106,0,1.0327835,0C23.8432045,5.0042915,23.4104366,5.2013803,23.43993,5.5597925z"/>
	<path fill="#00E9FE" d="M24.0347729,2.4820442c0.0044193,0.6125522-0.2135277,0.8308096-0.8270664,0.8282478
		c-0.5162544-0.0021558-0.9297619-0.3702736-0.920372-0.8193467c0.009037-0.432205,0.4126415-0.7829912,0.9108124-0.7916211
		C23.7502079,1.6897607,24.0309525,1.9524156,24.0347729,2.4820442z"/>
	<path fill="#00EDFE" d="M20.3072643,1.4754989c0.008625-0.2393425-0.2486477-0.3265979-0.4113045-0.516968
		c0.6046543,0,1.1400795,0,1.7392559,0c-0.1809921,0.2529581-0.3475037,0.4723424-0.498024,0.7006751
		c-0.1026421,0.1557035-0.206665,0.1316433-0.3206635,0.0263798c-0.1403923-0.129637-0.287508-0.2385111-0.5043659-0.2066345
		C20.3121624,1.4789506,20.3072643,1.4754989,20.3072643,1.4754989z"/>
</g>
</svg>
