<?xml version="1.0" encoding="utf-8"?>
<!-- Generator: Adobe Illustrator 24.1.1, SVG Export Plug-In . SVG Version: 6.00 Build 0)  -->
<svg version="1.1" id="Слой_1" xmlns="http://www.w3.org/2000/svg" xmlns:xlink="http://www.w3.org/1999/xlink" x="0px" y="0px"
	 viewBox="0 0 32 13" enable-background="new 0 0 32 13" xml:space="preserve" width="32px" height="13px">
<g>
	<path fill="#212121" d="M6.9181752,8.4150581c0.4661536-0.8986974,1.0100179-1.7567258,1.6017098-2.5897269
		c0.1978502-0.1154017,0.2246103-0.3440728,0.3856068-0.4887724c0.1075449-0.0966606,0.1140585-0.3147397,0.3098373-0.2985401
		C9.433219,5.0560474,9.4514561,5.261066,9.5103102,5.4152656c0.0281601,0.3547683-0.107399,0.7016954-0.0582247,1.057488
		C9.4548912,6.5315804,9.4542513,6.590476,9.4528847,6.6492658C9.4419785,6.8496733,9.4655657,7.0552812,9.355237,7.2411771
		C9.0408707,7.4429274,9.0720835,7.1554093,9.0323114,7.028223C8.9805765,6.8627872,8.948019,6.7245855,8.7145586,6.8353148
		C8.3236609,7.0510926,8.2765398,7.4815359,8.016777,7.777771C7.9202075,7.9005899,7.8261175,8.0251265,7.7404399,8.1548901
		C7.6715598,8.2383089,7.587018,8.3105087,7.5293794,8.4023018c0.1179333-0.0431519,0.2051468-0.1695719,0.3601294-0.1127996
		C7.9643393,8.3229189,8.0075464,8.3827734,8.045598,8.4467754c0.0491381,0.0816212,0.1154165,0.1538105,0.1634369,0.2366753
		c0.0098944,0.0471907,0.0037861,0.0925035-0.019701,0.1357117C8.1372051,8.8715572,8.074317,8.912076,8.0125475,8.9537439
		C7.8826642,9.0766363,7.8221831,9.2441292,7.6970029,9.3702688C7.1274476,9.8699665,7.1240845,10.478159,7.299727,11.1199131
		c0.6408544,0.9259033,1.3684783,1.0500793,2.3527074,0.4001551c0.1161966-0.0767279,0.226326-0.1684151,0.3881083-0.1195211
		c0.061574,0.0826406,0.0921736,0.206152,0.0086298,0.2483082c-0.2872715,0.1449556,0.0062599,0.1524248,0.0498524,0.2166233
		c0.4650364,0.2842426,1.6833677,0.2869043,2.1206894,0.0028763c0.1087608-0.0690699,0.2167645-0.0918417,0.3224497,0.0049353
		c0.0191603-0.03053,0.002202-0.0529652-0.0421877-0.0794811c-0.7576265-0.452589-0.7539339-0.4499159-0.1485662-1.0668249
		c0.1895638-0.1931791,0.3858147-0.3841944,0.524745-0.6146078c0.138361-0.2167835-0.0270805-0.3626957-0.1597128-0.4944572
		c-0.405098-0.4024477-0.6971521-0.8752489-1.0181847-1.3318529c-0.4593163-0.9645662-0.457284-1.9547915-0.1998348-2.9597139
		c0.0701828-0.1702328,0.1455441-0.3386736,0.249238-0.4944978c0.6682005-1.8621266,2.7918291-2.7837002,4.7148504-2.5484445
		c1.0974236,0.1342554,2.1050301,0.4969802,2.898922,1.2670066c0.775074,0.7517748,0.9881592,1.6952662,1.1119118,2.6090913
		c0.1057549-0.3858018-0.4316406-0.815104,0.0119934-1.2621851c0.5030327,0.5214601,0.4603271,1.1707487,0.4804916,1.7980776
		c0.0102386,0.3185911-0.0705357,0.6343884-0.2103577,0.9311228c-0.1572113,0.2101569-0.2573185,0.4454765-0.3421192,0.6869535
		c-0.1069698,0.2174959-0.2281151,0.4288521-0.3471317,0.6410809c-0.2043133,0.3352146-0.4828205,0.6195717-0.7430916,0.9157305
		c-0.097538,0.3664703,0.2315674,0.4647331,0.4623718,0.6225729c0.3345089,0.1406479,0.4898071-0.0981665,0.6564732-0.2764196
		c0.3874435-0.4143839,0.700346-0.876811,0.9806175-1.3575592c0.1438351-0.1153202,0.2362061-0.2536926,0.225029-0.4376554
		c0.002285-0.1029377,0.0062618-0.2052946,0.0231152-0.307416c0.0085773-0.0542898,0.0236664-0.1065483,0.0416298-0.1586099
		c0.0607452-0.1591153,0.1349888-0.3121853,0.2296791-0.4565935c0.1520996-0.4861941-0.050272-0.9996047,0.135519-1.4823322
		c0.3931866-0.2404222,0.2985649,0.2120252,0.4740334,0.2812881c0.0799446,0.0965786,0.1657467,0.1893535,0.2587738,0.2745814
		c0.1888847,0.1159282,0.3143482-0.1866288,0.5035057-0.0659027c0.0903835,0.080245,0.1428223,0.1758423,0.1423626,0.2933564
		c-0.6633892,1.1021023-1.2536964,2.2404723-1.9463387,3.3290343c-1.0597363,1.3950977-2.4914494,2.3162251-4.3073978,2.5996008
		c-1.5840321,0.2471848-3.2014141,0.1177568-4.8039465,0.0818863c-0.8017044-0.0179443-1.6011677-0.0508451-2.402091,0.0084877
		c-0.6785545,0.0502682-1.355958,0.0265732-2.0291066-0.0657082c-1.2011647-0.1646681-2.4693527-1.7377443-1.6263895-3.2728939
		C6.5353794,9.1259604,6.7647834,8.7879162,6.9181752,8.4150581z"/>
	<path fill="#222222" d="M9.4098091,5.3772759C9.3410015,5.2891583,9.2721939,5.2010403,9.1956148,5.1029692
		c-0.269599,0.2090826-0.2548409,0.642446-0.6757298,0.722362c0.7730417-1.2426805,1.3209763-2.6078596,2.3889818-3.6902161
		c0.4046659-0.4101034,0.8872213-0.7326984,1.3556147-1.0724121c0.8986139-0.5909911,1.9172754-0.8846677,2.9981375-1.0242915
		c2.6171532,0.0027182,5.2348232-0.0212949,7.8512039,0.0214447c1.0319271,0.016857,1.9035892,0.4200319,2.3957043,1.3300693
		c0.0679264,0.0846863,0.0766335,0.1673884-0.0095825,0.2469708c-0.2426147-0.0043595-0.3384418-0.1867682-0.4587955-0.3308533
		c-0.4677238-0.5599475-1.0646973-0.8401619-1.8475914-0.7920045c-0.4658356,0.0286543-0.9353828,0.0037569-1.4035702,0.0079815
		c-0.1037445,0.0075018-0.2071342,0.0032496-0.3108826,0.0012376c-0.4978676-0.0039514-0.9953918-0.0017977-1.4927731,0.0004045
		c-0.1737747,0.0071746-0.3475094-0.0036131-0.5210896-0.0026786c-1.3387489-0.0006952-2.6791687-0.0357103-4.0164747,0.0082479
		c-2.1598368,0.0709955-3.762516,1.0700762-4.9736271,2.6632924c-0.107769,0.1417706-0.1526108,0.3091958-0.191102,0.4758806
		c-0.1909246,0.3458116-0.4507551,0.6611207-0.563364,1.0437891C9.5301151,4.8799901,9.5836248,5.1323943,9.4709196,5.3273563
		C9.4507685,5.3441463,9.4302883,5.3607111,9.4098091,5.3772759z"/>
	<path fill="#222122" d="M6.9181752,8.4150581C6.9873419,8.8334599,6.6445484,9.11903,6.4807863,9.4485826
		c-0.7648726,1.5392218,0.0570822,2.9600716,1.8364296,3.245719c0.7963524,0.1278419,1.5496063-0.0125122,2.3228912-0.0204535
		c1.6451712-0.0168962,3.284935,0.1445704,4.9333754,0.1192169c1.6048775-0.024683,3.0565948-0.4020758,4.3670769-1.2609053
		c0.6279221-0.4115105,1.0565662-0.9923201,1.587904-1.4851494c0.0779839,0.0319624,0.0864201,0.075367,0.0253181,0.1302118
		c-1.2341785,1.7193871-3.0011082,2.6661463-5.2060909,2.739995c-2.6160011,0.087616-5.2390966,0.0494204-7.8576698,0.0003862
		c-1.84447-0.0345383-2.9808507-1.6868486-2.3223319-3.2735081C6.3509989,9.2024231,6.5886102,8.7836847,6.9181752,8.4150581z"/>
	<path fill="#2E2D2E" d="M21.5537815,10.1772223c-0.0083332-0.0433998-0.0166626-0.0867996-0.025156-0.1302052
		c0.5340919-1.1446009,1.22612-2.2134671,1.8738194-3.3036098c0.073452-0.5077796,0.3234482-0.9105597,0.8200207-1.16678
		c0.0243168,0.0154147,0.0486641,0.0309362,0.0730076,0.0464578C23.3815765,7.1411309,22.46768,8.6591759,21.5537815,10.1772223z"/>
	<path fill="#2E2D2E" d="M25.6406975,3.4468772c-0.4021587,0.7495916-0.8336067,1.4838655-1.3452244,2.1762068
		c0,0.000001-0.048027-0.0331578-0.048027-0.0331578c-0.0907936-0.0944014-0.0863266-0.2022662-0.0535488-0.3143978
		c0.119606-0.2169633,0.2730618-0.4176764,0.3719063-0.645381c0.213665-0.399487,0.4786816-0.7729659,0.6945591-1.1714234
		c0.0800247-0.1477034,0.1578617-0.3134673,0.3990173-0.2545569C25.6979122,3.2880828,25.7019863,3.3696268,25.6406975,3.4468772z"
		/>
	<path fill="#7D7D7D" d="M25.6406975,3.4468772c-0.0068951-0.0778475-0.0137901-0.1556945-0.0206852-0.233542
		c-0.0393333-0.5333381-0.142519-1.0625145-0.1232185-1.5996742c0.0042439-0.0745785,0.0084877-0.1491573,0.0127335-0.2237358
		C26.0385056,1.9171923,26.2723541,2.7835245,25.6406975,3.4468772z"/>
	<path fill="#303030" d="M19.9414234,8.9102917c0.1180878-0.1926479,0.1712303-0.4205751,0.3667049-0.5711861
		c0.1482334-0.2077265,0.1541996-0.4592848,0.2488766-0.6835117c0.4239616-0.9294205,0.2674007-1.8363652-0.125103-2.7341766
		c-0.2514248-0.1345096-0.3304272-0.3869662-0.4524403-0.5988255c-1.4215374-2.4682529-5.6047354-3.0348921-7.7826653-0.4205074
		c-0.1218939,0.1463194-0.1921577,0.3442726-0.422719,0.3948269c-0.3622723-0.0438533-0.6169252-0.2138767-0.7433033-0.5351236
		c-0.0524035-0.3325176,0.1338682-0.5806985,0.3531561-0.8104131c1.4311562-1.4992027,3.2326174-2.1117949,5.3792038-1.8931035
		c0.2010231,0.0652722,0.3772717,0.2002466,0.6083355,0.1840852c1.7214241,0.3724053,2.9963665,1.2791762,3.8324757,2.7118852
		c0.6234035,1.0589302,0.5379505,2.2087109,0.5110722,3.3501861c-0.0459557,1.1065593-0.54879,2.0407023-1.3057995,2.873425
		c-0.1605339,0.1765947-0.3617649,0.3506804-0.6281071,0.1452265c-0.2518005-0.1942368-0.223835-0.425004-0.0497952-0.6575909
		c0.2545452-0.340169,0.5905933-0.6305141,0.7750282-1.0730438c-0.0838947,0.0971775-0.0753956,0.1753283-0.1117439,0.237463
		c-0.0496063,0.084795-0.1097488,0.1628599-0.2119102,0.1962204C20.0621014,9.0655031,19.9913807,9.0028114,19.9414234,8.9102917z"
		/>
	<path fill="#1F1F1F" d="M11.7607861,4.2381697c0.7432079-1.0536592,1.7249374-1.8472104,3.0853624-2.0908408
		c2.4572859-0.4400612,4.7407885,0.5903397,5.5857534,2.7740874c-0.09412,0.6293507,0.3426762,1.2240391,0.1189499,1.9151502
		c-0.2965431-2.9260654-1.8950634-4.5822411-5.1615219-4.3946972c-1.6734848,0.0960834-2.9333591,0.9387536-3.5059748,2.4785469
		c-0.1118927-0.0501118,0.0085964-0.3405709-0.2703524-0.2208285c-0.0572414-0.0664225-0.07372-0.1413703-0.0668736-0.2225113
		C11.5661211,4.3581953,11.6451731,4.2842288,11.7607861,4.2381697z"/>
	<path fill="#192317" d="M13.0011492,10.162343c-0.2595587,0.432209-0.6317406,0.7746334-1.0619068,1.1065216
		c0.3156033,0.2766838,0.7795267,0.4113798,0.9637947,0.8697729c-0.3371,0.0524063-0.3812771-0.3528051-0.6581078-0.2624731
		c-0.040513,0.0327902-0.0878134,0.0447855-0.1410408,0.0398664c-0.0777578-0.0100851-0.1544943-0.0253782-0.2317591-0.0399885
		c-0.2003078-0.0294228-0.3555574-0.1235514-0.470787-0.2757998c-0.1279984-0.1686077-0.2875032-0.3169804-0.3871431-0.504097
		c-0.4901438-0.8150072-1.0615788-1.5904932-1.4208651-2.4685097C9.6108379,8.581336,9.6450834,8.5480289,9.693531,8.5287018
		c0.1108809,0.0157595,0.1529922-0.0365009,0.1494961-0.1343594c0.0220575-0.0458832,0.0569181-0.0778008,0.1075916-0.0959005
		c0.0560303-0.002306,0.1065197,0.0111876,0.1538925,0.037569c0.2638617,0.2089405,0.2921143,0.5448389,0.5020151,0.7828436
		c0.1926365,0.3425951,0.4093246,0.6700773,0.700511,0.951129c0.0567598,0.0549879,0.1075525,0.1143913,0.1535797,0.1769457
		c0.09828,0.1440401,0.1947355,0.2895432,0.2993059,0.4297218c0.0712261,0.0808249,0.1516714,0.1129017,0.252821,0.0424595
		c0.0371094-0.0328779,0.0750246-0.0638542,0.1117182-0.0965595c0.1896353-0.1681995,0.3677673-0.3466091,0.561264-0.5112486
		c0.064353-0.0508223,0.135294-0.0892086,0.2207317-0.1008196C12.9935265,10.0317593,13.0699568,10.0588684,13.0011492,10.162343z"
		/>
	<path fill="#313131" d="M19.9414253,8.9102926c0.1895428,0.0911865,0.3070908,0.0467348,0.3643703-0.1490011
		c0.0689888-0.2357454,0.2199841-0.4215841,0.4532051-0.5546236c-0.180439,0.5342045-0.4324532,1.0332537-0.8390312,1.4525623
		c-0.1797981,0.1854296-0.3431301,0.3599968-0.0798969,0.5752125c0.2967968,0.2426586,0.4069881-0.0700026,0.5153332-0.2001314
		c0.6417847-0.7708302,1.1478653-1.6013851,1.1912174-2.6067114c0.0860786-0.0965648,0.1642017-0.2256126,0.3135719-0.0650868
		c0.0838203,0.2208009-0.0004902,0.4269834-0.0657959,0.6348386c-0.0007343,0.0381517-0.0014687,0.0763016-0.002203,0.1144533
		c-0.1228523,0.1807394-0.1090336,0.3890171-0.1399136,0.5883894c-0.0245934,0.0742645-0.0480232,0.1489792-0.1072273,0.2080593
		c-0.3005238,0.5813293-0.7027302,1.0987597-1.1606312,1.5832272c-0.202158,0.2138863-0.4153061,0.3046741-0.6941128,0.1256943
		c-0.1001644-0.300292-0.6312008-0.3731308-0.4972439-0.7970114C19.4425201,9.5168734,19.6919727,9.213583,19.9414253,8.9102926z"/>
	<path fill="#0E2311" d="M19.193409,7.6553626c-0.0455399,0.0337186-0.0910816,0.0674372-0.1366215,0.1011548
		c-0.3981304,0.2320714-0.7854042,0.2752762-1.1511917-0.0550237c-0.0193291-0.2768841,0.1987305-0.3974237,0.4084358-0.5224023
		c0.3322144,0.0454631,0.2977161-0.2436562,0.4179287-0.3926692c0.0251598-0.0462303,0.0573578-0.0872002,0.094202-0.1258426
		c0.4698486-0.5773177,0.462244-0.9484119-0.0315914-1.4536443c-0.0775337-0.076323-0.1454487-0.1604304-0.2244968-0.2355671
		c-0.7286186-0.4892612-1.4737186-0.4389567-2.2287617-0.0593433c-0.2132626,0.0813689-0.3552551,0.2876139-0.6099977,0.2966361
		c-0.0975828-0.0150938-0.1607647-0.0660324-0.1889153-0.1536536c-0.0010185-0.1948805,0.1043396-0.3132582,0.3073673-0.361228
		c0.8033972-0.368608,1.6034918-0.6938949,2.5090551-0.2399421c0.9661808,0.4843388,1.8455505,1.3015475,0.803709,2.4593811
		c-0.1174965,0.1305757-0.2275467,0.2668195-0.3410473,0.4004359c-0.0816059,0.1774096,0.06987,0.1557612,0.1749687,0.1727839
		C19.1022873,7.5035791,19.2535076,7.4749069,19.193409,7.6553626z"/>
	<path fill="#222121" d="M15.3545237,8.6800823c-0.2368965-0.0246811-0.1170425-0.1934862-0.1181383-0.2881222
		c-0.0103464-0.8911991-0.006259-1.7825389-0.0063362-2.6738386c-0.041954-0.1000304,0.0244513-0.1494517,0.1056557-0.1925058
		c0.0848961-0.0315633,0.1736364-0.0445313,0.2647324-0.0471473c0.0606127-0.0023956,0.1208878,0.001399,0.1810589,0.008532
		c0.2612495,0.0687609,0.5430069,0.114666,0.595377,0.4281635c-0.0282001,0.046205-0.0706139,0.0776825-0.1255054,0.0935631
		c-0.088871,0.0239553-0.1699619-0.0321751-0.2582655-0.0248437c0.0216074,0.0274324,0.0448561,0.053647,0.0721197,0.080255
		c0.0579739,0.0859547,0.1009369,0.1709356,0.0178814,0.2627954C15.642725,6.3410587,15.3758783,6.4751,15.507884,6.9513011
		c0.0640545,0.231082,0.1638565,0.2257261,0.3374004,0.1106701c0.3050871-0.2022686,0.4977636-0.4975286,0.7392912-0.7528553
		c0.1190052-0.1284256,0.2355022-0.2593093,0.4110661-0.3273892c0.1889019-0.0450311,0.3927898-0.0629382,0.4878407,0.122282
		c0.0964985,0.1880431-0.0852127,0.3120255-0.2068291,0.4353476c-0.2353992,0.2387004-0.5162601,0.433115-0.7681942,0.6559854
		C16.0233879,7.6244578,15.5048857,8.0310621,15.3545237,8.6800823z"/>
	<path fill="#172415" d="M15.3545237,8.6800823c-0.0787611-0.4502115,0.107295-0.785274,0.4813328-1.079072
		c0.4639101-0.3643928,0.8964472-0.7633939,1.329772-1.1592636c0.0903931-0.0825777,0.284132-0.1644464,0.1986847-0.3096004
		c-0.0732613-0.1244516-0.2605438-0.058228-0.3985615-0.0701852c-0.1500263,0.0467873-0.230566-0.0236225-0.2829189-0.1420012
		c0.013176-0.095314,0.0791492-0.1534553,0.1638317-0.1990232c0.3086052-0.1258769,0.6210804-0.2033863,0.8953876,0.0532069
		c0.2548885,0.2384272,0.0709229,0.4839211-0.0137272,0.7246647c-0.1180229,0.26262-0.343565,0.4455209-0.5595188,0.6358104
		c-0.0876083,0.0704522-0.186306,0.1250768-0.2915421,0.1696253c-0.3451653,0.1243534-0.5547085,0.3972168-0.8040581,0.6255212
		c-0.1989946,0.1898017-0.1776676,0.4421439-0.2248755,0.6751084c-0.0189037,0.0753183-0.0531254,0.1421251-0.123456,0.1887045
		C15.6014233,8.7557468,15.4779749,8.7179146,15.3545237,8.6800823z"/>
	<path fill="#162316" d="M10.0325584,11.4148417c-0.4061575,0.2668829-0.7195921,0.6985493-1.2921448,0.6784496
		c-0.7013521-0.0246191-1.2594624-0.2842722-1.5609035-0.9051542c0.0058227-0.1078014,0.0275741-0.2088957,0.1358337-0.2737637
		c0.082242-0.0315037,0.163919-0.0299425,0.2448068,0.0043087c0.2139335,0.1850529,0.3692989,0.432622,0.6663785,0.5297489
		c0.5038061,0.2460651,0.9061632,0.009347,1.306571-0.2321186c0.1716232-0.0795755,0.2675753-0.2585783,0.4662189-0.3039198
		c0.3103323-0.0101109,0.4315405,0.1141214,0.3312006,0.3955755C10.2544022,11.3981457,10.1699896,11.4693489,10.0325584,11.4148417
		z"/>
	<path fill="#162317" d="M7.6762152,9.251359c0.1161623-0.1322212,0.0670767-0.347414,0.2613473-0.4404154
		C8.3900499,9.0423212,8.8322573,9.057086,9.2595568,8.7571821c0.0581093-0.0108089,0.1143026-0.0050602,0.1688118,0.0162344
		c0.3087234,0.4709005,0.793108,0.8307695,1.016037,1.356636c-0.0122013,0.0527554-0.0338182,0.1020603-0.0631504,0.1484966
		c-0.1300249,0.1501513-0.0294094,0.4575882-0.3714771,0.4641037c-0.2296782-0.2695303-0.0617533-0.7019434-0.4415159-0.9093199
		C9.1862488,9.5339231,8.7620678,9.4125977,8.2716036,9.5725908c-0.2697554,0.1288204-0.482183,0.3257217-0.7101402,0.5043259
		c-0.0561676,0.0128202-0.1095147,0.0059795-0.1600599-0.0198612C7.1539431,9.6908007,7.6471305,9.5380592,7.6762152,9.251359z"/>
	<path fill="#0D2411" d="M19.3133125,8.9111843c-0.0230083,0.3137617-0.2599106,0.3400183-0.5266438,0.3390656
		c-0.8020706-0.0028648-1.6041679-0.0028791-2.4062386,0.0000029c-0.2667389,0.0009584-0.5036354-0.0252438-0.5267248-0.3389845
		c0.1170635-0.1263485,0.2790575-0.1518717,0.443862-0.1546717c0.8572388-0.0145712,1.7145977-0.0145597,2.5718365-0.0000067
		C19.0342064,8.759387,19.1962013,8.784894,19.3133125,8.9111843z"/>
	<path fill="#162315" d="M9.6561079,4.6934261c0.0477495-0.3580856,0.1363363-0.6973586,0.4963179-0.9116077
		c0.0404196-0.0386882,0.0897722-0.0590825,0.1482134-0.0612519c0.0579653,0.0106077,0.1031141,0.0390425,0.1375904,0.0827117
		c0.0125351,0.052285,0.008359,0.1036644-0.0089483,0.1544604c-0.131669,0.2288706-0.218132,0.4742486-0.304327,0.7195203
		c-0.0473881,0.118577-0.0902681,0.2387176-0.1312962,0.3594575C9.9189138,5.2556534,9.8470459,5.4748583,9.854331,5.7089276
		C9.8534899,5.7644362,9.8460608,5.8184752,9.835556,5.8727927C9.782546,6.305191,9.8687754,6.7423635,9.7770548,7.1732883
		C9.7553701,7.2330408,9.7192831,7.2838149,9.6693697,7.3267579c-0.1217251,0.0192342-0.185668-0.044703-0.2313595-0.1352205
		C9.3980761,7.0083704,9.4095945,6.823699,9.4205465,6.6392417c0.0561628-0.2034383,0.0792418-0.4081111,0.0343914-0.5797896
		C9.3922453,6.1885991,9.6330185,6.4311099,9.2872438,6.516861c-0.0525455-0.3883624,0.059597-0.7617397,0.1225595-1.1395888
		c0.0000057,0.0000038-0.0001497-0.0000315-0.0001497-0.0000315C9.5789528,5.1758785,9.3291483,4.8467088,9.6561079,4.6934261z"/>
	<path fill="#222121" d="M19.3133125,8.9111843c-1.1532345,0.0000038-2.306469,0.0000076-3.4596567,0.0000477
		c-0.0428867-0.0391855-0.0858231-0.0784063-0.1287699-0.1176405c0.0033035-0.079114,0.0066175-0.1582146,0.0099325-0.2373152
		c0.1884727-0.035614,0.3438196,0.1105843,0.5316572,0.0806894c0.7634888,0.0036125,1.5263577,0.0012484,2.2892265-0.0005932
		c0.2556744-0.000617,0.5474472-0.0041418,0.5579796-0.3100977c0.0120544-0.3502684-0.3207607-0.2575703-0.5502567-0.2877207
		c-0.3011551-0.0395651-0.6950703,0.105381-0.8063507-0.3300047c0.0262222-0.0959654,0.0519238-0.1924129,0.2002621-0.1449761
		c0.2913532,0.4266553,0.7388992,0.1009641,1.0995693,0.193059c0.1384697,0.0206475,0.297636-0.0095334,0.3873272,0.1322942
		c0.1767445,0.2999668,0.1767139,0.5999498,0.0001068,0.8999519C19.4006634,8.8296471,19.356987,8.8704166,19.3133125,8.9111843z"/>
	<path fill="#132412" d="M13.0011492,10.162343c-0.0318575-0.0387774-0.0637178-0.0775557-0.0955763-0.116333
		c-0.1857548-0.0139771-0.2478199-0.1623211-0.3484592-0.2691097c-0.1110249-0.1337051-0.2469311-0.2416601-0.4034824-0.3287678
		c-0.1405478-0.0846233-0.2607861-0.1880054-0.3540716-0.3171635c-0.1816483-0.3002977-0.3517675-0.605875-0.5010538-0.9214411
		C11.2617655,8.1037397,11.24788,7.9956117,11.257369,7.8849101c0.0092182-0.0817733,0.0363331-0.157454,0.0926838-0.2222071
		c0.1631393-0.0726008,0.2035646,0.0187078,0.2225084,0.1409473c0.0331316,0.2137923,0.0723362,0.4249492,0.3155546,0.5338359
		c0.3344917,0.4670544,0.6649857,0.9377689,1.0846701,1.3455248C13.1401234,9.8455915,13.192297,9.9922743,13.0011492,10.162343z"/>
	<path fill="#0A250F" d="M13.2458839,6.0583177c0,0.8776398,0,1.7552791,0,2.6748691
		c-0.310873-0.1350288-0.2373619-0.3263874-0.2409964-0.4823856c-0.0097113-0.4169912-0.0489588-0.8397326,0.008729-1.2500539
		c0.0663567-0.4719691-0.1545572-0.8741541-0.251936-1.3064566c0.0765305-0.047823,0.1521416-0.0496025,0.2266483,0.0038357
		l0.022893,0.049726C13.1255789,5.8282294,13.1560545,5.9622536,13.2458839,6.0583177z"/>
	<path fill="#4A1C3E" d="M14.6104136,4.5773873c0.080945,0.0388513,0.1618891,0.0777025,0.242835,0.1165538
		c0.0832167,0.0891175,0.1213303,0.1942134,0.1230459,0.309895c0.0169134,1.141367,0.0081301,2.2827196-0.004571,3.4240565
		c-0.0010796,0.0969696-0.0375547,0.1827068-0.114399,0.2517281c-0.0381565,0.0055904-0.0760584,0.0123882-0.1137018,0.0203953
		c-0.0267763-0.0241518-0.0535507-0.0483027-0.0807333-0.0721979c-0.1947794-0.5132875-0.0640154-1.0444355-0.0996227-1.5666041
		c-0.0471821-0.6919246,0.0913019-1.3901792-0.0837479-2.0762339c-0.3145037-0.2472668-0.6906252-0.0986247-1.0370083-0.1336355
		c-0.2169743-0.0219316-0.4396467,0.0126176-0.6545448-0.0476418c-0.0673161-0.0234904-0.1223888-0.0618997-0.1657581-0.1145058
		c0.0040693-0.0356951,0.0065842-0.0714827,0.0075464-0.1073627C13.2892962,4.3246737,13.9494715,4.3068523,14.6104136,4.5773873z"
		/>
	<path fill="#042607" d="M11.8881159,8.3374863c-0.0252123,0.0686779-0.0323381,0.2443247-0.1415968,0.0625181
		c-0.1419067-0.2361336-0.2299557-0.499651-0.3411875-0.7513814c-0.5108767-0.5198798-0.2687607-1.141047-0.2643557-1.7269974
		c0.0012426-0.1652441,0.0835085-0.3294711,0.0832167-0.5007248c0.0057411-0.0917549,0.0209055-0.1822619,0.0544262-0.2690706
		c0.0236025-0.0556493,0.0618849-0.1021266,0.1129456-0.1392245c0.1777163,0.0044165,0.3065491,0.050221,0.248333,0.2522578
		C11.4547024,6.3073854,11.3668051,7.3432565,11.8881159,8.3374863z"/>
	<path fill="#0F2313" d="M14.6104136,4.5773878c-0.6602201,0.0014658-1.3204432,0.0029321-1.9806614,0.0044227
		c0.0153618-0.1952486,0.1175938-0.3299732,0.3386621-0.3347616c0.4722557-0.0102282,0.9450731-0.0123792,1.4173193-0.0031004
		C14.6198997,4.248549,14.7301435,4.3553157,14.6104136,4.5773878z"/>
	<path fill="#311F2D" d="M9.4084463,8.7962027c-0.0425482,0.000865-0.0850945,0.0017309-0.1276426,0.0025969
		C9.1989603,8.8521338,9.1078081,8.8756037,9.007885,8.871707C8.7337351,8.8033352,8.4221172,8.8826733,8.1775646,8.6956882
		c-0.0872707-0.0252695-0.1745424-0.050539-0.2618132-0.0758066c0.0345311-0.0805941,0.1001511-0.1304979,0.1857653-0.1604052
		c0.3243999-0.1386843,0.7427759,0.1353197,1.021286-0.1975985C9.0812111,7.9910426,9.007926,7.7274299,8.9480677,7.4612098
		C8.8365488,7.3339095,9.0643101,7.0359092,8.6934271,7.0406003C8.6371546,7.0379372,8.5862179,7.0228152,8.5387936,6.9959345
		C8.4621792,6.866715,8.570158,6.8139992,8.6573954,6.7526803C8.935153,6.5106812,9.1679697,6.3875499,9.1695557,6.9103446
		c0.000432,0.1423464-0.0319891,0.2951713,0.1094942,0.4066529c0.0228558,0.0178161,0.0457106,0.0356321,0.0689678,0.0531807
		C9.5046206,7.6419749,9.5331745,7.949173,9.6322126,8.2374105c0.0211935,0.0849686,0.0238409,0.1698914,0.0010281,0.254899
		C9.5437994,8.5844793,9.684041,8.8207369,9.4084463,8.7962027z"/>
	<path fill="#EF02DF" d="M8.1747618,8.5429335C8.0884142,8.5685339,8.0020666,8.5941343,7.9157352,8.6198082
		C7.9046206,8.5258284,7.8934898,8.431777,7.882359,8.3377237C7.8463717,8.2381277,7.893158,8.1516266,7.931983,8.0635948
		c0.0389562-0.0880651,0.0836153-0.173975,0.1199751-0.263433c0.0330105-0.0973802,0.0957136-0.1764283,0.1751328-0.2457347
		c0.1778526-0.1274643,0.2606926-0.3367314,0.4559689-0.4496365c0.5016747-0.1209993,0.1929531,0.2754717,0.305357,0.4036937
		C8.8249388,7.8172035,8.6707926,8.1304817,8.4951172,8.4342318C8.408268,8.5198927,8.2762651,8.4931707,8.1747618,8.5429335z"/>
	<path fill="#303030" d="M21.7943993,7.9973516c-0.0000248-0.2278914-0.0000515-0.4557838-0.0000763-0.6836753
		c-0.1312428-0.6152816-0.0160599-1.2420368-0.1111717-1.8625574c-0.0557785-0.3638964-0.3228588-0.7050767-0.1616039-1.09551
		c0.069622-0.0389099,0.1375675-0.0367389,0.2045135,0.0058055c0.308979,0.4990582,0.4893475,1.0184603,0.3937149,1.607944
		c-0.0904121,0.5572886,0.0675945,1.1281157-0.0799999,1.685606C21.957983,7.769094,21.8761902,7.8832231,21.7943993,7.9973516z"/>
	<path fill="#0A240F" d="M12.3790951,12.5216551c-0.7873831,0-1.5747671,0-2.3621511,0
		C10.8073463,12.2983656,11.5953331,12.2483969,12.3790951,12.5216551z"/>
	<path fill="#0B250C" d="M14.8573246,8.6796207c-0.0013227-1.3285623-0.0026436-2.6571245-0.0040197-3.9856834
		c0.1033678,0.0019183,0.1983318,0.0194983,0.2512846,0.1148653c-0.0757866,1.2898297-0.1169243,2.57967-0.0013952,3.8695583
		C15.0219765,8.8007164,14.9399633,8.7918711,14.8573246,8.6796207z"/>
	<path fill="#222122" d="M22.0397758,7.6549644c0.0266399-1.1152635,0.0533543-2.2305331-0.3702221-3.3030996
		c0.1631756-0.0450783,0.2647724,0.036757,0.3545055,0.1444201c0.2668285,0.4647908,0.4879112,0.9339767,0.1422958,1.4498649
		C22.0933971,6.5138259,22.3178291,7.1001425,22.0397758,7.6549644z"/>
	<path fill="#DE05BB" d="M12.9883289,5.6981263c-0.0755501-0.001277-0.1511002-0.0025539-0.2266483-0.0038333
		c0.0067978-0.0316768-0.0009995-0.0599446-0.0233936-0.084806c-0.0153074-0.0666556,0.0050697-0.1222477,0.0612993-0.1673336
		c0.0589991-0.036294,0.1229897-0.0604248,0.1925116-0.0741735c0.0712185-0.0120664,0.1424389-0.0146918,0.2145767-0.0103865
		c0.4673586,0.052865,0.5818863,0.3546724,0.58992,0.7212834c0.0147324,0.6723294,0.0127993,1.3447957,0.0014753,2.0168891
		c-0.0128727,0.1264467-0.0107775,0.2547626-0.0378056,0.3802223c-0.0136232,0.061202-0.0398493,0.1181097-0.0766134,0.1706705
		c-0.0478516,0.056179-0.1053905,0.0656834-0.1720457,0.0285053c-0.1265078-0.8829556-0.0251904-1.769618-0.0507126-2.6542277
		C13.4523849,5.7260027,13.4281464,5.4562058,12.9883289,5.6981263z"/>
	<path fill="#B60B9A" d="M12.1352758,11.8688202c0.0360918,0.0085268,0.0726604,0.0109663,0.1096821,0.0073318
		c0.1377411,0.1770868,0.177639,0.3218307-0.1429005,0.3222647c-0.5981274,0.0008087-1.1964207-0.0121727-1.7943268-0.0026064
		c-0.2736454,0.0043783-0.2965269-0.1434078-0.2948198-0.3284168c-0.022233-0.0934687,0.0271406-0.1335182,0.1222429-0.139431
		c0.132513,0.0892954,0.2365408,0.2483683,0.4458504,0.1547308c0.0540047-0.0133286,0.1077433-0.0214691,0.162776-0.0277843
		c0.2318058-0.0167274,0.4628534-0.0196066,0.6933699,0.0002489c0.0554991,0.0051737,0.1105194,0.0157146,0.1643724,0.0284147
		C11.7812643,11.9474344,11.959383,11.9466391,12.1352758,11.8688202z"/>
	<path fill="#1A201B" d="M22.1663551,5.9461498c0.0693035-0.5151491-0.0676308-1.0010028-0.248558-1.4806075
		c0.0184364-0.2391362,0.1872501-0.1993055,0.3548775-0.1622257c0.169384,0.1224871,0.2028065,0.29704,0.217123,0.4788561
		c-0.0900097,0.4700131-0.0056877,0.9190741,0.1980877,1.3536711c0.0352974,0.1296329-0.0225716,0.2148705-0.150465,0.2664437
		C22.1887112,6.4051285,22.3743553,6.0401621,22.1663551,5.9461498z"/>
	<path fill="#05260A" d="M15.1031942,8.6783609c-0.1703081-0.1291981-0.1180916-0.3089399-0.1187248-0.4719887
		c-0.003787-0.9753938-0.0037489-1.9508119-0.0000257-2.9262061c0.0006218-0.1630864-0.051095-0.3428793,0.1201658-0.4713855
		c0.0010662,0.1891322,0.0021524,0.378242,0.0032396,0.5673518C15.212224,5.4905963,15.19874,5.6051259,15.1080723,5.719698
		C15.1064463,6.7059193,15.1048193,7.6921396,15.1031942,8.6783609z"/>
	<path fill="#222122" d="M22.5374203,6.4022875c0.0337963-0.0823154,0.0675907-0.1646309,0.1013851-0.2469463
		c-0.2158985-0.3681378-0.2088432-0.7808256-0.2783489-1.1780477c0.0213947-0.0594387,0.0659389-0.0937386,0.133316-0.1030054
		c0.0935001,0.0159388,0.1635437,0.0648141,0.2191086,0.1330853c0.1631489,0.2844534,0.146307,0.6145,0.2698154,0.9094753
		c0.0004082,0.0009742,0.0377045-0.0080695,0.0550041-0.0169835c0.0174713-0.0090003,0.0314846-0.0236731,0.0486336-0.0387859
		c0.0424156-0.0370479,0.0907326-0.0526571,0.1472454-0.0521402c0.1580811,0.0811133,0.1685696,0.2144432,0.1542416,0.3574214
		c-0.1169815,0.2466049-0.2791767,0.4439607-0.6024742,0.4638462C22.6243553,6.6263475,22.5415916,6.5504866,22.5374203,6.4022875z"
		/>
	<path fill="#032508" d="M7.6762152,9.251359c0.1860862,0.0123568,0.2087221,0.0837259,0.0832977,0.2024364
		C7.589047,9.6151361,7.3821716,9.7572203,7.4233365,10.0237598C7.301847,10.3308563,7.3743663,10.659132,7.3010592,10.971489
		c-0.0026307,0.0901899-0.0243068,0.171339-0.1215425,0.2166348C6.8520355,10.3718967,7.0053854,9.7739439,7.6762152,9.251359z"/>
	<path fill="#222122" d="M24.2715492,5.2631063c-0.0079384,0.1089816-0.0158749,0.2179627-0.0239563,0.3268824
		c-0.3657284,0.3324175-0.5706959,0.7644491-0.8451271,1.1534281c-0.0987225-0.0494332-0.1195469-0.1342206-0.1220226-0.2273407
		c0.0152702-0.3389173,0.2948704-0.575644,0.4003677-0.8798213c0.0356007-0.0690179,0.0821171-0.1315956,0.1328831-0.1917124
		c0.0860558-0.0977035,0.1603737-0.2091818,0.3100433-0.2363195C24.1804028,5.2094035,24.2297077,5.2277846,24.2715492,5.2631063z"
		/>
	<path fill="#0D2411" d="M14.7348976,8.9084721c-0.042429,0.3951006-0.3673735,0.335556-0.6503401,0.3403702
		c-0.2755194,0.0046873-0.5569983,0.0143642-0.5881548-0.3401213C13.9091806,8.6839561,14.3220119,8.6784554,14.7348976,8.9084721z"
		/>
	<path fill="#012508" d="M9.0407953,8.7907162c0.08004,0.0026665,0.1600809,0.0053329,0.2400656,0.0080414
		c-0.4404192,0.4605131-0.897542,0.4645443-1.3434515,0.0120382C8.0147705,8.8046303,8.0919781,8.798316,8.1691856,8.7920027
		C8.4595766,8.7081919,8.7501202,8.7116966,9.0407953,8.7907162z"/>
	<path fill="#032706" d="M8.2860317,7.6438017C8.2384205,7.7233725,8.1908083,7.8029442,8.1431971,7.8825145
		C8.0006323,7.9572701,7.905252,7.9547701,7.9222183,7.7683191c0.2040043-0.3638029,0.2473335-0.8260245,0.7352819-1.015738
		C8.617569,6.8244147,8.5777435,6.8961487,8.5379171,6.9678831C8.69203,7.2682576,8.3943605,7.4261789,8.2860317,7.6438017z"/>
	<path fill="#132315" d="M23.7817211,5.6074681c0.0123787,0.3866487-0.3366165,0.6046052-0.5012779,0.9086089
		c-0.187645-0.0449471-0.2271214,0.4539614-0.4951,0.1141286c0.2129021-0.1085501,0.3786831-0.2605023,0.496788-0.4563637
		C23.4121323,5.9577875,23.2741547,5.5417228,23.7817211,5.6074681z"/>
	<path fill="#222121" d="M15.8497667,4.6937799c-0.0831242,0.1135197-0.1662502,0.2270389-0.2493773,0.3405585
		c-0.0595455,0.0973625-0.1001339,0.2121129-0.2478371,0.2286086C15.1516523,4.729991,15.233902,4.6358385,15.8497667,4.6937799z"/>
	<path fill="#08240D" d="M19.4443398,8.7888784c-0.0000591-0.3000307-0.0001183-0.6000624-0.0001431-0.9000225
		C19.8412495,8.1888714,19.8395672,8.4888554,19.4443398,8.7888784z"/>
	<path fill="#172318" d="M8.0259619,8.1096201C7.9780931,8.1856546,7.9302254,8.2616892,7.8823581,8.3377237
		C7.6255889,8.3577414,7.6343288,8.668457,7.3137879,8.7261343c0.0146608-0.2769976,0.1100783-0.4759645,0.3574944-0.6166954
		C7.7895236,8.0838537,7.907805,7.9937768,8.0259619,8.1096201z"/>
	<path fill="#052608" d="M11.6398983,5.264864c-0.0697632-0.0747614-0.1395254-0.1495228-0.2092867-0.2242851
		c-0.148221-0.2293091,0.042285-0.2823172,0.2127008-0.3457823c0.0612783-0.042985,0.1579762-0.1338773,0.1781464-0.1212597
		c0.1416607,0.0886168,0.0322628,0.2301688,0.0619326,0.3468881C11.8022032,5.0352325,11.7210512,5.1500483,11.6398983,5.264864z"/>
	<path fill="#361D32" d="M14.7348976,8.9084721c-0.4128313,0.000082-0.8256645,0.000164-1.2384949,0.000248
		c0.0033808-0.044076,0.0067616-0.088151,0.0101404-0.1322279c0.3222551-0.1696758,0.6828394-0.1163721,1.0286303-0.1501274
		c0.0650015-0.0008335,0.1271544,0.0110741,0.1865416,0.0351992c0,0,0.0217781,0.0381126,0.021842,0.0382824
		C14.740715,8.7695017,14.7378063,8.8389864,14.7348976,8.9084721z"/>
	<path fill="#212121" d="M19.1930676,9.8201628c-0.0041084,0.3553267,0.4984112,0.4432268,0.4972267,0.7970142
		C19.4851437,10.3723125,18.9095631,10.3229895,19.1930676,9.8201628z"/>
	<path fill="#002704" d="M9.5312147,6.6314383c0.000288,0.1895275,0.0005779,0.3790545,0.0008678,0.5685821
		c-0.0559502,0.0838017-0.1064882,0.1775951-0.2435627,0.111629c0,0-0.0093317,0.0052795-0.0094004,0.0053139
		c0.0038576-0.2282848,0.0077858-0.456605,0.011713-0.6849241C9.37076,6.564229,9.450882,6.5621309,9.5312147,6.6314383z"/>
	<path fill="#172316" d="M15.3525524,5.2629471c0.0826263-0.0761976,0.1652498-0.1523952,0.2478561-0.228601
		c0.042037,0.0384007,0.084094,0.0768099,0.1261492,0.1152186c0.1007814,0.1859097,0.0042334,0.3247442-0.1282825,0.4549985
		c-0.0813761-0.0000696-0.1627531-0.0001392-0.2441292-0.0002089c-0.0770788-0.0760112-0.0723286-0.152288-0.0008793-0.2287822
		C15.3533068,5.3380289,15.3530684,5.300487,15.3525524,5.2629471z"/>
	<path fill="#0E240F" d="M12.5156517,5.6032419c-0.1048851-0.0009246-0.2013121-0.017952-0.2562752-0.1139112
		c0.0989122-0.2268515,0.0990219-0.4536929-0.0000753-0.6805253c0.054615-0.0958462,0.150732-0.1129651,0.2553759-0.1139045
		C12.735342,4.9974809,12.7278872,5.3002687,12.5156517,5.6032419z"/>
	<path fill="#541B45" d="M12.5156517,5.6032419c-0.0003834-0.3027892-0.0007648-0.6055784-0.0010614-0.9083543
		c0.0361328,0.0007362,0.0720196-0.0011392,0.1076822-0.0056524c0.0533733,0.0059037,0.1068106,0.0118461,0.1602488,0.0177884
		c0.0098438,0.0225339,0.0196896,0.0450683,0.0299644,0.0674047c-0.0008278,0.0240383-0.0020828,0.048274-0.0021544,0.0724053
		c-0.0487604,0.1860781-0.0387468,0.3752966-0.0321798,0.5643373c-0.002162,0.0236444-0.0047312,0.0472713-0.0073032,0.0708971
		c-0.0108366,0.04247-0.0216722,0.0849395-0.0325336,0.1274142C12.6640749,5.6074052,12.5898638,5.6053238,12.5156517,5.6032419z"/>
	<path fill="#072508" d="M10.168684,11.8042116c-0.0519152,0.0210629-0.1038322,0.0421247-0.1557608,0.0631838
		c-0.3902082-0.1653538,0.1650267-0.2961407,0.0195875-0.4525499c0.0807953-0.0385761,0.1615419-0.0771465,0.2422895-0.1157188
		c0.0816088,0.0138931,0.1366711,0.0580759,0.1708918,0.1262693c0.0096378,0.0470209,0.0046091,0.0930691-0.0120888,0.1382666
		C10.3712149,11.6677141,10.2938585,11.7583199,10.168684,11.8042116z"/>
	<path fill="#07250A" d="M8.0259619,8.1096201c-0.118176-0.0314503-0.2364497,0.1378336-0.3546262-0.000165
		c0.0075774-0.1610427,0.0885305-0.2764239,0.250895-0.341126c0.0442657,0.0861626,0.1263094,0.1105003,0.2209663,0.1141863
		C8.1041183,7.9582167,8.0650406,8.0339184,8.0259619,8.1096201z"/>
	<path fill="#B30B9A" d="M14.6176329,8.6841679c-0.3536186,0.2013388-0.7411041,0.0581465-1.1111164,0.0923719
		c-0.008419-0.0342426-0.0067463-0.0680132,0.0050688-0.101367c0.0384359-0.0085888,0.0772924-0.0148506,0.1165924-0.018796
		c0.2962141-0.1737976,0.6027632-0.1556005,0.9146891-0.0420284C14.5679369,8.6373711,14.5927839,8.6607695,14.6176329,8.6841679z"
		/>
	<path fill="#212121" d="M20.5570049,7.6555939c0.0089092,0.2561402-0.0078945,0.5043583-0.2488766,0.6835108
		C20.3193817,8.0891771,20.3730106,7.852303,20.5570049,7.6555939z"/>
	<path fill="#162317" d="M9.0407953,8.7907162c-0.2905235,0.0004501-0.581049,0.0008993-0.8715916,0.0013189
		c0.000947-0.0323544,0.0037012-0.0645485,0.0083036-0.0964794C8.4675007,8.7105131,8.7758131,8.5840902,9.0407953,8.7907162z"/>
	<path fill="#162315" d="M19.193409,7.6553626c-0.006916-0.2217021-0.5527782,0.0529227-0.3719196-0.3417091
		C18.8288002,7.5349951,19.3735352,7.2613983,19.193409,7.6553626z"/>
	<path fill="#08250D" d="M9.5312147,6.6314383c-0.0801678,0.000186-0.1603355,0.0003719-0.2404432,0.0005789
		C9.2896233,6.5936441,9.288415,6.5552487,9.2872257,6.5168576c0.1929865-0.1027141,0.0590792-0.315906,0.243989-0.5290804
		C9.5312147,6.2563472,9.5312147,6.4438925,9.5312147,6.6314383z"/>
	<path fill="#303030" d="M21.5471249,8.6816883c-0.0087795-0.2228985,0.0504227-0.4210567,0.2450924-0.5698967
		c0.0005035,0.1133718,0.0010281,0.2267313,0.0015545,0.3400898C21.6832123,8.5027437,21.789238,8.7502947,21.5471249,8.6816883z"/>
	<path fill="#032607" d="M12.2593012,4.8088055c0.1860943,0.2268457,0.1861162,0.453702,0.000061,0.6805468
		C12.2593527,5.2624888,12.259326,5.0356469,12.2593012,4.8088055z"/>
	<path fill="#172317" d="M15.3532667,5.3755722c0.0002928,0.0762649,0.0005865,0.1525297,0.0008793,0.2287879
		c-0.0413637,0.037921-0.0827274,0.0758486-0.1240959,0.1137686c-0.0406733,0.0003481-0.0813456,0.0008659-0.1219969,0.0015583
		c-0.0000687-0.1145043-0.0001535-0.2290192-0.0002232-0.3435445C15.1896544,5.375946,15.2714596,5.3757591,15.3532667,5.3755722z"
		/>
	<path fill="#012803" d="M13.2458839,6.0583177c-0.148345-0.0588465-0.2418108-0.1527572-0.2347126-0.3106775
		C13.2888918,5.7237854,13.2401686,5.9084587,13.2458839,6.0583177z"/>
	<path fill="#222122" d="M21.5471249,8.6816883c0.0822201-0.0765944,0.1644382-0.1531887,0.2466526-0.2297945
		c0.0121918,0.1959562-0.0207405,0.3711166-0.248703,0.4563637C21.5457458,8.8327322,21.5464344,8.7572107,21.5471249,8.6816883z"/>
	<path fill="#212121" d="M22.2887192,4.3524485c-0.1362247,0.002769-0.2818775-0.0206227-0.3709164,0.1130953
		c-0.0827465-0.0378952-0.1654873-0.0757885-0.2482395-0.1136804c-0.0000095,0.0000014-0.0614758-0.0001392-0.0614758-0.0001392
		l-0.0614643,0.0001488c-0.3614922-0.0255504-0.2620983-0.372184-0.4357281-0.5284781
		c-0.1463757-0.2833328-0.4170036-0.4951482-0.5414505-0.7915084c-0.162077-0.3595693-0.4549923-0.596663-0.8334846-0.7534523
		c-0.5924854-0.3776201-1.2265491-0.6893722-1.8656693-0.9929298c-0.2962914-0.1776567-0.6418953-0.1893231-0.9750671-0.2438495
		c-0.0588932-0.0093081-0.1160698-0.023172-0.1726513-0.0400312c-0.5756054-0.0560494-1.1509228-0.0473734-1.7258701-0.0035662
		c-0.0557804,0.019356-0.1133041,0.033384-0.1712494,0.0453753c-0.3965054,0.0756835-0.7986517,0.133855-1.1625557,0.312564
		c-1.1778049,0.4747049-2.1117134,1.2142901-2.8216953,2.1967127c-0.0388594,0.0358152-0.0842667,0.0638921-0.1341276,0.0852149
		c-0.136507,0.0646353-0.3200998,0.0111532-0.4305334,0.1440334c-0.0413713-0.0000443-0.0827427-0.0000892-0.124115-0.0001366
		c-0.101263-0.7588379,0.5223198-1.1999607,0.9924145-1.6147652c1.2302389-1.0855417,2.6541328-1.8555901,4.4619923-1.8089685
		c1.2782745,0.0329644,2.5583382,0.0073376,3.8376026,0.0078669c0.0547142,0.1381896,0.327404,0.1560927,0.2425613,0.3714943
		c-0.1484718,0.099495-0.3536243,0.1661263-0.2713242,0.3982355c0.3254013,0.5084814,1.0179176,0.6623056,1.325285,1.1884534
		c-0.0657578-0.1165314-0.1779766-0.2101631-0.0994644-0.3557961c0.2628174-0.0662243,0.2963982-0.5502107,0.7161427-0.3330435
		c0.1264725,0.1956271,0.0907917,0.420931,0.1392517,0.6308278c-0.0363598,0.5703981,0.306488,0.9827459,0.6879559,1.3741274
		c0.1600609,0.1642189,0.3886032,0.2877774,0.3041039,0.5610433C22.4503307,4.2833219,22.3843346,4.3345671,22.2887192,4.3524485z"
		/>
	<path fill="#212121" d="M25.4967937,1.6136611c0.2744884,0.5179944,0.3299961,1.050272,0.1232624,1.5996623
		c-0.3256359,0.4936967-0.651228,0.9873812-0.9768181,1.481066c-0.0429916-0.0297818-0.0766983-0.0665793-0.1004581-0.1108232
		c-0.0474396-0.1091504-0.0978413-0.2171164-0.1834946-0.3070912c-0.0267487-0.1403298-0.1425934-0.1598177-0.2688999-0.1664891
		c-0.1480045-0.1982436-0.1640053-0.3709557,0.1094761-0.4883184c0.1924934-0.0093958,0.2553692-0.1186824,0.2509766-0.2796006
		c0.3189735-0.5096159,0.2075462-1.0181086-0.0039921-1.5261631c-0.0018196-0.1713711,0.0009098-0.3457297-0.282486-0.2735754
		c-0.8108788-0.5201322-1.5819435-0.4579889-2.3179531,0.1313951C21.4175873,1.4491847,21.8311481,1.315529,21.9118118,1.14574
		c0.0703869-0.0830269,0.1607437-0.1622487,0.0608139-0.2783768c-0.0480213-0.0520262-0.0938034-0.1044434-0.1327209-0.1622643
		c-0.05443-0.108468-0.1291103-0.2144653-0.0492191-0.3389259c0.3258133-0.0006035,0.6563873,0.0316371,0.9765968-0.0076352
		C23.9934196,0.2081577,24.8934021,0.6314083,25.4967937,1.6136611z"/>
	<path fill="#08240E" d="M21.7906857,0.3661729c0.0411491,0.1111645,0.0823002,0.2223291,0.1234493,0.3334937
		c-0.7399597,0.2606257-1.4796638,0.2645698-2.219101-0.0018555c-0.0430202-0.1365388-0.4398232-0.0469855-0.2506371-0.3318762
		c0.1630192,0.0000093,0.3260002-0.0000005,0.4889793-0.0000106c0.538744,0.0919547,1.0774784,0.0921702,1.6161995-0.0001557
		C21.6299458,0.3659035,21.7103157,0.3660382,21.7906857,0.3661729z"/>
	<path fill="#212121" d="M21.5495758,0.3657689c-0.5386925,0.1811475-1.077404,0.1809178-1.6161652,0.0001399
		C20.4721088,0.3658726,21.0108433,0.3658208,21.5495758,0.3657689z"/>
	<path fill="#212121" d="M9.6561079,4.6934261C9.4662437,4.8885145,9.6300316,5.1914539,9.4096508,5.3772378
		C9.4927864,5.1496019,9.2092009,4.8101306,9.6561079,4.6934261z"/>
	<path fill="#222222" d="M24.6423321,4.5783982c0.0002995,0.0386558,0.0005989,0.077312,0.0009022,0.1159797
		c-0.047802,0.2316637-0.1242943,0.4474511-0.3716888,0.568728c-0.0416279-0.0000901-0.0832615-0.0001807-0.1248932-0.0002713
		c-0.0435848-0.0353198-0.0677986-0.0799575-0.0757885-0.1326098c0.0023518-0.0522966,0.0157681-0.10215,0.0387859-0.149951
		C24.2619572,4.8184581,24.3051968,4.5331321,24.6423321,4.5783982z"/>
	<path fill="#313131" d="M10.7688389,3.5537441c0.6020584-1.1282499,1.6043682-1.8326421,2.851182-2.2781076
		c0.3968668-0.163097,0.845047-0.1687694,1.2387266-0.3416407l0.0000324-0.0000197
		c0.6606894-0.0908731,1.3214054-0.0891476,1.9821453-0.0004913l-0.0003834-0.0002303
		c0.3581047,0.130015,0.7458401,0.1378978,1.1134872,0.2285873c0.5879307,0.3901975,1.2963009,0.595628,1.8586388,1.0250914
		c0.3331509,0.2253041,0.6222744,0.4910998,0.8670826,0.7976592c0.0784931,0.3112156,0.4554348,0.4648659,0.4965515,0.7958148
		c0.048048,0.1206987-0.012743,0.1417353-0.1250763,0.1155784c-0.5660858-0.8737888-1.3573608-1.5380404-2.3012371-2.0483761
		c-0.4341316-0.2347267-0.8957996-0.4286222-1.4142494-0.4579604c-0.1583595-0.0884109-0.3563957-0.1038258-0.4953995-0.2278472
		c-1.5672131-0.0777329-3.0681782,0.1163368-4.3406963,1.0387037c-0.5792618,0.4198699-1.2606897,0.7984762-1.3567791,1.5829051
		C10.8950672,3.8765144,10.6843739,3.9184895,10.7688389,3.5537441z"/>
	<path fill="#313131" d="M21.0512257,3.8959854c0.0416813-0.0385149,0.0833626-0.0770295,0.1250591-0.115561
		c0.2347965,0.1294205,0.1749935,0.4203827,0.3703384,0.5714457c0.1353531,0.7870021,0.4508934,1.5486531,0.3762054,2.3659477
		c-0.0188007,0.2057586-0.0076656,0.4111009-0.1285057,0.5958586c-0.0825672,0.0379748-0.1651325,0.0759497-0.2476997,0.1139235
		C21.5664158,6.228446,21.6412888,5.0227547,21.0512257,3.8959854z"/>
	<path fill="#213423" d="M10.7688389,3.5537441c0.0139265,0.2291818,0.1932306,0.2304409,0.3740292,0.2296503
		c0.1356201,0.2325058,0.4161024,0.2984343,0.6179399,0.4547715c-0.0443048,0.0829401-0.0885878,0.1658769-0.1328688,0.2488136
		c-0.1419048,0.0491905-0.2725639-0.0025849-0.4054813-0.0368209c-0.1569901-0.0510082-0.2982655-0.1257148-0.4150467-0.2363253
		c-0.1056032-0.1417098-0.30933-0.180975-0.4095068-0.3287203c0.0023241-0.0338497,0.0041513-0.0677221,0.0054836-0.1016173
		c0.0400705-0.1123219,0.1719933-0.1421342,0.2417898-0.2277529C10.6863976,3.555023,10.7276173,3.5543568,10.7688389,3.5537441z"/>
	<path fill="#313131" d="M16.8403397,1.1618016c0.1964054,0.0184194,0.3694839,0.0797479,0.4953995,0.2278472
		C17.1235218,1.4003206,16.9339714,1.3692957,16.8403397,1.1618016z"/>
	<path fill="#7C156A" d="M11.2445879,4.3754859c0.156291-0.0459695,0.2656088,0.0451307,0.3834257,0.1113496
		c0.0050344,0.0694127,0.0101433,0.1386809,0.015276,0.2079554c-0.0708847,0.1152668-0.1417942,0.2305269-0.2126904,0.345788
		c0.0000124,0-0.0535927-0.0061874-0.0535927-0.0061874c-0.0588388,0.0298071-0.1120424,0.0228982-0.1599388-0.0205846
		c-0.0889397-0.1262798-0.094882-0.2666736-0.08358-0.4103565C11.1449194,4.5170326,11.1742382,4.4376941,11.2445879,4.3754859z"/>
	<path fill="#222122" d="M9.4084463,8.7962027c0.1482172-0.0839329,0.1220455-0.224227,0.1344652-0.352047
		c0.0999508-0.0094452,0.1492481,0.0221148,0.1155987,0.1208239c0.2689877,0.4527035,0.507453,0.9240208,0.816226,1.3524628
		c0.2666655,0.3700113,0.3172979,0.8375158,0.6659203,1.16187c-0.0311975,0.0333252-0.0707293,0.0453606-0.1171436,0.0396147
		c-0.0620279-0.0153027-0.1237288-0.0345583-0.1895037-0.0300207c-0.1094017,0.0308704-0.1821499,0.1460218-0.3171997,0.1164045
		c-0.1167803-0.0856209-0.1114006-0.229414-0.1911688-0.3330393c-0.0229778-0.0506773-0.0368576-0.1030684-0.0446653-0.157239
		c0.0107365-0.1896305-0.0516376-0.3923378,0.1175232-0.5531969c-0.2040806-0.3026028-0.4190798-0.5972967-0.716259-0.832036
		C9.5044403,9.1893587,9.3774652,9.0271463,9.4084463,8.7962027z"/>
	<path fill="#D906BB" d="M9.902112,5.0347815c0.0278873-0.1216841-0.0054379-0.2614474,0.1233358-0.353334
		c0.0715952-0.0291781,0.1321602-0.0158734,0.181982,0.0396705c0.2066946,0.3791475-0.049818,0.7372689-0.0578365,1.1068144
		c-0.1200781,0.4423699-0.1072006,0.8863335-0.0161028,1.33074c0.0545654,0.2813811,0.0961046,0.5653119,0.1806154,0.8412366
		c0.0379515,0.1883693,0.1096716,0.3678765,0.1777592,0.5483394c0.0512066,0.1567554,0.1187201,0.3106174,0.1087446,0.4792376
		c-0.0136738,0.0551939-0.0440826,0.1008034-0.0932827,0.1353769c-0.2787781-0.2164431-0.2729979-0.5701399-0.4706936-0.8256922
		C9.6790466,7.9910588,9.7120361,7.5584722,9.7209606,7.1309381c0.0375347-0.4681444-0.0833225-0.9432154,0.0751028-1.4056396
		l-0.0001669,0.001348C9.8742657,5.501606,9.7857418,5.2548862,9.902112,5.0347815z"/>
	<path fill="#FE00E8" d="M10.540905,9.0223808c-0.0919056-0.1382494-0.1554899-0.2841702-0.1441975-0.4503765
		c-0.0806122-0.1161737-0.0702353-0.2077675,0.0829782-0.2607765c0.4598341,0.3631258,0.5448885,0.9432764,0.9292107,1.3551674
		c0.1858435,0.199173,0.331811,0.4242554,0.6196756,0.5145903c0.0844193,0.0433159,0.1452618,0.1042023,0.1710348,0.1917591
		c0.0073261,0.0593987-0.003788,0.1156111-0.0325089,0.169116c-0.4442053,0.3877735-0.5598516-0.1498861-0.8311205-0.2498455
		c-0.028451-0.0310307-0.0569029-0.0620613-0.0853558-0.0930929C11.0466022,9.7901268,10.6551456,9.4770002,10.540905,9.0223808z"/>
	<path fill="#F601E8" d="M10.9046574,10.9502649c0.0383101,0.0407352,0.0766211,0.0814705,0.114933,0.1222057
		c0.126091,0.1852732,0.2855158,0.340517,0.4872389,0.4576578c0.1308537,0.1442251,0.2983503,0.2266665,0.5002775,0.2510538
		c0.0851421,0.3922548-0.1860094,0.2442045-0.3805494,0.2123337l-0.0545588,0.0016928l-0.0543327-0.0048656
		c-0.3188457-0.2092228-0.7173214-0.3425989-0.8362312-0.742692C10.7464666,11.1426182,10.6345005,10.9248648,10.9046574,10.9502649
		z"/>
	<path fill="#002704" d="M9.6585102,8.5649796C9.6199179,8.5247517,9.5813255,8.4845238,9.5428219,8.4442253
		C9.5383177,8.3737898,9.5337238,8.3034239,9.52913,8.2330589C9.505784,7.9834104,9.3098984,7.7158151,9.6189985,7.500711
		c0.3935165,0.192924,0.2255402,0.548902,0.287364,0.8381877L9.8952999,8.3423033
		C9.8187437,8.4012337,9.8724346,8.5161829,9.7803545,8.5684366C9.7397251,8.5677052,9.699111,8.5665522,9.6585102,8.5649796z"/>
	<path fill="#F102DA" d="M10.540906,9.0223808c0.23071,0.3951511,0.6129398,0.7129622,0.7097235,1.1765079
		c-0.3296757-0.2956114-0.5885315-0.6342392-0.7432919-1.0360422C10.5185204,9.1160355,10.5297136,9.0692081,10.540906,9.0223808z"
		/>
	<path fill="#212121" d="M12.1367836,10.5032587c0.0296926-0.0195532,0.0351334-0.043726,0.0163221-0.0725164
		c0.0341854-0.1985025,0.1403217-0.3461637,0.3507385-0.4205294c0.1331701-0.0043831,0.222208,0.0468245,0.2527809,0.1709957
		c-0.1902094,0.2014818-0.3503304,0.4337797-0.6425266,0.5308046C12.0583048,10.6366034,12.0632954,10.566782,12.1367836,10.5032587
		z"/>
	<path fill="#F102DA" d="M12.1367855,10.5032587c-0.0075531,0.0695925-0.0151043,0.139185-0.0226717,0.208766
		c-0.0000153-0.0000114,0.00422-0.0005684,0.00422-0.0005684c-0.1564655,0.267683-0.3135624,0.2439203-0.4711332,0.0008631
		c-0.1036873-0.1400986-0.2073746-0.2801971-0.3111429-0.4202995
		C11.6259651,10.2884884,11.7641354,10.7719345,12.1367855,10.5032587z"/>
	<path fill="#311F2D" d="M9.9063625,8.3388987C9.8245373,8.0722313,9.742713,7.8055644,9.6608877,7.5388975
		C9.5814362,7.4670115,9.5806923,7.3924899,9.6520462,7.3155527c0.0042467-0.0403042,0.0084944-0.0806074,0.0127411-0.1209116
		c0.0417919-0.0468631,0.081337-0.0453105,0.1186342,0.0046606c0.0843964,0.3792925,0.1687937,0.7585845,0.2532015,1.1378717
		C9.9932098,8.3377457,9.9497862,8.3383207,9.9063625,8.3388987z"/>
	<path fill="#551A48" d="M12.7566252,10.1812086c-0.0638733-0.0425568-0.1277485-0.0851145-0.1916208-0.1276722
		c-0.1283321-0.0223169-0.1400175-0.1112709-0.1399603-0.2070398c0.0275927-0.0971661,0.0803595-0.1662712,0.2050161-0.1546745
		c0.0917454,0.1180639,0.1834898,0.2361298,0.2753735,0.3541899C12.8559227,10.0910759,12.8062744,10.1361427,12.7566252,10.1812086
		z"/>
	<path fill="#E803D5" d="M11.5068293,11.5301285c-0.2885408-0.0389309-0.4544258-0.1883545-0.4872379-0.4576569
		c0.0404739,0.0005293,0.0808325,0.0028114,0.121069,0.0068426C11.2627134,11.2295847,11.3847713,11.3798571,11.5068293,11.5301285z
		"/>
	<path fill="#E803D5" d="M11.6265574,11.993516c0.1615953-0.0180902,0.3586826,0.017643,0.3805532-0.2123327
		c0.0775948-0.0139465,0.1113405,0.0263729,0.1281633,0.087636C12.0483818,12.1957884,11.8381739,12.097086,11.6265574,11.993516z"
		/>
	<path fill="#212121" d="M11.6472006,10.7123194c0.1572351,0.090477,0.3143167,0.0954962,0.4711752-0.0007877
		c0.0082188,0.1500931-0.0574656,0.2381201-0.232439,0.2384348C11.7113762,10.9502802,11.6463957,10.8598471,11.6472006,10.7123194z
		"/>
	<path fill="#012801" d="M9.7803545,8.5684366c0.0028791-0.0907001,0.0201712-0.1751947,0.1150427-0.2261868
		c-0.0342569,0.128541,0.182003,0.2354383,0.0379448,0.3734016C9.8823462,8.6665802,9.8313503,8.6175079,9.7803545,8.5684366z"/>
	<path fill="#F102DB" d="M17.9573364,7.5635743c-0.049675,0.0283904-0.0993538,0.0567808-0.1490307,0.0851712
		c-0.0708542,0.0819454-0.1347637,0.1704173-0.241827,0.2188296c-0.3444042-0.0913806-0.370779-0.1378698-0.1502819-0.3971133
		c0.3266087-0.3840008,0.7851067-0.6608562,1.0583401-1.0893407c0.1706066-0.2673082,0.2924728-0.5353866,0.024231-0.8136644
		c-0.0921745-0.098062-0.1967831-0.182198-0.316824-0.2502432c-0.4704838-0.276494-1.0165691-0.0085874-1.5013771-0.1780219
		c-0.0462723-0.0880742-0.0421753-0.17486,0.0050411-0.2614441c0.4919529-0.384316,1.0198174-0.2071524,1.5442448-0.0848684
		c0.2545319,0.0696607,0.4258785,0.2406607,0.593586,0.4157653c0.0780525,0.0437803,0.1489086,0.0948505,0.1961441,0.1689205
		c0.1743698,0.3663535,0.1070061,0.7365184,0.0186176,1.1071935c-0.0391312,0.1014814-0.1254215,0.1740842-0.1898193,0.2602811
		c-0.0219097,0.0335927-0.0312595,0.0699201-0.0280495,0.108983c-0.1038761,0.1315026-0.1864662,0.2831178-0.3743439,0.3352575
		C18.1858349,7.2065954,18.2153206,7.5438633,17.9573364,7.5635743z"/>
	<path fill="#272026" d="M16.2233658,4.8042808c1.073431-0.4841909,1.8454628-0.4469008,2.4743748,0.1195149
		c-0.0822487,0.0714307-0.171896,0.055512-0.263279,0.0190806c-0.6301041-0.2449231-1.2591724-0.3510957-1.8845825,0.0129156
		c-0.0594139,0.0260696-0.1218777,0.0364618-0.1873875,0.0320554C16.2631721,4.9607205,16.1857758,4.9192877,16.2233658,4.8042808z"
		/>
	<path fill="#172316" d="M18.848381,6.7450395c-0.0239887-0.1027427,0.026104-0.1812086,0.0978279-0.2525854
		c0.1689148-0.3729191,0.2507877-0.7458277-0.0001678-1.1186934c-0.0405846-0.0368261-0.0811653-0.0736523-0.1217499-0.1104784
		c-0.0656204-0.0479684-0.0595512-0.0863376,0.0182152-0.1151085C19.4913654,5.4915676,19.4946175,6.3752284,18.848381,6.7450395z"
		/>
	<path fill="#2E1F2A" d="M16.2233658,4.8042803c0.0301628,0.0368071,0.0603237,0.0736132,0.0904865,0.1104198
		c0.1380997,0.3066874-0.2214298,0.3205271-0.332159,0.4810081c-0.0704699,0.0665879-0.1546249,0.1202531-0.2189817,0.1931601
		c-0.0547848,0.0052333-0.1095686,0.0104666-0.1643944,0.0156975c-0.0175343-0.1660414,0.0415449-0.313817,0.128232-0.4550052
		C15.8921604,5.0344696,16.0577641,4.9193749,16.2233658,4.8042803z"/>
	<path fill="#ED03DB" d="M18.8425083,5.1481733c-0.006073,0.0383706-0.0121441,0.0767407-0.0182171,0.1151094
		c-0.1664314-0.1106691-0.3328629-0.2213378-0.4992962-0.3320065c0.0424557-0.0516548,0.0919285-0.0581608,0.1484203-0.0195189
		c0.0747738,0.0040126,0.1495495,0.0080247,0.2243252,0.0120373C18.7459965,4.9985876,18.7942524,5.0733805,18.8425083,5.1481733z"
		/>
	<path fill="#162315" d="M18.4459877,7.18928c0.1247807-0.1117525,0.2495613-0.223505,0.3743439-0.3352566
		C18.7756138,7.0414171,18.7609692,7.2572255,18.4459877,7.18928z"/>
	<path fill="#212121" d="M16.7162876,6.401731c-0.2865963,0.3085079-0.5499401,0.6363015-0.9043808,0.8872433
		c-0.2790279,0.1975508-0.4474525,0.172019-0.4553757-0.1819916c-0.0070229-0.313621-0.0014744-0.6274791-0.0014744-0.9708095
		c0.2752066,0.0837903,0.4928455,0.1961098,0.7427979,0.1519618C16.3488369,6.1194572,16.5435486,6.2099838,16.7162876,6.401731z"/>
	<path fill="#EC03D0" d="M15.7627115,5.5888681c-0.000495-0.0863795-0.0375366-0.1816506,0.0695448-0.2418571
		c0.1640415,0.0218644,0.3148384,0.0826359,0.4698734,0.1331635c0.0564766,0.0113692,0.1115818,0.0245624,0.1676464,0.0360188
		c0.3731041-0.0604157,0.7254601-0.2302132,1.1225872-0.1501484c0.2510242,0.0506086,0.4522076,0.1510854,0.5736103,0.3666186
		c0.0785446,0.2810316,0.117178,0.5497909-0.2572536,0.6864171c-0.0396442-0.011261-0.0922108-0.0286713-0.0946255-0.0567212
		c-0.0653801-0.7588425-0.2501774-0.859025-1.0088253-0.5426908c-0.0731678,0.0152726-0.1196728,0.0480318-0.0975113,0.1258197
		c0.0240898,0.1125174-0.0427322,0.1654487-0.1508904,0.1737108c-0.128828,0.0098414-0.2248993-0.031189-0.2252808-0.1712832
		C16.2283249,5.7124538,15.980957,5.6701837,15.7627115,5.5888681z"/>
	<path fill="#182218" d="M16.3315868,5.947916c0.1262417,0.1106758,0.2518082,0.132762,0.376173-0.0024271
		c0.0859852,0.0388117,0.1719723,0.0776243,0.2579765,0.1164546c-0.0831394,0.1132789-0.1662922,0.2265401-0.2494469,0.3397946
		c-0.2061501-0.0378704-0.4123001-0.0757341-0.6184425-0.1136003c-0.0420666-0.0751042-0.0841427-0.1502047-0.1262188-0.2253051
		c0.0497723-0.0928502,0.1722107-0.0506463,0.240324-0.1094089C16.2518806,5.9525237,16.2917595,5.9506874,16.3315868,5.947916z"/>
	<path fill="#0B250D" d="M16.2119522,5.953424c-0.0499153,0.0925593-0.1429539,0.1049428-0.240303,0.1093812
		c-0.1598806-0.0212698-0.4029646-0.1090751-0.3020401-0.2277412C15.8395758,5.6352172,16.0250626,5.9079499,16.2119522,5.953424z"
		/>
	<path fill="#F202DC" d="M17.8159313,6.3893108c0.3806324-0.1263709,0.2306042-0.4281731,0.2618008-0.670064
		c0.2017441-0.0515418,0.2787228,0.0712934,0.3459129,0.2084856c0.0597858,0.2178574,0.0044498,0.4281092-0.1449184,0.586483
		c-0.5613632,0.5952053-1.1074371,1.2081289-1.8492012,1.6318035c-0.1259956,0.0042229-0.2321987-0.0384731-0.322834-0.1165533
		c-0.0354214-0.0434523-0.0484867-0.092628-0.0395565-0.1464105c0.227129-0.2547765,0.4814262-0.4846153,0.7664356-0.6853991
		c0.081522-0.0384183,0.163044-0.0768361,0.2445641-0.1152554c0.2846775-0.1618466,0.5252171-0.3627062,0.673563-0.6450701
		C17.7730179,6.4212308,17.7944756,6.4052711,17.8159313,6.3893108z"/>
	<path fill="#22221F" d="M16.8052692,5.8196688c0.2422619-0.2630997,0.5439281-0.3204165,0.865099-0.1615086
		c0.358223,0.1772399,0.2413044,0.4624176,0.1455803,0.7311625c-0.0000172-0.0000119,0.0047646-0.0007324,0.0047646-0.0007324
		c-0.0555267,0.0792227-0.0875778,0.1948318-0.2365894,0.129158C17.852253,5.7372761,17.750845,5.6463842,16.8052692,5.8196688z"/>
	<path fill="#521A4B" d="M16.087307,7.8791389c0.0008259,0.0377493,0.0019951,0.0754895,0.0035076,0.1132212
		c0.0036583,0.0245028,0.0073166,0.0490046,0.0113316,0.0734978c0.0229244,0.1959028,0.008913,0.3946381,0.0549927,0.5889149
		c0.0013485,0.0519276-0.0179024,0.0970144-0.0542145,0.1362524c-0.213273,0.0420523-0.2561941-0.1421957-0.3681927-0.2346573
		c0.0622988-0.2352848-0.0726252-0.528389,0.2396545-0.6901226C16.0175648,7.8294859,16.0549507,7.8356733,16.087307,7.8791389z"/>
	<path fill="#222121" d="M16.087307,7.8791389c-0.0372849-0.0070901-0.0749474-0.0112948-0.112957-0.0127535
		c0.255785-0.25633,0.4494076-0.5800734,0.8592243-0.6687317C16.6377563,7.4738693,16.3615341,7.6755805,16.087307,7.8791389z"/>
	<path fill="#EE03D3" d="M17.5841236,6.5177484c0.0788841-0.0430217,0.1577663-0.0860438,0.2366199-0.1291122
		c-0.0815048,0.3815989-0.3410549,0.6019783-0.7426071,0.6937647C17.2467976,6.8941836,17.4154625,6.705966,17.5841236,6.5177484z"
		/>
	<path fill="#F901DF" d="M7.5257196,10.0328865C7.5230031,9.6688147,7.9300518,9.6621389,8.1147118,9.4614954
		c0.5975504-0.1238375,1.1294794-0.0306702,1.5599766,0.3987837c0.0937796,0.091898,0.1381941,0.209733,0.1987772,0.3191919
		c0.0413284,0.2128744,0.0407972,0.4261217,0.0036879,0.6397772c-0.0582085,0.111208-0.1064463,0.2276707-0.1958561,0.3229809
		c-0.4382048,0.4084396-0.9505558,0.5750513-1.5657158,0.4054346c-0.3164153-0.0865269-0.538363-0.2553329-0.5896263-0.5728016
		C7.2028275,10.6609383,7.2019515,10.3469467,7.5257196,10.0328865z"/>
	<path fill="#222122" d="M9.6642075,11.0731506c0.0388136-0.0785618,0.0776262-0.1571236,0.1164379-0.2356863
		c0.101964-0.2231188,0.1019678-0.4462242-0.0001078-0.6693153c-0.0387192-0.0780296-0.0774374-0.1560602-0.1161566-0.2340899
		c-0.079814-0.0624466-0.0803051-0.1365585-0.0377188-0.2170057c0.5079842,0.2109213,0.3741903,0.6460676,0.4204712,1.0183001
		c0.0604391,0.0791407,0.0569887,0.1541405-0.0171976,0.224556c-0.1588573,0.0848427-0.1777,0.3146887-0.4037876,0.3299046
		C9.5840406,11.2094488,9.5846786,11.135437,9.6642075,11.0731506z"/>
	<path fill="#E603D4" d="M9.6642075,11.0731506c-0.0126801,0.0722237-0.0253582,0.1444483-0.0380497,0.2166672
		c-0.4556065,0.3230019-0.9193525,0.6056156-1.5104332,0.2578335C8.6976166,11.571269,9.2384748,11.4811649,9.6642075,11.0731506z"
		/>
	<path fill="#7E1366" d="M7.5257196,10.0328865c-0.1267438,0.3140211-0.1268702,0.6280146,0.0002379,0.9419775
		c-0.0749574-0.0011702-0.1499124-0.0023384-0.2248836-0.0034418c-0.1631808-0.3380165-0.2986689-0.6730747,0.122282-0.947504
		C7.456811,10.0330009,7.4909391,10.0360432,7.5257196,10.0328865z"/>
	<path fill="#042607" d="M10.0299358,10.9599094c0.0056362-0.074852,0.0112734-0.149703,0.0170536-0.224555
		c0.2059278-0.1473732-0.003005-0.4344139,0.2282867-0.5731964c0.1574802,0.2100172-0.0364647,0.4740219,0.1241093,0.6835632
		l0.0000191,0.0000591c0.0806866,0.1905079,0.1249361,0.3805218-0.0091095,0.5681162
		c-0.0384855-0.0382414-0.0769691-0.0764837-0.1154747-0.114747C10.3271313,11.1042395,10.2074785,11.0143948,10.0299358,10.9599094
		z"/>
	<path fill="#EB03DA" d="M9.6266623,9.7170534c0.0125675,0.0723391,0.0251369,0.1446772,0.0377111,0.2170105
		C9.2372398,9.5288315,8.6995401,9.4302969,8.114893,9.4614973C8.7013645,9.132843,9.1708632,9.3906546,9.6266623,9.7170534z"/>
	<path fill="#162316" d="M10.3993855,10.8457212c-0.2227764-0.1999931-0.0819464-0.4558344-0.1240969-0.683567
		c0.0410748-0.0002413,0.0821619-0.00035,0.12323-0.0003195C10.3987942,10.3897982,10.3990898,10.6177597,10.3993855,10.8457212z"/>
	<path fill="#3C2238" d="M10.1594048,4.7132874c-0.0446539-0.010602-0.0893059-0.0212049-0.1339579-0.0318232
		c0.0418711-0.2979665,0.0736532-0.5999098,0.3724747-0.7962399c0.2124729,0.0049486,0.4183207,0.0207443,0.488637,0.2556462
		c-0.1953735,0.0909586-0.5092649,0.0515637-0.4897861,0.3785429C10.3551188,4.623065,10.3100147,4.7233353,10.1594048,4.7132874z"
		/>
	<path fill="#042705" d="M9.6520472,7.3155527c0.002923,0.0744705,0.0058451,0.1489406,0.0088043,0.2233782
		C9.428751,7.7400093,9.5773954,8.0022554,9.5291672,8.2329798C9.3517237,7.9474187,9.287467,7.6367702,9.2884884,7.3116746
		c0.0812283-0.0372386,0.162425-0.0744514,0.2436085-0.1116595C9.5720701,7.2385316,9.6120586,7.2770424,9.6520472,7.3155527z"/>
	<path fill="#4A1B40" d="M9.7834206,7.1993017C9.743722,7.2000256,9.7041254,7.1985044,9.66471,7.1946898
		c0.0512104-0.4892702-0.1708317-0.9991312,0.1313162-1.4693913C9.7918491,6.2166328,9.7876348,6.7079668,9.7834206,7.1993017z"/>
	<path fill="#4A1B40" d="M9.902112,5.0347815c0.0505362,0.2417922,0.0291014,0.4742289-0.1062508,0.6918597
		C9.6456022,5.4719028,9.7600927,5.251554,9.902112,5.0347815z"/>
	<path fill="#112614" d="M10.6451778,3.5557427c-0.0013638,0.1471362-0.082921,0.2222028-0.2418289,0.2277362
		c-0.0422449-0.0004954-0.0845299-0.0010073-0.126811-0.0015206C10.2873831,3.5520713,10.4648085,3.5518765,10.6451778,3.5557427z"
		/>
	<path fill="#C10AAF" d="M16.1029243,8.7910252c-0.0086231-0.0309687-0.0189743-0.0614405-0.0310516-0.0914154
		c0.3585091-0.3071156,0.8010464-0.145483,1.2071724-0.1838875c0.4497662,0.0108423,0.9002819,0.0088835,1.3493176,0.0046396
		c0.1390457-0.016367,0.3248558-0.0091095,0.322237-0.1842957c-0.0028381-0.1902065-0.1938171-0.1611309-0.3310719-0.1516695
		c-0.2279148,0.015707-0.4498959-0.018959-0.674942-0.0409384c-0.201273-0.0597153-0.4979515-0.0417976-0.3640594-0.3751221
		c0.046999-0.0864859,0.1282978-0.1176939,0.2277813-0.1195908c0.2118607,0.4762154,0.640583,0.1565971,0.9557915,0.1915874
		c0.3647804,0.0404911,0.5719223,0.0843067,0.5600414,0.4799938c-0.0102005,0.3397408-0.1402931,0.4718275-0.5113583,0.4671669
		C17.9096813,8.7761469,17.0062332,8.7883234,16.1029243,8.7910252z"/>
	<path fill="#CB08B2" d="M11.3837624,7.8970394c0.0089636,0.1065559,0.0179253,0.21311,0.0268888,0.3196659
		c-0.0539284,0.0402861-0.1122665,0.0467157-0.1752253,0.0196047c-0.5294046-0.7143044-0.5664177-1.5013466-0.392498-2.3152413
		c0.0303726-0.1421361,0.072196-0.3004889,0.2730761-0.3382072c0.0601311,0.0342207,0.0967274,0.0829248,0.1108475,0.1465821
		C11.1803837,6.4583402,11.1554918,7.1854296,11.3837624,7.8970394z"/>
	<path fill="#212121" d="M11.3837624,7.8970394c-0.3863506-0.7334347-0.2562332-1.5080624-0.214509-2.2756395
		c-0.0215397-0.1692739-0.0701771-0.3522763,0.2182522-0.3645139c-0.0693321,0.7977529-0.2468901,1.5961781,0.0176878,2.391798
		C11.3981419,7.7314286,11.3909521,7.8142338,11.3837624,7.8970394z"/>
	<path fill="#ED03D3" d="M11.2699833,8.220438c0.0468836-0.0012436,0.0937653-0.0024872,0.1406584-0.0037317
		c0.1675014,0.299489,0.3349934,0.598978,0.5024853,0.898469c-0.0246677,0.0163965-0.0493374,0.032794-0.074048,0.0492764
		C11.4020576,8.9759598,11.2513638,8.6413736,11.2699833,8.220438z"/>
	<path fill="#212121" d="M12.6300602,9.691823c-0.040555,0.0228996-0.08111,0.0458002-0.1216669,0.0687008
		c-0.1990652,0.15557-0.250082-0.0172997-0.3306046-0.1257076c-0.0234804-0.0926161-0.0139542-0.180109,0.0494938-0.25879
		C12.4235468,9.4143763,12.5297899,9.5498753,12.6300602,9.691823z"/>
	<path fill="#ED03D3" d="M12.2272825,9.3760262c0.013484,0.0721598,0.0269651,0.1443205,0.0404472,0.2164803
		c-0.3575077,0.0240078-0.4843655-0.1287956-0.4010763-0.4426956c0,0,0.0464621-0.0346251,0.0464678-0.0346308
		C12.0178461,9.2021255,12.1225634,9.2890759,12.2272825,9.3760262z"/>
	<path fill="#A00F8A" d="M14.721715,8.6615639c-0.0343628,0.0088415-0.0690613,0.0163746-0.1040897,0.0226011
		c0.0000076,0.0000029-0.0513325-0.0270557-0.0513325-0.0270557c-0.1200066-0.1431799-0.1178703-0.3129644-0.1248646-0.4808302
		c-0.0112009-0.9899836,0.0150976-1.9802704-0.0159712-2.9701838c-0.016324-0.0641246-0.0210066-0.1290588-0.0155773-0.194654
		c0.0100689-0.0311136,0.0209198-0.0622311,0.0313406-0.0933895c0.041853-0.0551543,0.0983028-0.091795,0.1689262-0.1099606
		c0.1516695,0.0852399,0.1228733,0.2252774,0.1225891,0.3536258C14.730155,6.3283343,14.7256546,7.4949484,14.721715,8.6615639z"/>
	<path fill="#D806B8" d="M14.6101465,4.8080912c-0.0398083,0.0385909-0.0796165,0.0771813-0.1194248,0.1157727
		c-0.4544086,0.073873-0.9115219,0.0290594-1.3680115,0.0277395c-0.0669947-0.0028543-0.1320467-0.0145993-0.1959372-0.0329914
		c-0.0642138-0.0212855-0.1179781-0.0564065-0.1617365-0.1044884c-0.0038414-0.0370431,0.0019369-0.0727687,0.0174112-0.1071386
		C13.389967,4.7676673,14.0131273,4.5879126,14.6101465,4.8080912z"/>
	<path fill="#CB08B2" d="M11.3875055,5.256886c-0.1811466,0.0665736-0.1070538,0.2624907-0.2182732,0.3645015
		c-0.0202894-0.011786-0.040803-0.0232768-0.0615196-0.0344601c-0.2135019-0.2579041-0.2118092-0.4581823,0.1756945-0.5551448
		c0.0312481-0.0006251,0.0624485,0.0002437,0.0935993,0.0026088C11.3805065,5.1085563,11.3840055,5.1827211,11.3875055,5.256886z"/>
	<path fill="#F002CC" d="M8.9143496,7.5407057C8.824523,7.4353094,9.1186571,7.1144037,8.6883984,7.2000866
		C8.589817,7.1304393,8.5909634,7.0554037,8.6740875,6.9759402c0.1210327-0.0377188,0.2013578-0.26334,0.3305054-0.1454978
		c0.1625566,0.1483278,0.0614643,0.3751197,0.0454283,0.5695362c0.0487957,0.0822921,0.0537567,0.1667185,0.0146151,0.2532783
		C8.954668,7.6834283,8.877038,7.6770234,8.9143496,7.5407057z"/>
	<path fill="#E404CD" d="M8.1747618,8.5429335c0.0818653-0.0366325,0.1637306-0.073266,0.245595-0.1098995
		C8.6640444,8.2757359,8.939477,8.3063116,9.2120323,8.3194761c0.030098,0.0027876,0.0601931,0.0059462,0.0902882,0.0091047
		C9.432292,8.5557966,9.294405,8.5814648,9.0924273,8.5722208C8.786767,8.5582294,8.4806728,8.5522928,8.1747618,8.5429335z"/>
	<path fill="#E404CD" d="M9.0242405,7.658814c0.0085659-0.0861998,0.0171318-0.1724,0.0257397-0.258718
		C9.1341171,7.709516,9.218214,8.0190544,9.3023157,8.3285866c0.0000048-0.0000057-0.0480738,0.0206041-0.0480738,0.0206041
		C8.8013964,8.2251072,8.8449821,7.9610829,9.0242405,7.658814z"/>
	<path fill="#5A1950" d="M8.6740875,6.9759402c0.0047493,0.0747275,0.0094967,0.1494541,0.0142784,0.2241635
		c-0.1672268,0.122458-0.1399612,0.3941827-0.4023237,0.4436998c0.083972-0.2252893,0.1679544-0.4505777,0.2519064-0.6758928
		C8.5833073,6.9705687,8.6286974,6.9732542,8.6740875,6.9759402z"/>
	<path fill="#FE00D2" d="M9.0242405,7.658814c0.0305214,0.2432022-0.0560379,0.519484,0.2302589,0.6903615
		C8.996501,8.5469904,8.6988373,8.4099588,8.4203272,8.4331808c0.087472-0.3337536,0.1496897-0.6791754,0.4940176-0.8924642
		C8.9509792,7.5800753,8.9876099,7.6194453,9.0242405,7.658814z"/>
	<path fill="#FC00CC" d="M12.9961004,4.8251872c0.4982157,0.0325937,1.0115461-0.1286097,1.4945984,0.0986609
		c0.0000229,0.0000153-0.0156002-0.0033741-0.0156002-0.0033741c-0.1353941,0.8679481-0.0287418,1.7408895-0.0640831,2.6108742
		c-0.0114803,0.282608,0.0411558,0.5702677-0.0729933,0.8455715c-0.3229389,0.3014917-0.507637,0.0365553-0.7121105-0.1477938
		c-0.0018864-0.7169485-0.0284958-1.4348283,0.0034113-2.1505013c0.0198145-0.4444194-0.1625834-0.6343474-0.6328039-0.6116719
		C12.9456863,5.2530589,12.9394455,5.0391407,12.9961004,4.8251872z"/>
	<path fill="#FE00E8" d="M13.6259117,8.229126c0.2041092,0.0744028,0.4082165,0.1488037,0.6123257,0.2232056
		C14.3437052,8.381258,14.4383535,8.386899,14.5198393,8.48594c-0.2750158,0.256609-0.5897045,0.1310463-0.8967886,0.0787573
		C13.6240053,8.4528399,13.624959,8.3409834,13.6259117,8.229126z"/>
	<path fill="#E604D0" d="M13.6230507,8.5646973c0.2875662-0.0405436,0.6039686,0.1074066,0.8641977-0.1118546
		c-0.0721731-0.0612192-0.0762577-0.1330633-0.0390282-0.2113819c0.0441399-0.0413055,0.0927229-0.0462837,0.1457043-0.0149612
		c-0.0091047,0.1435823-0.0182095,0.2871656-0.0274715,0.4306793c-0.3128986-0.0002041-0.6256371-0.0003386-0.938324-0.000638
		C13.6237478,8.625946,13.6220398,8.5953865,13.6230507,8.5646973z"/>
	<path fill="#FE00F6" d="M12.9961004,4.8251872c0.164113,0.2139492,0.1725225,0.4279866,0.0004244,0.6419463
		c-0.0000057-0.0001807-0.0504742,0.001646-0.0504742,0.001646l-0.0502625-0.0045614
		c-0.1973286-0.2102909-0.1931162-0.4212656-0.0025387-0.6328731C12.9272642,4.8254743,12.9615469,4.823422,12.9961004,4.8251872z"
		/>
	<path fill="#EB04D8" d="M12.8932495,4.8313451c0.0007563,0.211081,0.0015125,0.4221621,0.0024042,0.6330581
		c-0.0415287,0.005775-0.083189,0.011735-0.1248283,0.0176792c0.0000229-0.0000143-0.0210133,0.0111179-0.0210133,0.0111179
		c-0.0896683-0.2296343-0.0857563-0.4595966-0.0028591-0.6898365c0,0,0.0180483,0.0107331,0.0180645,0.0107465
		C12.8077745,4.8198638,12.8505125,4.8256044,12.8932495,4.8313451z"/>
	<path fill="#FE00CC" d="M10.7585096,11.2869349c0.2546396,0.2329578,0.5856352,0.3961849,0.7591114,0.7033558
		c-0.291008-0.0002174-0.5820599-0.0004883-0.8731127-0.0007582c-0.0880079-0.1886301-0.0471783-0.3891497-0.0642796-0.5847082
		C10.6086292,11.3258371,10.6541071,11.2684631,10.7585096,11.2869349z"/>
	<path fill="#F601E8" d="M10.6488466,11.4226398c0.1492481,0.189887,0.132041,0.3787193-0.0042915,0.5668449
		c-0.0376873,0.0062618-0.0755472,0.0109816-0.1136265,0.0142069c-0.3515339-0.0186701-0.3545923-0.0341959-0.088273-0.4467545
		c0.015131-0.0515709,0.0336418-0.1021223,0.0551853-0.1517544C10.5528593,11.3763933,10.6034489,11.3805552,10.6488466,11.4226398z
		"/>
	<path fill="#D606C0" d="M10.512743,11.5093575c0.1609783,0.1598558-0.4135427,0.3426008,0.0181789,0.4941826
		c-0.2759333,0.171876-0.372117,0.0675802-0.3622665-0.1994095c0.0765362-0.0979443,0.1530437-0.1959715,0.2295513-0.2939978
		C10.4360914,11.4731464,10.4742556,11.4709806,10.512743,11.5093575z"/>
	<path fill="#252025" d="M22.2887192,4.3524485c0.0422459-0.0385242,0.0844898-0.0770483,0.1267338-0.115572
		c0.4130917-0.0953283,0.8237858-0.0338173,1.2346516,0.015029c0.0601597,0.0199542,0.110672,0.0532413,0.15131,0.0978823
		c0.0145435,0.0550632,0.0044422,0.1064987-0.033268,0.1522102c-0.2074432,0.1296549-0.4522648,0.1929221-0.6873512,0.16359
		c-0.2718582-0.0339212-0.40555,0.0967121-0.5458927,0.2557659c-0.0395851,0.0000038-0.0791683-0.0001106-0.1187515-0.0003424
		c-0.0364933-0.0186548-0.0503902-0.0395827-0.0417805-0.0628128c0.0090237-0.0243492,0.0189629-0.0365376,0.0299091-0.0365376
		C22.3657589,4.6652565,22.32724,4.5088525,22.2887192,4.3524485z"/>
	<path fill="#022505" d="M22.4042797,4.821661c0.0044155,0.0330706,0.0083542,0.0661893,0.0118446,0.0993538
		c0.0743732,0.4115658,0.1487198,0.8231349,0.2228737,1.2345157C22.2869091,5.7515087,22.1840401,5.3106227,22.4042797,4.821661z"/>
	<path fill="#F701DB" d="M23.2184906,5.8460641c-0.0219669,0.0336027-0.043932,0.0672054-0.0658989,0.1008077
		c-0.1287441,0.1448584-0.2834072,0.2251678-0.2899933-0.0456676c-0.0068283-0.2806396-0.1067219-0.5407262-0.1322098-0.8135257
		c0.0386696-0.0902624,0.1186085-0.1158152,0.2129307-0.1150398c0.0616627-0.006722,0.1003342,0.0797796,0.1702518,0.0381861
		c0.0025349-0.0015073-0.0351887-0.0539589-0.0605888-0.0812941c-0.0484238-0.0912118-0.0956364-0.1810641-0.0053806-0.272543
		c0.1704025,0.0024433,0.3102112-0.116416,0.4832458-0.1031766c0.1635914,0.1822324,0.0090904,0.3936434,0.0646458,0.5859966
		c0.0008469,0.127532-0.0460262,0.2433314-0.1036167,0.3565178C23.4192677,5.6249037,23.3461742,5.7536554,23.2184906,5.8460641z"/>
	<path fill="#152314" d="M23.2184906,5.8460641c0.0617695-0.1194248,0.1235409-0.2388506,0.1853104-0.3582764
		c0.1137524-0.1039271,0.1486206-0.2576957,0.2676735-0.358531c0.0549202-0.0126905,0.1051102-0.0035963,0.1510372,0.0268235
		c0.0738678,0.1031041,0.1558628,0.2047739,0.0803299,0.3379598c-0.0404148,0.0377975-0.0808296,0.0755935-0.1211796,0.1134086
		c-0.3124561,0.0798655-0.3212929,0.3863726-0.499548,0.5664039C23.2609177,6.0645823,23.2397041,5.9553237,23.2184906,5.8460641z"
		/>
	<path fill="#E504CB" d="M22.800642,5.0282259c0.0365505,0.2521434,0.0910091,0.503531,0.1036377,0.7566838
		c0.0090961,0.1823707,0.0675735,0.2342458,0.2483139,0.1619616c0.0024357,0.1653123-0.0604191,0.3251867-0.2546425,0.3043365
		c-0.185318-0.0198956-0.1127968-0.206656-0.1285801-0.3265667c-0.0388279-0.2949657-0.0734158-0.5904031-0.1097069-0.8856511
		c-0.0714493-0.08181-0.0643711-0.1655426-0.0072956-0.2505059C22.8440018,4.7939372,22.8700047,4.8861208,22.800642,5.0282259z"/>
	<path fill="#D806B8" d="M22.6819553,4.7976604c-0.007431,0.0804381-0.0148602,0.1608763-0.0222912,0.241322
		c-0.0415878-0.0392041-0.0831718-0.0784159-0.1247616-0.1176281c-0.052721-0.3185301-0.01474-0.5092912,0.4422092-0.4092016
		c0.2453995,0.0537519,0.5274353-0.0340147,0.7929401-0.0579233c0.0368671,0.0469484,0.0392876,0.096231,0.0118141,0.1476016
		c-0.0801258,0.0481424-0.1617165,0.0556364-0.2453117,0.0075541c-0.1684513,0.0303874-0.3369064,0.0607738-0.5053596,0.0911608
		C22.9426575,4.8177328,22.7943325,4.7530046,22.6819553,4.7976604z"/>
	<path fill="#132315" d="M23.9028397,5.4940395c-0.0396824-0.1119032-0.0793648-0.2238059-0.1190491-0.3357091
		c0.1182022-0.107614,0.2399006-0.0981669,0.3639774-0.0092025c-0.0002861,0.0379038-0.0006504,0.0758071-0.0011063,0.1137085
		C24.065382,5.3399034,23.9841118,5.4169717,23.9028397,5.4940395z"/>
	<path fill="#AB0E92" d="M12.746953,4.8033638c0.0009642,0.2299414,0.0019264,0.4598818,0.0028744,0.6898293
		C12.5623131,5.2639089,12.5681429,5.0339398,12.746953,4.8033638z"/>
	<path fill="#162316" d="M10.512743,11.5093575l-0.0572338,0.0047741c0,0-0.0573025-0.0039968-0.0573025-0.0039978
		c-0.0009108-0.0321865-0.0034809-0.0642576-0.0078096-0.0962267c0.0029402-0.1893845,0.0059814-0.3787584,0.009016-0.5681295
		c0.1507425,0.0905905,0.1140814,0.2423716,0.143734,0.3724995c0.0541344,0.068902,0.050848,0.137373-0.0018206,0.2054758
		C10.5244999,11.4502258,10.5149717,11.4787607,10.512743,11.5093575z"/>
	<path fill="#112413" d="M23.7639084,4.3324914c-0.4522552,0.0010381-0.9132481,0.1063304-1.3484783-0.0956054
		c0.0533009-0.260313-0.2065296-0.3313723-0.3333645-0.4882228c-0.3469219-0.4290318-0.8713722-0.8000731-0.6596699-1.4474981
		c0.001236-0.2845204,0.0539703-0.5453495,0.3719826-0.6841319c0.4058609-0.3053497,0.7539101-0.6536299,1.3881702-0.5907962
		c0.4564514,0.0452185,0.7350063,0.3048103,1.0888519,0.4769962c0.1385212,0.0244908,0.2200661,0.1015891,0.2484913,0.2277294
		c0.305994,0.5698596,0.4902382,1.139583-0.0022659,1.7085465c-0.0260429,0.1273124-0.1083946,0.2032902-0.2463112,0.2286117
		c-0.2954903,0.0887177-0.1253948,0.2915747-0.1307888,0.4514108C24.057497,4.2541304,23.9357967,4.330862,23.7639084,4.3324914z"/>
	<path fill="#F401E7" d="M21.2913074,1.6020063c-0.1094456,0.0347745-0.2390995,0.0493996-0.2282143,0.2007296
		c0.0245914,0.3418347-0.2051163,0.2124392-0.3848934,0.1752565c-0.4522991-0.1929874-0.7695084-0.5479553-1.1587391-0.8173907
		c-0.0181103-0.0548688-0.0210819-0.1101094-0.0073986-0.1662186c0.1065693-0.1900293,0.2949829-0.169189,0.4793396-0.1585082
		c0.1015854,0.0172128,0.2238026,0.0309528,0.2860012,0.0967942c0.3578243,0.3787689,0.6799145,0.2806689,0.9963665-0.0425175
		c0.1399403-0.060119,0.2743187-0.0652304,0.3971939,0.0350403c0.0300083,0.0444264,0.0429611,0.0929241,0.0370312,0.1452706
		c-0.0508976,0.1731079-0.1947708,0.2938157-0.2948399,0.4397156C21.3808594,1.5500251,21.3395691,1.5799905,21.2913074,1.6020063z"
		/>
	<path fill="#172414" d="M19.5866928,1.1500722c0.4571037,0.1719269,0.8064137,0.4641025,1.091507,0.8279186
		c-0.0036469,0.209198,0.3054752,0.2569494,0.2868729,0.4778304c-0.0826817,0.0939314-0.1771317,0.0670745-0.2492275-0.0065801
		c-0.3841476-0.3924673-0.8197975-0.727219-1.302927-1.0114179c-0.1155281-0.0679568-0.2886734-0.1275476-0.0886803-0.2823912
		C19.4101639,1.0891068,19.4978275,1.0947236,19.5866928,1.1500722z"/>
	<path fill="#401C3C" d="M19.5866928,1.1500722c-0.0875301,0.0018324-0.1750622,0.0036649-0.2625237,0.0054286
		c-0.2862129-0.4335595,0.0172615-0.4626973,0.3708115-0.4576138c0.7397766,0.0005913,1.4795017,0.0012584,2.2191887,0.0018526
		c0.0425186,0.0400224,0.0850716,0.080118,0.1276264,0.1202136c0.0963535,0.1527552-0.0341969,0.249871-0.1047478,0.3617685
		c-0.0508709,0.0298944-0.1061916,0.0406525-0.165905,0.0324368c-0.0580635-0.0229241-0.087904-0.0625693-0.0848942-0.1216027
		l-0.0393753-0.0185112l0.0049305-0.0404222c0.0581856-0.1988502-0.1239281-0.1725196-0.2097836-0.1513649
		c-0.523428,0.1289728-1.0401592,0.064612-1.5624943,0.00086c-0.116148-0.0141764-0.3529778-0.0973483-0.3243923,0.1724316
		C19.5600281,1.0886461,19.5705471,1.1201537,19.5866928,1.1500722z"/>
	<path fill="#132314" d="M21.7914906,1.1725117c0.0376129-0.0088588,0.0758114-0.0141544,0.1145935-0.015887
		c0.0471134-0.0385729,0.092514-0.0388051,0.1359386,0.0051454c-0.010828,0.1847687-0.3672676,0.2104686-0.2476463,0.4552696
		c-0.1239891,0.2280369-0.2479801,0.4560797-0.3719769,0.684124c-0.2292919-0.2036114-0.0770493-0.4677504-0.1310902-0.6991611
		c-0.0061283-0.0355798,0.0017719-0.0682979,0.0236969-0.0981504C21.4611282,1.3779441,21.613308,1.2594074,21.7914906,1.1725117z"
		/>
	<path fill="#303030" d="M16.8409252,0.9334846c-0.660717,0.0001636-1.3214302,0.0003272-1.9821453,0.0004911
		C15.5194407,0.7484174,16.1801567,0.7482796,16.8409252,0.9334846z"/>
	<path fill="#303030" d="M14.8587475,0.9339957c-0.3552341,0.2908167-0.8006868,0.3048499-1.2387228,0.3416417
		C13.975769,0.986392,14.4204473,0.9699797,14.8587475,0.9339957z"/>
	<path fill="#313131" d="M20.6797504,2.9845922c-0.3388023-0.2201023-0.6278973-0.485925-0.8670807-0.7976573
		C20.2449589,2.3210504,20.5338821,2.587033,20.6797504,2.9845922z"/>
	<path fill="#303030" d="M17.9540291,1.1618416c-0.390583,0.0038553-0.7852573,0.024577-1.1134872-0.2285799
		C17.2317104,0.926983,17.6116219,0.9671242,17.9540291,1.1618416z"/>
	<path fill="#132315" d="M24.6423321,4.5783982c-0.1636505,0.1537552-0.3273029,0.3075109-0.4909554,0.4612656
		C24.0274029,5.0096149,23.9723511,4.9274001,23.95257,4.818222c-0.0021019-0.1061878,0.0500889-0.1928506,0.1167355-0.2742519
		c0.1047401-0.1048169,0.1828251-0.2351031,0.3292923-0.301909C24.6526947,4.2481861,24.6426811,4.4162545,24.6423321,4.5783982z"/>
	<path fill="#222222" d="M24.3985977,4.2420611c-0.0040169,0.1582122-0.0835972,0.2711954-0.2394714,0.33851
		c-0.1461353-0.0382195-0.2597828-0.1236339-0.3692741-0.2150874c0,0-0.0258522-0.0327559-0.025898-0.0328741
		c0.0879669-0.1273513,0.2064972-0.2088838,0.3766499-0.2130351C24.2783051,4.0681415,24.4035625,4.0390644,24.3985977,4.2420611z"
		/>
	<path fill="#222222" d="M24.5198917,1.7309626c-0.117878-0.0435476-0.200983-0.1192027-0.2484932-0.2277253
		c0.0142231-0.089422,0.0247059-0.2133378,0.1641293-0.116673C24.5502472,1.4661015,24.7303638,1.5683159,24.5198917,1.7309626z"/>
	<path fill="#162314" d="M22.0420227,1.1617701c-0.0452271-0.0016788-0.090456-0.0033578-0.1358109-0.005091
		c0.0451126-0.1122774,0.0903511-0.2245007,0.1355877-0.3367248C22.4323368,0.933673,22.2353153,1.0477226,22.0420227,1.1617701z"/>
	<path fill="#222222" d="M24.2713146,3.6681209c0.0821152-0.0761964,0.1642284-0.1523933,0.2463264-0.2286007
		c0.1035995,0.0615618,0.1218929,0.1434424,0.0439224,0.2280354C24.4710541,3.7657576,24.368248,3.7939751,24.2713146,3.6681209z"/>
	<path fill="#152314" d="M24.0006008,4.749464c0.0502281,0.0966992,0.1004543,0.1933985,0.1507282,0.2901487
		c-0.001667,0.0365243-0.0028725,0.0730124-0.0035648,0.1095152c-0.1213589,0.0030198-0.2427216,0.0060396-0.364027,0.0091314
		c0.0000534,0.000071-0.0242729-0.0213871-0.0242729-0.0213871C23.6504498,4.9079885,23.7735672,4.8013625,24.0006008,4.749464z"/>
	<path fill="#FC00CA" d="M10.2769337,4.4640188c-0.0181179-0.4610381,0.2399731-0.4811618,0.6096401-0.3231497
		c0.1193247,0.0782042,0.2386637,0.1564064,0.3580093,0.2346129c-0.0043373,0.0656843-0.0086803,0.1313643-0.0130215,0.1970448
		C10.9121456,4.545332,10.605051,4.4264259,10.2769337,4.4640188z"/>
	<path fill="#FD00E3" d="M10.2769337,4.4640188c0.3629026-0.2954068,0.6601295-0.1023393,0.9547882,0.108573
		c0.0171022,0.1530271,0.0343647,0.3061185,0.0516567,0.4592009C11.104888,5.1847825,11.0287352,5.36514,11.1078682,5.5869842
		c-0.395649,0.9012423-0.1781588,1.7705927,0.1620903,2.6335006c0.1909714,0.3140593,0.2753963,0.6860609,0.5968132,0.9292555
		c0.0481415,0.2131205,0.1887627,0.3553715,0.4009504,0.4427652c0.0802336,0.0560541,0.1604567,0.1121092,0.2406769,0.1680899
		c0.0188484,0.097599,0.0377054,0.1952696,0.0565825,0.2929411c-0.1372786,0.1257315-0.27458,0.251461-0.4118786,0.3771992
		c-0.048111-0.051959-0.0962267-0.1039257-0.1443415-0.1558914c-0.0122175-0.2733803-0.1444178-0.4889507-0.3190203-0.7119799
		c-1.0044069-1.2829809-1.539362-2.6664038-0.9928246-4.2606912c0.0473909-0.1382437,0.1036139-0.2864809-0.0233116-0.5562639
		c-0.4204645,0.9878373-0.4304152,1.8989682-0.2432861,2.8289146c-0.0259809,0.2022138,0.0723934,0.4573445-0.2631416,0.5281177
		c-0.0398083-0.3014011-0.1887217-0.5884085-0.140542-0.9014177C9.9315796,6.7448006,9.9310064,6.288095,10.0269384,5.8314075
		c0.0441494-0.3727083,0.0882988-0.7454171,0.1324577-1.1181231C10.1985807,4.630198,10.2377567,4.5471087,10.2769337,4.4640188z"/>
	<path fill="#B60B9A" d="M10.5413265,11.4237528c0.0005608-0.0685635,0.0011225-0.1371269,0.0017519-0.2055826
		c0.1733398-0.0289946-0.0299053-0.4878006,0.3615646-0.2679005c-0.1265335,0.0837221-0.1402931,0.2087917-0.1460209,0.3367548
		c-0.0366688,0.0451107-0.073226,0.0903111-0.1097794,0.1355629c0.0000038,0.0000525-0.0537405,0.0018806-0.0537405,0.0018806
		L10.5413265,11.4237528z"/>
	<path fill="#F901E1" d="M10.0269384,5.8314075c-0.0000887,0.4566965-0.0001783,0.9133921-0.0002842,1.3701024
		C9.8441839,6.7447839,9.8449564,6.2880788,10.0269384,5.8314075z"/>
	<path fill="#F901E1" d="M10.1671762,8.1029415c0.1872654-0.1623874,0.0797625-0.3733902,0.1094971-0.561758
		c0.4252319,0.1762457,0.3071928,0.4945555,0.2465754,0.7978497c-0.1010389,0.0505657-0.1206036,0.1385708-0.1265059,0.2329206
		C10.3201962,8.4156513,10.2436867,8.2592964,10.1671762,8.1029415z"/>
	<path fill="#FC00CA" d="M10.5232487,8.3390331C10.3044052,8.10882,10.5200024,7.764998,10.2766695,7.5411863
		c-0.2383642-0.9052181-0.1636276-1.7977819,0.1611176-2.6710725c0.0538301-0.1447597,0.0893822-0.4243779,0.4057169-0.3007774
		c0.2528858,0.0988097,0.1067486,0.2703357,0.0891066,0.4342141c-0.0543518,0.5049152-0.3337126,0.9576626-0.2989616,1.4929008
		c0.0733547,1.1298175,0.4496498,2.1323862,1.2189083,3.0161667c0.1900959,0.2183962,0.5034676,0.4400024,0.1562214,0.7622356
		c-0.7463837-0.0808306-0.7776203-0.7766905-1.1595049-1.1687622C10.662735,8.9145765,10.6271563,8.5986481,10.5232487,8.3390331z"
		/>
	<path fill="#F901C8" d="M17.5805264,7.7683363c0.0381794,0.304328,0.300478,0.2147307,0.4976673,0.2395782
		c-0.4256325,0.58603-1.3527069,0.6858921-1.7803459,0.1918278c0.0160561-0.0295172,0.0321541-0.0590944,0.0482521-0.0886717
		c0.576685-0.5132632,1.1587887-1.0215259,1.7268658-1.542726c0.178524-0.1637931,0.2706108-0.3789506,0.254427-0.6209674
		c0.4999046-0.0398917,0.3021984,0.2406516,0.2473221,0.4555883c-0.1921368,0.5278063-0.7503738,0.7680287-1.0911961,1.1784744
		C17.4052753,7.6756654,17.1467247,7.8841391,17.5805264,7.7683363z"/>
	<path fill="#FB01CE" d="M18.5747147,6.4029655c-0.0254097-0.1780701,0.0852566-0.4186468-0.2473335-0.4555988
		c-0.0478725-0.1087422-0.1298447-0.1859369-0.2496357-0.2281246c-0.4123917-0.2940149-0.8524361-0.335331-1.3087978-0.1018014
		c-0.1566582,0.0801649-0.2909012,0.1464114-0.4279747-0.0144258c-0.0926037-0.1660385,0.2642651-0.2357035,0.1055679-0.4167862
		c0.0760975-0.0956101,0.1632862-0.1238141,0.269516-0.0393591c0.5524654-0.1402621,1.1029778-0.2574463,1.6119347,0.1156087
		c-0.0671444,0.2128158,0.1081524,0.2032304,0.2465954,0.2274528C19.0104008,5.7942238,18.8438568,6.0985889,18.5747147,6.4029655z"
		/>
	<path fill="#E704C9" d="M18.4734154,4.911757c-0.0494633,0.0064421-0.0989246,0.0128832-0.1484032,0.0194221
		c-0.5360432-0.081646-1.0715561-0.2513485-1.6094799-0.0078421c-0.1030674,0.0707831-0.1987915,0.0639973-0.2869205-0.0229845
		C17.1124287,4.5677662,17.7943039,4.5303583,18.4734154,4.911757z"/>
	<path fill="#EF02E5" d="M16.4286118,4.9003525c0.0956478,0.0076456,0.1912956,0.0152907,0.286932,0.0229602
		c0.0001659,0.0745535,0.0003452,0.1490827,0.0005169,0.2235842c-0.1015034,0.0045614-0.1947327,0.0243139-0.2492676,0.1150074
		c-0.0355415,0.1415014-0.1753635,0.2204461-0.2429714,0.342711c-0.1434326-0.0692196-0.3096275-0.1091585-0.3915501-0.2575665
		c0.0502777-0.2480578,0.4219627-0.1931314,0.4815884-0.4323497C16.3513889,4.9050741,16.3896408,4.9002914,16.4286118,4.9003525z"
		/>
	<path fill="#F901C8" d="M18.9460411,5.3737607c0.380003,0.372879,0.2895756,0.7458072,0.0001545,1.1187253
		C18.9735317,6.1195531,19.045166,5.7466459,18.9460411,5.3737607z"/>
	<path fill="#F901C8" d="M18.5745869,5.4899311c-0.1323757,0.3509374-0.2537422-0.0197053-0.3834705-0.0141053
		C18.1351299,5.4782424,17.963295,5.4087009,18.09231,5.2912641c0.0449009-0.0408702,0.1552105-0.0209374,0.2356644-0.0287805
		C18.4452286,5.3061523,18.5275898,5.3818202,18.5745869,5.4899311z"/>
	<path fill="#FE00C7" d="M16.2238216,5.6046152c-0.000639-0.163218,0.0798073-0.2777824,0.2429943-0.3426976
		c0.3956394,0.2501783-0.1873093,0.1951485-0.1258087,0.3411131C16.3019257,5.6036696,16.2628746,5.6042027,16.2238216,5.6046152z"
		/>
	<path fill="#FE00EF" d="M16.0908146,7.9923601c0.1016254,0.0094795,0.1999226,0.025013,0.2552738,0.1187115
		c0.0000114-0.000001-0.0011082,0.0011988-0.0011082,0.0011988c-0.2141113,0.1265793,0.2192268,0.4847355-0.1310329,0.4702997
		c-0.3224611-0.0132904-0.1348457-0.3455868-0.1485386-0.5421381c-0.0010834-0.0155678,0.0176182-0.0323038,0.0271225-0.0484962
		L16.0908146,7.9923601z"/>
	<path fill="#F202DC" d="M16.0925312,7.9919357c0.0379906,0.1721478-0.0638657,0.3653898,0.095747,0.5332546
		c0.150177-0.1128483-0.0635929-0.3363819,0.1567001-0.4129333c0.3359833,0.4514246,0.797411,0.1989832,1.2042198,0.1580286
		c0.1845493-0.0185795,0.3531837-0.1708899,0.5290184-0.2624531c0.193203-0.0185022,0.3632545,0.1194191,0.5821419,0.0252523
		c0.2190113-0.0942197,0.4507599-0.043786,0.5061932,0.2248859c0.0484943,0.2350502-0.0335274,0.404623-0.3357677,0.4078255
		c-0.5015869-0.073555-1.003334-0.0685759-1.5052032-0.0025644c-0.4178581,0.012085-0.8357143,0.0241709-1.2536392,0.0363169
		C15.8672972,8.4584951,15.8636322,8.2223434,16.0925312,7.9919357z"/>
	<path fill="#FA01CA" d="M8.6060104,11.2867651c-0.4786644-0.0025892-0.7945795-0.3011637-0.8053198-0.7611198
		c-0.01192-0.5104036,0.3218622-0.8250999,0.8688879-0.8192062c0.4411201,0.0047531,0.8616171,0.3929005,0.8622532,0.7959185
		C9.5325327,10.9476852,9.1289845,11.2895947,8.6060104,11.2867651z"/>
	<path fill="#FA01CA" d="M9.7805376,10.168149c0.198102,0.223094,0.1976528,0.4462137,0.0001059,0.6693382
		C9.7806091,10.6143599,9.7805729,10.3912535,9.7805376,10.168149z"/>
	<path fill="#DB05BA" d="M17.3255806,8.6632318c0.5020218-0.146245,1.0037384-0.1506376,1.5051594,0.0026541
		C18.3290482,8.6649418,17.8273163,8.6640873,17.3255806,8.6632318z"/>
	<path fill="#FE00E4" d="M14.4898767,8.2243681c-0.0008755,0.0761585-0.0017519,0.152317-0.0026283,0.2284756
		c-0.0829945-0.0001669-0.165987-0.0003328-0.2489958-0.0005054c0.0007391-0.9794984,0.0009527-1.9589915,0.002655-2.9384818
		c0.0003872-0.222918-0.0465174-0.4633794,0.2342358-0.5933824c0.0105572,0.0338001,0.0182047,0.0681562,0.0229025,0.1030679
		C14.5756397,6.0906577,14.5880022,7.1576319,14.4898767,8.2243681z"/>
	<path fill="#E205C9" d="M14.4898767,8.2243681c0.0026855-1.0669012,0.0053711-2.1338019,0.0081129-3.2007642
		c0.2355947,0.4685073,0.0829992,0.9631801,0.1040745,1.4447255c0.0255995,0.5850058-0.0028458,1.1720114-0.0080242,1.7581606
		C14.559247,8.2255878,14.5245638,8.2248774,14.4898767,8.2243681z"/>
	<path fill="#D906C4" d="M24.0006008,4.749464c-0.1201553,0.1081896-0.2134228,0.2305398-0.2411289,0.387414
		c-0.1618366,0.0798593-0.1406822,0.3166451-0.3556747,0.3509135c0.0385303-0.115705,0.0770626-0.2314072,0.115591-0.3471088
		c-0.0620632-0.245069,0.1551437-0.3841958,0.2546444-0.567976c-0.001318-0.0394926-0.002636-0.0789857-0.0039673-0.1184778
		c0.0094128-0.0290532,0.0160065-0.0586395,0.0197792-0.0887527c0.2061138-0.048892,0.366909-0.0319676,0.3692799,0.215095
		C24.1062851,4.636869,24.0534439,4.6931663,24.0006008,4.749464z"/>
	<path fill="#FD00EF" d="M23.7740326,4.5727067c0.0826416,0.2528634-0.2023926,0.3663783-0.2545681,0.5680747
		c-0.2489376-0.1842556,0.0171261-0.3544059,0.0170536-0.5315962C23.615715,4.5971589,23.6948719,4.5849328,23.7740326,4.5727067z"
		/>
	<path fill="#FD00EF" d="M22.6819553,4.7976604c0.0822697-0.136179,0.2224236-0.0964751,0.349247-0.0971856
		c0.0413857,0.0730844,0.082777,0.1460991,0.1241703,0.2191133c-0.0117035,0.0647817-0.0540695,0.1021581-0.1226425,0.1161137
		c-0.0774612-0.002449-0.1549225-0.0048976-0.232235-0.007412C22.7610817,4.9513707,22.7215195,4.8745155,22.6819553,4.7976604z"/>
	<path fill="#FE00D1" d="M23.0327301,5.0357018c0.0408897-0.0386896,0.0817795-0.0773792,0.122654-0.1160908
		c0.142662,0.0960088,0.1524506,0.2098746,0.0450211,0.3320408c-0.0214024,0.0243397-0.0679398,0.0299783-0.1028881,0.04424
		C23.0759239,5.2091622,23.054327,5.1224318,23.0327301,5.0357018z"/>
	<path fill="#132314" d="M22.0748425,3.31583c-0.5287285-0.2405283-0.4781742-0.7082541-0.3718872-1.0816782
		c0.1586494-0.557387,0.6232033-0.9132338,1.2576008-1.0316862c0.47719-0.0890987,1.2151356,0.3319461,1.4731522,0.8354796
		c0.2544861,0.4966369,0.1972599,0.9357316-0.3049793,1.2826736c-0.0704117-0.0605364-0.0948162-0.1384356-0.1007118-0.2234311
		c-0.0007954-0.0825832,0.0185604-0.1613431,0.0568733-0.2360842c0.1664371-0.2082849,0.212801-0.4181743,0.0088406-0.6308405
		c-0.1098175-0.1443756-0.2137642-0.2926904-0.3326416-0.4314811c-0.5550804-0.3920352-0.8870449-0.3749098-1.466938,0.077745
		c-0.0698547,0.0766174-0.1265907,0.1613855-0.1772137,0.2501287c-0.1463203,0.234436-0.2229366,0.4755449-0.0924644,0.7386508
		C22.0766754,3.0119994,22.1767483,3.1547432,22.0748425,3.31583z"/>
	<path fill="#E504CC" d="M22.0748444,3.3158298c-0.0556908-0.1469486-0.1113815-0.2938972-0.1670723-0.4408457
		c0.0503235-0.0334799,0.1054497-0.0427282,0.1653557-0.0282297c0.7982464,0.7055335,0.8505688,0.7127037,1.8530483,0.256093
		c0.075737-0.0344968,0.1529484-0.0510919,0.2309284-0.0041056c-0.0094566,0.0739603-0.0189114,0.1479204-0.0283718,0.2218788
		C24.047823,3.3878386,23.966917,3.4550583,23.886013,3.5222788c-0.4136353,0.3326068-0.8563938,0.4270346-1.3458805,0.139226
		C22.3850365,3.5462797,22.2299404,3.4310548,22.0748444,3.3158298z"/>
	<path fill="#2D1F2A" d="M22.5401325,3.6615052c0.4701805,0.1299553,0.9186211,0.082015,1.3458843-0.1392012
		C23.4631691,3.997334,23.0082092,4.0443978,22.5401325,3.6615052z"/>
	<path fill="#FE00D2" d="M21.3008575,0.9673722c0.0155163,0.1616588-0.198513,0.1091962-0.2341995,0.2034023
		c-0.1818714,0.4801389-0.3957634,0.4226804-0.6136627,0.0305928c-0.0887928-0.1597747-0.2842007-0.1285784-0.3947315-0.2350035
		C20.4725933,0.8289365,20.886795,0.8267373,21.3008575,0.9673722z"/>
	<path fill="#B90AA4" d="M21.3008575,0.9673722c-0.4141922-0.0004554-0.8283882-0.0009107-1.242588-0.0011873
		c-0.1788692-0.0233759-0.3619957-0.0672923-0.5031281,0.0893517C19.4585419,0.9862405,19.4263,0.8547317,19.5498371,0.8513402
		c0.709362-0.0194748,1.4197521-0.0089856,2.129694-0.0010775c0.0224667,0.0002501,0.0522671,0.0815265,0.0605583,0.127774
		c0.0024567,0.013702-0.0570812,0.0368093-0.0882492,0.0555961C21.5564575,0.9145698,21.4277725,0.9449383,21.3008575,0.9673722z"/>
	<path fill="#162314" d="M21.7914906,1.1725117c-0.1099453,0.1699258-0.2376995,0.3181782-0.4764843,0.3313384
		c-0.0074863-0.237329,0.2228146-0.2930601,0.3712444-0.4113051C21.7213306,1.1192079,21.7564106,1.1458597,21.7914906,1.1725117z"
		/>
	<path fill="#F801E8" d="M24.1571045,3.0987418c-0.281477,0.1358924-0.4713802,0.4098272-0.8189297,0.4480841
		c-0.6149654,0.0676939-1.068367-0.1183064-1.2939453-0.6767838c-0.2122974-0.2690432-0.0992832-0.5413973-0.0097847-0.8135121
		c0.0022945-0.0851059-0.0319195-0.1827593,0.0918465-0.2261158c0.5691795-0.3644632,1.1540298-0.4904857,1.7729149-0.0985827
		c0.1125393,0.1247712,0.3106499,0.2030128,0.2656803,0.4134294c0.1425705,0.259084,0.1348438,0.5186405,0.0028954,0.7785883
		C24.1642246,2.982147,24.1606636,3.0404441,24.1571045,3.0987418z"/>
	<path fill="#EC03D7" d="M23.8992062,1.7318314c-0.6070805-0.2125523-1.1941643-0.1208118-1.7728863,0.0985838
		C22.7815228,1.2233379,23.3454323,1.1919817,23.8992062,1.7318314z"/>
	<path fill="#FB00CA" d="M22.0344448,2.05653c0.0032444,0.2711751,0.0064888,0.5423503,0.009758,0.813519
		c-0.0454597,0.0016296-0.0909481,0.0032663-0.1364326,0.0049195C21.7674427,2.5782597,21.7314301,2.2951961,22.0344448,2.05653z"/>
	<path fill="#FB00CA" d="M24.1677818,2.9238491c-0.0009594-0.2595184-0.0019207-0.519037-0.0028896-0.7785718
		C24.5031681,2.403729,24.5211926,2.6632047,24.1677818,2.9238491z"/>
	<path fill="#FB00CA" d="M23.0875111,3.3275743c-0.4669476-0.00353-0.9213696-0.371614-0.9201851-0.7453589
		c0.0013256-0.4202185,0.4560432-0.8418845,0.9148998-0.848406c0.5016766-0.0071298,0.9635696,0.4229156,0.9392815,0.8745178
		C23.9988308,3.029922,23.6072063,3.3315034,23.0875111,3.3275743z"/>
</g>
</svg>
