<?xml version="1.0" encoding="utf-8"?>
<!-- Generator: Adobe Illustrator 24.1.1, SVG Export Plug-In . SVG Version: 6.00 Build 0)  -->
<svg version="1.1" id="Слой_1" xmlns="http://www.w3.org/2000/svg" xmlns:xlink="http://www.w3.org/1999/xlink" x="0px" y="0px"
	 viewBox="0 0 32 13" enable-background="new 0 0 32 13" xml:space="preserve" width="32px" height="13px">
<g>
	<path fill="#222223" d="M24.5819416,5.3804917c-0.3022633,0.5164628-0.5946388,1.0380759-0.9090691,1.5482011
		c-0.4932709,0.8002772-0.9725666,1.6057158-1.4271317,2.4264526c-1.295681,2.3394079-3.3657475,3.5975332-6.2577324,3.6113501
		c-2.3885717,0.0114117-4.7773743-0.0134935-7.165885,0.0022221c-1.1515913,0.0075769-2.0234289-0.3790474-2.5496688-1.3446846
		c-0.514853-0.9447441-0.3181272-1.8164616,0.3268547-2.6406069C6.62431,9.0051708,6.6493096,9.0269146,6.67454,9.0485268
		c0.1137166,0.2085714,0.0013757,0.3911123-0.0721869,0.5820084c-0.6469603,1.678874,0.2987666,2.9506197,2.2189674,2.9712639
		c2.5083723,0.026969,5.0169382,0.0068502,7.5253191-0.0029011c1.371685-0.0053329,2.5898857-0.4465761,3.6700211-1.2151737
		c0.8946762-0.5799484,1.5993328-1.2970419,1.936552-2.2780237c0.4988174-0.9546299,1.2006016-1.815979,1.5465393-2.8414788
		c0.3558865-0.5565538,0.4996395-1.2408409,1.1506653-1.6205029c0.0932808,0.0182981,0.1555119,0.0704684,0.1930275,0.1495018
		C24.8243256,5.0144639,24.6469193,5.1763196,24.5819416,5.3804917z"/>
	<path fill="#2F2F30" d="M24.5819416,5.3804917c-0.0412064-0.2324142,0.1500435-0.3932567,0.2159595-0.5926886
		c-0.0688839-0.2578216,0.0567932-0.4660983,0.1994495-0.6714272c0.2708015-0.3897741,0.4958534-0.8005698,0.6615696-1.2377396
		c0.1125126-0.2609608,0.0922661-0.5198567-0.0144863-0.7776854c-0.4390202-1.1817586-1.1125946-1.6487545-2.4641895-1.6963428
		c-0.4568939-0.0160868-0.9144287-0.0007851-1.3724518,0.0007932c-0.7457848,0.0006583-1.4907894,0.0009708-2.2355232,0.001737
		c-1.4540577,0.0361606-2.9108562-0.0671571-4.363327,0.0582191c-1.0339432,0.0892493-1.9694433,0.4356565-2.8386259,0.9479175
		c-0.1663694,0.0980512-0.3287439,0.210163-0.5368204,0.2287041C11.7599564,1.638124,11.7002087,1.6096008,11.65415,1.5568473
		c0.7175636-0.6533238,1.6307678-0.9636251,2.5529995-1.2831435c0.6974144-0.2416273,1.4019623-0.2420326,2.1177998-0.2421189
		c2.3667641-0.0002856,4.7336349,0.0153514,7.1002522-0.0011338c1.5356026-0.0106966,3.1427097,1.6599553,2.4152069,3.2901304
		C25.5140591,4.0518641,25.0829964,4.7359347,24.5819416,5.3804917z"/>
	<path fill="#222222" d="M6.5993094,8.9834261c1.1665936-1.915585,2.3331866-3.8311706,3.4997802-5.7467556
		c0.0865927-0.061703,0.1722889-0.0534163,0.2573891,0.0025175c0.1618204,0.2514155-0.0294752,0.4516971-0.1237402,0.6599247
		c-0.2633057,0.5816307-0.5741444,1.148417-0.6037683,1.7955084C9.5693445,5.9130731,9.4458761,6.1193123,9.4753933,6.35603
		C9.4690857,6.4591875,9.4456606,6.5535874,9.3235445,6.5940824C9.2453108,6.5951667,9.1794767,6.5637798,9.1172771,6.5271988
		C9.0297928,6.4841113,8.964859,6.4942055,8.9389124,6.5950418C8.927639,6.6606259,8.9228554,6.7253866,8.9183674,6.790936
		C8.9131699,6.88796,8.9019432,6.9832101,8.8572989,7.0720186C8.8296814,7.1146531,8.789258,7.1421905,8.7369184,7.1549191
		C8.685008,7.1504846,8.6402149,7.1317458,8.6043444,7.0991125C8.2829094,7.080843,8.2822361,7.3626122,8.173768,7.5188327
		c-0.212286,0.3057475-0.3605318,0.649775-0.6801543,0.8861079c-0.2018342,0.1152687-0.3653507,0.2633562-0.4922643,0.45014
		c-0.0808554,0.1189947-0.166182,0.2592068-0.3661346,0.1573477L6.5993094,8.9834261z"/>
	<path fill="#2F2F30" d="M10.3287563,2.8904829C10.660553,2.35356,11.0895929,1.8983015,11.654151,1.5568477
		c0.0159998,0.0157954,0.0321016,0.0315044,0.0483036,0.0471267c0.0872431,0.3562944-0.3500757,0.4133034-0.4470787,0.6647677
		c-0.2928753,0.2164423-0.4316311,0.6013522-0.8613043,0.6689765C10.3722982,2.9220674,10.3505268,2.9062748,10.3287563,2.8904829z"
		/>
	<path fill="#2F2F30" d="M10.3527451,3.2414613c-0.0845518-0.0015967-0.1691036-0.0031939-0.2536554-0.0047908
		c0.006772-0.1545167,0.1091871-0.2554154,0.2296677-0.3461869c0.0159187,0.0116856,0.0320396,0.0231311,0.0483637,0.0343356
		c0.0804882,0.0818822,0.0748997,0.1722159,0.0311546,0.2663898C10.3899059,3.2080081,10.3713255,3.2247343,10.3527451,3.2414613z"
		/>
	<path fill="#212121" d="M6.6352148,9.0124283c0.3348498-0.1645622,0.349834-0.6583948,0.8257022-0.6777925
		C7.4937596,8.3687572,7.5103579,8.408597,7.5116425,8.4540043c-0.0211601,0.1331606,0.0027037,0.2618752,0.048305,0.388793
		C7.6621032,9.184226,7.3772306,9.4260178,7.2956982,9.720376c-0.0379658,0.1937008-0.1097779,0.3761139-0.2119141,0.5485411
		c-0.1298113,0.2453194-0.0752888,0.4712029,0.0850072,0.686059c0.0653863,0.1122084,0.1127057,0.2295685,0.1214337,0.3578148
		c-0.0182829,0.3251333,0.2364764,0.4056225,0.504385,0.4737511c0.5731983,0.3027534,1.1526203,0.1187525,1.73034,0.0191813
		c0.2425385,0.0697575,0.1324244,0.3456364,0.3136988,0.4515305c0.0830021,0.0555592,0.1714754,0.1026516,0.2571554,0.1540241
		c0.5921345,0.2091284,1.2075558,0.0481968,1.8089361,0.0999575c0.0490408,0.004221,0.0787725-0.0013123,0.0903425-0.0278492
		c-0.0151644-0.0030327-0.0303288-0.0060663-0.0531549-0.0083895c-0.5346575-0.0530539-1.085309,0.1226177-1.591651-0.1373177
		c0.0070171-0.3039541,0.2755585-0.2538109,0.4668007-0.2701664c0.3298168-0.0282087,0.6629381-0.0105677,0.9925814-0.0090561
		c0.0452757-0.0481958,0.2728405,0.1035919,0.154829-0.1242466c-0.0534039-0.0584154-0.0759039-0.1187229-0.0249739-0.1872244
		c0.2925863-0.1854486,0.483057-0.0119095,0.7324734,0.2176332c-0.1168242-0.1132593-0.1720943-0.1747169-0.2417479-0.218132
		c-0.6742773-0.4202795-0.6747961-0.4195757-0.1090403-0.9285641c0.1725655-0.1472502,0.2972603-0.3313456,0.4491644-0.4939003
		c0.2193775-0.2347574,0.2190924-0.4443169-0.0320168-0.6521807c-0.676136-0.7275124-1.2596455-1.4927092-1.2244234-2.5127392
		c-0.0000916-0.3578053-0.0018101-0.7153668-0.0008221-1.0727725c0.0369492-1.3572888,0.7358532-2.3757927,1.9103642-3.1514797
		c0.1385784-0.088521,0.2912674-0.1430333,0.4585581-0.1629932c0.8404703-0.1087286,1.6672926-0.2778113,2.5321798-0.2457449
		c1.0130653,0.03756,1.9168739,0.2599261,2.6489544,0.9322319c0.1431046,0.1314192,0.321352,0.2138383,0.4843826,0.3173904
		c0.5323448,0.5392432,0.8995228,1.1461992,0.9118271,1.8974257c-0.0256042,0.5828962,0.0143719,1.1663485-0.0123959,1.7490578
		c0.0711174,0.323842-0.1632633,0.5768723-0.2369366,0.8673987c-0.1133633,0.2066927-0.31007,0.371974-0.3599586,0.6110115
		c-0.0336151,0.073308-0.0834484,0.1360426-0.1458282,0.1906185c-1.0731125,0.9158154-1.2407284,0.8097954,0.13731,1.9241381
		c0.1516285,0.122612,0.4446602,0.1335754,0.3880539,0.4189234c-1.3370628,1.0157452-2.8820438,1.374979-4.599122,1.3407059
		c-2.2834492-0.045577-4.5695152-0.0443125-6.8530951-0.0016365c-2.0839429,0.0389414-3.1313491-1.6535349-2.2284446-3.3892326
		C6.6067615,9.2730112,6.607779,9.1369133,6.6352148,9.0124283z"/>
	<path fill="#212021" d="M11.194643,2.2429531c-0.0090332-0.3326427,0.4207087-0.3709229,0.5076704-0.6391194
		c0.7912769-0.4152421,1.5375109-0.9019918,2.4454498-1.1163214c0.5432167-0.1282328,1.0879993-0.2201143,1.6407557-0.2292612
		c1.2393284-0.0205085,2.4793491-0.0057721,3.7190876-0.0053867c0.8026695,0.0902076,1.6053467,0.0899582,2.4080296,0.0001575
		c0.6746254,0.0312511,1.348341-0.0477115,2.0256577,0.0942515c0.9799957,0.2054031,1.6530094,0.8229308,1.8299942,1.7858381
		c0.0903511,0.2586114,0.0915127,0.5171592-0.0006523,0.7756407c-0.1452541,0.7046392-0.7006111,1.2299292-0.9726448,1.8791068
		c-0.0372372-0.0359583-0.0743847-0.0718598-0.1115303-0.1077619c-0.1307144-0.099782-0.1453209-0.2446227-0.1772175-0.3817296
		c0.0101109-0.153429-0.1410084-0.1183996-0.2271843-0.1609397c-0.1729813-0.1604099-0.3853645-0.3193073-0.0226974-0.4989572
		c0.190279-0.0082831,0.2422543-0.1235905,0.2480774-0.274524c0.3500652-0.5623333,0.3474579-1.1242924,0.0000267-1.6860592
		c-0.0429783-0.2621714-0.1612167-0.4423749-0.497839-0.3869251c-0.7692909-0.2499971-1.4463196-0.1768192-1.9753742,0.4580405
		c-0.0791969,0.0950357-0.1963787,0.2356346-0.3408337,0.1353319c-0.1606712-0.1115617-0.0332088-0.2615554,0.0144806-0.3972213
		c0.0754185-0.2145416,0.4332581-0.2939398,0.3283749-0.5890413c-0.1145229-0.0919886-0.2924004-0.0841135-0.383667-0.2045535
		c-0.0004864-0.0145202-0.0112915-0.0393916-0.0024147-0.0491812c0.0351772-0.0387946,0.0309944-0.0811501-0.0149193-0.0769824
		c-0.6002369,0.0544831-1.2002449,0.1270769-1.7939186-0.0449446c-0.0011292-0.0003273-0.0117683,0.0270806-0.0179653,0.0415334
		c0.0421791,0.0084693,0.0668163,0.0332537,0.0744247,0.0769675c0.0077152,0.1833788-0.3456898,0.1030975-0.275732,0.3279154
		c0.0328445,0.0615495,0.050127,0.12418,0.0261173,0.1908916c0.317379,0.4451517,0.7237415,0.784914,1.2933216,0.9328716
		c0.1113472-0.1092668,0.2098618-0.2377619,0.4051285-0.2014735c0.167551,0.0871012,0.2832241,0.233218,0.2923183,0.3923953
		c0.0359116,0.6287317,0.381319,1.0903132,0.8689747,1.4937997c0.1332684,0.1102631,0.2241096,0.2607269,0.1189919,0.4402566
		c-0.0410233,0.0669971-0.0964012,0.1236191-0.1558533,0.176218c-0.1519241,0.108243-0.1120968,0.2408047-0.0537624,0.3757572
		c0.0743904,0.4312043,0.2344456,0.8496761,0.2244358,1.2631235c0.0445557-0.3605714-0.1556015-0.722826-0.156065-1.1087213
		c0.0393562-0.0449576,0.0898685-0.0694022,0.1522408-0.0744019c0.2241783,0.0389223,0.262413,0.2168808,0.3322029,0.3716307
		c0.0436611,0.1307573,0.0561066,0.2656093,0.0581284,0.4012718c0.0076332,0.1374726-0.0172672,0.2739663-0.0228882,0.4113889
		c-0.0030136,0.0736766,0.0208035,0.1228099,0.0151196,0.0492148c-0.0004807-0.0062423,0.0225639-0.0140185,0.0344868-0.0249743
		c0.009243-0.0394464,0.0259686-0.0718179,0.0508461-0.1029654c0.048521-0.0512466,0.1061153-0.0834351,0.1796837-0.089632
		c0.0787926,0.0175853,0.1283474,0.0651269,0.1620369,0.1295156c0.0730839,0.1074095-0.0282192,0.2808552,0.1557865,0.3465033
		c0.0639229,0.2580924-0.1711502,0.4334927-0.2591782,0.6342583c-0.3321648,0.7575612-0.8018456,1.4583526-1.3074284,2.1340775
		c-0.3193874,0.1234436-0.3274708-0.1078968-0.384901-0.2838078c0.2075691-0.8789077,0.3787766-1.7533712,0.3558712-2.6690354
		c-0.0674229-2.6951959-2.7365055-5.1496434-5.6601772-5.2154894C15.2086,0.9158502,14.1651983,1.1466511,13.1480951,1.5672238
		c-0.114069,0.0365409-0.2299595,0.0663987-0.3527184,0.056893c-0.2666531-0.1563523-0.4327393,0.0355206-0.6366568,0.1416367
		c-0.3405428,0.1772139-0.5078363,0.5817671-0.9577045,0.6100457c-0.0312338-0.0282879-0.0425138-0.0574307-0.0340052-0.087363
		C11.1756287,2.258116,11.1848307,2.2429531,11.194643,2.2429531z"/>
	<path fill="#212121" d="M21.7952995,8.7766161c-0.0010777,0.1610003-0.0035076,0.3228292,0.2414265,0.3332167
		c-0.1772404,1.0541077-1.0109787,1.6769476-1.8071117,2.3244848c-0.470005-0.2690239-0.8541889-0.6283522-1.2540321-0.9753695
		c-0.3702469-0.3213329-0.4176273-0.5971918-0.010334-0.9093609c0.2284145-0.1750689,0.4420109-0.3664722,0.6622868-0.5505161
		c0.2134266,0.3552256-0.3286705,0.4819326-0.2795467,0.786993c-0.0236912,0.1748037,0.0534115,0.3323383,0.1007481,0.4941244
		c0.0097294,0.1284695,0.0819988,0.2003508,0.2259369,0.2078066c0.0510921,0.0118208,0.0965233,0.0327854,0.1383724,0.0612812
		c0.2493534,0.2948656,0.5002155,0.1163721,0.7501602,0.0010214c0.5054321-0.1653223,0.6284885-0.662817,0.9901924-0.9519053
		c-0.0914841,0.0697241-0.1762199,0.1546011-0.289608,0.0261869C21.2782726,9.2555628,21.3428822,8.9132566,21.7952995,8.7766161z"
		/>
	<path fill="#192316" d="M24.5665112,4.2386541c0.1773357,0.1156158,0.1034698,0.288909,0.1199532,0.4414506
		c-0.4928894,0.4811654-0.7481728,1.0932317-1.0831394,1.6613932c-0.2495422,0.0647864-0.2495422,0.0647864-0.2230568-0.3344922
		c0.048233-0.209527,0.1790104-0.393383,0.2211266-0.6050844c0.0285072-0.0976968,0.0790749-0.183691,0.1571312-0.255403
		C24.0985584,4.8971519,24.142128,4.4243593,24.5665112,4.2386541z"/>
	<path fill="#222223" d="M21.9156361,0.2530218c-0.8027,0.1803134-1.6053829,0.1806518-2.408041-0.0001704
		C20.3102837,0.2529168,21.1129589,0.2529693,21.9156361,0.2530218z"/>
	<path fill="#222223" d="M25.7706356,2.9087522c0.0002155-0.2585409,0.0004292-0.517082,0.0006485-0.7756317
		C25.9478512,2.3917842,25.9481544,2.6503313,25.7706356,2.9087522z"/>
	<path fill="#182412" d="M11.1955509,2.3552191c0.3804369-0.2930639,0.7581348-0.5892091,1.1425066-0.8778449
		c0.1822376-0.1368474,0.360096-0.2002773,0.4240351,0.1028228c-0.0407066,0.1540897-0.194087,0.2278091-0.2883396,0.3441812
		c-0.7613869,0.5191355-1.2885838,1.2264421-1.8283653,1.9237082c-0.2245464,0.1692519-0.32936,0.4057331-0.4277859,0.6461139
		C9.953661,5.2767372,9.7315063,6.0644789,9.7982092,6.8953238c0.007349,0.0915327-0.0031996,0.1814036-0.089385,0.2458897
		c-0.3599014,0.049952-0.3170214-0.2717361-0.4607706-0.4217868C9.229104,6.6648035,9.2363243,6.6129336,9.2690229,6.5640612
		c0.0961142-0.0485492,0.1173172-0.1311336,0.119545-0.2223387c-0.0014-0.1922903,0.0575447-0.3735971,0.1194191-0.5543699
		C9.4128189,5.027369,9.851613,4.4064412,10.1370802,3.7455494c0.072485-0.1678126,0.1438036-0.336051,0.215661-0.5040908
		c0.0000038,0.0000026-0.0000668-0.0000138-0.0000668-0.0000138C10.5989885,2.9181926,10.8145466,2.5702238,11.1955509,2.3552191z"
		/>
	<path fill="#212123" d="M9.2690229,6.5640612C9.2711935,6.6022038,9.2733631,6.640348,9.2755327,6.6784906
		c0.189106,0.4575753,0.1964312,0.9556885,0.37537,1.4150143c0.0693274,0.2020092,0.0980988,0.4170008,0.2251987,0.6011152
		c0.1966438,0.3480206,0.4512701,0.6714039,0.5406237,1.0656033c-0.0129795,0.0857515-0.0619564,0.1445732-0.1528416,0.1717205
		C9.8339777,9.8042488,9.6443329,9.4403229,9.3685074,9.162981C9.3801451,9.0158052,9.338522,8.9059725,9.1431799,8.9098692
		C8.741868,8.776001,8.351368,8.8166122,7.9660392,8.9652519C7.9085031,8.9785118,7.8507309,8.9836779,7.7916083,8.9830046
		c-0.1309676-0.0126734-0.2303119-0.0629721-0.2667136-0.188323c-0.0278864-0.08284-0.0338573-0.1652775,0.0036778-0.2472372
		c0.0739236-0.0984058,0.1724906-0.1508961,0.3056517-0.1379461c0.3925672,0.1252041,0.790235-0.0408869,1.1854815,0.0138254
		C9.1025553,8.4347916,9.1966972,8.3869753,9.169117,8.296937C9.0201921,7.8107562,9.1341696,7.2696953,8.8048744,6.8219161
		C8.798727,6.7357316,8.7925797,6.6495466,8.7864332,6.5633626c0.1035404-0.083765,0.1968594-0.1956654,0.3615885-0.1109982
		C9.1883554,6.4895964,9.2286892,6.5268288,9.2690229,6.5640612z"/>
	<path fill="#8004E2" d="M8.8048744,6.8219161c0.1685743-0.0516291,0.3210964-0.072248,0.3355598,0.1553931
		C9.1519938,7.1592331,9.182477,7.3429294,9.1664295,7.5229664c-0.0329857,0.3700848,0.5032415,0.8442621,0.0502567,1.04776
		C8.9176826,8.7050495,8.3848057,8.554924,7.955214,8.6487789C7.842865,8.6733227,7.8323936,8.5323496,7.8112483,8.4461966
		C7.7032752,8.3225241,7.7354555,8.1778765,7.8326807,8.0932531C8.166378,7.8028069,8.2590628,7.3442693,8.6629629,7.1077199
		C8.6982021,7.1006913,8.7338486,7.0968418,8.7699022,7.096169c0.2613497,0.461257-0.2877932,0.7098885-0.3222971,1.1267657
		c0.102869,0.1482296,0.3120899,0.119173,0.4512014,0.0545654c0.1961327-0.0910864,0.041604-0.2695408,0.0033798-0.3916941
		C8.8213615,7.6275101,9.019248,7.3312511,8.7677784,7.10221C8.7801437,7.0087786,8.7925091,6.9153476,8.8048744,6.8219161z"/>
	<path fill="#192315" d="M8.6629629,7.1077199C8.5151215,7.6270328,8.0415001,7.9711776,7.8112583,8.4461946
		c-0.0763693,0.0367613-0.1527286,0.0735207-0.2290878,0.11028C7.515553,8.5435743,7.474081,8.5075474,7.4611406,8.4452782
		c0.0001469-0.0368805,0.0000772-0.07376-0.000216-0.1106415c0.3536782-0.5368338,0.7073646-1.0736675,1.0646834-1.6160135
		C8.7396326,6.8132443,8.631052,6.9802399,8.6629629,7.1077199z"/>
	<path fill="#1D2218" d="M9.1480217,6.4523644C9.0274935,6.4893618,8.9069643,6.5263581,8.7864342,6.5633588
		C8.7956762,6.4318442,8.8308487,6.30372,8.9902287,6.2760549C9.1239176,6.2528501,9.1304493,6.3659782,9.1480217,6.4523644z"/>
	<path fill="#1D2219" d="M9.507987,5.7873526c0.0147934,0.1947269-0.0048971,0.3831782-0.1194172,0.554369
		C9.194973,6.1144481,9.4071655,5.9610367,9.507987,5.7873526z"/>
	<path fill="#222222" d="M11.1955509,2.3552191c-0.2837315,0.29318-0.447216,0.6830003-0.8428793,0.8862236
		c0.0080471-0.1055894,0.0160913-0.2111812,0.0242929-0.3166978c0.3200493-0.1791978,0.448225-0.5527179,0.8176899-0.6817718
		C11.1949453,2.2803752,11.1952477,2.3177972,11.1955509,2.3552191z"/>
	<path fill="#8200F9" d="M16.4540977,8.6811409c-0.1460915-0.1879787-0.4331722-0.01015-0.5825052-0.1897125
		c-0.0633392-0.1800251,0.0026121-0.3475323,0.0579748-0.5162115c0.1294937-0.2322512,0.3140316-0.2905669,0.5907211-0.2037492
		c0.4216518,0.1323028,0.8543262,0.1293097,1.2801876-0.0006962c0.2968636-0.365654,0.2409668-0.5382276-0.2066689-0.6137986
		c-0.2269516-0.0383139-0.478775,0.0104961-0.6629276-0.1703539c-0.1216583-0.1812615-0.1119633-0.3747311-0.0663128-0.5718451
		c0.0812531-0.2439027,0.2389259-0.4379721,0.4592857-0.5904069c0.2752857-0.1846538,0.1915054-0.3158369-0.0755024-0.4194951
		c-0.2187691-0.0342946-0.4437008-0.0032263-0.6576347-0.0606952c-0.1163502-0.0312548-0.2338314-0.0746636-0.2470417-0.2064309
		c-0.0136852-0.1364789,0.0960579-0.2136421,0.212923-0.2262802c0.6566486-0.071013,1.3198242-0.1146379,1.9675751,0.0288653
		c0.3006077,0.0665975,0.4135551,0.2855434,0.2234516,0.5565772c-0.1085148,0.1547136-0.2246189,0.3045979-0.3071423,0.4722133
		c-0.0364437,0.1287694-0.1060028,0.2567735-0.0052757,0.3879042c0.7361279,0.4358196,0.9597263,0.8154531,0.8188629,1.3851686
		c-0.1486263,0.6011133-0.6551971,0.9949884-1.4467831,1.052063C17.3569374,8.8267279,16.8851738,8.9122686,16.4540977,8.6811409z"
		/>
	<path fill="#202020" d="M19.2681656,9.774869c-0.1715183-0.1139479-0.0648842-0.2070065,0.0261688-0.3021488
		c0.136528-0.1426582,0.3356705-0.2483082,0.3332005-0.473649c0.0401535-0.0369091,0.0803032-0.0738182,0.1204548-0.1107283
		c0.0780144-0.2079554,0.2182121-0.3816128,0.3613682-0.5536394c-0.1126709-0.3396215,0.2902889-0.5607462,0.2409115-0.8858223
		c0.0970573-0.590549,0.0443325-1.181097,0-1.7716455c-0.0575199-0.68045-0.4178047-1.2391386-0.8431911-1.7716455
		c-0.8971539-0.9146676-1.9750118-1.3729646-3.3552322-1.3569391c-0.8091259,0.0093944-1.5541906,0.150728-2.3061934,0.3603885
		c-0.1204319,0.0369151-0.2408619,0.0738301-0.3612938,0.1107447c-0.1308718-0.0380871-0.1921597-0.1269579-0.2129631-0.245821
		c-0.0044498-0.0872314,0.0183287-0.1665134,0.0817404-0.2338884c0.1001167-0.0706222,0.2182875-0.1002841,0.338233-0.1262002
		c0.3220701-0.1040885,0.6139297-0.2872677,0.9663191-0.3135788c1.0373564-0.1758171,2.0654087-0.179078,3.0768414,0.1340203
		c1.7389278,0.528084,2.7652588,1.6342156,3.1361332,3.2719882c0.0084877,0.8051257,0.0333843,1.6111078-0.1484394,2.406013
		c-0.0404015,0.1349745-0.0931873,0.2663345-0.1542015,0.3947001c-0.097477,0.1598015-0.1983967,0.3184471-0.2611332,0.4944897
		C19.9925175,9.1544199,19.8910866,9.7002764,19.2681656,9.774869z"/>
	<path fill="#192313" d="M9.3887863,9.1097984c0.3498316,0.1952267,0.5791769,0.5009861,0.8422613,0.7757959
		c0.3663168,0.5005007,0.5744543,1.0259047,0.3045616,1.6269646c-0.0792131,0.1373644-0.1828117,0.2606802-0.276247,0.390007
		c-0.0302706,0.0417023-0.0662832,0.0792065-0.1052294,0.1143541c-0.0422573,0.0314255-0.0884848,0.0574274-0.1377029,0.0790224
		c-0.0754995,0.0312023-0.1528778,0.0509453-0.2358341,0.0259676c-0.1107988-0.0710087-0.093852-0.1667986-0.0606613-0.2658386
		c0.0534821-0.0981226,0.1168232-0.1895914,0.2080021-0.2623434c-0.1006908,0.0595751-0.150013,0.1641188-0.2390471,0.2339716
		c-0.0197315,0.0169497-0.039525,0.0338593-0.0593176,0.0507679c-0.6424093,0.1841621-1.284833,0.4101868-1.9270573-0.0005064
		c-0.2159047-0.143836-0.4639168-0.2640057-0.4825873-0.5532246c-0.0403023-0.1106319-0.0806041-0.2212629-0.1209064-0.3318949
		c-0.1899133-0.239131-0.2457271-0.4957724-0.1199298-0.7761259c0.0806112-0.1843576,0.1612229-0.3687153,0.2418342-0.5530739
		c0.1539388-0.2097101,0.2993751-0.4266262,0.5524535-0.5529127c0.1727223-0.0816097,0.3540988-0.1401596,0.5461488-0.1697264
		c0.2701635,0.0288839,0.5378885-0.0692654,0.8092556-0.0163002C9.2428646,8.9538574,9.3174076,9.0299616,9.3887863,9.1097984z"/>
	<path fill="#182412" d="M10.3537169,9.7727833c-0.2014227-0.3328447-0.4028463-0.6656876-0.604269-0.9985323
		c-0.0514822-0.1896458,0.1103745-0.21103,0.2402964-0.2580433c0.1600895,0.0014982,0.2529211,0.1065063,0.3568888,0.1950607
		c0.3209772,0.4187498,0.5699234,0.875947,0.8312025,1.3267136c0.0886841,0.2754612,0.3249426,0.4468412,0.5336962,0.6362076
		c0.1104488,0.103755,0.2365561,0.1352406,0.3846188,0.0683222c0.0498371-0.0136652,0.0996819-0.0159273,0.1506691-0.0084238
		c0.0761194,0.0281353,0.1317759,0.0740166,0.1551714,0.1482639c-0.936223,0.7375364,0.5070801,0.7387533,0.4030066,1.2514582
		c-0.2768345-0.1290541-0.4847059-0.4705801-0.8781271-0.3697157c-0.0243769-0.0108118-0.0487528-0.0216227-0.0735817-0.0320377
		c-0.1373348-0.1213646-0.2651329-0.2542706-0.4545574-0.3106012c-0.1206436-0.0492048-0.2260332-0.118639-0.3158693-0.2080727
		c-0.0166864-0.0178671-0.0324411-0.0365572-0.0492954-0.0545111c-0.0310402-0.0379219-0.0582619-0.0781374-0.0843334-0.1190004
		c-0.0656452-0.1038675-0.1560402-0.1922789-0.2216711-0.2966137C10.7317038,10.3778419,10.490366,10.0922995,10.3537169,9.7727833z
		"/>
	<path fill="#192411" d="M18.9070625,6.3409185c0.4791489,0.1307001,0.6536407,0.4713211,0.7218151,0.8851991
		c0.0881615,0.1854043,0.0884666,0.3707833-0.0001907,0.5561366c-0.115696,0.7606754-0.7505264,1.0802622-1.4120522,1.3316612
		c-0.6269703,0.238266-1.8880882,0.1938725-2.5115175-0.402132c0.3143225-0.0446663,0.5456991,0.0965042,0.7909002,0.1761351
		c0.1508179-0.1322975,0.3240891-0.080266,0.4985104-0.0583057c0.4951859,0.0623455,0.9749279,0.0139914,1.4280224-0.1922064
		c0.2585201-0.1232767,0.4416161-0.3305779,0.6572227-0.5014744c0.3446789-0.4117174,0.3570652-0.8280907,0.0203018-1.2492952
		c-0.1427517-0.1227651-0.3113918-0.2246728-0.3836575-0.4042506c-0.0013657-0.0544538,0.0130138-0.1049638,0.0428181-0.1520057
		C18.8119125,6.2942109,18.8611927,6.2978063,18.9070625,6.3409185z"/>
	<path fill="#212121" d="M13.8456526,2.9090395c0.5707197-0.2384481,1.1053562-0.5843093,1.78967-0.4683998
		c0.2750931,0.0465961,0.5527744,0.0383625,0.8323288-0.0175006c0.8076496-0.1613905,2.6837101,0.7599812,3.0394268,1.482451
		c-0.6716614-0.3697047-1.1953335-0.9465604-2.0203342-1.1070418c-0.9099979-0.1770158-1.8151207-0.1680386-2.7109032-0.0161145
		C14.466011,2.8349805,14.1643772,2.9140394,13.8456526,2.9090395z"/>
	<path fill="#172411" d="M13.344244,2.7574584c0.0467033,0.0874419,0.0934076,0.1748836,0.1401148,0.2623258
		c-0.7610903,0.5771885-1.3625059,1.2476523-1.6877518,2.13115c-0.1091919,0.296607-0.0854349,0.5725417-0.1198015,0.8582902
		c-0.0881033,0.0986266-0.067132,0.2939987-0.2884922,0.2747993c-0.0647087-0.0121779-0.1134119-0.0445719-0.1469154-0.0968142
		c-0.1769972-0.5700202,0.2124557-1.0553169,0.2802896-1.5888348c0.0288324-0.1678915,0.0894594-0.325685,0.1798916-0.4737644
		C12.1498823,3.5686944,12.5609131,2.9738286,13.344244,2.7574584z"/>
	<path fill="#571194" d="M12.7544441,4.7860069c0.6106977-0.2469144,1.2472868-0.0937567,1.8719587-0.089798
		c0.2000675,0.0012674,0.2007389,0.1989012,0.2007866,0.3481584c0.0003548,1.1223755-0.006196,2.2447891,0.0029421,3.3670993
		c0.0023403,0.287385-0.1286106,0.404335-0.4296713,0.3900795c-0.2992373-0.0141687-0.5987558-0.0233231-0.8981514-0.0346756
		c-0.2033205-0.1675873-0.1820955-0.3939619-0.1843243-0.6115055c-0.0071096-0.6939201,0.0027237-1.3878999-0.0059872-2.0815935
		c0.0039577-0.1321082-0.045805-0.2617011-0.0251551-0.3950171c0.0158367-0.0686154,0.057848-0.1192002,0.125329-0.1519637
		c0.1207733-0.0207553,0.2096767,0.0222497,0.2738705,0.1152368c0.1897182,0.8645291,0.0347738,1.739481,0.0913143,2.6066279
		c-0.0055618,0.2200365,0.1343803,0.2755947,0.3473787,0.2743568c0.231885-0.0013485,0.3947277-0.0583696,0.3900461-0.3072252
		c0.0124722-0.9201088-0.0103645-1.8388867,0.010684-2.7570267c0.0087013-0.3796029-0.139082-0.5197759-0.5560646-0.5209966
		C13.562952,4.936574,13.1247501,5.0603666,12.7544441,4.7860069z"/>
	<path fill="#132504" d="M15.1717081,8.5570755c-0.2118921,0.0760937-0.2296305,0.0763063-0.2331533-0.1721182
		c-0.0098848-0.6969166-0.0037889-1.3940248-0.0039043-2.0910583c-0.000083-0.5028853-0.0000162-1.0057702-0.0000162-1.5086555
		c0.0789719,0.0002556,0.1579437,0.0005112,0.2369156,0.0007668c0,1.1456509,0,2.2913017,0,3.4369521
		C15.2743244,8.3342924,15.2581215,8.4456701,15.1717081,8.5570755z"/>
	<path fill="#13250A" d="M11.321722,6.2322693c0.0383224-0.0006552,0.0766478-0.0011344,0.114975-0.0014367
		c0.2296,0.3019695,0.0550547,0.68611,0.239933,0.9971724c-0.0139389,0.7525144,0.2988338,1.3833327,0.8347597,1.9383368
		c0.1440468,0.1491756,0.2487841,0.3304272,0.3715668,0.4969549C12.8626184,9.745306,12.8084841,9.797554,12.7200737,9.819953
		c-0.0279741-0.0013113-0.0559597-0.0029612-0.0840855-0.0041142c-0.0257683-0.0101261-0.0513983-0.02075-0.0774555-0.0305977
		c-0.1424866-0.0855703-0.2583981-0.1979704-0.3723993-0.3127279c-0.1908607-0.2610149-0.4544153-0.4811554-0.5393486-0.8027639
		c-0.0522518-0.2196732-0.1450539-0.4257545-0.2466469-0.6296349C11.204092,7.4434752,10.963171,6.8486204,11.321722,6.2322693z"/>
	<path fill="#1F221F" d="M15.7726526,7.5584683c0.1283264-0.2511415,0.3530798-0.4134307,0.6027594-0.5527511
		c0.1183548-0.0612473,0.1983948,0.0128584,0.2845974,0.0660982c0.3812828,0.1399593,0.7844334-0.0222082,1.1688023,0.0714726
		c0.0773888,0.0334153,0.135479,0.0802822,0.1378307,0.1660275c-0.038147,0.0357842-0.0681858,0.0823512-0.1305351,0.088727
		c0.08144,0.0111403,0.1088142-0.0802827,0.1854401-0.0813422c0.1892204,0.1778498,0.0948448,0.3293386-0.0498428,0.4762416
		c-0.0747223,0.0415587-0.1591969,0.0589333-0.2413616,0.0817466c-0.550251,0.1121235-1.0359955-0.1334534-1.5465717-0.2358918
		c-0.0440903,0.0214977-0.0889626,0.042686-0.1329575,0.0647182c-0.0473671,0.014122-0.0959902,0.0160694-0.1449642,0.0067878
		C15.8325539,7.6814532,15.8157673,7.6102133,15.7726526,7.5584683z"/>
	<path fill="#8400FD" d="M11.9268703,11.7640944c0.0370932,0.0363407,0.0741854,0.0726814,0.1112785,0.1090231
		c0.1237392,0.1006117,0.2595463,0.2019539-0.0199566,0.2782068c-0.0921478,0.0021534-0.1839743,0.0017672-0.272295-0.0280724
		c-0.4340477-0.0306683-0.8679209-0.059514-1.299758,0.0227413c-0.1589041,0.0236654-0.3313293,0.0715923-0.3453016-0.1631832
		l0.02314,0.0114927c0.1196289-0.1477356,0.3035946-0.2487803,0.3718033-0.4341497
		c0.0245094-0.0429363,0.0534821-0.082756,0.0860882-0.1206646c0.1602678-0.1148453,0.1070566-0.4941053,0.4889603-0.3342104
		l0.0015659,0.0017376c0.1177216,0.1748848,0.2687244,0.3121634,0.4922504,0.3669939
		c0.1335173,0.0796194,0.2332869,0.1953411,0.3574457,0.2853508L11.9268703,11.7640944z"/>
	<path fill="#8603ED" d="M19.0897846,8.211791c-0.1819477,0.1500025-0.3638916,0.3000059-0.5458393,0.4500093
		c-0.665678,0.290576-1.3481674,0.3013792-2.0431805,0.1037331c-0.0101471-0.030611-0.0255909-0.0587645-0.0465012-0.0844269
		c0.5516281-0.0709133,1.110611,0.0522079,1.6650848-0.0862732c0.6150761-0.153614,0.9830379-0.4893055,1.0167503-1.0703034
		c0.0300369-0.5177031-0.2375717-0.8702364-0.8174438-0.9881067c-0.1194305-0.0242767-0.119627-0.1315775-0.1197681-0.2249432
		c0.2247219-0.0276303,0.4458714-0.0462155,0.566679,0.1891766c0.1103764,0.0983505,0.2207546,0.1967006,0.331131,0.2950506
		C19.5318069,7.3477721,19.530201,7.676775,19.0897846,8.211791z"/>
	<path fill="#8104E3" d="M12.7544441,4.7860069c0.4986839,0.0008044,0.9978914,0.014719,1.4958668-0.0021467
		c0.3380013-0.011447,0.453373,0.1050134,0.4480228,0.4157481c-0.0186262,1.0815973-0.0130243,2.1635461-0.016634,3.2453618
		c-0.3325462-0.0692711-0.267065-0.32654-0.2722368-0.5277033c-0.0179205-0.6968551,0.0038004-1.3943496-0.0123291-2.0912013
		c-0.0059719-0.258009,0.1283426-0.62009-0.2545576-0.7148046c-0.387372-0.0958219-0.832571-0.1885009-1.1518593,0.1921711
		c-0.0478926,0.0453587-0.1065474,0.0699992-0.1748686,0.0749998c-0.1993608-0.0806885-0.055377-0.2808437-0.1618586-0.3939948
		C12.6874752,4.9182935,12.7209597,4.8521504,12.7544441,4.7860069z"/>
	<path fill="#122605" d="M15.8933754,4.5705509c0.0301857-0.2295375,0.2152767-0.2228584,0.3985004-0.2227364
		c0.8314381,0.0005546,1.6628742,0.0002546,2.4943104-0.0002255c0.1614265-0.0000935,0.3487797-0.0260015,0.2380619,0.220829
		c-0.1144619,0.1221685-0.2720852,0.1464252-0.432415,0.1494007c-0.7545319,0.0140047-1.5091858,0.01369-2.2637291,0.0002546
		C16.1670418,4.7152061,16.0112247,4.6869631,15.8933754,4.5705509z"/>
	<path fill="#2F1D43" d="M15.8933754,4.5705509c1.0436287-0.000699,2.0872612-0.0013976,3.1308823-0.0021148
		c0.1012192,0.0537024,0.1250248,0.1380677,0.1111698,0.237339c-0.7583828,0.0675683-1.5186481,0.0066452-2.2776623,0.0284786
		c-0.2186546,0.0062895-0.4417439-0.0267744-0.6512794,0.0558915c-0.2552938,0.1640019-0.074091,0.4944572-0.3004398,0.6690087
		c-0.0431786,0.0023437-0.0863552,0.0046873-0.1295338,0.007031c-0.1811209-0.2950854-0.181385-0.5901313,0.0002298-0.8851376
		C15.8156195,4.6442151,15.8544979,4.6073828,15.8933754,4.5705509z"/>
	<path fill="#16240A" d="M10.3396511,12.3118868c0.6430149,0.0066757,1.2860279,0.0133514,1.9290419,0.0200272
		c0.1360445,0.214324-0.0193853,0.2632608-0.1956434,0.2592878c-0.6496992-0.0146484-1.3015499,0.0574856-1.9491367-0.0379019
		c-0.0497646-0.053628-0.0704622-0.1155872-0.0620375-0.1856632C10.1327906,12.2580872,10.2294645,12.2565918,10.3396511,12.3118868
		z"/>
	<path fill="#7209C4" d="M16.0031071,4.7832599c1.0454063-0.142199,2.0898724-0.1733007,3.13237,0.0224509
		c-0.0088463,0.2139826-0.0176392,0.4279013-0.0264339,0.6418195c-0.0028572,0.0618658-0.0319958,0.1103988-0.0873356,0.1456223
		c-0.0315037,0.0003471-0.0630836,0.0006719-0.0944939,0.0011039c-0.0529594-0.0357037-0.0833988-0.0836797-0.0913467-0.14358
		c0.1366825-0.3539681-0.0211926-0.542541-0.4080448-0.540287c-0.7392635,0.0043073-1.4812946-0.0694242-2.2181091,0.0492768
		c-0.0654964,0.00775-0.1281357-0.0005641-0.1888046-0.0241728C15.9616814,4.8899159,15.955904,4.8391371,16.0031071,4.7832599z"/>
	<path fill="#122605" d="M12.8396435,4.3967338c0.6276197,0,1.2552404,0,1.8828621,0
		c0.0014038,0.0355868,0.0028105,0.0711737,0.0042162,0.1067605c-0.6283236,0-1.2566481,0-1.8849716,0
		C12.8410482,4.4679074,12.8403454,4.4323206,12.8396435,4.3967338z"/>
	<path fill="#172412" d="M12.7523212,9.7972841c0.0435371-0.0446615,0.0870762-0.089323,0.1306238-0.1339855
		c0.2845211,0.1482944,0.3302174,0.3708477,0.1285915,0.5796051c-0.2045546,0.211791-0.2993221,0.5144348-0.6095676,0.6394377
		c-0.0852413-0.0410585-0.1705027-0.0821276-0.2557659-0.1231966c-0.0422049-0.1733437,0.0933619-0.271059,0.1918497-0.3847237
		C12.5527744,10.2288084,12.5952892,9.9781485,12.7523212,9.7972841z"/>
	<path fill="#17240C" d="M13.3641233,8.7775927c-0.0991955-0.0023165-0.1895761-0.0208359-0.2410526-0.1108427
		c0.1454659-0.8759551,0.0167217-1.7577138,0.0659494-2.6359124c0.0318747-0.1122441,0.0721807-0.2079129,0.2192106-0.0947447
		C13.4046593,6.883491,13.4866381,7.8318853,13.3641233,8.7775927z"/>
	<path fill="#24202B" d="M16.5007668,8.7655334c0.6865292,0.0565834,1.3706436,0.072916,2.0431747-0.1037235
		c-0.6280766,0.4929352-1.3403721,0.3413944-2.0479259,0.2261143C16.4976006,8.8471231,16.4991837,8.8063288,16.5007668,8.7655334z"
		/>
	<path fill="#2D1E3E" d="M13.3641233,8.7775927c0.0023727-0.9585061,0.0047464-1.9170108,0.0071173-2.8755164
		c0.0287924-0.0479965,0.0627995-0.0513535,0.1020203-0.0100713c0.0095987,0.9583383,0.0191965,1.9166765,0.0289211,2.8749399
		C13.4562464,8.7704439,13.4101858,8.7740183,13.3641233,8.7775927z"/>
	<path fill="#212121" d="M20.3502693,5.6772356c0.19104,0.5905485,0.2585812,1.1810966,0,1.7716455
		c-0.1133709-0.0731664-0.1471901-0.1890693-0.1134624-0.2934165c0.1283875-0.3972101,0.1283894-0.7876034-0.0000019-1.184813
		C20.2030773,5.866303,20.2368965,5.7504005,20.3502693,5.6772356z"/>
	<path fill="#1E221B" d="M10.1115217,12.4316339c0.6728611,0.2249784,1.3624601,0.0895681,2.0456448,0.0716171
		c0.03901-0.0010262,0.0746088-0.1118221,0.111661-0.1714334c0.1416092,0.0690165,0.3187408,0.2667542,0.1041546,0.2769537
		c-0.7800875,0.0370731-1.5759249,0.1777906-2.3470039-0.0754223c-0.0219412-0.007205-0.0236092-0.0665703-0.034729-0.101614
		C10.0313005,12.3917551,10.071393,12.3936949,10.1115217,12.4316339z"/>
	<path fill="#1A2313" d="M16.6161385,7.1169333c-0.0802441-0.0370703-0.1604862-0.0741401-0.2407284-0.1112137
		c-0.0421467-0.3818898,0.0186596-0.7322812,0.360817-0.9965978c0.0888081,0.0679774,0.122221,0.1582341,0.1245403,0.260993
		C16.7579842,6.5470834,17.0701962,6.9256206,16.6161385,7.1169333z"/>
	<path fill="#152407" d="M13.2429771,6.0087996c0.0001316,0.7143788,0.004159,1.4287877-0.0023746,2.1431141
		c-0.0016088,0.1756783,0.0659399,0.3715458-0.1175337,0.5148382c-0.0000954-0.8858275-0.0001936-1.7716527-0.0002909-2.6574779
		C13.1626282,5.962893,13.2027044,5.9648643,13.2429771,6.0087996z"/>
	<path fill="#152506" d="M16.7366676,6.2321062c-0.0001431-0.0743256-0.000288-0.1486516-0.0004387-0.222981
		C16.544363,5.784173,16.2293663,5.9944315,16.0067482,5.837616c0.3116016-0.1526437,0.6888485,0.0839105,0.9706268-0.160881
		c0.0650654-0.0646467,0.146471-0.0812259,0.2379074-0.0685925c0.1397533,0.0506911,0.1901779,0.1365881,0.0863438,0.2493706
		c-0.1282024,0.1392488-0.2575188,0.2788224-0.4068356,0.4006248C16.8367996,6.2767644,16.7838116,6.2693439,16.7366676,6.2321062z"
		/>
	<path fill="#461572" d="M10.3396511,12.3118868c-0.076005,0.002367-0.1520109,0.004734-0.2280169,0.0071001
		c-0.1619301-0.0732594-0.2471962-0.168191-0.109149-0.3262529c0.0329409-0.0019979,0.0657263-0.0053062,0.0983534-0.0099249
		c0.0782518,0.1582184,0.2276411,0.1321192,0.3712244,0.121068c0.4414196-0.0941668,0.8833532-0.0866489,1.3256578-0.0056543
		c0.0729637,0.0055571,0.1459293,0.0111141,0.218894,0.0166712c0.0521431,0.0102863,0.0730877,0.0275059,0.0631771,0.0517788
		c-0.0112953,0.027669-0.0239973,0.0415573-0.0384169,0.0415573C11.477932,12.2954712,10.8949432,12.1115618,10.3396511,12.3118868z
		"/>
	<path fill="#132504" d="M13.591835,9.0355835c0.3616781,0,0.7233562,0,1.0850344,0
		c0.0025644,0.0492067,0.005126,0.0984144,0.0076904,0.1476212C14.3247671,9.2376175,13.963563,9.2580557,13.591835,9.0355835z"/>
	<path fill="#222222" d="M7.8206968,9.2197218C7.6207709,9.3676929,7.420845,9.5156641,7.2209215,9.6636391
		C7.2101912,9.3475609,7.5820088,9.1193018,7.4615302,8.7780256c0.0379982-0.0378418,0.077291-0.0390158,0.1178808-0.00352
		c0.0527158,0.0904999,0.1438556,0.111702,0.2450323,0.1148014C7.8486447,8.9996891,7.8461566,9.1098156,7.8206968,9.2197218z"/>
	<path fill="#162409" d="M19.0128059,5.5531793c0.0321903-0.0352287,0.0643826-0.0704575,0.096405-0.1056676
		c0.3118362-0.157043,0.0479279-0.4785089,0.2718353-0.7429709c0.1597557,0.4186225,0.2754841,0.75207-0.2336731,0.9752202
		C19.0727844,5.6642766,19.0261135,5.6237135,19.0128059,5.5531793z"/>
	<path fill="#591292" d="M17.1997662,5.662446c-0.0741291,0.004765-0.1482601,0.0095301-0.2223911,0.0142918
		c-0.3540401-0.0632758-0.7338505,0.0720663-1.0714169-0.1175318c0.0225887-0.2597046-0.1153631-0.5363426,0.0972137-0.7759061
		c0.0050278,0.0404472,0.0101185,0.0809345,0.0152073,0.1214218c0.1424217,0.1109629,0.1020641,0.2935982,0.1987305,0.4222693
		c0.036993,0.0297441,0.0752621,0.0563083,0.1187496,0.0771928c0.2849693,0.0727034,0.6001854-0.0371585,0.8685513,0.1256852
		c0.0298748,0.0304284,0.0388908,0.0602307,0.0275879,0.0893717C17.2208252,5.6480412,17.2100906,5.6624465,17.1997662,5.662446z"/>
	<path fill="#1C2217" d="M11.67663,7.2280049c-0.2647276-0.294827-0.2449455-0.647501-0.2399349-0.9971714
		c0.0800428-0.0738692,0.1600838-0.147738,0.2401171-0.2216082C11.6767473,6.4154844,11.6766882,6.8217444,11.67663,7.2280049z"/>
	<path fill="#162508" d="M12.4581881,5.5587773c-0.2413225-0.297235-0.1952114-0.5286431-0.0374088-0.7689834
		C12.5470619,5.0074153,12.5366316,5.23597,12.4581881,5.5587773z"/>
	<path fill="#10270C" d="M19.0128078,5.5531793c0.0448399,0.0421739,0.0896797,0.0843482,0.1345425,0.1265526
		c0.063942,0.2646685-0.450779,0.3515534-0.2403164,0.6611948c-0.0408783,0.0001869-0.0817833,0.000381-0.1226902,0.0005746
		c-0.3860168,0.0930395-0.3293438-0.1145782-0.2359695-0.312304c0.0953617-0.2019343,0.3080444-0.3198519,0.4654388-0.4778228
		C19.013813,5.5513744,19.0128059,5.5531793,19.0128078,5.5531793z"/>
	<path fill="#222222" d="M7.2199273,11.3247366c0.160861,0.1844082,0.3217225,0.3688164,0.4825854,0.5532246
		C7.3851581,11.8089066,7.0100937,11.7823877,7.2199273,11.3247366z"/>
	<path fill="#16240D" d="M15.7726526,7.5584683c0.0407562,0.0373802,0.0815125,0.0747604,0.1222687,0.1121402
		c0.1459265,0.1508307,0.036499,0.2769113-0.0462704,0.4057465c-0.0215216,0.015214-0.0432911,0.0302343-0.0650606,0.0452557
		c-0.0468264,0.0329142-0.0936556,0.0658293-0.1404819,0.0987444c-0.1000805,0.0184841-0.1571541-0.0006704-0.1126299-0.1087437
		C15.4821291,7.8794794,15.6660299,7.7332683,15.7726526,7.5584683z"/>
	<path fill="#262032" d="M12.6539898,4.984437c0.0308437,0.1202488,0.0616875,0.2404981,0.0925312,0.3607478
		c0.1642408,0.1605983,0.4666834,0.0173135,0.605937,0.2328558c-0.0052328,0.0368686-0.0104656,0.0737376-0.0157003,0.1106062
		c-0.0667515,0.0515742-0.1344652,0.0546904-0.2032623,0.003417C12.4845896,5.736227,12.6452703,5.3168254,12.6539898,4.984437z"/>
	<path fill="#16250D" d="M15.7767401,4.6810479c-0.0001011,0.2950473-0.0002041,0.5900946-0.000268,0.8851395
		c-0.1004438-0.0013285-0.1919374-0.0193863-0.2440014-0.1108179c0.098073-0.2209439,0.0972624-0.4419584,0.0005646-0.6630421
		C15.5848684,4.7008228,15.6764803,4.6829329,15.7767401,4.6810479z"/>
	<path fill="#19240F" d="M15.5304785,8.1116114c0.0376015,0.0362844,0.0752058,0.0725689,0.1127195,0.108799
		c-0.0353909,0.2563295-0.2762146,0.269558-0.4715014,0.3366547c-0.0000496-0.111352-0.0001087-0.2227154-0.0001583-0.3340902
		C15.291193,8.1858454,15.4108353,8.1487293,15.5304785,8.1116114z"/>
	<path fill="#1C2218" d="M6.9790912,10.2167158c-0.0373449,0.2688036,0.0527039,0.5209694,0.1199417,0.7761202
		C6.7569776,10.7735748,6.7840643,10.5061102,6.9790912,10.2167158z"/>
	<path fill="#0B2800" d="M13.1334953,5.6920638c0.0678244-0.0011659,0.1356487-0.0023317,0.2033672-0.0034571
		c0.0454187,0.0678382,0.0909424,0.1356359,0.1364336,0.2034163c-0.0339117,0.0048518-0.0679665,0.0081916-0.1021271,0.0100279
		c-0.0426807,0.035605-0.0854311,0.0711842-0.1281891,0.1067562c-0.0400686,0.000267-0.0801334,0.0004263-0.1202002,0.0004687
		C12.9678965,5.8990135,12.9278717,5.7920318,13.1334953,5.6920638z"/>
	<path fill="#222222" d="M10.0024853,11.992734c-0.0305042,0.1276674,0.0491924,0.2241831,0.109149,0.3262663
		c-0.0000372,0.0375357-0.0000753,0.0750847-0.0001125,0.1126337l-0.0601387-0.0000029c0,0-0.0601387,0.000102-0.0601358,0.000103
		c-0.0993481-0.0022764-0.1893272-0.0217457-0.2412167-0.1110983c-0.0705175-0.1237869,0.027832-0.1717615,0.1185608-0.2231588
		C9.9132233,12.0625629,9.9578543,12.0276489,10.0024853,11.992734z"/>
	<path fill="#212121" d="M20.1093578,8.3347034c-0.0264683,0.2363863-0.2041912,0.3893452-0.3613682,0.5536394
		C19.7190838,8.621417,19.8635178,8.4500961,20.1093578,8.3347034z"/>
	<path fill="#1D2219" d="M9.8685904,12.097476c-0.0395184,0.0743885-0.0790377,0.148778-0.1185579,0.2231636
		c-0.4183712-0.0603361-0.0610571-0.299221-0.1204586-0.4421778c-0.0000019,0.0000057,0.0001612-0.0004673,0.0001612-0.0004673
		c0.0401268-0.0391293,0.0802546-0.0391293,0.1203823,0C9.7525244,11.96807,9.7717371,12.0504799,9.8685904,12.097476z"/>
	<path fill="#8104E3" d="M12.0413752,12.20823c-0.0033607-0.0322523-0.0115385-0.0634365-0.0246477-0.0934448
		c0.1434851-0.0702009,0.0405178-0.1590834,0.02143-0.2416573c0.1749945,0.0079088,0.3386679,0.0664253,0.308877,0.246273
		C12.3257227,12.248064,12.1529303,12.197979,12.0413752,12.20823z"/>
	<path fill="#1B2314" d="M7.579411,8.7745056c-0.0392699,0.0018568-0.0785642,0.003027-0.1178818,0.0035152
		C7.3065848,8.6672611,7.3067689,8.5563459,7.4611449,8.4452791c0.0403371,0.0370617,0.080678,0.0741243,0.1210222,0.1111908
		C7.5812507,8.6291513,7.5803308,8.701829,7.579411,8.7745056z"/>
	<path fill="#132506" d="M15.5330353,4.7923274c0.1813822,0.2211504,0.1815453,0.4421692-0.0005703,0.6630478
		C15.5326605,5.2343554,15.5328474,5.013341,15.5330353,4.7923274z"/>
	<path fill="#8205E2" d="M16.024971,8.0095758c-0.0511017,0.1605263-0.1022043,0.3210535-0.1533413,0.4817162
		c-0.1496525-0.0989571-0.0847654-0.2411966-0.0880594-0.3697004c0.00002,0.0000191-0.0028362,0.0008192-0.0028362,0.0008192
		c0.0398006-0.0664368,0.0851059-0.1274462,0.1720066-0.147471C15.9768171,7.9864726,16.0008945,7.9980245,16.024971,8.0095758z"/>
	<path fill="#1A2314" d="M19.6286869,7.7822542c0.0000553-0.1853709,0.0001087-0.3707404,0.0001774-0.5561237
		C19.8057575,7.4115481,19.8055573,7.5969267,19.6286869,7.7822542z"/>
	<path fill="#303030" d="M20.4703693,8.3347864c0.0061989-0.1214705-0.0200901-0.2528925,0.1207523-0.3331223
		c0.2698994-0.8395247,0.2903862-1.6890368,0.1206589-2.5461655c-0.3472729-1.3633175-1.1368599-2.3926079-2.5981903-2.9200027
		c-0.1070576-0.0386379-0.1962738-0.1190636-0.2937832-0.1800611c-1.0711975-0.3577842-2.1554422-0.3932661-3.2525368-0.1112385
		c-0.3152552,0.0345056-0.5571117,0.2270794-0.8406668,0.3298545C13.43538,2.2340953,12.970705,1.9903526,13.0026217,1.4711542
		c1.5404224-0.7165786,3.1312017-0.8661957,4.8104143-0.4533098c2.3510571,0.5780805,4.3165779,2.8842854,4.355938,5.1087799
		c0.0160637,0.9080191-0.0712757,1.7877173-0.3736725,2.6500025c-0.2402267,0.2590904-0.389183,0.5602827-0.4838467,0.8865147
		c-0.0335522,0.2123785-0.1835308,0.3653641-0.316658,0.5274649c-0.1597424,0.1654463-0.3617992,0.2887964-0.5331898,0.4389172
		c-0.2953053,0.2586575-0.5131435,0.2331257-0.7135601-0.0793734c-0.0396633-0.0013332-0.0793381-0.0024223-0.1190205-0.0032682
		c-0.1351681-0.0227852-0.2150555-0.096282-0.2395153-0.2206268c-0.1115475-0.1705761-0.3244629-0.3222942-0.1213703-0.5513926
		c0.4423885-0.2337408,0.6052895-0.6948681,0.9615936-0.9986372C20.3227596,8.6349821,20.3404942,8.4590569,20.4703693,8.3347864z"
		/>
	<path fill="#18240F" d="M24.5652618,1.5809135c0.4997215,0.6270332,0.4982166,1.2543001,0.0010357,1.8817973
		C24.539856,3.585916,24.459568,3.6598361,24.3257618,3.6847687c-0.3845863,0.1414177,0.0729103,0.293211-0.0063934,0.4383903
		c-0.5464039,0.4774046-1.4114475,0.5325303-1.8013344,0.1147914c0.0777855-0.1268401,0.0695267-0.2343135-0.0609035-0.3354197
		c-0.5448208-0.4223413-0.9645653-0.9032557-0.9545326-1.6121192c0.0018425-0.1303182-0.1285229-0.2622175-0.1978664-0.3933871
		c-0.0977135-0.0824932-0.1096382-0.1886854-0.0995731-0.3012393c0.044487-0.2251581,0.1792793-0.3908212,0.3941422-0.5031792
		c0.0473938-0.0257339,0.0975075-0.0476699,0.1477432-0.0681583c0.1551743-0.044017,0.2485256-0.1889141,0.4134541-0.2179207
		c0.3510418,0.06213,0.1776104,0.205157,0.054945,0.3288416c-0.1987152,0.2003586-0.447319,0.3669045-0.5353603,0.8076333
		c0.6795845-0.856909,1.4172897-1.2332361,2.4047241-0.6969048C24.3544388,1.2249511,24.4576664,1.4055798,24.5652618,1.5809135z"/>
	<path fill="#222223" d="M22.518034,4.2379503c0.6229191,0.2594051,1.2134094,0.0885096,1.8014011-0.1147528
		c0.1274872,0.0037432,0.1737442-0.2058315,0.3202019-0.1095819c0.0224705,0.0147691-0.0464687,0.1470728-0.0731297,0.225028
		c-0.2538013,0.3275938-0.339798,0.7662544-0.7669525,0.9790936c-0.0739498-0.088933-0.0789604-0.1902838-0.0641098-0.2951264
		c0.0261555-0.1277156,0.0991974-0.2346344,0.1796246-0.3388739c0.0034962-0.0045328,0.0904598-0.0303979-0.0056038-0.0594673
		c-0.0634022-0.0191855,0.0243015,0.0266113-0.0577412,0.033041c-0.2493114,0.07337-0.5002441,0.1582956-0.7610683,0.1083608
		c-0.2339878-0.0447974-0.3122826,0.1084094-0.4249077,0.2290363c-0.0479412,0.0023851-0.0958824,0.0047698-0.1438255,0.0071549
		c-0.1250267-0.0834637-0.126049-0.2264824-0.1928043-0.338172c-0.0159397-0.0816803,0.0021591-0.1543264,0.0680923-0.2140059
		C22.4374847,4.3124399,22.4777603,4.2751951,22.518034,4.2379503z"/>
	<path fill="#192317" d="M20.9529724,2.1304889c0.0317535,0.1032052,0.2537651,0.1393592,0.1724224,0.252754
		c-0.1153488,0.1607947-0.2190437,0.0185077-0.3280182-0.0614245c-0.4474068-0.3281698-0.9011822-0.6491957-1.35956-0.9643126
		c-0.0668793-0.0459766-0.1581287-0.089594-0.092453-0.1498964c0.0578594-0.0531278,0.1786213-0.0483699,0.2716064-0.0691738
		c0.1044006-0.0115218,0.208746-0.0188401,0.313118,0.0022972c0.1356106,0.022719,0.2539082,0.0784767,0.3597469,0.1584703
		C20.5560532,1.5456759,20.8629398,1.7651848,20.9529724,2.1304889z"/>
	<path fill="#2C3227" d="M13.0026217,1.4711542c0.176734,0.4034739,0.6176691,0.6604133,0.7239666,1.1029291
		c-0.1228428,0.0014138-0.2457027,0.0028601-0.3685608,0.0043068c-0.4323978-0.1420257-0.5940199-0.5647137-0.9561939-0.779525
		c0.1200829-0.0728878,0.2401638-0.1457759,0.3602533-0.2186658C12.842268,1.5438496,12.9224463,1.5075021,13.0026217,1.4711542z"/>
	<path fill="#132506" d="M19.8749161,0.6862655c-0.1177845-0.0515201-0.2355709-0.10304-0.4221134-0.1846346
		c0.860033,0,1.6525402,0,2.4936066,0c-0.1099148,0.0722125-0.194231,0.127607-0.2785473,0.1830012
		C21.0704899,0.941477,20.4728374,0.9392178,19.8749161,0.6862655z"/>
	<path fill="#2F1D3E" d="M19.8749161,0.6862656c0.5976906-0.0004825,1.195385-0.0009649,1.7930126-0.0015406
		c0.1684895,0.0255975,0.3646927-0.043128,0.492527,0.1217897c-0.0902023,0.1357815-0.1187897,0.3256888-0.3504391,0.3372977
		c-0.0688515-0.0937694-0.1511497-0.1769338-0.2834167-0.1764706c-0.6708622,0.00235-1.3448524-0.0845317-2.0111542,0.0558802
		c-0.1139259-0.0437994-0.2556953-0.1185818-0.1855373-0.2297249C19.4511356,0.6014552,19.691328,0.7254598,19.8749161,0.6862656z"
		/>
	<path fill="#142506" d="M22.3984356,4.5693731c0.1374683,0.0806198,0.1115437,0.2124834,0.1234474,0.3324924
		c0.1603279,0.4694338,0.2918568,0.9420614,0.1014938,1.4604006c-0.1155643-0.5604596-0.2311287-1.1209197-0.3466949-1.6813798
		C22.2315731,4.5646529,22.2894878,4.5434723,22.3984356,4.5693731z"/>
	<path fill="#7308C6" d="M19.5154457,1.0232219c0.0182686-0.0521224,0.02882-0.1460416,0.0559311-0.1502731
		c0.7320652-0.1142464,1.470892-0.0508716,2.2056999-0.0381003c0.2194233,0.0038131,0.0523968,0.1989383,0.0329037,0.3089511
		c-0.0411301,0.0038911-0.0823002,0.0077691-0.1234684,0.0116471c-0.5619621-0.1749686-1.1485634-0.0393736-1.7197208-0.1098425
		c-0.0660458-0.0081487-0.0371265,0.1252681-0.0909367,0.1766746c-0.1058159,0.0230263-0.1900406-0.0102656-0.258852-0.0838469
		C19.583128,1.1000308,19.5492859,1.0616261,19.5154457,1.0232219z"/>
	<path fill="#8605DF" d="M22.6657486,4.8947077c-0.0354271-0.2519131-0.080019-0.5063109,0.3617897-0.3788147
		c0.3186836,0.0919647,0.6199684-0.0668879,0.9329891-0.0697074c0.0283089,0.2787623-0.1922626,0.3203688-0.4099674,0.3654566
		c-0.0888538,0.0094786-0.178484,0.0101109-0.2677765,0.0074854c-0.0953751,0.0581784-0.3805847-0.1709461-0.290081,0.1663818
		c0.0008965,0.1094856-0.0199203,0.2093248-0.1281834,0.2741981C22.7982616,5.138041,22.7320061,5.0163741,22.6657486,4.8947077z"/>
	<path fill="#7308C6" d="M20.9529724,2.1304889c-0.2497578-0.2521518-0.4995136-0.5043041-0.7492695-0.7564564
		c0.2065411-0.1754389,0.3799095-0.0379676,0.4936409,0.0881066c0.1854343,0.2055604,0.3949757,0.1489648,0.6148586,0.1174338
		c-0.0024624,0.1058581-0.0049229,0.2117163-0.0074291,0.317513C21.2067108,1.9993316,21.118454,2.1140685,20.9529724,2.1304889z"/>
	<path fill="#9601F7" d="M23.329998,5.9279032c-0.0624485,0.0402808-0.124897,0.0805621-0.1873455,0.1208434
		c-0.1660519-0.0999131-0.1311798-0.2566814-0.1350784-0.4023676c0.0602474-0.3323846,0.2994423-0.5554638,0.5557919-0.7677693
		c0.0581017-0.0177727,0.1162777-0.0161066,0.1734371,0.0042377c0.1189232,0.2562203-0.1593838,0.4330058-0.1583843,0.6657777
		C23.4985313,5.676363,23.4440098,5.8186374,23.329998,5.9279032z"/>
	<path fill="#8502F0" d="M23.119278,5.566669c0.0077782,0.1606884,0.0155563,0.3213773,0.0233536,0.4820714
		c0.0125618,0.0262504,0.0197029,0.0536814,0.0214443,0.0823007c-0.4019775,0.0041871-0.1108093-0.3440757-0.2767487-0.4599094
		c-0.0075645-0.137188-0.0151272-0.2743759-0.022747-0.4114938c0.0068207-0.1201086,0.0137005-0.2402864,0.0205803-0.3604646
		c0.222414-0.0106802,0.2125359,0.1509142,0.2472286,0.2800107C23.1680298,5.3093524,23.0349751,5.4346237,23.119278,5.566669z"/>
	<path fill="#461477" d="M22.8873272,5.6711316c0.1849022,0.1061645-0.0206871,0.410831,0.2766933,0.4598775
		c0.1406174,0.1497264,0.0284767,0.2367201-0.1086502,0.26966c-0.1596813,0.0383592-0.1877308-0.0918975-0.1889725-0.1990795
		C22.8643532,6.0248585,22.8794537,5.8479595,22.8873272,5.6711316z"/>
	<path fill="#222223" d="M24.5652618,1.5809138c-0.1601582-0.1115887-0.3203144-0.2231776-0.480463-0.3347917
		c0.0156422-0.089784,0.0676708-0.2232194,0.1605415-0.1503549C24.3991985,1.2164794,24.6766033,1.3017043,24.5652618,1.5809138z"/>
	<path fill="#1D221D" d="M23.329998,5.9279027c-0.0295277-0.1494899,0.0815468-0.2496142,0.1513367-0.364233
		c0.0644894-0.0606894,0.1021042-0.1587396,0.2257366-0.1372056c0.000021,0.2454429-0.101553,0.4425344-0.3269176,0.5805988
		C23.3662033,5.9791012,23.3494473,5.9527335,23.329998,5.9279027z"/>
	<path fill="#222223" d="M24.3257618,3.6847687c0.0457973-0.1054883,0.1258144-0.1796556,0.2405357-0.2220583
		c0.1323261,0.0860727,0.1036491,0.1776564,0.0002785,0.2588489C24.4781799,3.7909901,24.3915825,3.7772391,24.3257618,3.6847687z"
		/>
	<path fill="#1C2317" d="M23.2221985,6.6756892c-0.0665989,0.0406284-0.1060867,0.0834575-0.1494732,0.0871053
		c-0.0792542,0.0066671-0.15588-0.0277944-0.1289425-0.115706c0.0094509-0.0308385,0.0884304-0.0611982,0.1345024-0.0597858
		C23.1191463,6.5885539,23.1583977,6.6341486,23.2221985,6.6756892z"/>
	<path fill="#1C2216" d="M22.3984356,4.5693731c-0.0405769,0.0371709-0.0811539,0.0743418-0.1217442,0.1115127
		c-0.1953678-0.1828461-0.1369743-0.2876573,0.1205292-0.3312159C22.3976192,4.4229145,22.3980274,4.4961438,22.3984356,4.5693731z"
		/>
	<path fill="#212021" d="M20.9520779,10.1052637c0.0997658-0.1611452,0.1449108-0.3598127,0.3594055-0.4421225
		c0.1030273-0.0790119,0.2060852-0.1580238,0.3091393-0.2370358c-0.2212753,0.4972534-0.3683205,1.0468092-1.0294418,1.2338829
		C20.5520058,10.3874102,20.8764744,10.3147421,20.9520779,10.1052637z"/>
	<path fill="#212121" d="M20.9520779,10.1052647c0.0136623,0.2585516-0.2760372,0.3503332-0.3608971,0.5547237
		c-0.3113289,0.1597719-0.6487885,0.4890089-0.8431358-0.109848c0.2626629,0.2341242,0.4909115,0.2216434,0.7263641-0.050025
		C20.6060104,10.3482695,20.7910938,10.2355919,20.9520779,10.1052647z"/>
	<path fill="#212021" d="M19.3895111,10.3262539c0.0798264,0.0735598,0.1596508,0.1471195,0.2394962,0.2206535
		c-0.0933495,0.1234093-0.1940632,0.0988235-0.2834339,0.0019722
		C19.2689896,10.4658852,19.2879353,10.3860292,19.3895111,10.3262539z"/>
	<path fill="#8502F0" d="M23.7070713,5.4264641c-0.0752411,0.0457392-0.1504803,0.0914783-0.225729,0.1372118
		c0.080759-0.2202606,0.1615219-0.440515,0.2422867-0.6607699c0.0426788-0.0356193,0.0854893-0.037601,0.1284504-0.0004196
		C23.83461,5.0075836,23.8171406,5.1126804,23.799612,5.2177572C23.7079926,5.2645736,23.6983395,5.3420777,23.7070713,5.4264641z"
		/>
	<path fill="#8C01F6" d="M12.4018335,1.7988651c0.6029263-0.0347569,0.5890713,0.5698175,0.9561939,0.7795055
		c-0.00459,0.0597184-0.0091791,0.119417-0.0137768,0.1791019c-0.6252966,0.3478363-1.0669203,0.8670697-1.519557,1.3760271
		c-0.751956,1.204073-0.8898067,2.474175-0.4833326,3.8027253c0.062932,0.1975527,0.1707315,0.4020872-0.0983896,0.54877
		c-0.4690256-0.1804419-0.457757-0.6145163-0.5339756-0.9597402c-0.3842278-1.7403073,0.1858511-3.2248693,1.5102787-4.4902301
		c0.1417866-0.135462,0.4601974-0.315603,0.2826109-0.4725406c-0.2216129-0.1958439-0.4060383,0.1165981-0.5578308,0.2574148
		c-0.8944817,0.8298028-1.33498,1.857496-1.5017405,2.9988096c-0.0657349,0.1289358-0.1088047,0.3255901-0.2955408,0.2903719
		C9.9789982,6.0774379,9.9758158,5.8848038,9.9603939,5.7392268c-0.0252476-0.2383285,0.028739-0.4720283,0.050395-0.7072225
		c0.0295925-0.2442856,0.1016693-0.4774308,0.2258015-0.6960421c0.0810442-0.1933246,0.1587801-0.3885677,0.3201771-0.5420322
		C11.0113144,3.0035017,11.6931467,2.3906906,12.4018335,1.7988651z"/>
	<path fill="#212123" d="M10.3003063,4.3472576c-0.0119028,0.2344656-0.2900524,0.3993206-0.2040215,0.6593914
		c-0.162487,1.1461463-0.1419687,2.2819567,0.2284145,3.398077c0.028162,0.1293249,0.0280724,0.2543793-0.0670557,0.3643703
		c-0.0882692-0.0714159-0.1765385-0.1428308-0.2648077-0.2142458C9.7684841,8.3729277,9.7480536,8.1037149,9.643961,7.869894
		C9.6142454,7.6191335,9.4576283,7.3709478,9.622138,7.1155357c-0.0311251-0.9513144,0.1256933-1.8745313,0.4895287-2.766798
		C10.1740379,4.2934303,10.2368317,4.2837257,10.3003063,4.3472576z"/>
	<path fill="#122602" d="M9.622138,7.1155357c0.0666227,0.2550049,0.1684332,0.5050564,0.129096,0.7749758
		c0.0146856,0.1669321,0.0365238,0.3381939-0.236908,0.3307323c-0.1583986-0.5039835-0.29533-1.010777-0.2388735-1.5428114
		C9.6107759,6.6769371,9.4286604,7.0220866,9.622138,7.1155357z"/>
	<path fill="#1D2219" d="M10.3003063,4.3472571c-0.0628815,0.0004916-0.125761,0.0009832-0.1886415,0.0014777
		c0.1475372-0.1854987,0.1373596-0.477915,0.4451046-0.5548062C10.4712811,3.9783726,10.3857927,4.1628146,10.3003063,4.3472571z"/>
	<path fill="#212121" d="M10.3537159,9.7727823c0.3496275,0.2578411,0.5931253,0.5585232,0.4793653,1.0034246
		c0.0056524,0.0987635,0.0216427,0.1983109-0.0259552,0.2931309c-0.0416994,0.1709681-0.076252,0.3448925-0.2289686,0.4701118
		l0.0041037-0.0080147c-0.0544987,0.077467-0.128253,0.0837202-0.2131662,0.048708
		c0.341404-0.5915203-0.0892906-1.1299-0.1380377-1.6945591C10.2719364,9.84799,10.3128271,9.8103857,10.3537159,9.7727823z"/>
	<path fill="#132507" d="M9.147933,8.9991722C8.8668528,8.9706011,8.5857468,9.2138596,8.3046837,8.9991045
		c-0.1519346,0.049715-0.3213553,0.1476192-0.3614755-0.1108294c0.4123607-0.3315506,0.8700337-0.1797304,1.320518-0.1046047
		C9.3406038,8.9079342,9.3737803,9.0123558,9.147933,8.9991722z"/>
	<path fill="#132606" d="M9.5143261,8.2212439c0.0789595-0.1102352,0.1579208-0.2204704,0.2368937-0.3307195
		c0.1702557,0.1938767,0.2259636,0.422956,0.2415924,0.6643405C9.9117069,8.6280098,9.8305779,8.701169,9.7494478,8.7742901
		C9.5641947,8.6283131,9.6554365,8.3830404,9.5143261,8.2212439z"/>
	<path fill="#1B2314" d="M7.9432082,8.8882751C8.0299225,9.0183086,8.1723289,8.994854,8.3046837,8.9991045
		C8.1433735,9.072649,7.9820628,9.1461935,7.8207245,9.2197294C7.7495627,9.1088886,7.7469559,8.9987068,7.8244262,8.8892956
		C7.8640304,8.8887959,7.9036183,8.8884516,7.9432082,8.8882751z"/>
	<path fill="#1B2314" d="M9.147933,8.9991722c0.0946999-0.0464096,0.118576-0.1249857,0.1158466-0.2155628
		c0.2061825,0.0554514,0.2154388,0.1746693,0.1250067,0.326189C9.289649,9.1076069,9.1998367,9.0882607,9.147933,8.9991722z"/>
	<path fill="#9A00FA" d="M8.7677784,7.10221c0.1610069-0.0379047,0.2642689-0.0241599,0.2572069,0.1721635
		C9.0145035,7.5657091,9.002079,7.8592181,9.1343288,8.1387024C9.2515507,8.3864212,9.131937,8.4761944,8.866622,8.4378481
		c-0.2450085-0.0354128-0.575983,0.1242151-0.7171888-0.0940809C8.0357475,8.1680183,8.380373,8.0439787,8.4499006,7.8520317
		C8.542655,7.5959682,8.7806425,7.3909659,8.7699594,7.0962758C8.7699022,7.096169,8.7677784,7.10221,8.7677784,7.10221z"/>
	<path fill="#9900FD" d="M16.1290016,4.8971481C16.98353,4.6961646,17.8559799,4.788969,18.7116299,4.833168
		c0.5662651,0.0292506,0.1832581,0.4723873,0.1948395,0.7367783c-0.115078,0.23241-0.2055817,0.4910975-0.5734615,0.4532032
		c-0.1468983-0.2634587,0.1196384-0.3940077,0.2482224-0.5270352C18.885601,5.1812234,18.670723,5.04914,18.3849678,5.0333748
		c-0.6405354-0.0353389-1.2849636-0.011065-2.0710888-0.011065c0.4196167,0.3645802,0.8662338,0.055624,1.1450233,0.3225794
		c-0.4174023,0.2846041-0.8767109,0.1632385-1.3283806,0.1158581l0.0009995-0.0022879
		C16.0455513,5.2716789,16.0469456,5.0845661,16.1290016,4.8971481z"/>
	<path fill="#8205E2" d="M17.7303448,7.791141c0.0685329-0.0077624,0.1370659-0.0155244,0.2055988-0.0232863
		c0.0383034,0.026053,0.0519772,0.0531421,0.0410805,0.0812879c-0.0110893,0.0286493-0.022686,0.0429854-0.034853,0.0429854
		c-0.4972248,0.1746216-1.0132504,0.2036161-1.487587-0.006135c-0.2508011-0.1109047-0.3089199,0.0218368-0.429697,0.123539
		c0.0000839,0.0000439-0.0417137-0.0301776-0.0417137-0.0301776c-0.0362167-0.106493-0.0670071-0.2122459,0.0481644-0.2980676
		L16.0256443,7.686974c0.1791897-0.179038,0.3607559-0.0732136,0.5466232-0.0085983
		C16.9467373,7.8085556,17.3254318,7.9181938,17.7303448,7.791141z"/>
	<path fill="#1A2314" d="M18.3330078,6.0231495c0.2624855-0.0748053,0.3673401-0.3181505,0.5734634-0.4532094
		c0.0356178-0.007061,0.0714226-0.0132141,0.107378-0.0185094c0.0271091,0.2530251-0.2076683,0.3573704-0.3476582,0.514895
		c-0.1419735,0.1597533-0.1046619,0.2499986,0.1181526,0.275177c-0.0062485,0.0529919-0.0124969,0.1059861-0.0187626,0.1590667
		c-0.1889114-0.0629668-0.3778095-0.1260219-0.5667-0.1890826C18.2435951,6.2153702,18.2883015,6.1192598,18.3330078,6.0231495z"/>
	<path fill="#7C04E1" d="M16.1305218,5.4607472c0.4438915-0.0280209,0.8972168,0.0353851,1.3283844-0.1158562
		c0.3136749,0.1999607,0.3526783,0.3819299-0.0415211,0.5355196c-0.0308456-0.1220412-0.0531616-0.2486272-0.1961021-0.3109283
		C16.8632965,5.4857674,16.4750195,5.6588058,16.1305218,5.4607472z"/>
	<path fill="#8403ED" d="M17.9421711,7.892128c-0.0020695-0.0414119-0.0041389-0.0828223-0.006216-0.1242537
		c0.051096-0.1450629,0.2391968-0.2866988,0.0128975-0.4386401l0.0017834,0.0022655
		c-0.0382214-0.0364966-0.0764427-0.0729918-0.1146641-0.1094885c-0.2697792-0.1610079-0.6216526,0.0842962-0.8767109-0.1496716
		c0.0116692-0.0266161,0.0233593-0.0532403,0.0350494-0.0798645c0.1991234,0.0039268,0.3984566,0.0149994,0.5973167,0.0100379
		c0.2705307-0.0067501,0.480442,0.0922565,0.5608158,0.3253937C18.2271233,7.5445447,18.2186432,7.7695222,17.9421711,7.892128z"/>
	<path fill="#1E2229" d="M17.221283,5.5694823c0.2601604-0.0001845,0.2998829,0.117178,0.1961765,0.3109565
		c-0.2232265,0.0995426-0.3188572,0.2980785-0.4388409,0.477715c-0.0498466,0.028338-0.0988617,0.0271692-0.1471672-0.0035214
		c-0.0273495-0.0480428-0.0233326-0.0926585,0.0170727-0.133307c0.055069-0.2192211,0.4674091-0.2485571,0.351326-0.5587893
		C17.2112274,5.632297,17.218399,5.6013093,17.221283,5.5694823z"/>
	<path fill="#8403ED" d="M16.8628368,6.3547163c0.0388966-0.0076194,0.0774899-0.0064917,0.115778,0.0034103
		c0.0051537,0.2115183,0.0103054,0.4230108,0.0155754,0.6344252c0.0001202-0.0000768-0.0240059,0.020031-0.0240059,0.020031
		C16.6350365,6.8345718,16.8295269,6.5835319,16.8628368,6.3547163z"/>
	<path fill="#212121" d="M20.7117805,5.4554987c0.3099041,0.8627481,0.3033314,1.7128239-0.1206589,2.546175
		C20.6852398,7.1551008,20.7436562,6.3071074,20.7117805,5.4554987z"/>
	<path fill="#212121" d="M14.5672703,2.2441964c1.1005659-0.3676167,2.1860886-0.3635851,3.2525482,0.1112387
		c-0.6921482-0.0509157-1.3564243-0.3105702-2.0680084-0.2234998C15.3585138,2.1800597,14.9622154,2.2074561,14.5672703,2.2441964z"
		/>
	<path fill="#212121" d="M20.4703693,8.3347864c-0.019249,0.1752357-0.0834274,0.3297768-0.2406349,0.4414549
		C20.2184906,8.5869532,20.251976,8.4182835,20.4703693,8.3347864z"/>
	<path fill="#8B02F3" d="M9.5005264,9.5809441c0.0702934,0.0677738,0.1405888,0.1355486,0.2108822,0.2033224
		c0.3909712,0.4058514,0.4966726,0.8387899,0.1477528,1.3148947l0.0041857-0.0058622
		c-0.1504345,0.233531-0.3471289,0.4240961-0.6090374,0.5540905l0.0080538-0.0075779
		c-0.3971901,0.2178488-0.7934103,0.2737017-1.1876259-0.0059977l0.0073853,0.0099049
		c-0.3696775-0.1839771-0.6150665-0.4550924-0.6982899-0.8402872c0.0385265-0.1744881,0.0324831-0.3489962-0.0046153-0.5236359
		c-0.0005689-0.2591419,0.1586275-0.4398508,0.3505731-0.6044712L7.7158713,9.6886997
		C8.4225121,9.1332073,8.764226,9.1125755,9.5005264,9.5809441z"/>
	<path fill="#1C2218" d="M7.4552479,10.7740946c0.0047808,0.4141903,0.3955607,0.593359,0.6267796,0.8696795
		c-0.5750132-0.0946074-0.7543006-0.5313425-0.8359361-0.9506578c-0.0755763-0.3881998-0.0115399-0.8137207,0.4835501-1.0178175
		c-0.0618882,0.2270937-0.331192,0.378705-0.2787838,0.647439C7.462678,10.4731045,7.4609962,10.6235828,7.4552479,10.7740946z"/>
	<path fill="#1C2218" d="M9.5005264,9.5809441C8.8770323,9.2156544,8.285058,9.292572,7.7158437,9.6885672
		C8.201354,9.059988,8.9702368,9.0135641,9.5005264,9.5809441z"/>
	<path fill="#1D221A" d="M9.8591614,11.0991611c0.185338-0.4605484,0.1283417-0.8981075-0.1476812-1.3148966
		C10.2198534,10.1605234,10.2781162,10.6790161,9.8591614,11.0991611z"/>
	<path fill="#222222" d="M8.0747375,11.6338139c0.3951921,0.112524,0.7910538,0.1156406,1.1876154,0.006073
		C8.8645658,11.9594908,8.4681234,12.052289,8.0747375,11.6338139z"/>
	<path fill="#1D221A" d="M9.7501173,11.8779945c-0.0401278,0-0.0802555,0-0.1203823,0
		c0.0249624-0.3109837,0.3226948-0.4124899,0.5334625-0.5851068C10.0673456,11.5152569,10.0019093,11.7519341,9.7501173,11.8779945z
		"/>
	<path fill="#8104E3" d="M10.3690948,11.580143c0.071085-0.0161963,0.1421709-0.0323925,0.2132111-0.0486479
		c-0.0032282,0.2793703-0.180995,0.4127388-0.4583282,0.4628067C10.0914297,11.7991104,10.327342,11.7381773,10.3690948,11.580143z"
		/>
	<path fill="#1D221A" d="M9.2543097,11.6473894c0.2030268-0.1846752,0.4060535-0.3693514,0.6090584-0.554059
		C9.809721,11.4167452,9.6114454,11.6058407,9.2543097,11.6473894z"/>
	<path fill="#8B01F6" d="M10.2576437,8.7690964c-0.0084791-0.1081467-0.0169592-0.2162924-0.0254383-0.324439
		c-0.1106491-0.3443022-0.1870136-0.695621-0.2281103-1.0519223C9.9882975,7.2557755,9.960268,7.0601063,10.1505175,7.0297074
		c0.19874-0.0317574,0.204319,0.1772785,0.2695942,0.2986903c0.18501,1.0488682,0.6181278,1.9848633,1.4832191,2.8104963
		c0.1669617-0.331584-0.0682688-0.4650803-0.1845331-0.6286659c-0.2347107-0.3302383-0.5567636-0.6231384-0.5228691-1.0645332
		c0.2192173-0.1477947,0.0600119-0.2954493-0.0001945-0.443141c0.0407467-0.0374765,0.0899401-0.0563083,0.147543-0.0566325
		c0.1593904,0.0366626,0.1494808,0.2012715,0.2515154,0.2812753c-0.0018139,0.1810732,0.1368628,0.3168411,0.1846027,0.4820194
		c0.1642914,0.2471304,0.3285828,0.4942608,0.4928732,0.7413912c0.0971384,0.1289816,0.2228622,0.2330847,0.3479004,0.3377838
		l0.0065708,0.0051155c0.1521358,0.2833529-0.1075716,0.4406757-0.2316017,0.6395178
		c-0.0829754,0.1087103-0.1659508,0.2174196-0.2489309,0.3261251c-0.0000038-0.0000048-0.0118484-0.0132256-0.0118484-0.0132256
		c-0.1614952,0.1854687-0.3018484,0.0812759-0.4417934-0.0269957c-0.2135515-0.2030144-0.474247-0.3684664-0.606411-0.6372433
		C10.8099842,9.6441555,10.5338144,9.2066259,10.2576437,8.7690964z"/>
	<path fill="#1F221D" d="M11.086154,10.0816851c0.1954346,0.1953335,0.3908691,0.390667,0.5863056,0.5860014
		c0.0395937,0.0284452,0.050663,0.0536823,0.0333462,0.0758018c-0.0160112,0.0204535-0.0317707,0.0307312-0.0474291,0.0307312
		C11.4279203,10.5711031,11.0978279,10.4375544,11.086154,10.0816851z"/>
	<path fill="#1B231A" d="M11.9220915,11.7593603c-0.1683455-0.0055113-0.2687674-0.1122055-0.3738012-0.2120323
		c-0.0599422-0.0637894-0.175683-0.0985823-0.1327353-0.2158394C11.7167978,11.3416681,11.8730049,11.4969349,11.9220915,11.7593603
		z"/>
	<path fill="#8104E3" d="M10.5781574,11.5394497c0.0487499-0.1783895,0.0975018-0.3567801,0.1462545-0.5351706
		c0.1134501-0.1031885,0.2241526-0.102746,0.3319445,0.0074368c0.010046,0.0305042,0.0148706,0.0616903,0.014472,0.0935612
		C10.7501173,11.0999517,10.8743734,11.5212879,10.5781574,11.5394497z"/>
	<path fill="#381B50" d="M11.6583767,10.7742195c0.0031595-0.0356894,0.0078583-0.071208,0.0140896-0.1065435
		c0.1477623,0.057168,0.2888813,0.1474657,0.4619436,0.07831C11.9993076,11.090951,11.8325558,10.9853735,11.6583767,10.7742195z"/>
	<path fill="#8104E3" d="M11.415555,11.3314886c0.0442533,0.0719423,0.0885077,0.1438856,0.1327486,0.2158337
		c-0.2783499-0.0374393-0.4379444-0.1833305-0.4759064-0.4403067C11.1867828,11.1818399,11.3011694,11.2566643,11.415555,11.3314886
		z"/>
	<path fill="#401668" d="M11.0563564,11.0117159c-0.1106653-0.0024986-0.2213287-0.0049973-0.3319693-0.0074663
		c-0.0200129-0.0986786,0.0135565-0.1758108,0.1087027-0.2280998
		C10.9429932,10.8262815,11.0518618,10.8771915,11.0563564,11.0117159z"/>
	<path fill="#1A2314" d="M19.0897846,8.211791c0.2919445-0.4707785,0.3371849-0.9426131,0.0070457-1.41607
		C19.6453323,7.202816,19.6423187,7.8201294,19.0897846,8.211791z"/>
	<path fill="#8502F3" d="M11.3399601,7.9962149c-0.0480757,0.0021129-0.0961523,0.0042257-0.144228,0.0063391
		c-0.3282299-1.1040664-0.3555889-2.198298,0.1614923-3.263936c0.1088629-0.2243533,0.1545172-0.5070047,0.4674444-0.6051202
		c-0.0519981,0.1401448-0.1040201,0.2802873-0.156044,0.4204297c-0.4786043,1.0275254-0.5690603,2.0851235-0.2975721,3.1727643
		C11.3927698,7.8136921,11.3910818,7.910398,11.3399601,7.9962149z"/>
	<path fill="#261F2E" d="M11.3399601,7.9962149c-0.2261877-0.9730067-0.3274937-1.9445271,0.0460863-2.9092717
		c0.0724306-0.1870484,0.1148405-0.3883061,0.2825975-0.5329785c-0.0263672,0.5750074-0.4211645,1.0856762-0.3469849,1.6782904
		c-0.0398312,0.6404057,0.0062561,1.2711196,0.2504168,1.8795395c0.0459509,0.0555763,0.0362005,0.1010704-0.0292397,0.1364813
		C11.4752111,8.1642551,11.4075851,8.0802355,11.3399601,7.9962149z"/>
	<path fill="#8E00FE" d="M12.8787918,5.3455119c-0.0393801-0.3231783,0.0910873-0.4863496,0.4700766-0.4466896
		c0.177598,0.0185852,0.3599186,0.0113139,0.5392008,0.0016589c0.5099812-0.0274615,0.7110577,0.1719627,0.6899958,0.6542864
		c-0.0344496,0.7888288-0.0128565,1.5798793-0.0065813,2.3699369c0.0014038,0.1768036-0.0642166,0.3720007,0.1102638,0.5202856
		c-0.3763599,0.3257961-0.7945642,0.3255835-1.064723-0.0005608c0.112854-0.9277182,0.0201159-1.8584776,0.04879-2.7862678
		c0.3213377-0.0537019,0.3480864-0.0490332,0.3512459,0.2791171c0.0047665,0.4950271-0.0053682,0.9904189-0.0040321,1.4856606
		c0.0005398,0.1999002-0.0158033,0.4016647,0.0875254,0.5985203c0.0652218-0.8066521,0.077487-1.6143446,0.0402584-2.4220405
		c-0.0119305-0.2588639-0.2054882-0.3402405-0.4655962-0.2775517c-0.1541443,0.0371513-0.2819929,0.1373572-0.4400835,0.1709585
		C13.0992022,5.4782162,12.8944311,5.6044207,12.8787918,5.3455119z"/>
	<path fill="#8104E3" d="M13.7239876,5.5669894c0.0003033,0.785881,0.0040369,1.5717821-0.0017166,2.3576255
		c-0.0012903,0.1763506,0.0617533,0.3696175-0.1053219,0.519846c-0.0099173-0.9539862-0.0199108-1.9079409-0.0299044-2.861896
		c0.0212297-0.0144463,0.0424585-0.028893,0.0636873-0.0433393C13.6751499,5.5484805,13.6995697,5.557735,13.7239876,5.5669894z"/>
	<path fill="#7C05E2" d="M12.8787918,5.3455124c0.0920401,0.1281362,0.2330685,0.1028137,0.3672142,0.0990577
		c0.1494722-0.0343885,0.3248625-0.135438,0.3620644,0.1189485c0,0-0.0207071,0.0187421-0.0208673,0.0188937
		c-0.07833-0.0013857-0.1565008-0.002924-0.2347107-0.0044169c-0.2079868-0.0643544-0.5430803,0.1507568-0.6059141-0.2328091
		C12.7906113,5.345294,12.8347015,5.3454032,12.8787918,5.3455124z"/>
	<path fill="#5C109A" d="M12.3951397,10.4330244c0.0772038-0.2131767,0.1544075-0.4263525,0.2316055-0.6395235
		c0.0418701,0.0012245,0.0837469,0.0024433,0.1255999,0.0037222C12.8161316,10.0960169,12.694066,10.3065033,12.3951397,10.4330244z
		"/>
	<path fill="#1C221B" d="M11.5428362,8.2482758c0.0096655-0.0455084,0.01933-0.0910168,0.0291176-0.1365032
		c0.1386709,0.1787138,0.2109661,0.3768463,0.2074633,0.5973272C11.6288834,8.5866451,11.5537415,8.4313898,11.5428362,8.2482758z"
		/>
	<path fill="#5C109A" d="M12.6201687,9.7883911c-0.206912-0.0334539-0.3257446-0.1435556-0.3478928-0.3377934
		C12.4451113,9.5137033,12.5573397,9.6295509,12.6201687,9.7883911z"/>
	<path fill="#212121" d="M16.8628387,6.3547163c0.0402203,0.218657-0.1103592,0.4636431,0.1073818,0.6578326
		c0.245533,0.2200313,0.6334248-0.0570307,0.8657131,0.2094765c-0.3698177,0.0264716-0.7421608-0.0285807-1.1106625,0.0920329
		c-0.2040482,0.0667877-0.1345482-0.0993886-0.1091328-0.1971278c0.236393-0.2723651,0.0650597-0.591661,0.1205292-0.8848391
		c0.03759-0.0012522,0.0749264-0.0047841,0.1119347-0.010673C16.8532963,6.265789,16.8580685,6.3102527,16.8628387,6.3547163z"/>
	<path fill="#212123" d="M17.7303448,7.791141c-0.3653393,0.2066736-0.7290745,0.0845017-1.0824184-0.0220218
		c-0.2066078-0.0622869-0.3953762-0.1741123-0.6223335-0.0822349c0.0200253-0.3080378,0.2161064-0.2428279,0.4056664-0.1529775
		C16.8403111,7.7277946,17.2734718,7.8071923,17.7303448,7.791141z"/>
	<path fill="#052B00" d="M17.9488544,7.3292341c-0.0351028,0.0811625-0.0559769,0.1715212-0.1091366,0.2410116
		c-0.058073,0.0759168-0.1595783,0.1082735-0.257473,0.0651979c-0.0426407-0.0187626-0.0888081-0.0749841-0.0921459-0.1169639
		c-0.0114841-0.1443887,0.1054173-0.1691375,0.2282085-0.177146c0.0772934-0.0050402,0.1548538-0.0066509,0.2323112-0.0098171
		C17.9506359,7.3314996,17.9488525,7.3292341,17.9488544,7.3292341z"/>
	<path fill="#212121" d="M16.0313377,7.6812868c-0.0160313,0.0993729-0.0320616,0.1987453-0.0481281,0.2980928
		c-0.0675354,0.0476398-0.1350327,0.0953035-0.2025023,0.1429987c0.0380754-0.1505713,0.0761261-0.3011737,0.1141949-0.4517732
		C15.9403934,7.6741676,15.9858656,7.6777267,16.0313377,7.6812868z"/>
	<path fill="#8104E3" d="M11.7977209,12.0982218c-0.4418755,0.0018673-0.88375,0.0037355-1.3256416,0.0056286
		C10.9130049,11.9150553,11.3549461,11.924078,11.7977209,12.0982218z"/>
	<path fill="#8904E6" d="M16.1290016,4.8971481c0.0008526,0.1870918,0.0017071,0.3741832,0.0025406,0.5612926
		c-0.2029562-0.1560345-0.0922279-0.3662724-0.1131992-0.5537362C16.055191,4.9014144,16.0920639,4.89889,16.1290016,4.8971481z"/>
	<path fill="#8902EF" d="M22.026659,2.8139439c-0.1775646-0.6427147,0.2164726-1.2774414,0.8956642-1.4427572
		c0.6638069-0.1615713,1.3815918,0.2380052,1.5797634,0.8794245c0.1835232,0.5940037-0.2626133,1.2714121-0.9557858,1.4512541
		c-0.6592598,0.1710434-1.3022804-0.2075861-1.5228901-0.8967268c0.2988434-0.1185651,0.4221001,0.1190212,0.5967121,0.2499423
		c0.519413,0.3894448,0.8756065,0.3749394,1.2247181-0.0520232c0.3203106-0.3917432,0.2186489-0.8208644-0.242775-1.1428592
		c-0.3569603-0.2490947-0.6393814-0.1121477-0.902565,0.1169989C22.4230042,2.2179306,22.2473583,2.5323753,22.026659,2.8139439z"/>
	<path fill="#9501F9" d="M21.3122025,1.579573c-0.1821957,0.2301772-0.3567562,0.387557-0.6141739,0.0531198
		c-0.1090565-0.141688-0.2519188-0.2992775-0.4942913-0.258678c-0.1093159-0.0505664-0.2185955-0.1011502-0.3278809-0.1517351
		c0.0223961-0.095675-0.1183338-0.2735425,0.0382061-0.2786216c0.5544605-0.0179902,1.1109524,0.0084286,1.6659775,0.0319316
		c0.0384064,0.0016264,0.0711021,0.1172222,0.1064625,0.1798375C21.5617428,1.2968224,21.4369736,1.4381979,21.3122025,1.579573z"/>
	<path fill="#9A00FE" d="M23.8520794,4.9024863c-0.0428238,0.0001335-0.0856438,0.000267-0.128458,0.0004106
		c-0.0403309-0.0001416-0.0806713-0.0002923-0.1210098-0.000443c-0.1997013,0.0013008-0.2026901-0.0868931-0.116188-0.2158008
		c0.2054939-0.0010533,0.3989334-0.022193,0.4741001-0.2404437C24.2979145,4.6733036,23.8791676,4.7485666,23.8520794,4.9024863z"/>
	<path fill="#8000FD" d="M23.4864235,4.6866531c-0.002079,0.0904975,0.0215187,0.1693125,0.116188,0.215796
		c-0.1611023,0.2214098-0.3222027,0.4428163-0.4833164,0.6642208c-0.1400375-0.0824308-0.1141815-0.2135148-0.1167355-0.3362646
		c0.1195412-0.1655712,0.0003815-0.4181833,0.2339611-0.542172C23.3198223,4.6877069,23.4031219,4.68718,23.4864235,4.6866531z"/>
	<path fill="#9A00FE" d="M23.2365208,4.6882334c-0.046854,0.1921172-0.0748539,0.3911095-0.2339859,0.5422244
		c-0.0040989-0.1209555,0.0154724-0.2489614-0.117424-0.331265C22.7703323,4.5023885,23.1177998,4.7562952,23.2365208,4.6882334z"/>
	<path fill="#8100FB" d="M11.1959286,8.4456949c0.2478285,0.4792671,0.5618963,0.9207964,0.9233322,1.3325357
		c0.1352873,0.1541176,0.1668682,0.2751169-0.0046368,0.4241323c-0.1885691,0.1638403-0.3337679,0.0826015-0.4521189-0.0590734
		c-0.6695967-0.8015556-1.273365-1.6322346-1.3104563-2.694519c-0.2177668-0.5535827-0.3795404-1.1071677-0.0000772-1.6607742
		c0.0427589-1.3897882,0.7719688-2.4663217,1.8278465-3.3962657c0.2008581-0.1769021,0.3780184-0.1745474,0.5678167,0.0088646
		c0.2153301,0.2080834,0.0297098,0.332278-0.112586,0.4559939c-0.7491102,0.6513004-1.3389168,1.3941491-1.6709824,2.3050954
		c-0.3139486,0.8612385-0.2709522,1.7319183-0.0426025,2.5833864C10.980442,7.9649873,10.9835358,8.255394,11.1959286,8.4456949z"/>
	<path fill="#8501F7" d="M10.3519716,5.7879963c-0.1498241,0.5535994-0.0600977,1.1071887,0.0000811,1.6607766
		c-0.1508589-0.0632076-0.0753536-0.2336535-0.196969-0.3403111c-0.1644592,0.4671345,0.1297569,0.8950801,0.0771217,1.3361993
		c-0.5145493-1.1303201-0.527422-2.2773929-0.1359053-3.4379926c-0.0000153,0.3307896-0.0000153,0.6615987-0.0000153,1.0675077
		C10.2181625,5.9377632,10.2850676,5.8628798,10.3519716,5.7879963z"/>
	<path fill="#8100FA" d="M8.6729527,11.3244829c-0.4894733-0.0053606-0.9670978-0.396678-0.9645481-0.7902527
		c0.0023746-0.3667011,0.5516367-0.8617029,0.9596272-0.8648281c0.4835863-0.003705,0.9602852,0.3804274,0.9414158,0.7586107
		C9.5805559,11.0071125,9.2424994,11.3307219,8.6729527,11.3244829z"/>
	<path fill="#8100FA" d="M7.4552479,10.7740946c-0.116178-0.1495018-0.1129322-0.2999811-0.0043817-0.4513397
		C7.6335764,10.4717007,7.6335659,10.6221647,7.4552479,10.7740946z"/>
	<path fill="#8100FB" d="M13.6080704,5.5635185c-0.0871868-0.126029-0.2314777-0.1048675-0.3621216-0.1188436
		c0.188777-0.3667645,0.5480509-0.386723,0.8867331-0.2965856c0.3457117,0.0920095,0.182024,0.4062443,0.1875086,0.6200209
		c0.0192719,0.7509179,0.0118551,1.502552,0.0036011,2.2538109c-0.0016232,0.1477861,0.0804749,0.3801785-0.1881523,0.3899736
		c-0.2684412,0.0097885-0.2886219-0.2075291-0.2882729-0.3976612c0.0012789-0.6961036-0.0045824-1.3925047,0.0184183-2.0880642
		c0.0051212-0.1548653,0.0576544-0.2881818-0.1417818-0.3591843C13.6853123,5.5668159,13.6466742,5.5656586,13.6080704,5.5635185z"
		/>
	<path fill="#8100F8" d="M22.026659,2.8139439c0.0515347-0.4685209,0.6690769-1.2228504,1.128624-1.2768978
		c0.3557034-0.041834,0.6093731,0.226199,0.8222027,0.4596329c0.245985,0.2697939,0.3362961,0.5934294,0.1366959,0.9206783
		c-0.4245777,0.6961069-1.0812397,0.7657406-1.6653881,0.1724386c-0.1262779-0.1282589-0.2519627-0.2292349-0.4253349-0.284698
		C22.0234108,2.8051383,22.026659,2.8139439,22.026659,2.8139439z"/>
	<path fill="#8500FE" d="M20.5587769,1.2116765c0.2168655-0.0429558,0.4488564-0.179545,0.5806999,0.0553806
		c0.0270615,0.0482206-0.0456848,0.1967598-0.1115456,0.2269616C20.7301731,1.6305549,20.7216625,1.3163165,20.5587769,1.2116765z"
		/>
</g>
</svg>
