<?xml version="1.0" encoding="utf-8"?>
<!-- Generator: Adobe Illustrator 24.1.1, SVG Export Plug-In . SVG Version: 6.00 Build 0)  -->
<svg version="1.1" id="Слой_1" xmlns="http://www.w3.org/2000/svg" xmlns:xlink="http://www.w3.org/1999/xlink" x="0px" y="0px"
	 viewBox="0 0 32 13" enable-background="new 0 0 32 13" xml:space="preserve" width="32px" height="13px">
<g>
	<path fill="#212122" d="M25.3535461,0.9647533c0.7393131,0.7928883,0.8728027,1.691654,0.3579655,2.5953443
		c-0.8837395,1.5512209-1.8235378,3.0763187-2.8322964,4.5635233c-0.0838509,0.0545168-0.1715794,0.0601692-0.2630672,0.0178232
		c-0.0001717-0.4682198,0.0309925-0.9307618,0.2949734-1.3500991c0.1644058-0.2077789,0.3903637-0.3697486,0.5289631-0.5972891
		c0.3419971-0.5349164,0.6200924-1.1050439,1.042448-1.5959325c-0.0624943,0.0644107-0.1341724,0.0976911-0.2285576,0.0791903
		c-0.4740257-0.2196231-0.9210014,0.0261974-1.3787174,0.0748119c-0.0245743,0.0026097-0.0163059,0.0986214-0.0130043,0.1524997
		c0.0071201,0.1282177,0.0023575,0.2536716-0.0849972,0.3623929c-0.1937199,0.1119571-0.2299843-0.0446291-0.2802315-0.1489277
		c-0.1010399-0.2097397-0.1312008-0.4449091-0.2689133-0.6420546c-0.2865505-0.2495484-0.4484863-0.5764942-0.6445427-0.8811677
		C21.47365,3.424053,21.3687057,3.2375033,21.6418114,3.0972848c0.4164104,0.1234803,0.4983654,0.5783558,0.8716316,0.7443259
		c0.1026115,0.0949318,0.0965004,0.2519691,0.2245693,0.3325851c0.0852165,0.0363097,0.1751308,0.0588713,0.2649231,0.0821905
		c0.1946182,0.0615764,0.386116,0.0482445,0.5759621-0.018558c0.4430466-0.1609406,1.2378178-1.2495039,1.236105-1.6947701
		c-0.0020599-0.5351593-0.6589203-1.2548798-1.3132-1.4630066c-0.3949375-0.1256301-0.6782112,0.0825831-0.9690971,0.2509077
		c-0.2649364,0.1533085-0.4401779,0.4044497-0.676981,0.5921003c-0.2506428,0.0926695-0.2666035-0.066833-0.2493649-0.2160494
		c0.0213261-0.1845772,0.1556664-0.3211509,0.2908211-0.4502708c0.0663147-0.0767673,0.2098751-0.0994653,0.2208729-0.2025439
		c0.005497-0.0515265-0.1205101-0.0261127-0.1814651-0.0551657c-0.6780701-0.1884763-1.367775-0.081322-2.0526905-0.072807
		c-0.0576458,0.0007167-0.0773354,0.0670885-0.0675163,0.1250486c0.0165253,0.0760279,0.0208378,0.1479988-0.0628529,0.1959147
		c-0.3936424,0.1206917-0.5041409-0.2107346-0.7179508-0.3776785c-0.9462566-0.3655856-1.9372768-0.4420981-2.9481735-0.3917748
		c-0.2530117-0.0015937-0.5074625-0.0206607-0.7534637,0.0604861c-0.0657654,0.0169575-0.1320887,0.0261188-0.1999693,0.0306985
		c-0.1897459-0.0431663-0.5154705,0.0947673-0.4531755-0.2854534c0.5529051-0.1171646,1.1095123-0.1765582,1.6800194-0.1738803
		c2.2259426,0.0104483,4.4520264-0.0036387,6.6779575,0.0081668C23.9216309,0.1224328,24.7354546,0.3276878,25.3535461,0.9647533z"
		/>
	<path fill="#272728" d="M22.6197052,8.1151533c0.086504,0.0028219,0.1730061,0.0056448,0.25951,0.0084677
		c-0.6598148,1.4820375-1.4737701,2.8573284-2.9823284,3.7761126c-1.1048489,0.672905-2.2957039,1.0723028-3.6333122,1.0698557
		c-2.5267391-0.0046244-5.0535641,0.0064793-7.5802107-0.0087938c-2.1165323-0.0127935-3.3426657-1.815279-2.3603377-3.5408592
		c0.9336305-1.6400361,1.9751372-3.2279916,2.9637437-4.8416824c0.4788599-0.7816405,0.8440781-1.6250348,1.5181189-2.2989771
		c0.4653778-0.4653096,0.9435949-0.9128752,1.5653782-1.2044718c0.431572-0.1466501,0.7830191-0.4810472,1.2843962-0.4641456
		c0.0492105,0.0338085,0.0720797,0.0796716,0.0725508,0.1356353c-0.1851721,0.3355017-0.5808449,0.4102744-0.8906908,0.5759004
		c-1.0946989,0.5851647-1.9153681,1.3997408-2.5169487,2.412221c-0.0948229,0.159591-0.1952496,0.3094785-0.3482437,0.4265864
		C9.0977383,5.4420118,8.3233633,6.7753053,7.5040379,8.0845222C7.2308283,8.5210896,6.923439,8.9400778,6.6873894,9.3963127
		c-0.8383813,1.6204243,0.0970116,3.2885752,2.1054029,3.2335577c1.9169111-0.0525122,3.8389635-0.0578909,5.7552786,0.0060921
		c1.0411005,0.0347595,2.0664139,0.0734949,3.08531-0.1482048c0.9712334-0.2113304,1.8313675-0.6229134,2.5817261-1.2272959
		c0.1447372-0.1244326,0.2938728-0.2452269,0.4333897-0.3750801c0.1364803-0.1181355,0.2697792-0.2396173,0.398716-0.3653641
		c0.3184109-0.2811756,0.5738716-0.5983543,0.6833191-0.9999332c0.0169163-0.0738544,0.0574818-0.1360073,0.1121693-0.190937
		c0.1206341-0.0994892,0.1719418-0.2335434,0.2155972-0.3713455c0.02841-0.0675049,0.068922-0.1287012,0.1138992-0.1874847
		C22.3417854,8.5638685,22.4050236,8.2955418,22.6197052,8.1151533z"/>
	<path fill="#484748" d="M13.6826525,0.6467454c-0.4949102-0.0063929-0.825181,0.4144478-1.3123817,0.4280611
		c1.000493-0.7092918,2.1736212-0.9960847,3.3952808-1.0173331c2.5057802-0.0435828,5.0132074-0.0261886,7.5196848-0.0057176
		c0.8228226,0.0067202,1.5838013,0.2164766,2.0683098,0.9129978c-0.8363838-0.6667921-1.8325806-0.7618829-2.8902092-0.7468588
		c-2.0304642,0.0288436-4.0619411,0.0206609-6.0926247-0.0012608c-0.58848-0.0063527-1.1580877,0.1023277-1.7387323,0.1292677
		C14.3684664,0.5875506,14.0276089,0.6226225,13.6826525,0.6467454z"/>
	<path fill="#202021" d="M16.0367851,0.3302578c1.0935097-0.0761625,2.1569614,0.0339589,3.173708,0.4334953
		c-0.1090069,0.273329,0.1108208,0.4183693,0.3016281,0.5078677c0.4623775,0.2168795,0.8462257,0.516772,1.2125397,0.843684
		c0.0985146,0.0879197,0.1938229,0.1723301,0.2826862-0.0092037c0.1236706-0.0738437,0.256813-0.1152953,0.4048882-0.1131794
		c0.5152054,0.214741,0.209446,0.6620071,0.3316441,0.9886675c0.0001144,0.0603983-0.0214787,0.1134651-0.0639973,0.1593242
		c-0.2933788,0.4275064,0.3341618,0.5537553,0.3543243,0.8975537c0.0081253,0.1385355,0.2272739,0.2665958,0.3503857,0.3994226
		c-0.1884708,0.2823262,0.1544399,0.4885831,0.1268387,0.7583938c-0.021265,0.2078981,0.0420685,0.4232821-0.0176296,0.6348448
		c-0.0187817,0.0537114-0.050705,0.0996442-0.0948257,0.1384749c-0.0604687,0.021152-0.1162033,0.0132113-0.1672192-0.0233235
		c-0.1637917-0.2366419-0.1057415-0.5245681-0.2123623-0.774312C21.9934292,4.99683,21.9166317,4.8363256,21.8440037,4.674849
		c-0.0635128-0.1802497-0.0934258-0.3763227-0.2807159-0.4982872C21.0218296,3.39695,20.5023289,2.6116323,19.6614304,2.045718
		c-0.4622307-0.3110754-0.9982567-0.4641892-1.4744701-0.7327901c-0.1572933-0.1062469-0.3585243-0.1382151-0.5111103-0.2526753
		c-0.4949017-0.2421249-1.0397186-0.2403156-1.5770702-0.2740779c-0.0861053-0.0070749-0.1683416-0.0269843-0.2449179-0.0643852
		c-0.0825548-0.0507662-0.0932055-0.1170799-0.0490456-0.1949113C15.8669128,0.446649,15.9685583,0.405191,16.0367851,0.3302578z"/>
	<path fill="#192411" d="M21.679882,3.1409132c-0.0006199-0.0357344-0.0011406-0.0714698-0.0015583-0.1072066
		c0.011261-0.3991222-0.0398579-0.8035026,0.1185303-1.1902231c0.2086334-0.285893,0.4610233-0.5444324,0.7771969-0.7185255
		c0.7182961-0.3955132,1.6672878-0.0813019,2.1271496,0.6764879c0.4177036,0.688323,0.3551712,1.1395581-0.2253113,1.7447393
		c-0.1091652,0.113811-0.2183266,0.1846316-0.1965694,0.4253561c0.0251713,0.2785101-0.4142475,0.3312354-0.720293,0.3607922
		c-0.1954556,0.0778861-0.3908405,0.07865-0.586153-0.0004454c-0.1161633-0.0014353-0.2323284-0.0028701-0.3484917-0.0043058
		c-0.130188-0.1210012,0.0470047-0.316402-0.1223679-0.4279191C22.0366268,3.8222301,21.9013824,3.4420199,21.679882,3.1409132z"/>
	<path fill="#182413" d="M15.9204578,0.5460833c-0.0406742,0.0337438-0.0813503,0.0674874-0.1220245,0.101231
		c-0.1367245,0.1526931-0.3308573,0.1386341-0.5155115,0.1515854c-0.8830175,0.0595049-1.6690121,0.3671224-2.4051018,0.8001508
		c-0.874258,0.5532203-1.4806747,1.3420622-2.1517696,2.0740166C10.4971561,3.8314507,10.40378,4.0675969,10.297533,4.2977204
		c-0.0739403,0.1601481-0.1142597,0.3500204-0.350378,0.3884835C9.8585567,4.662962,9.7993517,4.6106253,9.7660103,4.5323482
		C9.7970324,4.3512359,9.802886,4.163487,9.926753,4.0063229c0.4303064-0.516011,0.7304497-1.1139243,1.2089357-1.6009185
		c0.714962-0.7276763,1.6019526-1.2241044,2.5489845-1.644403c0.4555035-0.326736,1.0174513-0.2266454,1.5303993-0.3230408
		c0.0390387-0.0003527,0.0780764-0.0004864,0.1171169-0.0004013C15.5449867,0.3970816,15.7780609,0.2635622,15.9204578,0.5460833z"
		/>
	<path fill="#8500FD" d="M19.8115177,1.189821c-0.0409164-0.037372-0.081831-0.0747439-0.1227474-0.1121159
		c-0.1225548-0.2351618,0.0248051-0.2597119,0.2243004-0.2436901c0.5741825,0.1136624,1.1689396-0.0590037,1.7393951,0.1040606
		c0.0473576,0.0390075,0.0772228,0.0879225,0.089613,0.1453577c0.0081425,0.1503574-0.0940456,0.2492375-0.193716,0.3492224
		c-0.0929775,0.0876328-0.1913509,0.1712149-0.2758312,0.2670686c-0.1002102,0.1155149-0.202177,0.2293519-0.3838997,0.2297809
		c-0.0536728-0.0026369-0.1052151-0.0140469-0.1549435-0.0328779c-0.0943413-0.0489155-0.1594906-0.1245254-0.220335-0.2038294
		c-0.0966797-0.1396871-0.2278862-0.2398733-0.4003105-0.2928195C19.994833,1.3513184,19.8735256,1.3062479,19.8115177,1.189821z"/>
	<path fill="#182414" d="M19.8115177,1.1898208c0.1327763-0.0177677,0.2117157,0.0711066,0.3055134,0.1305506
		c0.1598892,0.0361265,0.2667217,0.1341685,0.3532887,0.2559018c0.0665741,0.1280173,0.1533108,0.2417175,0.2775269,0.3286678
		c0.1127529,0.0625134,0.2093372,0.1363555,0.221941,0.2687651c0.0398464,0.0953798,0.2418995,0.1121893,0.1739597,0.2452741
		c-0.0478783,0.0937884-0.1714516,0.0785785-0.2455177,0.0038874c-0.5020657-0.5062898-1.1687851-0.8294066-1.7006683-1.3007922
		c-0.1187229-0.1052175-0.3764648-0.2522675,0.0129395-0.3583421C19.3287716,1.0037551,19.441103,1.2508619,19.8115177,1.1898208z"
		/>
	<path fill="#202021" d="M22.6197052,8.1151533c0.009531,0.3022308-0.2118282,0.5131798-0.3530273,0.7558203
		C22.0336514,8.774106,22.0349941,8.5876884,22.112608,8.421319c0.2481918-0.5319853,0.2801971-1.0914316,0.2953377-1.6560044
		c0.001976-0.073637,0.0488911-0.1317463,0.1093063-0.1791749c0.1160069-0.0457873,0.219923-0.003819,0.324192,0.0371752
		c0.1052513,0.039814,0.1776733,0.1157389,0.2481594,0.1937408c-0.0797291,0.1138949-0.2636757,0.1761084-0.2306671,0.344923
		C22.92766,7.5134335,22.7525768,7.8088918,22.6197052,8.1151533z"/>
	<path fill="#192411" d="M24.2145634,4.6318889c0.2849464,0.026607,0.2153435-0.3164153,0.5899448-0.3991976
		c-0.4514942,0.7411962-0.8482475,1.3925261-1.2450008,2.0438561c-0.1944561,0.0477848-0.2243385-0.094943-0.2823563-0.2056565
		c-0.0206223-0.2122707,0.104948-0.379252,0.203249-0.5549636c0.0710354-0.1014061,0.1625347-0.1872869,0.2498417-0.2762837
		c0.146349-0.1343718,0.232193-0.3025312,0.3113022-0.4746785C24.0803089,4.6997676,24.131855,4.6484995,24.2145634,4.6318889z"/>
	<path fill="#14250E" d="M21.4566498,1.4382519c0.0253086-0.1188804,0.1093998-0.1923947,0.2222309-0.243729
		c0.1593761-0.0795248,0.3108368-0.1371973,0.352541,0.1080985c-0.129488,0.1745541-0.3629932,0.2967159-0.3286457,0.5526921
		c0.0010357,0.0077049,0.0328465,0.0182881,0.0485229,0.0161989c0.0163136-0.0021744,0.0304623-0.01811,0.0455551-0.0280285
		c0.0147381,0.4013053,0.073204,0.8062962-0.1185188,1.1902126c-0.1923771-0.1584129-0.0945721-0.3687932-0.1155968-0.5571668
		c-0.0188828-0.1691763,0.0559998-0.3774338-0.2311192-0.4200685C21.1610947,1.8140659,21.3344288,1.6305335,21.4566498,1.4382519z"
		/>
	<path fill="#8503EC" d="M23.8014698,5.3031006C23.7203979,5.3751082,23.639328,5.4471159,23.55826,5.519124
		c-0.0455379,0.0345702-0.0911732,0.0364723-0.1369324,0.0006552c-0.0949478-0.2425318,0.2170849-0.423244,0.1175232-0.6648054
		c-0.0999126-0.0822248-0.2222004-0.0743208-0.3405724-0.0751381c-0.0874119,0.0079508-0.172184,0.0245733-0.2444172,0.0763502
		c-0.0346279,0.0252366-0.072752,0.0444264-0.1133881,0.0599937c-0.0466747,0.0072689-0.0837669-0.0069604-0.1113281-0.0422268
		c-0.104866-0.1990509-0.1880703-0.4085851,0.1954746-0.358427c0.377243,0.049334,0.7252541,0.0096631,1.0750999-0.1264539
		c0.3154945-0.1227531,0.2578354,0.0750365,0.2148857,0.242837c-0.0281162,0.031323-0.0561905,0.0626659-0.0842667,0.0940094
		C24.0448513,4.9299521,23.9206409,5.1153121,23.8014698,5.3031006z"/>
	<path fill="#15240B" d="M22.3849792,5.8434191c-0.0444336-0.3760114,0.1148376-0.7725716-0.179142-1.1262045
		c-0.0981121-0.1180182,0.0533257-0.2192798,0.1787548-0.279315c0.1322842,0.2821236,0.1623802,0.6008573,0.3632431,0.8584285
		c0.0152645,0.0236926,0.0305252,0.0473852,0.0464916,0.0708213c0.0491333,0.3678412,0.2636948,0.7632322-0.202673,1.0469351
		C22.2281742,6.3141537,22.5004063,6.0194268,22.3849792,5.8434191z"/>
	<path fill="#6D09C2" d="M22.7291451,4.8739529c0.0404358-0.0004501,0.0808697-0.0009007,0.1213055-0.0013509
		c0.1749153,0.1239243,0.2049427,0.3097038,0.2486267,0.4894648c0.0414886,0.1553969-0.0285797,0.3199902,0.0443802,0.4674702
		c0.0622139-0.1390219,0.051527-0.3317671,0.2982426-0.3124928c0.0388489,0.0009007,0.0777035,0.0015941,0.11656,0.0020804
		c-0.0769672,0.1806283-0.1539326,0.3612566-0.2308979,0.5418859c0.0395641,0.0560718,0.0402889,0.1125684,0.0024052,0.16958
		c-0.0997124,0.142519-0.2291241,0.2567863-0.4217377,0.1775112c-0.180521-0.0742979-0.1029758-0.2457352-0.1078186-0.3775597
		c-0.0090046-0.2450762,0.0079556-0.4912653-0.0538979-0.7329578c0,0,0.0014648-0.001214,0.0014935-0.001235
		C22.7416039,5.1555367,22.7353725,5.0147448,22.7291451,4.8739529z"/>
	<path fill="#5F0DA6" d="M19.911911,0.8881222c-0.1475029-0.0096412-0.2300053,0.0454721-0.2231503,0.1895914
		C19.51334,1.003051,19.3234692,0.8049874,19.6237354,0.7946501c0.7608585-0.0261936,1.5320091-0.0911201,2.2920799,0.0407411
		c0.0334034,0.0057946,0.0510101,0.0886701,0.0759735,0.1356406c-0.0614548,0.1309668-0.1325359,0.2184163-0.2605762,0.0488027
		c-0.3790512-0.199698-0.7912025-0.0558397-1.1857395-0.0957822C20.3352699,0.9027719,20.1195679,0.9551941,19.911911,0.8881222z"/>
	<path fill="#1A2413" d="M15.2150726,0.4379606c-0.5101128,0.1076899-1.0202246,0.2153797-1.5303669,0.3230551
		c-0.00068-0.0380542-0.0013256-0.0760942-0.0020123-0.1142022c0.2645588-0.2386287,0.6303997-0.2070397,0.9492111-0.3010271
		C14.8028469,0.502558,15.0194759,0.4138829,15.2150726,0.4379606z"/>
	<path fill="#132603" d="M19.7022686,0.568886c0.6946278,0,1.3892517,0,2.0838795,0
		c0.0002899,0.0183186,0.0005817,0.0366372,0.0008736,0.0549558c-0.6904678,0-1.3809338,0-2.0714035,0
		C19.7111702,0.6055232,19.7067204,0.5872046,19.7022686,0.568886z"/>
	<path fill="#1C2319" d="M21.7947159,1.0825778c0.0658779-0.0371937,0.1317539-0.0743871,0.1973534-0.1115634
		c0.1414165,0.0229331,0.2309456-0.3051894,0.3490791-0.0974686c0.1155891,0.20325-0.1325493,0.3266518-0.309721,0.4290772
		c-0.0843391-0.127624-0.2245998-0.1008644-0.3525467-0.1081002c0.0055065-0.0278054,0.0119171-0.0554336,0.0192299-0.0828844
		C21.7057705,1.0328966,21.7379723,1.0232097,21.7947159,1.0825778z"/>
	<path fill="#192414" d="M23.3088493,6.1355524c-0.008358-0.0279012-0.0021896-0.0527492,0.0185108-0.074543
		c0.0773869,0.0718489,0.1547699,0.1436977,0.2321491,0.2155433c-0.1566353,0.1801686-0.3132687,0.3603411-0.4699039,0.5405083
		c-0.0968094-0.0017843-0.1843071-0.0207586-0.2349796-0.1077218C22.8492393,6.4130187,23.3009262,6.422956,23.3088493,6.1355524z"
		/>
	<path fill="#1A2413" d="M15.9204578,0.5460833c-0.1645651-0.1807953-0.3901167-0.0817751-0.5882626-0.1085217
		c0.2062807-0.1946424,0.469429-0.0732884,0.7046032-0.1073113C16.0353851,0.4192513,16.0150375,0.4995995,15.9204578,0.5460833z"/>
	<path fill="#202021" d="M22.9728737,4.3318877c0.1953964,0.0001354,0.390789,0.0002713,0.5861683,0.0004263
		C23.3635006,4.4898314,23.1681156,4.4901199,22.9728737,4.3318877z"/>
	<path fill="#202021" d="M22.5020142,3.8996632c0.2839127,0.0838666,0.1155834,0.2770789,0.1223106,0.4279492
		C22.4437237,4.2187972,22.5204525,4.0477128,22.5020142,3.8996632z"/>
	<path fill="#212121" d="M9.926753,4.0063229c0.0114784,0.1893654-0.0065489,0.373239-0.1186504,0.5396047
		c0.0067825,0.1678791,0.0296469,0.3373523-0.056716,0.4963593c-0.1476231,0.206429-0.1339273,0.4405966-0.1391735,0.6724234
		c-0.0187607,0.8290639-0.2274904,1.6550875-0.045475,2.4873943C9.5492973,8.2567177,9.5184879,8.3044939,9.4762583,8.3451195
		C9.4483061,8.3516226,9.4193497,8.3584976,9.3916826,8.3656082C9.365983,8.3557892,9.338994,8.3457346,9.3125029,8.3366699
		C9.0042133,7.961256,9.1019316,7.4755254,8.9090586,7.0722942C8.8288555,7.091392,8.7809019,7.1675158,8.6933899,7.1702557
		C8.6448021,7.1549649,8.6073608,7.128324,8.5785685,7.0895176C8.521946,7.0690575,8.5470171,6.917706,8.508462,6.9828229
		c-0.2779312,0.4694095-0.5213985,0.956193-0.9014997,1.3695655c0.1175113-0.1064911,0.190043-0.2718382,0.4003677-0.2508688
		C8.1464863,8.1818285,8.093626,8.3028231,8.087594,8.4139099c0.0208817,0.1113071,0.1302166,0.1194277,0.2148237,0.1557846
		c0.0484324,0.0205603,0.0881939,0.0506458,0.1202869,0.089488c-0.0058823,0.2233372-0.2490816,0.2141218-0.37117,0.3236103
		c-0.1720262,0.532485-0.77986,0.7976704-0.9545598,1.3274431c-0.095974,0.158536-0.0962987,0.3170633,0.0001841,0.475668
		c0.2092714,0.4800911,0.5837736,0.8239717,1.0558,1.0872841c0.0485992,0.0212212,0.095788,0.0447302,0.1433678,0.0672741
		c0.5705242,0.1493654,1.0181789-0.0505962,1.4219027-0.4053001c0.1173954-0.1031408,0.2761564-0.2767782,0.4389-0.1443663
		c0.1702118,0.1384869-0.0115509,0.2863426-0.1080256,0.4138756c-0.0170555,0.103056-0.355382,0.1464815-0.0636845,0.3061037
		c0.0991373,0.0678358,0.1907911,0.1427679,0.2928391,0.2056742c0.6474123,0.1485376,1.2941074,0.1446304,1.9400063,0.0028467
		c0.1164207-0.0794458,0.244875-0.1423674,0.3613539-0.2194691c0.0162888-0.2818928-0.2791595-0.3168869-0.43538-0.4580984
		c-0.1890812-0.1709166-0.3798628-0.324131-0.1007242-0.5591736c0.1016541-0.0735083,0.1970844-0.1529636,0.266242-0.2559423
		c0.1660242-0.271244,0.5123405-0.4148703,0.6086617-0.7338524c-0.0128155-0.1445284-0.0922089-0.2632408-0.1746044-0.3811197
		C12.2729626,9.244256,11.9280624,8.7051668,11.660037,8.120657c-0.3344784-1.0514154-0.4813967-2.0987625,0.071394-3.1325212
		c0.0774851-0.0606694,0.1664438-0.0789614,0.2647419-0.0583787c0.1801472,0.0903039,0.1663418,0.2592759,0.1965322,0.4099026
		C12.20401,5.4322643,12.25741,5.5020313,12.338418,5.5563459c0.0575676,0.0438275,0.0981951,0.0980363,0.1201801,0.1638803
		c0.0265446,0.238822,0.3699446,0.2500196,0.4094658,0.4806685c0.0836649,0.6002316,0.0165701,1.2026033,0.0425177,1.803103
		c0.0081558,0.1888161-0.0574512,0.393671,0.1128845,0.5548935c0.054225,0.0246925,0.1102467,0.0412712,0.170948,0.0469885
		c0.0632334,0.0022545,0.1252613,0.0049791,0.1881733,0.0062246c0.1365814,0.0004368,0.2731295-0.0074644,0.4078836,0.0023165
		c0.3877058,0.0281458,0.5677929-0.1070023,0.5595827-0.4881287c-0.0230455-1.0698566,0.0182152-2.140348-0.0231705-3.2092786
		c-0.0468063-0.1707797-0.1845655-0.2209587-0.3552313-0.2192254c-0.5637798,0.0057278-1.1360025-0.0768466-1.6811752,0.1330819
		c-0.1375237,0.0127759-0.2504253-0.0221629-0.3203125-0.1400342c-0.0862188-0.2064357-0.0078087-0.3846059,0.1175709-0.5521321
		c0.7884331-1.053463,1.8126278-1.7448003,3.2561331-1.7912796c1.0007973-0.0755377,1.9696026-0.0438058,2.8966217,0.4113305
		c1.1584759,0.5687733,1.8838158,1.4010577,2.2042961,2.5752735c0.1640339,0.600997,0.2617016,1.1920576,0.1937752,1.8059611
		c-0.0994759,0.2221112-0.1631088,0.5324125-0.5072327,0.1877103c-0.0426025,0.0101471-0.0663719,0.0328021-0.0690594,0.0762105
		c-0.0290756,0.2372222,0.0571995,0.4896894-0.1301861,0.6979299c-0.0546169,0.0522022-0.1170654,0.0934792-0.1931133,0.1143284
		c-0.0944405,0.0306482-0.2072392,0.0342875-0.2534733,0.1397915c-0.0292988,0.0668554,0.0415363,0.0977802,0.0326538,0.0261583
		s0.0971584,0.0225706,0.0420704-0.0300035c0.1150303-0.1148272,0.2913475-0.1477175,0.3947926-0.2717409
		c0.4313622-0.0935001,0.3730392,0.1202965,0.2407207,0.3438635c-0.2594357,0.4383545-0.557579,0.855731-0.9163933,1.2311869
		c-0.2237682,0.2341509-0.2460938,0.4225655-0.0219402,0.6925755c0.3135319,0.3776722,0.7040615,0.6515684,1.1259346,0.9031897
		c-0.9587822,0.9636869-2.1981735,1.4590034-3.5675507,1.4921417c-2.8070002,0.0679264-5.6175089,0.0391817-8.4261475,0.0124483
		c-1.3209195-0.0125732-2.2853136-1.0440931-2.1616139-2.4165277C6.31598,9.3633738,6.9973931,8.6713123,7.452136,7.8755021
		c0.704915-1.2336149,1.4956388-2.4256582,2.2438173-3.638545C9.7563953,4.1389742,9.8146095,4.053689,9.926753,4.0063229z"/>
	<path fill="#202021" d="M20.0338154,7.141489c0.1976013-0.1577768,0.1963291-0.0109539,0.2384605,0.1188388
		c0.0790806,0.2436175,0.1594238,0.1016283,0.2317867-0.0103474c0.2374001-0.3490882,0.0666771-0.7352509,0.1181221-1.1012425
		c0.0262032-0.1864009-0.0827694-0.4037933,0.1483345-0.5432324c0.2147446,0.0592618,0.2312527,0.2295241,0.2372856,0.3882885
		c0.0271893,0.7156816,0.0598793,1.4331498-0.236269,2.1180701c-0.3178024,0.6107035-0.6225739,1.230444-1.1961365,1.6878395
		c-0.1169052,0.0734558-0.2405701,0.1442938-0.1506271,0.3054523c0.0594254,0.0966072,0.1432724,0.1760788,0.2111244,0.266139
		c0.0972519,0.1267252,0.1735535,0.2728882,0.3582096,0.314024c0.8963642-0.4584446,1.2524014-1.2822485,1.65662-2.0697174
		c0.0904903-0.1762877,0.1141434-0.3795481,0.2056656-0.5595455c0.2486553-0.3255525,0.2455196-0.7130837,0.314806-1.0829873
		c0.1338577-0.3293047-0.0677338-0.7178674,0.2130852-1.0205336c0.000227-0.0363655,0.0004578-0.072731,0.0006924-0.1091065
		c0.2223015,0.1274962,0.0110683,0.4140325,0.23452,0.5411153c0.0621738,0.0721855,0.0621853,0.1444039,0.0001373,0.2166562
		c-0.1176472,0.7565985-0.2352962,1.5131979-0.3529491,2.2697849c-0.0392227,0.036376-0.0784416,0.0727634-0.1176567,0.1091518
		c-0.1248245,0.1227188-0.1173115,0.3062067-0.2345829,0.4323931c-0.0390453,0.0360174-0.0780945,0.0720329-0.1171417,0.1080494
		c-0.1632957,0.3563805-0.4130993,0.6633625-0.6566982,0.9738464c-0.1488895,0.1312017-0.2896576,0.2689199-0.4012146,0.429739
		c-0.0777874,0.1466627-0.1968746,0.2552757-0.3560143,0.3270216c-0.4753857-0.050437-1.3621655-0.7384243-1.495142-1.1544027
		c-0.053957-0.1687813,0.0632267-0.26334,0.1608524-0.37642c0.3741798-0.4334106,0.7219563-0.8828707,1.0399742-1.3546877
		c0.1790962-0.2657127,0.0346737-0.2549629-0.1726551-0.2506552c0.0521355-0.3231025-0.1173248-0.6687875,0.1171894-0.9733024
		c0.1070004,0.2157178,0.0541267,0.4364195,0.0468636,0.5226898C20.0629349,7.5788403,20.1533604,7.3569231,20.0338154,7.141489z"/>
	<path fill="#212121" d="M21.0917225,10.4938812c0.1472607-0.3783855,0.386179-0.700532,0.7055759-0.9733009
		c0.0263271,0.5048904-0.3210335,0.8034115-0.7055759,1.081398c-0.0357704-0.0240211-0.0476665-0.0480318-0.035778-0.0720682
		C21.0678177,10.5059032,21.0797157,10.4938812,21.0917225,10.4938812z"/>
	<path fill="#202021" d="M21.0917225,10.4938812c0,0.0360327,0,0.0720654,0,0.1080971
		c-0.0760651,0.1457119-0.1945972,0.252121-0.3523369,0.3222132C20.7490158,10.7060099,20.9041615,10.5887136,21.0917225,10.4938812
		z"/>
	<path fill="#212121" d="M21.914444,9.4125299c-0.0109959-0.185091,0.0209389-0.3504677,0.2345867-0.432395
		C22.159893,9.1651649,22.1281681,9.3306341,21.914444,9.4125299z"/>
	<path fill="#313131" d="M18.2698555,1.1947335c0.4532604,0.3024788,1.0069523,0.416908,1.4692039,0.7309964
		c0.8604393,0.5846459,1.3948574,1.3832356,1.9379749,2.1891322c0.1205387,0.1554513,0.1593056,0.3363037,0.1908569,0.519484
		c0.0761261,0.2572346,0.091898,0.5305276,0.2436562,0.7683005c0.0202808,0.0555906,0.0309448,0.1119881,0.0331993,0.170404
		c0.0645561,0.6359935,0.0570412,1.2710032-0.0103512,1.9059305c-0.0156994,0.0955477-0.0745449,0.1689987-0.1422825,0.238059
		c-0.105051,0.0705066-0.2086391,0.1524343-0.3450432,0.0543785c-0.0888786-0.1556296-0.0305882-0.3170915-0.0175228-0.4760575
		c0.1188316-1.4458504-0.1977558-2.7822957-1.1492996-3.9677215c-0.9204941-1.1467395-2.139761-1.8038918-3.6862526-1.9319257
		C16.6101112,1.3804902,16.4445686,1.3619534,16.34132,1.201737c-0.0320511-0.08788-0.0235195-0.1711134,0.0326691-0.2492198
		c0.2919426-0.1942027,0.6169643-0.0461779,0.9244919-0.075892c0.0612125,0.0025502,0.120388,0.0152004,0.1768646,0.036963
		C17.7039967,1.092851,17.9850197,1.14834,18.2698555,1.1947335z"/>
	<path fill="#232323" d="M21.9147301,7.6824236c0.0390797-0.0361209,0.0781593-0.0722413,0.117239-0.1083627
		C22.1299839,6.85322,22.1296558,6.13237,22.0321865,5.4115124l0.0001431,0.0001802
		c-0.078392-0.0969677-0.076067-0.2021046-0.0372372-0.3109546c0.0470753-0.047224,0.0985641-0.0516686,0.1544151-0.0133419
		c0.0940475,0.2819691,0.14571,0.5688286,0.1178894,0.8648586c0.0924606,0.3605113,0.0923214,0.7210126-0.0001259,1.0815058
		c-0.0056171,0.3911233,0.0517139,0.7995334-0.3509121,1.0816379C21.7686253,7.9715424,21.8141899,7.8270702,21.9147301,7.6824236z"
		/>
	<path fill="#291F32" d="M15.2183619,0.6576914c0.1933861-0.0034124,0.3867731-0.0068247,0.5801163-0.0103071
		c0.0798883,0.0021291,0.1598206,0.0043281,0.2397528,0.0065271c0.076683,0.0503,0.1656246,0.0883731,0.2064495,0.1746308
		c0.0360947,0.3456609,0.1013317,0.6906257,0.0398006,1.0398712c-0.0356808,0.1524408-0.1328411,0.2621942-0.2782612,0.338377
		c-0.0546827,0.0289893-0.113265,0.0495718-0.1743698,0.0639832c-0.2139874,0.0399306-0.4306059,0.0373821-0.647687,0.0301642
		c-0.1236143-0.0100317-0.2414246-0.0346854-0.3338432-0.1183596c0.0034256-0.273313,0.2470684-0.237395,0.4222307-0.2583661
		c0.3259287-0.0390211,0.5973692-0.0693393,0.6202688-0.4809645c0.0225286-0.4049537-0.1791143-0.547311-0.5589743-0.5895497
		c-0.0368614-0.0040988-0.0694151-0.0307172-0.1019487-0.0515793C15.1819124,0.7574499,15.1775923,0.7092813,15.2183619,0.6576914z"
		/>
	<path fill="#212122" d="M16.1562538,0.7620605c-0.0393429-0.0360487-0.0786877-0.0720974-0.1180267-0.1081476
		c0.6074142,0.0169631,1.2247257-0.0113502,1.7620316,0.3261642c-0.1178093,0.0792899-0.2350864,0.069555-0.3519974-0.0017724
		l0.0000973,0.0000602c-0.3430328-0.0958279-0.7034359-0.0547188-1.0513935-0.1127511
		C16.3013649,0.8611584,16.2251873,0.8187258,16.1562538,0.7620605z"/>
	<path fill="#261F2D" d="M21.4566517,1.4382519c-0.0417175,0.206092-0.0834351,0.4121838-0.1250935,0.6182426
		c-0.0857334,0.1299458-0.2290668,0.1095107-0.3617268,0.1171522c-0.0794792-0.0731444-0.1589127-0.146348-0.2383499-0.2195513
		c-0.029747-0.0219121-0.039175-0.0432398-0.028347-0.0640124c0.0106678-0.0204617,0.0211525-0.030707,0.0315189-0.030707
		c0.0277824-0.000787,0.0555534-0.0005001,0.0833111,0.0008605c0.296402,0.1579208,0.3108788-0.0870035,0.3942242-0.2335204
		C21.2936764,1.5638944,21.3751621,1.5010729,21.4566517,1.4382519z"/>
	<path fill="#212122" d="M22.267271,7.0337605c0.0000381-0.3605003,0.0000782-0.7210011,0.0001221-1.0815039
		c0.038969,0.0001035,0.0779324,0.000196,0.1168938,0.000277C22.3312531,6.3116589,22.5066528,6.6917071,22.267271,7.0337605z"/>
	<path fill="#303030" d="M17.4482613,0.9783049c0.1173363,0.0005779,0.2346706,0.001156,0.3520012,0.0017531
		c0.1012096,0.1740245,0.3688622,0.0398217,0.4696064,0.2146757C17.9733429,1.1953593,17.6671028,1.2272475,17.4482613,0.9783049z"
		/>
	<path fill="#212122" d="M21.7974148,4.6538091c-0.0401077-0.1796527-0.0802174-0.3593059-0.1203518-0.5389524
		c0.2774487,0.1059027,0.2347698,0.3313322,0.2379971,0.5396218c-0.019701,0.0137682-0.039402,0.0275359-0.059103,0.0413113
		C21.8364429,4.6818013,21.816927,4.6678052,21.7974148,4.6538091z"/>
	<path fill="#212122" d="M22.1495075,5.0873961c-0.0393028,0.0000267-0.0786057,0.0000534-0.1179066,0.0000796
		c-0.311739-0.0815649-0.1643448-0.2685351-0.1173-0.4324679c0,0,0.0007477-0.0005231,0.0007515-0.0005264
		C22.0668144,4.7650461,22.1306992,4.9158893,22.1495075,5.0873961z"/>
	<path fill="#8902EE" d="M24.2946758,1.94294c0.3960876,0.5893562,0.2588615,1.1958952-0.3589706,1.586657
		c-0.6025314,0.3810856-1.2920742,0.2592957-1.7527275-0.3095708c-0.4287853-0.5295095-0.3162899-1.1157763,0.3065529-1.5975891
		c0.0736885-0.0519329,0.1525021-0.0631096,0.237236-0.0254225c0.1124306,0.2249662-0.1039448,0.3130287-0.2186279,0.4432967
		c-0.3074131,0.34919-0.290123,0.7465303,0.0460682,1.0526206c0.4010086,0.3650985,0.8446503,0.3896568,1.2387638,0.0685709
		c0.54669-0.4453909,0.5600529-0.6505952,0.0751972-1.1378453c-0.1163254-0.1169022-0.2639713-0.2216616-0.2004528-0.4131728
		C24.0193233,1.493979,24.0864563,1.8308946,24.2946758,1.94294z"/>
	<path fill="#8504E2" d="M22.7369041,1.6261203c-0.0824471-0.0012232-0.1648922-0.0024467-0.2473564-0.0036764
		c0.6670551-0.4896718,1.3252068-0.3728079,1.8050938,0.3205029c-0.2451992-0.0403644-0.3379326-0.3314412-0.6163044-0.3173171
		C23.3645554,1.6764522,23.050745,1.6767098,22.7369041,1.6261203z"/>
	<path fill="#8C01F6" d="M10.6486559,3.5783787c0.6106958-0.7581367,1.2667313-1.4764836,2.107523-2.0326939
		c0.1722164-0.1194599,0.3781013-0.1684433,0.5764875-0.2332948c0.5895777-0.1343791,1.1222181-0.5123439,1.780776-0.3523158
		c0.055027,0.0794125,0.0581989,0.1616294,0.0158234,0.2463365c-0.1908941,0.1734934-0.4474621,0.2161591-0.6894512,0.2777492
		c-2.2083883,0.5620667-3.4389811,1.9755441-3.9559155,3.9468184c-0.1770153,0.6750298-0.0400448,1.3974175-0.0420132,2.0982037
		c-0.000452,0.1608496,0.0453396,0.3222661-0.0077362,0.483005c-0.056221,0.0807724-0.1239634,0.1419487-0.2405872,0.1209421
		c-0.2282619-0.1565967-0.2743979-0.401557-0.2828531-0.6250696c-0.035202-0.9305129-0.1312885-1.8683677,0.2204084-2.7729235
		c0.0160542-0.0537763,0.0332804-0.1082458,0.0499525-0.1620178c0.1054249-0.187324,0.1931562-0.3814559,0.2324209-0.5916803
		C10.4600229,3.8314183,10.5235682,3.6896861,10.6486559,3.5783787z"/>
	<path fill="#1D221A" d="M10.6486559,3.5783787c-0.0475044,0.1366434-0.0950098,0.2732868-0.1425152,0.40993
		c-0.0924854,0.1804445-0.113553,0.3878725-0.2468157,0.5529096l0.0068598-0.0080204
		c-0.3641605,0.9692616-0.412344,1.9640784-0.2821054,2.9728899c0.03932,0.3045645,0.1184845,0.597609,0.3189669,0.8507962
		c0.0219822,0.0486822,0.0416183,0.0990934,0.0608625,0.1489067c0.0503597,0.1685953,0.0980597,0.3387918,0.1959467,0.4924793
		c0.0279617,0.0439939,0.051281,0.0897408,0.073348,0.1364164c0.0407019,0.1435127,0.1596317,0.2954025-0.0481119,0.4143934
		c-0.5537539-0.2059765-0.5017176-0.7561512-0.7608824-1.130374C9.7766275,8.3098402,9.7670994,8.1920862,9.7246656,8.0818081
		C9.3787184,7.1372676,9.5771379,6.1808739,9.648674,5.227334c0.1060123-0.185111,0.1256161-0.4060731,0.2784128-0.5721154
		C10.2754803,4.3574519,10.1702824,3.8024244,10.6486559,3.5783787z"/>
	<path fill="#212122" d="M13.3116369,1.401227c-0.185153,0.0481386-0.3703079,0.0962777-0.555459,0.1444372
		c0.7195292-0.5334235,1.5640678-0.7735134,2.4621458-0.8880134c0.0007477,0.0401984,0.0014582,0.0803561,0.0021667,0.1205138
		c-0.0018225,0.1170587-0.0826054,0.1345069-0.1903257,0.146987C14.4288015,0.994824,13.8661623,1.1864021,13.3116369,1.401227z"/>
	<path fill="#112602" d="M9.9270868,4.6552186C9.8864117,4.8336997,9.8457355,5.0121803,9.8050594,5.1906614
		c-0.2024841,0.004559-0.1923332-0.087893-0.1139803-0.2114606C9.7095814,4.8300943,9.637598,4.6602983,9.8081093,4.5459385
		C9.847764,4.5823584,9.8874254,4.6187882,9.9270868,4.6552186z"/>
	<path fill="#7A06D3" d="M21.7947159,1.0825778c-0.0301685,0.0154035-0.0623722,0.0250864-0.0966053,0.0290546
		c-0.2777348-0.2565966-0.6264496-0.0835949-0.9390736-0.1295769c-0.2807484-0.0412931-0.5828629,0.0780589-0.8471317-0.09404
		c0.4797745-0.003078,0.9595661-0.0101193,1.4392967-0.0074391C21.5287819,0.8815683,21.7585278,0.8091417,21.7947159,1.0825778z"/>
	<path fill="#8703E5" d="M21.2121887,1.6267161c0.0269642,0.1372926,0.0521355,0.2933652-0.0881577,0.3750424
		c-0.1437798,0.0837076-0.2331448-0.0379695-0.3059978-0.1415448C21.0092239,1.8679185,21.0835247,1.7084756,21.2121887,1.6267161z"
		/>
	<path fill="#7A06D3" d="M20.3973427,1.5977623c-0.0933952-0.0924761-0.1867886-0.1849523-0.2802467-0.2774098
		c0.2726192-0.0174061,0.420105,0.1122411,0.4794025,0.3454854C20.5123463,1.6871436,20.4382,1.683668,20.3973427,1.5977623z"/>
	<path fill="#202021" d="M20.3973427,1.5977626c0.0664043,0.0226626,0.1328049,0.0453253,0.1991825,0.0680317
		c0.0460262,0.0645539,0.0920792,0.129064,0.1381283,0.193578c-0.0000381,0.031593-0.001049,0.0631558-0.0031013,0.0947078
		C20.5796757,1.8674035,20.4391022,1.7717978,20.3973427,1.5977626z"/>
	<path fill="#212122" d="M22.6196327,6.6012001c-0.0000439-0.0722151-0.0000916-0.1444311-0.0001354-0.216651
		c0.2523041-0.3415852,0.0019073-0.7327795,0.1267776-1.0869532c0.1574402,0.2054892,0.0926476,0.4453726,0.1249619,0.6705308
		c0.0185814,0.1294675-0.081152,0.3144655,0.1198673,0.368165c0.1480312,0.0395446,0.2087898-0.1340532,0.317791-0.2005858
		c0.051651,0.3271966-0.2912788,0.39013-0.4542694,0.5736332C22.7578564,6.7072058,22.6702347,6.6882515,22.6196327,6.6012001z"/>
	<path fill="#212122" d="M23.8014698,5.3031006c0.0116005-0.239634,0.1662636-0.4102397,0.3288937-0.5770864
		C24.1338444,4.9728708,24.0371571,5.1715035,23.8014698,5.3031006z"/>
	<path fill="#9401FA" d="M22.9850388,5.417377c-0.0448322-0.181602-0.0896645-0.363204-0.1345425-0.5447903
		c-0.0000458,0.0000153,0.012207-0.002667,0.012207-0.002667c0.0692425-0.0607343,0.1483307-0.0646281,0.2332993-0.0346446
		c0.1630421,0.1202536,0.2050648,0.2777586,0.169857,0.4333763c0.1218033-0.1587672,0.0361118-0.4840631,0.4105835-0.5058222
		c0.1902485,0.3221483-0.176445,0.4975939-0.2347374,0.7542453c-0.1807995,0.1467962-0.124176,0.4234695-0.3519287,0.5446138
		C22.9497986,5.8613739,23.1103039,5.6197157,22.9850388,5.417377z"/>
	<path fill="#8400FD" d="M23.6764431,4.7628293c-0.1707268,0.1667743-0.1778374,0.4366331-0.4396381,0.5703363
		c-0.0497284-0.156229-0.0983868-0.309094-0.1470451-0.4619594c-0.0190277-0.0682464-0.0467033-0.1364512-0.0011749-0.2050109
		C23.2880821,4.6801562,23.5087585,4.5850606,23.6764431,4.7628293z"/>
	<path fill="#9800FE" d="M23.0885849,4.6661954c0.0177441,0.0682521,0.1304455,0.1360435,0.0011749,0.2050099
		c-0.0757465-0.0004201-0.151495-0.0008416-0.22715-0.0012741C22.8574638,4.7264342,22.9336166,4.6593313,23.0885849,4.6661954z"/>
	<path fill="#8400FD" d="M22.9850388,5.417377c0.1924362,0.1930881,0.0684872,0.4297118,0.1047401,0.6443014
		C22.8750343,5.8716607,23.0262642,5.631279,22.9850388,5.417377z"/>
	<path fill="#1A2314" d="M8.1635847,12.0075121c-0.5599489-0.2555771-0.9779778-0.6299963-1.1759834-1.1886606
		c-0.0877037-0.1806059-0.0876951-0.3612118-0.0000033-0.5418177C7.0875497,9.9665565,7.243268,9.6713467,7.5463386,9.5064774
		c0.2825727-0.153717,0.1949229-0.456193,0.3853278-0.6321106C8.1051369,8.9463701,8.243803,8.7615595,8.41537,8.8184404
		c0.1977253,0.0336943,0.3952427,0.0256739,0.5931559-0.0029001C9.1479187,8.8198595,9.269289,8.8663588,9.3768034,8.9463081
		c0.2621469,0.3332834,0.8082514,0.4661169,0.8183794,0.9781647c-0.0297165,0.045578-0.0726156,0.0749159-0.1284685,0.0886431
		c-0.1166401,0.0123129-0.219697-0.0256834-0.3206663-0.0721893C9.5714712,9.8566628,9.4447613,9.7245693,9.3263254,9.5843287
		c-0.5740557-0.4027367-1.072525-0.3320007-1.62713,0.2329826C7.6721406,9.8592434,7.6415668,9.8989325,7.6104431,9.9381275
		c-0.3385839,0.4160128-0.3422523,0.8261557,0.0245152,1.2296171c0.1460991,0.1707144,0.3313017,0.2861261,0.5625868,0.3370867
		c0.7099237,0.2898884,1.1785603-0.049902,1.597394-0.51721c0.0885534-0.0796709,0.1820774-0.1548796,0.281024-0.2231131
		c0.1560411-0.1818914-0.0300159-0.4716387,0.2302504-0.6202049c0.3354311,0.1113281,0.178009,0.4676857,0.3812304,0.6449986
		c0.0497217,0.1007462,0.0579147,0.2054968,0.0371637,0.3131971c-0.0685091,0.2608109-0.1977987,0.4943399-0.3776855,0.7052383
		c-0.0798721,0.0821362-0.1711597,0.1449442-0.2980976,0.1452684c-0.0907269-0.0220556-0.1605272-0.0578585-0.1233816-0.1623735
		c0.0711012-0.1036997,0.1422014-0.2073984,0.2133026-0.3110971c-0.6038885,0.3709259-1.1370926,0.921525-1.9752569,0.5279474
		c0.2334604-0.1087875,0.4741383-0.0225773,0.7101765-0.0616808C8.6375027,11.9807377,8.3969955,11.8983908,8.1635847,12.0075121z"
		/>
	<path fill="#202020" d="M20.7391262,5.6285443c0.0000248,0.4675775-0.0002728,0.9351554,0.0002708,1.4027324
		c0.0001698,0.1455092,0.031395,0.3172054-0.2353344,0.2187037c0.1042061-1.0019727-0.1284714-1.9578147-0.5966454-2.8447866
		c-0.4486866-0.8500504-1.2738323-1.3263898-2.2039967-1.7125573C16.9119968,2.364069,16.126358,2.4999838,15.33148,2.4917378
		c0.0347767-0.3563244,0.4615755-0.1103728,0.588933-0.3244612l-0.0006294-0.0013342
		c0.5059175-0.2585515,1.0241423-0.0702744,1.5376711-0.0368955c1.0223484,0.1173139,1.720068,0.7134252,2.3786964,1.3674178
		c0.1172256,0.1775537,0.2656345,0.3347349,0.399374,0.5018473c0.1707649,0.2993975,0.3487968,0.5956807,0.4852581,0.9110174
		C20.780756,5.1478786,20.7962379,5.3874893,20.7391262,5.6285443z"/>
	<path fill="#8C01F6" d="M15.7953405,7.1286197c0.0138807-0.0633874,0.0277615-0.1267753,0.0416422-0.1901631
		c-0.0044928-0.1987538,0.1834316-0.3247952,0.2245064-0.5066848c0.0599689-0.1371894,0.14011-0.261734,0.2624779-0.3602648
		c0.3893147-0.3484116,0.673254-0.766109,0.9335175-1.1997905c0.0462666-0.0685034,0.1091175-0.1195927,0.1881886-0.1541052
		c0.055809-0.0140386,0.1126575-0.0178623,0.1701527-0.0146761c0.1678238,0.0258908,0.3378143,0.0413847,0.5073547,0.0336547
		c0.4699917-0.0214286,0.6225224,0.1662765,0.4614601,0.5721536c-0.280077,0.5826297-0.8070011,1.005444-1.1742249,1.5324874
		c-0.0384007,0.0367637-0.0803814,0.0697279-0.1240273,0.1010551c-0.1342545,0.0859985-0.2581329,0.2114511-0.4462337,0.1066804
		c-0.136528-0.2438092,0.0714397-0.40516,0.1759796-0.5847478c0.2299023-0.3949499,0.5243168-0.7527685,0.818079-1.1687284
		c-0.6787205,0.5514259-0.9529305,1.3356018-1.5811596,1.8630443c-0.0442772,0.0316439-0.0922985,0.0575089-0.1427937,0.0798402
		c-0.1047516,0.0395446-0.2103405,0.0748148-0.3243246,0.0298719C15.7559681,7.2198853,15.7591152,7.1733069,15.7953405,7.1286197z"
		/>
	<path fill="#142509" d="M15.920413,2.1672766c-0.0304642,0.3629196-0.4647284,0.105516-0.5889187,0.3244667
		c-1.4320641-0.0859373-3.1655664,1.3077908-3.2905378,2.1629093c-0.0544796,0.1226478-0.1140451,0.242209-0.2334156,0.3254666
		c-0.3946047,1.0808053-0.3196783,2.1614556,0.0012693,3.242023c0.0212221,0.1366119-0.0614061,0.1402617-0.1692657,0.1121063
		c-0.3306284-0.339272-0.4025469-0.7711487-0.4455156-1.192287c-0.1077881-1.0564055,0.0410757-2.0748377,0.6617785-2.999156
		c0.024044-0.0488853,0.0545568-0.0953321,0.0879202-0.1393342c0.1366892-0.1550465,0.2896967-0.3008833,0.362772-0.4966302
		c0.1139984-0.2176564,0.3242283-0.3374341,0.5405617-0.4514952c0.4049959-0.2169383,0.7803221-0.4796472,1.2062798-0.6649494
		c0.3570423-0.2190297,0.7726698-0.1644945,1.1664085-0.2124536C15.4533043,2.1743877,15.6868582,2.1708322,15.920413,2.1672766z"/>
	<path fill="#182411" d="M9.9276295,8.4388666c0.348835,0.2971926,0.2399654,0.8554173,0.7244806,1.0752296
		c0.0852652-0.0258112,0.1568727,0.002389,0.2245665,0.0472908c0.0405788,0.0324755,0.0760565,0.0693426,0.1072941,0.1095791
		c0.1836452,0.325098,0.4920788,0.5690241,0.6871481,0.8869629c0.0682726,0.1938105,0.2248678,0.3106108,0.4134684,0.3997755
		c0.0643444,0.0479927,0.1188278,0.0996218,0.0744505,0.1845188c-0.3196535,0.1492615-0.1378965,0.289547,0.031745,0.3812981
		c0.240901,0.130291,0.4645863,0.2866735,0.5987272,0.4983063c0.1309385,0.2065811-0.0674105,0.1093035-0.1576824,0.0924988
		c-0.244256-0.0670252-0.4535952-0.2137375-0.7067823-0.2610912c-0.0706396-0.0344677-0.1286707-0.0824261-0.1784849-0.1392212
		c-0.1358185-0.2022333-0.3075294-0.3721886-0.5309601-0.4953852c-0.062892-0.0414047-0.1173134-0.0908442-0.1650829-0.1464748
		c-0.0605068-0.0746422-0.1207418-0.1496077-0.2051964-0.204669c-0.0484695-0.0306339-0.1323404-0.0603189-0.1350718-0.0966206
		c-0.0615425-0.8180466-0.7740173-1.3456202-1.077281-2.0546455C9.6229658,8.6651583,9.6276045,8.6150141,9.6438608,8.5654631
		C9.7092714,8.4680271,9.8080654,8.4336882,9.9276295,8.4388666z"/>
	<path fill="#132614" d="M17.3105469,6.7979259c0.3839951-0.5000448,0.7679901-1.0000882,1.1519852-1.5001321
		c-0.0053444-0.1568069,0.1544666-0.2244711,0.2186279-0.3437967c0.0609665-0.1285996,0.1407661-0.2418013,0.2892914-0.2984886
		c0.3180637,0.0495868,0.2509556,0.2014618,0.1237392,0.3781753c-0.209425,0.2909055-0.4127808,0.5855088-0.6222591,0.8836279
		c0.0914097,0.0410471,0.1243458,0.0693731,0.1548691,0.0673232c0.1838531-0.0123506,0.467495-0.1120157,0.4815311,0.1220841
		c0.0145512,0.2426491-0.2903404,0.1430311-0.4641533,0.1655703c-0.2053356,0.0266247-0.4294891-0.0560856-0.6135387,0.0919719
		c0.0415497,0.2256351,0.0604267,0.449471-0.0619011,0.6629186c-0.0428276,0.0469484-0.0955582,0.079865-0.1582184,0.1004252
		C17.548996,7.1395278,17.2383575,7.2137065,17.3105469,6.7979259z"/>
	<path fill="#212122" d="M9.6909809,8.6560345c0.3839817,0.5500698,0.7534227,1.1094971,1.1604204,1.6447535
		c0.1293402,0.1700983-0.3130817,0.4415874,0.1387672,0.5105934c-0.1184406,0.1033783-0.2397089,0.0918598-0.3627682,0.0075598
		c-0.4379501-0.0709877-0.072547-0.505497-0.3476038-0.6501942c-0.1050053-0.041254-0.1834841-0.094883-0.1186991-0.2153502
		c-0.0895166-0.4570189-0.6828127-0.5535526-0.8234272-0.9740076C9.0911779,8.7149534,8.6724463,8.8862467,8.4076109,8.6682119
		C8.3544798,8.6595411,8.3013477,8.6508684,8.2482166,8.6421976c0.1328077-0.3192081,0.4288893-0.1991615,0.6750116-0.2139568
		c0.0543137,0.005434,0.1082125,0.0158701,0.1612196,0.0273876C9.2275171,8.4964676,9.3431787,8.459733,9.4338093,8.3509216
		l0.0349627-0.0277061C9.7509975,8.3165226,9.5710154,8.5710306,9.6909809,8.6560345z"/>
	<path fill="#192311" d="M9.6909809,8.6560345C9.6168528,8.5451212,9.5427256,8.4342089,9.4686852,8.3232555
		C9.4388113,8.1294928,9.4263067,7.9318318,9.3759041,7.7427206C9.1437626,6.8717561,9.5768356,6.0277352,9.497035,5.1624284
		C9.4919052,5.106802,9.6232309,5.040524,9.6910791,4.9792008C9.694437,5.0655432,9.7104664,5.1461043,9.8050957,5.1907253
		C9.6258459,6.1753697,9.5800657,7.1559677,9.9118471,8.1249361C9.7667027,8.2343264,9.8475084,8.4435644,9.6910067,8.5479364
		C9.6910591,8.5839701,9.6910505,8.6200027,9.6909809,8.6560345z"/>
	<path fill="#670BC0" d="M14.5046854,4.7796884c-0.0004034,1.1151171-0.0398169,2.2318559,0.0148563,3.3446822
		c0.0283422,0.57691-0.1931229,0.7467155-0.7644548,0.667078c-0.1727085-0.0240726-0.3489971-0.0264015-0.5236464-0.0386887
		c-0.0544062-0.0523491-0.1237316-0.1095371-0.127286-0.1773891c-0.05054-0.9647827-0.1516562-1.9309134,0.0569744-2.8913088
		c0.0524101-0.0598578,0.1178989-0.0754714,0.1956873-0.047286c0.2332392,0.3049703,0.1267405,0.6538882,0.1379099,0.9843817
		c0.0174179,0.5153427,0.002965,1.0315161,0.0064726,1.5457563c0.0917892,0.3934307,0.1980743,0.4279451,0.6650248,0.2122211
		c0.1374226-0.7710633,0.0264692-1.5456614,0.0621624-2.3168669c0.0174503-0.3769894-0.0400028-0.756578,0.0458345-1.1316829
		C14.3210096,4.841393,14.364481,4.747653,14.5046854,4.7796884z"/>
	<path fill="#152607" d="M14.6812067,8.6865044c0-1.2822676,0-2.5645351,0-3.8468032
		c0.0387211-0.0004811,0.0774441-0.0009627,0.1161652-0.0014439c0,1.2824855,0,2.5649705,0,3.8474555
		C14.7586508,8.685977,14.7199278,8.6862411,14.6812067,8.6865044z"/>
	<path fill="#8600FD" d="M7.9131532,8.4213285C7.9525504,8.317873,7.9919477,8.2144175,8.0313454,8.1109629
		c0.0123215-0.0206881,0.0246439-0.0413752,0.0363541-0.0624266C8.2425194,7.907053,8.3502903,7.7219539,8.4577961,7.5368247
		c0.0985537-0.1364412,0.1577721-0.2954636,0.2809973-0.417798C8.7354069,7.0323052,8.7432241,6.9503269,8.844388,6.907856
		c0.3999252,0.1980925,0.158247,0.5891962,0.2996225,0.8734856c0.0825291,0.1659541,0.0758076,0.3800573,0.193429,0.5497742
		l0.0005836,0.001318c0.0357828,0.1816387-0.0508976,0.2516088-0.242939,0.2255058l0.0038605,0.0009699
		C8.8068266,8.3772306,8.5123482,8.4532261,8.2134552,8.5450678C8.0831852,8.5850954,7.9018092,8.6894951,7.9131532,8.4213285z"/>
	<path fill="#192413" d="M16.3902035,6.1740007c-0.0780182,0.1062808-0.1560364,0.2125626-0.2340546,0.3188448
		c-0.1231213,0.1755753-0.280345,0.3199129-0.4701433,0.434411c-0.2160816,0.2986593-0.2697973,0.6415815-0.2918234,1.0009999
		c-0.236681-0.2205606-0.2355404-0.4696908-0.1044703-0.6870241c0.5926886-0.982759,1.2622023-1.9167695,2.1593065-2.6945362
		c0.0152683,0.0122318,0.0305386,0.0244637,0.0459957,0.0365963c0.0182209,0.0339255,0.0271301,0.0698638,0.0272141,0.1076889
		c-0.0139103,0.0349526-0.0309753,0.0687008-0.051363,0.1010113c-0.0311584,0.0299253-0.0623169,0.0598507-0.0934772,0.089776
		C17.0411587,5.3078775,16.7150612,5.7405372,16.3902035,6.1740007z"/>
	<path fill="#162409" d="M12.9805374,8.7627563C12.657073,8.7121,12.7530661,8.4751501,12.7509842,8.2978725
		c-0.0087519-0.7456222-0.0044861-1.4913735-0.004982-2.2370777c-0.1370802-0.0849571-0.399826-0.0949249-0.2481232-0.3524628
		c0.0789204-0.0586891,0.1706591-0.084321,0.2702923-0.0917916c0.1394348-0.0016017,0.2691326,0.0206432,0.3643312,0.1265993
		c0.0321932,0.0954189,0.0206509,0.1890426-0.0127974,0.2820973c-0.0462246,0.7259765-0.0064316,1.4523754-0.0218172,2.1782866
		C13.0938282,8.3951368,13.1362619,8.597187,12.9805374,8.7627563z"/>
	<path fill="#162508" d="M17.7958813,8.763464c-0.4712219-0.5733252-1.1527748-0.4166222-1.7831936-0.4317274
		c-0.1700525-0.0040741-0.3050013-0.0331888-0.3274221-0.2166824c0.6323328-0.2836876,1.3051805-0.1941447,1.9403162-0.0837355
		C18.0449009,8.1042128,18.008316,8.4623165,17.7958813,8.763464z"/>
	<path fill="#1A2312" d="M8.0313454,8.1109629C7.7337432,8.228323,7.7001944,8.5744257,7.3264866,8.6606264
		c0.399765-0.6520128,0.79953-1.3040276,1.2158813-1.9830937c0.224514,0.1700191,0.0217705,0.3395696,0.0977411,0.4731894
		C8.6344595,7.1733828,8.6288099,7.1960449,8.6234531,7.2188096C8.5516376,7.392581,8.4176359,7.5372624,8.3510408,7.7135191
		c-0.080801,0.1447845-0.1716766,0.2837062-0.2846241,0.4096003L8.0313454,8.1109629z"/>
	<path fill="#152508" d="M12.2699537,12.3402605c0.0274401,0.0658588,0.0656252,0.1865358-0.0046577,0.1873751
		c-0.6619577,0.0079012-1.3242865-0.0013456-1.9861317-0.0181866c-0.0387011-0.0009832-0.0741472-0.1102304-0.1111078-0.169095
		C10.8686762,12.0883636,11.5693083,12.0885611,12.2699537,12.3402605z"/>
	<path fill="#2B1E37" d="M12.2699537,12.3402605c-0.700676-0.0000277-1.4013519-0.0000553-2.1019621,0.0000057
		c-0.1518936-0.0108614-0.2414713-0.080368-0.2503061-0.225667c-0.012496-0.0983763,0.0322752-0.141695,0.1403732-0.1242342
		c0.6392956,0.144928,1.281105,0.1421738,1.9206152,0.022706c-0.015028-0.0761805-0.131937-0.1454449-0.0182076-0.2269754
		c0.3055611-0.0321589,0.5313187,0.0738211,0.6713324,0.328248C12.620326,12.3375759,12.4403772,12.3324633,12.2699537,12.3402605z"
		/>
	<path fill="#1A2412" d="M11.6928959,8.3285255c0.0386219-0.0354567,0.0772429-0.0709114,0.1158886-0.1063747
		c0.3515673,0.5049534,0.7031078,1.0099144,1.0546503,1.5148754c-0.0651932,0.065073-0.148098,0.0844698-0.2406244,0.0796061
		c-0.4640818-0.1504583-0.6084423-0.5445728-0.8082514-0.8969736C11.7746716,8.7228203,11.5867777,8.5509224,11.6928959,8.3285255z"
		/>
	<path fill="#2C1E3A" d="M12.7743444,5.7140398c-0.0869112,0.0080848-0.1738205,0.0161695-0.2607317,0.0242538
		c-0.040554,0.0378499-0.0793276,0.0344906-0.1165724-0.0042615c-0.0404682-0.035315-0.0809374-0.0706301-0.1214056-0.1059446
		c-0.1659718-0.2870135-0.175457-0.5745764-0.003581-0.8627763c0.5299253-0.3187423,1.8615828-0.3102913,2.2326479,0.0142732
		c-0.038271,0.0265546-0.0765257,0.0530066-0.1147795,0.0794582c-0.0207367,0.0173812-0.0414715,0.0347619-0.0620022,0.0521946
		c-0.0559044-0.00246-0.1090946-0.0149913-0.1589203-0.0380945c-0.4961948-0.131783-0.9934597-0.1170325-1.4899521-0.0071611
		c-0.1952038,0.126451-0.1454277,0.3079696-0.1263981,0.4810691c0.0156593,0.0384626,0.032896,0.076602,0.0558548,0.1119137
		C12.6664219,5.5423365,12.7818823,5.5948777,12.7743444,5.7140398z"/>
	<path fill="#630CAA" d="M19.8058758,7.7937689c-0.0181293,0.0484848-0.0341663,0.1385407-0.0546856,0.1394134
		c-0.6102715,0.0259595-0.5666199,0.4223018-0.5473309,0.8058829c-0.4256287,0.1303196-0.8536339,0.1056843-1.2826252,0.016654
		l0.0062904,0.0016956c-0.168808-0.2184229,0.0357857-0.4993715-0.1421165-0.7162285
		c-0.026989-0.0541759-0.0244179-0.107265,0.007021-0.1590042c0.0530949-0.0291057,0.1103477-0.0386157,0.1712418-0.0286398
		c0.2235966,0.0991306,0.19631,0.3026257,0.2358532,0.4776878c0.0759335,0.2529173,0.302021,0.1755476,0.4871788,0.184926
		c0.0732346-0.0104179,0.1454048-0.0226679,0.2011356-0.0739326c0.0837727-0.398633,0.1816311-0.7838507,0.7694721-0.7313824
		C19.7131691,7.7289782,19.7625885,7.7567573,19.8058758,7.7937689z"/>
	<path fill="#7C04E1" d="M17.9199505,7.8950176c-0.0405598,0.0031466-0.0811176,0.0062928-0.1216755,0.0094395
		c-0.7027588,0.159831-1.4046535,0.1747303-2.1053629-0.010582c-0.1275244-0.2733917-0.1503448-0.5349169,0.1024427-0.7652311
		c0.0069494,0.0407867,0.0139141,0.0815983,0.0208797,0.1224098c0.1533852,0.1267676,0.1085739,0.4436827,0.4474297,0.3924165
		c0.4862041,0.0167518,0.9725685-0.0248265,1.4573097,0.026103c0.0624809,0.0131178,0.1194115,0.037261,0.1716118,0.0712128
		C17.9460316,7.7855034,17.955061,7.8369861,17.9199505,7.8950176z"/>
	<path fill="#3B1A5C" d="M13.0950298,5.9530597c0.0016069-0.0783386,0.0032139-0.1566768,0.0048227-0.2350149
		c-0.0127516-0.0459728,0.0028744-0.0813346,0.0468683-0.1060882c0.0225601,0.0060802,0.0451212,0.0121613,0.0676823,0.0182419
		c0.00564,1.0408854,0.0112801,2.0817704,0.0169783,3.1226091c-0.0424356,0.0032492-0.0849276,0.006547-0.1274223,0.0098438
		C12.9997072,7.8263936,13.0118952,6.889822,13.0950298,5.9530597z"/>
	<path fill="#1D231A" d="M13.0950298,5.9530597c0.0029478,0.9365382,0.0058947,1.873076,0.0088863,2.8096032
		c-0.0410852,0.0000315-0.0822144,0.0000753-0.1233606,0.0001059c0.0004864-0.7683721-0.0023832-1.536756,0.0040894-2.3050742
		C12.9860916,6.2858505,12.9222584,6.0956612,13.0950298,5.9530597z"/>
	<path fill="#2A1E37" d="M17.804903,7.9937696c0.2273388,0.2292528,0.0571079,0.5124846,0.1225643,0.7636852
		c-0.0437889,0.0019789-0.0876312,0.0039968-0.1315308,0.006011c0.1213875-0.5591803-0.1541805-0.712059-0.7253056-0.6573029
		c-0.4571609,0.0438309-0.9232426,0.0088787-1.3853655,0.0088911c0.0009346-0.037755,0.0018682-0.07551,0.0028028-0.1132641
		C16.3933125,7.9168553,17.0990219,7.9364648,17.804903,7.9937696z"/>
	<path fill="#132508" d="M17.4490185,4.5466962c0.3205967-0.3142323,1.1001453-0.3112659,1.409481,0.0053635
		c-0.0752182,0.0776477-0.173542,0.111866-0.2817459,0.1278763c-0.3816051-0.0042715-0.7794037,0.1034551-1.1285133-0.1339231
		L17.4490185,4.5466962z"/>
	<path fill="#8005DE" d="M9.3374395,8.3311157C8.9276562,8.0860453,9.1540556,7.654459,8.9973469,7.3313193
		c-0.0636511-0.1312528,0.019803-0.3167028-0.1529474-0.4234362C9.0174332,6.6745768,9.1317101,6.733283,9.1263571,6.9806509
		C9.1163301,7.4439564,9.2810717,7.8794632,9.3374395,8.3311157z"/>
	<path fill="#162408" d="M8.4076109,8.6682119C8.766571,8.6481543,9.1183167,8.6463537,9.3376818,8.9793978
		C9.2203035,8.9437943,9.1029377,8.9081993,8.9855719,8.8726044c-0.1956472,0.0800247-0.3912821,0.0801315-0.5869093-0.000062
		C8.2427778,8.8313818,8.0881348,9.0665617,7.9316192,8.874342C8.0903139,8.8056479,8.2489634,8.7369299,8.4076109,8.6682119z"/>
	<path fill="#540F95" d="M17.804903,7.9937696c-0.7056217,0.0026941-1.4112473,0.0053878-2.1168509,0.0080509
		c0.0016146-0.0359912,0.003212-0.0719523,0.0048351-0.1079288c0.7018251,0.0034785,1.4036245,0.0069733,2.1054049,0.0105166
		C17.8006268,7.9342194,17.8028374,7.9639897,17.804903,7.9937696z"/>
	<path fill="#381A55" d="M18.628849,4.5516567c0.0765476,0.0000997,0.1530972,0.0001998,0.2296467,0.0003505
		c0.0373631,0.034533,0.0747185,0.0690141,0.1120148,0.103498c-0.0745277,0.1090059-0.0777397,0.2600737-0.2267723,0.3250575
		c-0.339592-0.3353181-0.7813721-0.0859876-1.1644897-0.1722808c-0.0350094-0.011764-0.0711422-0.0172024-0.1083908-0.0163026
		c-0.0074158-0.045495-0.0148392-0.0910034-0.0222626-0.1365113C17.8303394,4.5085311,18.246727,4.6949658,18.628849,4.5516567z"/>
	<path fill="#7F06D6" d="M19.8058758,7.7937689c-0.0446777-0.0056734-0.0893574-0.0113468-0.1340332-0.0170202
		c-0.1013889-0.283885-0.3858299-0.3974919-0.6172161-0.5615306c-0.0179863-0.0494032-0.0211487-0.0989032-0.0079117-0.1496639
		c0.0302105-0.0468369,0.0739136-0.0758352,0.1314201-0.0877047c0.059103,0.0014296,0.1098576,0.0203295,0.1511993,0.0594182
		C19.9441338,7.04633,19.8375225,7.440033,19.8058758,7.7937689z"/>
	<path fill="#1A2313" d="M13.0997124,10.0613127c-0.0631151,0.4070215-0.5381031,0.5299063-0.7051773,0.8652096
		c-0.2691851-0.0192356-0.1775446-0.1771049-0.1191225-0.2958422c0.0713463-0.14501,0.1964464-0.2610941,0.3067484-0.3840265
		C12.7348776,10.1389771,12.8392601,9.9141951,13.0997124,10.0613127z"/>
	<path fill="#8005DE" d="M7.9131532,8.4213285c0.1787877,0.2115898,0.366817,0.0288954,0.5216756-0.0179272
		c0.2770224-0.0837603,0.4880934-0.0629053,0.6641169,0.1554642C8.8149881,8.5826321,8.5155058,8.4723406,8.248354,8.6422501
		C8.1147919,8.5964861,7.7530932,8.8438854,7.9131532,8.4213285z"/>
	<path fill="#1A2412" d="M12.2720556,4.7653112c0.0012026,0.2875915,0.0024061,0.5751834,0.0035934,0.8627753
		c-0.0963736-0.0025587-0.1837425-0.0213819-0.2330694-0.1090307c0.0854721-0.1799688,0.108201-0.3597755-0.0016375-0.5392423
		c-0.0778065,0.0000949-0.1556139,0.0001898-0.2334108,0.0002956c-0.0011826-0.1564398,0.0783148-0.263906,0.2334356-0.3254552
		C12.0906029,4.7399478,12.1770382,4.7602139,12.2720556,4.7653112z"/>
	<path fill="#7E05D9" d="M19.0952778,7.0304155c-0.0006065,0.0373592-0.001215,0.074718-0.0018196,0.1120772
		c-0.0959263,0.0323601-0.1486664-0.0184517-0.1936131-0.0842428c-0.0869389-0.1296926-0.0126705-0.3261514-0.2028885-0.4128847
		c-0.1422958-0.0400443-0.2930317-0.027204-0.4359303-0.0621843c-0.0498276-0.0157642-0.093668-0.0401177-0.1316795-0.0736337
		c-0.0251331-0.0468168-0.0185375-0.0895076,0.0194836-0.128087c0.3168755,0.041873,0.6580639-0.1075573,0.9535561,0.1025691
		C19.2534637,6.6678476,19.2530289,6.8499975,19.0952778,7.0304155z"/>
	<path fill="#192414" d="M12.6427794,10.2902021c0.0707636,0.2627974-0.4907579,0.3168058-0.2482462,0.6363182
		c-0.0449409,0.102911-0.1233654,0.1748781-0.2354908,0.2157078c-0.0398912-0.0363579-0.0797787-0.0727119-0.1196651-0.1090651
		c-0.0772867-0.1125383-0.0227003-0.2273216-0.008316-0.3418322c0.0138235-0.0710449,0.03825-0.1385975,0.0781803-0.20119
		c0.0321331-0.0384798,0.0700092-0.0715151,0.1121178-0.1006231c0.1090813-0.0668907,0.2158604-0.1396132,0.3560209-0.1397238
		C12.5991764,10.263154,12.6209774,10.276679,12.6427794,10.2902021z"/>
	<path fill="#1D231A" d="M13.2176638,8.9806623c0.3678427-0.2152166,0.7685719-0.0877867,1.1540937-0.0807953
		c0.1273355,0.0023079,0.1007328,0.1150999,0.0210743,0.1884718C14.0138912,8.9343691,13.5973492,9.1277399,13.2176638,8.9806623z"
		/>
	<path fill="#072900" d="M19.5647335,8.4391432c-0.0120029,0.0888157-0.0134468,0.2077398-0.1184578,0.2251263
		c-0.1555042,0.0257463-0.1021347-0.1076441-0.1111851-0.1813478c-0.0280457-0.2283649,0.0286865-0.3958826,0.3364124-0.3642054
		C19.7598114,8.2604685,19.6155338,8.3366241,19.5647335,8.4391432z"/>
	<path fill="#192414" d="M13.0997124,10.0613127c-0.2062836-0.0149107-0.263195,0.2226477-0.4569597,0.2288685
		c0.0000267,0.000021-0.0149784-0.014163-0.0149784-0.014163c-0.0764933-0.1740141-0.0549622-0.3520479-0.0257025-0.5303984
		c0.0871296-0.0028648,0.1742582-0.0057287,0.2613754-0.0085936C12.942193,9.8451214,13.0209541,9.9532166,13.0997124,10.0613127z"
		/>
	<path fill="#2A1E37" d="M17.9212341,8.7557192c0.4282322,0.0400362,0.8561306,0.0580606,1.2826347-0.0164776
		C18.7797604,8.9690943,18.3516693,8.9387684,17.9212341,8.7557192z"/>
	<path fill="#162409" d="M18.0639992,9.0002546c0.3359318,0,0.6718655,0,1.0077972,0
		c0.000227,0.0183105,0.0004539,0.0366192,0.0006809,0.0549297c-0.3382816,0-0.6765614,0-1.0148411,0
		C18.0597553,9.0368738,18.0618782,9.0185652,18.0639992,9.0002546z"/>
	<path fill="#162509" d="M13.2176638,8.9806623c0.3904104,0.0479841,0.8035192-0.1137352,1.1751623,0.1076746
		C14.0024548,9.0400143,13.5893402,9.2017279,13.2176638,8.9806623z"/>
	<path fill="#052B00" d="M19.5623322,6.603137c0.0481968,0.0897274,0.1616116,0.2132215,0.1315212,0.2624164
		c-0.0708981,0.1159077-0.233532,0.0417933-0.3576202,0.0540667c-0.1422024-0.1156893-0.1311245-0.2498684-0.0558929-0.3917727
		C19.4275379,6.3841009,19.4865761,6.520134,19.5623322,6.603137z"/>
	<path fill="#1B2315" d="M10.035635,12.0055714c-0.039257,0.0363445-0.0785151,0.0726891-0.1178608,0.1090298
		c-0.0848131,0.0193586-0.2133179,0.1365042-0.2430229,0.0445566c-0.0544167-0.1684265,0.0862617-0.2903442,0.2507019-0.3685179
		c0.0500355,0.0397778,0.1000814,0.0795641,0.1501274,0.1193504C10.0875931,11.9508104,10.074276,11.9826698,10.035635,12.0055714z"
		/>
	<path fill="#1F211C" d="M12.3970404,5.7340322c0.0388842,0.0004611,0.0777273,0.0018654,0.1165524,0.0042372
		c-0.0210762,0.1676464,0.1636734,0.2097073,0.23242,0.3225231C12.5319462,6.0402179,12.2317753,6.0974827,12.3970404,5.7340322z"/>
	<path fill="#182414" d="M15.6860056,6.9272566c0.1105776-0.1870661,0.2689085-0.3303862,0.4701414-0.4344091
		c-0.0236435,0.1987219-0.1580191,0.3302932-0.319211,0.4455924C15.7866564,6.9347224,15.73633,6.9309897,15.6860056,6.9272566z"/>
	<path fill="#3F186B" d="M18.1488304,6.3814602c0.0006046,0.0305929-0.00033,0.0611467-0.0028038,0.0916595
		c0.0049095,0.2144766,0.1561127,0.4807806-0.2326298,0.555799c0.018425-0.2245493-0.0760918-0.4659781,0.1172771-0.6645169
		C18.0700378,6.3699946,18.1094322,6.3757277,18.1488304,6.3814602z"/>
	<path fill="#24203D" d="M19.3336945,6.4988837c0.0008011,0.1402779,0.0015984,0.2805562,0.0024662,0.420785
		c-0.0022373,0.0391545-0.0045452,0.0783587-0.0068398,0.1175809c-0.0385952-0.001843-0.0772018-0.0037041-0.1158104-0.0055652
		c-0.0926476-0.1792731-0.0901718-0.3588667-0.002142-0.5387473c0.0380917-0.0350266,0.0761814-0.0700521,0.1142731-0.1050782
		c0.0285168,0.0230312,0.0392075,0.0471535,0.0320988,0.0723758C19.350481,6.4859982,19.342474,6.4988837,19.3336945,6.4988837z"/>
	<path fill="#202021" d="M19.5647335,8.4391432c0.0356693-0.1068354,0.0713367-0.2136707,0.1068859-0.320467
		c0.0815182-0.0011911,0.1631527-0.0024233,0.2447853-0.0036554C19.9126186,8.3272371,19.7143688,8.3608675,19.5647335,8.4391432z"
		/>
	<path fill="#16240B" d="M12.0409431,4.9798136c0.2115498,0.1792188,0.1509705,0.3591294,0.0016279,0.5392547
		C12.0420341,5.3393083,12.0414877,5.1595612,12.0409431,4.9798136z"/>
	<path fill="#8005DE" d="M9.0950842,8.5579395c0.0809793-0.0751715,0.1619577-0.1503448,0.242938-0.2255116
		c0.0326004,0.0032883,0.0645485,0.0094347,0.0958166,0.0184698C9.4357815,8.5790281,9.4022217,8.757925,9.0950842,8.5579395z"/>
	<path fill="#541190" d="M19.2113686,6.4929371c0.0006981,0.1795969,0.0013962,0.3591948,0.0021172,0.5387692
		c-0.039402-0.0004106-0.0788326-0.0007992-0.1182346-0.0012398c0.0023594-0.1821437,0.004694-0.3642354,0.007082-0.546382
		C19.1387882,6.4862385,19.1751137,6.4892073,19.2113686,6.4929371z"/>
	<path fill="#8005DE" d="M8.7387934,7.1190267c0.0442114,0.1983867-0.0200176,0.3568921-0.2046928,0.4711013
		c-0.0207672-0.0158153-0.0415344-0.03163-0.0623465-0.0474272C8.426856,7.37391,8.5520687,7.2654123,8.6390362,7.1433516
		c0,0,0.0010309,0.0073061,0.0010519,0.007338C8.6745539,7.1442385,8.707448,7.1336741,8.7387934,7.1190267z"/>
	<path fill="#1B2315" d="M6.9875979,10.2770338c0.0000033,0.1806011,0.0000072,0.3612041,0.0000072,0.5418119
		C6.8140125,10.6382465,6.8140802,10.4576406,6.9875979,10.2770338z"/>
	<path fill="#1B2319" d="M19.3336945,6.4988837c-0.0026569-0.0370297-0.0053139-0.0740581-0.0080109-0.1110563
		c0.2208214-0.1002178,0.2229061-0.0983229,0.2366676,0.2152882C19.4861202,6.5683851,19.4099064,6.5336347,19.3336945,6.4988837z"
		/>
	<path fill="#313131" d="M21.9147301,7.6824236c0.0005302,0.1443224,0.0010567,0.2886438,0.0016079,0.43297
		c-0.1895428,1.1054525-0.8954144,1.9343414-1.7125854,2.7030125c-0.0914478,0.0860224-0.1915894,0.1217899-0.2872028-0.0000935
		c-0.1053047-0.152483-0.2426205-0.2828407-0.3527584-0.431982c-0.0785217-0.0723448-0.1570435-0.1446896-0.2355633-0.2170334
		c-0.1145077-0.1795759-0.0620136-0.3206635,0.1177425-0.4324207c0.5676441-0.3889847,0.7609081-1.0238733,1.1747723-1.5138655
		c0.0949001-0.0710621,0.0357571-0.2752724,0.2493343-0.2441216c0.0783291,0.0364838,0.1315403,0.0919819,0.1540051,0.1709633
		c-0.091526,0.7252922-0.645359,1.2574625-0.9386616,1.9088535c0.532753-0.3529482,0.8560772-0.8276825,1.0998306-1.3771057
		c0.1351452-0.3046179,0.0724392-0.7176876,0.4941292-0.8909702C21.7578297,7.7545614,21.8362808,7.718492,21.9147301,7.6824236z"/>
	<path fill="#303030" d="M20.8566589,8.0068903c-0.0786324,0.0720415-0.1572628,0.1440821-0.2359066,0.2161217
		c0.1833019-0.6889157,0.29776-1.3845549,0.2354641-2.0966082c-0.0148907-0.1702361,0.0606632-0.3596649-0.1170902-0.4978662
		c-0.2242203-0.2277422-0.0700817-0.5061679-0.1198349-0.7572846c0.1714363-0.0279689,0.2700176,0.0802484,0.3053112,0.1946197
		C21.2286072,6.0509934,21.513649,7.0394173,20.8566589,8.0068903z"/>
	<path fill="#122702" d="M20.0338154,7.141489c0.216011,0.2321982,0.0870705,0.4917083-0.0002136,0.7458844
		c0-0.2485509,0-0.4971008-0.0000038-0.7456536C20.0335941,7.1417184,20.0338154,7.141489,20.0338154,7.141489z"/>
	<path fill="#212121" d="M19.5637913,10.3863297c0.1889496,0.0946674,0.3432846,0.2132607,0.3527565,0.431982
		C19.7281246,10.7232809,19.5731163,10.6051521,19.5637913,10.3863297z"/>
	<path fill="#212121" d="M19.4459705,9.7368765c-0.080513,0.1346331-0.1356354,0.2751169-0.1177368,0.4324236
		C19.1669693,9.9789467,19.11446,9.8136606,19.4459705,9.7368765z"/>
	<path fill="#303030" d="M21.6793804,7.7906303c-0.3064384,0.7431822-0.5078983,1.5366774-1.1208153,2.1380501
		c-0.1557312,0.1527977-0.2721767,0.534008-0.6060162,0.3050928c-0.3409424-0.2337875-0.0296574-0.4286995,0.1461353-0.6127958
		c0.4190292-0.4388275,0.6173573-0.9873371,0.8755054-1.5059566c0.1766644-0.6230292,0.1916885-1.2550311,0.1784611-1.8965855
		c-0.0228138-1.1065001-0.5608807-2.0039735-1.328146-2.7857246c-0.6141071-0.6256995-1.3045712-1.1898158-2.2196579-1.453017
		c-0.3893108-0.111975-0.762167-0.1379054-1.1441345,0.0015563c-0.0695572-0.0043199-0.11833-0.035483-0.1478157-0.0933344
		c-0.0361862-0.2371676-0.1108017-0.477711,0.0774136-0.6932065c0.6413536,0.0523432,1.2700424,0.1174251,1.8767395,0.3658403
		c1.7821045,0.7296922,2.8706818,1.9335132,3.3306999,3.6962337C21.8227215,6.1188345,21.8386688,6.9409041,21.6793804,7.7906303z"
		/>
	<path fill="#263617" d="M16.3903103,1.1947089c-0.0005627,0.2523396-0.0011292,0.5046792-0.0016937,0.7570188
		c-0.0771713,0.0550572-0.1545448,0.0647761-0.2322445,0.0008724c-0.0000515-0.3968451-0.0000992-0.7936902-0.0001335-1.1905375
		c0.0780334,0.0005459,0.1560535,0.0010941,0.2340717,0.0016423c0.0686665,0.0715548,0.0693283,0.1431295,0.0000725,0.2147244
		C16.390358,1.0505227,16.3903332,1.1226157,16.3903103,1.1947089z"/>
	<path fill="#303030" d="M22.0321865,5.4115124c0.1941166,0.7208681,0.1945724,1.44172-0.0002174,2.1625519
		C22.0320415,6.8532119,22.0321159,6.1323614,22.0321865,5.4115124z"/>
	<path fill="#303030" d="M16.3903828,0.9784294c-0.0000229-0.0715873-0.0000439-0.1431747-0.0000706-0.2147434
		c0.3526783,0.071578,0.7282104,0.0478072,1.0580463,0.2146794C17.0957012,0.9783865,16.743042,0.978408,16.3903828,0.9784294z"/>
	<path fill="#303030" d="M21.9143009,4.6550078c0.0166836,0.1493025-0.052948,0.3184233,0.1173038,0.4324675
		c0.0002384,0.1080728,0.0004787,0.216145,0.000721,0.3242173c-0.2715511-0.2019157-0.236248-0.4843445-0.2349186-0.7578707
		C21.8363743,4.6543789,21.8753357,4.654779,21.9143009,4.6550078z"/>
	<path fill="#8105E3" d="M13.3116369,1.401227c0.5606756-0.4037423,1.2676048-0.4282632,1.9088459-0.6230903
		c0.7659683-0.0080534,0.9865274,0.2722558,0.7966719,0.9780182c-0.0558558,0.2076303-0.2181883,0.2204036-0.3852911,0.2579924
		c-0.2584219,0.0581317-0.5471277-0.0183299-0.7808733,0.1488004c-0.2120485,0.0825448-0.4127541,0.2064495-0.6615963,0.1538622
		c-0.1079435-0.2897754,0.1720676-0.3011203,0.3364496-0.3756617c0.2277212-0.1032646,0.4875078-0.1126088,0.7328873-0.1649243
		c0.2268658-0.0483687,0.437645-0.0741903,0.4250097-0.3929366c-0.0124435-0.313982-0.1802425-0.3380131-0.4352808-0.3260193
		c-0.0557117,0.0026201-0.1067266-0.0379931-0.1509247-0.073743C14.5022354,1.122759,13.9069376,1.2619931,13.3116369,1.401227z"/>
	<path fill="#212121" d="M16.1563721,1.9526004c0.0774288-0.0002921,0.1548595-0.0005839,0.2322693-0.000874
		c0.0396595,0.0000944,0.0793438,0.0001873,0.1190281,0.00028c0.0276623-0.0036298,0.0553246-0.0072597,0.0830002-0.0112568
		c0.3447781-0.0190797,0.6684437,0.0511304,0.9748802,0.1951958c0.0369911,0.0462599,0.037262,0.0928893,0.0011539,0.1396973
		c-0.5517654-0.0010648-1.0900841-0.1730571-1.6469202-0.1096807C15.9986458,2.0948288,16.0775089,2.0237145,16.1563721,1.9526004z"
		/>
	<path fill="#212121" d="M14.1596851,2.2900932c0.2304611-0.0423698,0.4609213-0.0847397,0.6913452-0.1271274
		c0.1228666,0.0049274,0.2457752,0.0098727,0.3686991,0.0148976c-0.3927813,0.1085463-0.7855797,0.2170129-1.178381,0.3254797
		c-0.0482063,0.0332882-0.0952778,0.0319796-0.1412926-0.0038507C13.8893318,2.3277266,14.0073385,2.2908919,14.1596851,2.2900932z"
		/>
	<path fill="#8200FA" d="M22.7369041,1.6261208c0.3137112-0.16576,0.6275177-0.1658702,0.9414253-0.0004745
		c0.1004925,0.1819756,0.2701645,0.3006668,0.4400311,0.4236588c0.3712063,0.2687714,0.3738708,0.6872039,0.0156651,0.9892998
		c-0.7543907,0.6362264-1.0300426,0.670815-1.60466,0.2013521C21.9746609,2.7867627,21.9873104,2.2916,22.5592957,1.8367947
		C22.6309452,1.7798218,22.6782951,1.6969774,22.7369041,1.6261208z"/>
	<path fill="#8100FB" d="M10.3958855,8.0067415c-0.4012766-2.1547413-0.0343695-4.2189941,1.9674768-5.722208
		c0.8062096-0.605395,1.7266102-0.9312097,2.7342443-1.0902016c0.2413139-0.1500628,0.4621038-0.1439075,0.5492439,0.1367265
		c0.0898066,0.2892205-0.1159801,0.4509625-0.3982134,0.4856443c-1.2291613,0.1510442-2.1560326,0.7743782-2.9682531,1.5801421
		c-1.7588091,1.7448251-1.8668137,4.1859779-0.2314281,6.0889721c0.4110966,0.4783659,0.4295778,0.5467682,0.0309734,0.9381475
		c-0.1639996,0.0663567-0.3248606,0.0296202-0.4330254-0.0781174C10.9796858,9.6812639,10.3699532,8.9866066,10.3958855,8.0067415z"
		/>
	<path fill="#8A01F7" d="M12.0418196,10.3851967c0.2377586-0.2483883,0.2545071-0.4386454-0.0119581-0.7336693
		c-1.1410027-1.2632952-1.5967216-2.6714926-1.0869112-4.3221874c0.4567051-1.4787519,1.4440699-2.5103948,2.8764477-3.2082772
		c0.398612-0.1942103,0.8251085-0.400308,1.3118372-0.3873193c0.2153234,0.0057464,0.4059286-0.0486499,0.4218502-0.2791964
		c0.0224285-0.3247287-0.2568426-0.2413191-0.4554787-0.2602108c-0.0000248-0.0703118-0.0000477-0.1406187-0.0000715-0.2108684
		c0.1321535-0.0245935,0.2646542-0.0477713,0.3963804-0.0742188c0.2330942-0.0467998,0.3073359-0.0116834,0.3519278,0.2545549
		c0.0977116,0.5833939-0.1954651,0.7479486-0.741807,0.7870628c-0.3432302,0.0245731-0.6950407,0.0728606-0.9443436,0.3391925
		c-0.0863075,0.0644104-0.1726074,0.128787-0.2589073,0.1931639C13.5616179,2.7127695,13.1882429,2.896488,12.860054,3.140744
		c-0.1758509,0.1193213-0.3949347,0.195761-0.4775743,0.4075375c-0.0742016,0.1797004-0.2339497,0.3029852-0.3530264,0.4530919
		l0.004529-0.0053375c-1.0015116,1.5133359-1.0771046,3.0717185-0.2685881,4.6726542
		c0.0363455,0.3585186,0.2637796,0.6572847,0.5174713,0.8731384c0.4206314,0.3578892,0.3693171,0.6320343-0.006547,0.9449282
		c-0.0268259,0.025115-0.0593739,0.0379791-0.0976419,0.0385942C12.0989113,10.5068541,12.0563383,10.4576197,12.0418196,10.3851967
		z"/>
	<path fill="#8502EE" d="M10.2634306,8.5601311c-0.613946-1.3426414-0.6159182-2.6849122,0.0028172-4.0268703
		c-0.1809807,0.8800035-0.2762384,1.7653127-0.2255135,2.6629376c0.0182543,0.3230071,0.0549088,0.6350946,0.2388248,0.9184256
		C10.4054699,8.2671499,10.4241657,8.4163895,10.2634306,8.5601311z"/>
	<path fill="#9900FE" d="M10.2634306,8.5601311c0.0053692-0.1484995,0.0107384-0.296998,0.016119-0.4455032
		c0.0387878-0.035964,0.0775671-0.0719242,0.1163406-0.1078854c0.2121162,0.6650572,0.4792023,1.307086,0.9526815,1.8577452
		c0.1882658,0.218955,0.345458,0.4789734,0.6932478,0.5207167c0.0456181,0.0467052,0.0912361,0.0934181,0.1368551,0.1401386
		c-0.0075788,0.0592384-0.0151587,0.1184692-0.0227404,0.1776991c-0.0894871,0.0910034-0.1983118,0.1014166-0.3184605,0.065196
		c-0.3390408-0.3698893-0.6559753-0.7566967-0.9910984-1.1300077l0.0049868,0.0070543
		c-0.1075678-0.1885729-0.1874933-0.391736-0.3453369-0.553771l0.0020885,0.0028782
		c-0.0928421-0.1760864-0.1056805-0.383069-0.2466402-0.5405731L10.2634306,8.5601311z"/>
	<path fill="#8502EE" d="M10.259325,4.5412183c-0.000742-0.2156525,0.0941181-0.3951716,0.2468319-0.5528646
		C10.5227318,4.2099657,10.4838753,4.4106727,10.259325,4.5412183z"/>
	<path fill="#0F2700" d="M9.6910067,8.5479364c0.0306168-0.1601295-0.094986-0.3893394,0.2209768-0.4231148
		c0.0051117,0.1047611,0.0103607,0.2094088,0.0156279,0.3140507C9.876543,8.526248,9.7886143,8.5459785,9.6910067,8.5479364z"/>
	<path fill="#8503E9" d="M10.5060253,9.0915136c0.2534409,0.1115141,0.3362131,0.3131618,0.3453913,0.5537081
		c-0.0664825-0.043663-0.1329107-0.087388-0.1993227-0.1311197C10.6034155,9.3732357,10.5547199,9.2323742,10.5060253,9.0915136z"/>
	<path fill="#8503E9" d="M10.2614737,8.5538187c0.2197638,0.127058,0.2649632,0.3215437,0.2466583,0.5405617
		C10.35007,8.9434843,10.2609911,8.7659454,10.2614737,8.5538187z"/>
	<path fill="#8304E3" d="M9.4452696,9.5664167C9.5505638,9.6634169,9.6558571,9.760417,9.7611523,9.8574171
		c0.4582376,0.348218,0.3720961,0.7529716,0.1438589,1.1724806c-0.6292019,0.7329025-1.0307703,0.8618317-1.7598419,0.5650215
		c0.0165615-0.0213861,0.033123-0.0427723,0.0494318-0.064414c0.1732445-0.1056881,0.3740416-0.0773525,0.5650034-0.0996866
		c0.5523252-0.0645981,0.8704977-0.3906641,0.8824539-0.898984c0.0110073-0.4679976-0.3430681-0.8084087-0.9080477-0.868227
		C8.5611324,9.6453047,8.3825493,9.6623802,8.2190628,9.586895C8.1611834,9.556469,8.1343079,9.5108757,8.1375217,9.4498796
		C8.6764822,9.1412554,8.8792629,9.1593838,9.4452696,9.5664167z"/>
	<path fill="#8304E3" d="M8.1451693,11.5949192c-0.266223-0.0080376-0.4239349-0.1682158-0.5703077-0.3442917
		c-0.384172-0.4699192-0.4028969-0.9377003,0.009696-1.4029589L7.5806103,9.8527594
		c0.1485214-0.1699686,0.234673-0.4228048,0.5605669-0.3571062l0.0353203,0.0420599
		c-0.5800357,0.6732855-0.5864291,1.3463049,0.0011044,2.0190496L8.1451693,11.5949192z"/>
	<path fill="#6A0ABA" d="M10.035635,12.0055714c0.0157642-0.0309944,0.0290432-0.0628653,0.0398912-0.0955963
		c0.0639801-0.0411167,0.1279058-0.0822477,0.1918306-0.1233788c0.0208921,0.0106277,0.0417833,0.0212545,0.0630264,0.0313063
		c0.0962706,0.108263,0.2158289,0.1704226,0.3738194,0.1573286c0.3135891-0.0019169,0.6260023-0.0040951,0.9386539-0.005517
		c0.1780348-0.0099335,0.3514109,0.0559759,0.5305223,0.0253201c0.1116619,0.0295506,0.2547855,0.1751728,0.1256018,0.1785288
		c-0.7411757,0.0192528-1.4933567,0.1583929-2.225112-0.0696411C10.05161,12.0969849,10.0479612,12.0394936,10.035635,12.0055714z"
		/>
	<path fill="#1B2315" d="M8.1411772,9.4956532C7.8877993,9.5262785,7.7802997,9.7507677,7.580596,9.8527317
		c0.0997295-0.4800711,0.5433588-0.5708447,0.9458179-0.6417084c0.3543129-0.0623846,0.7451687-0.0507374,0.9188309,0.355237
		C9.0228682,9.351037,8.5982008,9.1709871,8.1411772,9.4956532z"/>
	<path fill="#1B2315" d="M9.9050112,11.0298986c0.0893641-0.405057,0.096097-0.8015451-0.1437511-1.1724777
		c0.0937672,0.0318613,0.1876421,0.0637274,0.281517,0.0955925c0.2199583,0.2676773,0.2296715,0.5594835,0.1173277,0.8652983
		C10.0750732,10.8888407,9.9900427,10.9593697,9.9050112,11.0298986z"/>
	<path fill="#1B2315" d="M7.5845575,9.8476686c-0.2848067,0.4660072-0.2552724,0.9338522-0.0096941,1.4029598
		C7.0726204,10.7699213,7.0758324,10.3051462,7.5845575,9.8476686z"/>
	<path fill="#7A06D7" d="M10.2673569,11.7865963c0.1205463-0.2184191,0.2410936-0.4368372,0.36164-0.6552563
		c0.0606565-0.0301294,0.1149149-0.0223751,0.1630344,0.0231953c0.0896816,0.1305904,0.0846853,0.2673101,0.0320597,0.4074841
		c-0.11971,0.1693001-0.2379522,0.342555-0.5092688,0.239974L10.2673569,11.7865963z"/>
	<path fill="#261F2E" d="M10.7406054,11.1277533l-0.0554905,0.0096617c0,0-0.056098-0.00599-0.0561066-0.006032
		c-0.0005112-0.1041813-0.0010118-0.2083187-0.0015602-0.3124495c0.1208353-0.0024691,0.2417192-0.0049458,0.3626604-0.0074873
		c0.0843792,0.0454979,0.1150656,0.1154518,0.1087513,0.2022314C11.080718,11.3209133,10.8733683,11.1252003,10.7406054,11.1277533z
		"/>
	<path fill="#142603" d="M10.1601048,10.8183117c0.0309439-0.2964687-0.0212326-0.5833998-0.1173153-0.8652954
		c0.0394297,0.000124,0.0788708,0.0002499,0.11831,0.0003786c0.0395575,0.0717907,0.0791159,0.1435804,0.1186857,0.2153606
		C10.2073517,10.3801918,10.4193745,10.6360044,10.1601048,10.8183117z"/>
	<path fill="#112604" d="M8.1635847,12.0075121c0.2511282-0.2188549,0.538106-0.0411825,0.8107271-0.0000238
		c-0.270277,0-0.5405521,0-0.8108263-0.0000029C8.1634884,12.0074825,8.1635847,12.0075121,8.1635847,12.0075121z"/>
	<path fill="#1B2315" d="M8.3986626,8.8725424c0.1956415,0.0000153,0.3912811,0.0000315,0.586916,0.0000544
		C8.7899151,9.032136,8.5942783,9.0321741,8.3986626,8.8725424z"/>
	<path fill="#313131" d="M17.5667038,2.2756426c-0.0004902-0.0358002-0.0008163-0.0716014-0.0009766-0.1074042
		c-0.3259373-0.1828207-0.7114391-0.1191483-1.0580521-0.2164067c0,0,0.0000038,0.0001652,0,0.0001699
		c0.2265396-0.4149017,0.6082363-0.2035199,0.914566-0.1617343c0.7869148,0.1073402,1.3722839,0.5796158,1.9528255,1.0269942
		c0.9810371,0.7560103,1.6122227,1.7314045,1.8969879,2.8715622c0.0827808,0.3314471-0.1383514,0.7325435-0.0382252,1.053699
		c0.1640949,0.5263319-0.0419083,0.9373913-0.2596397,1.372498c-0.0391769-0.0360441-0.0783539-0.0720863-0.1175308-0.1081305
		c0.2534599-0.8890738,0.3140659-1.776752,0.0108833-2.6700797c-0.0581512-0.1713443-0.081625-0.3475471-0.2482262-0.4655538
		c-0.2323647-0.252861-0.3800373-0.5446167-0.4687195-0.8634753c-0.1030273-0.1547437-0.2419071-0.2847931-0.3531075-0.4339068
		c-0.5438023-0.4023578-1.0148773-0.8931506-1.6758118-1.1531341C17.9419136,2.3500299,17.7728939,2.2560573,17.5667038,2.2756426z"
		/>
	<path fill="#303030" d="M19.7974892,3.5738747c0.1904716,0.0944958,0.3458824,0.213146,0.353117,0.4338872
		C19.9643593,3.9103527,19.8085365,3.7919745,19.7974892,3.5738747z"/>
	<path fill="#8200FA" d="M17.9133968,7.0289187c0.2602482-0.1204524-0.0085773-0.4284329,0.2326527-0.5557089
		c-0.0000229-0.0000901,0.011797,0.0399714,0.011797,0.0399714c0.1037846,0.3132958,0.3692474,0.1219611,0.5636482,0.1524687
		c0.1660023,0.0747914,0.1343594,0.2653522,0.2540607,0.3674779c0.039299,0.0364523,0.0786018,0.0729032,0.1179028,0.1093593
		c0.2988052,0.1297245,0.7434769,0.1468663,0.5784645,0.6343765c-0.6644897-0.0032291-0.5393906,0.5286193-0.6962032,0.8694491
		c-0.0821152-0.0691118-0.1147537-0.1566582-0.1131973-0.2519636c0.0036259-0.0384846-0.0005665-0.0664682-0.0126591-0.0789404
		c-0.0110321,0.0293121-0.0260162,0.0605564-0.0466785,0.0972891c-0.0322666,0.0408564-0.0712776,0.0677452-0.1204033,0.0852318
		c-0.1713562,0.0259905-0.3132439-0.0212641-0.4113178-0.1508675c-0.0437698-0.0578442-0.0971031-0.1296949-0.0070438-0.1980972
		c-0.1259556,0.0495329-0.0114899,0.1595297-0.0677052,0.2275476c-0.0378647,0.0458097-0.0842228,0.0683527-0.1468754,0.0600443
		c-0.0370827-0.1817532,0.0583935-0.3904257-0.1299038-0.541502c-0.0008392-0.0345974-0.0015411-0.0691605-0.0020943-0.1037264
		c0.0302639-0.6613493-0.5172005-0.3038483-0.8137531-0.3896399c-0.1627007-0.0769868-0.3004379-0.168004-0.243084-0.367682
		c0.1810894,0.0162196,0.2289162-0.137536,0.3322582-0.2204843c0.1453876,0.339643,0.4137936,0.3310213,0.7200394,0.215281
		L17.9133968,7.0289187z"/>
	<path fill="#8100FB" d="M16.8610039,7.0340066c0.0782127,0.1080456,0.1564274,0.2160907,0.234642,0.3241367
		c-0.1636391,0.3784642-0.501503,0.2588153-0.7824249,0.2019773c-0.2305851-0.0466533-0.2912807-0.2188344-0.1577568-0.4184351
		c0.6278324-0.6719346,0.9826279-1.5556626,1.8439445-2.0530152C17.7368355,5.8042264,17.1294212,6.3328781,16.8610039,7.0340066z"
		/>
	<path fill="#8600FE" d="M16.1554642,7.1416855c0.1679268,0.6069469,0.5877171,0.2879429,0.9401817,0.2164578
		c0.1543655-0.0758243,0.3164997-0.1069016,0.4938755-0.1104484c0.5893764-0.0117869,0.6112194,0.0195603,0.3283253,0.5436234
		c-0.0000057,0.00001,0.000433-0.0009189,0.000433-0.0009189c-0.3700428-0.2117972-0.778862-0.0701203-1.168169-0.106307
		c-0.2067757-0.0192199-0.418129,0.0165987-0.6237831-0.0364542c-0.2421122-0.1375451-0.2062483-0.3157406-0.0878506-0.5059829
		C16.0774727,7.1417341,16.1164684,7.1417437,16.1554642,7.1416855z"/>
	<path fill="#182414" d="M16.3902035,6.1740007c0.2218399-0.5000424,0.543911-0.9352798,0.987133-1.2922258
		C17.1484261,5.3772383,16.8144627,5.8048124,16.3902035,6.1740007z"/>
	<path fill="#8605DD" d="M17.5792484,4.8082819c0.4007397-0.0145364,0.8438759-0.2716222,1.1644878,0.1722798
		c-0.0937309,0.1057515-0.1874619,0.2115016-0.2811985,0.3172421c0.0639725-0.3235407,0.0031548-0.5260539-0.4379063-0.432662
		C17.8836174,4.8950005,17.7159996,4.9026589,17.5792484,4.8082819z"/>
	<path fill="#9700FE" d="M16.0384769,7.1416554c0.0152683,0.1497102-0.0552559,0.3189678,0.1165562,0.433012
		c0.0696335,0.0712657,0.0697651,0.1424422-0.0003204,0.2135296c-0.4907961,0.022666-0.32162-0.3069544-0.3386087-0.5371375
		C15.8903141,7.2145867,15.9643955,7.1781206,16.0384769,7.1416554z"/>
	<path fill="#3F186B" d="M17.9133015,7.0288033c-0.3096828,0.1255965-0.6511593,0.3411741-0.7199612-0.2152748
		c0.0390263-0.0051956,0.0781326-0.0103865,0.1172218-0.0155897C17.3895855,7.1442103,17.7005634,6.977963,17.9133015,7.0288033z"/>
	<path fill="#1B2319" d="M11.7001429,8.7398472c-0.7039433-1.4374375-0.8034058-2.8756113-0.0002518-4.3123245
		c0.0878954-0.1572309,0.1540594-0.3328409,0.334115-0.431453c-0.0481348,0.1338861-0.0767345,0.2772911-0.1473627,0.4002655
		c-0.7374096,1.2839527-0.7314129,2.5964208-0.1937866,3.932219c0.0736256,0.1936436,0.2488441,0.3556519,0.2146282,0.5829144
		C11.777256,8.9167566,11.7418404,8.8250904,11.7001429,8.7398472z"/>
	<path fill="#1A2316" d="M12.860054,3.140744c0.2554884-0.3416913,0.6347227-0.5175784,1.0407696-0.6575034
		c0.0468254,0.0066276,0.093688,0.0132728,0.1405373,0.02001C13.6448793,2.7115695,13.3076849,3.0127735,12.860054,3.140744z"/>
	<path fill="#1B2319" d="M12.0294533,4.0013733c0.0459099-0.1983526,0.1916142-0.3308802,0.3530369-0.4530618
		C12.3993282,3.7880282,12.2435131,3.9139071,12.0294533,4.0013733z"/>
	<path fill="#8300FD" d="M10.7406054,11.1277533c0.048974-0.2252932,0.2788439,0.0303164,0.3582535-0.1140699
		c0.0459414,0.0428658,0.0918827,0.0857391,0.1378231,0.1286106c0.1747246,0.1876526,0.3615236,0.364089,0.5705004,0.5199308
		c0.0510921,0.0412903,0.1021833,0.0825806,0.1532803,0.1238718c0.0709667,0.0696487,0.1419306,0.1392984,0.2129059,0.2089434
		c-0.1232605,0.1708078-0.3117399,0.0982924-0.4780684,0.1084337c-0.3163328-0.1184921-0.6631079,0.034893-0.9786491-0.0928316
		c-0.1133499-0.1540508-0.0615473-0.2985191,0.0296926-0.4407206
		C10.7444305,11.4225321,10.7425175,11.2751427,10.7406054,11.1277533z"/>
	<path fill="#8503E9" d="M10.8463755,9.6382303c0.3979988,0.2945623,0.7302475,0.6396055,0.9626818,1.061285
		c-0.1325216,0.0806789-0.1708527-0.0382748-0.2384405-0.0952215C11.3518066,10.26793,10.9602976,10.041151,10.8463755,9.6382303z"
		/>
	<path fill="#192418" d="M11.8071823,11.6622248c-0.3012238-0.0701685-0.5200844-0.2168312-0.5705004-0.5199327
		C11.5431347,11.2076054,11.7324219,11.381732,11.8071823,11.6622248z"/>
	<path fill="#25202C" d="M11.5706167,10.6042938c0.0794754,0.0317497,0.1589499,0.0634995,0.2384338,0.0952368
		c0.1156321,0.0011616,0.2312584,0.0023365,0.3468828,0.0035124c-0.0388346,0.1100502-0.0776682,0.2201023-0.1165295,0.3301373
		C11.7617855,11.0024614,11.6061983,10.8588886,11.5706167,10.6042938z"/>
	<path fill="#8501FE" d="M13.3412571,8.3285227c-0.0026369-0.8993144-0.005271-1.7986279-0.0079069-2.6979423
		c-0.1154604-0.112988-0.3056984-0.1343999-0.3993006-0.2750974c-0.0574427-0.0948148-0.1315575-0.2101989-0.0194168-0.2901287
		c0.2729092-0.194519,0.5949554-0.1384916,0.9007301-0.092504c0.2805977,0.042202,0.3708124,0.2465997,0.3768024,0.4786291
		c0.0217896,0.8440862,0.0243053,1.6885128-0.0019302,2.5324392c-0.0067768,0.2179885-0.0619078,0.4658389-0.3717785,0.4587207
		c-0.3331366-0.0076532-0.3063145-0.2635536-0.3060617-0.4820147c0.0007029-0.6081061,0.0008898-1.2162147-0.0017271-1.8243241
		c-0.0014725,0.6016707,0.0060415,1.203485-0.007328,1.8049064C13.5003433,8.0759859,13.6128931,8.2785997,13.3412571,8.3285227z"/>
	<path fill="#8C00FE" d="M13.3412571,8.3285227c0.2409706-0.4790215,0.0663748-0.9844184,0.1051531-1.4763718
		c0.0291214-0.3694534,0.0057535-0.7424092,0.1233072-1.1128826c0,0.7126975-0.0023355,1.4254055,0.0015631,2.1380854
		c0.0010347,0.1891127-0.0628386,0.4587059,0.2340202,0.472456c0.3386421,0.015687,0.226388-0.2758932,0.2289677-0.4453297
		c0.0122862-0.8071113,0.0072699-1.6144791,0.0035238-2.4217362c-0.0007172-0.1549492,0.0395117-0.3605771-0.2084675-0.3795366
		c-0.2837667-0.0216956-0.588582-0.0869203-0.8493319,0.0398569c-0.0919886,0.0447254,0.0959711,0.1666903,0.1192169,0.2674966
		c-0.1989403,0.1734924-0.4015436,0.122653-0.6052046,0.0083857c-0.0428886-0.1979041-0.0951986-0.3963776,0.039813-0.5841098
		c0.5891399-0.1022754,1.1776953-0.1297688,1.7650433,0.0106692l-0.006505,0.0050588
		c0.0518904,1.2670474,0.0932436,2.5340428-0.022109,3.8002667c-0.2083054,0.0014582-0.4169168-0.0030899-0.6248388,0.005887
		C13.3831758,8.6680393,13.3168564,8.5364943,13.3412571,8.3285227z"/>
	<path fill="#8505E3" d="M14.2702475,8.6508312c0.0073318-1.2667041,0.0146627-2.5334067,0.0220518-3.8001885
		c0.0333071-0.00421,0.0658331-0.0013599,0.0976305,0.0084362c-0.001338,1.0964165,0.0002813,2.1928854-0.007082,3.2893043
		C14.3817015,8.3189821,14.4601927,8.5128555,14.2702475,8.6508312z"/>
	<path fill="#8001F3" d="M12.5279036,5.407445c0.1904392,0.0010486,0.3808775,0.0020967,0.57131,0.0031304
		c0.1531391,0.0056491,0.233448,0.0769405,0.234149,0.2199779c-0.0396538-0.0001073-0.0792933-0.0002418-0.118947-0.0003653
		c-0.0000124,0.0000105,0.0027761-0.0036335,0.0027761-0.0036335c-0.2334652-0.0394859-0.485878,0.0244732-0.7021551-0.1088557
		l-0.0007715-0.000514c-0.0353136-0.0284204-0.0450354-0.0541348-0.0292606-0.0771985
		C12.4998283,5.4183121,12.5140944,5.4074454,12.5279036,5.407445z"/>
	<path fill="#8005DE" d="M8.0664167,8.1231194c-0.0009251-0.178225,0.1295509-0.3031273,0.2141438-0.4466486
		c0.0605326-0.0528302,0.0917988-0.1464009,0.2056341-0.1250296C8.502183,7.5641408,8.5180559,7.5769601,8.5339584,7.5900145
		C8.4413319,7.8146758,8.4011059,8.078248,8.0664167,8.1231194z"/>
	<path fill="#212121" d="M18.628849,4.5516567c-0.3771896,0.1908097-0.7894783,0.0438232-1.1802578,0.1038055
		c-0.0001144-0.0364733-0.0002327-0.0729532-0.000351-0.1094408C17.8417759,4.547894,18.2353134,4.5497756,18.628849,4.5516567z"/>
	<path fill="#7308CA" d="M12.5150366,5.5176988c0.2353916,0.0289984,0.4993782-0.0980978,0.7021589,0.1088681
		c-0.0391197,0.0305037-0.0782328,0.0610194-0.1173468,0.0915065c-0.1085215-0.0013418-0.2170486-0.0026546-0.3255405-0.0040007
		C12.6879082,5.6485929,12.6014729,5.5831461,12.5150366,5.5176988z"/>
	<path fill="#192315" d="M8.4861946,7.5514412C8.4176521,7.5931301,8.3491087,7.6348181,8.2805624,7.6764879
		c0.0453959-0.219883,0.1148462-0.4260607,0.3584557-0.5331364C8.5880899,7.2793813,8.5371418,7.4154119,8.4861946,7.5514412z"/>
	<path fill="#8503E9" d="M11.7001429,8.7398472c0.0691376,0.0571423,0.1382751,0.1142855,0.2073774,0.171524
		c0.2017765,0.2991123,0.3480444,0.6372824,0.6946068,0.8342333c0.2181015,0.1682186,0.1687021,0.3474007,0.0256548,0.5304203
		c-0.1171608,0.0702477-0.2343121,0.140501-0.3514652,0.2107439c0.3411598-0.3838472,0.1961803-0.6969833-0.1379766-1.0161514
		C11.9284344,9.2701263,11.68575,9.0639896,11.7001429,8.7398472z"/>
	<path fill="#7308CA" d="M14.2988615,4.8455057c-0.5940075,0.0118389-1.1880121,0.0236773-1.7820196,0.0355163
		c-0.0342512-0.0246434-0.0463924-0.0500865-0.0364809-0.0763464c0.0100594-0.0266485,0.0205307-0.0399818,0.031476-0.0399818
		C13.1137276,4.6753025,13.7181168,4.5391221,14.2988615,4.8455057z"/>
	<path fill="#7308CA" d="M12.511837,4.7646937c0.0016394,0.0387177,0.0032778,0.077435,0.004962,0.11624
		c0.0036335,0.1755853,0.0072222,0.3510823,0.0109577,0.526546c-0.004406,0.0365524-0.0089598,0.0731397-0.0135021,0.1097155
		C12.3158369,5.2668943,12.3157549,5.0160618,12.511837,4.7646937z"/>
	<path fill="#9600FE" d="M18.049839,8.4365568c0.1427116-0.0734806,0.0597744-0.237277,0.1637192-0.341651
		c0.1051254,0.2121048,0.2764492,0.3324823,0.5273914,0.3441992c0.0622253,0.0713415,0.0705833,0.1427507,0.0003262,0.214263
		C18.5126438,8.5761089,18.1485233,8.8645782,18.049839,8.4365568z"/>
	<path fill="#9800FC" d="M18.7412758,8.653368c-0.0001087-0.0714169-0.0002155-0.1428347-0.0003262-0.2142572
		c0.0000381-0.0357647,0.0002632-0.0715237,0.0006714-0.1072826c0.0770226-0.0633659,0.1542606-0.0635328,0.2317142-0.0006685
		c0.0007954,0.1051521,0.0015907,0.2103033,0.0023861,0.3153048C18.8975716,8.6486645,18.8194237,8.6510162,18.7412758,8.653368z"/>
	<path fill="#8D00FE" d="M16.1547127,7.788197c0.0001087-0.0711789,0.0002193-0.1423583,0.0003242-0.2135329
		c0.4403572-0.0000687,0.8807411-0.0025444,1.3210678,0.0009356c0.1841717,0.0014563,0.4032841-0.045208,0.4421768,0.2148032
		C17.3304234,7.7896662,16.7425671,7.7889318,16.1547127,7.788197z"/>
	<path fill="#9000FE" d="M18.7405872,6.7101107c-0.0374622,0.0074849-0.0752201,0.0139022-0.1123333,0.0226388
		C18.4659386,6.770956,18.4454021,7.0732813,18.23419,6.9601512c-0.1604195-0.0859237-0.0613995-0.2936468-0.0763702-0.4471641
		c0.1947765-0.0015264,0.3895283-0.0032463,0.5842781-0.0049672C18.8124504,6.5758324,18.8011456,6.6431274,18.7405872,6.7101107z"
		/>
	<path fill="#9400FE" d="M18.7405872,6.7101107c0.0004978-0.0674567,0.0009937-0.1349144,0.001503-0.2022309
		c0.3977318,0.0547976,0.1717701,0.3441582,0.2334709,0.5252566C18.8192081,6.9734936,18.7419205,6.8651853,18.7405872,6.7101107z"
		/>
	<path fill="#303030" d="M16.5076752,1.9518317c0.363924,0.025615,0.7640476-0.098578,1.0580521,0.2164024
		C17.1951714,2.170064,16.8453045,2.0862653,16.5076752,1.9518317z"/>
	<path fill="#8D00FD" d="M8.1776018,11.5567627c-0.912631-0.9247637-0.912735-1.0885324-0.0011921-2.0191851
		c0.175519-0.0054302,0.3512049-0.0194836,0.5263357-0.0150337C9.32794,9.5384321,9.80054,9.9555521,9.8060312,10.4890451
		c0.0064974,0.6310883-0.4326057,1.0655861-1.102169,1.0831337C8.5287428,11.5767698,8.3530369,11.5624161,8.1776018,11.5567627z"/>
	<path fill="#9201F5" d="M10.7463436,11.5699224c0.00072,0.1457653,0.001441,0.2915325,0.002162,0.4372988
		c-0.0601625,0.0761395-0.171566,0.0398712-0.2420397,0.0933876c-0.2445374-0.0013103-0.2457876-0.1350117-0.1918278-0.2986355
		C10.458663,11.7246361,10.6025038,11.6472797,10.7463436,11.5699224z"/>
	<path fill="#7A06D7" d="M10.5064659,12.1006088c0.0806837-0.0311251,0.1613665-0.0622511,0.2420444-0.0933819
		c0.3141861,0.0436802,0.6500597-0.0928516,0.946763,0.0963268C11.2990217,12.102519,10.9027443,12.1015644,10.5064659,12.1006088z"
		/>
	<path fill="#8C00FE" d="M18.9733353,8.3311605c-0.0772419,0.0002184-0.1544857,0.0004368-0.23172,0.0006618
		c0.0148716-0.1331091-0.0401134-0.2945709,0.1668282-0.3533673C19.0223465,8.0843506,18.9578781,8.2139778,18.9733353,8.3311605z"
		/>
	<path fill="#8200FA" d="M9.4562578,10.5453348c0.0004759,0.56106-0.2196074,0.8035183-0.7381706,0.81322
		C8.177248,11.3686724,7.8028026,11.026824,7.8130884,10.532342c0.0094261-0.4531603,0.3603325-0.7923155,0.8223209-0.7947884
		C9.1869478,9.7346029,9.4557943,9.9991693,9.4562578,10.5453348z"/>
</g>
</svg>
