<?xml version="1.0" encoding="utf-8"?>
<!-- Generator: Adobe Illustrator 24.1.1, SVG Export Plug-In . SVG Version: 6.00 Build 0)  -->
<svg version="1.1" id="Слой_1" xmlns="http://www.w3.org/2000/svg" xmlns:xlink="http://www.w3.org/1999/xlink" x="0px" y="0px"
	 viewBox="0 0 32 13" enable-background="new 0 0 32 13" xml:space="preserve" width="32px" height="13px">
<g>
	<path fill="#212121" d="M24.784832,0.446129c1.1011219,0.6378905,1.5714645,1.8829859,0.9762974,2.9450326
		c-0.8688202,1.5503721-1.8337784,3.0553446-2.7665405,4.5751081c-0.2431545,0.3961763-0.4490948,0.8074589-0.6685333,1.2138548
		c-1.303896,2.4147921-3.4039497,3.7365322-6.3639412,3.7745247c-2.3764839,0.0305023-4.7539625,0.0071697-7.1308956-0.006999
		c-2.3573322-0.0140505-3.5571256-1.8844395-2.415813-3.7853384c0.7243147-1.2063713,1.4214182-2.4288235,2.2584805-3.5755777
		c0.370779-0.4238071,0.5931549-0.9289808,0.8989239-1.3884726C9.6588745,4.0689292,9.6807613,3.858469,9.9410486,3.9772208
		c0.0333633,0.0507934,0.0518761,0.1053121,0.0568943,0.164386C9.6180658,5.0096531,9.5878611,5.9338665,9.4875984,6.8461547
		C9.4619703,7.0793266,9.4412489,7.3167076,9.5285521,7.546277c0.0383711,0.1711526,0.0508585,0.3413768-0.0297146,0.5060453
		C9.0984259,8.2048693,9.1405687,7.8854165,9.0579481,7.7001557c-0.0987539-0.2214432,0.1154728-0.5036173-0.1579065-0.687839
		c-0.0850601,0.0385456-0.1451988,0.1097569-0.2345133,0.140285c-0.0552826,0.002809-0.099453-0.0150352-0.132287-0.0562048
		C8.4725018,7.0549483,8.4801826,6.9333482,8.4778757,6.9378014C8.2270985,7.422224,7.9015479,7.8683176,7.6350808,8.3438301
		C7.6097569,8.38902,7.7146811,8.3947611,7.7645454,8.4124584c0.1316466,0.079752,0.2746992,0.14569,0.3581982,0.277092
		c-0.0875435,0.4053898-0.3495283,0.713975-0.6404605,1.0137968c-0.5248446,0.5408812-0.4776344,1.144968,0.1169014,1.7327528
		c0.5868306,0.5801678,1.2402797,0.6450891,1.8793216,0.1893568c0.1698904-0.1211576,0.3017101-0.2873564,0.5087614-0.365037
		c0.097209-0.0148764,0.1615763,0.0230408,0.1986275,0.1047497c0.027976,0.1750565-0.094945,0.2862625-0.1995955,0.4030571
		c-0.2030659,0.2456017,0.1674213,0.0793905,0.1611767,0.1836338c0.5422792,0.1316442,1.0943146,0.0309343,1.6388683,0.0662613
		c0.2222443,0.0337315,0.3939037-0.030901,0.5016689-0.2204237c0.1541758-0.054862,0.2628403-0.0040808,0.2719975,0.0106573
		c-0.1283531-0.1458092-0.5699501-0.1833525-0.6479015-0.5348339c-0.0416813-0.1879387,0.1763792-0.262825,0.2872057-0.3828039
		c0.2278633-0.1924772,0.4423199-0.3937578,0.6148129-0.6335173c0.1337776-0.1859474,0.152401-0.357832-0.0009375-0.5371008
		c-0.5625706-0.6139793-1.039216-1.2538652-1.2734175-2.0575438c-0.6500521-2.230689,0.7666845-4.8008976,3.2583456-5.3147612
		c1.3430405-0.2769794,2.5236855-0.1214907,3.6732635,0.5071659c1.3588963,0.8149676,2.0589828,1.9475904,2.0583477,3.4620104
		c-0.0003624,0.8686609-0.0602112,1.7026148-0.5693111,2.4673529c-0.1889744,0.2838659-0.4266167,0.5243597-0.6767635,0.7535229
		c-0.2760048,0.2528515-0.3230572,0.4810476-0.0226307,0.7363796c0.1165161,0.0990238,0.2104912,0.2162952,0.3023224,0.3355818
		c0.3893166,0.5057192,0.7331524,0.513238,1.1584663,0.0395803c1.0528316-1.1724968,1.7566051-2.4716358,1.7566948-4.0320425
		c0.0000038-0.0939965,0.0705605-0.1671658,0.1389999-0.233407c0.0391922-0.0337811,0.0833931-0.0630655,0.1293583-0.0885797
		c0.1449089-0.0560989,0.2381916-0.1605148,0.3076-0.2870159c0.0469017-0.0554981,0.104311-0.0972877,0.1785641-0.1166272
		c0.0769176,0.0008931,0.1339893,0.0388293,0.1856403,0.0834613c0.4607353-0.4964781,0.8331242-1.0366974,1.0403919-1.6631331
		c-0.0046043-0.1169753-0.0309811-0.2261019-0.1344223-0.3075008c-0.0992832-0.0823703-0.2145767-0.1566229-0.1827354-0.3047719
		c0.0525837-0.138303,0.1375751-0.2620258,0.2351704-0.3739483c0.6467476-0.7416937,0.3886719-1.377633-0.2438068-1.8980072
		c-0.6181889-0.5086198-1.1406555-0.5251281-1.7731457-0.03818c-0.1348171,0.1037939-0.2467098,0.2350734-0.4188442,0.2942626
		c-0.0947495,0.0139138-0.1590576-0.0221863-0.1967335-0.1014371c-0.0271664-0.2044338,0.1221695-0.3209782,0.2558651-0.4491619
		c0.0128403-0.0123092,0.2951107-0.0615563,0.0098724-0.1188934c-0.10812-0.1425876-0.2881565-0.2252395-0.3661461-0.3896529
		c0.0978088-0.2198494,0.2566662-0.3860609,0.4958191-0.4833439C23.0391026,0.1168466,23.9470959,0.0239427,24.784832,0.446129z"/>
	<path fill="#363735" d="M24.784832,0.446129c-0.9001961-0.2768877-1.8301563-0.2198199-2.7560997-0.2077978
		c-0.0591888,0.0444421-0.1242428,0.0797408-0.1949463,0.1062374c-1.5342999,0.0734211-3.0697098,0.0656864-4.6049023,0.0444111
		c-0.2118607-0.002087-0.424118-0.0028977-0.6359444-0.0027736c-1.0188942-0.013622-2.0446272-0.0732505-2.9992428,0.3624462
		c-0.435029,0.0545415-0.7467518,0.4016546-1.1938524,0.4293956c-0.0641546-0.0080674-0.1164818-0.0355681-0.1570406-0.0820076
		c0.9691439-0.6921526,2.0918036-1.0294869,3.2942848-1.0453818c2.6462364-0.0349788,5.2933979-0.015582,7.9401474-0.0083437
		C23.953207,0.0436163,24.4199333,0.1176603,24.784832,0.446129z"/>
	<path fill="#282728" d="M12.399621,1.114756c0.3729277-0.1119522,0.63657-0.4484368,1.0681763-0.4398272
		c0.0543461,0.1205571-0.0197706,0.2012985-0.1013546,0.2800403c-1.1382704,0.5197092-2.0385799,1.2952857-2.804965,2.2142012
		c-0.3468399,0.1719236-0.3269196,0.6073885-0.6651688,0.785445C9.5709515,4.2850366,9.3910828,4.6961131,9.1500635,5.0738802
		C9.0286398,5.2641954,8.9577274,5.515728,8.6738873,5.5867338c0.575819-0.9967551,1.0438499-2.0493374,1.8058338-2.9496739
		c0.4999104-0.446135,0.906621-0.9796578,1.5089045-1.3315774C12.1220846,1.2275022,12.2664385,1.1845798,12.399621,1.114756z"/>
	<path fill="#343831" d="M12.399621,1.1147557c-0.7563591,0.3832537-1.2260046,1.0724112-1.9199009,1.5223056
		c0.4352283-0.6612494,1.0258255-1.1721152,1.7630892-1.5410202C12.2950764,1.1022786,12.3473482,1.1085172,12.399621,1.1147557z"/>
	<path fill="#202020" d="M22.7481823,6.3604798c-0.2700939,0.3487892-0.0875492,0.7629318-0.1985226,1.152391
		c-0.2926922,1.0271893-0.5749912,2.0253325-1.4191685,2.8147726c-0.2377357,0.2223206-0.2945995,0.5960455-0.6727943,0.7190342
		c-0.0725613,0.0235968-0.1299515,0.091608-0.2027817,0.1086988c-0.3050861,0.0715857-0.6229095-0.0019112-0.6843548-0.2770348
		c-0.1056042-0.4728365-1.2311287-0.7123709-0.4889278-1.3259201c1.3869915-1.1465712,1.468832-2.627347,1.2328339-4.0985146
		c-0.1621323-1.0107036-0.8413277-1.9024897-1.8514633-2.483495c0.0563717-0.1153738,0.1525593-0.1923983,0.2766285-0.243434
		c0.1165733-0.0154622,0.2199593,0.0203524,0.3211861,0.0677376c0.6446877,0.4916456,1.2887173,0.9839458,1.4651985,1.7989624
		c0.3674507,1.0482979,0.5035648,2.1090159,0.2119236,3.1933966c-0.0364037,0.1343479-0.0909061,0.2634616-0.1478424,0.3914256
		c-0.0877609,0.1562166-0.196743,0.303153-0.256197,0.4730177c-0.0301456,0.0695-0.0654831,0.1367693-0.1017075,0.2036495
		c-0.1361542,0.2883177-0.3633842,0.513855-0.6086636,0.7229614c-0.2435951,0.207674-0.290554,0.4178705-0.0536022,0.6527939
		c0.1108818,0.1442356,0.1847267,0.3193569,0.3850822,0.387455c0.3695526-0.0314922,0.4952354-0.3802776,0.787056-0.5097256
		c0.1766663-0.0954523,0.3022614-0.2256861,0.3356934-0.4189806c0.0512772-0.1891623,0.1794205-0.342906,0.2739849-0.5121689
		c0.128233-0.1814985,0.173769-0.4038582,0.3304901-0.5713415c0.1799564-0.1249905,0.2220345-0.3107204,0.2576351-0.5000038
		c0.0120659-0.051795,0.0289173-0.1013145,0.0480518-0.1509643c0.2309532-0.7560511,0.268259-1.5271015,0.2236843-2.3050203
		c0.0928707-0.1429238,0.1958504-0.0705338,0.2982502-0.012145c0.1714363,0.1866236,0.1226864,0.4408798,0.2332211,0.6467781
		C22.7451038,6.309979,22.7466431,6.3352299,22.7481823,6.3604798z"/>
	<path fill="#172411" d="M10.491848,3.0797791c0.7543821-0.9469535,1.6177025-1.7738603,2.8533182-2.1905127
		c0.6772432-0.4378777,1.4505119-0.5722761,2.256072-0.5974993c0.2934074-0.009187,0.5874424-0.0015991,0.8808136-0.0014881
		c0.2837887-0.0008715,0.557457,0.0655014,0.8344154,0.1093808c0.521225,0.017146,0.9875851,0.2084457,1.4572525,0.3885023
		c0.1900997,0.0993507,0.3808174,0.1980331,0.6103935,0.1942934c0.0809765,0.0065868,0.160038,0.021612,0.2370777,0.0452181
		c0.10005,0.0332004,0.1926441,0.0802402,0.2825489,0.1319776c0.1678734,0.1086462,0.3174686,0.2401726,0.4951534,0.3375102
		c0.1887722,0.1370674,0.3732185,0.2779149,0.4867325,0.4798535c0.0169449,0.0487142,0.0216885,0.0983167,0.0136147,0.1490028
		c-0.0310745,0.0771227-0.0908394,0.1219199-0.1791229,0.1344941c-0.4508781-0.1221678-0.6994534-0.5018798-1.0780125-0.7158757
		c-0.0558109-0.0431242-0.1126041-0.0856664-0.1784439-0.1156819c-0.1955185-0.057209-0.3970509,0.0414876-0.5926018-0.0184941
		c-0.1927547-0.0524395-0.3622417-0.1472658-0.5333424-0.2399417c-1.1969624-0.5275522-2.445384-0.5736701-3.7229662-0.3406448
		c-0.0531111,0.0158914-0.1072445,0.0310335-0.1600742,0.0479203c-0.2507992,0.0801522-0.5054331,0.1523597-0.74543,0.2587885
		c-0.0440493,0.0209739-0.0904503,0.0382824-0.136981,0.0538086c-0.1355572,0.0378147-0.2640028,0.0869753-0.3502817,0.1996778
		c-0.0292101,0.0353148-0.0621586,0.0668801-0.0976992,0.0965738c-0.1178885,0.0791959-0.2370081,0.1567034-0.3391619,0.2540522
		c-0.1133995,0.1004804-0.2372465,0.1868072-0.3814259,0.2466905c-0.60077,0.3543406-1.0568419,0.835124-1.4350901,1.3841031
		c-0.0294437,0.042367-0.0636044,0.0813096-0.1006184,0.1181438c-0.3395128,0.2360923-0.4725981,0.5923376-0.6374016,0.9307446
		c-0.0213642,0.05059-0.0455742,0.0991006-0.0697145,0.1484017c-0.2645845,0.6498394-0.3883801,1.3182058-0.346489,2.012722
		c0.0118818,0.19697,0.0145712,0.3971457-0.0479679,0.5910707C9.6953325,7.338511,9.5990801,7.4861579,9.417449,7.5700903
		C9.2316523,7.4072475,9.2819691,7.1906495,9.3092203,7.006053C9.455143,6.0175738,9.3811579,4.9903865,9.8967075,4.0644383
		C10.1047707,3.7411695,10.2259064,3.3734534,10.491848,3.0797791z"/>
	<path fill="#172411" d="M18.7005672,2.7510638c-0.0028229,0.1430826-0.0834064,0.2149143-0.2375641,0.2193403
		c-0.8123989-0.4190559-1.689703-0.7126286-2.6140614-0.641959c-1.8679895,0.1428123-3.4656715,0.9578121-4.0676947,2.8965623
		c-0.4835272,1.557148-0.2528734,2.9462104,0.9695549,4.1563096c0.1044521,0.1033993,0.1607695,0.2479372,0.2394485,0.3733635
		c-0.0400715,0.1086788-0.1236877,0.1544008-0.246129,0.1444788c-0.2226868-0.0962248-0.3721819-0.2660923-0.5199556-0.4378872
		c-0.027133-0.04074-0.0494423-0.0838976-0.0687103-0.1281862c-0.0752878-0.2038059-0.2167578-0.3726416-0.3466282-0.5479507
		c-0.1381359-0.1916733-0.2570982-0.3922615-0.346962-0.60744c-0.0587673-0.2135935-0.1340837-0.4223857-0.2051115-0.6328492
		c-0.2307501-1.0881581-0.0968342-2.1395202,0.3742132-3.156548c0.0288591-0.2259612,0.1466722-0.4179287,0.2755251-0.6054008
		c0.0288057-0.0451725,0.0627441-0.0875401,0.0986338-0.1281741c0.3428984-0.3279023,0.6877432-0.6547973,1.0508394-0.9653797
		c0.0926495-0.0651758,0.1953211-0.108408,0.3116913-0.1219599c0.6215267-0.1406689,1.1619682-0.5086815,1.8220196-0.5454445
		c0.1350803-0.0075235,0.2683392-0.0387325,0.4049349-0.0164037c0.2523775,0.0688994,0.5040617,0.0673707,0.7552042-0.0081359
		c0.6177387-0.0413545,1.1650009,0.1890923,1.7233887,0.3767315c0.1949863,0.1003387,0.3859787,0.207761,0.5767784,0.3157036
		C18.66712,2.7099688,18.6838417,2.7305162,18.7005672,2.7510638z"/>
	<path fill="#18240F" d="M10.0159616,11.2880335c-0.4237585,0.567502-1.0001507,0.9534445-1.7461729,0.7333956
		c-0.6760526-0.1994104-1.1235309-0.6930866-1.2911701-1.3733654c-0.0677509-0.2749367-0.0145769-0.5726099,0.1277905-0.7209587
		C7.4888453,9.5286026,7.7692614,9.073637,8.099577,8.6474562c0.0234833-0.0186415,0.0469666-0.0372849,0.0702105-0.0563164
		c0.3974342-0.1302528,0.7807102-0.0755777,1.155962,0.0747576C9.5372171,8.736516,9.3684387,8.9909687,9.5599813,9.0730495
		c0.4339552,0.263731,0.754384,0.6004314,0.8429079,1.0895624C10.3631763,10.5638609,10.5908518,11.0431595,10.0159616,11.2880335z"
		/>
	<path fill="#212121" d="M13.3485413,8.7688646c-0.3645353,0.1595592-0.5637417-0.0790215-0.6907101-0.3038502
		c-0.4089031-0.7240663-0.7361126-1.4684143-0.6342268-2.3243837c0.0302181-0.2538691,0.2481947-0.4138088,0.2532663-0.6557522
		c0.0500116-0.0509348,0.1119576-0.0788918,0.186862-0.0826607c0.0486069,0.0010529,0.0953493,0.0104499,0.1409454,0.0260549
		c0.0431728,0.0217943,0.0791655,0.0511537,0.1092434,0.0868831c0.05653,0.074492,0.1105089,0.1508346,0.1825628,0.2149124
		C13.02211,5.8291426,13.1865015,5.894886,13.231286,6.0629888c0.1067839,0.8121052-0.0158205,1.6291285,0.0712957,2.4409385
		c0.0256529,0.0560265,0.0413866,0.114295,0.0488596,0.1745319C13.3507948,8.7085762,13.3496685,8.7387209,13.3485413,8.7688646z"/>
	<path fill="#192310" d="M21.9130898,1.6554173c0.6151428-0.7067265,1.0892277-0.9037827,1.6819725-0.699122
		c0.807085,0.278667,1.3584156,0.9920298,1.2904701,1.6974922c-0.0444164,0.4611773-0.4001064,0.7622061-0.7109699,1.0821571
		c-0.1823101,0.1473458,0.1175003,0.2393882,0.0508347,0.3743443c-0.0519104,0.1412649-0.1799488,0.2023077-0.3146706,0.2573228
		c-1.1601868,0.4589252-1.652914-0.3458948-2.2291012-0.9950631c-0.1168079-0.2046921-0.1988449-0.4208789-0.251852-0.6469884
		C21.4142151,2.3015695,21.4128914,1.8823603,21.9130898,1.6554173z"/>
	<path fill="#192312" d="M18.8214855,5.9255161C19.0054722,6.0852027,19.21562,6.2261963,19.368969,6.407773
		c0.7110615,0.8419571,0.5042953,1.7561665-0.4660263,2.389473c-0.6274147,0.4095001-1.3070908,0.4513559-2.0241489,0.4051619
		c-0.153286-0.0098743-0.2538013-0.090394-0.3202286-0.2126513c0.0172195-0.0815725,0.0686779-0.1383419,0.1485863-0.1745596
		c0.1046333-0.0347223,0.2074108-0.031929,0.3067093,0.0154896c0.0361309,0.0283203,0.058403,0.064538,0.064167,0.1074286
		c0.2213001,0.1187611,0.4746284-0.0383186,0.6975594,0.0667858c0.0167007,0.0078735,0.0373383,0.0258884,0.0493889,0.021903
		c0.0508862-0.0168295,0.0499954-0.0409365,0.0001717-0.0662079c-0.0013065-0.0413189,0.008791-0.0770931,0.0321083-0.1113157
		c0.0906754-0.0738258,0.2020664-0.1173391,0.2928352-0.1887484c0.2433949-0.2060118,0.6095047-0.2562494,0.7945328-0.535141
		c0.0268993-0.0415373,0.0565548-0.0809984,0.0861397-0.1206646c0.2758427-0.4045634,0.3404713-0.8026824-0.0380688-1.1884565
		c-0.119112-0.0904717-0.241621-0.1778979-0.3310966-0.2961988c-0.0399017-0.0584006-0.0686474-0.122025-0.098135-0.1851158
		c-0.046093-0.1029315-0.1548252-0.1846671-0.1295414-0.3129449c0.0534077-0.0909863,0.1345139-0.1445541,0.247364-0.1556683
		C18.7354927,5.8710899,18.7825546,5.8902016,18.8214855,5.9255161z"/>
	<path fill="#1A2316" d="M12.276022,10.9586792c-0.2850103,0.233346-0.3382959,0.4111824,0.0755968,0.6016045
		c0.2405853,0.1106863,0.462347,0.308259,0.5460911,0.6626072c-0.3106022-0.0841656-0.3330908-0.4507923-0.643198-0.3784065
		c-0.0717421,0.0522518-0.1466227,0.0459929-0.2232647,0.0107279c-0.1829481-0.1692162-0.3665056-0.3380451-0.6226997-0.4156351
		c-0.1918888-0.1087561-0.331955-0.2618065-0.4456854-0.4375153c-0.5240307-0.3745785-0.4028358-1.0541391-0.8345165-1.4823179
		c-0.1893511-0.1878157-0.411499-0.4084988-0.2831154-0.7220697c0.0931978-0.1028271,0.1995249-0.0604086,0.3056774-0.0242939
		c0.0747519,0.0345821,0.1365795,0.0835772,0.1870146,0.1445436c0.1097984,0.1602802,0.208725,0.3288593,0.3800478,0.4456921
		c0.2340994,0.2319288,0.4238567,0.4920931,0.5826149,0.7719374c0.0820684,0.2296782,0.2744141,0.3866186,0.4409313,0.5602388
		c0.1041288,0.1235733,0.2659636,0.1319733,0.4110079,0.1737614C12.2027845,10.8886662,12.2433472,10.9191046,12.276022,10.9586792z
		"/>
	<path fill="#8601F8" d="M18.7377815,6.4597797c0.106678,0.0772362,0.2133541,0.1544724,0.3200321,0.2317085
		c0.3704567,0.4766307,0.3160267,0.9570603,0.0152168,1.4396935l0.0077877-0.0091133
		c-0.905611,0.7868309-1.9211617,0.8928604-3.1391687,0.3277473c-0.1848812-0.1056604-0.1443186-0.2251062-0.0252514-0.3493528
		c0.1099863-0.0341492,0.1614561-0.1597233,0.2934542-0.1594343c0.058033,0.0027084,0.1129265,0.0166802,0.1640224,0.0422549
		c0.523737,0.3982387,1.3250484,0.4515519,1.9261608,0.1272101c0.4164391-0.224699,0.6163616-0.6225381,0.4754982-0.9554086
		c-0.1840305-0.4348736-0.5399933-0.4867954-0.9729252-0.3613076c-0.2426109,0.0258269-0.4584312-0.0083141-0.5952892-0.221786
		c-0.0488987-0.1301751-0.0395031-0.2514391,0.0640392-0.358634C17.8145676,6.0209184,18.2948456,6.1464987,18.7377815,6.4597797z"
		/>
	<path fill="#1F222F" d="M18.4626789,6.0342135c0.0768757,0.0778136,0.1537533,0.1556273,0.230629,0.2334404
		c-0.4153919,0.0889602-0.8054676-0.1048193-1.218401-0.0925679c-0.1975956,0.0058627-0.3046398-0.1646795-0.2764702-0.3508573
		c0.0371227-0.245347,0.2097569-0.3968735,0.4757729-0.4038987c0.2738113-0.0072312,0.548399,0.0283985,0.8244781,0.0243912
		c0.2740631-0.0039792,0.3912048-0.118125,0.3845711-0.3672671c-0.0062485-0.2345533-0.1432877-0.3209081-0.377203-0.3123469
		c-0.6254635,0.022893-1.2559128-0.0804911-1.8751831,0.0638628c-0.037981,0.0415678-0.0751896,0.0833435-0.108139,0.1281877
		c-0.166523,0.2598662-0.1615715,0.5470414-0.1699257,0.8345804c-0.0060768,0.2092309,0.0377026,0.4379654-0.1884575,0.5909867
		c-0.0681801,0.0115204-0.1278591-0.0037203-0.1803102-0.0452614c-0.250576-0.4831338-0.1161423-0.9422736,0.1024694-1.3961501
		c0.0783463-0.1463065,0.1566944-0.2926135,0.2350388-0.43892c0.9119244-0.1781816,1.8239307-0.1734853,2.7360153-0.0010471
		c0.1852856,0.4010677,0.1878986,0.8020759-0.0004635,1.2030215c-0.035059,0.0406342-0.0783043,0.0712123-0.1305447,0.0905223
		C18.5565147,5.8802161,18.16572,5.7774043,17.8067265,5.897541c0.1522026,0.0130854,0.2987976-0.0033903,0.443018,0.0221601
		C18.3343449,5.9364653,18.4097023,5.9679179,18.4626789,6.0342135z"/>
	<path fill="#17240C" d="M15.2178955,8.7428694c-0.3714046-0.1127739-0.3166761-0.297576-0.317317-0.4474144
		c-0.0045872-1.0730309-0.0046091-2.1460953,0.0003195-3.2191243c0.0006828-0.1484952-0.0482941-0.3947439,0.1942806-0.3667169
		c0.2213593,0.0255752,0.1471844,0.253036,0.113946,0.4125576c-0.1652536,0.7931247-0.088603,1.5951824-0.0482435,2.3890209
		C15.1808243,7.90347,15.0293465,8.2851257,15.2178955,8.7428694z"/>
	<path fill="#7A05DD" d="M12.8621264,4.7013698c0.5235481-0.1384702,1.0580931-0.0451779,1.5871582-0.0575957
		c0.3444786-0.0080838,0.3345385,0.2377086,0.3335581,0.4659348c-0.0049257,1.1470175-0.0062437,2.2940478-0.008831,3.4410744
		c-0.0750494,0.0130138-0.1356211-0.0084839-0.1820745-0.0642433c-0.0380459-0.0545816-0.0636377-0.1138363-0.0781183-0.1771736
		c-0.050478-0.8518624-0.0084257-1.7047606-0.0250139-2.5571699c-0.0041933-0.2155218,0.038126-0.4367433-0.07026-0.641892
		c-0.3945541-0.268434-0.8525171-0.065228-1.2722921-0.1443672c-0.1004181-0.0112514-0.1925192-0.0413537-0.2730141-0.0988431
		C12.8234606,4.8144574,12.8198776,4.7591715,12.8621264,4.7013698z"/>
	<path fill="#1E221C" d="M9.967473,12.3801327c0.8555603-0.1659241,1.7095728-0.1978302,2.5609446,0.1679583
		c-0.8490448,0-1.6980906,0-2.5471354,0C9.9766788,12.4921045,9.9720764,12.4361191,9.967473,12.3801327z"/>
	<path fill="#182412" d="M7.7617393,8.4437799c-0.1504216,0.0205679-0.2175341,0.2217627-0.469059,0.1411924
		c0.4227934-0.6602483,0.837606-1.3080335,1.252418-1.9558191C8.5791216,6.6408648,8.6131458,6.6525774,8.6471691,6.664289
		c-0.015996,0.1622686-0.0319929,0.3245378-0.0479898,0.4868069c0.1183214,0.1548214,0.012887,0.2896051-0.0438251,0.4291153
		c-0.1348772,0.2422061-0.266017,0.4869781-0.4696836,0.6899381C7.9920478,8.3502407,7.9329338,8.4863567,7.7617393,8.4437799z"/>
	<path fill="#17240B" d="M21.9151897,0.2369559c0.0378876-0.0002489,0.0757656,0.0001752,0.1135902,0.0013239
		c0.0255756,0.2438572-0.231554,0.286802-0.3560257,0.4239838c-0.6042233,0.3010649-1.2415848,0.1372878-1.8692646,0.1140127
		c-0.0746117-0.0227409-0.1460781-0.0531129-0.2070961-0.0990576c-0.1078453-0.0812-0.2313633-0.1775262-0.1623917-0.312866
		c0.0548306-0.1075926,0.2060966-0.07234,0.3189144-0.0728351c0.6270351-0.0027522,1.2540874-0.0009417,1.881134-0.001348
		C21.7318592,0.290106,21.830328,0.2942999,21.9151897,0.2369559z"/>
	<path fill="#092903" d="M16.3366985,7.442688c-0.0923557-0.0960979-0.269989-0.1344643-0.2469997-0.3086514
		c0.5906925-0.2641892,1.1885357-0.2002811,1.789135-0.0337429c0.0639133,0.0351653,0.1165333,0.0814648,0.1588745,0.1377869
		c0.1077404,0.2835793-0.0248547,0.4891415-0.3129921,0.5361362C17.2205601,7.8564425,16.6972961,7.9105568,16.3366985,7.442688z"/>
	<path fill="#17250A" d="M19.0575638,4.5013461c-0.9120064,0.0003448-1.8240128,0.00069-2.7360172,0.0010414
		c0.0199013-0.1532083,0.1177254-0.2179914,0.2811241-0.2177372c0.6923656,0.0010762,1.3847389,0.000227,2.0771084-0.0001044
		C18.8550129,4.284462,18.9823303,4.3543482,19.0575638,4.5013461z"/>
	<path fill="#7B06D3" d="M7.7617393,8.4437799C7.837492,8.3674335,7.9132442,8.2910891,7.988997,8.2147436
		c0.1421733,0.0387907,0.28054,0.0930691,0.4333863,0.0882931c0.1537781,0.0001516,0.3072033,0.0043631,0.4589014-0.0100956
		c0.323967-0.234848-0.0736694-0.4970403,0.032155-0.7389326C8.9098825,7.3332195,8.9202566,7.1109891,8.812068,6.9041524
		c0.0208139-0.0897713,0.0509386-0.1864753,0.1736298-0.1723962c0.151372,0.0173717,0.1493187,0.1427016,0.1569023,0.2463675
		c0.0296946,0.4059386-0.0082235,0.8227592,0.237627,1.1921301c0.065217,0.0304003,0.10571,0.078433,0.1217203,0.1440458
		c0.0104103,0.2695599-0.1498652,0.3401766-0.4132891,0.3147879C8.7593174,8.5973482,8.4279184,8.564167,8.1009741,8.6519432
		c0,0-0.0013428-0.0044165-0.0013704-0.0044518C7.930213,8.6591978,7.7653179,8.6646719,7.7617393,8.4437799z"/>
	<path fill="#18240E" d="M24.5314732,4.2842932c0.116951,0.0745888,0.1404934,0.1764488,0.0718575,0.2835169
		c-0.339159,0.5290661-0.6816082,1.0563803-1.0285759,1.5811372c-0.0406857,0.061532-0.0783901,0.2028084-0.2009716,0.0913877
		c-0.0403442-0.0366712-0.0118561-0.1374044-0.014843-0.2088432c0.0493736-0.2046585,0.1767807-0.3847976,0.2183781-0.5921369
		c0.0270538-0.0950551,0.0743618-0.1795044,0.1511822-0.2486196c0.1624794-0.1246996,0.2618866-0.2868462,0.3268166-0.4693689
		c0.0379028-0.0901341,0.0898724-0.1725583,0.1581936-0.2460799C24.3026142,4.3881545,24.3922462,4.301044,24.5314732,4.2842932z"/>
	<path fill="#172412" d="M22.0092812,0.988869c0.0952473-0.0810139,0.1904964-0.1620275,0.3227024-0.2744777
		c0.0147476,0.4166366-0.3954277,0.5530301-0.5376358,0.8327722c-0.1203461,0.1919777-0.0799885,0.4685581-0.3592834,0.5771644
		c-0.1511135-0.0644629-0.2129993-0.1820101-0.2307987-0.3261247c-0.0102062-0.1631006,0.0480042-0.3130025,0.1068535-0.4627087
		c0.0766735-0.1627008,0.1790733-0.304141,0.3726635-0.3655413C21.7891521,1.0116355,21.9016628,0.964765,22.0092812,0.988869z"/>
	<path fill="#17240C" d="M16.0865097,4.9413128c0.1154766,0.4713235-0.2922144,0.9364471-0.0197468,1.4096313
		c0.0472565,0.1982446,0.0835419,0.3946652-0.1087227,0.5530772c-0.5281801-0.0175228-0.0856905-0.3854856-0.230979-0.5412431
		c0.1685743-0.5024219-0.0447693-1.0297728,0.1182442-1.532558C16.0377712,4.6614156,16.0597095,4.8058271,16.0865097,4.9413128z"/>
	<path fill="#25202D" d="M16.3366985,7.442688c0.3822479,0.143661,0.762394,0.268558,1.1930428,0.2390132
		c0.3206215-0.0219951,0.4743366-0.1368651,0.4545803-0.4338112c0.3932362,0.1363511,0.2131138,0.3486166,0.0878868,0.5539799
		c-0.3753738,0.2840199-0.7995262,0.2735724-1.2135696,0.1181912c-0.3067856-0.1151304-0.590641-0.1202698-0.8895731-0.0160794
		c-0.0066118-0.0407553-0.0132246-0.0815115-0.0198345-0.1222672c-0.059206-0.0762053-0.0567656-0.1479096,0.0184908-0.2142992
		C16.0907154,7.5258398,16.213707,7.4842634,16.3366985,7.442688z"/>
	<path fill="#8802EF" d="M15.9416494,8.4498158c0.3932695-0.0647602,0.7231264,0.1529875,1.0901899,0.2074327
		c0.7753773,0.1150074,1.4279861-0.1557798,2.0488644-0.5351963c-0.1331291,0.3878927-0.571106,0.4231148-0.861105,0.6295834
		c-0.7844009,0.2332916-1.5400639,0.216279-2.2477894-0.2183075C15.9657364,8.5042744,15.9556818,8.4764366,15.9416494,8.4498158z"
		/>
	<path fill="#172410" d="M12.276022,10.9586792L12.2167492,10.9586l-0.0592728,0.0000458
		c-0.0836554-0.1199474-0.0201321-0.2362518,0.0090122-0.3537264c0.015893-0.0469046,0.0387974-0.0909901,0.0655107-0.1334343
		c0.2015505-0.186492,0.3253317-0.4322081,0.5420647-0.6075621c0.0720596-0.0364122,0.1441202-0.0728254,0.2161827-0.1092405
		c0.3185968,0.3459711-0.0695686,0.5462036-0.2164869,0.7734499C12.661871,10.7011957,12.4457626,10.8172569,12.276022,10.9586792z"
		/>
	<path fill="#16250A" d="M14.7709961,4.5012321C14.0988894,4.5010481,13.4267845,4.500864,12.7546787,4.50068
		c0.0212612-0.3882341,0.3643961-0.2963586,0.5647545-0.2578001C13.8020124,4.3357511,14.3937607,3.9335277,14.7709961,4.5012321z"
		/>
	<path fill="#471477" d="M22.0092812,0.9888692c-0.0712643,0.0110719-0.1288033,0.1302249-0.2150764,0.023105
		c-0.0343914-0.0301247-0.063282-0.0642437-0.0883121-0.0992908c-0.5107288,0.0012106-1.0204163,0.0242074-1.5302296,0.0111693
		c-0.2004471-0.0051261-0.4012527-0.0196238-0.5169868,0.1787331c-0.0730133-0.0012244-0.1460266-0.0024488-0.219038-0.0036732
		c-0.055809-0.0388523-0.0939121-0.0890695-0.1145763-0.1506726c-0.0175629-0.3147791,0.1458397-0.3913212,0.4466-0.286782
		c0.633707,0.0003126,1.2674179,0.0006251,1.9011078,0.0008717C21.9090424,0.6629467,22.0798512,0.7207051,22.0092812,0.9888692z"/>
	<path fill="#17240C" d="M14.7746401,8.8789263c-0.0401154,0.3798075-0.352581,0.3316345-0.6241808,0.325141
		c-0.2792683-0.0066776-0.6307869,0.09307-0.6845789-0.3245211c0.0504856-0.04772,0.1094723-0.083621,0.17665-0.1084566
		C14.028224,8.7312622,14.4195395,8.6453371,14.7746401,8.8789263z"/>
	<path fill="#291F37" d="M13.5855827,8.8747797c-0.0399017,0.0015879-0.0798025,0.0031748-0.1197023,0.0047646
		c-0.0391245-0.0368853-0.0782509-0.0737734-0.1173573-0.1106701c0.0000181-0.0000095-0.0019751,0.0009356-0.0019751,0.0009356
		c-0.2225428-0.4306555-0.0975313-0.8884377-0.112422-1.3333578c-0.0174713-0.5220761-0.0218449-1.0456357,0.0082235-1.5681911
		c0.0401974-0.1005225,0.0899248-0.1899004,0.2344036-0.166122c0.1952734,0.1974893,0.1472826,0.4439988,0.1518755,0.676713
		c0.0140247,0.7108002-0.015481,1.4219589,0.0183239,2.1324644c0.0154209,0.0627823,0.0224705,0.1265068,0.0224276,0.1908598
		C13.6585398,8.7665663,13.6304264,8.8241291,13.5855827,8.8747797z"/>
	<path fill="#212121" d="M14.7709961,4.5012321c-0.4084969-0.316371-1.6056767-0.31668-2.0163527-0.0005364
		c-0.0817127,0.0377116-0.1634598,0.0754399-0.2452068,0.1131682c-0.0609961,0.0661159-0.0964441,0.1783967-0.2325115,0.1088529
		c0.1607618-0.4088244,0.4597092-0.5924516,0.9472771-0.5555201c0.4135294,0.0313239,0.8327637-0.0061326,1.2480364,0.0130882
		C14.6581745,4.1888905,14.9702044,4.1615787,14.7709961,4.5012321z"/>
	<path fill="#172411" d="M9.400528,8.2198429C9.3766012,8.2089815,9.3699303,8.1922874,9.3803711,8.1700068
		C9.3926582,7.9701686,9.4050903,7.770082,9.4174852,7.5700436c0.0043173-0.1593142,0.0826206-0.2727513,0.2451115-0.3339067
		c0.3629837,0.220571,0.2795057,0.5634117,0.2864294,0.8819699C9.8290567,8.2590761,9.8088551,8.4565964,9.6463966,8.5741901
		C9.3727856,8.5685072,9.5674171,8.288167,9.400528,8.2198429z"/>
	<path fill="#8802EF" d="M15.9690657,7.9039817c0.170579-0.2554674,0.3366003-0.3932667,0.7001543-0.1926551
		c0.4028854,0.2223153,0.8665752,0.2315464,1.3113899,0.0403328c0.0656815,0.3134527-0.1859837,0.3544397-0.4147701,0.3825808
		c-0.29076,0.0357656-0.5847435,0.0285378-0.8629227-0.0775623c-0.1655502-0.0232754-0.3083858-0.2326651-0.5009308-0.0526438
		c-0.0951061,0.0321445-0.1902122,0.06429-0.2854548,0.0964327C15.9339514,8.0349693,15.9515076,7.9694757,15.9690657,7.9039817z"/>
	<path fill="#25202D" d="M15.9580402,6.9040213c0.0250521-0.1861916-0.0564413-0.3901386,0.1088257-0.5530105
		c-0.000103-0.0000668,0.0423069,0.0286655,0.0423069,0.0286655c0.1307354,0.4150281,0.437952,0.5362692,0.8870087,0.4993787
		c0.2860985-0.0235033,0.5920181-0.0573382,0.862402,0.0990462c0.0730286,0.0763588,0.0839081,0.1590538,0.0301037,0.2482529
		c-0.5907211-0.1786904-1.1996117-0.0583086-1.7990513-0.0923896C15.9867764,7.0859518,15.9665298,6.9978333,15.9580402,6.9040213z"
		/>
	<path fill="#232026" d="M15.9718103,8.5333281c0.7310781,0.2311382,1.4813318,0.2952957,2.2477903,0.2183294
		c-0.0681419,0.1508636-0.2154446,0.1252146-0.348175,0.1320591c-0.2797909,0.1479321-0.5595989,0.1478624-0.8394203,0.0000753
		c-0.1189651-0.0003777-0.2379303-0.0007544-0.3568935-0.0011311c-0.2901573,0.0702429-0.5350494,0.0178785-0.7107267-0.2219744
		C15.9668617,8.6182337,15.9693365,8.5757809,15.9718103,8.5333281z"/>
	<path fill="#19240F" d="M15.9677219,7.5674152c-0.0060778,0.071434-0.0121546,0.142869-0.018362,0.2143011
		c-0.1412506,0.2285128-0.2823706,0.4570284-0.4193611,0.678854C15.3456736,8.1354818,15.5417814,7.7227697,15.9677219,7.5674152z"
		/>
	<path fill="#2B1D3A" d="M22.8805618,6.3538489c-0.0441399,0.0022249-0.0882797,0.0044494-0.1323986,0.0066528
		c0.0000191-0.0000219-0.003664,0.0010052-0.003664,0.0010052c-0.1596699-0.4388471-0.1859245-0.902247-0.2948799-1.3509512
		c0.001339-0.0845151,0.0329971-0.1595373,0.0830898-0.2293339c0.0367699-0.0481529,0.0867615-0.0765753,0.1499176-0.0860596
		c0.061388,0.0179191,0.1091709,0.0517569,0.1445122,0.1012216c0.1156731,0.2417588,0.1832504,0.4939513,0.1961708,0.7584982
		C23.0166092,5.8274798,23.0372696,6.1041899,22.8805618,6.3538489z"/>
	<path fill="#18240F" d="M9.8948088,11.7238255c0.0798111-0.109149,0.1596222-0.2182989,0.2394323-0.3274488
		c0.1223326-0.1920977,0.0955219-0.4547691,0.3318338-0.5931234c0.2750893,0.0469246,0.1623907,0.2339239,0.1640186,0.3804626
		c-0.025136,0.1332188-0.0742989,0.2587852-0.144062,0.3778944c-0.0928926,0.141386-0.1969414,0.2723703-0.3773565,0.3289576
		C9.9973087,11.8787565,9.8530254,11.9020662,9.8948088,11.7238255z"/>
	<path fill="#610CAC" d="M11.9190769,12.1625299c-0.4883041,0.0045881-0.9766169,0.0128593-1.4649076,0.0118294
		c-0.1787119-0.0003767-0.4220762,0.0780706-0.4153137-0.223423c0.0465727-0.0312681,0.0986261-0.045146,0.1562672-0.0421572
		c0.1709547-0.0016127,0.3416767,0.0111685,0.5130348,0.0019007c0.3066559,0.0001211,0.6130161-0.0113058,0.9195213,0.0064039
		c0.0972824,0.0101109,0.1878862,0.0369577,0.2687407,0.0888586C11.9513798,12.0523052,11.9588251,12.1045742,11.9190769,12.1625299
		z"/>
	<path fill="#122604" d="M12.2769251,4.7227168c0.0775385-0.0363059,0.1550798-0.0726128,0.2325659-0.1088862
		c0.0014668,0.0357075,0.0030336,0.0713797,0.0046473,0.1070495c0.2062902,0.2553406,0.2074413,0.5106583-0.0001011,0.7659526
		c-0.0790625-0.0006361-0.1581249-0.0012712-0.2371759-0.0019302C12.2768888,5.2308245,12.276907,4.9767709,12.2769251,4.7227168z"
		/>
	<path fill="#212024" d="M24.5314732,4.2842932c-0.0763435,0.072917-0.152689,0.145834-0.2290344,0.2187505
		c-0.1006966-0.0292983-0.1939449-0.0727081-0.2826939-0.1250916c-0.0440273-0.0281258-0.0767117-0.0650592-0.0987206-0.1099844
		c0.0842571-0.0680733,0.1685162-0.136147,0.2527733-0.2042208c0.0589294-0.0733848,0.0999107-0.1796837,0.2371769-0.1094162
		C24.7233467,3.9802215,24.595623,4.1420774,24.5314732,4.2842932z"/>
	<path fill="#1D221B" d="M10.491848,3.0797791c-0.1127596,0.3719993-0.311842,0.6998594-0.5951433,0.9846563
		C9.896575,4.0278316,9.8964424,3.9912252,9.8963099,3.954617C10.0602636,3.6431012,10.0667171,3.2408834,10.491848,3.0797791z"/>
	<path fill="#192316" d="M10.4922123,10.8484249c-0.1913013,0.1428699-0.1295986,0.4255667-0.3579693,0.5479507
		c-0.0394325-0.0361233-0.0788612-0.0722475-0.1182861-0.1083565c0.3607941-0.3548203,0.2041855-0.7963295,0.2387819-1.2058067
		C10.6799269,10.2468891,10.4499731,10.5833406,10.4922123,10.8484249z"/>
	<path fill="#9402F4" d="M23.2793064,5.9325442c-0.0497799,0.0452628-0.0995598,0.0905252-0.1493416,0.1357875
		c-0.2673111,0.0029306-0.1822662-0.1829929-0.1992245-0.314167c0.0983982-0.2394652,0.032835-0.639102,0.5462551-0.4742632
		c0.1141911,0.1985288-0.0227737,0.3584547-0.0962734,0.5283947C23.3514214,5.8525968,23.3172836,5.8939128,23.2793064,5.9325442z"
		/>
	<path fill="#1C221A" d="M15.8453054,4.8302202c-0.0590372,0.5095696,0.1294756,1.0352988-0.1182499,1.5325546
		C15.7854929,5.8531671,15.5948696,5.3272991,15.8453054,4.8302202z"/>
	<path fill="#1A2314" d="M21.4381943,2.0941761c0.1883469-0.1439866,0.1295242-0.4241177,0.3561573-0.5470134
		c0.0395794,0.0360951,0.0791626,0.0721898,0.118742,0.1082697c-0.2638454,0.3254601-0.3924179,0.6881949-0.3569069,1.0961274
		C21.1502342,2.5881009,21.2651005,2.3455591,21.4381943,2.0941761z"/>
	<path fill="#122505" d="M15.964385,8.6606865c0.2369375,0.0739679,0.473876,0.1479359,0.7107706,0.2219381
		c-0.038887,0.0357265-0.0777302,0.0714159-0.1165829,0.1071186c-0.2767677,0.0392342-0.5164146-0.0493069-0.6988993-0.2260942
		C15.7579393,8.6650896,15.9093857,8.681057,15.964385,8.6606865z"/>
	<path fill="#7A08CF" d="M12.8621264,4.7013698c0.0038071,0.0441041,0.0076122,0.0882087,0.0114193,0.1323128
		c0.0625334,0.2763982,0.5002537,0.3676095,0.4171047,0.7164721c-0.2058868,0.0845251-0.4005165,0.0877094-0.5745373-0.0644617
		c-0.1106653-0.260488-0.1363182-0.5176554,0.0334854-0.7675672C12.7848635,4.6997819,12.8223715,4.6941967,12.8621264,4.7013698z"
		/>
	<path fill="#560F99" d="M22.9996357,5.7008052c-0.0143738,0.139833-0.0322914,0.2807293,0.1303062,0.3675103
		c-0.0067253,0.1517496-0.0196686,0.298903-0.2494812,0.2855945c-0.0017548-0.2914414-0.0036087-0.5828218-0.0054626-0.8742018
		c0.0497265-0.0286474,0.0968494-0.025394,0.1414223,0.0097461C23.0448647,5.5621915,23.0490723,5.6333055,22.9996357,5.7008052z"/>
	<path fill="#5A0E9A" d="M13.5866032,8.7657108c-0.0092049-0.0277348-0.0182257-0.055522-0.0270605-0.0833588
		c0.0170279-0.022541,0.0340576-0.0450811,0.0508747-0.0678806c0.3103914-0.140521,0.6380911-0.0894976,0.9627113-0.0734301
		c0.0291824,0.0045776,0.0583506,0.0095167,0.0875206,0.0144558c0.0377302-0.0027676,0.0755177-0.0043392,0.1133642-0.004714
		c-0.0036058,0.0672741-0.0072088,0.1345472-0.0108109,0.2018204C14.3725739,8.8763285,13.9799805,8.8507652,13.5866032,8.7657108z"
		/>
	<path fill="#2D1D3B" d="M13.5866032,8.7657108c0.3922462-0.0042973,0.7844925-0.0085936,1.1766682-0.0129995
		c0.0037413,0.0420027,0.0075541,0.0841141,0.0113688,0.1262197c-0.3963585-0.0013523-0.7927151-0.0026999-1.1890659-0.0040989
		C13.5853415,8.8384199,13.5856829,8.802063,13.5866032,8.7657108z"/>
	<path fill="#8403E8" d="M8.812067,6.9041524C9.2497444,7.013207,8.9825459,7.3399181,9.0523863,7.5625548
		C8.7030506,7.5846348,8.960783,7.2245002,8.7500248,7.1583281C8.7326431,7.1468649,8.7168083,7.1354318,8.7009735,7.1239982
		C8.7380047,7.0507159,8.7750359,6.9774342,8.812067,6.9041524z"/>
	<path fill="#192315" d="M23.2793064,5.9325442c-0.0205555-0.0242281-0.0347652-0.0512781-0.0426235-0.0811491
		c0.1729164-0.1105356,0.172945-0.378211,0.4365463-0.4063244c0.0182247,0.2513514-0.0892086,0.4456902-0.3144264,0.5864744
		C23.3323956,5.9985089,23.3058529,5.9655266,23.2793064,5.9325442z"/>
	<path fill="#152506" d="M19.3396473,4.6172667c0.1070499,0.3174214,0.0819874,0.5245676,0,0.7361555
		C19.3396473,5.1536794,19.3396473,4.9539371,19.3396473,4.6172667z"/>
	<path fill="#192316" d="M10.1342192,11.9431133c-0.0317173,0.0040913-0.0635796,0.0066833-0.0954742,0.007802
		c-0.1365738-0.0198536-0.2330551,0.2291336-0.3382807,0.0980473c-0.1144562-0.1425867,0.0531797-0.2519093,0.1943645-0.3251286
		c0.0492296,0.0868635,0.135355,0.1078606,0.232089,0.1099062c0.0237856,0.0230541,0.0327902,0.0469398,0.0270309,0.0716639
		C10.1480923,11.9305429,10.1415205,11.9431133,10.1342192,11.9431133z"/>
	<path fill="#620BAF" d="M11.9190769,12.1625299c-0.0001335-0.0306969-0.0004187-0.0613937-0.0008554-0.0920877
		c0.0135984-0.0769072,0.0484066-0.1478453,0.0732002-0.2217674c0.0127535-0.0155096,0.0259953-0.0307159,0.039238-0.0459232
		c0.0746717,0.0138826,0.1493435,0.0277662,0.2239342,0.0416908C12.5835962,12.3438826,12.1255322,12.1409597,11.9190769,12.1625299
		z"/>
	<path fill="#1A2314" d="M24.4109745,3.95433c-0.0790558,0.0364752-0.1581116,0.0729504-0.2371731,0.1094213
		c-0.2218418-0.1097059-0.3522015-0.219229,0.0007553-0.3278077C24.2533665,3.8087392,24.3321724,3.8815348,24.4109745,3.95433z"/>
	<path fill="#4D1484" d="M12.7496004,4.7181258c0.003705,0.2533436,0.007411,0.5066876,0.0111141,0.7600312
		c-0.0394602,0.0415974-0.0803747,0.0428438-0.1227398,0.0037374L12.633153,5.4867258
		c-0.0909758-0.2552943-0.0904779-0.5106144-0.0002575-0.7659602C12.6716328,4.7137489,12.7105341,4.7128692,12.7496004,4.7181258z"
		/>
	<path fill="#242130" d="M12.6328955,4.7207656c0.0000811,0.2553225,0.0001631,0.5106449,0.0002499,0.7659636
		c-0.0396996,0.0000324-0.0794048,0.0000682-0.1191101,0.0001035c0.0000305-0.2553196,0.000062-0.5106397,0.0000982-0.7659559
		C12.5537243,4.7207556,12.5933094,4.7207179,12.6328955,4.7207656z"/>
	<path fill="#16240D" d="M18.9348984,5.710103c0.0407391-0.0019002,0.08148-0.0037999,0.1222115-0.0057173
		c0.1651325,0.2933912-0.1125126,0.1876059-0.2356415,0.2211189c-0.0401955-0.0003405-0.08041-0.0006924-0.1206226-0.0010443
		C18.6293945,5.7149434,18.8783951,5.8014297,18.9348984,5.710103z"/>
	<path fill="#8403E8" d="M8.4150724,7.5572414C8.476428,7.421833,8.5377836,7.2864256,8.5991592,7.1510563
		C8.63381,7.1442776,8.6677446,7.1352477,8.7009792,7.124002c-0.0000048-0.0000038,0.016675,0.0117483,0.016675,0.0117483
		C8.8434153,7.413878,8.8118324,7.5964479,8.4150724,7.5572414z"/>
	<path fill="#222124" d="M19.7716618,0.661458c-0.2534847-0.0073367-0.396265,0.08459-0.3585873,0.3383235
		c-0.2122784,0.0308771-0.3885155-0.1045313-0.5931835-0.1087659c-0.5353813-0.0304902-0.9795094-0.4214757-1.5455189-0.330964
		c-0.0560112-0.1033533-0.1960411-0.1804485-0.1200829-0.3250469c1.5869598,0.0006308,3.1739197,0.0012615,4.7608891,0.0019217
		c-0.4994335,0.233605-1.0320492,0.0576046-1.5472202,0.1023848c-0.2819939,0.0245121-0.5685749,0.0043807-0.8497601,0.0043807
		C19.5105953,0.5622861,19.7191715,0.5479459,19.7716618,0.661458z"/>
	<path fill="#1D2218" d="M16.559948,0.342344c-1.127121-0.0938408-2.1773052,0.194869-3.2147636,0.5469358
		c0.0408478-0.0714829,0.0817127-0.1429522,0.1225948-0.2143862c0.7203503-0.3856226,1.5072575-0.472081,2.3218536-0.4425688
		c0.2561207,0.0092789,0.5129414,0.0021314,0.7694435,0.0025022c0.0391273,0.0236257,0.0522614,0.0474125,0.039526,0.0714156
		C16.5858383,0.3302921,16.5729942,0.342344,16.559948,0.342344z"/>
	<path fill="#1F221D" d="M16.559948,0.3423442c-0.0003757-0.0358457-0.0006618-0.0716919-0.0008678-0.1075279
		c0.1984005,0.0000616,0.396801,0.0001124,0.5952072,0.0001757c0.0400219,0.1083781,0.0800419,0.2167435,0.1200733,0.3250844
		C17.0362301,0.4874825,16.79809,0.4149133,16.559948,0.3423442z"/>
	<path fill="#313131" d="M20.8407536,10.1921129c-0.2043915,0.1699448-0.4082413,0.3404455-0.613409,0.5095978
		c-0.1016407,0.0837965-0.2008743,0.2014704-0.3364868,0.038063c-0.1064358-0.1543274-0.245348-0.286211-0.356945-0.4369698
		c-0.4097805-0.2110443-0.4516029-0.4468412-0.0868359-0.7456398c0.2739697-0.2244196,0.5506268-0.4551687,0.6853294-0.7860546
		c0.2425804-0.0243359,0.226532-0.2328062,0.3103771-0.3702736c0.1869183-0.1471434,0.1559887-0.3678961,0.2220116-0.5559516
		c0.0141525-0.1552138-0.0420856-0.3227687,0.0960255-0.4556961c0.2992268-0.843317,0.1701069-1.6578288-0.194315-2.4565129
		c-0.1832485-0.0973902-0.0872173-0.3047113-0.2000446-0.4298711c-0.2275333-0.7304895-0.8397884-1.1780515-1.4283142-1.6430612
		c-0.0955887-0.1252515-0.047554-0.2132621,0.0850201-0.2794211c0.1945572-0.0544248,0.348175,0.0268309,0.488121,0.1344719
		c1.275095,0.9807482,1.9429932,2.2920887,2.0002193,3.7636173c0.0412712,1.0612864-0.4030533,2.0972466-1.1085339,2.991941
		c-0.1175613,0.1490917-0.3129978,0.274518-0.2799473,0.6201496c0.5659542-0.5596333,0.996254-1.0851355,1.181284-1.7405434
		c0.4502926-1.5950227,0.4617176-3.1609139-0.450737-4.6487532c-0.3665066-0.5976279-0.8792877-1.0688286-1.4712124-1.4752281
		C19.31707,2.0611761,19.3774929,1.9548576,19.5585117,1.904955c0.0583496-0.0074198,0.1169453-0.0048174,0.1746273,0.0065229
		c0.4391308,0.2344159,0.7311573,0.6163286,1.0934238,0.9281031c0.0357246,0.0360448,0.0671787,0.0755768,0.0963554,0.1162283
		c0.0963745,0.1682246,0.2450886,0.3022377,0.3616848,0.4576807c0.1236248,0.2108436,0.2367535,0.4265683,0.3512535,0.6421072
		c0.0718956,0.1935267,0.1552105,0.3824663,0.2542534,0.5667539c0.0258541,0.0527859,0.0439816,0.1067157,0.0578079,0.1628699
		c0.3229237,1.1312594,0.3461533,2.2576609-0.0238552,3.3864212c-0.1195927,0.3648405-0.4044189,0.6586046-0.4868469,1.0348415
		c-0.0795288,0.1821232-0.1590557,0.3642454-0.2385845,0.5463676C21.0901527,9.9067249,20.9485912,10.037797,20.8407536,10.1921129z
		"/>
	<path fill="#303030" d="M21.4372158,9.2064838c0.013628-0.5711088,0.4130726-1.0336227,0.4988899-1.6001315
		c0.1402512-0.9258385,0.1379776-1.8250818-0.13064-2.7253294c-0.0252342-0.0845737-0.007967-0.1798754-0.0104351-0.2701964
		c0.4249992,0.1136904,0.34869,0.4889164,0.4707203,0.7615819c-0.0186653,0.8656354,0.0447216,1.7357039-0.1753864,2.5899177
		c-0.0138588,0.053793-0.0312462,0.1030617-0.0585003,0.1508341l0.0002327-0.00035
		c-0.087307,0.1796303-0.0727062,0.3969374-0.2391758,0.5473013C21.6048775,8.8039713,21.6639671,9.0839424,21.4372158,9.2064838z"
		/>
	<path fill="#212121" d="M22.0318642,8.1131601c0.159483-0.9441028,0.1146812-1.8954287,0.1189022-2.8450212
		c0.0600052-0.0320716,0.1138172-0.0248919,0.1615601,0.0215073c0.0644531,0.1111407,0.0573196,0.2140794-0.0416336,0.3064356
		C22.4945202,6.4594641,22.4047928,7.2976789,22.0318642,8.1131601z"/>
	<path fill="#212121" d="M20.841301,7.4564834c-0.1731606,0.1150813-0.1014061,0.2861171-0.1180077,0.4369664
		c-0.0393581,0.0380597-0.078886,0.0400476-0.1186066,0.0004711c0.2373104-1.1492004,0.1122589-2.2768669-0.2382221-3.3911262
		c0.078989,0.1092405,0.1579838,0.2184706,0.2369804,0.3277006C21.0327244,5.6790056,21.0379047,6.5600133,20.841301,7.4564834z"/>
	<path fill="#2A3321" d="M19.6539955,1.9837825c-0.1547375,0.0043296-0.2348251,0.0772502-0.2389202,0.2199883
		c-0.0267715,0.209784-0.184166,0.3291793-0.3577518,0.4373705c-0.0956478,0.0470834-0.1162224,0.1287842-0.1191673,0.21861
		c-0.0791988-0.0362353-0.1583881-0.0724621-0.2375832-0.1086886c-0.0000057,0.000001,0.0020618-0.0032527,0.0020618-0.0032527
		c-0.0816193-0.1207681-0.0288563-0.2439265-0.0091438-0.3669353c0.034729-0.1583741,0.1281567-0.2807591,0.2704945-0.3732591
		c0.1645279-0.0948644,0.2924442-0.2395774,0.4810047-0.3028667c0.0898743-0.0145134,0.1714954-0.0003124,0.2401924,0.0586575
		C19.7255192,1.8429484,19.7219028,1.9172333,19.6539955,1.9837825z"/>
	<path fill="#122502" d="M22.5081158,4.9395781c0.232811,0.452323,0.2437572,0.9358535,0.2364044,1.4219413
		c-0.3288441-0.1425118-0.2109356-0.4208713-0.2357731-0.6558185c-0.1144619-0.2341661-0.2381649-0.4665809-0.1650753-0.7364006
		C22.3895359,4.9177198,22.4443951,4.9078393,22.5081158,4.9395781z"/>
	<path fill="#1E211B" d="M22.3897648,4.939641c0.0396595,0.2553535,0.0793171,0.5107064,0.1189785,0.7660599
		c-0.0793495-0.0365381-0.1587009-0.0730762-0.2380543-0.1096172c-0.0001125-0.109374-0.000227-0.2187457-0.0003414-0.3281174
		c-0.1351681-0.171145-0.1644077-0.347774-0.0327339-0.5327497C22.4611244,4.6944084,22.4684658,4.7899137,22.3897648,4.939641z"/>
	<path fill="#303030" d="M20.6046867,7.8939209c0.0395412,0.0003471,0.0790825,0.0001979,0.1186123-0.0004592
		c-0.000742,0.2114768,0.0393295,0.4378676-0.2368793,0.5487647c-0.0168171-0.014842-0.0336361-0.0296841-0.0505219-0.0445013
		c-0.018383-0.066782-0.0058537-0.1261301,0.0499649-0.1750107C20.4909306,8.1025572,20.4657383,7.9731474,20.6046867,7.8939209z"/>
	<path fill="#212121" d="M20.8407536,10.1921129c0.0125675-0.2199802,0.1692848-0.3405924,0.3578892-0.4392385
		C21.1914921,9.976573,21.0343323,10.0968933,20.8407536,10.1921129z"/>
	<path fill="#212121" d="M19.5339127,10.302804c0.1911678,0.0957708,0.3473663,0.2157087,0.356945,0.4369698
		C19.7002945,10.6435823,19.5433807,10.5241385,19.5339127,10.302804z"/>
	<path fill="#303030" d="M20.4864197,8.4422264c-0.0246124,0.1947145,0.0431156,0.4735451-0.3540554,0.328867
		c0.0385075-0.0370026,0.076973-0.0740213,0.1154385-0.111042c0.106205-0.0480499,0.0055714-0.2865219,0.2378178-0.2185354
		L20.4864197,8.4422264z"/>
	<path fill="#212121" d="M21.7929211,8.6601114c0.0536652-0.1920662,0.077858-0.3950291,0.2391796-0.5472965
		C22.0306511,8.3241835,22.0728378,8.5516891,21.7929211,8.6601114z"/>
	<path fill="#212121" d="M20.4856205,8.4415159c-0.0792732,0.0728493-0.1585445,0.1456976-0.2378178,0.2185411
		c-0.0111809-0.1874743,0.0215378-0.3547287,0.2380581-0.4373417C20.4857807,8.2956486,20.4857006,8.3685818,20.4856205,8.4415159z"
		/>
	<path fill="#8B01F7" d="M11.2041626,10.1952038c-0.1948853-0.2570448-0.3897705-0.5140915-0.5846548-0.7711372
		c-0.1366949-0.1587009-0.2248297-0.3426437-0.3212776-0.5226927C9.7216253,7.8128033,9.6006241,6.6681671,9.8213301,5.4881477
		c0.0694714-0.3714285,0.1638975-0.7412672,0.3144588-1.0951853c0.025095,0.0016518,0.0463858,0.010798,0.0638704,0.0274382
		c0.2424927-0.3268681,0.3633251-0.7175007,0.6369219-1.0280669l-0.007123,0.008872
		c0.4540138-0.5676341,0.9673214-1.0838184,1.5655441-1.5263191c0.102622-0.0774938,0.2052441-0.1549875,0.3078661-0.2324815
		c0.2033653-0.0722259,0.4093075-0.1403512,0.5594072-0.2979246c1.7044935-0.8091283,3.433794-0.7995944,5.1735401-0.1138149
		c0.2753811,0.1085498,0.6129627,0.1853882,0.6887436,0.5296468c-0.1833172,0.2893353-0.3258724,0.6131577-0.7157555,0.7326374
		C18.3461514,2.487159,18.28895,2.466984,18.2376442,2.4336212c-1.2616272-0.5800153-2.5552139-0.7192931-3.8927135-0.2362628
		c-0.2828865,0.0798175-0.5459576,0.197242-0.7834272,0.3615408c-0.0605125,0.0482605-0.1288567,0.0833819-0.2062683,0.1030395
		c-0.0647306,0.0347264-0.1294622,0.0694525-0.1941929,0.1041784c-0.4730005,0.2311265-0.8146162,0.5866976-1.1070881,0.9888153
		l0.00805-0.0099666c-0.3518429,0.2373419-0.3767958,0.6349232-0.5539675,0.9581468
		c-0.5880985,1.3346896-0.5604973,2.6449075,0.1800737,3.9271965c0.0805225,0.0742617,0.1642132,0.1459723,0.24335,0.221509
		c0.0643501,0.1954775,0.2876034,0.3053474,0.3286076,0.5138044c-0.0101271,0.0250311-0.0081396,0.0492191,0.0059652,0.0725651
		c0.0870285,0.1059132,0.2098942,0.1995506,0.1449003,0.3578892c-0.0581741,0.0710154-0.1309385,0.1137152-0.2320719,0.102169
		c-0.6615934-0.427248-1.0195265-1.0651808-1.2929678-1.7228785c-1.2455044-2.995759,1.1128654-5.8604918,3.7993717-6.5889559
		c1.0654173-0.2888947,2.066678-0.2069907,3.0768919,0.1398673c0.2007484,0.0689272,0.3970089,0.1748787,0.6871452,0.1069188
		c-0.2716961-0.303089-0.6453609-0.3696824-0.9825821-0.4393376c-3.2980404-0.6812313-6.2136831,0.9214817-6.9637012,3.9451694
		c-0.3816824,1.5387502-0.0549278,3.0465817,0.9843979,4.3676639c0.1744099,0.2216902,0.3807249,0.3697128,0.6977005,0.3257437
		c0.0976162,0.004262,0.1707859,0.0478649,0.2264366,0.1192017c0.0594406,0.1253672-0.0307531,0.2026243-0.1082668,0.2838335
		c-0.1715918,0.188447-0.3464861,0.3682384-0.6442051,0.1847267C11.4686375,10.5139656,11.3331575,10.3575191,11.2041626,10.1952038
		z"/>
	<path fill="#212021" d="M22.2709064,4.720149c-0.000185,0.1826057-0.00037,0.3652115-0.0005589,0.5478172
		c-0.039854,0.0000563-0.0797081,0.000113-0.1195717,0.0001712c-0.1185894-0.2190995-0.2371712-0.4382005-0.3557491-0.6573057
		c0.0000038-0.0000052,0.0002594,0.0003324,0.0002594,0.0003324c-0.0994015-0.1749868-0.130846-0.3750625-0.2386837-0.5469341
		c-0.1959133-0.1836112-0.3048725-0.4072714-0.3575993-0.656831c-0.1054478-0.1550958-0.2461452-0.2859616-0.3559246-0.4380779
		l0.0002346,0.000289c-0.3088646-0.3726387-0.6655712-0.7012336-1.0714016-0.9846098
		c-0.0393124-0.0005615-0.0786266-0.0009586-0.1179314-0.0012043c-0.0003052-0.0722885-0.0006237-0.1445636-0.0009422-0.2168387
		c-0.0940399-0.1095031-0.1046829-0.2189376,0.0003204-0.328277c0.356678,0.2551395,0.7133579,0.5102788,1.0700378,0.7654183
		c0.0441513,0.022182,0.0939579,0.0562396,0.1380978,0.0165842c0.0455952-0.0409603,0.0041142-0.0850909-0.0197411-0.1248865
		c-0.002758-0.0345204-0.006073-0.0689952-0.0099487-0.1034245c0.0134621-0.01829,0.0269222-0.0365801,0.0399551-0.0552195
		c0.0947762-0.0671326,0.1963367-0.1256145,0.2927456-0.1912515c0.0453014-0.0205199,0.0915565-0.0230964,0.138649-0.0056432
		c0.0450077,0.1179744,0.0900173,0.2359483,0.1350327,0.3539207c0.0380459,0.2193184-0.0965843,0.4648592,0.1180019,0.6573756
		c0.0790787,0.1824028,0.1581612,0.364799,0.2372398,0.5471947c-0.0320721,0.2739592,0.2337208,0.3840837,0.3749599,0.5585964
		c0.1538181,0.1900511,0.3240471,0.3631425,0.2924576,0.6230187C22.436079,4.5860782,22.3568497,4.6553745,22.2709064,4.720149z"/>
	<path fill="#8103EB" d="M19.0467148,1.874557c-0.2171879-0.6306022-0.8916435-0.5920103-1.3914032-0.7480581
		c-1.5130634-0.4724464-2.9944487-0.2535447-4.4319267,0.3224432c-0.0505962,0.035673-0.0947895,0.0318346-0.1315289-0.0180268
		c0.0034447-0.0311435,0.0105667-0.0615585,0.0213671-0.0912447c0.129427-0.1333826,0.3172779-0.1571385,0.4849977-0.2186681
		l-0.0068207,0.0040663c0.2608242-0.1560684,0.5851736-0.1725612,0.8471146-0.3261752L14.424655,0.8058512
		c1.3832016-0.3156038,2.7285833-0.2056876,4.0384665,0.3036454c0.1432095,0.0784222,0.286417,0.1568444,0.4296265,0.2352666
		c0.1554298,0.0511531,0.344429,0.0349714,0.4488869,0.1890777c0.0673523,0.1917808-0.0371609,0.2992363-0.2152195,0.3705084
		C19.0998535,1.894435,19.0732861,1.8844961,19.0467148,1.874557z"/>
	<path fill="#212121" d="M10.1357889,4.3929625c0.0457277,0.3898077-0.1624165,0.7347922-0.237834,1.1034236
		c-0.2486849,1.2155409,0.0284023,2.3615141,0.4770126,3.4917455c-0.0402985,0.0443945-0.0808821,0.0446157-0.1217489,0.0006638
		c-0.0392914-0.0364199-0.0785818-0.0728397-0.1178722-0.1092596c-0.1333923-0.2395916-0.4120111-0.4393988-0.2464037-0.7609034
		C9.8134651,7.8244739,9.7379885,7.5303159,9.6625528,7.2361469C9.6617317,6.4408145,9.5844393,5.6413393,9.8833952,4.8667154
		C9.9492369,4.6961141,9.9663782,4.5133667,10.1357889,4.3929625z"/>
	<path fill="#1F221D" d="M18.4631214,1.1094964c-0.7115154-0.1199415-1.3945446-0.3526586-2.1253815-0.405977
		c-0.647418-0.0472328-1.2699099,0.1680016-1.913063,0.1022239c1.037075-0.4184858,2.0894547-0.2885182,3.1360683-0.0522164
		C17.875761,0.8246502,18.2217388,0.8650181,18.4631214,1.1094964z"/>
	<path fill="#8B02F4" d="M12.3950024,1.8748866c-0.5217915,0.5087775-1.0435829,1.0175549-1.5654593,1.5263258
		C11.1863279,2.7492771,11.6923437,2.2267659,12.3950024,1.8748866z"/>
	<path fill="#7107CB" d="M19.6586761,1.1025858c0.0273323-0.1041583-0.1488132-0.3138191,0.0698814-0.3024024
		c0.6917133,0.0361106,1.3954391-0.1316912,2.0759106,0.0921959c-0.3525543,0.2124358-0.7507477,0.1233735-1.1323891,0.1470125
		c-0.2424126,0.015015-0.5123806-0.0726541-0.704258,0.148188c-0.0222874,0.0165985-0.0452213,0.0322433-0.0681534,0.0478879
		C19.8193359,1.1911738,19.7390079,1.14688,19.6586761,1.1025858z"/>
	<path fill="#8B02F4" d="M10.8365812,3.3923337c-0.164463,0.3677735-0.1648951,0.8215516-0.6370173,1.0280139
		C10.2786312,4.0078292,10.4489594,3.6431384,10.8365812,3.3923337z"/>
	<path fill="#1D2218" d="M18.819891,0.8910156c0.2896461-0.3877838,0.39851,0.0585297,0.5932026,0.1087695
		c0.007822,0.0332833,0.0165653,0.0663685,0.0263767,0.0991896C19.2006073,1.1114415,18.9500389,1.1530719,18.819891,0.8910156z"/>
	<path fill="#282728" d="M14.4385147,0.7988937c-0.2155561,0.2555462-0.5434246,0.2642229-0.8471165,0.326103
		C13.8079529,0.871735,14.1279926,0.8457678,14.4385147,0.7988937z"/>
	<path fill="#1F221D" d="M19.2688503,1.5598935c-0.1252594-0.0717275-0.250515-0.1434553-0.3759365-0.2151567
		c0.2157402,0.0632828,0.4214573-0.2090378,0.6412888-0.0164529c0.0609684,0.1205219-0.0161533,0.1917138-0.1086025,0.2575469
		C19.3686466,1.6015059,19.3166027,1.591614,19.2688503,1.5598935z"/>
	<path fill="#182415" d="M20.841753,2.0957963c0.1086559,0.0634842,0.2679634,0.0733757,0.2972679,0.2182293
		c0.0048904,0.0241859-0.0676708,0.0854123-0.1091328,0.0895267c-0.1586552,0.0157452-0.2427216-0.0824144-0.306488-0.1994581
		C20.7628479,2.1679981,20.8023014,2.1318974,20.841753,2.0957963z"/>
	<path fill="#182415" d="M19.414566,1.5480335c0.0398769-0.0732504,0.079752-0.1465011,0.1196327-0.2197509
		c0.0397186,0.0367917,0.0794315,0.0735828,0.119154,0.1103858c-0.0001011,0.1094298-0.0002079,0.2188478-0.0003147,0.3282772
		c-0.0783501-0.0011864-0.1567001-0.0023845-0.2350502-0.0035825C19.3471966,1.6925225,19.3414211,1.6208084,19.414566,1.5480335z"
		/>
	<path fill="#212021" d="M20.8318043,1.9923716c-0.1607418-0.1465952-0.3214836-0.2931902-0.4822235-0.4397852
		c0.0235634-0.0169276,0.0471249-0.0338553,0.0706997-0.0509137c0.327198,0.0045919,0.5124035,0.1278012,0.4508629,0.4569192
		L20.8318043,1.9923716z"/>
	<path fill="#182415" d="M20.3495808,1.5525866c-0.2198315-0.0218673-0.3488789-0.1526918-0.4499187-0.3171247
		c-0.0019932-0.0190806-0.0074673-0.0372834-0.0164146-0.0546029c0.3206577-0.0707369,0.4712086,0.0671461,0.50494,0.3483036
		L20.3495808,1.5525866z"/>
	<path fill="#282728" d="M13.5982208,1.1210026C13.466361,1.2498273,13.304595,1.3225282,13.1132154,1.33966
		C13.1982546,1.1229885,13.3823433,1.0921702,13.5982208,1.1210026z"/>
	<path fill="#8B02F4" d="M13.091856,1.4309154c0.0438976,0.0059464,0.0877953,0.0118929,0.1316109,0.017933
		c-0.1407537,0.1389982-0.3112745,0.210014-0.5204239,0.1935616C12.8141346,1.5432844,12.9265966,1.4460235,13.091856,1.4309154z"/>
	<path fill="#212121" d="M13.3552351,2.6619387c0.0374546-0.0461879,0.0749063-0.0923758,0.112359-0.1385636
		c0.2686005-0.1355369,0.5313644-0.2819149,0.8234577-0.374784c1.3159399-0.4104424,2.6061573-0.4248466,3.8552952,0.2076838
		c0.0195103,0.064019,0.0069656,0.1221437-0.0375137,0.1744392c-0.583004-0.1966236-1.1584854-0.4197803-1.7942429-0.4303234
		c-0.2326584,0.0741944-0.4655361,0.071914-0.6986103,0.0017033c-0.6284504,0.0611739-1.2313728,0.195684-1.7932472,0.4772131
		C13.6891689,2.6462297,13.5483646,2.8236516,13.3552351,2.6619387z"/>
	<path fill="#1F221E" d="M11.7941542,4.2706356c-0.2828436,0.8860188-0.59587,1.7660203-0.4742031,2.7141018
		c0.0254765,0.1985216,0.0071793,0.4004755,0.12222,0.5815883c-0.0546179,0.0422759-0.1161175,0.0539865-0.1844587,0.0352097
		c-0.3960152-0.7179794-0.236742-1.4581838-0.0787439-2.1898332c0.0442896-0.2050967,0.1114521-0.4160414,0.2010746-0.6144419
		C11.5332928,4.6320548,11.4967728,4.3402977,11.7941542,4.2706356z"/>
	<path fill="#8A02F3" d="M12.0539541,3.7549324c0.2017488-0.4878936,0.5483408-0.8386407,1.1069193-0.988816
		C12.7920122,3.0957227,12.4229832,3.4253278,12.0539541,3.7549324z"/>
	<path fill="#5B0F9C" d="M12.4183865,9.7426167c-0.0507784-0.1014824-0.1015568-0.2029648-0.1523438-0.3044386
		c0.2187986,0.0919733,0.3485069,0.2738714,0.5079889,0.4257479c-0.0118895,0.3191118-0.2344418,0.498785-0.5056744,0.6462297
		c-0.030735-0.0198765-0.0419312-0.0408611-0.0336485-0.0629721c0.0084877-0.0226545,0.0175028-0.0339909,0.0271053-0.0339909
		c0.0449219-0.0734425,0.0898428-0.1468859,0.1347628-0.2203293C12.3185196,10.0392847,12.464304,9.8948784,12.4183865,9.7426167z"
		/>
	<path fill="#8A02F3" d="M11.7941551,4.2706356c-0.1139679,0.1565442-0.2279348,0.3130879-0.3419018,0.4696312
		c-0.0392714-0.024045-0.0549259-0.0508318-0.0470266-0.0803742c0.0082636-0.0309057,0.0181074-0.0463648,0.0295868-0.0463648
		c0.1318035-0.3366585,0.2101288-0.7059712,0.6270647-0.8685794C11.9727201,3.9201887,11.8834362,4.0954123,11.7941551,4.2706356z"
		/>
	<path fill="#303030" d="M18.1088333,2.530714c0.000473-0.0376999,0.0009422-0.0753999,0.0014133-0.1131001
		c0.0828705-0.0587063,0.1599655-0.0642798,0.2271938,0.0208974l-0.0067406-0.0050416
		c0.1713676,0.1240146,0.3110981-0.0600963,0.4716969-0.0409725c0.0347309,0.1346188-0.0443077,0.2422068-0.0997849,0.3553503
		C18.4541378,2.7924442,18.2936287,2.6334841,18.1088333,2.530714z"/>
	<path fill="#212121" d="M11.3056908,7.5704837c0.0455017-0.0013881,0.0910025-0.0027757,0.1364918-0.0041609
		c0.0441093,0.2161541,0.0882311,0.4323044,0.1323528,0.6484551c-0.028616,0.0096855-0.0572329,0.019371-0.0858603,0.0290766
		C11.2856083,8.0520668,11.1732111,7.8394198,11.3056908,7.5704837z"/>
	<path fill="#212121" d="M11.9121819,8.892909c-0.0672712-0.0434093-0.1345415-0.0868177-0.2018127-0.1302271
		c-0.168026-0.1433058-0.2619877-0.3073177-0.172699-0.5225639c0,0,0.0367222-0.025281,0.0367947-0.0253105
		c0.1176138,0.1860275,0.2351551,0.3720846,0.3526974,0.5581417c0.0311556,0.0303001,0.0393057,0.0581646,0.0245028,0.0836182
		C11.9375801,8.8807859,11.9244375,8.892909,11.9121819,8.892909z"/>
	<path fill="#172412" d="M11.9121819,8.892909c0.004941-0.0400229,0.009882-0.0800457,0.0149012-0.1200142
		c0.1516562,0.1782093,0.3601589,0.3293018,0.3329811,0.5925846C12.1084299,9.2302628,11.9526186,9.0975018,11.9121819,8.892909z"/>
	<path fill="#142505" d="M15.6159801,2.1020939c0.2329311-0.0006063,0.4658642-0.0012121,0.6987019-0.0017607
		C16.0821838,2.2615216,15.8493071,2.2603583,15.6159801,2.1020939z"/>
	<path fill="#212122" d="M10.4922123,10.8484249c-0.2133646-0.2202072-0.0039577-0.551281-0.2374878-0.7662048
		c-0.1224623-0.4399853-0.4703417-0.717948-0.835556-0.9834518C9.3184423,8.9909878,9.5290413,8.8815432,9.4171143,8.7738228
		c-0.4321985-0.0998993-0.872365-0.1269712-1.3160992-0.1218433C8.4003,8.4494238,8.7364616,8.5229397,9.0580416,8.5624809
		C9.3793077,8.6019831,9.427474,8.4530544,9.4006348,8.2198868C9.4862175,8.3304987,9.571907,8.4411554,9.6575956,8.5518122
		c0.1396074,0.0167265,0.2822008,0.0306683,0.2395382,0.2173395c-0.0315256,0.1973104,0.0777531,0.3440685,0.2008772,0.489068
		c0.4402676,0.5184917,0.6144743,1.1655998,0.9791651,1.7208529c-0.0892773,0.0402679-0.1803589,0.0780811-0.243639,0.1534529
		c-0.0324678,0.035737-0.0706053,0.0652332-0.1131029,0.0902071c-0.0740652,0.0254126-0.14575,0.0253296-0.2128639-0.0183792
		C10.4368849,11.0881033,10.6189547,10.9626284,10.4922123,10.8484249z"/>
	<path fill="#1C2316" d="M7.5451417,11.1684275c-0.5570788-0.4807472-0.4629669-1.1599007,0.2370205-1.7104263
		C8.3384094,9.0205231,8.7348318,8.9937954,9.1616459,9.364996c-0.3249321,0.1751328-0.740386,0.007061-1.0503941,0.2360144
		c-0.1612821,0.0994396-0.2976594,0.221796-0.4047832,0.3711195C7.4077754,10.3432493,7.6612225,10.7771368,7.5451417,11.1684275z"
		/>
	<path fill="#8503E7" d="M9.3021708,9.4650545c0.7661543,0.5787849,0.866437,1.0596409,0.3584375,1.7187166
		c-0.0434122-0.0355835-0.0731487-0.0790758-0.0897608-0.1301641c-0.0286417-0.2539768,0.0941658-0.5000153,0.0462189-0.7547798
		c-0.0042887-0.286685-0.2952356-0.4461823-0.3695745-0.7017212C9.2458849,9.5461521,9.2651615,9.502471,9.3021708,9.4650545z"/>
	<path fill="#8603E7" d="M9.6522055,11.0641937c0.002799,0.039854,0.0055971,0.0797081,0.0084,0.1195698
		c-0.5032473,0.5706758-0.9128695,0.6611614-1.5712442,0.3470984c0.0171566-0.0230217,0.0343132-0.0460424,0.0512447-0.0693083
		C8.6582632,11.3738384,9.1677275,11.2592535,9.6522055,11.0641937z"/>
	<path fill="#8603E7" d="M7.5451417,11.1684275c-0.1813545-0.4511385-0.3338227-0.9007082,0.0846829-1.319273
		c0.1053195,0.0790768,0.1147199,0.1860123,0.1040568,0.2988863c-0.1198354,0.3775024-0.0487804,0.7124348,0.2495084,1.0054283
		c0.0924044,0.0907631,0.180233,0.1961737,0.138114,0.3394032c0,0-0.0321093,0.0379477-0.0321264,0.0379686
		C7.837297,11.4998074,7.7391872,11.2731838,7.5451417,11.1684275z"/>
	<path fill="#7C04E3" d="M9.3021708,9.4650545c-0.0006008,0.0265417-0.0026312,0.052989-0.0060911,0.0793457
		c-0.0919809,0.0845022-0.205596,0.0918779-0.325243,0.0785055C8.7494898,9.5668335,8.5280104,9.5709906,8.306304,9.6255941
		C8.1851864,9.6360788,8.0705166,9.6272898,7.9851718,9.533349c0.3456998-0.3307009,0.7601771-0.2551517,1.1765037-0.1684303
		C9.2084875,9.3983488,9.2553291,9.4317017,9.3021708,9.4650545z"/>
	<path fill="#1C2316" d="M9.4171143,8.7738228c0.1981421,0.1072388,0.0304232,0.216464,0.0020704,0.3249397
		C9.0525503,8.9924107,9.4579782,8.8819227,9.4171143,8.7738228z"/>
	<path fill="#162608" d="M13.3510237,5.8007503c-0.0014887,0.9896874-0.0029793,1.9793763-0.0044718,2.9690623
		c-0.0395861-0.0364227-0.0791655-0.0728436-0.1187477-0.1092653c-0.1279993-0.6974821-0.020072-1.4005399-0.0600233-2.099906
		c-0.0121069-0.2119598,0.0656986-0.4326644-0.0617418-0.6353478c-0.1689825-0.0002074-0.3434219,0.0071268-0.3516045-0.2152686
		C12.9891357,5.5409007,13.1781874,5.6257172,13.3510237,5.8007503z"/>
	<path fill="#14250B" d="M13.106039,5.9252934c0.2593994,0.3670044,0.0904617,0.7733054,0.113924,1.1597724
		c0.0317917,0.5236616,0.0078669,1.0501852,0.0078411,1.5754805c-0.2474747-0.4065781-0.0858326-0.8461976-0.1118937-1.2694135
		C13.085907,6.9039116,13.1070871,6.4140229,13.106039,5.9252934z"/>
	<path fill="#2D1E44" d="M13.3510237,5.8007498c-0.1988773-0.030273-0.3977528-0.0605454-0.5966082-0.0907717
		c-0.1005726-0.0492768-0.1211557-0.1331887-0.1164789-0.228044c0.0409241-0.0012546,0.081811-0.0024695,0.1227388-0.0037308
		c0.1959105,0.0497561,0.391634,0.045002,0.5872412-0.0014043c0.0432024-0.0293264,0.0883341-0.0306306,0.1352234-0.0079107
		c0.0297709,0.0377922,0.046423,0.0797796,0.0480881,0.1266179c-0.009531,0.0463872-0.0342245,0.0841093-0.0761862,0.111856
		C13.4203691,5.7384915,13.3856964,5.7696204,13.3510237,5.8007498z"/>
	<path fill="#212121" d="M12.7371073,6.3267212c-0.0651875-0.0443878-0.1349726-0.0669875-0.143961-0.1025782
		c-0.0300846-0.1191106,0.0733471-0.1576476,0.1711054-0.1729841c0.0437937-0.0068703,0.0960331,0.0318031,0.1444407,0.0498085
		C12.8550997,6.1714787,12.801506,6.2419915,12.7371073,6.3267212z"/>
	<path fill="#212024" d="M22.3896198,4.50036c-0.0191898-0.3682165-0.3789463-0.5569773-0.5332985-0.854435
		c-0.0582409-0.1122298-0.2630997-0.1968873-0.0628777-0.3471875c0.2624836,0.2888813,0.5018005,0.5995789,0.7931271,0.8613
		c0.3968143,0.3564854,0.8806953,0.1533756,1.3345699,0.1080637c-0.0001163-0.0001335,0.0355949,0.0397635,0.0355949,0.0397635
		c-0.0950413,0.3189273-0.3913002,0.2953506-0.6549206,0.3223686c-0.2249432,0.0230541-0.4681454-0.0776138-0.6720085,0.0857987
		c-0.0084515,0.0408721-0.0169029,0.0817442-0.0253544,0.1226158C22.3641434,4.8165178,22.4278278,4.6310682,22.3896198,4.50036z"/>
	<path fill="#1D221B" d="M22.5079269,1.3282601c0.8694363-0.391319,1.5023003-0.2128031,1.9137115,0.5398132
		c-0.0262527,0.0110313-0.0525055,0.0220628-0.0787506,0.0333041c-0.542181-0.3867459-1.1654701-0.4850814-1.830822-0.4348323
		c-0.0322876-0.0299327-0.0434952-0.0604411-0.0339794-0.0914358C22.4876709,1.3438785,22.4976101,1.3282601,22.5079269,1.3282601z"
		/>
	<path fill="#261F2D" d="M23.8397751,3.6348755c-0.4470692,0.3516021-0.8906536,0.2229738-1.3334961-0.0081871
		c-0.0400143-0.0479324-0.0404282-0.0946014,0.0051327-0.139972c0.0803337-0.042316,0.1668987-0.0498328,0.2566376-0.0396116
		c0.3075619,0.0754006,0.6314144,0.0094209,0.9392014,0.0880501C23.7617493,3.556741,23.8057995,3.5901961,23.8397751,3.6348755z"/>
	<path fill="#1A2316" d="M22.024416,3.0877724c-0.3984451-0.4427662-0.2534389-0.8826492,0.0082893-1.3219131
		c0.0469322-0.0399728,0.0953636-0.0415761,0.1453762-0.0050694c0.0959396,0.1560383,0.0142899,0.2974825-0.041647,0.4410279
		c-0.090868,0.1792536-0.085722,0.3620672-0.0208035,0.5471959c0.0232162,0.0993083,0.0249157,0.1966283-0.0299549,0.2888637
		C22.0653896,3.0546319,22.0449028,3.0712023,22.024416,3.0877724z"/>
	<path fill="#1E221D" d="M24.4216385,1.8680732c0.3681221,0.4068375,0.3544846,0.8148501,0.0044537,1.2238984
		c-0.0205956-0.020283-0.041193-0.040566-0.0620651-0.0607469c0.0076065-0.3795588-0.0466099-0.7604401,0.0261898-1.1388246
		L24.4216385,1.8680732z"/>
	<path fill="#1E221D" d="M24.4260921,3.0919716c-0.0865555,0.2806265-0.2790756,0.4643557-0.5865192,0.5428555
		c-0.015213-0.0118251-0.0316315-0.0223792-0.0490513-0.0316136c-0.0212574-0.1049433,0.0371647-0.1828799,0.1023617-0.2588959
		c0.1500721-0.1192858,0.2523079-0.3134737,0.5037651-0.2768712L24.4260921,3.0919716z"/>
	<path fill="#1A2316" d="M22.5125484,3.5070741c-0.0020733,0.0398715-0.0041466,0.0797424-0.0062447,0.1196141
		c-0.2205505-0.1343601-0.4354362-0.2729859-0.4818249-0.5389822c-0.0000629,0.0000663,0.0334167-0.0275612,0.0334167-0.0275612
		C22.3499908,3.0881686,22.5264378,3.2157199,22.5125484,3.5070741z"/>
	<path fill="#1A2314" d="M22.1668797,1.7703532c-0.0447273-0.001497-0.0894547-0.0029941-0.1341782-0.0044923
		c0.1137714-0.1868836,0.272707-0.3322688,0.4752331-0.4376014c0.0030022,0.0440773,0.0060101,0.088154,0.0090179,0.1322306
		C22.5179539,1.6762631,22.4113884,1.7892287,22.1668797,1.7703532z"/>
	<path fill="#7A05DE" d="M16.4330025,4.825129c0.0352478-0.2003593,0.1991062-0.1866226,0.3593769-0.1861959
		c0.6100063,0.0016251,1.2202396,0.0099335,1.8299522-0.0024276c0.3624249-0.0073476,0.4756069,0.1410518,0.4768085,0.4605536
		c0.0011806,0.3141632-0.0955677,0.4861341-0.4644299,0.4672112c-0.3137283-0.0160947-0.6281605-0.0201349-0.9421139-0.0330443
		c-0.2452602-0.0100846-0.3712921,0.1137352-0.389658,0.31916c-0.0194035,0.2170091,0.1490574,0.2855196,0.3456783,0.2702279
		c0.3634319-0.0282664,0.6967449,0.0980425,1.0446987,0.1470232c0.0147495,0.0640693,0.0295086,0.1281219,0.0443668,0.1921587
		c-0.4821644-0.1038432-0.9599209-0.2351527-1.4644566-0.2030873c-0.4654579-0.2801657-0.2901573-0.5933261-0.0567474-0.9095492
		c0.4222965-0.2442803,0.9324703-0.0082698,1.4254398-0.2156262c-0.2295609-0.2218571-0.4923744-0.1228375-0.7179852-0.1515012
		C17.4283733,4.9170732,16.9001274,5.1204619,16.4330025,4.825129z"/>
	<path fill="#0F2701" d="M18.9349003,5.7101035c-0.0780163,0.0714536-0.1560326,0.1429071-0.2340527,0.2143583
		c-0.0793877,0.036581-0.1587753,0.073164-0.2381649,0.1097488c-0.0789108-0.0031934-0.1578159-0.0063891-0.2367229-0.0095854
		c-0.2246113-0.1205144-0.491724,0.0275016-0.7158833-0.0958562c-0.0817566-0.2975688,0.1800251-0.2112465,0.314909-0.2167268
		C18.1942673,5.6970387,18.5648365,5.7088871,18.9349003,5.7101035z"/>
	<path fill="#8802EF" d="M19.0730305,8.1311817c0.1852989-0.4816003,0.2363682-0.9620013-0.0152149-1.4396949
		C19.5170689,7.1554179,19.521637,7.5875463,19.0730305,8.1311817z"/>
	<path fill="#122505" d="M17.8677101,8.9883614c0.0189762,0.003047,0.0432644,0.0004416,0.0557671,0.0103798
		c0.0223999,0.0178032,0.0377121,0.0431547,0.0559845,0.0653524c-0.3517895,0.0565538-0.7035904,0.0563583-1.0550613-0.0015688
		c-0.0008545-0.0001421-0.0014763-0.0343275,0.005764-0.0375757c0.0336437-0.01509,0.0701008-0.0248709,0.1055489-0.0365515
		C17.3130417,8.9056721,17.590374,8.9057503,17.8677101,8.9883614z"/>
	<path fill="#212121" d="M17.8677101,8.9883614c-0.2773418,0.0000219-0.5546837,0.0000429-0.8320103,0.0000505
		c0.0002098-0.0350151-0.0009537-0.0699787-0.0035858-0.1047611c0.2796249,0.0000238,0.5593624-0.0000935,0.8392048-0.0000734
		C17.8687687,8.9185553,17.8675308,8.9534369,17.8677101,8.9883614z"/>
	<path fill="#0F2701" d="M9.8971338,8.7691517C9.8172941,8.6966991,9.7374544,8.6242476,9.6576061,8.5518036
		c0.029151-0.1661243-0.0898647-0.39923,0.2314129-0.4332342c0.0820494,0.2536964,0.1641769,0.507328,0.246315,0.7609644
		C10.0559416,8.842741,9.9765377,8.8059464,9.8971338,8.7691517z"/>
	<path fill="#8803E8" d="M10.7145958,11.1642904c-0.019043-0.2933998,0.1094942-0.342473,0.3625965-0.185256
		c0.1312351,0.1416159,0.2624865,0.2831945,0.3937378,0.4247742c-0.0215206,0.0141106-0.0430393,0.0282202-0.0644751,0.0425243
		C11.1083298,11.4925718,10.9549074,11.238327,10.7145958,11.1642904z"/>
	<path fill="#1B231C" d="M11.4709301,11.4038086c0.3142462-0.0185375,0.5027752,0.1121368,0.5597334,0.3989544
		c-0.0121164,0.022788-0.0071211,0.0417805,0.0149822,0.0569668c-0.4118938,0.0699959-0.5904064-0.1288757-0.6433411-0.4724207
		C11.4240208,11.3968878,11.4468966,11.4023876,11.4709301,11.4038086z"/>
	<path fill="#1F221F" d="M12.2487402,10.5879774c0.0434208,0.1389399-0.0342188,0.2526598-0.0912695,0.3706684
		c-0.1898575-0.0172338-0.4335394,0.0686541-0.4848461-0.2140675c0.0189571-0.0168829,0.0379133-0.0337658,0.0568171-0.0507231
		C11.9194765,10.7289829,12.0794621,10.6391811,12.2487402,10.5879774z"/>
	<path fill="#1F221F" d="M11.2041626,10.1952038c0.1448498,0.1128302,0.2897015,0.2256603,0.4345512,0.3384905
		c0.1107569,0.0363569,0.1048508,0.1064939,0.0639267,0.1867714c0,0-0.0298939,0.0240669-0.0299549,0.0240898
		C11.4658337,10.5979824,11.2316608,10.471139,11.2041626,10.1952038z"/>
	<path fill="#202121" d="M10.2532187,8.9887953c0.0405817-0.0002213,0.0811634-0.0004416,0.121748-0.0006628
		c0.1260414,0.1241817,0.2269087,0.2603092,0.2445374,0.4359369C10.3917942,9.354166,10.3546362,9.1486063,10.2532187,8.9887953z"/>
	<path fill="#9100FE" d="M16.4330025,4.825129c0.652586,0.0020585,1.3052425-0.0002813,1.957716,0.0086441
		c0.2178421,0.0029802,0.5030899,0.0255632,0.5079632,0.2652836c0.0049667,0.2444034-0.2815208,0.2663803-0.4978657,0.2732458
		c-0.3754177,0.0119114-0.7515068,0.0059094-1.1273155,0.0074196c0.1949272-0.3119216,0.1949272-0.3119216,0.9557419-0.2303929
		C17.3534889,5.0576978,16.876976,5.167707,16.754631,5.4897609c-0.1741905,0.4585299-0.0048313,0.8148036,0.5187721,1.0913053
		c0.1833057,0.104157,0.3856754,0.1210794,0.5941944,0.1098638c0.1658287,0.0172496,0.2940216,0.0693312,0.2784157,0.254714
		c-0.129652,0.1990871-0.2750263-0.0215702-0.4112835,0.0133657c-0.368988-0.0816612-0.7428474-0.0502987-1.1149998-0.0402303
		c-0.3400059,0.0091982-0.5375004-0.0710244-0.4194717-0.4406667c0.171711-0.537776,0.0535011-1.1134529,0.2372971-1.6515779
		L16.4330025,4.825129z"/>
	<path fill="#8100FC" d="M18.1062908,6.9096661c-0.0795612-0.0729146-0.1591187-0.1458292-0.2386856-0.2187395
		c0.3021126-0.1844482,0.6197987-0.1863518,0.8333206,0.0787125c0.2202702,0.2734385,0.462904,0.5349689,0.1797867,0.9658279
		c-0.4576149,0.696413-1.8337307,1.026125-2.4216785,0.4979029c-0.0648556-0.0582695-0.0925541-0.1515255-0.1374855-0.2285566
		c0.0416241-0.0360665,0.0913467-0.0550623,0.1478367-0.0596476c0.2590008,0.081933,0.5060978,0.1775322,0.7968044,0.1754713
		C18.1716499,8.1142149,18.5079727,7.6428518,18.1062908,6.9096661z"/>
	<path fill="#8100FA" d="M17.2734032,6.5810661c-0.5563869,0.0884476-0.7560005-0.1040626-0.7269096-0.6389813
		c0.0465679-0.8563328,0.0320663-0.8848472,0.7623596-0.8923092c0.3810635-0.0038943,0.7622147-0.0006866,1.2555504-0.0006866
		c-0.4778347,0.2506652-0.995924-0.1136713-1.2909031,0.3306069c-0.1381493,0.2922883-0.2251873,0.5845633-0.0002728,0.876967
		C17.2732849,6.3648281,17.273344,6.4729466,17.2734032,6.5810661z"/>
	<path fill="#9900FE" d="M16.4397869,8.0031767c-0.0394249-0.0000076-0.0788383,0.0005302-0.1182404,0.0016251
		c-0.0398483-0.0002489-0.0796986-0.0005102-0.1195545-0.0007696c0.047842-0.2324696,0.1601524-0.287797,0.3573017-0.1099992
		C16.5519466,7.9605093,16.484766,7.9715595,16.4397869,8.0031767z"/>
	<path fill="#8204E6" d="M16.4375553,4.8265347c0.0545235,0.5610633-0.0338306,1.1151552-0.1484718,1.66014
		c-0.071743,0.3410592,0.0717621,0.3743935,0.3633404,0.3350654c0.4118042-0.0555429,0.8186817-0.0327935,1.2164192,0.0873699
		c0.0351791,0.0295305,0.0457134,0.0577211,0.0316696,0.0846019c-0.0136852,0.0261936-0.0268574,0.0393052-0.0395813,0.0393052
		c-0.3668213-0.0113344-0.7378731-0.059979-1.0994797-0.0253024c-0.549572,0.0527005-0.7530155-0.1389103-0.6523228-0.6280651
		c0.144186-0.3309832,0.0577507-0.6863065,0.1278534-1.0235238C16.2748222,5.174099,16.1873264,4.9430027,16.4375553,4.8265347z"/>
	<path fill="#192312" d="M17.5100765,5.9287691c0.2397156,0.0252166,0.5007648-0.0841532,0.7159004,0.0959339
		C17.9862919,5.9992461,17.725317,6.10849,17.5100765,5.9287691z"/>
	<path fill="#9100FE" d="M13.108532,4.831481c0.4753714,0.0510612,0.9699841-0.1161494,1.4302177,0.1066504
		c0.1244869,0.8613229,0.0191288,1.7268829,0.0573378,2.5896788c0.0134659,0.3040485-0.0552902,0.6122932,0.0504475,0.9119949
		c0.0046768,0.0385408,0.0093536,0.0770817,0.0140724,0.1156569c0.000042,0.0000353-0.0057421-0.0048838-0.0057421-0.0048838
		c-0.2993689,0.1062403-0.6083603,0.0393524-0.9134073,0.0429916c-0.1060848-0.0598269-0.1102352-0.1471548-0.0780134-0.2442684
		c0.0620403-0.076786,0.1504183-0.1142387,0.246254-0.1399336c0.2956553-0.0261822,0.3210869-0.239738,0.3288078-0.4369769
		c0.027607-0.7054782,0.0130816-1.4115076,0.0087566-2.1173511c-0.0017281-0.2823348-0.1394062-0.4358287-0.4589882-0.4495487
		c-0.2324648-0.0099797-0.476922,0.0163569-0.6826477-0.1261492C13.0436888,4.995986,13.0382643,4.9132724,13.108532,4.831481z"/>
	<path fill="#8200FC" d="M14.6465368,8.439805c-0.2163191-0.2599192-0.098568-0.560163-0.103735-0.8396316
		c-0.0163994-0.8871045-0.0048418-1.7746453-0.0040722-2.6620302c0.212389,0.2202535,0.1034937,0.4863033,0.106823,0.7293324
		C14.658205,6.5914426,14.6481218,7.5156736,14.6465368,8.439805z"/>
	<path fill="#9700FE" d="M13.108532,4.831481c0.000145,0.0725765,0.0002899,0.1451535,0.0004358,0.2177296
		c0.105937,0.1571674,0.5459805,0.0924478,0.35221,0.448658c-0.0379877-0.0059347-0.075738-0.0129461-0.1132555-0.0210514
		c-0.3389158-0.1016116-0.5894966-0.2583227-0.4744053-0.6431684C12.9518728,4.8329487,13.0302029,4.8322148,13.108532,4.831481z"/>
	<path fill="#8A03EA" d="M8.4150724,7.5572414c0.2667742-0.0397763,0.2924089-0.2259393,0.302536-0.4215169
		c0.4690781-0.0948572,0.0573349,0.3948083,0.3348742,0.4268904c-0.0074415,0.2215667,0.058547,0.423728,0.1603804,0.6249185
		C9.3542461,8.4668617,9.1178999,8.427906,8.9440718,8.4324551C8.7460556,8.3576565,8.5480433,8.3576298,8.3500347,8.4324808
		C8.1656609,8.4497337,8.0035419,8.4357643,7.9890013,8.2147532C8.1310215,7.9955754,8.2730465,7.7764087,8.4150724,7.5572414z"/>
	<path fill="#8601F8" d="M17.8609314,7.0330172c0.0026302-0.0412998,0.0052643-0.0825996,0.0079041-0.1239028
		c0.0791302,0.0093517,0.1579704,0.1212258,0.2374535,0.0005493c0.2145023,0.1504898,0.5803585,0.3056259,0.4247742,0.5682216
		c-0.1963787,0.3314528-0.4664192,0.6903734-0.95508,0.7410946c-0.4002914,0.0415497-0.7900295,0.0008812-1.1361923-0.2157946
		c0.0398312-0.0363865,0.07967-0.0727644,0.119503-0.1091475c0.4846363,0.044558,1.0023441,0.3688741,1.4213085-0.1422648
		c0.0721874-0.167604,0.3071861-0.3340802,0.0037212-0.5038977c-0.0000019,0.0000148-0.044796-0.0221424-0.044796-0.0221424
		s-0.0508575,0.0006337-0.0508499,0.000627C17.8794365,7.1619081,17.8701839,7.0974631,17.8609314,7.0330172z"/>
	<path fill="#25202D" d="M16.7802391,7.406179c0.3511524-0.0684996,0.535984-0.078897,0.7832146-0.0074182
		C17.3145733,7.4799719,17.1233501,7.4642658,16.7802391,7.406179z"/>
	<path fill="#7C03E7" d="M8.3500347,8.4324808c0.1980658-0.148488,0.3960962-0.1483297,0.5940638,0.0000477
		C8.7460594,8.4324636,8.5480471,8.4324722,8.3500347,8.4324808z"/>
	<path fill="#8503E8" d="M22.6298065,4.716032c-0.0223598-0.2389054,0.073494-0.3079653,0.3402843-0.2548065
		c0.3410225,0.0679493,0.6898098,0.0702095,0.9866142-0.1534033c0.1824684-0.0355983,0.3283138-0.0164104,0.3457298,0.1952205
		c-0.0482388,0.0581455-0.0964794,0.1162896-0.144722,0.1744342c-0.1137791,0.2042718-0.1684074,0.4434056-0.4020309,0.5770392
		c-0.0274582,0.0635552-0.0549183,0.1271105-0.0824146,0.1906104c-0.1804295,0.1036687-0.1839943,0.3681359-0.4365883,0.4062452
		c0.0744743-0.1579638,0.1489429-0.3159509,0.2234135-0.473938c0.0380726-0.227417,0.1306458-0.4391847,0.2720909-0.6564894
		c-0.3427429,0.0152879-0.6342945,0.0378904-0.9266205,0.0196261c-0.0273457-0.0015564-0.0547123-0.0034809-0.0820827-0.0054059
		C22.6923084,4.7285733,22.6610832,4.7221961,22.6298065,4.716032z"/>
	<path fill="#192315" d="M23.755682,5.2545156c0.1273174-0.196209,0.1931152-0.4286966,0.4020424-0.5769062
		C24.1413822,4.9391847,24.0867348,5.178308,23.755682,5.2545156z"/>
	<path fill="#8703E8" d="M20.3881874,1.5291625c-0.1293106-0.1639358-0.2934322-0.2851741-0.50494-0.3483006
		c-0.0704937-0.2316401,0.0156059-0.3061096,0.2818794-0.2963354c0.5456467,0.0200292,1.0927219,0.0071535,1.6392746,0.0078392
		c-0.0033531,0.0398753-0.006773,0.079737-0.0101948,0.1196039c-0.1163139,0.1053107-0.232626,0.2106162-0.3489399,0.3159215
		c-0.1489124,0.122526-0.1702995,0.2999325-0.233633,0.4592867c-0.0146236,0.2233032-0.1615524,0.2243065-0.3405094,0.1714338
		C20.7762451,1.7525725,20.6152134,1.6094717,20.3881874,1.5291625z"/>
	<path fill="#7107CB" d="M21.2116337,1.7871779c-0.0352077-0.2017447,0.0054646-0.3708388,0.2336159-0.4592781
		c-0.0473251,0.1374856-0.0946712,0.2749805-0.1420536,0.4124163C21.2757282,1.7609833,21.2452221,1.7766235,21.2116337,1.7871779z"
		/>
	<path fill="#8B04E6" d="M11.7026405,10.7204657c-0.0212526-0.0622663-0.0425062-0.1245327-0.0638428-0.1867847
		c0.2474251,0.1335964,0.4388208,0.0217543,0.6231346-0.1205206c0.0002851,0.0324564,0.0024691,0.0647774,0.0064325,0.0969963
		c-0.0145664,0.0242605-0.0210876,0.0502281-0.0195971,0.0778627C12.102437,10.7567329,11.9362316,10.8560858,11.7026405,10.7204657
		z"/>
	<path fill="#57109C" d="M13.4550419,5.7073627c0.0083618-0.0405836,0.0167246-0.0811667,0.0250883-0.1217499
		c0.08113-0.0199065,0.1421156,0.0038791,0.1833706,0.0710449c0.1384516,0.9317937,0.1504946,1.8631063-0.0203733,2.7932439
		c0.0044842,0.0679159-0.0092793,0.1325798-0.0411959,0.1939735c0,0-0.0421724,0.0382776-0.0422802,0.0383768
		c-0.1992741-0.7133965-0.0446177-1.4394922-0.0894175-2.1586165C13.4533224,6.2521682,13.4594297,5.9794893,13.4550419,5.7073627z"
		/>
	<path fill="#8503E8" d="M22.9807529,5.4931321c-0.035181-0.0050817-0.0704556-0.0095396-0.1057873-0.0133991
		c-0.0504456-0.2482219-0.1009235-0.4964185-0.1514435-0.7445917c-0.000042,0.0000234,0.0407772-0.0192127,0.0407772-0.0192127
		C23.2134399,4.8861747,23.1680393,5.1729383,22.9807529,5.4931321z"/>
	<path fill="#112601" d="M22.3896198,4.50036c0.0717144,0.1127391,0.1434307,0.2254782,0.2149906,0.3382525
		c-0.0322685,0.0336795-0.0643768,0.0673237-0.0964909,0.100966c-0.0394573,0.0000505-0.0789089,0.0000715-0.1183586,0.0000625
		c-0.0036011-0.0896606-0.0235653-0.1718268-0.1188583-0.2194853C22.2731438,4.6298265,22.2941742,4.5480928,22.3896198,4.50036z"/>
	<path fill="#8B02EF" d="M11.4023046,11.3873091c0.2034988,0.1700773,0.3787794,0.3726654,0.6433372,0.4724112
		c0.0824518,0.134141,0.0457983,0.2072639-0.1274147,0.2105818c-0.0799685-0.0088396-0.1599312-0.0178194-0.2398949-0.0267982
		c-0.3550158-0.0756836-0.710103-0.0737724-1.0652571-0.000844c-0.1688051,0.0042028-0.3508101,0.0621271-0.478858-0.0995426
		c-0.0024319-0.0364609-0.0048656-0.0729179-0.0072994-0.109376c0.1033125-0.1026907,0.206625-0.2053795,0.3099375-0.3080692
		c0.1563921-0.0803719,0.1802149-0.2469559,0.2799492-0.3641729c0,0-0.00214,0.002861-0.0021744,0.0028267
		C11.0363226,10.9973507,11.1332417,11.4168644,11.4023046,11.3873091z"/>
	<path fill="#7E03E8" d="M10.7168045,11.161499c-0.0117331,0.1744967,0.0964241,0.4270277-0.2800322,0.3641253
		c0.0236397-0.1070795,0.0471945-0.2142057,0.0707741-0.3213015C10.5773144,11.1900692,10.6470594,11.1757841,10.7168045,11.161499z
		"/>
	<path fill="#7E03E8" d="M10.6130753,12.0426588c0.3552876-0.1543779,0.7104073-0.1557875,1.0653057,0.0009165
		C11.323247,12.0432215,10.9681606,12.0429401,10.6130753,12.0426588z"/>
	<path fill="#8401F9" d="M22.9807529,5.4931321c0.0149384-0.2796493,0.0244331-0.558013-0.2166214-0.7772102
		c0.359024-0.2623668,0.8132057,0.0557656,1.2230244-0.1417189c-0.1756859,0.2677431-0.3513718,0.5354857-0.5270596,0.8032303
		c-0.4420586-0.2397389-0.2681885,0.2625341-0.4605541,0.3234258C22.9933434,5.6315804,22.9870491,5.5623565,22.9807529,5.4931321z"
		/>
	<path fill="#8402F3" d="M13.6019316,8.6438751c-0.0088797-0.0294991-0.0120401-0.0595093-0.0094843-0.0900278
		c0.0331659-0.0537481,0.0683031-0.0576677,0.1057415-0.0035429c0.3188953,0.0000935,0.6377926,0.0001879,0.9566813,0.0002766
		C14.3231678,8.7657585,13.9546137,8.6290531,13.6019316,8.6438751z"/>
	<path fill="#303030" d="M19.0573235,2.6411414c0.1004429-0.1588044,0.1432724-0.3574748,0.3577499-0.4373708
		c1.0161781,0.3503845,1.4945107,1.1667986,1.8751316,1.9906754c0.7253914,1.5701475,0.5920773,3.1824641-0.0409794,4.7505937
		c-0.171629,0.4251375-0.5600643,0.7777233-0.8585072,1.15728c-0.110117,0.1400452-0.2475357,0.2457457-0.4416866,0.0856152
		c-0.1631279-0.1345425-0.1942768-0.2656298-0.0202274-0.4117537c0.5709343-0.4793186,0.9050255-1.1270838,1.1067886-1.7625818
		c0.2191639-0.6903148,0.4253159-1.39815,0.2214947-2.1985569c-0.2898865-1.1383781-0.8005924-2.0986671-1.7143478-2.8914919
		C19.4010906,2.800647,19.2855892,2.6385722,19.0573235,2.6411414z"/>
	<path fill="#303030" d="M20.841301,7.4564834c-0.0135994-0.8803625,0.1011066-1.7705555-0.2378426-2.6259894
		C21.1415539,5.6706667,21.2570629,6.5432205,20.841301,7.4564834z"/>
	<path fill="#303030" d="M19.7719116,1.9850001c0.5003376,0.1963758,0.8562641,0.5256867,1.0713959,0.9846115
		C20.4376602,2.6860697,20.081583,2.3568959,19.7719116,1.9850001z"/>
	<path fill="#303030" d="M20.8430786,2.969321c0.1898918,0.0970566,0.3473263,0.2164245,0.3559322,0.4380808
		C21.0085545,3.3107276,20.8512363,3.1912856,20.8430786,2.969321z"/>
	<path fill="#303030" d="M21.5566025,4.06423c0.1893539,0.141778,0.2450542,0.3328962,0.2386742,0.5469346
		C21.6049366,4.4697547,21.5496254,4.2784905,21.5566025,4.06423z"/>
	<path fill="#8802F3" d="M18.8023968,2.3924973c-0.1474457,0.108804-0.2897911,0.2674587-0.4716339,0.0409048
		c0.397316-0.0142865,0.397665-0.4590098,0.7160473-0.5588679c-0.0000954,0.0000229,0.0352764,0.0166953,0.0352764,0.0166953
		c0.042017,0.0789119,0.0467186,0.1489832-0.0543308,0.1939993C18.9063416,2.1589274,18.7840977,2.2321115,18.8023968,2.3924973z"/>
	<path fill="#303030" d="M19.0277557,2.0852284c0.0180855-0.0646818,0.036171-0.1293634,0.0542946-0.1940222
		c0.1497593-0.0687379,0.1858654-0.1916882,0.1868401-0.3313451c0.0485344-0.0039282,0.0971088-0.0078884,0.1456795-0.0118381
		c0.001112,0.0718066,0.0022259,0.1436025,0.0033798,0.2153692C19.3289165,1.9127109,19.2204876,2.0422022,19.0277557,2.0852284z"/>
	<path fill="#8100FB" d="M12.2757626,10.083313c-0.2713318,0.248271-0.5005779,0.2019968-0.7279987-0.0651646
		c-0.7558966-0.887989-1.2134342-1.8790808-1.2964058-3.0132818c-0.1069298-1.4617009,0.2239475-2.7882838,1.2514734-3.9580078
		c1.0663204-1.2138878,2.4479628-1.8218179,4.1024752-1.9300989c0.9644775-0.0631216,1.9260254,0.0142752,2.7995815,0.448392
		c0.1167507,0.0580204,0.4962807,0.0139364,0.3173695,0.3226684c-0.1189346,0.2052368-0.3176823,0.2118291-0.5639954,0.1362365
		c-0.3147259-0.0965881-0.6357937-0.1921885-0.9489136-0.2860262c-1.8329229-0.5493047-3.2874231,0.0890294-4.6542482,1.1317444
		c-0.9006329,0.6870689-1.4175749,1.6050618-1.7549887,2.5824172c-0.183466,0.5314293-0.1486721,1.1674652-0.0488701,1.7318683
		c0.1822634,1.0307527,0.689311,1.9440799,1.5246134,2.6800094C12.3389177,9.9371738,12.3470669,10.0102577,12.2757626,10.083313z"
		/>
	<path fill="#8802F3" d="M18.3374405,2.4385114c-0.0757504-0.0069697-0.1515007-0.0139391-0.2272224-0.0209029
		c-1.0052719-0.5448087-2.0850811-0.5414634-3.1866274-0.3609815c-0.2492361,0.0408361-0.4941664,0.1039083-0.7410784,0.156745
		c-0.0371256-0.0256779-0.0498905-0.0518298-0.0383673-0.0784826c0.0116158-0.0268724,0.0234547-0.0403218,0.0355864-0.0403218
		c1.2200928-0.4642429,2.4396572-0.4188778,3.6575871,0.0060234C18.0364819,2.170073,18.2587147,2.2159181,18.3374405,2.4385114z"/>
	<path fill="#8701F5" d="M11.5376701,8.240118c0.0575399,0.1741896,0.1150808,0.3483791,0.1726608,0.5225668
		c-0.4485321-0.3035631-0.5308638-0.7910161-0.6330557-1.2264962c-0.2343779-0.9987607-0.2099934-1.9953103,0.357605-2.9227061
		c0.0057306,0.0422654,0.011528,0.0844855,0.0173492,0.1267452c-0.265193,0.9339657-0.552269,1.8669353-0.1465216,2.8302526
		C11.2969303,7.818924,11.373702,8.0422983,11.5376701,8.240118z"/>
	<path fill="#9601FB" d="M12.2757626,10.083313c0.0000334-0.0730791,0.0000658-0.1461582,0.0000944-0.2192411
		c0.0474052-0.0404196,0.0948143-0.0808382,0.142375-0.1213551c0.2738562,0.1615076,0.1994162,0.3088322-0.0216684,0.4501438
		C12.3563061,10.1563463,12.3160343,10.1198301,12.2757626,10.083313z"/>
	<path fill="#8A02F3" d="M14.1797314,2.0945675c0.0009279,0.0395927,0.0018511,0.0791855,0.002779,0.1187913
		c-0.2111664,0.1563029-0.437541,0.2829258-0.71492,0.3100252C13.6236506,2.2661839,13.9409246,2.2354987,14.1797314,2.0945675z"/>
	<path fill="#8A02EF" d="M7.9851718,9.533349c0.1210885-0.0001907,0.2421784-0.0003815,0.3632665-0.0005722
		c-0.0765848,0.3676529-0.3173923,0.5847616-0.7140727,0.6589804c-0.0015068-0.1141863-0.0030141-0.2283726-0.0045309-0.3425808
		C7.6965804,9.6946793,7.8123107,9.5868225,7.9851718,9.533349z"/>
	<path fill="#8100FA" d="M7.6343656,10.1917572c0.238028-0.2196379,0.4760556-0.4392748,0.7140794-0.658946
		c0.1992807-0.1541567,0.39816-0.1576567,0.5966005,0.0013294c0.3689795,0.1206627,0.5813341,0.4069004,0.8249054,0.6601362
		c0.0387459,0.298913-0.0125694,0.5875225-0.1176901,0.8699512c-0.396986,0.4851599-0.9572802,0.4770489-1.5308084,0.4287367
		C7.8002038,11.1095028,7.2583046,10.7960062,7.6343656,10.1917572z"/>
	<path fill="#8A02EF" d="M9.7699509,10.1942768c-0.274971-0.2200317-0.549943-0.4400625-0.8249102-0.6601143
		C9.0620775,9.5375032,9.1791105,9.540864,9.2961121,9.5443134C9.4572048,9.7590723,9.6898556,9.9296207,9.7699509,10.1942768z"/>
	<path fill="#8200FC" d="M13.578083,5.6007652c-0.0327806-0.0044084-0.0654459-0.0094504-0.0979748-0.0151386
		c-0.0091591-0.0287366-0.0154676-0.0579829-0.018919-0.0877557c0.0508251-0.2612882-0.3885536-0.1970105-0.3522215-0.4486618
		c1.4979677,0.0125661,1.2942896-0.1666169,1.307765,1.2297087c0.0052576,0.5448003,0.0111341,1.0899296-0.0040474,1.6344194
		c-0.0072422,0.259769-0.0460453,0.5347152-0.4705544,0.4186072c-0.1933804-0.1922121-0.1531506-0.4328403-0.1653452-0.6637883
		c-0.0339642-0.6431594,0.0754404-1.2905025-0.0669708-1.9300909C13.671608,5.6877728,13.6277905,5.64189,13.578083,5.6007652z"/>
	<path fill="#8A02F0" d="M22.1668797,1.7703534c0.1166859-0.1033044,0.2333698-0.2066092,0.3500633-0.3098888
		c0.7511673-0.3210293,1.3646336-0.1368173,1.8732929,0.4319227c0.1748028,0.3908979,0.1776314,0.7825817,0.006422,1.1750666
		c-0.1662216,0.0950382-0.2321377,0.2980001-0.4412403,0.3468933c-0.0738697,0.044842-0.1554985,0.0629447-0.2431488,0.0599673
		c-0.3118229-0.1742244-0.0625305-0.2872052,0.0588627-0.4029522c0.3307438-0.3153653,0.3545799-0.7116184,0.0535965-1.0412571
		c-0.3167152-0.3468641-0.6431293-0.3754816-1.0893726-0.1041714c-0.2182598,0.1326977-0.3848286,0.3858203-0.7148571,0.2757632
		C22.0692921,2.0579154,22.1180859,1.9141343,22.1668797,1.7703534z"/>
	<path fill="#8903EB" d="M22.5125484,3.5070746c-0.1515694-0.1489625-0.3031406-0.2979252-0.4546814-0.4469087
		c-0.015379-0.1019139-0.0307865-0.2038069-0.0461941-0.3056998c0.4529018,0.0631104,0.6507435,0.3593042,0.7779884,0.7201109
		c-0.0196095,0.0199144-0.0393353,0.0398343-0.0590611,0.0597544C22.6579151,3.5252457,22.5852337,3.51616,22.5125484,3.5070746z"/>
	<path fill="#8903EB" d="M23.6982346,3.4079466c0.085701,0.0021253,0.1714039,0.0042505,0.2571449,0.0063879
		c-0.0549049,0.0629895-0.1098461,0.1259663-0.1648216,0.188911c-0.3573151,0.0288949-0.7223454,0.1586533-1.0599251-0.0689504
		c-0.0000324,0.0000362,0.0278435-0.0294676,0.0278435-0.0294676C23.0473957,3.2728379,23.3842926,3.4345841,23.6982346,3.4079466z"
		/>
	<path fill="#8100F9" d="M23.6982346,3.4079461c-0.2912922,0.2126534-0.6257782,0.0714588-0.9398327,0.096972
		c-0.2488422-0.2502127-0.4977589-0.500335-0.7467003-0.7504549c-0.1170635-0.1858742-0.1187553-0.3701892,0.0088081-0.5527596
		c0.202158-0.0744412,0.3809509-0.1765423,0.5421677-0.3165368c0.3183212-0.2764194,0.6611977-0.4273057,1.1028004-0.187813
		c0.5044022,0.2735536,0.5489407,0.7222139,0.5416431,1.1719772C24.2027607,3.1379046,23.6809063,3.072654,23.6982346,3.4079461z"/>
	<path fill="#8D00FD" d="M13.7025146,5.5964971C14.0303755,5.645751,13.9365444,5.88516,13.938467,6.0655479
		c0.0080519,0.7554059,0.0035543,1.5109243,0.0036602,2.2663994c-0.079464,0.0000639-0.1589289,0.0001307-0.2383957,0.0001974
		C13.6070185,7.4202986,13.6100235,6.5084147,13.7025146,5.5964971z"/>
	<path fill="#7706DB" d="M13.7025146,5.5964966c0.0004053,0.9118829,0.0008116,1.8237658,0.0012169,2.7356482
		c-0.0018034,0.0727262-0.0036058,0.1454506-0.005476,0.2181683c-0.0354118-0.0003748-0.0706978,0.0007935-0.1058664,0.0035143
		c-0.0046949-0.984365-0.0094461-1.968749-0.0142517-2.9530983C13.6195602,5.5993419,13.6610374,5.5979195,13.7025146,5.5964966z"/>
</g>
</svg>
