<?xml version="1.0" encoding="utf-8"?>
<!-- Generator: Adobe Illustrator 24.1.1, SVG Export Plug-In . SVG Version: 6.00 Build 0)  -->
<svg version="1.1" id="Слой_1" xmlns="http://www.w3.org/2000/svg" xmlns:xlink="http://www.w3.org/1999/xlink" x="0px" y="0px"
	 viewBox="0 0 32 13" enable-background="new 0 0 32 13" xml:space="preserve" width="32px" height="13px">
<g>
	<path fill="#222222" d="M23.5637226,6.9901218c-0.6525555,1.0893345-1.1366119,2.2680216-1.9198284,3.2850323
		c-1.364378,1.7716475-3.270916,2.6702948-5.6312714,2.6904421c-2.4029236,0.0205097-4.8072014-0.0466843-7.2092867-0.0023575
		c-2.2243147,0.0410461-3.5246234-2.0440435-2.4282193-3.7357073c1.0109897-1.5598798,1.9795737-3.1429553,2.9668355-4.7158127
		c0.0842829-0.0562572,0.1737289-0.0635743,0.2681694-0.024157c0.0477934,0.0398154,0.0816116,0.0881438,0.1022425,0.1442518
		C9.752471,4.7731538,9.7480574,4.9112101,9.6722574,5.0429273C8.9459267,5.3295684,8.7791767,5.9120212,8.7288132,6.5559502
		C8.3065844,7.0865669,8.0691881,7.7262473,7.5729408,8.2136173C6.8349156,8.9221478,6.251945,9.7374859,6.3542438,10.7398825
		c0.1372995,1.3453474,1.597003,2.2175264,3.111527,1.8658409c0.8986597-0.2086773,1.7793427-0.1509991,2.6676865-0.1451597
		c-0.0014601-0.0402203-0.012538-0.0743198-0.0379095-0.1071215c-0.0110245-0.0449686-0.0056133-0.0862646,0.0150852-0.127162
		c0.0682211-0.0672264,0.1310978-0.1354351,0.1190424-0.2359695c-0.0155001-0.0990467-0.0380392-0.2009611,0.1035347-0.2433319
		c0.0931826-0.0131664,0.1763296,0.0074034,0.2517281,0.0586548c0.0312185,0.0238419,0.0744591,0.0461073,0.0834627,0.0777998
		c0.2221203,0.7818441,0.8514328,0.8001709,1.5746498,0.7789097c1.1369114-0.0334244,2.2760401,0.0149155,3.3970881-0.2230673
		c0.8516464-0.1807928,1.6120968-0.5323343,2.3112068-1.0048923c0.9223061-0.636549,1.6580639-1.394701,2.0424538-2.4256258
		c0.1642933-0.4406328,0.3446789-0.8989344,0.734705-1.2385607c0.1969261-0.1802216,0.2617645-0.4366541,0.4297848-0.6320505
		c0.110323-0.1283002,0.1444931-0.3529024,0.4126301-0.3021688C23.5948544,6.8883996,23.5924168,6.939786,23.5637226,6.9901218z"/>
	<path fill="#282927" d="M14.6484394,0.2066373c0.3740683-0.1544281,0.779254-0.159044,1.1722126-0.1608115
		c2.4963608-0.0112285,4.9931984-0.0298536,7.4890957,0.0034601c1.7419529,0.0232504,2.9239388,1.2864546,2.678997,2.7797346
		c-0.0788288,0.4805889-0.3337688,0.8968098-0.6004906,1.3067646c-0.3259811,0.5010362-0.6506042,1.0028186-0.9758148,1.5042777
		c-0.0247421-0.0204549-0.0494843-0.0409102-0.0743961-0.0613437c-0.0948086-0.1964269,0.0031986-0.3587375,0.1077404-0.5202575
		c0.2553272-0.4777985,0.5716381-0.925271,0.8381119-1.3964868c0.9650364-1.7065181-0.0804482-3.2788651-2.1724586-3.2909617
		c-2.1365547-0.012354-4.2731094,0.0069863-6.4095745-0.0036424c-0.3635101-0.0027632-0.7271271-0.0010165-1.0903978-0.0035941
		c-0.3037338-0.0547335-0.6297998,0.1019618-0.9209585-0.0792238C14.6764107,0.2586939,14.662426,0.2326657,14.6484394,0.2066373z"
		/>
	<path fill="#282828" d="M9.6063585,4.5200148C9.5182228,4.5172491,9.430088,4.5144835,9.3419523,4.5117188
		c0.9238644-2.1076255,2.4568243-3.6251397,4.8979187-4.2588773c0.1305046-0.0338805,0.2721233-0.0316333,0.4085684-0.0462041
		c0-0.0000001,0.0194826,0.0350967,0.0194826,0.0350967c0.0204048,0.1245972-0.0522518,0.2041901-0.1535292,0.2702504
		c-1.2587957,0.4924121-2.4342422,1.087518-3.3662949,2.0488133c-0.472682,0.4875112-0.7308264,1.0922031-1.1726446,1.5890439
		C9.8079948,4.2353473,9.7544146,4.4176774,9.6063585,4.5200148z"/>
	<path fill="#232323" d="M23.5637226,6.9901218c-0.0085888-0.0491929-0.0171757-0.0983858-0.0257664-0.1475787
		c-0.0380821-0.0441475-0.0580196-0.0943742-0.0603275-0.1506858c0.1113148-0.3553576,0.36973-0.6393523,0.5555019-0.9586735
		c0.0684128-0.1175971,0.1684036-0.2093849,0.3349266-0.1213408l0.0443821,0.0282197
		C24.1793613,6.116518,23.9227943,6.580513,23.5637226,6.9901218z"/>
	<path fill="#212121" d="M20.0622807,11.4758978c-0.8497276,0.7595196-1.9161816,1.0483541-3.0501747,1.2193308
		c-1.1744022,0.1770697-2.3536043,0.0729485-3.5302219,0.1045227c-0.3815031,0.0102386-0.7870293,0.0722094-0.7429218-0.4979267
		c0.0122757-0.1586447-0.1602783-0.3293591-0.2480383-0.4945354c-0.2563925-0.2137852-0.7557869-0.3116684-0.4498262-0.7946177
		c0.3593607-0.2780056,0.7424316-0.5383596,0.8794584-0.9841471c-0.0019274-0.0505762-0.0054502-0.1006088-0.0136385-0.1505699
		c-0.6859293-0.8122883-1.2443247-1.6834965-1.500124-2.6974926c-0.0641441-0.4512658-0.0623713-0.902276-0.0040455-1.353303
		c0.2100258-0.6120849,0.4091034-1.2297049,0.7894745-1.7775421c0.5843678-0.8416507,1.4128895-1.3790975,2.4559803-1.6451316
		c0.3413143-0.003746,0.674861-0.042702,0.985425-0.1864033c0.3559837-0.0972235,0.6925344-0.0065918,1.0287046,0.0882666
		c0.1992054,0.0814083,0.4138584,0.0807242,0.6256771,0.0954113c1.2640705,0.2907641,2.2111721,0.9395287,2.7442474,2.0554144
		c-0.0912151,0.3543053-0.3547554,0.2688847-0.6110592,0.2033639c-0.5242252-0.2185621-1.0586033-0.3952522-1.6501007-0.3249516
		c-0.1980629-0.0074916-0.373848,0.0599456-0.5451145,0.1413922c-0.0966091,0.0451899-0.1940994,0.0886641-0.2906342,0.1339793
		C16.3964214,4.80898,16.0966129,5.226285,15.8055468,5.6514473c-0.0300598,0.0429177-0.0636263,0.0832791-0.0976772,0.1232357
		c-0.2426815,0.5014529-0.4291868,1.0087123-0.212431,1.5622416c0.3530645,0.7869482,0.8280516,1.4410973,1.8069563,1.6848412
		c0.7640953,0.1902552,1.781229-0.1463394,2.2736397-0.8333712c0.4174728-0.5824709,0.2872047-1.255857-0.3636665-1.8774028
		c-0.0552311-0.0527434-0.1149769-0.1013737-0.1721973-0.1525478c-0.1107426-0.143168-0.369833-0.203793-0.2997074-0.4486413
		c0.1145821-0.0926065,0.2595329-0.1014237,0.3997765-0.1224651c0.3852787-0.0659599,0.3842697-0.4510365,0.6226845-0.6386485
		c0.2159977-0.168663,0.5007229-0.2662392,0.5025082,0.0943708c0.0047474,0.9599628,0.4072647,1.9063859,0.0871944,2.8785057
		c-0.1810799,0.5499673-0.5338612,0.977222-0.9726906,1.3613687c-0.5830879,0.5104227-0.5975189,0.7160931-0.1397247,1.3214226
		C19.4815388,10.9234571,19.785614,11.1876459,20.0622807,11.4758978z"/>
	<path fill="#212121" d="M19.4610729,4.5202823c0.1870518,0.0599222,0.4099731,0.2507758,0.4814167-0.1113024
		c0.1456738-0.0752349,0.2651501-0.0018511,0.3877869,0.0567579c0.0698318,0.0455093,0.1254959,0.1027274,0.1673279,0.1714883
		c0.0999966,0.2154531,0.1667366,0.4420509,0.2616405,0.6602769c0.0220852,0.0530615,0.0373974,0.1069922,0.0496464,0.1624327
		c0.1940594,0.7300978,0.1779346,1.4579997-0.0191746,2.184382c-0.0360394,0.135963-0.0883141,0.2690234-0.0920258,0.4114246
		c-0.0599823,0.4846411-0.3354797,0.8708057-0.6673393,1.2311687c-0.2473164,0.2334576-0.7249489,0.3241043-0.5826035,0.7968206
		c0.1203957,0.1862001,0.3132,0.3157835,0.452013,0.4871569c0.1782837,0.2328377,0.3158722,0.1797895,0.4279404-0.0517082
		c0.4617176-0.4826002,0.8649673-1.0028601,1.2033901-1.565568c0.2542667-0.2080421,0.2730312-0.5149136,0.3876362-0.7818365
		c0.2886028-0.7313232,0.2026062-1.5099916,0.3420048-2.2594647c0.3979225-0.2289281,0.29076,0.2184873,0.4633865,0.2915254
		c0.0838833,0.0923805-0.0177574,0.3228412,0.2492218,0.2807193c0.1101761,0.0738349,0.2116108,0.1536922,0.2479744,0.2818475
		c-0.2718143,0.3113241-0.3449821,0.6849213-0.3946152,1.0658779c-0.5621758,0.5825968-0.6156368,1.3976307-1.0818748,2.0181437
		c-0.4653912,0.6193857-0.8972149,1.2804365-1.6825447,1.625473c-0.7299614-0.2335682-1.0099773-0.8340168-1.3028774-1.4016142
		c-0.110199-0.2135544-0.0119152-0.4672222,0.219017-0.6404247c0.6573963-0.4930601,1.1522808-1.0815067,1.3291092-1.8691726
		c0.0266666-0.118782,0.1295166-0.2230816,0.0714664-0.3584423c-0.2842045-0.6627393-0.1145-1.3696094-0.2315617-2.0491967
		c-0.0169811-0.0985818,0.076231-0.2393355-0.102787-0.2507839c-0.069664-0.0044556-0.1481304,0.107213-0.2225857,0.1659861
		c-0.0885468-0.072576-0.1900578-0.1253233-0.3008423-0.1643848c-0.1229286-0.0459514-0.2142544-0.1154718-0.2191429-0.24891
		C19.3226223,4.5813351,19.4003391,4.5590448,19.4610729,4.5202823z"/>
	<path fill="#212121" d="M12.1302605,12.2536125c0.0000372,0.0342884,0.0001011,0.0685778,0.0001888,0.1028671
		c-0.6433907,0.1192694-1.2861843,0.026391-1.9294214,0.0641308c0.7610197-0.03825,1.5214386,0.0589848,2.2829218-0.0592184
		c0.1773491,0.1942005,0.00492,0.2116337-0.1399508,0.2143669c-0.4187002,0.0079012-0.8380871-0.006897-1.2564278,0.0069714
		c-0.5074139,0.016819-0.9934378,0.0231047-1.5105619,0.1765213c-1.5427189,0.4576826-3.3020926-0.6679697-3.4393024-2.1337795
		c-0.0228434-0.244029,0.0575981-0.5096502,0.1483283-0.7465391c0.2170496-0.5667028,0.5639768-1.075469,0.9001975-1.5884352
		C7.2868638,8.1369677,7.3823538,8.0691557,7.563096,8.1636267c0.0046468,0.1559925,0.0603757,0.2582531,0.2615972,0.209281
		c0.1693764,0.326663,0.3656335-0.0001259,0.5471196,0.0188637C8.6108208,8.3607311,8.852582,8.3181343,9.038764,8.5181065
		c0.0209532,0.0503054,0.0262966,0.1024389,0.0137682,0.1554403c-0.3033476,0.177578-0.6922197,0.0835762-0.993865,0.2645206
		C7.8649507,9.3339491,7.4627123,9.5959568,7.2679019,9.9902658c-0.329423,0.7006359-0.0989909,1.3160162,0.6665659,1.7542858
		c0.1160388,0.0664301,0.2503581,0.1064558,0.370811,0.1682749c0.7062044,0.3040247,1.07934-0.2071056,1.5299263-0.5282402
		c0.047883-0.0279379,0.0996494-0.0460052,0.1556892-0.0540266c0.093873,0.0157146,0.1422758,0.0704212,0.1568785,0.1540737
		c-0.0062637,0.1619444-0.1241245,0.267499-0.2262058,0.3793459c-0.1387281,0.2697268,0.2011213,0.0711517,0.2201996,0.186305
		c0.4364605,0.0906858,0.8780022,0.025938,1.3157148,0.0482302C11.691925,12.1104536,11.9443541,12.0619221,12.1302605,12.2536125z"
		/>
	<path fill="#182410" d="M9.8480949,4.0792041c0.5684843-0.7806628,1.0640841-1.6075325,1.8705854-2.2259576
		c0.8409061-0.6448065,1.7548103-1.1496139,2.8152008-1.4180932c0.3187065-0.0976109,0.6503496-0.1297679,0.9815779-0.1638227
		c0.3657837,0.0005885,0.7316322-0.0019026,1.0971317,0.0012809c0.7656269,0.0209062,1.4918404,0.1885876,2.179678,0.4968036
		c0.2047482,0.0917584,0.4049549,0.1949809,0.6328812,0.2353031c0.1295738,0.039254,0.2589512,0.0797698,0.3882828,0.1203107
		c0.1256351,0.0432936,0.253088,0.0834131,0.3660965,0.1525345c0.2209072,0.2060431,0.424057,0.427748,0.6477604,0.631844
		c0.0683098,0.07454,0.1183071,0.1578323,0.1412601,0.2535621c0.021349,0.1235793,0.102726,0.2173111,0.1863632,0.3105698
		c0.1687069,0.2204614,0.3638611,0.4284003,0.4919796,0.6670401c0.1197891,0.2231162,0.2182961,0.4953361-0.2302704,0.5398908
		c-0.1118374-0.0548556-0.1427631-0.1569655-0.178175-0.2562234c-0.0535545-0.2336228-0.260376-0.3494878-0.4439659-0.4832618
		c-0.0400658-0.0334508-0.0733547-0.0717826-0.1011028-0.1142902c-0.171524-0.3410819-0.4354115-0.6032879-0.794302-0.7842581
		c-0.0757713-0.0292139-0.1388512-0.074203-0.1943111-0.1289426c-0.2116718-0.2343603-0.4904556-0.3838413-0.7808971-0.5191859
		c-1.8644066-0.8464901-3.7372971-0.9765811-5.6248884-0.0650048c-0.1415358,0.0683519-0.2838783,0.1351368-0.3948545,0.2443702
		c-0.1949453,0.2309326-0.4789925,0.3700969-0.6999569,0.574276c-0.5259466,0.288337-0.8415184,0.7568505-1.2006235,1.187938
		c-0.1129198,0.1422098-0.2244673,0.2854788-0.36234,0.4088917c-0.4015636,0.3743455-0.4918613,0.875488-0.6499805,1.3485672
		c-0.1227589,0.2726736-0.0488148,0.5876975-0.2149363,0.85111C9.7420282,5.974689,9.7009392,5.991334,9.6566343,5.9948015
		C9.5648756,6.1491637,9.6686125,6.3316431,9.5774946,6.4858222c-0.0736351,0.1246009-0.152338,0.2377462-0.2992229,0.0580463
		C9.1455727,6.0075016,9.1073141,5.4894238,9.6047487,5.072051c0.0007324-0.1468558,0.0014648-0.2937112,0.0021982-0.440567
		C9.7667913,4.4766731,9.6923676,4.2355332,9.8480949,4.0792041z"/>
	<path fill="#182412" d="M12.1306696,11.0343142c-0.3231802,0.4320078,0.3669882,0.4654312,0.3602543,0.772974
		c-0.0899115,0.0050402-0.179821,0.0100794-0.2697325,0.0151176c-0.0688915,0.0519552-0.1456375,0.054347-0.226758,0.0309429
		c-0.1658697-0.0797596-0.2904863-0.2126598-0.4535561-0.2967024c-0.2511864-0.1579342-0.4593229-0.3540068-0.6221199-0.5903797
		c-0.2464609-0.7860422-0.9390831-1.3774748-1.1346817-2.1860209c0.1010504-0.1136456,0.0993204-0.2607031,0.147747-0.392189
		c0.0401678-0.0352926,0.0877275-0.0555458,0.1428089-0.0614996c0.3037148,0.0577126,0.2782536,0.3408184,0.4173727,0.5114708
		c0.0270948,0.0420036,0.0505714,0.0858431,0.0732002,0.1299076c0.1070356,0.2180967,0.2163496,0.4351377,0.3749704,0.6272402
		c0.0315132,0.037365,0.0592775,0.0771427,0.0859537,0.1173773c0.1069813,0.1878147,0.2717733,0.3321304,0.4318075,0.4800396
		c0.053503,0.0505381,0.1004877,0.1057024,0.141324,0.1652527c0.062747,0.099143,0.1133518,0.2031088,0.1417141,0.3151083
		c0.0135489,0.0618954,0.0179071,0.1256142,0.0362749,0.1857443C11.860158,10.9771461,12.0481577,10.9178162,12.1306696,11.0343142z
		"/>
	<path fill="#212121" d="M9.6047478,5.072051C9.355525,5.5655856,9.3331442,6.0884385,9.3678951,6.6186752
		c0.2397633,0.2854071,0.1753311,0.5971532,0.094821,0.9093442C9.4371042,7.5816984,9.3932762,7.6203823,9.334157,7.6428871
		c-0.2707653-0.0591922-0.194808-0.2752385-0.2345076-0.43993C9.063755,7.0540566,9.1727486,6.8687005,8.968132,6.7645864
		C8.8964005,6.7639709,8.8247833,6.7705789,8.7553816,6.7500291C8.6706181,6.6873078,8.6486778,6.6006331,8.6449652,6.5070038
		C8.3885517,5.9121561,8.9473953,5.5576324,9.1461296,5.0990934C9.2512894,4.8564601,9.452055,5.1167536,9.6047478,5.072051z"/>
	<path fill="#1A2315" d="M8.6449652,6.5070038c0.1131735,0.0683684,0.1278782,0.181241,0.1545963,0.2886829
		c0.0023813,0.1909318-0.132123,0.3497896-0.1473722,0.5368991c-0.0140505,0.0729699-0.0377378,0.142787-0.0729847,0.2095284
		C8.3271971,7.8296604,8.2596798,8.2623425,7.7965341,8.3838615c-0.181499,0.0287466-0.1805778,0.2834682-0.4060254,0.2764864
		C7.3205199,8.4528322,7.5135922,8.3283472,7.5630989,8.1636267C7.8761125,7.5851808,8.1871796,7.0056605,8.6449652,6.5070038z"/>
	<path fill="#212121" d="M22.8267002,7.8322811c-0.3246784-0.4905801-0.0157471-0.8067632,0.3602161-1.104496
		c-0.0599117-0.1750965,0.0538311-0.2273674,0.2094116-0.2500916c0.1321278,0.0418367,0.0817299,0.1761885,0.1501179,0.2504363
		c-0.0027771,0.0380931-0.0055542,0.0761857-0.0084114,0.1143456C23.2208843,7.1239443,23.1833382,7.5748754,22.8267002,7.8322811z"
		/>
	<path fill="#7308C7" d="M12.0100012,11.8080006c0.0704527,0.0047703,0.1409063,0.0095406,0.2112751,0.0143576
		c0.052906,0.0665073,0.105895,0.132966,0.158886,0.1994257c0.0198269,0.1624908-0.1065168,0.1706591-0.2244844,0.1674585
		c-0.684288-0.0185661-1.3705196,0.051506-2.0529404-0.0371685c-0.0783424-0.0851679-0.0888081-0.168766,0.0075693-0.2494221
		c0.1584749-0.0622673,0.3233042-0.0164042,0.4849777-0.023119c0.2401819,0.001997,0.4808369,0.0005798,0.7208424,0.0036688
		c0.2102251-0.0060282,0.417408,0.0376692,0.6270771,0.0361977C11.9540195,11.8751593,11.9765387,11.838726,12.0100012,11.8080006z"
		/>
	<path fill="#591094" d="M10.0758104,12.0127859c0.7672081,0.1913614,1.5353756,0.1759815,2.3042984,0.0090132
		c0.0912867,0.1984272,0.0912867,0.1984272-0.2498484,0.2317839c-0.5672445-0.0069475-1.1344967-0.013484-1.7017307-0.0211458
		c-0.1872454-0.0025291-0.4108238,0.061141-0.4604645-0.20432C9.9995031,11.9964495,10.0354185,11.9913406,10.0758104,12.0127859z"
		/>
	<path fill="#122603" d="M12.4839497,12.3613911c-0.7855644,0.2510309-1.5859432,0.0361958-2.3810787-0.0048494
		c0.6758585,0,1.351717,0,2.0275764-0.0000315C12.2482834,12.3581161,12.3661165,12.3597536,12.4839497,12.3613911z"/>
	<path fill="#212121" d="M9.8480949,4.0792041C9.8444033,4.2915554,9.885747,4.520504,9.6069412,4.631474
		C9.6067514,4.5943294,9.6065569,4.5571747,9.6063604,4.5200176C9.5974302,4.3316531,9.6282864,4.1617041,9.8480949,4.0792041z"/>
	<path fill="#232323" d="M18.8604488,0.8774742C18.6143875,0.901117,18.4136086,0.815294,18.2003174,0.703349
		c-0.4609928-0.2419504-1.0141697-0.209472-1.503664-0.3782012c-0.0412025-0.0216497-0.0553799-0.0440159-0.0426884-0.0671708
		c0.0128613-0.0234695,0.0259304-0.035241,0.0393639-0.035241c2.2353783-0.0023561,4.4707832-0.0118786,6.7061253-0.004814
		c1.8077545,0.005713,2.9032497,1.5847281,2.2299213,3.1692736c-0.2700863,0.6355872-0.7412987,1.1990452-1.1209641,1.7953339
		c-0.1070824,0.0375857-0.1542377-0.0234151-0.1930065-0.0985947c-0.0774803-0.2612371,0.1805573-0.4009738,0.2683811-0.6021419
		c-0.0808582,0.11691-0.1682663,0.212326-0.341383,0.163168c-0.1628208-0.1453824-0.3451557-0.1054349-0.5364552-0.0575333
		c-0.2418137,0.0605493-0.4881821,0.1051369-0.7240372-0.027463c-0.041153-0.03931-0.0610619-0.0862508-0.0603256-0.1406403
		c0.0337067-0.0429955,0.076107-0.0767589,0.1276913-0.1005979c1.0119305-0.0379071,1.3294582-0.825197,1.7080231-1.4520309
		c0.3120079-0.5166247-0.0757294-1.0059543-0.4841003-1.4095554c-0.1536331-0.1518388-0.354105-0.2285836-0.5477333-0.3174971
		c-0.0472565-0.020591-0.0935116-0.0439502-0.1394348-0.0666784c-0.1925411-0.0910213-0.3931046-0.0734026-0.5951481-0.0352366
		c-0.1774826,0.0565751-0.3357887,0.1800654-0.5431976,0.1304978c-0.2037411-0.2207511-0.2037411-0.2207511-0.4978504-0.1543286
		c-0.6601276-0.2055066-1.3372231-0.0857634-2.0077953-0.083034c-0.0626049,0.0002546-0.0714684,0.0749841-0.0635757,0.1321515
		c0.0078182,0.0459491,0.0043259,0.0905309-0.0086079,0.1344882c-0.148983,0.0084258-0.3035316,0.036857-0.4129868-0.0968963
		C19.2751141,0.9877599,19.1001339,0.8596357,18.8604488,0.8774742z"/>
	<path fill="#222222" d="M24.3885822,5.0715761c0.0399475,0.0369868,0.0798969,0.0739732,0.1198368,0.1109567
		C24.46171,5.3256564,24.4150066,5.4687834,24.3681812,5.611877c-0.413538,0.2853847-0.4949017,0.7770548-0.8217258,1.1162586
		c-0.09622-0.0481272-0.1167717-0.1306629-0.1193218-0.221385C23.5477791,5.9153743,23.7844124,5.3895755,24.3885822,5.0715761z"/>
	<path fill="#232323" d="M15.4950066,0.3243149c-0.3132639,0.0889848-0.6320705,0.1374133-0.9611254,0.1108377
		c0.0446558-0.064576,0.0893097-0.1291525,0.1340027-0.1935737c0.2774982-0.0046257,0.5549564-0.0094068,0.8324165-0.0141877
		c0.0357971,0.0232432,0.0469084,0.0453304,0.0334549,0.0663258C15.5206985,0.3140939,15.507823,0.3243149,15.4950066,0.3243149z"/>
	<path fill="#1E2319" d="M15.4950066,0.3243149c0.0002966-0.0324546,0.0020294-0.0648445,0.0052462-0.0970466
		c0.3977528-0.0014879,0.7954569-0.0030987,1.1931181-0.0046209c0.0024967,0.0341831,0.0036106,0.0683166,0.0032902,0.1024949
		C16.2961044,0.3248702,15.8955555,0.3245925,15.4950066,0.3243149z"/>
	<path fill="#192411" d="M19.1013813,6.0651641c0.7251396,0.4191337,1.0121708,1.0484076,0.8173161,1.7822251
		c-0.1619949,0.6100683-0.6666222,1.0058022-1.335886,1.2065525c-1.3209267,0.3962193-2.5874491-0.157299-3.0804205-1.3581028
		c-0.0419121-0.1020908-0.0854053-0.2036319-0.1281633-0.3054295c-0.032114-0.0296288-0.0438871-0.0601487-0.0353413-0.0915656
		c0.008666-0.0318589,0.0180206-0.047792,0.0279074-0.0478511c0.0804539-0.0428734,0.1646967-0.0474873,0.2519474-0.0207586
		c0.1597052,0.0785918,0.233367,0.2186627,0.3046923,0.3604279c0.059536,0.1339445,0.1005058,0.2752061,0.1813526,0.4012833
		c0.1657772,0.2516146,0.4023209,0.4324503,0.6783085,0.5741711c0.5430679,0.3005238,1.123167,0.3022652,1.7066116,0.1498232
		c0.2412453-0.0630331,0.4851055-0.171627,0.5306072-0.4516563c0.0339165-0.1289167,0.1213627-0.2262516,0.2191925-0.3174863
		c0.2856998-0.3061395,0.226614-0.6350651,0.0755978-0.9692798c-0.0259457-0.0423212-0.0486946-0.0861955-0.071825-0.1296916
		c-0.0823383-0.2022028-0.3137836-0.331347-0.331686-0.5657439C18.9277229,6.1750078,18.982317,6.0961947,19.1013813,6.0651641z"/>
	<path fill="#182414" d="M20.3025723,4.5199718c-0.1200294-0.0369916-0.2400589-0.0739827-0.3600864-0.1109829
		c-0.6498299-0.9009521-1.4465733-1.6271834-2.6443005-1.8765492c-0.1790886-0.1352999-0.420969,0.019907-0.6012917-0.1096892
		c-0.3616199-0.0245907-0.7093248-0.1647725-1.0805254-0.1097679c-0.0924902,0.0665717-0.1828375,0.0667667-0.2707977-0.0072815
		c-0.0267382-0.0591199-0.0289183-0.1190839-0.0067616-0.1798413c0.2068071-0.2403245,0.5044127-0.1995589,0.7678423-0.1693896
		c0.6451263,0.0738841,1.2963104,0.1394843,1.8996067,0.3897091c0.2343979,0.0576851,0.4834023,0.0727577,0.6979923,0.1916523
		c0.1908894,0.1096177,0.3469391,0.2630837,0.5420628,0.3682683c0.1933994,0.138479,0.3657513,0.2966099,0.5165272,0.4744418
		c0.1120338,0.1620104,0.2328815,0.3198786,0.3088875,0.5007789c0.0492916,0.1111128,0.1307259,0.2033849,0.2095127,0.2976012
		C20.3546505,4.2891226,20.4160919,4.4002204,20.3025723,4.5199718z"/>
	<path fill="#172411" d="M14.6538439,2.5325243c-1.5857391,0.4642758-2.5483789,1.4512148-2.9300022,2.933162
		c-0.0253649,0.098495-0.1271181,0.1803875-0.1933403,0.2700024c-0.1380463-0.045248-0.2370806-0.1302295-0.3025837-0.2499275
		c-0.0539579-0.1853232,0.0294151-0.3566866,0.0631371-0.533474c0.180047-0.4655471,0.4599829-0.8855324,0.713027-1.3179529
		c0.0395479-0.0684335,0.0908651-0.1284206,0.1537762-0.1797965c0.1250019-0.0941224,0.2567415-0.1793611,0.4051466-0.2403798
		c0.2540169-0.0760667,0.4197664-0.2580397,0.5985003-0.4245837c0.116148-0.1036363,0.2409191-0.1957388,0.3928337-0.2521894
		c0.310339-0.0888684,0.5870552-0.2746146,0.9288464-0.2751081c0.0886917,0.0150089,0.1528959,0.0617948,0.2004547,0.1302226
		C14.7039976,2.4445374,14.6954336,2.4915199,14.6538439,2.5325243z"/>
	<path fill="#331C4E" d="M14.6254101,4.7589173c0.2388926,0.1134067,0.1438589,0.3197007,0.1453791,0.4871964
		c0.008605,0.947803,0.0043249,1.8957071,0.0039473,2.8435764c-0.0002956,0.7390194-0.0006113,0.7395716-0.7820234,0.7404337
		c-0.2182341,0.0002422-0.436471-0.0038233-0.654707-0.0059128c-0.1463089-0.1892328-0.1765966-0.4045734-0.1722631-0.6292591
		c0.0152168-0.7892179-0.0350761-1.5790834,0.0273476-2.3678851c0.0079184-0.0329189,0.0161228-0.0658026,0.0243292-0.0986862
		c-0.8081675-0.2435431-0.9097548-0.4355764-0.595088-1.1249065c0.0382338-0.0301042,0.079607-0.0343451,0.1241217-0.012722
		l-0.0134659,0.0454144c0.0367298,0.0379105,0.0548773,0.0822401,0.0553856,0.132679
		c0.0074692,0.1966753-0.1350203,0.4156818,0.1046906,0.5763192c0.1320219,0.0446391,0.2749529,0.0459671,0.4047136,0.0959902
		c0.1199074,0.0528741,0.2087879,0.132484,0.2593565,0.2465353c0.1271477,0.7626524,0.034709,1.5303264,0.0602932,2.2954364
		c0.0204306,0.6110363,0.1612892,0.6933756,0.7907734,0.4418964c0.1728067-0.9569988,0.0301104-1.9195118,0.0791397-2.8774571
		C14.5009928,5.2808046,14.422266,4.9983916,14.6254101,4.7589173z"/>
	<path fill="#1A2315" d="M11.531086,7.2792931c0.4277287,0.2074933,0.2576265,0.6492429,0.411314,0.9675093
		c0.3006744,0.6226568,0.881135,1.0604486,1.1495705,1.6834641c-0.2077074,0.0827913-0.3430252-0.0890493-0.5180912-0.1228371
		c-0.1516237-0.0618992-0.2854624-0.1488523-0.4133625-0.2449303c-0.0647945-0.0525284-0.1156044-0.1149082-0.1572351-0.1841307
		c-0.25739-0.4465408-0.5568609-0.8739738-0.7327127-1.3580494c-0.0694122-0.2725577-0.1583395-0.5424056-0.1349707-0.8274279
		c0.0042896-0.1080189,0.0232687-0.2130971,0.0818405-0.3084717c0.1863289-0.1512189,0.2160463-0.0278134,0.2503433,0.1151872
		C11.4900951,7.0926352,11.3956985,7.2088418,11.531086,7.2792931z"/>
	<path fill="#142508" d="M13.210433,8.7138023c-0.2982121-0.0369062-0.2361565-0.2504225-0.2374496-0.4233437
		c-0.0046425-0.6214719-0.0118427-1.2431927,0.0030375-1.8643937c0.006011-0.250854-0.022646-0.4632387-0.3412447-0.548162
		c0.1884127-0.2195015,0.4042664-0.109405,0.5825949-0.1494603c0.0000486-0.000062,0.0017586,0.0045838,0.0017586,0.0045838
		C13.296277,6.7268157,13.3165083,7.7204638,13.210433,8.7138023z"/>
	<path fill="#0D280C" d="M19.1013813,6.0651641c-0.0423336,0.0800576-0.0846653,0.1601148-0.1269989,0.2401724
		c-0.0471725,0.0245652-0.0972481,0.0315232-0.1503086,0.0216231c-0.1500015-0.0421739-0.2778702-0.1271987-0.4208221-0.1831245
		c-0.2570515-0.088367-0.5088539-0.06359-0.7582188,0.0285769c-0.1949787,0.0508986-0.4011612,0.1570921-0.5380859-0.0883455
		c-0.0215855-0.0886102-0.0066013-0.1713548,0.0453129-0.2488279c0.107008-0.1205168,0.2529926-0.1806831,0.4094162-0.2254186
		c0.4041328-0.0679493,0.8277607-0.2742023,1.167799,0.1329131C18.8370743,5.8661456,19.0455132,5.8913941,19.1013813,6.0651641z"/>
	<path fill="#1B2317" d="M15.7348795,5.6223373c0.2284565-0.5255322,0.5524626-0.9632788,1.2008047-1.1030397
		c0.1168251,0.0327597,0.166132,0.10813,0.1627789,0.2170014c-0.0630817,0.1601186-0.2103424,0.2657614-0.3089542,0.4032912
		c-0.0473576,0.0564327-0.1025581,0.1056046-0.1629372,0.1500053c-0.2034168,0.1429052-0.3955193,0.2985001-0.5913239,0.450532
		c-0.0459776,0.0262709-0.0960283,0.0379643-0.1500502,0.0362344C15.8032236,5.7512832,15.752883,5.7000875,15.7348795,5.6223373z"
		/>
	<path fill="#132503" d="M14.9928656,4.7622619c0,1.2718925,0,2.5437851,0,3.8156772
		c-0.0194569,0.0002747-0.0389137,0.0005493-0.0583706,0.000823c0-1.2695665,0-2.5391335,0-3.8087006
		C14.9539518,4.7674613,14.9734087,4.7648621,14.9928656,4.7622619z"/>
	<path fill="#7B04E4" d="M14.625412,4.7589173c0.0058861,1.1876283,0.0118504,2.3752575,0.0175333,3.5628867
		c0.0005264,0.1097708,0.0040379,0.2209072-0.1012516,0.3008623c-0.0596733-0.0441313-0.1024189-0.099328-0.1288424-0.1652479
		c-0.0980282-1.2158632-0.0243568-2.433898-0.0473022-3.6510935c0.0277443-0.0810452,0.082881-0.1020827,0.16506-0.0633078
		C14.5620108,4.7493167,14.5936108,4.7546167,14.625412,4.7589173z"/>
	<path fill="#17240B" d="M12.7464533,4.5907516c-0.0414448,0.0044212-0.0828915,0.008842-0.1242304,0.0129924
		c-0.0036182-0.1313896-0.0046225-0.2854285,0.1809311-0.2894254c0.5792694-0.0124774,1.1590605-0.0045786,1.7392273,0.0685673
		C13.9600487,4.6362476,13.3267918,4.3925123,12.7464533,4.5907516z"/>
	<path fill="#1A2315" d="M12.1306696,11.0343142c-0.1367731-0.1227102-0.4156818,0.2758198-0.480547-0.1105909
		c0.0969973-0.1129894,0.268918-0.1272554,0.3676224-0.2379475c0.1621265-0.1959553,0.3253498-0.3904295,0.5542221-0.5267391
		c0.1679173-0.0586557,0.2956715-0.2692356,0.5197964-0.1184416C12.8942146,10.4720821,12.6240244,10.8442755,12.1306696,11.0343142
		z"/>
	<path fill="#132504" d="M11.531086,7.2792931c-0.0267038,0.0392456-0.0299263,0.1911974-0.102026,0.0682106
		c-0.0874977-0.149251,0.046277-0.3670998-0.1286373-0.5149384c-0.2846231-0.2860913-0.1423912-0.6355829-0.1698971-0.9601884
		c0.012619-0.1375604,0.0386333-0.2698059,0.1733341-0.3572874c0.1540232,0.0054736,0.222312,0.0852838,0.2266264,0.2205873
		C11.5306959,6.2502236,11.5308905,6.7647581,11.531086,7.2792931z"/>
	<path fill="#122602" d="M15.7348795,5.6223373c0.0400677,0.0372839,0.0801353,0.0745678,0.120203,0.1118517
		c0.023736,0.5286336,0.0106049,1.0523615-0.2433929,1.5440469c-0.0783377,0.0003362-0.1566772,0.0006733-0.2350159,0.0010095
		c-0.2425146-0.5912709,0.1505003-1.1043453,0.241231-1.6546125C15.6569138,5.6247039,15.6959076,5.623939,15.7348795,5.6223373z"/>
	<path fill="#232125" d="M13.2104349,8.7138014c0.0028591-0.9935937,0.0057182-1.9871879,0.0086355-2.9807782
		c0.2345333,0.4894929,0.0660419,1.0027819,0.0982513,1.5040231c0.0339031,0.5275979,0.0158854,1.0580111,0.0206203,1.5871792
		C13.2954826,8.7874069,13.2529583,8.7506046,13.2104349,8.7138014z"/>
	<path fill="#17240F" d="M19.4610729,4.5202827c-0.0398502,0.0370626-0.0797043,0.0741248-0.1195564,0.111187
		c-0.2365093,0.1801682-0.459631,0.0470352-0.6857796-0.0232859c-0.0536518-0.0232096-0.1042976-0.051774-0.153162-0.0821757
		c-0.2520351-0.1607013-0.5868778-0.0178456-0.8359184-0.1906366c-0.0301437-0.0311117-0.0410843-0.0631309-0.0332413-0.0959096
		c0.0079346-0.0331564,0.0165539-0.049736,0.0258732-0.049736C18.298254,4.1234016,18.8941517,4.2551975,19.4610729,4.5202827z"/>
	<path fill="#212125" d="M18.729475,5.742733c-0.4000416-0.2001324-0.8056469-0.0465636-1.2093182-0.0160556
		c0.1313686-0.4108281,0.5072308-0.3186908,0.827919-0.3392067c0.2076988-0.013288,0.426918,0.1424475,0.6230164-0.0373683
		c0.0442066-0.0379705,0.0941486-0.0664325,0.1507168-0.0856996c0.1039104,0.0102468,0.158802,0.0711136,0.1917019,0.1553469
		c0.0326366,0.1206012-0.0021458,0.2245612-0.0920696,0.3148293C19.0574532,5.7372975,18.893465,5.7400155,18.729475,5.742733z"/>
	<path fill="#192413" d="M19.2214413,5.7345786c0.0055847-0.1090465,0.0111694-0.2180929,0.0167522-0.3271399
		c0.0603733-0.2134213,0.1404572-0.4165897,0.342762-0.5561919c0.2568588-0.0888295,0.2049885,0.1065917,0.241106,0.2210026
		C19.6068783,5.2815638,19.6148605,5.6616716,19.2214413,5.7345786z"/>
	<path fill="#202120" d="M15.6179047,5.6246328c0.0300055,0.5651355-0.3899584,1.0748982-0.2412491,1.6546259
		c-0.0007906,0.0370464-0.0015993,0.0741062-0.0024166,0.1111584C15.0536652,6.7550225,15.3451481,6.190918,15.6179047,5.6246328z"
		/>
	<path fill="#6D0BBB" d="M14.5306091,4.7430172c-0.0409231,0.0066833-0.0818491,0.0133672-0.1227732,0.02005
		c-0.0549345,0.0483522-0.1191502,0.0815558-0.1923313,0.1003828c-0.5059204,0.000936-1.0291386,0.1612487-1.5040722-0.1338415
		c0.0088043-0.0308537,0.0159836-0.0620232,0.0215473-0.0934749C13.3301811,4.700376,13.9452677,4.5105186,14.5306091,4.7430172z"/>
	<path fill="#192415" d="M13.0917635,10.0405951c-0.2125216-0.0144491-0.285656,0.2578468-0.5139904,0.2108679
		c-0.0458422-0.1161776-0.0024652-0.2376184-0.0263596-0.3551455c-0.0021162-0.023735-0.002696-0.0475063-0.00418-0.0713224
		c0.0032387-0.0498648,0.0286303-0.0885143,0.0722771-0.1175709c0.2048988-0.0105581,0.3072491,0.1623774,0.4724579,0.2228403
		C13.0919418,9.967042,13.0918732,10.0038185,13.0917635,10.0405951z"/>
	<path fill="#162409" d="M13.597023,8.95646c0.3041906,0,0.6083803,0,0.912571,0
		c0.0005569,0.0182228,0.0011129,0.0364447,0.0016708,0.0546675c-0.3044109,0-0.608819,0-0.913229,0
		C13.5976982,8.9929047,13.5973606,8.9746828,13.597023,8.95646z"/>
	<path fill="#152507" d="M17.0572014,4.7474279c-0.0404892-0.0760369-0.0809784-0.1520739-0.1214905-0.2281203
		c0.0527687-0.0881834,0.1428165-0.1078544,0.2418442-0.1110077c0.1411915-0.0703764,0.2775288-0.1068587,0.3868427,0.0467248
		c0.0023861,0.1265764-0.0991783,0.1917892-0.1851139,0.2665863C17.2778873,4.7897391,17.1728382,4.8263507,17.0572014,4.7474279z"
		/>
	<path fill="#1C2217" d="M14.6538439,2.5325243c0.0003643-0.0362868,0.0006475-0.0725741,0.0008488-0.1088619
		c0.2148323-0.1750243,0.4585743-0.1927674,0.7204666-0.1117558c0.0803995,0.0003517,0.1607962,0.0007036,0.2412014,0.0010657
		C15.3534632,2.6005352,14.9914284,2.5212951,14.6538439,2.5325243z"/>
	<path fill="#1B2317" d="M17.5343819,4.5157733C17.4484119,4.3875437,17.3070221,4.41465,17.177557,4.4083157
		c0.1238804-0.1411161,0.2904606-0.2028108,0.4817238-0.2185988c-0.0001965,0.0366526-0.0002441,0.0732965-0.0001392,0.1099405
		c0.0717106,0.0818405,0.2296047,0.026845,0.2771053,0.1475554c-0.0022163,0.0566916-0.0308189,0.0989161-0.0820999,0.1293263
		C17.734108,4.615634,17.6238575,4.6115594,17.5343819,4.5157733z"/>
	<path fill="#17240A" d="M12.2941494,5.3842583c-0.0327396-0.2315698-0.0938692-0.4421959,0.0256023-0.6795239
		C12.3906717,4.9637003,12.4055786,5.1847239,12.2941494,5.3842583z"/>
	<path fill="#1C2217" d="M16.6968937,2.4227505c0.2026615,0.0262444,0.4325275-0.0733476,0.6012936,0.1096938
		C17.0954628,2.5064824,16.8656044,2.6060593,16.6968937,2.4227505z"/>
	<path fill="#313131" d="M19.9396992,9.2678223c0.188303-0.4106312,0.6066837-0.7244024,0.6059093-1.2146339
		c0.5488853-1.0019364,0.4556065-2.0176854,0.0771255-3.0395689c-0.0977325-0.1246905-0.1448002-0.2652168-0.1562252-0.4170737
		c-0.0346508-0.2079697,0.0047283-0.3628516,0.2896309-0.3407831c0.722374,0.7064276,0.7262459,1.5991845,0.7184734,2.4767661
		c-0.0094128,1.0628214-0.4329681,2.0015268-1.1509876,2.8323498c-0.0911236,0.105442-0.2311535,0.2122135-0.1371021,0.409339
		c0.2445736-0.0344458,0.3669853-0.2113056,0.4702892-0.3757992c0.9152546-1.4573975,1.2208195-2.9941874,0.7308998-4.6449909
		c-0.091217-0.3073592-0.2846241-0.5087819-0.5214291-0.7042675c0.1164398-0.3176668,0.2788887-0.5474586,0.6891022-0.3039503
		c0.1695366,0.1877232,0.2254887,0.4241161,0.3263168,0.6418648c0.4585533,1.2938471,0.4130764,2.5841341-0.0332108,3.871295
		c-0.1208649,0.1811113-0.0808392,0.4145765-0.2257824,0.5880213c-0.2945709,0.5843391-0.7273235,1.0781498-1.2000027,1.5458002
		c-0.1994438,0.3108225-0.3996887,0.312149-0.6007462,0.0013151c-0.2038536-0.1076164-0.3645687-0.2547903-0.4809608-0.4426155
		C19.1585083,9.637929,19.693224,9.5353384,19.9396992,9.2678223z"/>
	<path fill="#182413" d="M24.3885841,5.0715756c-0.4203243,0.4219503-0.6216526,0.9677134-0.9614487,1.435183
		c-0.114109,0.0424595-0.1945305,0.1158209-0.2402172,0.2210331c-0.1544228-0.0032177-0.2359123-0.0732441-0.2362289-0.2176313
		c0.0487614-0.1143198,0.161211-0.1860542,0.2265606-0.2888589c0.0249882-0.039897,0.0526714-0.0784779,0.0794296-0.1172509
		c0.0966606-0.1350002,0.1424847-0.2868347,0.1717949-0.4443064c0.0526886-0.2098713,0.171526-0.3970623,0.2397861-0.6017385
		c0.0594902-0.1389198,0.1282616-0.2724328,0.2582073-0.369916c0.0924988-0.0576119,0.1896763-0.0995221,0.3059654-0.0717425
		c0.2353439-0.0170465,0.2580204-0.2564855,0.4516621-0.390039C24.823885,4.6116323,24.3828926,4.7779312,24.3885841,5.0715756z"/>
	<path fill="#222222" d="M23.2832413,6.160965c0.0317287,0.2310495-0.1033058,0.3280077-0.3325977,0.3491669
		c-0.2882862,0.1160984-0.2402458-0.0778942-0.2444-0.2237759c-0.1041355-0.1737313,0.0063877-0.3769851-0.0916882-0.5515032
		c-0.1215-0.2712064-0.096117-0.5690312-0.1855354-0.8461123c-0.0477467-0.1429729-0.0938225-0.2861581-0.1369362-0.4301572
		c-0.1201191-0.413259-0.7301846-0.6170335-0.5809345-1.1451221c0.1266327-0.0783906,0.2251968-0.0109594,0.3068066,0.0640001
		c0.3608227,0.3314214,0.7350883,0.651474,1.0521774,1.021009c-0.0465946,0.0060081-0.0931911,0.0120158-0.1397858,0.0180244
		C22.826231,5.0358424,22.9983845,5.6080246,23.2832413,6.160965z"/>
	<path fill="#222222" d="M21.7449093,4.5201035c-0.1619377-0.1540484-0.1877251-0.3582087-0.2408695-0.5522997
		c0.0265274-0.0151868,0.0530548-0.0303733,0.0795898-0.0456812c0.4590473,0.0391104,0.5056629,0.4111972,0.6197147,0.6955981
		c0.0934296,0.2329721,0.1506557,0.4821734,0.247406,0.7180753c0.0427952,0.1830816,0.056097,0.3610921-0.104538,0.5086441
		c-0.0112438,0.8236566,0.0741215,1.6594081-0.3604984,2.430059c-0.0189896-0.0253153-0.0379791-0.0506296-0.057024-0.0759163
		c-0.0287132-0.3482938,0.0930672-0.6829391,0.1575317-1.0156555C22.2662048,6.254014,22.0633984,5.3851552,21.7449093,4.5201035z"
		/>
	<path fill="#2C3229" d="M20.7834587,4.2995696c-0.2442417,0.0102978-0.2419624,0.1718397-0.2415333,0.3322477
		c-0.0399742,0.0511012-0.0796623,0.0533857-0.1190243-0.0005865c-0.0401077-0.0370851-0.0802155-0.0741696-0.1203289-0.1112561
		c-0.0398083-0.1104436-0.0796146-0.2208848-0.119421-0.331326c0.0554066-0.1121159,0.1662045-0.1838202,0.2412701-0.2815092
		c0.0312233-0.0378616,0.0671253-0.0718498,0.10536-0.103637c0.1578293-0.1129367,0.3396301-0.1976466,0.474369-0.3384914
		c0.0319252-0.0364175,0.067152-0.069654,0.1038342-0.1019697c0.0824261-0.0581505,0.1658306-0.1138964,0.2758179-0.0551033
		c0.0013161,0.1086402,0.0026321,0.2172809,0.0039463,0.3259211c0.1254196,0.0857167,0.253912,0.1705093,0.1192036,0.3344681
		c0,0-0.0029011-0.000514-0.0029068-0.0005186c-0.3075142-0.1720247-0.3878021,0.1759291-0.6002827,0.2213759
		C20.8735218,4.2350497,20.8557949,4.2924256,20.7834587,4.2995696z"/>
	<path fill="#303030" d="M20.6632671,4.961832c0.5856724,0.9661236,0.4376717,1.9590569,0.1230564,2.9561882
		c-0.0307026,0.097312-0.1378326,0.1236658-0.2407436,0.1351709c0.0016575-0.121696-0.0222855-0.2510533,0.1176872-0.3312793
		c0.2598324-0.8097558,0.258522-1.6195531,0.0004597-2.4293914l0.0002689,0.0003724
		C20.5814838,5.1826921,20.5810604,5.0723391,20.6632671,4.961832z"/>
	<path fill="#212121" d="M17.5343819,4.5157728c0.1202164-0.0020838,0.2404289-0.004168,0.3606453-0.0062518
		c0.2446709-0.1332784,0.488493-0.1341991,0.7314243,0.0039525c0.2383518,0.0393252,0.4767036,0.0786505,0.7150593,0.1179857
		c0.0456982,0.1046505,0.1255169,0.1779089,0.2394524,0.2197905c-0.0355091,0.2264152-0.1240044,0.4252505-0.3428841,0.5561771
		c-0.0247917-0.0380421-0.0496998-0.076097-0.074604-0.1141515c-0.1712952,0.020968-0.0638161-0.0804329-0.0705566-0.1319308
		c0.0671425-0.1220369,0.0459557-0.2173238-0.1027279-0.2735572c-0.3384514-0.1435618-0.6982288-0.0986567-1.05126-0.1108522
		c-0.2138367-0.0073876-0.4381485,0.0273561-0.6240273-0.1129603C17.3340874,4.5471139,17.4306583,4.5269732,17.5343819,4.5157728z"
		/>
	<path fill="#212121" d="M20.6637268,5.2925205c0.3620052,0.8098559,0.363657,1.6196542-0.0004597,2.4293923
		C20.8251953,6.9121408,20.8240471,6.1023431,20.6637268,5.2925205z"/>
	<path fill="#1A2312" d="M22.3462124,5.84444c-0.0002174-0.1838169-0.0004368-0.3676338-0.0006542-0.5514512
		c-0.0807266-0.1304374-0.1041641-0.266933-0.0520992-0.4109716c0.0385132-0.0448322,0.0889053-0.0675464,0.1516838-0.0645018
		c0.1819401,0.2781119,0.0357666,0.6150517,0.1893597,0.8999157c0.0349712,0.064858,0.0418167,0.114109,0.0209064,0.0431261
		C22.654232,5.7565618,22.688261,5.7438154,22.705904,5.7351422c0.2209892,0.1836257,0.0832691,0.3674383,0.0003414,0.5512185
		C22.3675365,6.2894197,22.548399,5.9352431,22.3462124,5.84444z"/>
	<path fill="#212121" d="M19.9396992,9.2678223c-0.1500187,0.3227053-0.6567516,0.4413109-0.5986977,0.8830709
		C19.0534573,9.5778208,19.552021,9.454546,19.9396992,9.2678223z"/>
	<path fill="#222222" d="M21.6227093,9.0463905c0.03302-0.1852446-0.077198-0.3972788,0.1222-0.551404
		c0.1071339-0.0488672,0.0054398-0.2889929,0.2399979-0.2211552c0,0,0.0007973,0.0006571,0.000803,0.0006628
		C21.9352512,8.5597925,21.946249,8.8694792,21.6227093,9.0463905z"/>
	<path fill="#222222" d="M19.8219604,10.5935059c0.200716,0.1805344,0.4009666,0.1803608,0.6007481-0.0013094
		c-0.0120831,0.1760826-0.0914822,0.3153648-0.2996235,0.315856C19.9148521,10.9085436,19.8348083,10.7695904,19.8219604,10.5935059
		z"/>
	<path fill="#212121" d="M20.6632671,4.961832c0.0002384,0.1103535,0.0004768,0.2207074,0.000721,0.3310609
		c-0.1776848-0.190629-0.2301693-0.4197626-0.241087-0.6616693c0.0396881-0.0003152,0.0793705-0.0001297,0.1190376,0.0005789
		C20.5823727,4.7418222,20.6228199,4.8518271,20.6632671,4.961832z"/>
	<path fill="#192311" d="M9.8468342,11.8071213c0.0801811-0.1104145,0.1603622-0.22083,0.2405424-0.3312454
		c0.051137-0.0555115,0.0771904-0.1473675,0.0377731-0.1815338c-0.0458155-0.039711-0.094243,0.0608025-0.1577053,0.0719023
		l-0.00002,0.0000763c-0.3365116-0.0839863-0.1351776-0.2827778-0.1140623-0.443594
		c0.1725254-0.4723539,0.1176662-0.8967371-0.3109493-1.2425241c-0.1581964-0.1889143-0.4384193-0.2834969-0.501543-0.5461216
		c-0.0022001-0.2052383,0.1246424-0.3069506,0.328969-0.3465185c0.4839087,0.364624,0.8804483,0.7868891,1.0519438,1.3565245
		c0.0708208,0.1958799,0.0183449,0.4190187,0.158659,0.6000299c0.2019157,0.3016357,0.0597553,0.5719852-0.0891762,0.8423347
		c-0.0264778,0.0493412-0.0584393,0.0954313-0.0944109,0.1394205c-0.059,0.0645475-0.1291103,0.1137257-0.2207937,0.1319771
		C10.0592012,11.8805513,9.9409008,11.9100237,9.8468342,11.8071213z"/>
	<path fill="#1A2315" d="M8.283865,12.028511c-0.8050175-0.2162752-1.4577603-1.0302944-1.3293805-1.6468954
		c0.0381322-0.1831465,0.0326996-0.3610754,0.2459583-0.4535418c0.0887747,0.0189657,0.1461859,0.0686541,0.1732507,0.1486158
		c0.0365829,0.2884712-0.1605015,0.6151562,0.1679244,0.8548641c0.1756783,0.1270819,0.2821155,0.3035545,0.4006963,0.4713678
		c0.2130404,0.3315611,0.639287,0.2035227,0.9313393,0.3642893c0.0384693,0.0407391,0.0511189,0.0879107,0.0418501,0.1407127
		c-0.1495161,0.168498-0.3601303,0.1004019-0.5482159,0.1196184C8.3394928,12.0279093,8.3116789,12.0282106,8.283865,12.028511z"/>
	<path fill="#8004E0" d="M8.5448885,7.2827578c0.0026217-0.1987066,0.1348238-0.3403153,0.2545853-0.487258
		c0.0375118-0.0359802,0.0749359-0.0721478,0.11236-0.1083145c0.2534409-0.0986757,0.2504311,0.0757375,0.2693548,0.217752
		C9.2142181,7.1528006,9.1276245,7.407948,9.2337646,7.6515388C9.388381,7.7764697,9.3862314,7.9617591,9.4500637,8.1223135
		c0.0192308,0.0565701,0.0297213,0.1142941,0.034627,0.1732931c-0.028512,0.2715559-0.094286,0.4939051-0.4707994,0.2922153
		c-0.2236557-0.1472206-0.4784527-0.048295-0.7171574-0.0765705c-0.0119944-0.0225-0.0239878-0.0449991-0.0361061-0.0675058
		C8.425478,8.1571751,8.7451172,8.3097267,8.9917383,8.2442789c0.0109777-0.266891-0.1418037-0.4956141-0.1259785-0.7454762
		c-0.007308-0.0793509-0.0056-0.1656203-0.1384783-0.1525159C8.6554489,7.3498354,8.5917988,7.336031,8.5448885,7.2827578z"/>
	<path fill="#1A2313" d="M8.885334,11.9168911C8.88552,11.883646,8.8858166,11.8504,8.8862228,11.8171549
		c0.034586-0.0951433,0.1116886-0.1619368,0.1824999-0.2333746c0.3188725-0.1837587,0.4671783-0.5418024,0.8264256-0.6843576
		c0.0249786,0.0099287,0.0499659,0.0200281,0.0749531,0.0301275c0.0375834,0.1457825-0.2199841,0.2900343-0.0026798,0.4367599
		c-0.6660423,0.7699804-0.9923277,0.8983164-1.6835499,0.6621943C8.283865,12.028511,8.28547,12.0274715,8.28547,12.0274715
		C8.4638214,11.8917122,8.7096643,12.0649338,8.885334,11.9168911z"/>
	<path fill="#192311" d="M7.3201761,10.0396328c-0.0398912-0.0371704-0.079782-0.0743399-0.1197028-0.1115341
		C7.2453151,9.8320208,7.2725458,9.7240095,7.338316,9.6421204c0.2107587-0.2624149,0.4538321-0.5040131,0.5895257-0.8122587
		c0.1088519,0.0677357,0.2715592-0.0122032,0.3606191,0.1108589c0.0518894,0.1024046,0.0121498,0.195426-0.0336924,0.288188
		C7.9597073,9.5148516,7.6550999,9.7920132,7.3201761,10.0396328z"/>
	<path fill="#8004E0" d="M7.7965341,8.3838615c0.3265624-0.246253,0.4228129-0.6426659,0.7077098-0.9160843
		c0.2100105,0.1911283,0.0183506,0.3567753-0.0360012,0.5337486c-0.050334,0.1638927-0.280118,0.2644329-0.1959953,0.4739361
		c0,0,0.0244522,0.035738,0.0244694,0.0357637C8.1014214,8.5634918,7.8283639,8.8733702,7.7965341,8.3838615z"/>
	<path fill="#162508" d="M8.2845821,8.9364481C8.1546535,8.9318914,8.0138597,8.9580164,7.9277864,8.8298244
		C8.2793427,8.7249718,8.6196156,8.532548,9.0077152,8.7129526c0.0341902-0.0360737,0.0755119-0.047678,0.125164-0.0310183
		C9.2229147,8.713336,9.3168688,8.7396374,9.3656931,8.826972c-0.0738783,0.1139688-0.25986,0.1593065-0.2399054,0.3307199
		C9.0862942,9.1923561,9.04144,9.1998158,8.9911985,9.1804876C8.9339199,9.1368866,8.8898268,9.082118,8.8428774,9.0304155
		c-0.143672-0.1153383-0.3228865-0.0580063-0.4846621-0.083744C8.3336124,8.9435072,8.3090982,8.9399776,8.2845821,8.9364481z"/>
	<path fill="#1C2218" d="M9.8468342,11.8071213c0.1143503-0.0002451,0.2287025-0.0004892,0.3430538-0.0007343
		c0.0284662,0.0204382,0.0395927,0.0424585,0.0334148,0.0660706c-0.0063848,0.0243988-0.0138025,0.036602-0.0222845,0.036602
		c-0.0416985,0.0346231-0.083396,0.0692463-0.1251507,0.1037989c-0.0360336,0.0046968-0.0719519,0.0098066-0.1078081,0.0152588
		c-0.1198206,0.0179625-0.1621971,0.2774315-0.2980261,0.1367397C9.51721,12.0065641,9.6923885,11.8894987,9.8468342,11.8071213z"/>
	<path fill="#291E33" d="M9.1217098,8.7187529C9.0836601,8.717432,9.0456457,8.715519,9.0076904,8.7129831
		C9.0097675,8.671258,9.0118189,8.6295624,9.0138817,8.5878458c0.3954296,0.0535879,0.3872614-0.1732168,0.3474321-0.42202
		C9.6922579,8.2061882,9.6696005,8.4301615,9.6585445,8.648385C9.5072212,8.848444,9.3143969,8.7831516,9.1217098,8.7187529z"/>
	<path fill="#1A2313" d="M9.9674454,11.3662443c0.0972757-0.1218243,0.1945524-0.2436485,0.3174515-0.3975611
		c0.0574942,0.2498636-0.0542545,0.3843489-0.1975222,0.5071936C10.0473995,11.439333,10.0074215,11.4027882,9.9674454,11.3662443z"
		/>
	<path fill="#8C01F6" d="M21.2131596,3.4000754c-0.0262947,0.0421002-0.0525913,0.0842001-0.078886,0.1262996
		c-0.1607552,0.0604451-0.3136177,0.1400378-0.4872589,0.1696239c-0.0603352-0.0124795-0.106369-0.0431516-0.1385689-0.0916331
		c0.0221615-0.2971663-0.1311703-0.5110438-0.3420486-0.7288532c-2.3158665-2.3919721-7.19837-2.3276436-9.2198086,1.2154493
		c-0.0977077,0.1712594-0.1097345,0.4040284-0.361208,0.4808717C10.520875,4.575736,10.4636841,4.5591574,10.4130335,4.522306
		c-0.1614342-0.2902703,0.0146933-0.5218878,0.180479-0.735455c0.1249294-0.1609359,0.223999-0.3312767,0.3263836-0.5020504
		c0.2881613-0.4901404,0.66922-0.9028316,1.1869717-1.2015612c0.7829018-0.502973,1.56145-0.9730655,2.5341501-1.1751437
		c1.6119194-0.3348762,3.0818539-0.0411879,4.5132504,0.6131068c0.1473789,0.0884625,0.3117886,0.1536876,0.4451065,0.2624995
		c0.1479282,0.2184066,0.380743,0.3438176,0.6146526,0.4678804c0.2309208,0.1685941,0.4154701,0.3748982,0.575346,0.6010797
		l0.0028954,0.0074077C20.9299374,3.0418003,21.1849194,3.1463645,21.2131596,3.4000754z"/>
	<path fill="#8A02F1" d="M19.2256203,1.6493012c-0.8424358-0.2691456-1.6558895-0.5798428-2.5668945-0.6910284
		c-1.4272404-0.1741907-2.6675701,0.1896163-3.8736725,0.8044021c-0.2220669,0.1131943-0.390234,0.3247203-0.678154,0.3205725
		c0.1372375-0.2487047,0.4617462-0.3046153,0.6326914-0.5186374c2.0577049-1.2130129,4.1601915-1.1813712,6.2971601-0.1912726
		C19.1614418,1.4296322,19.2628994,1.4994071,19.2256203,1.6493012z"/>
	<path fill="#212121" d="M22.3451881,4.8517947c0.000124,0.1470656,0.0002518,0.2941313,0.0003738,0.441196
		c-0.3549175-0.2656693-0.1892796-0.7249098-0.4613285-1.0362673c-0.1135063-0.129909-0.1674023-0.280586-0.3773098-0.2883999
		c-0.039732-0.1114583-0.0794907-0.2229204-0.1192131-0.3344238c0.3820629-0.0945976,0.2525406-0.3035645,0.1120605-0.486954
		c-0.1776714-0.2319403-0.4125576-0.4295304-0.4754429-0.7244358c0.0099697-0.0967364-0.0853271-0.1449964-0.1205502-0.2209203
		c-0.042038-0.0734887-0.0840721-0.1469777-0.1261101-0.2204667c-0.0309372-0.0250921-0.0433502-0.051963-0.0372639-0.0806171
		c0.0062771-0.0295402,0.0139484-0.0443126,0.0226154-0.0442625c0.0461826-0.0238764,0.0959969-0.0364356,0.1487923-0.0369991
		c0.2196789,0.083938,0.2852268-0.2920184,0.5255814-0.1498733c0.0345917,0.0418252,0.0603142,0.0872126,0.0805683,0.1360883
		c0.1458416,0.3291503,0.089344,0.695984,0.2314701,1.0256196c0.0834675,0.1594787,0.1489277,0.3188336-0.0046692,0.4758627
		c0.0029659,0.4982519,0.5655994,0.6917484,0.7160053,1.1097145C22.3008327,4.5344863,22.3618202,4.7018409,22.3451881,4.8517947z"
		/>
	<path fill="#1D221B" d="M19.0938473,1.4486936c-1.4616508-0.6566374-2.9762897-0.9180926-4.5854092-0.5433622
		c-0.6248074,0.1455048-1.1829042,0.4314753-1.7688494,0.6592538c0.0507116-0.2155836,0.2662249-0.2572101,0.436429-0.3406266
		c1.9932909-0.976907,3.9668236-0.8333998,5.924921,0.0943155c0.0349216,0.0306569,0.0454922,0.0601902,0.0317726,0.0886223
		C19.1192703,1.4347533,19.1063328,1.4486936,19.0938473,1.4486936z"/>
	<path fill="#8902F2" d="M10.9198961,3.2848005c-0.0281248,0.4534867-0.4925137,0.7660661-0.4726629,1.2350478
		c0.0251703,0.1305547-0.016696,0.2523131-0.0550928,0.3754082c-0.3722858,1.1934857-0.3036528,2.3735704,0.1257792,3.5436215
		c0.0650644,0.1772766,0.0956345,0.3574572-0.0788298,0.5068426c-0.1105614-0.1901436-0.2211218-0.3802862-0.3316822-0.5704288
		C9.9437866,8.2754498,9.9327726,8.1047087,9.8744545,7.9554286c-0.0518312-0.1853995-0.0561934-0.3796296-0.128355-0.561851
		C9.7261047,7.3374295,9.7132607,7.280602,9.7036877,7.2224374C9.5915089,6.5185685,9.7986612,5.8419881,9.9092045,5.157486
		c0.1526365-0.5320239,0.3072119-1.0636063,0.6711063-1.5170481C10.6935053,3.5218921,10.8067007,3.4033463,10.9198961,3.2848005z"
		/>
	<path fill="#0F2700" d="M9.609026,8.603055C9.4925833,8.4735069,9.5515604,8.2600927,9.3613243,8.165822
		C9.3613138,8.1658258,9.3622046,8.1673584,9.3622046,8.1673584c-0.082221-0.1845484-0.0862236-0.3691273-0.0002489-0.55374
		c0.0019674-0.3316498,0.0039358-0.6633005,0.0059214-0.994947c0.2518616-0.2635951,0.0336962-0.5925183,0.1462297-0.8747458
		c0.0253019,0.0163159,0.0692635,0.0295029,0.0761824,0.0522141c0.0155001,0.0508776,0.0125723,0.1064935,0.017149,0.1601796
		c0.242588,0.3826981,0.0550966,0.8047318,0.1304674,1.2025023c0.0232048,0.0824575,0.0423861,0.166831,0.1165934,0.227447
		L9.8544645,7.3863711c0.0131264,0.1787162,0.0206356,0.3579178,0.0548372,0.5348473
		c0.0638943,0.1526341,0.1059332,0.3073268,0.0535984,0.4710555c-0.141592,0.0771046,0.3684301,0.3540134-0.1181974,0.3253202
		C9.7099161,8.7770548,9.6621227,8.6854496,9.609026,8.603055z"/>
	<path fill="#321C46" d="M9.8544989,7.3862686c-0.0449867-0.034399-0.0899725-0.0687971-0.1349592-0.1031957
		C9.6322708,6.8392644,9.6427965,6.3951001,9.7137909,5.9507155c0.045846-0.2909646,0.091692-0.5819292,0.137538-0.8728938
		c0.0425005-0.0403962,0.0852213-0.0405922,0.1281614-0.0005908C9.8532591,5.8430467,9.8342257,6.6137595,9.8544989,7.3862686z"/>
	<path fill="#1A2317" d="M20.7893734,2.8526623c-0.2024632-0.1802149-0.4049263-0.360429-0.6073875-0.5406439
		c-0.0955219-0.0962272-0.3004971-0.121011-0.244503-0.3161353C20.4081078,2.1248417,20.7074566,2.3975248,20.7893734,2.8526623z"/>
	<path fill="#212121" d="M9.9794903,5.0772309C9.9367409,5.0773892,9.8939905,5.077548,9.851284,5.0777645
		c0.1785765-0.5066619,0.22964-1.0679374,0.7290182-1.4373307C10.3800364,4.1193695,10.1797638,4.5983,9.9794903,5.0772309z"/>
	<path fill="#1C221A" d="M19.0938473,1.4486936c0.0023632-0.0434725,0.0047283-0.0869452,0.0070915-0.1304187
		c0.2392063,0.1923115,0.6127548,0.2497287,0.7033997,0.59121c-0.0832367,0.0280135-0.1591148,0.0217596-0.2229786-0.0404235
		c-0.1185856-0.0732524-0.2371712-0.1465051-0.3557491-0.2197591C19.1816959,1.5824322,19.1377716,1.515563,19.0938473,1.4486936z"
		/>
	<path fill="#1E221B" d="M18.8604488,0.8774742c0.449688-0.491791,0.3926792,0.1599987,0.5964699,0.2230974
		C19.2279377,1.0941869,18.9789677,1.1329668,18.8604488,0.8774742z"/>
	<path fill="#1A2317" d="M20.7812042,1.8785272c-0.0007267,0.0342134-0.0018635,0.0684154-0.0034733,0.1026008
		c-0.2417679-0.1778144-0.5265503-0.3221365-0.5889568-0.6393311c0.02384-0.0151374,0.0476799-0.030275,0.0715218-0.0455816
		C20.6121807,1.3556775,20.8635311,1.4911834,20.7812042,1.8785272z"/>
	<path fill="#212121" d="M9.7137909,5.9507155c0.001955,0.4441133,0.0039101,0.8882256,0.0058069,1.3323479
		C9.4867487,6.854753,9.6611643,6.3973894,9.6074257,5.9563098C9.642972,5.9557905,9.6784229,5.9539227,9.7137909,5.9507155z"/>
	<path fill="#212121" d="M21.2131596,3.4000754c-0.1230965-0.1913171-0.3781681-0.2958202-0.4208908-0.5400059
		c0.2992973,0.0354311,0.4458408,0.2411554,0.5915394,0.4478407C21.3269215,3.3386509,21.2700405,3.3693631,21.2131596,3.4000754z"
		/>
	<path fill="#1A2317" d="M20.9037781,2.2015893c0.1052361,0.0113018,0.2491474-0.0327837,0.2938061,0.0839961
		c0.0468597,0.1225357-0.0902348,0.1158571-0.1732635,0.1369238C20.8719692,2.4005282,20.7211285,2.3778472,20.9037781,2.2015893z"
		/>
	<path fill="#8A02F1" d="M19.5813599,1.8690615c0.0743389,0.0134455,0.1486778,0.026891,0.2229977,0.0403801
		c0.0443649,0.0288402,0.0887451,0.0576369,0.1331253,0.0864372c0.0815029,0.1053826,0.1630039,0.2107614,0.244503,0.3161398
		C19.8769569,2.2843168,19.729948,2.0757861,19.5813599,1.8690615z"/>
	<path fill="#8B03E7" d="M19.8698559,1.1975031c-0.0150318-0.0351325-0.0300598-0.0702651-0.0450897-0.1053973
		c-0.0509949-0.0523175-0.04389-0.0968007,0.0214138-0.1335998c0.2289009,0.0175153,0.4454288,0.0451832,0.3308983,0.3425507
		l0.0116959,0.0407403C20.082468,1.2936989,19.97616,1.2456011,19.8698559,1.1975031z"/>
	<path fill="#8A01F7" d="M10.4390907,8.9457207c-0.1394892-0.6346493-0.297452-1.2664523-0.4139833-1.9046392
		c-0.1604185-0.8785291,0.0009279-1.7204204,0.4221315-2.5212297c0.0402384,0.0002317,0.0804844,0.0004673,0.1207285,0.0007024
		c0.1150179,0.2928343,0.039876,0.5805459-0.0391893,0.8640733c-0.4620743,1.6569643,0.0687075,3.1091061,1.0858555,4.4604683
		c0.0651674,0.0865803,0.1420259,0.1830235,0.3047266,0.1786776c0.1031132-0.1853695-0.0676117-0.2940712-0.1561403-0.4169044
		c-0.431818-0.5991468-0.7685776-1.2289715-1.0346975-1.9147377c-0.9184341-2.366713,1.4272747-5.644681,4.1903906-6.1313505
		c1.8815651-0.3314019,3.3689461,0.1834557,4.7467117,1.2501218c0.1834888,0.1420569,0.357399,0.2998788,0.3713284,0.5446825
		c-0.0040703,0.0591612-0.024559,0.1131234-0.0607834,0.1621184c-0.1505413,0.09934-0.215601-0.0689113-0.328207-0.0885339
		c-0.1465473-0.1332316-0.2930965-0.2664633-0.4396439-0.3996944c-0.1667137-0.1773748-0.3245068-0.3639724-0.5673599-0.4628882
		c-1.4782391-0.6388967-2.9825239-0.896251-4.5475092-0.2646346c-0.0480118,0.0281541-0.0970869,0.0554419-0.1458035,0.0826688
		c-0.3439674,0.1048608-0.663208,0.2468812-0.8979158,0.5138214c-0.0563784,0.0558631-0.1177988,0.1064425-0.1846294,0.1514714
		c-0.2328501,0.1283987-0.4847708,0.2359085-0.6146154,0.4767013c-0.0358019,0.0359867-0.0716057,0.0719733-0.1074085,0.1079605
		c-0.3681221,0.3886592-0.5963335,0.8494942-0.8063774,1.3196704c-0.2549858,1.0368385-0.2535381,2.0735593,0.0008802,3.1101446
		c0.2102747,0.4687309,0.4376736,0.928606,0.8056164,1.3158894c0.0357752,0.0358,0.0715475,0.0716009,0.1073208,0.1074018
		c0.0882206,0.1433792,0.20786,0.2563972,0.3728228,0.3256226l-0.0047951-0.0031538
		c0.0594425,0.446682-0.3554773,0.6519985-0.6228409,0.8771582c-0.2107887,0.177515-0.3076305-0.2466974-0.526022-0.3022394
		c-0.0257502-0.0258274-0.0515022-0.0516558-0.0772543-0.0774822c-0.0698376-0.258584-0.3268719-0.3899364-0.4778605-0.5933657
		l0.0050535,0.0064631c-0.1380749-0.2719812-0.2757454-0.5441732-0.4822645-0.7804613
		C10.437356,8.9402227,10.4390898,8.9457207,10.4390907,8.9457207z"/>
	<path fill="#252028" d="M9.609026,8.603055c0.0785742,0.038166,0.1571493,0.0763311,0.2357006,0.1145172
		c0.3128872,0.7824545,0.9541616,1.4172621,1.1901646,2.234271c-0.2745476,0.1813984-0.1657972,0.7014685-0.6917505,0.6607323
		c0.0321341-0.2671185,0.4091396-0.4950638,0.1076832-0.8000746c-0.1561289-0.2023067,0.0343218-0.4591475-0.1232824-0.6612215
		c-0.1403513-0.5519333-0.7302876-0.8282928-0.9618435-1.324316C9.2672701,8.8234272,9.1774607,8.8035049,9.121747,8.7187243
		C9.2898302,8.7003841,9.4821644,8.7680883,9.609026,8.603055z"/>
	<path fill="#8902F0" d="M10.3431406,11.6125755c0.253521-0.0651817,0.2885122-0.276042,0.3543816-0.4605894
		c0.0561771-0.1573896,0.1345854-0.2615099,0.3373852-0.2001772c0.1524658,0.2347136,0.367485,0.412425,0.6099482,0.565136
		c0.0700703,0.0578098,0.0740957,0.1221094,0.022337,0.1920261c-0.1157513,0.0487518-0.2069492-0.0037022-0.2977028-0.0597076
		c-0.0620384-0.0425549-0.1186523-0.0910244-0.1741047-0.1395664c-0.0851154-0.0557909-0.1587772-0.1558819-0.2815056-0.056324
		c-0.0714722,0.0917053-0.1109953,0.1998749-0.1909657,0.2855034c-0.1467628,0.1132269-0.2847528,0.1531553-0.3935213-0.0406418
		C10.3342476,11.6697178,10.33883,11.6411648,10.3431406,11.6125755z"/>
	<path fill="#8902F2" d="M11.4696827,10.3850689c0.5859814,0.2995138,0.7668743,0.2089949,1.1488323-0.5748892
		c0.2951565,0.1710749,0.0464277,0.2999115-0.040678,0.4412994c-0.1533308,0.1708641-0.3065958,0.3417444-0.4598608,0.5126257
		c-0.2007952,0.1829529-0.3434877,0.1143188-0.4551458-0.0887079
		C11.5984478,10.5786209,11.5340652,10.4818449,11.4696827,10.3850689z"/>
	<path fill="#8902F2" d="M10.437356,8.9402227c0.280592,0.197628,0.4988546,0.4277687,0.4822998,0.7804193
		C10.6637106,9.5101528,10.5214634,9.2403479,10.437356,8.9402227z"/>
	<path fill="#8902F2" d="M10.914567,9.714221c0.2519369,0.1347075,0.4959564,0.2747965,0.4778709,0.5932369
		C11.1942806,10.1362104,10.9893284,9.9694586,10.914567,9.714221z"/>
	<path fill="#291E33" d="M9.9629002,8.3922739C9.9270782,8.2414064,9.8912554,8.090538,9.8554335,7.939671
		c0.041503-0.050539,0.0850916-0.0521078,0.1307669-0.0047011c0.1070271,0.1313028,0.1294003,0.2822666,0.121191,0.4403296
		C10.0592384,8.3809519,10.0110703,8.3866129,9.9629002,8.3922739z"/>
	<path fill="#8606D7" d="M11.6479216,11.6984491c-0.0010281-0.060504-0.0020561-0.121007-0.0030746-0.1815081
		c0.1747561,0.0408707,0.2485561,0.1886177,0.3651524,0.2910576c0.0003576,0.03617,0.0007448,0.0723391,0.0011625,0.1085072
		C11.7996092,11.9710121,11.7060623,11.8596182,11.6479216,11.6984491z"/>
	<path fill="#212121" d="M11.6628304,10.6753969c0.1396065,0.081789,0.2764797,0.1753616,0.4551048,0.0888863
		c-0.0825462,0.2345219-0.299305,0.1373205-0.4678202,0.1594419C11.6543579,10.8409472,11.6585941,10.758173,11.6628304,10.6753969z
		"/>
	<path fill="#321C46" d="M9.2348928,7.7405515c-0.1562147-0.2047677-0.1111345-0.4416518-0.121932-0.6683016
		C9.1054268,6.914135,9.1452856,6.7423387,8.9117975,6.6869216c0.168891-0.2572203,0.2950716-0.2029862,0.3269167,0.0595737
		c0.0343046,0.2828436,0.0199289,0.5706706,0.0267916,0.8563232C9.3084269,7.6586947,9.2982206,7.7046061,9.2348928,7.7405515z"/>
	<path fill="#291E33" d="M9.2348928,7.7405515c0.0100985-0.0458641,0.020195-0.0917282,0.0304537-0.1376619
		c0.0320501,0.0057092,0.0642309,0.0092959,0.0966549,0.0107093c0.0000458,0.1845932,0.0001364,0.3691683,0.0002165,0.553751
		C9.2230377,8.0494404,9.2445097,7.8910828,9.2348928,7.7405515z"/>
	<path fill="#8700FC" d="M8.2722473,8.475462c-0.2021847-0.0054541-0.2366838-0.0816841-0.127676-0.2354164
		c0.1684275-0.2375326,0.3692122-0.4640398,0.3597059-0.7722178C8.5177917,7.406105,8.5313387,7.3444319,8.5448875,7.2827587
		c0.0733414-0.000556,0.1466818-0.001111,0.2200222-0.001667c0.0321226,0.1111383,0.0562,0.236115,0.2257967,0.1107845
		C9.0567303,7.724761,9.1227551,8.0576468,9.1911011,8.4022398C8.8783674,8.4285364,8.5568762,8.2829866,8.2722473,8.475462z"/>
	<path fill="#8400FE" d="M11.2880211,11.4758425c0.0403833,0.0369015,0.0807667,0.0738029,0.12115,0.1107044
		c0.1019745,0.1390839,0.1408319,0.2788248,0.0051832,0.4203806c-0.2810202,0.0010843-0.5620394,0.0021677-0.8430586,0.0032511
		c-0.0583382-0.1353445,0.0567436-0.2162771,0.1169014-0.3144426c0.0406704-0.1108208,0.0813398-0.2216406,0.1220102-0.3324614
		C11.0197935,11.2205544,11.1356812,11.4134893,11.2880211,11.4758425z"/>
	<path fill="#9E00FE" d="M11.4143553,12.0069275c-0.0017281-0.1401291-0.0034552-0.2802572-0.0051842-0.4203835
		c0.0795946,0.0372906,0.1591902,0.0745792,0.2387676,0.111887c0.1210556,0.07271,0.2421284,0.145401,0.3632126,0.2180834
		C11.8514843,12.1653242,11.6094484,11.9553862,11.4143553,12.0069275z"/>
	<path fill="#9E00FE" d="M10.6881971,11.6957359c-0.0390072,0.1049223-0.0780144,0.2098446-0.1169615,0.3146038
		c-0.1393557,0.0155544-0.2794037,0.033227-0.370225-0.1012678c0.0084038-0.0353441,0.004694-0.0695667-0.0111227-0.102684
		c0.0465078-0.0360556,0.0930157-0.0721102,0.139514-0.1081591C10.4495935,11.7699976,10.5691442,11.7630844,10.6881971,11.6957359z
		"/>
	<path fill="#1A2314" d="M21.7447624,3.3069415c0.0181599-0.1608832-0.037756-0.3047271-0.1205788-0.4423816
		c0.0082378-0.0230839,0.0164738-0.0461686,0.0245552-0.0693436c0.0348434-0.0380933,0.0782185-0.0636106,0.1313419-0.0748162
		c0.1474361,0.0202551,0.2137032,0.1310635,0.2970905,0.2232165c0.1471386,0.1952357,0.2895641,0.3941219,0.4986115,0.5418289
		c0.5811005,0.330658,0.8246784,0.3250194,1.3223267-0.0327909c0.1698265-0.1969473,0.3060188-0.418555,0.508976-0.5911579
		c0.2726955-0.4835982,0.0821457-1.0008328-0.4988537-1.3804477c-0.1714439-0.1120194-0.4270859-0.1200279-0.5099506-0.3431923
		c0.0396557-0.1256725,0.1524086-0.1407236,0.2688293-0.1502266c0.651289,0.1595063,1.0127296,0.6002867,1.2563763,1.1326164
		c0.1242771,0.2715268,0.1125259,0.5660493-0.0087681,0.8480034c-0.1692715,0.3934779-0.5899143,0.616405-0.7291679,1.0751429
		c-0.0994778,0.3277102-0.7051163,0.3073483-1.1154251,0.3551645C22.4368954,4.2308145,22.2522774,3.6034317,21.7447624,3.3069415z"
		/>
	<path fill="#182413" d="M21.6241837,2.8645599c-0.195343-0.3480327-0.1183681-0.7439549-0.2305889-1.1066059
		c0.0803108-0.1503612,0.039257-0.3294342,0.1324139-0.4772118c0.0864429-0.1606108,0.1842251-0.3091416,0.4115753-0.3132699
		c0.2221527-0.1112978,0.4167995-0.1291041,0.5295391,0.1314831c0.0631657,0.0618122,0.0926819,0.1349752,0.0884762,0.2196528
		c-0.1460648,0.3768015-0.503809,0.6285335-0.6878777,0.9829127c-0.1188393,0.1731865-0.1078262,0.3940272-0.2422962,0.5614302
		L21.6241837,2.8645599z"/>
	<path fill="#7B05DC" d="M21.9375839,0.9674723c-0.1073475,0.1096599-0.2146969,0.21932-0.3220444,0.3289799
		c-0.0334587,0.077111-0.0840225,0.1385298-0.1756058,0.1620135c-0.0577736-0.0142645-0.0954514-0.0485895-0.1155281-0.0997326
		c-0.0429115-0.0869045,0.1226025-0.2849945-0.1581287-0.2460778c-0.4572296,0.0633842-0.8960648-0.0420126-1.3368378-0.1275519
		c-0.001215,0.0356819-0.0027752,0.0713509-0.0046787,0.1070046c-0.1370773-0.0398899-0.2911472-0.1031148-0.2566776-0.2476978
		c0.0312653-0.1311558,0.1994972-0.0746726,0.310112-0.075026c0.5756416-0.0018399,1.1513042,0.0009965,1.7269535,0.0032582
		C21.7593975,0.7732483,21.9439564,0.7339435,21.9375839,0.9674723z"/>
	<path fill="#17240A" d="M19.691618,0.4841798c0.6969948,0,1.3939857,0,2.0909786,0
		c-0.0006847,0.0364745-0.0013695,0.0729491-0.0020542,0.1094236c-0.694603,0-1.3892078,0-2.0838108,0
		C19.6950264,0.5571289,19.6933231,0.5206543,19.691618,0.4841798z"/>
	<path fill="#8304E5" d="M23.2832413,6.160965c-0.1588554,0.0840116-0.3455086,0.199995-0.354002-0.1014538
		c-0.0128326-0.4552178-0.0909157-0.8974214-0.2499428-1.3270106c-0.0835266-0.2256384,0.0428658-0.2943563,0.2510929-0.3160286
		c0.0104733,0.0282946,0.0199375,0.0568604,0.0283527,0.0857201c0.0030613,0.0245633,0.0061245,0.0491261,0.0095768,0.0736384
		c0.1622925,0.4013853,0.1837406,0.8327155,0.3164291,1.2414265c0.0461617,0.0210867,0.075985,0.0521264,0.0911102,0.0962768
		c-0.0133514,0.090868,0.0140324,0.1931577-0.0909672,0.2551556L23.2832413,6.160965z"/>
	<path fill="#8304E5" d="M24.2324333,4.6163473c-0.069149,0.0357876-0.1382961,0.0715761-0.2074451,0.1073647
		c-0.1957264-0.0735741-0.3766689,0.061202-0.5687122,0.0343366c-0.1938629-0.0271201-0.4442768,0.0594883-0.5176754-0.214036
		c0,0,0.0201187-0.0417867,0.0201302-0.0418034c0.3405972,0.014895,0.6794491,0.0102029,0.9952335-0.1282268
		C24.2853279,4.2287245,24.2847481,4.3949914,24.2324333,4.6163473z"/>
	<path fill="#132604" d="M22.4658146,1.3190497c0.0004272-0.0733758,0.0008545-0.1467519,0.0012951-0.2201109
		c0.2078285,0.0146109,0.312542-0.1595027,0.478899-0.2207897c0.2217712,0.1406796,0.4991837-0.0283169,0.7214832,0.1094078
		c0,0-0.0003624,0.0000626-0.0003719,0.0000678c-0.0515385,0.0886918-0.1410542,0.1078775-0.2396088,0.1105223
		C23.1281319,1.2496212,22.8459454,1.4642589,22.4658146,1.3190497z"/>
	<path fill="#1A2314" d="M23.6674919,0.9875569c-0.2405682-0.0360581-0.5098591,0.0877107-0.7214794-0.1094223
		C23.1870899,0.9113516,23.4566326,0.7861555,23.6674919,0.9875569z"/>
	<path fill="#8701F8" d="M19.3411102,8.0422497c-0.0625515,0.0809298-0.1251011,0.1618595-0.1876526,0.2427893
		c-0.0371475,0.1604166-0.1835747,0.2228203-0.3159733,0.2980337c-0.7692852,0.3739328-1.5128536,0.2524862-2.2442913-0.0987825
		c-0.1483421-0.0530338-0.2553101-0.1498346-0.33885-0.2712317c-0.0834923-0.1991081-0.2605467-0.3767762-0.1699104-0.6165543
		c0.2040997-0.1040807,0.3252258,0.029088,0.4567757,0.1337318c0.1379337,0.1275287,0.2519245,0.2768755,0.4404621,0.3850679
		c-0.5100231-0.3686414-0.4898529-0.7625017-0.1114864-1.1876006c0.1487389-0.1671104,0.1456509-0.4214296,0.3546963-0.5615354
		c0.047596-0.032649,0.0994396-0.0568414,0.1554298-0.0743017c0.3413982-0.1294904,0.6911163-0.1846657,1.0566654-0.1037736
		c0.1339569,0.0488749,0.2648678,0.105113,0.3969231,0.1585517c0.2135086,0.1265502,0.347456,0.3276367,0.5322723,0.4812512
		l-0.007988-0.0066595C19.4805679,7.2297525,19.5289516,7.6373954,19.3411102,8.0422497z"/>
	<path fill="#1A2314" d="M18.8487606,8.4944983c0.1015644-0.0698204,0.2031307-0.1396408,0.304697-0.2094603
		c0.1218796,0.2482071-0.1133747,0.3199654-0.2619343,0.4108133c-0.6284103,0.3842945-1.6388435,0.3399858-2.2032852-0.0832758
		c0.0232487-0.0181875,0.0464973-0.036375,0.0697136-0.0546236C17.4628773,8.7597485,18.1657524,8.9036522,18.8487606,8.4944983z"/>
	<path fill="#212121" d="M15.6116896,7.2782359c-0.0141973-0.5273619,0.0526695-1.0439396,0.2434044-1.5440407
		c0.0447636,0.0004959,0.0895405,0.000998,0.1343155,0.0014997c0.1040125,0.6115422,0.0673113,1.2186408-0.0678387,1.8228416
		c-0.026474,0.022121-0.0533171,0.0440183-0.0801611,0.0659151C15.7648354,7.509047,15.6882639,7.3936415,15.6116896,7.2782359z"/>
	<path fill="#8703ED" d="M19.3411102,8.0422506c0.0056324-0.4069471,0.0112648-0.8138943,0.0169849-1.2209282
		C19.6852207,7.2321663,19.6881828,7.6392736,19.3411102,8.0422506z"/>
	<path fill="#1A2314" d="M16.3215027,8.2011871c0.0352898,0.100173,0.1054573,0.1677942,0.217308,0.1965179
		c0.0997353,0.0312481,0.2039185,0.0590534,0.1743832,0.1902828c0,0-0.0248203,0.0244789-0.0248871,0.0245333
		C16.3421154,8.5429325,16.16572,8.290987,15.9762192,8.0531178c0.0378246-0.0383806,0.0844059-0.0597239,0.1411915-0.0613546
		C16.2414398,8.0154657,16.2920246,8.0996523,16.3215027,8.2011871z"/>
	<path fill="#8703ED" d="M19.3661709,6.8278956c-0.2358398-0.072083-0.3751106-0.2414541-0.5035076-0.4217834
		c-0.0375824-0.0220265-0.0498638-0.0437288-0.0369797-0.0651751c0.0127583-0.0212421,0.0255032-0.0318971,0.0383587-0.0318971
		c0.0363007-0.0133653,0.073082-0.0145993,0.1103439-0.0037026C19.0509377,6.5137177,19.3547649,6.5782919,19.3661709,6.8278956z"/>
	<path fill="#212121" d="M16.1072388,8.049757c-0.0436745,0.0011215-0.087347,0.002243-0.1310215,0.0033627
		c-0.0448523-0.1429543-0.0897045-0.2859082-0.1346827-0.4287648c-0.0001249,0.0000968,0.0411606-0.0308981,0.0411606-0.0308981
		C16.0987797,7.6868997,16.1840153,7.8346868,16.1072388,8.049757z"/>
	<path fill="#8802F1" d="M13.9538002,2.3322363c0.0408897-0.2066514,0.2331381-0.2191839,0.4011698-0.2740736
		c1.5479231-0.5056446,2.9985895-0.2669605,4.3855543,0.4747987c0.0532093,0.0500231,0.0496349,0.0963535-0.0107117,0.1389914
		c-0.2237167-0.033314-0.3994904-0.2427387-0.6572495-0.1510131c-0.9374352-0.4792547-1.9101563-0.63792-2.9625568-0.3419108
		C14.7419357,2.282557,14.3524551,2.3672369,13.9538002,2.3322363z"/>
	<path fill="#1C231B" d="M13.9538002,2.3322363c1.1885548-0.3777663,2.3873329-0.5354077,3.6118813-0.1421165
		c0.2036991,0.0654223,0.4312897,0.0994434,0.5066452,0.3307958c-0.6627312-0.2626398-1.365654-0.3682268-2.0771074-0.4224136
		c-0.2055349-0.0156541-0.4430428-0.0765634-0.6199865,0.1031075c-0.2628193,0.1294451-0.5413227,0.1651139-0.833725,0.1176984
		c-0.3474302,0.0771294-0.6430025,0.2995605-1.0156908,0.3059154C13.5492678,2.3842151,13.783,2.3941836,13.950408,2.3249905
		L13.9538002,2.3322363z"/>
	<path fill="#122603" d="M14.5415077,2.3193078c0.2714291-0.0779674,0.5448341-0.1441169,0.833725-0.1176982
		c0.0000515,0.0367668,0.0000277,0.0735338-0.0000734,0.1102986c-0.2229385,0.13097-0.4733324,0.1125059-0.7204723,0.1117382
		C14.6169653,2.3888776,14.579236,2.3540928,14.5415077,2.3193078z"/>
	<path fill="#8902F4" d="M19.6479626,3.4291697c0.0983448,0.0323365,0.1966915,0.0646727,0.2950363,0.0970097
		c0.2392368,0.0744586,0.365324,0.2056253,0.2670269,0.4493082c-0.0862446,0.0565159-0.1650696,0.0581987-0.2318439-0.0271513
		C19.9473343,3.7327518,19.7396355,3.6121018,19.6479626,3.4291697z"/>
	<path fill="#5B1694" d="M19.9781818,3.9483361c0.068737,0.00249,0.137476,0.0049796,0.206213,0.0074697
		c0.1152401-0.0751772,0.2300835-0.0814507,0.3444138,0.0016694c-0.0459347,0.164495-0.1875458,0.2082539-0.3456631,0.2311749
		C20.0847282,4.1302123,19.9554272,4.0940003,19.9781818,3.9483361z"/>
	<path fill="#8902F4" d="M18.7298126,2.6719527c0.0035686-0.0463316,0.0071392-0.0926635,0.0107098-0.1389935
		c0.2089462,0.1231935,0.411232,0.251682,0.4677467,0.4963436C19.0488167,2.9103005,18.8893147,2.7911265,18.7298126,2.6719527z"/>
	<path fill="#680CB2" d="M11.2886181,8.0661783c-0.3591433-1.0392485-0.3603144-2.0785141-0.0001831-3.1177979
		c0.0354681-0.045352,0.0675135-0.0411429,0.0966148,0.0056343c-0.0270739,0.1870241-0.0541487,0.3740478-0.0812063,0.5610733
		c-0.009841,0.1019077-0.0196972,0.2038136-0.0295534,0.3057194c-0.074029,0.4581022-0.0809107,0.916081,0.0029793,1.3738942
		c0.0446587,0.2858572,0.0893173,0.5717139,0.133975,0.8575711C11.3767843,8.1046467,11.3359079,8.1092834,11.2886181,8.0661783z"/>
	<path fill="#8802F1" d="M11.3850498,4.9540148c-0.0323763,0.0007701-0.0645838-0.0010223-0.0966187-0.0055056
		c0.1549015-0.5094037,0.3662987-0.9876611,0.854619-1.3139231C11.8904018,4.074388,11.6377258,4.5142016,11.3850498,4.9540148z"/>
	<path fill="#8802F1" d="M13.950408,2.3249905c-0.1414499,0.1001043-0.282897,0.2002091-0.424468,0.3002729
		c-0.1045856,0.0785072-0.2090464,0.1570544-0.3135099,0.2356014c-0.079051,0.0662444-0.159214,0.073415-0.2408199,0.0038197
		C13.215889,2.5592973,13.5000792,2.314997,13.950408,2.3249905z"/>
	<path fill="#8802F1" d="M12.2504854,3.5266151c0.0633907-0.3042312,0.2643957-0.4845161,0.5898571-0.5527058
		c0.0958014,0.2122264-0.1385269,0.2299531-0.2311764,0.3311522C12.4896049,3.3789124,12.3700466,3.4527638,12.2504854,3.5266151z"
		/>
	<path fill="#1C231B" d="M12.6091661,3.3050611c0.0770674-0.110383,0.1541328-0.2207661,0.2311888-0.3311505
		c0.0437422-0.0364099,0.0874996-0.0728185,0.1312551-0.1092265c0.0802727-0.0012689,0.1605434-0.0025387,0.240818-0.003814
		C13.0644188,3.0697653,12.9163713,3.2786236,12.6091661,3.3050611z"/>
	<path fill="#8100FB" d="M13.4460287,5.6391859c-0.0771313-0.0460639-0.1542606-0.0921278-0.2313929-0.1381922
		c-0.0728283-0.1433377-0.2446632-0.3035145-0.0737104-0.4441705c0.2451658-0.2017202,0.5656681-0.1514969,0.8589067-0.0950203
		c0.2651882,0.051075,0.4087734,0.2235126,0.4067144,0.4769144c-0.0076046,0.9355197,0.0509005,1.8717308-0.0324993,2.8068023
		c-0.4423971,0.3337069-0.5422268,0.3120193-0.7748566-0.1672287c0.0947695-0.646225,0.0280361-1.296679,0.0480232-1.9441938
		c0.0018129-0.1556311-0.0137138-0.3092613-0.089097-0.4522376c-0.0222521-0.0496898-0.0550394-0.0997105-0.0089931-0.1536479
		C13.4871283,5.543541,13.5025387,5.6195574,13.4460287,5.6391859z"/>
	<path fill="#9100FE" d="M14.2939453,8.2742863c-0.0003633-0.9145885-0.0005779-1.8291788-0.0012178-2.7437682
		c-0.0001173-0.1674232,0.0055056-0.3727059-0.204422-0.4119034c-0.2680597-0.0500517-0.5602617-0.0706921-0.8241558-0.0220494
		C13.152997,5.117054,13.3955097,5.3748627,13.2146273,5.501018c-0.1603661,0.0015817-0.3207388,0.0031881-0.4811134,0.0047941
		c-0.128334-0.7070384-0.1282482-0.7012596,0.6169424-0.7106528c0.3153324-0.0039749,0.6345568,0.0472693,0.9463444-0.0379214
		c0.03724-0.0017796,0.0742683,0.0000458,0.1110592,0.0056529c0.1936722,0.248868,0.1141491,0.5340018,0.1158743,0.8040881
		c0.0062304,0.9746356-0.0012388,1.9493451-0.0035372,2.924026c-0.0335541,0.0396223-0.0750589,0.0465183-0.123579,0.0255327
		C14.3204241,8.4508657,14.2933054,8.367528,14.2939453,8.2742863z"/>
	<path fill="#8601F6" d="M14.4139042,8.4948845c0.035574-0.00002,0.0710945-0.0012894,0.1064262-0.0038433
		c0.0070076,0.0437965,0.0141487,0.0876293,0.0213261,0.1315432c-0.185174,0.167449-0.4174757,0.0645199-0.627018,0.0920868
		c-0.3686876,0.0485048-0.488656-0.1015158-0.4807243-0.4361858c0.0208454-0.879457,0.0102348-1.7595434,0.0121346-2.6393394
		c0.0181351-0.0513368-0.0186176-0.1347351,0.0799265-0.1359181c0.0157814-0.0001898,0.0327225,0.0808802,0.0491285,0.1243844
		c0.2487803,0.6754618,0.0910244,1.3712702,0.1071138,2.0566573C13.6986179,8.382865,13.6659908,8.3835115,14.4139042,8.4948845z"/>
	<path fill="#7B04E4" d="M14.2968006,4.7572379c-0.2680817,0.1792951-0.5806789,0.1098084-0.8605795,0.0836453
		c-0.5775461-0.0539865-0.8054447,0.1423178-0.702713,0.6649504c-0.2296009-0.2534246-0.177413-0.5135355-0.0219803-0.7761655
		C13.2398882,4.7388182,13.7683439,4.7480283,14.2968006,4.7572379z"/>
	<path fill="#8902F2" d="M11.2886181,8.0661774c0.0408735-0.0046339,0.0817471-0.0092669,0.1226234-0.0139036
		c0.243968,0.4426603,0.4879322,0.8853216,0.731926,1.3279943C11.6545572,9.0540867,11.4429226,8.5758648,11.2886181,8.0661774z"/>
	<path fill="#212121" d="M11.2772703,7.1947017c-0.1609697-0.4575906-0.1579428-0.9154696-0.0029182-1.373754
		c0.0085726,0.3371525,0.0172071,0.6744447,0.0259562,1.0116777C11.2927065,6.9532776,11.2849884,7.0739894,11.2772703,7.1947017z"
		/>
	<path fill="#8902F2" d="M12.6233397,9.8133039c-0.239912,0.0032005-0.3596048-0.1097651-0.3728228-0.3256216
		c0.1229935,0.073247,0.2459879,0.1464958,0.368989,0.2197428C12.6217413,9.7426882,12.6230173,9.7779818,12.6233397,9.8133039z"/>
	<path fill="#8301F9" d="M17.2985535,6.3978429c-0.1899929,0.2842326-0.2560863,0.623898-0.5136127,0.8832283
		c-0.1719952,0.1731997-0.0950699,0.3750644,0.0793457,0.5384974c0.147583,0.1382895,0.2904434,0.2808323,0.4681187,0.453249
		c-0.5001678,0.0869713-0.6571426-0.2222748-0.8751621-0.4404817c-0.3652496-0.6461067-0.4827023-1.297842-0.1204262-1.9887056
		c0.153059-0.2918801,0.3338642-0.5397611,0.6532898-0.6843262c0.1292496-0.0584965,0.2812233-0.0924168,0.3887653,0.0187631
		c0.1218929,0.1260128,0.0016346,0.2411289-0.0776577,0.3388505c-0.1765022,0.2175307-0.4656944,0.3545341-0.5114079,0.6173754
		c0.07411-0.1002736,0.1074867-0.2915907,0.3288078-0.3148847c0.0264149,0.0120854,0.0527668,0.0243239,0.0791187,0.0365629
		c-0.0129185,0.0670609-0.0258331,0.1341219-0.0387497,0.2011833C17.0717926,6.2169485,17.2697392,6.2781582,17.2985535,6.3978429z"
		/>
	<path fill="#8404E4" d="M19.0980358,5.4037294c-0.048811,0.3288016-0.2670116,0.2198315-0.4792194,0.1650667
		c-0.3892879-0.1004639-0.7736988-0.1360955-1.0986252,0.157897c-0.1075058,0.0430799-0.2149811,0.086175-0.3224545,0.1292739
		c-0.0000038,0.0000043-0.0362415-0.0116172-0.0362415-0.0116172c-0.0032578-0.3096962,0.2268486-0.4836955,0.495409-0.5354061
		C18.1367779,5.2165451,18.6368389,5.1380367,19.0980358,5.4037294z"/>
	<path fill="#49157D" d="M17.2985535,6.3978429c-0.2549782-0.0414958-0.3379116-0.142467-0.1395588-0.3406849
		c0.1657619,0.2434325,0.3337002-0.0388288,0.500309,0.0017333c0.2810593-0.067781,0.5615654-0.0821338,0.8409977,0.0073528
		c0.1182976,0.0846586,0.2933426,0.0975633,0.363739,0.2427912c0.0054989,0.0324135,0.0050354,0.0647502-0.0013828,0.0970449
		c-0.1351032-0.0113726-0.2772388-0.0041056-0.3735733-0.1185822c-0.414566-0.1235499-0.8103943-0.0730844-1.1921196,0.1083374
		L17.2985535,6.3978429z"/>
	<path fill="#212125" d="M18.5003014,6.0662441c-0.2803478-0.0024214-0.5606956-0.0048432-0.8410206-0.007309
		C17.9413128,5.8994498,18.2217617,5.8905797,18.5003014,6.0662441z"/>
	<path fill="#8500FE" d="M19.0980358,5.4037294c-0.3155174-0.0014257-0.6332359,0.0182309-0.9460239-0.0093379
		c-0.4423504-0.0389881-0.7666645,0.1019802-0.9904079,0.4499063c-0.2553062,0.1243844-0.2762108,0.3856435-0.4013062,0.590651
		c-0.1540012-0.3096838-0.1540012-0.3096838,0.6040535-1.226335c-0.4653225,0.0153027-0.7325459,0.2816682-0.8450775,0.5830922
		c-0.185154,0.4959521-0.4407692,1.0091171-0.146616,1.5614834c0.0740738,0.1390958,0.058794,0.3183494,0.0845814,0.4791479
		c-0.1250019-0.0658913-0.1723385-0.2372727-0.3571548-0.2219276c-0.323472-0.4728527-0.229188-1.6367159,0.175499-2.0891857
		c0.1002941-0.1121373,0.2195034-0.2100158,0.3015175-0.3362188c0.0409565-0.0372448,0.0819149-0.0744891,0.1228752-0.111733
		c0.6958008-0.4643064,1.4541492-0.4925618,2.2482357-0.2722692c0.1493778,0.0898113,0.4226913,0.10432,0.2717018,0.3768592
		c-0.0188408,0.0384698-0.0376797,0.0769396-0.0564804,0.1154108C19.1416607,5.3300924,19.1198463,5.3669105,19.0980358,5.4037294z"
		/>
	<path fill="#8903EE" d="M16.5771008,5.1850052c-0.3554096,0.5902705-0.7222881,1.1737957-0.6059084,1.8962693
		c0.0292311,0.1814566,0.0204182,0.3656573,0.12885,0.5291491c0.075901,0.1962123,0.2531509,0.3603544,0.2214775,0.5906835
		c-0.0714417-0.0503941-0.1428661-0.1008692-0.2142887-0.1513462c-0.0252438-0.1727057-0.1113462-0.320127-0.2245674-0.4562855
		c-0.0870638-0.6252174-0.0661726-1.2451835,0.1067219-1.8577828C16.129921,5.5022473,16.3113594,5.3056626,16.5771008,5.1850052z"
		/>
	<path fill="#7607D3" d="M18.977293,4.8556023c-0.7972317-0.2640767-1.5418129-0.0632534-2.2773209,0.2176661
		c0.0530529-0.1697016,0.2400208-0.2155085,0.3572292-0.3258467c0.1042824,0.0200305,0.1961021,0.0076246,0.257679-0.083498
		c0.6540356-0.0382743,1.3191929-0.1779904,1.929739,0.1790795C19.1593666,4.9162359,19.0699291,4.9145403,18.977293,4.8556023z"/>
	<path fill="#152507" d="M17.8994637,4.4105802c-0.0986843-0.0030184-0.1888542-0.0215974-0.2403278-0.1109262
		c0.3187866,0.0481386,0.6658649-0.1112418,0.9609566,0.1105976C18.3799267,4.4936714,18.139719,4.4933681,17.8994637,4.4105802z"/>
	<path fill="#1F221E" d="M17.8994637,4.4105802c0.2402096-0.0001135,0.4804192-0.000227,0.7206287-0.0003347
		c-0.0000629,0.0345702,0.0020103,0.0690255,0.0062885,0.1033001c-0.2437077-0.0013199-0.4874878-0.0025678-0.7313118-0.0039201
		C17.8976498,4.476584,17.899128,4.4436035,17.8994637,4.4105802z"/>
	<path fill="#303030" d="M20.7834568,4.2995696c0.0401001-0.036797,0.0802002-0.0735936,0.1203022-0.1103873
		c0.807642,0.2235503,0.7464275,0.9279609,0.8094902,1.4498634c0.1084747,0.8977418,0.1712112,1.8431187-0.2369862,2.6992588
		c-0.2865124,0.600914-0.4691544,1.2724676-1.03508,1.7397614c-0.1322174,0.1091738-0.2702332,0.267046-0.4549294,0.1050634
		c-0.1637955-0.1436539-0.1593094-0.2982817,0.0094929-0.476428c0.4815121-0.5081692,0.8657513-1.0720091,1.0762024-1.727664
		c0.3804379-1.1852527,0.4093208-2.3446503-0.257267-3.4639564C20.7793598,4.4557662,20.7927456,4.3719692,20.7834568,4.2995696z"/>
	<path fill="#303030" d="M21.9849072,8.2738314c-0.079998,0.0737171-0.1599979,0.1474342-0.2399979,0.2211542
		c0.1081123-0.5720143,0.2427845-1.1411481,0.3167934-1.7168636c0.0724506-0.5635691-0.0784855-1.1176529-0.1915207-1.6697841
		c-0.0401974-0.1963472-0.0834255-0.39217-0.1252728-0.5882335c0.5028076,0.8268886,0.5488014,1.71767,0.4264355,2.6289687
		C22.1208248,7.52531,22.0477333,7.8989892,21.9849072,8.2738314z"/>
	<path fill="#8400FE" d="M22.9386005,4.5440125c0.2545986,0.1519151,0.5299263,0.1067519,0.7934303,0.0460658
		c0.1635227-0.0376601,0.2669163-0.045682,0.2929668,0.133636c-0.0764084,0.1158452-0.1528072,0.2316933-0.2292061,0.3475409
		c-0.2365208,0.2154083-0.2484646,0.5557852-0.5021763,0.7616277c-0.0776768,0.0259767-0.2130356,0.1503401-0.2020016,0.1040149
		C23.2070808,5.4521208,22.7867813,5.023015,22.9386005,4.5440125z"/>
	<path fill="#8304E5" d="M23.2936153,5.8328829c0.1178341-0.2814403,0.18503-0.5910587,0.5021629-0.7616191
		c0.0278168,0.2513809-0.2408733,0.3988442-0.2628078,0.6327996c-0.0335045,0.0861964-0.0651169,0.1742873-0.194767,0.1642866
		L23.2936153,5.8328829z"/>
	<path fill="#222222" d="M23.3382053,5.8683505c0.0649376-0.0547147,0.1298771-0.1094294,0.1947899-0.1642151
		c0.0040874,0.1938438-0.0503922,0.3613839-0.2479782,0.4645567C23.3026638,6.0685768,23.3204327,5.9684629,23.3382053,5.8683505z"
		/>
	<path fill="#122503" d="M22.705904,5.7351422c-0.0036144,0.053545,0.011591,0.1168618-0.0142517,0.158864
		c-0.089426,0.1453433-0.0870972,0.0201612-0.1056843-0.03547c-0.1098118-0.3286686-0.1414165-0.6652188-0.1198902-1.0070953
		c0.037838-0.0446362,0.0740376-0.0435457,0.1085987,0.0032835C22.6184196,5.1481967,22.6621609,5.4416695,22.705904,5.7351422z"/>
	<path fill="#17240B" d="M22.5746765,4.8547244c-0.0361652-0.0020204-0.0723648-0.0031152-0.1085987-0.0032835
		c-0.0402927,0.0001149-0.0805836,0.0002303-0.1208839,0.0003495c-0.1586018-0.1893263-0.2259846-0.3581963,0.1156368-0.4352198
		C22.4987373,4.5626788,22.5367069,4.7087016,22.5746765,4.8547244z"/>
	<path fill="#9500FE" d="M20.5288086,3.9574752c-0.114809-0.0004935-0.22962-0.0009875-0.3444214-0.0015755
		c0.0094681-0.1859496-0.1759109-0.2794044-0.2413979-0.4297159c-0.0002804-0.0371048-0.0005665-0.0742056-0.0008564-0.1113057
		c0.2599735-0.0622659,0.4297981,0.0818679,0.60149,0.2217228c0.0398979,0.0001993,0.0797997,0.0003603,0.1196976,0.0004818
		c0.0829468,0.1238277-0.1054821,0.1366987-0.1090736,0.2251434C20.5558186,3.8962414,20.5473385,3.9279912,20.5288086,3.9574752z"
		/>
	<path fill="#8A02F1" d="M20.5542469,3.8622262c-0.1542168-0.1529679,0.1319847-0.1258655,0.1090736-0.2251451
		c0.1470299-0.07271,0.2987823-0.1284611,0.4709797-0.1107061C20.9858589,3.7038097,20.7978554,3.8235419,20.5542469,3.8622262z"/>
	<path fill="#8404E4" d="M18.977293,4.8556027c0.0890484-0.00418,0.1780949-0.0083599,0.2672329-0.0125694
		c0.1925392,0.1240873,0.183506,0.2356648-0.0246086,0.3348403C19.2363834,5.0085912,19.0568199,4.9638786,18.977293,4.8556027z"/>
	<path fill="#1D221B" d="M9.0054092,9.1545782c0.0401249,0.0010347,0.0802517,0.0020704,0.1203775,0.0031099
		c0.1474781,0.1602163,0.3925514,0.2280397,0.4893332,0.436244C9.5939388,9.6103525,9.5727577,9.6267719,9.5515661,9.6433754
		C9.1034212,9.6457214,8.6897459,9.2218113,8.2162638,9.553791c-0.2684784,0.1161642-0.4636889,0.2969484-0.5747232,0.5518637
		c-0.228704,0.2801933-0.008203,0.6342859-0.1797323,0.9233084c-0.4538918-0.280652-0.2562542-0.6399899-0.1416006-0.9893198
		C7.4427862,9.61724,7.8973794,9.4627867,8.1643496,9.1569052C8.4441891,8.9998522,8.7243805,8.9493275,9.0054092,9.1545782z"/>
	<path fill="#1D221B" d="M9.6151199,9.5939322c0.5244102,0.3541021,0.6061211,0.8075151,0.3549938,1.3356028
		c-0.0000124,0.0000153-0.0281763-0.0259418-0.0281763-0.0259418c-0.1930571-0.2004824-0.080162-0.4708576-0.1889172-0.6903133
		c-0.0465059-0.19841-0.2866259-0.3483438-0.1768885-0.5863113L9.6151199,9.5939322z"/>
	<path fill="#1A2313" d="M10.3275414,10.1512794c0.2194719,0.1923571,0.0795183,0.4412355,0.1232481,0.6612291
		C10.2267437,10.6208878,10.3680182,10.3717842,10.3275414,10.1512794z"/>
	<path fill="#8802EF" d="M9.8571234,10.1430178C10.05725,10.380374,9.9237709,10.649147,9.941968,10.9036131
		c-0.232688,0.294239-0.4779911,0.5770645-0.8238335,0.7689943c-0.4865751,0.1694317-0.9242296,0.1089573-1.3018188-0.2337847
		c-0.1181803-0.1366167-0.2363591-0.2732344-0.3545227-0.4098549c-0.0632081-0.3414173-0.2020297-0.687788,0.0782409-1.0066748
		c0.0238185,0.0152216,0.0476384,0.0304432,0.0717297,0.0454197c0.0954385,0.1271629,0.0905423,0.2756453,0.1065416,0.4201345
		c0.0486317,0.439187,0.2375474,0.772892,0.7678428,0.8376541c0.5496092,0.0671186,0.9587231-0.169611,1.1551418-0.6614389
		c0.0613232-0.153554,0.0490189-0.3266754,0.1484079-0.4701595C9.8119631,10.1767702,9.8345432,10.159894,9.8571234,10.1430178z"/>
	<path fill="#212121" d="M7.8163157,11.4388227c0.4017849,0.2290268,0.8344707,0.3128719,1.3018217,0.2338142
		c-0.0307236,0.1112614-0.1292238,0.130641-0.2319221,0.1444178C8.4897432,11.7861376,8.0315361,11.9024429,7.8163157,11.4388227z"
		/>
	<path fill="#132505" d="M8.885334,11.9168911c-0.1170549,0.1118774-0.1170549,0.1118774-0.5998783,0.1105862
		C8.4532194,11.8431721,8.6835623,11.9454374,8.885334,11.9168911z"/>
	<path fill="#9C00FE" d="M8.9907064,7.3918762C8.9329967,7.4346123,8.875289,7.4773488,8.8175793,7.5200853
		c-0.0175533-0.07967-0.0351067-0.1593409-0.0526648-0.2390022C8.8067751,7.2067084,8.8550301,7.1007471,8.955143,7.153019
		C9.0013351,7.1771379,8.9809208,7.3089132,8.9907064,7.3918762z"/>
	<path fill="#152508" d="M9.0054092,9.1545782c-0.2803545,0.0007792-0.560709,0.0015583-0.8410616,0.0023327
		c0.0400772-0.0734911,0.0801544-0.1469765,0.1202326-0.2204618c0.0000019-0.000001-0.0002317,0.0001526-0.0002317,0.0001526
		c0.2404556-0.0840788,0.4808884-0.0843124,0.7212992,0.000165C9.0055685,9.0093699,9.0054884,9.081975,9.0054092,9.1545782z"/>
	<path fill="#192311" d="M9.0056477,8.9367666C8.7652149,8.9367113,8.5247841,8.936656,8.2843504,8.9366007
		C8.524827,8.7690773,8.7652597,8.7688913,9.0056477,8.9367666z"/>
	<path fill="#8100FB" d="M20.543623,3.636601c-0.2533798,0.0471954-0.4128151-0.1207244-0.6014881-0.2217078
		c-0.5952492-0.92293-1.5474377-1.3693814-2.6204147-1.6504887c-2.7765589-0.7274269-5.0066156,0.8356136-6.0152197,2.5852623
		c-0.8708105,1.5106158-0.8194618,3.0395331,0.1352015,4.5155516c0.2010012,0.31077,0.3625154,0.6534977,0.6779776,0.9006557
		c0.1922874,0.1506529,0.1379728,0.3212719-0.0308046,0.4750671c-0.2141619,0.1951475-0.2890091,0.0118675-0.4119682-0.1070757
		c-0.6772585-0.6551447-0.9898825-1.4580231-1.2624636-2.3115182c-0.1560678-0.4886703-0.1770763-0.9572353-0.2122869-1.4442682
		c-0.0470858-0.6512866,0.2473888-1.2381749,0.3658133-1.8575268c0.7299175-1.6319437,2.0396404-2.7243996,3.836503-3.2603078
		c0.6176758-0.1842195,1.327549-0.2175188,2.0100632-0.1616659c1.605938,0.1314203,2.9699993,0.6971712,4.0350647,1.8368518
		C20.6679516,3.1690791,20.8144398,3.367758,20.543623,3.636601z"/>
	<path fill="#9501F8" d="M19.8294392,0.9851034c0.5918751-0.0762247,1.1955547,0.1115263,1.8573074-0.1026402
		c-0.1304169,0.2104182-0.2276306,0.367263-0.3248425,0.5241077C21.3302326,1.450142,21.2866344,1.47552,21.229332,1.4800942
		c-0.0453548,0.0107666-0.0778828-0.0769736-0.1300926-0.0142015c0.0666676,0.0455983,0.1105366,0.1031764,0.1135025,0.1828294
		c-0.0211029,0.1863868-0.0628223,0.3473927-0.3326416,0.2336769c-0.0329685-0.0012733-0.0659332-0.0025667-0.0988979-0.0038759
		c-0.1136398-0.2699473-0.350605-0.4310147-0.6041241-0.5774665C20.1725655,1.0923247,19.9680634,1.0693011,19.8294392,0.9851034z"
		/>
	<path fill="#7B05DC" d="M20.8801003,1.882399c0.2371178-0.0166241,0.2716351-0.1671655,0.2683811-0.3426728
		c0.0224895-0.0507379,0.0605392-0.0881058,0.1141434-0.112108c0.0343018-0.0024039,0.0674896-0.0093153,0.0994225-0.0208906
		c-0.0001431-0.0001564,0.0424519,0.0375065,0.0424519,0.0375065c0.0518417,0.0712671,0.0470276,0.1359283-0.0266037,0.192566
		C21.1823044,1.6679306,21.3324833,2.2905331,20.8801003,1.882399z"/>
	<path fill="#1A2317" d="M21.3778954,1.6368001c0.0088558-0.064198,0.0177097-0.1283962,0.0265827-0.1925801
		c0.0703754-0.049222,0.1407299-0.0984582,0.2110729-0.1477309c0.0029125,0.1850789-0.0731297,0.3381263-0.2220383,0.4615079
		C21.388361,1.7175695,21.3831291,1.6771847,21.3778954,1.6368001z"/>
	<path fill="#321C46" d="M9.9862003,7.9349699C9.9425554,7.9365568,9.8989115,7.9381437,9.8553505,7.9397011
		C9.8182278,7.7552958,9.6353445,7.5711412,9.8544493,7.386374C9.9995594,7.5487318,9.9735374,7.7457705,9.9862003,7.9349699z"/>
	<path fill="#9D00FC" d="M11.2880211,11.4758425c-0.1592875-0.0375051-0.3185759-0.0750103-0.4778385-0.1125412
		C10.9753714,11.1059723,10.9981365,11.1113358,11.2880211,11.4758425z"/>
	<path fill="#1C2319" d="M22.4658165,1.3190497c0.3284855-0.0445307,0.6021729-0.2903913,0.9616928-0.220909
		c0.5286942,0.2255722,1.0043774,0.4968942,1.2278042,1.0360072c0.1323299,0.3193042,0.1526394,0.5997622-0.1630669,0.8355427
		c-0.2298965-0.2307358-0.0782089-0.5414004-0.1991158-0.7942505c-0.1967068-0.4107701-0.4984207-0.7028569-1.0194473-0.7144667
		c-0.5514698-0.0122882-0.8666496,0.2907302-1.0735035,0.7208863c-0.1208706,0.2530305,0.033823,0.5667443-0.2072544,0.7922392
		c-0.082489-0.073525-0.164978-0.1470499-0.247467-0.2205749c-0.0913219-0.1839068-0.0902138-0.3678808-0.0004749-0.5519195
		C21.98526,1.9074198,22.2255383,1.6132346,22.4658165,1.3190497z"/>
	<path fill="#8702EE" d="M21.9929256,2.9740994c0.0260715-0.2996442-0.1314754-0.6154604,0.0936699-0.8975706
		c0.022747,0.0151653,0.0454922,0.0303309,0.068512,0.0452583c0.0830097,0.1113799,0.0784798,0.2428536,0.1036873,0.3684947
		c0.1051331,0.5239954,0.5019588,0.8814883,0.977684,0.8873174c0.4767075,0.0058417,0.8901329-0.3523774,0.9961796-0.8678665
		c0.0221615-0.1077199,0.0191689-0.219692,0.0631084-0.3243821c0.0255604-0.0488877,0.0644131-0.0859828,0.1160221-0.1117992
		c0.2197361,0.2840934,0.0826492,0.5952332,0.080471,0.896143c-0.1577606,0.1752405-0.3155079,0.3504844-0.4732533,0.525728
		c-0.5096588,0.4197178-1.0289669,0.362499-1.553915,0.026535C22.2396374,3.388845,22.1349545,3.1678901,21.9929256,2.9740994z"/>
	<path fill="#1D2219" d="M22.4650917,3.5219574c0.5222416,0.202975,1.0415573,0.2608259,1.553915-0.0264812
		C23.5565014,4.0006227,23.0066319,4.0100121,22.4650917,3.5219574z"/>
	<path fill="#132505" d="M21.7449837,2.2016046c0.0001526,0.1839745,0.0003071,0.3679488,0.0004673,0.5519211
		c-0.0400085,0.036484-0.0800247,0.0729704-0.1200352,0.1094408C21.6629639,2.6421492,21.5267582,2.3948393,21.7449837,2.2016046z"
		/>
	<path fill="#1C2317" d="M21.6868343,1.8908573c-0.0171757-0.3251312,0.2439423-0.4538419,0.4546928-0.6194332
		C22.1209469,1.5601338,21.8467636,1.694664,21.6868343,1.8908573z"/>
	<path fill="#1B231B" d="M17.7298603,6.9353166c0.3672981,0.0288367,0.6235275,0.1902251,0.6299858,0.5388474
		c0.0055008,0.2968287-0.2164841,0.4746928-0.5313625,0.4948153c-0.3676987,0.0234957-0.6341171-0.1382675-0.6538372-0.4929976
		C17.156395,7.1476445,17.4005928,6.9922209,17.7298603,6.9353166z"/>
	<path fill="#8100FB" d="M18.0826187,8.4023371c0.3070316-0.2881279,0.7165585-0.5581446,0.7373962-0.9514775
		c0.0204678-0.3863435-0.5470123-0.5308685-0.7498112-0.918179c0.4944305,0.0932937,0.9618092,0.1322732,1.0296059,0.6848788
		C19.1889038,7.9437637,19.081522,8.0774536,18.0826187,8.4023371z"/>
	<path fill="#8703ED" d="M16.7131939,8.5879879c-0.058075-0.0634365-0.116148-0.1268711-0.1743031-0.1902952
		c0.1348305,0.0281305,0.2871075,0.028471,0.4017715,0.088973c0.638443,0.336874,1.2719307,0.1500664,1.9081249,0.0078306
		C18.1625214,9.0195198,17.4385414,8.8169432,16.7131939,8.5879879z"/>
	<path fill="#8703ED" d="M17.2969646,6.3958354c0.372694-0.2658439,0.7686825-0.3153486,1.1922054-0.1083388
		C18.0829964,6.2426767,17.6926937,6.3444524,17.2969646,6.3958354z"/>
	<path fill="#9400FE" d="M14.4139042,8.4948845c-0.8396168,0.0917301-0.8398018,0.0917301-0.8397255-0.61098
		c0.000083-0.7521272,0.0005598-1.5042548,0.0008936-2.2563367c0.1608438,0.0594406,0.2362738,0.1709738,0.2372751,0.3279529
		c-0.1344643,0.4995122-0.0243025,1.007494-0.0626602,1.5101905c-0.014946,0.1958604,0.0546112,0.3989959-0.0564461,0.5870252
		c0.0602474,0.3941765,0.3057785,0.3643646,0.6007004,0.2215471C14.3904543,8.3218784,14.4113865,8.4041557,14.4139042,8.4948845z"
		/>
	<path fill="#8601F6" d="M13.6932411,8.0527363c0.0667038-0.6977787-0.141593-1.40874,0.119112-2.0972176
		C13.7454615,6.6532898,13.9537497,7.3642478,13.6932411,8.0527363z"/>
	<path fill="#8802EF" d="M9.5761318,9.6269684c0.0609617,0.1870451,0.2805853,0.3011847,0.2809839,0.5160551
		c0.0000076-0.0000057-0.0238533,0.0164022-0.0238533,0.0164022c-0.1269073,0.0441189-0.2559299,0.0131178-0.3232555-0.0746918
		C9.2012644,9.6820555,8.7402411,9.6113882,8.2597637,9.5719757C8.2081718,9.5487976,8.1687717,9.5142279,8.1430006,9.46698
		C8.6766148,9.0976782,9.1217527,9.3972597,9.5761318,9.6269684z"/>
	<path fill="#8802EF" d="M7.5400338,10.0222931c0.0899224-0.2868958,0.298439-0.4650993,0.6029897-0.5552883
		C8.1430006,9.46698,8.1771498,9.5012217,8.1771498,9.5012217c0.0719118,0.4355392-0.2076993,0.5445185-0.6020312,0.5469246
		L7.5400338,10.0222931z"/>
	<path fill="#8100FB" d="M7.5751185,10.0481462c0.2472982-0.1390362,0.549871-0.2267561,0.6019473-0.54702
		c0.7536392-0.2084122,1.1798086,0.2783918,1.6562672,0.6582699c0.0243883,0.8042688-0.3653469,1.2827005-1.0723124,1.3162947
		c-0.7963328,0.0378399-1.1908422-0.304903-1.1960001-1.0414076C7.5641193,10.3055954,7.5715418,10.1768599,7.5751185,10.0481462z"
		/>
	<path fill="#8100FC" d="M21.2626247,1.4276178c-0.0380821,0.0373669-0.0761642,0.0747339-0.1141949,0.1121048
		c-0.0584564-0.0106544-0.1316586-0.0046061-0.1727295-0.0350904c-0.1251049-0.0928559-0.3864441-0.1790013-0.2035427-0.3576268
		c0.1314259-0.1283534,0.2790642,0.0309023,0.3693123,0.1620622C21.1724262,1.3540591,21.2217102,1.3884076,21.2626247,1.4276178z"
		/>
	<path fill="#8702EE" d="M22.0865955,2.0765288c0.202158-0.4912217,0.594162-0.7569659,1.1602077-0.7595319
		c0.5692768-0.0025809,0.9559059,0.2712704,1.1649628,0.7565697C24.4117889,2.0735514,24.376936,2.098716,24.376936,2.098716
		c-0.181818,0.0437715-0.290699-0.0732701-0.4153957-0.157601c-0.5416393-0.366308-0.8869858-0.3664221-1.4281731-0.0003546
		c-0.1247406,0.0843766-0.2336597,0.2011771-0.4153709,0.1582942L22.0865955,2.0765288z"/>
	<path fill="#8100FB" d="M22.1179962,2.0990546c0.3619919-0.2294222,0.5930824-0.5929743,1.1597519-0.5864246
		c0.5471783,0.0063245,0.7406998,0.3863349,1.0992527,0.5860629c-0.0096321,0.303565,0.0687637,0.6027124-0.1570759,0.8948083
		c-0.3238182,0.4188192-0.7414989,0.6611636-1.2638111,0.4986565c-0.503685-0.1567121-0.8760319-0.500792-0.8491001-1.0639739
		C22.1122589,2.318538,22.114418,2.2087677,22.1179962,2.0990546z"/>
</g>
</svg>
