<?xml version="1.0" encoding="utf-8"?>
<!-- Generator: Adobe Illustrator 24.1.1, SVG Export Plug-In . SVG Version: 6.00 Build 0)  -->
<svg version="1.1" id="Слой_1" xmlns="http://www.w3.org/2000/svg" xmlns:xlink="http://www.w3.org/1999/xlink" x="0px" y="0px"
	 viewBox="0 0 32 13" enable-background="new 0 0 32 13" xml:space="preserve" width="32px" height="13px">
<g>
	<path fill="#212121" d="M20.8096943,11.0785913c-0.0348587,0.0322466-0.0697155,0.0644922-0.1045723,0.0967388
		c-0.6473637,0.4754868-1.2964439,0.9484539-2.0911045,1.2072449c-0.1581039,0.0320005-0.3366432,0.0117636-0.4563408,0.1474609
		c-0.1626701,0.0731487-0.3306656,0.1247749-0.5149155,0.1149426c-0.2028751-0.035346-0.3568268,0.0853252-0.5323162,0.1414003
		c-1.2681427,0.1438303-2.539669,0.0487232-3.8082056,0.0625191c-0.3886337-0.1899443-0.6281853-0.5200596-0.9027958-0.8176985
		c-0.0391893-0.0388908-0.0682993-0.0834198-0.0884295-0.1330309c0.0174732-0.1568317,0.1420736-0.2111225,0.2823877-0.2504539
		c0.1178684-0.0290651,0.3198595,0.000865,0.2637272-0.1874237c-0.1039734-0.348772,0.1076231-0.5645714,0.3298855-0.7861271
		c0.245635-0.244854,0.301775-0.5598698,0.3728313-0.867218c0.0508957-0.2201538,0.1311398-0.4302979,0.4153061-0.424921
		c0.5812073,0.0109968,0.8379107-0.2347994,0.7890396-0.7632284c0.1098089-1.0415692,0.0192757-2.0845366,0.0508671-3.1257939
		c0.0078459-0.2585769-0.0413027-0.5227461,0.075202-0.7722025c0.137187-0.1627693,0.2233858-0.0646591,0.2836637,0.0578976
		c0.0884485,0.1798329,0.070714,0.3761163,0.0725632,0.5675607c0.0085955,0.8900185,0.0081921,1.7803264-0.0070019,2.6699667
		c-0.0071239,0.4171572,0.1579952,0.6979322,0.5410509,0.8998947c0.9094715,0.4795103,1.8329773,0.9000015,2.8799324,0.3546524
		c0.5457134-0.2842569,1.0267487-0.6512651,1.3599644-1.1556129c0.2858906-0.0002317,0.2223949,0.2671738,0.351141,0.3876505
		c0.0485172,0.1431799-0.0626488,0.2337523-0.1309814,0.3388968c-0.1307659,0.2089043-0.2908802,0.3989887-0.4484291,0.5909367
		c-0.4515362,0.5501299-0.4508553,0.5506029,0.0341206,1.0543413c0.0909996,0.0920544,0.1485119,0.2564039,0.3377666,0.1260862
		c0.4019909-0.345335,0.7146072-0.7593069,1.0631485-1.1455135c0.0438175-0.0302467,0.0917683-0.0529585,0.1431637-0.0700865
		c0.1322479-0.0334644,0.2652378-0.062604,0.4043694-0.04918c0.2275372,0.118886,0.2377605,0.248229,0.1027641,0.4640484
		C21.5835419,10.2822952,21.151268,10.6468534,20.8096943,11.0785913z"/>
	<path fill="#222222" d="M20.8096943,11.0785904c0.1288624-0.3962088,0.5122318-0.6266699,0.7360687-0.9585533
		c0.1461105-0.2166386,0.5052109-0.4117613,0.1798077-0.734026c0.0406895-0.3604002,0.4292774-0.5841475,0.44203-0.9556313
		c0.0134258-0.0476999,0.0309906-0.093854,0.0496006-0.1398897c0.0742435-0.1876898,0.1566257-0.3731556,0.1527386-0.5785193
		c0.0291214-0.5127854-0.026268-1.0205088,0.191473-1.5300446c0.1705246-0.3990393-0.0842495-0.8521886-0.0321636-1.2851324
		c0.0145149-0.0525599,0.0416679-0.0994892,0.0798397-0.1403265c0.0529556-0.0244327,0.1055431-0.0214581,0.1569233,0.0047755
		c0.2161198,0.2758965,0.2158909,0.5986314,0.2484798,0.918797c0.0117779,0.115706-0.125679,0.3385611,0.1833706,0.3253684
		c0.0481586-0.0093956,0.0947456-0.007308,0.1404762,0.0048246c0.3923092-0.135107,0.4646606-0.514287,0.6907387-0.7744427
		c0.1876202-0.2159038,0.3072128-0.4782596,0.4762154-0.7094436c0.0423164-0.0578885,0.0300522,0.017818,0.0234852-0.0432477
		c-0.00947-0.0880737-0.0817108,0.0112491-0.1259499-0.0090656c-0.1247578-0.0214949-0.210968-0.1052313-0.3170319-0.1559515
		c-0.0418491-0.0257215-0.074995-0.0589218-0.1004887-0.0987015c-0.0058002-0.0759015,0.0354843-0.1315589,0.0912132-0.1812019
		c0.1528225-0.0975401,0.1104851-0.2406833,0.1027622-0.3758008c0.0164337-0.0880742,0.0656834-0.1614032,0.1187668-0.2341285
		c0.7046242-0.9653172,0.6409473-1.3702598-0.3339119-2.1248589c-0.0861454-0.0533344-0.1687946-0.1110873-0.2514153-0.1684881
		c-0.2381954-0.1794319-0.4999313-0.176054-0.7726212-0.0835121c-0.0893917,0.0419227-0.1783772,0.0843-0.270237,0.1209974
		c-0.3876934,0.1008741-0.5076714,0.4960818-0.8456154,0.6515191c-0.2442551-0.0508366-0.1965446-0.2068238-0.1333218-0.348659
		c0.0613861-0.1377122,0.1709366-0.2576203,0.171381-0.4165577c0.0571041-0.162056-0.0094509-0.3092318-0.0665817-0.4564079
		c-0.1576424-0.2405753-0.4115582-0.1106751-0.6178226-0.1209945c-0.4354267-0.0217842-0.8729763-0.0050596-1.3579292-0.0087261
		c0.5874119,0.1219198,1.16189-0.0858003,1.6864758,0.1635624c0.0238819,0.0502962,0.0213909,0.09934-0.0067196,0.1476353
		c-0.3698883,0.2023438-0.7771492,0.0813608-1.1666546,0.1131381c-0.2197914,0.0179315-0.4636993-0.0471312-0.6181297,0.1691349
		c-0.3154869-0.0371009-0.6486187,0.0731645-0.948452-0.0408227c-0.3511639-0.1335004-0.7025185-0.2673072-1.0560894-0.3981447
		c-0.1551609-0.0569991-0.3344231-0.0328202-0.4784775-0.1116578c-0.1564922-0.0856445-0.363184-0.1753432-0.0968437-0.3637051
		c2.1779652-0.0560644,4.3556786-0.0200191,6.5331287-0.0175625c0.5249233,0.0005922,0.9699211,0.2596147,1.4050694,0.5076275
		c0.956255,0.7156476,1.2372475,1.8777065,0.619133,2.9287376c-0.9406376,1.5994489-1.9393406,3.1699789-2.9091625,4.7549763
		c-0.4093189,0.6689558-0.6557961,1.4205389-1.1951675,2.0228758
		C21.3525429,10.6113949,21.1868458,10.9417534,20.8096943,11.0785904z"/>
	<path fill="#262727" d="M25.0732822,0.6417667c-0.9747124-0.4926463-2.0381489-0.4147234-3.0917187-0.4116399
		c-1.6493855,0.0048271-3.2987957,0.0017104-4.9481964,0.0019584c-0.3170319,0.2393031-0.694025,0.1140919-1.0450172,0.142354
		c-0.2263851,0.0182287-0.4568195-0.0155932-0.6802406,0.041624c-0.0860176,0.0236454-0.1746159,0.0361711-0.2634306,0.0434369
		c-0.2359762,0.0233132-0.4863758-0.0288289-0.7017889,0.1102053c-0.0483303,0.0202385-0.0992861,0.0311911-0.1520538,0.0348387
		c-0.2483854-0.0432882-0.4523363,0.0693566-0.6623344,0.162361c-1.6153173,0.6593286-2.7710676,1.7273048-3.5715799,3.183907
		C8.9341764,5.8117838,7.7350516,7.5862532,6.6347141,9.409833c-0.4231167,0.7012281-0.4453263,1.3855371-0.0336552,2.0993481
		c0.4306841,0.7467794,1.1232672,1.0823011,2.0011778,1.098897c1.2768955,0.0241385,2.5546484,0.006568,3.8320274,0.0092974
		c0.2442923,0.0005217,0.5009766-0.0370226,0.7088013,0.1340427c1.1534634,0.0004692,2.3069277,0.0000935,3.4603872,0.0021324
		c0.2275429,0.0004025,0.4551201,0.0104017,0.6590881-0.1073561c0.0839577-0.1198492,0.2429829-0.0288792,0.343111-0.1033182
		c0.2011738,0.0110025,0.3963699-0.0049057,0.5723228-0.107482c0.0840588-0.1192741,0.2428589-0.0284367,0.3427811-0.1031141
		c0.6086769-0.2370281,1.2049942-0.4882612,1.6940632-0.9183607c0.1282864-0.1128159,0.2755432-0.2498093,0.4903011-0.2385893
		c-0.9368896,1.004035-2.1911869,1.4510126-3.5534248,1.698657c-0.7722569,0.1403913-1.5557985,0.0855284-2.336504,0.0827923
		c-2.0192308-0.0070744-4.0388813,0.018364-6.0576515-0.0108509c-1.9179626-0.0277557-3.1232991-1.419776-2.6902928-3.0484705
		c0.0960913-0.3614359,0.3023434-0.6788387,0.496099-0.9980793C7.6841135,7.0527487,8.8319235,5.2202964,9.949192,3.3715265
		c1.3127527-2.1722436,3.3726568-3.3224046,6.1126747-3.3356941c2.4382687-0.0118258,4.8766747-0.0010798,7.3150158,0.001758
		C24.0253029,0.0383452,24.6177654,0.1793651,25.0732822,0.6417667z"/>
	<path fill="#212121" d="M20.1236191,8.1234512c-0.3969002,0.8594437-1.6940327,1.6784935-2.6268616,1.5648746
		c-0.8500366-0.1035337-1.6140089-0.4583216-2.2939644-0.9487743c-0.1660881-0.1197996-0.111433-0.2882099-0.1120872-0.4390783
		c-0.0044928-1.0345445,0.0013466-2.0691366-0.0058374-3.1036558c-0.0012798-0.1843452,0.0759649-0.3901849-0.1101332-0.5461583
		c-0.0624304,0.0588493-0.1389675,0.0731916-0.2243404,0.0607619c-0.1075516-0.026001-0.1981945-0.078125-0.2750187-0.1511507
		c-0.3877792-0.2805548-1.3414946-0.2887707-1.7453222-0.0130897c-0.0917425,0.0972838-0.2093668,0.1456952-0.347229,0.1567125
		c-0.2203627,0.0014472-0.3772869-0.0604057-0.35256-0.3018589c0.0814009-0.3068738,0.3184319-0.5390341,0.461978-0.8167741
		c1.129756-1.1550729,2.5542049-1.5463655,4.198185-1.3695834c0.3301678,0.1111424,0.6951637,0.0782371,1.0218105,0.2051501
		c0.1910782,0.0641236,0.3664494,0.1563916,0.5383892,0.2549362c1.0911255,0.5825462,1.8584805,1.3977318,2.1643963,2.5458059
		c0.0358372,0.13449,0.1413002,0.2453079,0.1742134,0.3835697c0.0226841,0.6921339,0.131073,1.3867106-0.0761299,2.0714035
		C20.3699169,7.8150854,20.4299679,8.1049623,20.1236191,8.1234512z"/>
	<path fill="#212121" d="M13.1430655,12.7514181c-1.4295273,0.0004873-2.8591309-0.0073423-4.2885628,0.0036926
		c-1.5782785,0.0121841-2.1791158-0.5936708-2.6121292-1.6163473C6.0095682,10.5889301,6.1023583,9.9743462,6.437561,9.4257622
		c1.2529488-2.0505424,2.5459509-4.0798059,3.7559109-6.1534429c0.701108-1.2015631,1.8392906-2.0252562,3.1819468-2.599417
		c0.064743-0.0276858,0.1501207-0.0145621,0.2258892-0.0204426c0.121172-0.0411997,0.1383257,0.0279235,0.1412849,0.1123236
		c-0.1625004,0.241561-0.4591141,0.2977361-0.7049532,0.4182959c-1.0514727,0.5156389-1.8252153,1.2969255-2.4899015,2.1816807
		c-0.1275368,0.1697619-0.2383032,0.3591909-0.246933,0.5787461c-0.0135679,0.0772574-0.0382385,0.1510298-0.0761271,0.2210915
		C9.8872986,4.6005855,9.7497158,5.0962367,9.7106571,5.6214232C9.5937691,5.9512415,9.5042496,6.2859979,9.491621,6.6348801
		C9.3471432,6.93471,9.472435,7.2562876,9.4054394,7.5618567c-0.0335217,0.0404024-0.078269,0.066534-0.1313181,0.0800176
		c-0.2618217-0.029222-0.2411976-0.2253942-0.2695408-0.3909297C8.9767847,7.0886192,9.0408278,6.8905349,8.7963877,6.8179235
		C8.4650545,6.8094401,8.4229555,7.0835514,8.3070965,7.2634745C8.075428,7.623239,7.9282436,8.0274887,7.6304321,8.3538265
		C7.581759,8.4071627,7.600615,8.334466,7.6020408,8.3945723c0.002408,0.1014252,0.0723248-0.0219021,0.109982,0.0094318
		c0.1499686,0.028883,0.2551742,0.1266937,0.3780813,0.1966038c0.0362415,0.0351944,0.050478,0.0769253,0.0435734,0.1248436
		c-0.1165752,0.1391563-0.2589636,0.2680759-0.2214904,0.469449C7.7547975,9.4993792,7.3738823,9.6536436,7.2776427,9.9985313
		c-0.0890679,0.2897511-0.0394397,0.5853119-0.0450211,0.8778629c0.1275897,0.5055399,0.5773659,0.7365456,0.9990621,0.9907703
		c0.5889549,0.0836859,1.1089716-0.0165205,1.5315247-0.4390965c0.1015244-0.101531,0.2369413-0.2425508,0.4310713-0.1123466
		c0.0888958,0.3169107-0.236207,0.4241209-0.3907595,0.6322556c0.097023-0.0356874,0.1744204-0.0856581,0.2691841-0.0505667
		c0.123785,0.1543484,0.2865868,0.1686001,0.4702187,0.1082497c0.4023123-0.0379324,0.804019-0.0410671,1.204999-0.0011148
		c0.2311058,0.0412064,0.4742107,0.1707783,0.66817-0.0754671C12.6502342,12.2093086,13.125864,12.3090029,13.1430655,12.7514181z"
		/>
	<path fill="#212121" d="M14.7457504,8.7539816c0.2644234,0.3441257,0.0855198,0.7457304-0.380908,0.718504
		c-0.5332413-0.0311251-0.6885147,0.1914215-0.7336874,0.6016083c-0.0290575,0.2638664-0.1173887,0.505579-0.3344936,0.6980648
		c-0.2412233,0.2138643-0.5641127,0.412528-0.2013998,0.7692366c0.0675201,0.0664034,0.0469542,0.1783094-0.0467377,0.2263603
		c-0.1711798,0.0877953-0.327177-0.0031824-0.4818258-0.0654182c-0.3830481,0.0994625-0.5810738-0.1067905-0.7399397-0.3782015
		c-0.005661-0.2133646,0.19487-0.2922497,0.3221436-0.4191847c0.2762585-0.2454033,0.5824423-0.4673691,0.7428179-0.8028584
		c0.0951538-0.1599293,0.0324526-0.2903147-0.0924768-0.4091234c-0.5682516-0.4632702-0.9118099-1.0567408-1.1729364-1.6990595
		c-0.1297541-0.3133526-0.1162968-0.653677-0.2219296-0.9716868c-0.0278769-0.34866-0.0291805-0.6972251-0.0022192-1.0457244
		c0.0568743-0.2168746,0.1028681-0.4362092,0.1483955-0.6555047c0.0609932-0.147408,0.0932302-0.314095,0.2845869-0.3786545
		c0.1527367,0.0418878,0.174263,0.176537,0.2369938,0.2820897c0.0674553,0.1623983,0.2138424,0.2484994,0.3727217,0.3230991
		C12.51474,5.590446,12.574791,5.6425118,12.6283188,5.7017817c0.3353682,0.1452498,0.4523144,0.392097,0.4442863,0.7250533
		c-0.0126724,0.5256929-0.0087128,1.052031,0.0000563,1.5779457c0.0031147,0.1868496-0.0574007,0.3907251,0.1185312,0.5472927
		c0.0819759,0.0677805,0.1498241,0.1462097,0.2037954,0.2341948c0.3463631,0.2694969,0.7173834,0.1665812,1.0876408,0.0611219
		c0.0539742-0.0512066,0.113739-0.0942907,0.1899662-0.1137981C14.6969194,8.7402735,14.7213354,8.7471285,14.7457504,8.7539816z"/>
	<path fill="#313131" d="M19.7798862,10.544281c-0.656702-0.4841938-0.6516724-0.4807367-0.1821747-1.0582399
		c0.1901245-0.2338657,0.3529606-0.4864941,0.5282135-0.7305851c0.551651-0.0681686,1.0926342,0.2803154,1.1413937,0.7352505
		c-0.186615,0.5289869-0.7030869,0.8304968-1.0298252,1.2628498C19.9754047,10.8863811,19.9046478,10.6653996,19.7798862,10.544281z
		"/>
	<path fill="#231516" d="M14.7459002,4.6514926c0.0762711-0.0002761,0.152545-0.0005527,0.2288265-0.0008311
		c0.0000973,1.1990447,0.0051975,2.3981271-0.0050354,3.5970993c-0.001565,0.1830854,0.1248522,0.4418373-0.2239485,0.5062304
		c0.0000076-0.0000095-0.0003099,0.0005322-0.0003099,0.0005322c-0.1533985-0.1339159-0.1569767-0.3111229-0.1581011-0.4852505
		c-0.0067482-1.0446091-0.0069799-2.0892444,0.0002575-3.1338501C14.588788,4.9621644,14.587081,4.783339,14.7459002,4.6514926z"/>
	<path fill="#221B1C" d="M22.2972317,8.4390364c-0.0470562,0.3889179-0.2672405,0.6894522-0.5716667,0.9469748
		c-0.0832291,0.1239462-0.2187805,0.1019735-0.3454609,0.1047421c-0.0741005-0.0807772-0.0577965-0.1783705-0.060442-0.2723694
		c0.063694-0.1469383,0.2496243-0.2198353,0.2777729-0.3886576c0.0300751-0.0863733,0.0711613-0.1671629,0.1397305-0.2339268
		c0.085638-0.07654,0.1608582-0.1673937,0.2892628-0.1879587C22.1052017,8.4996786,22.2132168,8.3818102,22.2972317,8.4390364z"/>
	<path fill="#322727" d="M21.3855362,9.1800995c-0.0017967,0.1035566-0.0035934,0.2071114-0.0054111,0.3106613
		c-0.000021-0.0000076-0.0564137-0.000001-0.0564137-0.000001s-0.0563908-0.0000391-0.0563927-0.0000458
		c-0.2803268-0.3765907-0.6427994-0.6453285-1.1414261-0.7352667c0.0750351-0.0709028,0.1500397-0.1418133,0.2250443-0.2127237
		c-0.1238403-0.1464891-0.1457729-0.2905807,0.0113335-0.4303341c0.3062801,0.0036268,0.2024822,0.3815403,0.4623508,0.4276485
		c0.0657177,0.0377026,0.1242599,0.0831823,0.1755638,0.1363401C21.120966,8.8489676,21.3356972,8.961422,21.3855362,9.1800995z"/>
	<path fill="#260404" d="M11.8831635,11.2812033c0.1683359,0.2221146,0.4048958,0.3505669,0.6835871,0.4211206
		c-0.0757093,0.0664778-0.1513681,0.1329422-0.2270241,0.1994076c-0.0342865,0.0331888-0.076045,0.046382-0.1254187,0.0399723
		c-0.1112719-0.0406561-0.2044449-0.1091328-0.3049774-0.1669903c-0.0400391-0.0256205-0.0752764-0.0558233-0.1070948-0.0896168
		c-0.1100378-0.1552639-0.2603378-0.2640858-0.4492836-0.3293543c-0.1239243-0.0637989-0.2129889-0.1524239-0.2426443-0.2840242
		c-0.0102692-0.0789585,0.0049486-0.1526337,0.054287-0.2191048c0.2173452-0.1271877,0.3593903,0.0094767,0.5088892,0.1219006
		C11.7777004,11.0566339,11.8306427,11.1687975,11.8831635,11.2812033z"/>
	<path fill="#230E0D" d="M20.4456444,8.118062c-0.1426659,0.1206207-0.080759,0.279809-0.0946941,0.4246817
		c-0.3073254-0.0336132-0.2078667-0.2537212-0.2273369-0.4192934c0.1848888-0.0908117,0.0443916-0.3302755,0.2278423-0.4217434
		c0.0400314,0.021029,0.0726128,0.0493135,0.0984993,0.0844345c0.0476475,0.0732589,0.0820141,0.1502833,0.076416,0.2380972
		C20.5152016,8.0668535,20.4889126,8.0986652,20.4456444,8.118062z"/>
	<path fill="#0E9DA3" d="M12.2295647,11.90833c0.0368252-0.0007296,0.0735474-0.0029259,0.1101618-0.0065937
		c0.0205402,0.0209455,0.046072,0.0300283,0.0764809,0.0272923c0.0165453,0.5178232-0.326705,0.2153072-0.5432482,0.2015762
		C11.9543295,12.0056372,12.0930691,11.9585056,12.2295647,11.90833z"/>
	<path fill="#212121" d="M19.7798862,10.544281c0.1586075,0.0585356,0.2578945,0.226757,0.4576073,0.209281
		C19.926136,10.9774837,19.8400841,10.7847872,19.7798862,10.544281z"/>
	<path fill="#212121" d="M18.5207558,12.3322802c-0.0831985,0.1216745-0.2172661,0.1004181-0.3427849,0.1031418
		C18.206934,12.1612177,18.3742847,12.2760983,18.5207558,12.3322802z"/>
	<path fill="#212121" d="M17.6056519,12.5428762c-0.0830994,0.122241-0.2172337,0.1012211-0.3431129,0.1033421
		C17.2913837,12.3715601,17.4589806,12.4866037,17.6056519,12.5428762z"/>
	<path fill="#231414" d="M17.8346176,0.5466937c0.3831768,0.1254717,0.7749538,0.2323551,1.1175461,0.4446182
		c0.0541382,0.0335435,0.1303692,0.1019901,0.1670094,0.0029163c0.0178432-0.0482531-0.0421352-0.120845-0.0733776-0.198569
		c0.2766476-0.0117607,0.3587151,0.3325927,0.6387863,0.2693201c0.0624046-0.0565373,0.1376686-0.0616115,0.218256-0.0468631
		c0.1520653,0.0452178,0.2825069,0.124575,0.4045372,0.2175046c0.223568,0.2020298,0.4672718,0.3903711,0.5644073,0.6811522
		c-0.0595932,0.248522,0.0277481,0.44292,0.2574615,0.5845695c0.3746815,0.3661137,0.7358551,0.7390563,0.7566013,1.2816515
		c-0.032547,0.0427761-0.0768509,0.0694115-0.1324425,0.0802011c-0.0859203,0.0014079-0.1559086-0.0304499-0.2139225-0.0868604
		c-0.2186527-0.2840743-0.3772755-0.6106799-0.6889706-0.8302975c-0.0583839-0.0481951-0.1053543-0.1044736-0.1433277-0.1672351
		c-0.2119389-0.3271105-0.459959-0.6183877-0.8720531-0.7483542c-0.2210217-0.0529675-0.3768044-0.186224-0.5100079-0.3475227
		c-0.2683144-0.2965809-0.6660557-0.3951478-1.0203972-0.5575794c-0.1857529-0.0851501-0.399765-0.1213293-0.5363503-0.2848535
		c-0.0632744-0.0893218-0.1067047-0.1829932-0.0753307-0.2929288C17.7398987,0.4994005,17.7871304,0.499187,17.8346176,0.5466937z"
		/>
	<path fill="#231616" d="M21.9492149,1.0488601c0.0827694,0.140654,0.0591602,0.2541696-0.0736446,0.3671156
		c-0.1298981,0.1104732-0.2327404,0.2445828-0.0378437,0.3915362c0.0113945,0.0219253,0.022789,0.0438504,0.0344944,0.0657219
		c-0.0016556,0.2632258-0.3143692,0.4276912-0.2154179,0.6968472c0.142664-0.0291893-0.1637402-0.4234545,0.2288113-0.3213196
		c0.1154366,0.1538193,0.0895538,0.3336961,0.1117764,0.5044484c0.0641937,0.3877208,0.3706169,0.5954194,0.6953011,0.788806
		c0.4123917,0.2348886,0.8134747,0.153712,1.2100487-0.03649c0.1881409-0.0814385,0.3076954-0.2239366,0.4052963-0.3859346
		c0.2839813-0.4142828,0.357481-0.8289945,0.0072823-1.2456365c-0.0962353-0.2191881-0.3527241-0.3275069-0.4495163-0.5465896
		c0.0080452-0.0832155,0.0782604-0.114554,0.1460247-0.1479448c1.0239201,0.6998178,1.2770901,1.4509734,0.2303886,2.524353
		c-0.0825005,0.1822298-0.2768574,0.2731199-0.403595,0.4196947c-0.3950329,0.3397517-0.8576756,0.0907617-1.2887096,0.1252475
		c-0.3430424-0.4266143-0.7853451-0.7808475-1.0196476-1.2872026c-0.2352524-0.5084023-0.3622417-1.0084301-0.1281261-1.5428534
		C21.5362225,1.2352574,21.6568832,1.034222,21.9492149,1.0488601z"/>
	<path fill="#250908" d="M22.2972317,8.4390364c-0.0769234,0.0096073-0.1537933,0.1179657-0.2307796,0.0000992
		c-0.1169548-0.1035919-0.1218586-0.232646-0.1002769-0.3681517c0.0084858-0.0522804,0.0239029-0.1030178,0.0436001-0.1525421
		c0.1745052-0.3413167,0.111702-0.7185121,0.1892738-1.0745921c0.0896015-0.3140206,0.086237-0.627161-0.0094681-0.939733
		c-0.0200863-0.4449873-0.2200165-0.8628945-0.2340431-1.3089857c0.0107574-0.0568476,0.0343475-0.1088705,0.0695248-0.1566243
		c0.1002026-0.086534,0.217886-0.0972838,0.3450775-0.0672603c0.1866302,0.0798531,0.2792358,0.2094045,0.2494068,0.4029188
		c0.0114117,0.4881616,0.2972851,1.0046368,0.0995197,1.4471974c-0.2392311,0.5353522-0.1492062,1.0567145-0.1939526,1.5850501
		c-0.1629887,0.1440043-0.1513348,0.3513756-0.2262592,0.5273333C22.298315,8.3688431,22.2977734,8.4039392,22.2972317,8.4390364z"
		/>
	<path fill="#202324" d="M22.6195469,4.7741656c-0.070303-0.1102095-0.1406059-0.2204185-0.2109089-0.3306284
		c-0.1403561-0.0818338-0.3317413-0.096765-0.4089451-0.2622032c-0.0842209-0.1131473-0.1726551-0.2251523-0.1589088-0.3735549
		c-0.1464977-0.4855137-0.464798-0.8786526-0.8021202-1.2615621c-0.0085907-0.1815128-0.0981026-0.343708-0.1458187-0.5159252
		c0.2297516-0.1826535,0.2571983-0.4988161,0.5162792-0.6625472c0.0597591-0.0090829,0.0889339,0.0142922,0.087595,0.0698736
		c-0.2038708,0.89965,0.009531,1.6926607,0.7963486,2.2821326c0.203207,0.152241,0.1673889,0.3812916,0.3511906,0.5068738
		C23.0972881,4.3052454,23.548872,4.1981454,24.001442,4.21768c0.0466595,0.0058904,0.0933151,0.0117803,0.1399746,0.0176706
		c-0.0786629,0.3585124-0.4035892,0.3148818-0.6756592,0.3391337c-0.2810173,0.0250497-0.5783424-0.0300727-0.8140869,0.1718941
		C22.6516705,4.7463784,22.6195469,4.7741652,22.6195469,4.7741656z"/>
	<path fill="#221C1C" d="M21.5190487,0.6639649c-0.6956463-0.1009992-1.4475365,0.1727411-2.1427441-0.2201366
		c0.1520538-0.1575894,0.291111-0.1036656,0.41152-0.1045665c0.7658577-0.0057294,1.5317898-0.002914,2.2967663-0.002914
		c0.0040092,0.2109675-0.1977367,0.198736-0.2455807,0.3113367C21.7375259,0.7390243,21.6307983,0.7432374,21.5190487,0.6639649z"/>
	<path fill="#231415" d="M24.3107319,4.4224734c0.2055645,0.0178618,0.2272377-0.2223907,0.4500637-0.2567759
		c-0.0353508,0.4520812-0.3909683,0.7419634-0.5829086,1.0963788c-0.1672554,0.3088403-0.4075069,0.5839124-0.6091137,0.877614
		c-0.0462532,0.0673842-0.0550194,0.197659-0.1758327,0.1170588c-0.05616-0.037467-0.0470448-0.1576757-0.0675201-0.240376
		c0.0033188-0.022429,0.0066395-0.0448575,0.0093517-0.0674291c0.0768528-0.1638222,0.1830101-0.3168283,0.2163486-0.4969478
		c0.0258389-0.0892782,0.0688763-0.1697574,0.1416378-0.2348156c0.1756954-0.1276937,0.2732258-0.3003783,0.3334465-0.4946189
		C24.0881424,4.5961051,24.133255,4.4558539,24.3107319,4.4224734z"/>
	<path fill="#02EBEF" d="M19.8791924,1.1213821c-0.0648766-0.0187987-0.1297493-0.0375973-0.1946182-0.0563995
		c-0.1921768-0.2434002-0.1027813-0.3142577,0.1977959-0.3065945c0.538929,0.0137397,1.0785332,0.0049835,1.6178589,0.005629
		c0.1208172-0.0854764,0.2528362-0.0862671,0.351181,0.0114914c0.067297,0.0668948,0.0359211,0.1610386-0.0469227,0.2241288
		c-0.5223598,0.1344137-1.0515785,0.1509799-1.5817108,0.0481424C20.0854149,1.0211339,19.9658833,0.9840019,19.8791924,1.1213821z"
		/>
	<path fill="#03E6EA" d="M24.3107319,4.4224734c-0.066,0.1002455-0.1319981,0.200491-0.1979961,0.3007364
		c-0.0334625,0.098557-0.0783501,0.1835442-0.2180614,0.1559129c-0.3173389-0.3446894-0.7244663-0.0515742-1.079792-0.1270962
		c-0.0243912,0.0049157-0.0488529,0.0093479-0.0733166,0.0137796c-0.030777-0.0033026-0.0607433-0.009778-0.0898952-0.0194268
		c-0.0397682-0.2652702,0.0841236-0.3256516,0.3605766-0.291749c0.3964958,0.0486245,0.7987385,0.0519414,1.1291599-0.219286
		C24.2518311,4.2564235,24.3301678,4.3020411,24.3107319,4.4224734z"/>
	<path fill="#211D1D" d="M17.8346176,0.5466937c-0.0386276,0.0005088-0.0772552,0.0010179-0.115881,0.0015268
		c-0.2088451,0.1775556-0.4562588,0.1506337-0.693491,0.0870295c-0.4757938-0.1275646-0.9592304-0.1726126-1.4519596-0.1596797
		c-0.139123-0.0091881-0.2722359-0.0320458-0.3680696-0.1382568c0.5966091-0.2227332,1.2200975-0.0506469,1.8281507-0.1052376
		C17.181263,0.5936561,17.6276875,0.3122689,17.8346176,0.5466937z"/>
	<path fill="#03E6EA" d="M23.2371254,6.0427933c-0.0059128,0.1121526-0.0505028,0.2153263-0.1817646,0.219677
		c-0.1607666,0.0053267-0.1560154-0.1271052-0.1479511-0.2235765c0.0363808-0.4352913-0.1161709-0.84829-0.1658421-1.2730889
		c-0.0000019,0.0000014,0.0346355-0.0215034,0.0346355-0.0215034c0.2889709,0.0052648,0.3092175,0.2109504,0.3333645,0.3967981
		c0.0332928,0.2562203,0.0829983,0.5104036,0.1100082,0.7670097C23.2277088,5.95258,23.2330379,5.9976244,23.2371254,6.0427933z"/>
	<path fill="#250B0B" d="M24.001442,4.2176805c-0.4515762,0.1112661-0.9034729,0.1820121-1.357233,0.0089803
		c0.0633907-0.1320992,0.1575661-0.1997833,0.3108978-0.1119204c0.3059483,0.1753159,0.5721607,0.0770445,0.829689-0.0949087
		c0.1483574-0.0675504,0.298439-0.1399379,0.3366833,0.1014748C24.0814667,4.1534314,24.0414543,4.1855559,24.001442,4.2176805z"/>
	<path fill="#166369" d="M21.7264614,0.9713123c0.178751-0.3036624-0.1757889-0.1151622-0.2262325-0.2073004
		c-0.0040455-0.0350031,0.0021-0.0684273,0.0186272-0.1001573c0.1068478-0.0052931,0.2135048-0.0106964,0.320158-0.0161349
		c0.3451214,0.0622192,0.2031555,0.2375638,0.1102219,0.4013304c-0.1508503,0.1292931-0.3016815,0.2587762-0.4525146,0.3884135
		c-0.0188866-0.0238783-0.022686-0.049782-0.0113983-0.0775568c-0.0634289-0.0604286-0.0763683-0.1333824-0.0629158-0.2130408
		C21.4894524,1.0384088,21.5425262,0.9088595,21.7264614,0.9713123z"/>
	<path fill="#231616" d="M21.8377266,1.8075119c0.1803894-0.3256483,0.3735733-0.6394304,0.8040218-0.7331774
		c0.0668583,0.09091,0.0158558,0.1737181-0.0198193,0.2579658c-0.0666523,0.1247178-0.1671524,0.2254232-0.2717934,0.3235016
		c-0.1102772,0.0957359-0.2163544,0.1982483-0.3796482,0.2146934c-0.0527554-0.0033199-0.0959148-0.0244501-0.1308098-0.0605899
		L21.8377266,1.8075119z"/>
	<path fill="#221A19" d="M24.121479,4.1213059c-0.0797977-0.1248097-0.2143536-0.0959959-0.3366833-0.1014781
		c0.0829563-0.1904347,0.290411-0.2284997,0.4574242-0.3160546C24.5561924,3.9295721,24.3795547,4.0353971,24.121479,4.1213059z"/>
	<path fill="#250505" d="M22.5252934,1.2879198c0.0388107-0.0712041,0.0776215-0.1424084,0.1164436-0.2135991
		c0.0757961-0.0357434,0.1515789-0.0715004,0.2273636-0.1072573c0.2245045-0.0822653,0.4504814-0.0702461,0.6770649-0.0091498
		c0.039732,0.0468408,0.0406475,0.0945306,0.0030136,0.1428846c-0.1626568,0.1150278-0.3756962,0.0911659-0.5518551,0.1699473
		C22.8417358,1.313091,22.6877975,1.4113318,22.5252934,1.2879198z"/>
	<path fill="#231616" d="M23.5555801,1.0734229c-0.1999931-0.192853-0.4577332-0.0704561-0.6864777-0.1063509
		c0.3307171-0.1507505,0.6492767-0.2128696,0.9155121,0.106249C23.7082996,1.1287138,23.6319542,1.1287217,23.5555801,1.0734229z"/>
	<path fill="#221B1C" d="M22.2988548,8.333746c-0.0014076-0.2036514-0.0370827-0.4197383,0.2262688-0.5273199
		C22.4790039,7.9928255,22.4510841,8.1858387,22.2988548,8.333746z"/>
	<path fill="#03E6EA" d="M23.3254204,6.0163732c-0.0294418,0.0087905-0.0588779,0.0175915-0.0883026,0.0264111
		c-0.0138874-0.0135722-0.0278511-0.0270925-0.0418873-0.0405502c-0.0777721-0.1837306-0.0573845-0.3371224,0.1571159-0.4305754
		c0.0561333-0.0049648,0.1010895,0.0135593,0.1346436,0.0552807c0.0401878,0.1633954-0.0807037,0.2702699-0.1627197,0.3908234
		L23.3254204,6.0163732z"/>
	<path fill="#250505" d="M23.5555801,1.0734229c0.0763474-0.0000356,0.1526909-0.0000714,0.2290363-0.0001045
		c0.0757504,0.0353613,0.1515045,0.07072,0.2272339,0.1060902c-0.0376892,0.0350442-0.0753517,0.0700768-0.1130142,0.1051098
		c-0.1465321,0.0712515-0.2552547,0.0016208-0.3604927-0.081534c-0.0277996-0.047194-0.0217533-0.0906677,0.017931-0.1301847
		L23.5555801,1.0734229z"/>
	<path fill="#241112" d="M15.2052164,0.3373136c0.1140499,0.0003035,0.2281017,0.0006068,0.3421516,0.0009102
		c0.0549335,0.1220953-0.0164194,0.2074291-0.0987301,0.2898182c-0.5067263,0.2449758-1.1062899,0.2014555-1.6155806,0.4387465
		c-0.329051,0.1439326-0.6896057,0.2395217-0.9326239,0.5156363c-0.910512,0.6165034-1.6699247,1.3651844-2.3014536,2.2262921
		c-0.1303968,0.0802093-0.2396879,0.236527-0.430913,0.1052678c0.0526905-0.5597508,0.4733868-0.9380064,0.8310757-1.325702
		c0.7421169-0.8043714,1.6081123-1.4756771,2.7155819-1.8328094c0.0949888-0.1771927,0.2643557-0.2153434,0.458396-0.2073679
		c0.0380373-0.000367,0.0760622-0.0011917,0.1140728-0.002474c0.1954966-0.1663598,0.48139-0.0734986,0.6896114-0.2033693
		C15.0529413,0.3406125,15.1290798,0.338963,15.2052164,0.3373136z"/>
	<path fill="#222222" d="M14.9768047,0.342262c-0.1859894,0.1936155-0.4319344,0.2153325-0.6896114,0.2033847
		C14.4092522,0.1686796,14.7445993,0.4033577,14.9768047,0.342262z"/>
	<path fill="#222222" d="M14.1731205,0.5481054c-0.152792,0.069137-0.305583,0.138274-0.4583855,0.2073895
		c-0.0378208-0.0343621-0.0756292-0.0687026-0.1134338-0.1030392C13.7732038,0.5309778,13.9281559,0.3309888,14.1731205,0.5481054z"
		/>
	<path fill="#212828" d="M14.7459002,4.6514926c-0.0001583,1.3676786-0.0003176,2.7353578-0.0004711,4.1030335
		c-0.0382681,0.0352001-0.07654,0.0704021-0.1148109,0.1056051c-0.4576998,0.1602707-0.9154043,0.1602144-1.3731165,0.0000401
		c-0.002635-0.0858984-0.022068-0.1642885-0.1116858-0.2113075c-0.2160597-0.267354-0.0968513-0.574708-0.1113539-0.8631015
		c-0.0210714-0.4189801-0.0331802-0.8415179,0.0022697-1.2588444c0.0366192-0.4310923-0.0402584-0.754868-0.5802984-0.8240395
		c-0.0377207-0.0350809-0.0754404-0.0701618-0.1131592-0.1052427c-0.2251692-0.3153005-0.2443209-0.6305518,0.000267-0.9457397
		c0.1169643-0.0394368,0.2339268-0.0788741,0.3508902-0.1183109c0.604866-0.2244148,1.2093744-0.2284737,1.8135061,0.0024757
		C14.6040955,4.5451837,14.6939602,4.5652823,14.7459002,4.6514926z"/>
	<path fill="#23100E" d="M17.2608356,9.0715237c-0.7211552,0.0208521-1.2710819-0.2342701-1.6028576-0.8410015
		c0.2341185-0.0889864,0.235549-0.0906334,0.461256,0.075139c0.8698063,0.6388378,1.7917805,0.6921911,2.7612534,0.210269
		c0.1810284-0.0940161,0.3514576-0.198904,0.4480381-0.3782024c0.3307323-0.4660664,0.3168888-0.9119186-0.081707-1.3415318
		c-0.0871296-0.0939102-0.1390209-0.2071409-0.1301384-0.3364787c0.0102901-0.1007071,0.0580235-0.1882105,0.113409-0.2729726
		c0.2238235-0.2810516,0.2101173-0.5678964,0.0238514-0.8584695c-0.0905895-0.2245626-0.3404064-0.3511806-0.42379-0.5802579
		c0.015255-0.0776753,0.0436058-0.1389523,0.1504917-0.1000791c0.3295288,0.1951766,0.5567856,0.4641123,0.7163868,0.7932191
		c0.0906429,0.1869092,0.1692829,0.4386339,0.054903,0.551537c-0.4306183,0.4250498-0.163662,0.8138666,0.0669403,1.1494937
		c0.2109985,0.307097,0.1607285,0.5298433,0.0056744,0.8114691c-0.3692131,0.6706085-0.9305019,1.0681734-1.7598667,1.1175508
		C17.7967701,9.1501122,17.52882,9.1495237,17.2608356,9.0715237z"/>
	<path fill="#231212" d="M18.9893131,8.5531645c-0.6695404,0.6685638-2.3572483,0.435297-2.9112663-0.08605
		c-0.1071815-0.1008596-0.1599026-0.3441515-0.4200354-0.2366095c-0.2355747-0.0579891-0.1769552-0.3154898-0.3393507-0.4231024
		c-0.1236305-0.2656603-0.0676022-0.5084376,0.1107969-0.7356286c0.0116882-0.2117419,0.1610126-0.3285356,0.3442106-0.4219623
		c0.0789356-0.0646224,0.0467157-0.230144,0.1992273-0.2173047c0.123765,0.0104198,0.1878557,0.1030493,0.1933184,0.2206798
		c-0.1550827,0.4550948-0.4477816,0.9025302-0.0929241,1.3864727c0.0877991,0.0961971,0.1856346,0.1826105,0.2908039,0.2624264
		c0.6103668,0.4665728,1.3168888,0.3235092,2.0067406,0.2620754c0.1838551-0.0163717,0.3567543-0.1207647,0.552269-0.0638847
		C18.9452534,8.5177441,18.9672852,8.5354548,18.9893131,8.5531645z"/>
	<path fill="#231616" d="M18.9806423,4.6479383c-0.0378418,0.0348668-0.0756874,0.0697336-0.1135311,0.1046004
		c-0.2024384,0.0924616-0.3701859-0.0499539-0.5563641-0.0681725c-0.5636177-0.1500549-1.1131287-0.1818075-1.618536,0.1606698
		c-0.5083065,0.3063021-0.7910748,0.7025084-0.6078644,1.2856174c0.0067139,0.0778079-0.0081882,0.1503563-0.0610409,0.2135634
		c-0.3086777,0.0456891-0.3227053-0.1997766-0.4229841-0.3602962c-0.0585709-0.1250606-0.0344839-0.2649417-0.0805407-0.3926239
		c-0.023737-0.0365119-0.0526848-0.0693903-0.0868435-0.0983891C16.2086029,4.0426474,18.0474892,3.9001162,18.9806423,4.6479383z"
		/>
	<path fill="#241213" d="M20.4655609,5.4933419c-0.0654736-0.0590386-0.1763592-0.1105318-0.189661-0.1782393
		c-0.2318001-1.1796808-1.0694122-1.934149-2.0988331-2.5573487c0.0170689-0.0796676,0.068409-0.1323612,0.1498451-0.1616037
		c0.2319431-0.0427401,0.3992062,0.1300623,0.6117554,0.1541176c0.6383629,0.2824483,1.0195522,0.7790153,1.3214817,1.3420866
		c0.0830956,0.3983231,0.4283867,0.7211399,0.3958244,1.1534653C20.6274872,5.3510165,20.5737991,5.4400287,20.4655609,5.4933419z"
		/>
	<path fill="#250A09" d="M16.6901512,2.3362081c-1.607646-0.1418593-3.0225344,0.2077117-4.1199646,1.3666217
		c-0.1876411-0.2227678-0.1981316-0.2487652,0.0268307-0.4563179c0.3495321-0.3224792,0.7634344-0.569073,1.1909914-0.7963686
		c0.1811714-0.1012518,0.3801031-0.1677368,0.5705967-0.2517762c0.8449354-0.2865597,1.6976347-0.3331904,2.5603285-0.0709534
		C16.9820423,2.3259039,16.7766571,2.2760053,16.6901512,2.3362081z"/>
	<path fill="#241213" d="M13.8344803,2.5589249c-0.3917418,0.2429481-0.8077898,0.4578855-1.1373272,0.7747819
		c-0.096736,0.0930252-0.3367596,0.1749606-0.1269598,0.369137C12.417551,3.9483714,12.2649164,4.193913,12.1122808,4.439455
		c-0.1034966,0.1062155-0.033597,0.2546353-0.1049442,0.3688908c-0.0249882,0.0631514-0.06001,0.1198063-0.1236115,0.1572337
		c-0.0760822,0.1055222-0.1521645,0.2110448-0.2282467,0.3165679c-0.1052055-0.0528178-0.1574306-0.1400366-0.1870375-0.2422452
		c-0.0314512-0.2614837,0.1706905-0.4756999,0.1740179-0.730773c0.4462099-0.8369839,0.995903-1.5769541,2.052639-1.8381021
		C13.7535467,2.484211,13.7999525,2.5136504,13.8344803,2.5589249z"/>
	<path fill="#240C0B" d="M14.5079374,4.5360608c-0.6045561-0.0007472-1.2091112-0.0014944-1.8135862-0.0023589
		c-0.0718174-0.1255293-0.1749392-0.2846246,0.0900106-0.2932634c0.5256701-0.017139,1.0529318-0.0125198,1.5787573,0.0040259
		C14.5606689,4.25068,14.6136065,4.3737254,14.5079374,4.5360608z"/>
	<path fill="#250404" d="M20.4655609,5.4933419c0.0030956-0.0816507,0.0155468-0.1592937,0.1036205-0.2045374
		c0.1077824,0.047194,0.1998882,0.1258659,0.2143154,0.2274208c0.0998402,0.7028685,0.1596336,1.4074111-0.0667915,2.1008143
		c-0.0502052,0.1537495-0.137661,0.2992525-0.3649845,0.189518c0.0004406-0.034945,0.0003567-0.0698895-0.0002594-0.1048417
		C20.603056,6.9749169,20.4082203,6.2286201,20.4655609,5.4933419z"/>
	<path fill="#211D1D" d="M11.8869991,4.7590566c0.0751019-0.1065273,0.1502018-0.2130547,0.2252922-0.319592
		c-0.0548553,0.1922321,0.1809416,0.1169276,0.2312307,0.212419c-0.0000801,0.3152604-0.0001783,0.6305089-0.0002623,0.945755
		c-0.2197256-0.0082493-0.3338528-0.114037-0.3444653-0.3154268C11.8647461,5.1253171,12.0231018,4.9155798,11.8869991,4.7590566z"
		/>
	<path fill="#231414" d="M15.6611576,5.9135313c0.165638,0.1053596,0.1008492,0.3853431,0.3696632,0.4125113
		c0.1485634-0.0072923,0.234787,0.0644197,0.2471428,0.1929679c0.0085773,0.0892448-0.0457325,0.1502666-0.1596642,0.1332507
		c-0.1125813-0.2733536-0.2290764-0.0801954-0.3446159-0.0024471c-0.1168385-0.3848333-0.4843369-0.7072239-0.3407631-1.1569099
		c0.0381069,0.0000529,0.0761938,0.0002365,0.1142817,0.0005536C15.6771097,5.6123948,15.5150089,5.7983203,15.6611576,5.9135313z"
		/>
	<path fill="#250909" d="M16.6901512,2.3362081c0.0466022-0.0833814,0.1287556-0.1029198,0.221117-0.1041186
		c0.33601-0.2059014,0.6182251-0.1476471,0.85256,0.1466026c0.0157719,0.0627167,0.00107,0.1189203-0.04389,0.1684313
		C17.3766766,2.4768183,17.0334129,2.406513,16.6901512,2.3362081z"/>
	<path fill="#260504" d="M17.7199383,2.5471239c0.0001431-0.0358841,0.0002823-0.0717683,0.0004196-0.1076522
		c0.2116852-0.1517739,0.3937416-0.0729897,0.5688839,0.0614872c0.0422382,0.0491564,0.0432835,0.0993383,0.0034084,0.1502383
		c-0.0385227,0.0355101-0.0770435,0.0710204-0.1155758,0.1065438C18.0246906,2.6875441,17.8723145,2.6173341,17.7199383,2.5471239z"
		/>
	<path fill="#212121" d="M15.4294577,7.071774c-0.0623713,0.2419705-0.1502619,0.48069-0.1108141,0.7356291
		C15.1292315,7.5333614,15.1059647,7.2804837,15.4294577,7.071774z"/>
	<path fill="#231212" d="M17.2608356,9.0715237c0.2679386-0.0001106,0.5358791-0.0002213,0.8038311-0.0003242
		C17.7968082,9.2355995,17.5288601,9.2353449,17.2608356,9.0715237z"/>
	<path fill="#212222" d="M11.1943588,10.8581972c-0.0022812,0.0769167-0.0045624,0.1538353-0.0068436,0.2307529
		c-0.0362024,0.0281525-0.0775795,0.0453749-0.1246128,0.0508795c-0.1420012-0.0098162-0.2667122,0.0663853-0.4067955,0.07061
		c-0.0477467-0.0181913-0.0854063-0.0466518-0.1133003-0.0867138c-0.1830101-0.2919302-0.2840567-0.6099434-0.3582802-0.9365444
		c-0.1685104-0.4772062-0.5887842-0.769412-0.9562073-1.1003113C9.1842556,8.8460379,8.9950457,8.7999525,8.7690277,8.7817745
		c-0.2209654-0.0177736-0.4623146,0.0441141-0.652791-0.1190062L8.0941248,8.6313696
		c0.0977955-0.2727652,0.3572607-0.2022352,0.569562-0.2213917c0.206851-0.0186625,0.4154015,0.024498,0.6358356,0.0004969
		c-0.1201191-0.2659855-0.294981-0.5257034-0.0667429-0.8083115c0.0439892-0.001328,0.0879774-0.0026565,0.1319666-0.0039849
		c0.019762,0.0159054,0.039526,0.0318122,0.0596437,0.047461C9.58634,7.9668198,9.6202135,8.3424883,9.9103231,8.6091547
		c0.1295338,0.2087545,0.2878876,0.4027433,0.3861418,0.6279545C10.6084747,9.7716522,10.9558611,10.2894716,11.1943588,10.8581972z
		"/>
	<path fill="#231414" d="M9.2546139,9.0694752c0.5394621,0.188345,0.8381739,0.5758009,1.0291681,1.0523443
		c-0.0005369,0.0246906-0.0010729,0.0493822-0.0015297,0.0741014c-0.0140285,0.1988411,0.0300913,0.4023361-0.0556803,0.5960274
		c-0.0826206,0.0986633-0.1340103,0.2540598-0.327282,0.1557026c-0.1763496-0.2299099-0.0588589-0.5131187-0.1629839-0.7558975
		C9.295433,9.2765551,8.7045135,9.1878071,7.6436553,9.879467C7.5478601,9.9290266,7.4484696,9.9689426,7.3361955,9.9727812
		C7.2802453,9.9673443,7.2323618,9.9457331,7.1914577,9.910512c0.0880027-0.3561516,0.411891-0.5262384,0.6860666-0.7355394
		C7.961278,8.9988756,8.1180019,8.925971,8.3162851,8.9114218c0.2715216,0.0219707,0.5376129,0.0857344,0.81143,0.0957766
		C9.1783171,9.0135183,9.2205458,9.0345774,9.2546139,9.0694752z"/>
	<path fill="#231414" d="M9.9072371,10.9546194c0.0866842-0.0668459,0.1733685-0.1336918,0.2600527-0.2005377
		c0.1590919-0.1914587-0.0336103-0.4368563,0.1142282-0.6300411c0,0,0.0022335-0.0022068,0.0022488-0.0022135
		c0.0847244,0.3632774,0.327117,0.6830406,0.3473272,1.0641279c0.0758915,0.1110535,0.0454025,0.1852245-0.0907364,0.22264
		c-0.1246433-0.0757465-0.1398458-0.1681843-0.0399027-0.2883978c-0.1521912,0.057971-0.083581,0.3324928-0.332098,0.2650871
		c-0.0696592-0.081089-0.1371126-0.0409393-0.1850767,0.0148191c-0.486021,0.5649948-1.135005,0.7056665-1.8744059,0.6157694
		c-0.0473404-0.1153984,0.0163898-0.192049,0.1063223-0.259696c0.3515739-0.1662283,0.8570166,0.1521387,1.1174459-0.3007097
		c0.1115713-0.1244612,0.2089033-0.2587614,0.3129139-0.3887081C9.715519,10.9955082,9.7910233,10.9344797,9.9072371,10.9546194z"/>
	<path fill="#05D8DC" d="M9.2327795,7.6021633c-0.0726576,0.3307605,0.3250732,0.6927214,0.115694,0.9131918
		C9.210391,8.6607513,8.7287855,8.521493,8.4015026,8.5288372c-0.1033001,0.0023184-0.204957,0.066618-0.307373,0.102541
		c-0.1622071,0.016963-0.3187246,0.0258942-0.316751-0.1893702c0.035542-0.1121712,0.1300936-0.1514244,0.2434354-0.1679296
		c0.3059807-0.0779314,0.7122517,0.051836,0.9116993-0.1259642c0.1943636-0.1732655-0.093317-0.5103498-0.0460043-0.7849445
		C8.895216,7.3126378,8.8926125,7.2604432,8.9090471,7.210608C8.7590532,7.3414054,8.7823868,7.680757,8.4185686,7.5543551
		C8.3769388,7.2185607,8.3688278,6.8960557,8.7928553,6.7423649c0.2136774-0.0775971,0.3637638-0.0787244,0.3451071,0.2000794
		C9.1230373,7.1654525,9.1029778,7.3944011,9.2327795,7.6021633z"/>
	<path fill="#231313" d="M7.9635234,8.317214c-0.0620527,0.0415964-0.124105,0.0831928-0.186151,0.1247911
		c-0.1335196,0.082756-0.2670445,0.1655102-0.4005694,0.2482634C7.3547463,8.6746721,7.3326898,8.6590757,7.3106332,8.6434793
		C7.7130423,8.0054598,8.1138439,7.3665752,8.5190878,6.730082c0.0912809-0.1433706,0.1970558-0.2604852,0.2737684,0.0122881
		c-0.1190338,0.280962-0.2380676,0.5619287-0.3571024,0.8428955C8.4357271,7.6080527,8.4357014,7.6308403,8.4360294,7.6536965
		c-0.0881977,0.2130728-0.2069063,0.4114537-0.343647,0.6013198C8.0570192,8.2889194,8.013896,8.3094912,7.9635234,8.317214z"/>
	<path fill="#231617" d="M8.2229128,11.8049059c-0.0380182,0.0703287-0.0760374,0.1406584-0.1140471,0.2109776
		c-0.3424511-0.3513508-0.8694911-0.5498657-1.0298929-1.0519419c0.1924682-0.1612482,0.0283327-0.3551912,0.051239-0.5327311
		c0.0242558-0.1879921,0.0083108-0.3775444,0.178833-0.519269c0.0856328-0.0317831,0.1712656-0.0635653,0.2568979-0.0953474
		c0.1057343,0.1503458,0.0260959,0.3069687,0.0062571,0.4564142c-0.0563965,0.4248285,0.0651021,0.7894011,0.3889427,1.0965223
		C8.024415,11.5265179,8.2719631,11.5908966,8.2229128,11.8049059z"/>
	<path fill="#231716" d="M9.2546139,9.0694761C9.2153587,9.0698996,9.1761036,9.070323,9.1368475,9.0707464
		c-0.263732-0.0490761-0.5384417-0.0275297-0.7977819-0.1048698C8.185236,9.0355806,8.0314054,9.1052828,7.8775487,9.1749792
		C7.4270654,8.7953815,8.0391321,8.8343849,8.1162214,8.6626949c0.353528,0.0034256,0.7092161-0.0671425,1.0584431,0.0562325
		C9.4177361,8.8047981,9.4651585,8.9067039,9.2546139,9.0694761z"/>
	<path fill="#240B0A" d="M12.5273199,12.5108891c-0.8632507,0-1.6660013,0-2.4764481,0
		C10.3615417,12.2694149,12.0278101,12.2512903,12.5273199,12.5108891z"/>
	<path fill="#231415" d="M10.1683569,11.3852844c0.0952244-0.1127653,0.1904497-0.2255316,0.3276262-0.3879757
		c0.0090847,0.1755972,0.0148954,0.2879047,0.0207062,0.4002123c0.0615692,0.0494909,0.0694008,0.1131802,0.0576496,0.1823225
		c-0.0353756,0.1094303-0.101634,0.2003756-0.1959047,0.2744875c-0.0565395,0.0407562-0.118494,0.0729437-0.1863775,0.0952129
		c-0.0486536,0.0100489-0.0910788-0.0011959-0.1270018-0.0331869c-0.1902294-0.0272455-0.2078924,0.3416719-0.3751602,0.1955881
		c-0.2073641-0.1811047,0.0965099-0.2807398,0.1921463-0.4071369C9.967473,11.591897,10.0721626,11.4913082,10.1683569,11.3852844z"
		/>
	<path fill="#250604" d="M9.5955505,5.5979152c-0.008399-0.5548716,0.0790949-1.0782833,0.5700216-1.4693398
		c0.1132555,0.1099043,0.0602818,0.2355952,0.0416298,0.3583984c-0.0174837,0.1000819-0.0417442,0.1986747-0.0781078,0.2946343
		C9.9404974,5.034657,10.0361404,5.397193,9.7520494,5.6138101C9.6967182,5.6350369,9.6443663,5.6308932,9.5955505,5.5979152z"/>
	<path fill="#05DBDF" d="M10.1593628,11.900753c0.0198383-0.0553837,0.0450668-0.1041536,0.1248178-0.0860138
		c0.4808569,0.1125746,0.9723368,0.0326366,1.457056,0.0696115c0.1476431,0.0112619,0.1921396-0.0803585,0.2546206-0.1638813
		c0.1378927-0.0004921,0.1542187,0.1269102,0.2337093,0.1878614c0.0019741,0.2380285-0.2194309,0.1729755-0.3565912,0.2222595
		c-0.4878397,0.0009174-0.9756632,0.0018206-1.4634867,0.0027227C10.1636372,12.2035723,10.0718193,12.1337309,10.1593628,11.900753
		z"/>
	<path fill="#250907" d="M9.5955505,5.5979152c0.0326586,0.0000529,0.0653152,0.0002294,0.097971,0.0005293
		C9.8947964,5.7547102,9.8947964,5.7547102,9.815444,6.2688718c-0.031002,0.104147-0.0820017,0.1995678-0.1513042,0.2868371
		c-0.0814953,0.077776-0.1655779,0.1504498-0.2975206,0.09442C9.334033,6.2793541,9.4156981,5.9296021,9.5955505,5.5979152z"/>
	<path fill="#260201" d="M9.3666191,6.6501288c0.0767288-0.0351429,0.1534567-0.0702863,0.2301855-0.1054292
		C9.6995888,6.63521,9.7064753,6.7490749,9.6914177,6.8685975c-0.1436501,0.227376,0.1068211,0.6030798-0.3200912,0.7247276
		c0,0-0.0065317,0.0048304-0.0065556,0.0048418C9.2860832,7.2820287,9.1712313,6.9658194,9.3666191,6.6501288z"/>
	<path fill="#250503" d="M7.3090448,9.9119406c-0.0873756,0.2985773-0.1895957,0.5914783-0.0387354,0.9048786
		c0.0872803,0.1813192-0.0242958,0.2106199-0.1913424,0.1471281C7.12748,10.6138058,6.9595976,10.2441235,7.1914735,9.910532
		C7.2306533,9.9109879,7.2698493,9.9114647,7.3090448,9.9119406z"/>
	<path fill="#262727" d="M10.0787573,4.4768806c0.0289583-0.1161304,0.0579147-0.2322612,0.0868435-0.3483486
		c0.000802-0.071485,0.0016327-0.1430128,0.0024643-0.2145443c0.1783924,0.0197163,0.2249842-0.1681001,0.3710518-0.1992788
		C10.6348314,4.0960393,10.5781031,4.3995028,10.0787573,4.4768806z"/>
	<path fill="#0E9DA3" d="M10.1593628,11.900753c0.0047951,0.1489706,0.1133165,0.2035933,0.2501087,0.2325382
		c-0.2657003,0.1302891-0.4152498,0.1045885-0.3444347-0.2169418C10.097456,11.9160862,10.1288919,11.9108849,10.1593628,11.900753z
		"/>
	<path fill="#231816" d="M9.0853128,6.3656898C9.0525026,6.3819718,9.0097485,6.4183893,8.9637785,6.4222245
		c-0.0599861,0.0050058-0.113266-0.0275474-0.0745707-0.0946703c0.015624-0.0271044,0.0556211-0.0520759,0.0890217-0.0586214
		C9.0375624,6.2573066,9.0856228,6.2779341,9.0853128,6.3656898z"/>
	<path fill="#240C0D" d="M12.4564333,5.702878c0.5240698-0.0802364,0.7360277,0.0820346,0.7016287,0.6077037
		c-0.0508347,0.7768445-0.0126162,1.5586171-0.0122833,2.3382869c-0.3027344,0.1194468-0.2254686-0.1071692-0.2275352-0.2264719
		c-0.008687-0.5013909,0.0005236-1.0030212-0.0049925-1.5044875C12.9082994,6.4676476,13.0397692,5.9705839,12.4564333,5.702878z"/>
	<path fill="#270402" d="M11.7697172,8.0181265c0.2451363,0.6392355,0.6892796,1.1642084,1.1430941,1.6836281
		c-0.020009,0.0143585-0.0400209,0.028717-0.0600109,0.0432291c-0.2717552,0.0407524-0.3968382-0.1743784-0.5841131-0.281909
		c-0.0588293-0.0467958-0.1044893-0.1028061-0.1385231-0.1669636c-0.0672255-0.1523294-0.1412029-0.3014374-0.2513542-0.4333811
		c-0.1440754-0.2644644-0.4171438-0.4957504-0.2574205-0.8387651C11.6691599,7.9865465,11.7187243,7.986414,11.7697172,8.0181265z"
		/>
	<path fill="#25090A" d="M11.5420723,5.9140825c0.0001202,0.3854313,0.0002413,0.770864,0.0003624,1.1562958
		c-0.0474586,0.085412-0.1023331,0.1575799-0.226078,0.1071467c-0.2421627-0.456099-0.2401438-0.9125886-0.0017796-1.3694744
		C11.438385,5.7561717,11.4943314,5.8276911,11.5420723,5.9140825z"/>
	<path fill="#221919" d="M13.2575016,8.8601713c0.4577045-0.0000143,0.915411-0.0000296,1.3731165-0.000042
		C14.3225307,9.1630116,13.5662079,9.1630335,13.2575016,8.8601713z"/>
	<path fill="#241010" d="M13.0261955,10.1217003c-0.1628313,0.3639669-0.4574194,0.6224279-0.7987032,0.8434963
		c-0.0408564-0.0312901-0.0697937-0.0700951-0.0874004-0.116292c-0.0189095-0.0716724-0.0165501-0.1429787,0.0046253-0.2140036
		c0.0263729-0.0692835,0.0725574-0.1260109,0.1315832-0.1744757c0.2086697-0.1280107,0.345685-0.350997,0.6167212-0.3978262
		C12.9461231,10.0655575,12.9905176,10.0853758,13.0261955,10.1217003z"/>
	<path fill="#250504" d="M11.425024,7.1786313c0.0391273-0.036077,0.0782528-0.0721545,0.1173944-0.108243
		c0.075779,0.315906,0.1515408,0.6318221,0.2273016,0.9477382c-0.0391817,0.0001812-0.0783596,0.0003624-0.1175385,0.0005426
		C11.2100039,7.8224587,11.2240067,7.5219288,11.425024,7.1786313z"/>
	<path fill="#250504" d="M11.5420723,5.9140825c-0.0389156-0.0359054-0.0778322-0.0718102-0.1167488-0.1077147
		c-0.1949072-0.2769895-0.2317495-0.5314441,0.1230755-0.7300606c0.0899467,0.0447469,0.1046267,0.1226048,0.1070795,0.2058411
		C11.6540403,5.498311,11.6754198,5.7179375,11.5420723,5.9140825z"/>
	<path fill="#221A1B" d="M12.2268057,10.8589725c0.0002308,0.0354023,0.0004606,0.0708046,0.0006895,0.1062164
		c-0.114768,0.1053371-0.2295341,0.2106667-0.3443165,0.3160048c-0.0767384-0.0700855-0.1534605-0.1401796-0.2301846-0.2102728
		c0.0133638-0.0761824,0.0614204-0.1294928,0.1307878-0.169096C11.9268761,10.8493853,12.0682364,10.7776461,12.2268057,10.8589725z
		"/>
	<path fill="#250A08" d="M13.0261955,10.1217003c-0.0362625,0.0004768-0.0725269,0.0007496-0.1087923,0.0008211
		c-0.1355629-0.1399841-0.1214685-0.2807779-0.0027008-0.4221373c0,0-0.0018635,0.0013752-0.0018768,0.0013723
		C13.1576157,9.7944698,13.1472874,9.9454403,13.0261955,10.1217003z"/>
	<path fill="#202626" d="M11.8869982,4.7590566c0.1886902,0.1470199,0.0836039,0.3471308,0.1117964,0.5231552
		c-0.1348734-0.0758743-0.1098776-0.2008777-0.1150618-0.3166213C11.8848171,4.8967385,11.8859072,4.8278975,11.8869982,4.7590566z"
		/>
	<path fill="#00FAFC" d="M12.3106165,10.5328341c-0.0300407,0.0337324-0.0600786,0.0674667-0.0901184,0.1012001
		c-0.1766605,0.3048582-0.4217615,0.214241-0.6717777,0.0993891c-0.1463556-0.0861673-0.2536087-0.2042608-0.3306084-0.3465338
		c-0.0737934-0.1905127-0.2274914-0.3325129-0.3568468-0.4896975c-0.4224491-0.5414801-0.7351637-1.1320562-0.9422102-1.7710943
		c-0.3502502-1.1375799-0.2076826-2.25736,0.139946-3.3698516c0.0065851-0.0931206,0.0131702-0.1862411,0.0197554-0.2793636
		c0.3264799-0.1656818,0.3534946-0.4843256,0.4603605-0.7621777c0.5940132-0.8744273,1.3475389-1.6096859,2.2685575-2.1988072
		c0.294363-0.2311907,0.6634054-0.3369575,0.9975605-0.5022771c0.6457386-0.2218063,1.3190727-0.3282039,1.9994192-0.3955
		c1.3604956-0.1345727,2.5145464,0.3685152,3.6205149,1.0112817c0.1150932,0.1407689,0.2632866,0.2391882,0.4453049,0.2943326
		c0.3771,0.2252917,0.6975441,0.502111,0.9268703,0.8618057c0.025877,0.0301158,0.0517559,0.0602317,0.0776329,0.0903475
		c0.3198376,0.2500887,0.5069141,0.5854101,0.6977901,0.9189827c0.4964886,0.4768226,0.4955597,1.120446,0.6220322,1.7026775
		c0.1816254,0.8361244,0.1539516,1.6879973-0.1443386,2.5136757l0.0043182-0.0062027
		c-0.0924225,0.2091389-0.0375004,0.4718847-0.2709198,0.6297255c-0.0841084,0.0399799-0.0918217,0.1081495-0.0800705,0.1835022
		c-0.342062,0.6353331-0.5200157-0.0167913-0.7726173-0.0832844c-0.0346851-0.0325098-0.0693684-0.0650196-0.1040516-0.0975294
		c-0.3198948-0.1109076-0.3274746-0.3486948-0.2905941-0.6046476c0.1017628-0.2266736,0.145092-0.4702754,0.2392025-0.6993389
		c0.0622902-0.5585074,0.0413628-1.1173081,0.0119171-1.6758418c-0.158596-0.5387697-0.3275185-1.0741363-0.6553249-1.5528188
		c-0.2802773-0.5290594-0.6905117-0.9494894-1.2394714-1.2539566c-0.207058-0.0803938-0.3584175-0.2426782-0.5647659-0.3246739
		c-1.3372402-0.5721318-2.697257-0.7381083-4.097291-0.1973453c-0.1822605,0.0684652-0.3753948,0.1127484-0.5477581,0.2041781
		c-0.8778505,0.3813577-1.5020895,0.9923117-1.9181213,1.7917588c-0.7453451,1.4789214-0.7572842,2.9473605,0.0737743,4.4040489
		c0.0355711,0.0623503,0.0828629,0.1161366,0.1319532,0.1688652c0.099535,0.1269703,0.1682968,0.2697926,0.2449026,0.408639
		c0.0277557,0.0323458,0.0555105,0.0646925,0.0832672,0.0970383C12.8914223,9.9522877,12.8914223,9.9522877,12.3106165,10.5328341z"
		/>
	<path fill="#313131" d="M20.9311714,8.7349644c0.261694-0.0046101,0.4514446,0.5545921,0.7726498,0.083333
		c0.0402699,0.2294912-0.0808792,0.3388805-0.318325,0.3617487C21.1914024,9.0685606,21.0162964,8.9405985,20.9311714,8.7349644z"/>
	<path fill="#212121" d="M21.7838593,8.6347466c0.0874481-0.2109404,0.1030197-0.4480429,0.2709579-0.6296997
		c0.0038662,0.1446753,0.0077705,0.2893772,0.0116539,0.4340839C21.9588318,8.4879417,21.931345,8.6346455,21.7838593,8.6347466z"/>
	<path fill="#19595D" d="M20.598978,8.0287104c-0.0803165,0.2524738,0.0410442,0.4410295,0.2281418,0.608737
		c-0.3959465-0.0062265-0.3784409-0.2690783-0.3813343-0.5193701c0.0182362-0.0267611,0.0289841-0.0558863,0.0320988-0.0873938
		C20.5175056,7.9915032,20.5578728,7.9908433,20.598978,8.0287104z"/>
	<path fill="#221B1C" d="M10.0682812,8.2227039c0.3017702,0.5593834,0.6035404,1.1187668,0.9053106,1.6781511
		c0.0899229,0.161643,0.2314348,0.2884464,0.346097,0.433382c0.0777702,0.0927401,0.1555395,0.1854801,0.2333097,0.2782202
		c0.0432749,0.1323261,0.300724,0.1526575,0.2172127,0.3512812c-0.0390539,0.0357161-0.0781069,0.0714331-0.1171894,0.1071663
		c-0.1581984-0.0611849-0.2582293-0.2283878-0.4586248-0.2126923c-0.0209055-0.2059507-0.8490496,0.0158997-0.3177958-0.5028934
		c0.0202436-0.0197678-0.1715927-0.2044077-0.2404366-0.3239841c-0.1471977-0.2556744-0.4174309-0.4470692-0.4657459-0.7537088
		C10.244916,8.9254332,9.8996315,8.68221,9.885643,8.3526878C9.8832264,8.3019981,9.8975029,8.2552462,9.9253855,8.2118034
		C9.9758472,8.1832972,10.0233841,8.188427,10.0682812,8.2227039z"/>
	<path fill="#00EDFE" d="M11.9958572,11.7204695c-0.0153208,0.0936251,0.0952578,0.2704411-0.0274124,0.2698793
		c-0.5509233-0.0025225-1.1138754,0.136487-1.651185-0.0798998c-0.0220022-0.0088615-0.0225458-0.0627813-0.033083-0.0957098
		c0.063592-0.0770721,0.1271811-0.1541443,0.1907692-0.2312164c0.1919985-0.0917883,0.186285-0.2802896,0.2511864-0.4342499
		c0.051693-0.329875,0.2059536-0.1841021,0.354538-0.0646534c0.1020041,0.1137686,0.1891508,0.244504,0.3671474,0.2715626
		c0.174758,0.0745773,0.2806339,0.2285814,0.4393549,0.3215952C11.9234009,11.692008,11.9596291,11.7062387,11.9958572,11.7204695z"
		/>
	<path fill="#221A1B" d="M11.8871727,11.6777773c-0.2316351,0.0043783-0.3302469-0.1760426-0.4766073-0.2901297
		c-0.0306396-0.0231371-0.0405464-0.0459299-0.0297813-0.068409c0.0106754-0.0222912,0.0212297-0.0334492,0.0317249-0.0334492
		C11.6889553,11.2953854,11.8381653,11.4352751,11.8871727,11.6777773z"/>
	<path fill="#05DBDF" d="M11.412509,11.2857895c0.0167713,0.0342321,0.0161238,0.0681829-0.0019426,0.1018553
		c-0.2034798-0.0149145-0.3134413-0.1159258-0.3298922-0.3030262c0.036212-0.0110865,0.0718279-0.0096455,0.106843,0.0043287
		C11.2287455,11.1872044,11.3000336,11.2564039,11.412509,11.2857895z"/>
	<path fill="#212121" d="M20.598978,8.0287104c-0.0404243,0.0006008-0.0808506,0.0012026-0.1211853,0.0018883
		c-0.0419617-0.0746145-0.084013-0.1493149-0.12607-0.2240272C20.5204201,7.79808,20.5566673,7.693934,20.5867157,7.56213
		c0.173214-0.7597475,0.1725559-1.5168104-0.0174255-2.273386c-0.0158176-0.4351449-0.384779-0.7601233-0.4369755-1.1839495
		c0.4017048,0.4297361,0.5592728,0.9534287,0.6788406,1.4917445c0.0882187,0.5969191,0.0895824,1.1937947-0.0010605,1.7906237
		C20.7706585,7.6096206,20.7353954,7.8332415,20.598978,8.0287104z"/>
	<path fill="#222222" d="M19.425169,1.629402c-1.152607-0.5756978-2.3518906-0.967958-3.6964903-0.9017531
		c-0.6931992,0.0341314-1.3427877,0.2195942-2.0051403,0.369189c-0.0573187-0.0399588-0.0600281-0.0828381-0.0081348-0.1286373
		c0.5373421-0.2638065,1.1567326-0.2461269,1.7191896-0.4237738c0.3768635-0.1595502,0.7651634-0.135048,1.1489601-0.0400328
		c0.4134388,0.1023532,0.8561249,0.0806372,1.2513161,0.2553879c0.335041,0.257707,0.7864132,0.2994373,1.1417065,0.5204895
		C19.1401978,1.3820715,19.3776894,1.4018255,19.425169,1.629402z"/>
	<path fill="#00EDFE" d="M21.7264614,0.9713126c-0.0740337,0.0684754-0.1480694,0.1369506-0.2221031,0.2054255
		c-0.2281036,0.1854725-0.1823826,0.6065768-0.4670143,0.6591254c-0.309145,0.0570744-0.4258842-0.3490382-0.6888351-0.4810066
		c-0.0503006-0.0252448-0.1022873-0.044908-0.1582375-0.0558553c-0.1036968-0.0592431-0.2073917-0.1184863-0.3110828-0.1776745
		c0.0157795-0.0869596-0.0799026-0.2790938,0.0825005-0.2376949C20.5481071,1.0331212,21.1410503,0.9135338,21.7264614,0.9713126z"
		/>
	<path fill="#202324" d="M22.0504608,8.0112238c0.1971912-1.1757593,0.2689457-2.3452315-0.2117443-3.4859772
		c-0.1152821-0.2735791-0.2348804-0.5456214-0.3524914-0.8183701c0.0398121-0.0459383,0.0814075-0.0473452,0.1247883-0.0042281
		c0.0382977,0.0354719,0.0765953,0.0709438,0.114893,0.1064162c0.2115555,0.2078087,0.3102627,0.4598329,0.3419743,0.7381065
		c0.0498734,0.4568906,0.2887363,0.8850956,0.2434635,1.3564286c0.0674744,0.3222756,0.0616932,0.6447392,0.0029583,0.9673405
		C22.2679958,7.2591825,22.4050617,7.6833062,22.0504608,8.0112238z"/>
	<path fill="#260402" d="M17.8348694,0.7597821c-0.8027477-0.0469729-1.584589-0.2910478-2.4003153-0.2153263
		c0.0376215-0.0687767,0.0752048-0.1375242,0.1128006-0.2062519c0.7443666-0.1097429,1.436223,0.2395955,2.1713972,0.2100023
		C17.7574463,0.6187413,17.7961578,0.6892617,17.8348694,0.7597821z"/>
	<path fill="#02EBEF" d="M20.1902714,1.2990017c0.056324,0.0009911,0.1217289-0.0149652,0.1674767,0.0057642
		c0.2673397,0.1211376,0.9536877,0.048818,1.1465816-0.128014c-0.0063152,0.0610455-0.0126591,0.122105-0.0190029,0.1831598
		c-0.2573681,0.1556907-0.1055202,0.6150839-0.5527649,0.6298574c-0.0565872-0.0040562-0.097517-0.0294517-0.1227875-0.0761896
		C20.6890411,1.6356065,20.3891029,1.510399,20.1902714,1.2990017z"/>
	<path fill="#221C1D" d="M20.8097744,1.9135796c0.0708218-0.0152931,0.1044273,0.0200977,0.1227875,0.0762187
		c0.1128502,0.17296,0.5032406,0.3011966,0.106102,0.5564196C20.7319889,2.4058266,20.5752335,2.2195647,20.8097744,1.9135796z"/>
	<path fill="#221C1D" d="M20.7973442,2.7855403c-0.3089542-0.2872698-0.6179066-0.5745394-0.9268646-0.8618075
		C20.3392925,2.0656071,20.657732,2.344249,20.7973442,2.7855403z"/>
	<path fill="#221A1C" d="M21.6110134,3.7026484C21.569418,3.704057,21.5278225,3.7054656,21.486227,3.7068748
		c-0.203722-0.2769911-0.407444-0.5539844-0.611208-0.8309822C21.3026905,3.0141757,21.3957558,3.4044096,21.6110134,3.7026484z"/>
	<path fill="#260604" d="M22.0678787,4.5471711c-0.1518898-0.2311878-0.2745609-0.4738255-0.3419819-0.738107
		c0.0382919-0.0004179,0.0765743-0.0008366,0.1148739-0.0012701c0.0762424,0.1055181,0.1524715,0.211051,0.2287006,0.3165846
		c0.0760441,0.1049361,0.0814857,0.2098308-0.0002213,0.3146744C22.0687923,4.4750924,22.0683365,4.5111318,22.0678787,4.5471711z"
		/>
	<path fill="#222222" d="M23.5634613,1.1697356c0.1117935,0.038254,0.2235851,0.0765085,0.3353748,0.114773
		c0.1645756,0.170023,0.451643,0.2465073,0.4740639,0.5250634c-0.0243225,0.0098473-0.048645,0.0196947-0.0729542,0.0297462
		c-0.1591129-0.0089943-0.2709618-0.1054964-0.391428-0.1831182c-0.4004917-0.2580533-0.8100777-0.3283222-1.245842-0.0705689
		c-0.0941906,0.0557153-0.2009125,0.090479-0.3177395,0.0540763c-0.0197067-0.0164195-0.0393467-0.0330067-0.0589848-0.0495936
		c0.079792-0.1007646,0.1595821-0.2015297,0.2393551-0.3022444c0.1515484-0.0397736,0.3031101-0.0795979,0.4546719-0.1194226
		C23.1746349,1.1065456,23.3691406,1.1028123,23.5634613,1.1697356z"/>
	<path fill="#221818" d="M24.3729,1.809572c0.4451447,0.4691386,0.4433842,0.8579905-0.0062351,1.3776407
		c-0.018549-0.0187023-0.0371017-0.0374048-0.0558929-0.0560162c0.095356-0.4359822-0.0013428-0.8763258,0.0342617-1.3137313
		L24.3729,1.809572z"/>
	<path fill="#221B1A" d="M24.0138416,3.598557c-0.4606018,0.2018523-0.9211712,0.4079437-1.3861675,0.0085669
		c0.0210896-0.0172803,0.0421772-0.0345602,0.0631657-0.0520782c0.4449291,0.0487456,0.8738556-0.1006715,1.3159924-0.090662
		C24.057766,3.5069842,24.0600185,3.5517416,24.0138416,3.598557z"/>
	<path fill="#202324" d="M21.9597092,1.8099339c0.1087971-0.0732321,0.2175961-0.1464639,0.3263206-0.2197579
		c-0.0000782-0.0000623,0.0409775,0.0364907,0.0409775,0.0364907c-0.0369225,0.4255618-0.2476368,0.8112966-0.3320198,1.2262377
		c-0.0488968,0.0463264-0.1007309,0.0491066-0.1553097,0.0086462c-0.0038986-0.2114556-0.0077972-0.4229112-0.0116959-0.6343668
		C21.7182693,2.0470867,21.8778954,1.9388978,21.9597092,1.8099339z"/>
	<path fill="#221818" d="M21.8396778,2.8615506c0.0450115-0.0019319,0.090023-0.0038643,0.1350346-0.0057962
		c0.345192,0.1483057,0.6017036,0.3670316,0.6816902,0.7259417c0,0-0.0285702,0.0253384-0.0286503,0.0253832
		C22.2202358,3.4879956,22.0095387,3.1930242,21.8396778,2.8615506z"/>
	<path fill="#250504" d="M21.9597092,1.8099341c-0.0438442,0.1390892-0.0876865,0.2781787-0.1316299,0.4172587
		c-0.164175,0.1035645-0.0458488,0.295562-0.164608,0.4370501c-0.1522999-0.3351154,0.038353-0.5902865,0.1762066-0.85434
		C21.8796883,1.8099151,21.9196987,1.8099246,21.9597092,1.8099341z"/>
	<path fill="#221818" d="M24.0138435,3.598557c-0.0015545-0.0393336-0.0031052-0.0786669-0.0046577-0.1180005
		c-0.0193176-0.2204115,0.1010704-0.3169024,0.331356-0.3159115c0,0,0.0260086,0.0224564,0.0260658,0.022512
		C24.3382683,3.3890374,24.1972408,3.5091639,24.0138435,3.598557z"/>
	<path fill="#212021" d="M22.3143024,6.8709402c-0.0010395-0.3224034-0.0020752-0.6448083-0.0030365-0.9672761
		C22.4713554,6.2256351,22.4682751,6.5480924,22.3143024,6.8709402z"/>
	<path fill="#231817" d="M22.0692501,4.4390531c0.0000648-0.1048903,0.0001297-0.2097807,0.000206-0.314672
		c0.1130905,0.1063609,0.2261658,0.2127237,0.3392143,0.3191214C22.2955093,4.4420424,22.1823826,4.4405475,22.0692501,4.4390531z"
		/>
	<path fill="#202225" d="M23.898304,4.8536315c0.0714817-0.0434532,0.1429653-0.0869055,0.2144413-0.1303897
		c-0.0177574,0.2417898-0.0684757,0.4645443-0.3706017,0.5419154c-0.052597-0.0674829-0.0675163-0.1434236-0.0602608-0.2245545
		C23.7121029,4.937501,23.7381535,4.8297091,23.898304,4.8536315z"/>
	<path fill="#202225" d="M23.3242702,6.0177627c0.0482216-0.132463,0.0964432-0.2649269,0.1446667-0.3973899
		c-0.0017185-0.1142445,0.0685101-0.1580157,0.1832371-0.158206C23.6547527,5.7032051,23.5614872,5.8964071,23.3242702,6.0177627z"
		/>
	<path fill="#03E6EA" d="M23.652174,5.4621673c-0.0610847,0.0527301-0.1221714,0.1054597-0.1832447,0.1581969
		c0.0000076,0.0000086-0.0413895-0.0320053-0.0413895-0.0320053c-0.0893364-0.293581-0.0107288-0.4892316,0.3562832-0.516706
		c-0.0138855,0.0645037-0.0277729,0.1290073-0.0416698,0.1935077C23.6530895,5.3080168,23.6466026,5.3827629,23.652174,5.4621673z"
		/>
	<path fill="#00ECFE" d="M23.7838249,5.0716529c-0.2335796,0.1053286-0.2903137,0.3137074-0.3561974,0.5167561
		c-0.1791763,0.0898004-0.2230473,0.2437167-0.2322655,0.41397c-0.2306423-0.2160711-0.1630859-0.5040665-0.2026291-0.7614408
		c-0.0290527-0.1891246-0.0121288-0.3786988-0.2166977-0.4965878c-0.0005589-0.1234283,0.0652504-0.2160792,0.1982422-0.1735244
		c0.2388859,0.0764389,0.456707,0.0731244,0.6990452-0.0009007c0.3267879-0.0998211,0.2505245,0.1200037,0.2249832,0.2837076
		C23.8601437,4.9263048,23.8219833,4.9989786,23.7838249,5.0716529z"/>
	<path fill="#231616" d="M23.5634613,1.1697357c-0.1944866-0.0003771-0.3889732-0.0007542-0.5834694-0.0012102
		c0.1674747-0.1573615,0.3824997-0.0724001,0.5762806-0.0957221C23.5562611,1.1052626,23.5586567,1.1375747,23.5634613,1.1697357z"
		/>
	<path fill="#221E1D" d="M13.7154036,0.9682007c0.0027103,0.0428739,0.0054216,0.0857478,0.0081329,0.1286296
		c-0.3052864,0.139693-0.6105757,0.2793782-0.915863,0.4190652C12.9922171,1.1678984,13.4199095,1.1606909,13.7154036,0.9682007z"/>
	<path fill="#02EEF1" d="M14.5914879,6.7117777c0.0002394,0.4896517-0.0349607,0.9820824,0.0104322,1.4681482
		c0.0428476,0.4588079-0.151453,0.5685883-0.6145706,0.5574684c-0.4216194-0.0101252-0.6785936-0.0399513-0.6472197-0.5324726
		c0.0466309-0.732007,0.0025177-1.4685249,0.0196619-2.2026753c0.0071926-0.3078856-0.0346565-0.5245485-0.4511356-0.4871154
		c-0.4362259,0.039207-0.3505278-0.2570882-0.3691521-0.4943967c-0.0217924-0.2776675,0.1169548-0.3523674,0.4032145-0.3666482
		c1.6488791-0.0822606,1.6485319-0.0881581,1.64853,1.4281392C14.5912485,6.2920756,14.5912485,6.5019269,14.5914879,6.7117777z"/>
	<path fill="#231717" d="M19.1898041,6.4021411c0.0406666,0.0948524,0.0547733,0.2136302,0.1262455,0.2807307
		c0.5200977,0.488266,0.4905624,1.0043626,0.1200581,1.54673c-0.0496292,0.0417585-0.0990982,0.0416012-0.148634-0.0003138
		c-0.0521393-0.0657711-0.0736389-0.1404228-0.0760822-0.2206192c0.0014286-0.0769815,0.0209332-0.1502013,0.0575848-0.2191749
		c0.3561516-0.4475856-0.0846272-0.736135-0.2562447-1.0788531C18.9944267,6.5700688,19.0080547,6.4450512,19.1898041,6.4021411z"/>
	<path fill="#0EA6AE" d="M19.1898041,6.4021411C19.047596,6.4929862,19.089119,6.6196704,19.1112785,6.742578
		c-0.0394592,0.0434093-0.0899391,0.0659518-0.1515293,0.0678477c-0.3980026-0.2939067-0.3694859-0.4048748,0.2102833-0.8200312
		c0.058588-0.0165415,0.1151218-0.0113015,0.1692543,0.0150981c0.0440636,0.0766616,0.0487461,0.1516471-0.0122223,0.2236161
		C19.281311,6.2867861,19.2355576,6.3444633,19.1898041,6.4021411z"/>
	<path fill="#20292A" d="M19.3270645,6.2291088c-0.0008087-0.0696349-0.0016174-0.1392713-0.0024242-0.2089067
		c-0.184515-0.1915536-0.1597881-0.4117303-0.1036873-0.6365719c0.0222549-0.0542283,0.0598564-0.097455,0.112051-0.1299467
		C19.6015034,5.5802178,19.6642818,5.9056935,19.3270645,6.2291088z"/>
	<path fill="#23191A" d="M18.4045658,4.5467224c0.1541615,0.0686283,0.3083267,0.1372561,0.4625187,0.2058496
		c0.2054558,0.1277852,0.4047279,0.260437,0.4658852,0.5013475c-0.0136509,0.0147238-0.0245075,0.0312548-0.0325375,0.0493565
		c-0.2045937,0.023221-0.3036137-0.130466-0.4410515-0.2207141c-0.0406551-0.0269504-0.0796356-0.0555625-0.1196404-0.0831852
		c-0.1370068-0.1005392-0.3333015-0.1413007-0.3893242-0.3237686C18.3484783,4.6255727,18.36759,4.5829592,18.4045658,4.5467224z"/>
	<path fill="#231212" d="M19.308691,8.2244949c0.0424786,0.0016947,0.0849552,0.0033894,0.1274261,0.0050955
		c-0.0971222,0.1684294-0.2276134,0.2978458-0.4468708,0.3235168c0.0000668,0.0000572-0.0322609-0.0322113-0.0322609-0.0322113
		C18.9696465,8.3171587,19.067461,8.1988707,19.308691,8.2244949z"/>
	<path fill="#01F5FB" d="M19.2150402,6.0329361c-0.0170116,0.2622356-0.7513065,0.3306894-0.2354107,0.736896
		c0.5538616,0.3935666,0.6257591,0.6127248,0.3580685,1.0914702c-0.002533,0.0520644-0.0050659,0.1041293-0.0075989,0.1561937
		c-0.6321163,0.6978149-1.7238636,0.9130344-2.6822472,0.5295c-0.1560383-0.0624456-0.2945061-0.1599541-0.4637337-0.1958599
		c-0.099432-0.0337992-0.1699581-0.0928745-0.196701-0.1902342c-0.2819414-0.7732325-0.2305479-1.0389628,0.2610092-1.354507
		c0.3071823,0.1255059,0.1425285,0.3598409,0.1297836,0.5440941c-0.0250206,0.3617048,0.0393467,0.6638589,0.4422321,0.811667
		c-0.4831104-0.5701723-0.4937172-0.8302288,0.0322437-1.3408656c0.2049618-0.1989908,0.2059231-0.3122287,0.0200386-0.5184121
		c-0.4274998-0.4741774-0.3960876-0.6236663,0.1323261-1.0897422c-0.6616364,0.3384886-0.6841278,0.4039893-0.3500519,1.0551939
		c0.0811749,0.1582298,0.1985703,0.3194685,0.0350742,0.4814601c-0.0940056,0.0931411-0.2059917,0.0547423-0.2918701-0.0376449
		c-0.0282631-0.2395525-0.2703724-0.3732471-0.3458748-0.5896654c-0.2524538-0.452136-0.0644007-0.8053422,0.3097076-1.1032772
		c0.1556168-0.1239314,0.3375206-0.2211142,0.5167141-0.3188415c0.0559235-0.025465,0.1144314-0.0403643,0.1763363-0.0457911
		c0.6576366-0.153861,1.244997,0.0445447,1.8200321,0.3050466l-0.0036469-0.0031848
		C19.1522141,5.2704043,19.4060974,5.5916266,19.2150402,6.0329361z"/>
	<path fill="#03E8EC" d="M16.1841183,8.3511362c0.7050667,0.1438923,1.372879,0.4285154,2.1472359,0.2226219
		c0.4144611-0.1102009,0.6652832-0.375103,0.9987392-0.5562611c-0.0071297,0.0689993-0.0142651,0.1379986-0.0214005,0.2069979
		c-0.1172352,0.0988016-0.2344685,0.1976051-0.3517036,0.2964048C18.0043716,8.8555603,17.0650043,9.0072784,16.1841183,8.3511362z"
		/>
	<path fill="#03E8EC" d="M16.1184406,6.1232514c0.0808334,0.1938276,0.3562794,0.2808709,0.3418999,0.5269423
		c-0.0646057,0.0572686-0.0212421,0.1641932-0.1135197,0.2087355c-0.4784851,0.1055398-0.4686832,0.451097-0.4435883,0.7898636
		c0.0126591,0.1708927,0.1347466,0.3297081,0.0841913,0.512074c-0.4923191-0.5421643-0.240777-1.0297923,0.1308756-1.5086064
		c0.1535912-0.1351533,0.1477966-0.1567607-0.0874825-0.3262153c-0.0117455-0.0665822-0.0234985-0.133162-0.0352507-0.1997414
		C16.0351925,6.0799108,16.0762138,6.0811367,16.1184406,6.1232514z"/>
	<path fill="#202B2C" d="M18.4045658,4.5467224c-0.0006695,0.0384021-0.001339,0.0768042-0.0020065,0.1152062
		c-0.4936962,0.1174669-1.0052509-0.0392976-1.4986629,0.0825353l0.0085621-0.0069833
		c-0.0994015,0.1044912-0.2132797,0.0845413-0.3308868,0.0325565C17.1311512,4.2946062,17.7707596,4.4406881,18.4045658,4.5467224z"
		/>
	<path fill="#02EEF1" d="M16.5815716,4.7700377c0.1102924-0.0108104,0.220583-0.0216208,0.3308811-0.0324941
		c-0.0783978,0.1614199-0.2736816,0.172647-0.404026,0.2664156c-0.4040184,0.2906518-0.6625071,0.6277328-0.3899879,1.1193013
		c-0.0409565,0.0010085-0.081913,0.0020261-0.1228714,0.0030432C15.7732782,5.5331397,15.8853064,5.273859,16.5815716,4.7700377z"/>
	<path fill="#250706" d="M15.6611576,5.9135313c-0.2512131-0.0911078-0.0541039-0.2850847-0.1139679-0.4200845
		C15.7141323,5.6039014,15.6429834,5.7689619,15.6611576,5.9135313z"/>
	<path fill="#212121" d="M18.4098396,2.5451102c0.2038708,0.0446308,0.3629723,0.1490767,0.4830017,0.3057237
		c-0.2452145,0.0482593-0.3679314-0.214958-0.6001949-0.1996331c-0.0050545-0.027463-0.0117779-0.0545731-0.0201683-0.0813336
		C18.3052444,2.5005174,18.3510323,2.4922662,18.4098396,2.5451102z"/>
	<path fill="#202A2B" d="M18.4098396,2.5451105c-0.0457096,0.0081558-0.0914173,0.0163114-0.1372433,0.0246117
		c-0.1826992-0.0485396-0.3496437-0.1532233-0.5522385-0.130234c-0.2188282-0.2367651-0.5179462-0.2087009-0.8090134-0.2074113
		c-0.8847218-0.2050123-1.7565508-0.1674986-2.6153336,0.1168916c-0.0645142,0.0399513-0.1178026,0.0298467-0.1598692-0.0303128
		C15.6042032,1.6999637,17.0280094,1.7875787,18.4098396,2.5451105z"/>
	<path fill="#212121" d="M14.1361418,2.3186557c0.0532551,0.0100436,0.1065121,0.0200875,0.1598186,0.0302217
		c-0.1538191,0.0699983-0.3076906,0.1399064-0.4615202,0.2099309c-0.0504303-0.0085235-0.1008987-0.0171633-0.1513872-0.0258105
		C13.7949963,2.3916914,13.9527988,2.3323429,14.1361418,2.3186557z"/>
	<path fill="#212121" d="M11.9853249,8.9909811c-1.0512352-1.195951-1.1544895-3.3819747-0.2204094-4.6662307
		c0.0641232,0.2837315-0.2160177,0.4835262-0.2165899,0.7515116c-0.1621475,0.2261372-0.1129246,0.4823656-0.1229897,0.7301259
		c-0.1799746,0.4573555-0.1790295,0.914762-0.0002947,1.3722196c-0.009058,0.2994294,0.0159912,0.5910368,0.2271767,0.8400588
		c-0.0045662,0.3235664,0.2171268,0.5652981,0.3577147,0.8363676C12.0566587,8.9087582,12.0484591,8.9540739,11.9853249,8.9909811z"
		/>
	<path fill="#250505" d="M9.9386215,8.2290058C9.9383888,8.2640009,9.9384565,8.298996,9.9388227,8.3339901
		C9.9331045,8.4479809,9.9463196,8.567771,9.8256121,8.6465397c-0.3788519-0.2680635-0.425561-0.6573172-0.4543285-1.0531578
		c0.2537899-0.1978817-0.0365562-0.538259,0.2272568-0.7334466c0.0632353-0.0362082,0.1149035-0.0254464,0.155035,0.0322332
		C9.7602129,7.3441935,9.9982052,7.7691865,9.9386215,8.2290058z"/>
	<path fill="#270301" d="M9.8256121,8.6465397c0.003026-0.1148186-0.0202847-0.2377043,0.1132145-0.3125515
		c0.1346989,0.2825079,0.2820396,0.560648,0.3998461,0.8489914c0.0844336,0.2066584-0.0728378,0.1202278-0.1682816,0.0946817
		C10.0554829,9.0672636,9.940547,8.8569012,9.8256121,8.6465397z"/>
	<path fill="#05DBDF" d="M10.7261324,11.1492729c0.0343494,0.2024946,0.0167103,0.3795633-0.2511683,0.4342499
		c0.0138931-0.0620041,0.0278034-0.1240091,0.0417194-0.1860075c0.086278-0.0485115,0.121356-0.1204348,0.1144056-0.2115688
		C10.6635971,11.1755342,10.6952772,11.1633062,10.7261324,11.1492729z"/>
	<path fill="#02ECEF" d="M7.8854003,11.4737196C7.36378,10.9890213,7.2406821,10.439353,7.5659404,9.8165913
		c0.961143-0.7877178,1.839313-0.6762238,2.2845073,0.2900467c-0.0221062,0.0140409-0.0442133,0.0280809-0.0662985,0.0422716
		C9.54844,10.1285629,9.4532127,9.9283981,9.2874174,9.8184967c-0.4063311-0.2693453-0.8908482-0.260788-1.2601852,0.0305605
		c-0.3321328,0.2620001-0.4177742,0.6822319-0.2135291,1.0477724c0.2044282,0.3658686,0.695538,0.5292387,1.1814103,0.4082794
		c0.2401495-0.0597878,0.4168081-0.2504263,0.6765823-0.2620459c0.0210381,0.0154953,0.0420179,0.0311766,0.0629959,0.0468569
		c-0.0879955,0.1240063-0.175992,0.2480125-0.2639885,0.3720179C8.8182125,11.8937521,8.587945,11.895463,7.8854003,11.4737196z"/>
	<path fill="#02ECEF" d="M9.9072371,10.9546194c-0.057518,0.0450974-0.1150351,0.0901947-0.1725502,0.1352968
		C9.7346916,11.08992,9.697916,11.0620689,9.697916,11.0620689c-0.2016134-0.3337097-0.2497225-0.6524248,0.1076021-0.9315357
		c0,0,0.0449133-0.0238867,0.0449219-0.0238914C10.0572014,10.3786612,9.9227238,10.6700096,9.9072371,10.9546194z"/>
	<path fill="#260706" d="M8.3390656,8.9658766c0.2704506,0.0059261,0.5491505-0.0412245,0.7977991,0.104867
		C8.8491936,9.1755724,8.5899124,9.0978537,8.3390656,8.9658766z"/>
	<path fill="#260505" d="M10.281518,10.1240406c-0.0059319,0.2079163-0.0113087,0.4158516-0.0196161,0.6236877
		c-0.0003729,0.0093203-0.0270462,0.0242853-0.0420017,0.0248604c-0.0172205,0.0006618-0.0350361-0.0117674-0.0526018-0.018508
		C10.2072411,10.5443554,10.0745049,10.3081522,10.281518,10.1240406z"/>
	<path fill="#212121" d="M7.8854003,11.4737196c0.5309205,0.2792387,1.0593705,0.2770195,1.5853047-0.0117722
		c-0.2566824,0.6042461-0.7975502,0.334218-1.2477922,0.3429747C8.1348734,11.6734266,7.9135165,11.6568422,7.8854003,11.4737196z"
		/>
	<path fill="#00EDFE" d="M8.4357538,7.5852656c0.3417368-0.0818205,0.2114697-0.5210032,0.5749016-0.6151857
		C8.9744539,7.4445157,9.0865116,7.8967123,9.2398853,8.418375c-0.449007-0.1888828-0.8683882,0.0442142-1.2763534-0.10116
		C7.9635234,8.317214,7.9648767,8.3177319,7.9648767,8.3177319c0.2511115-0.1939526,0.3045506-0.4955921,0.4731565-0.7344928
		L8.4357538,7.5852656z"/>
	<path fill="#05D8DC" d="M8.4380331,7.5832391C8.3798456,7.882267,8.3008623,8.1699686,7.9649315,8.3177462
		C8.0655346,8.0418158,8.218998,7.7946663,8.4380331,7.5832391z"/>
	<path fill="#1F2D2F" d="M9.9386215,8.2290058C9.8258076,7.7840252,9.6846104,7.3433585,9.6960449,6.8794904
		C9.631074,6.6930156,9.6334791,6.5065684,9.6963024,6.3201432C9.6516027,6.0797067,9.7920656,5.8387275,9.6936607,5.5984459
		C9.9004335,5.348938,9.7204981,4.9574647,10.059,4.7562475c-0.2697668,1.1561036-0.2966461,2.3116589,0.0092812,3.4664583
		C10.0250607,8.2248049,9.9818411,8.2269049,9.9386215,8.2290058z"/>
	<path fill="#20282A" d="M9.6963024,6.3201432c-0.0000105,0.186336-0.000021,0.3726707-0.000144,0.5591769
		c-0.0314045-0.011539-0.0639257-0.0180531-0.0976467-0.0193787c-0.0005569-0.105083-0.0011435-0.2101593-0.0017176-0.3152394
		C9.6299706,6.4698482,9.6631374,6.3949962,9.6963024,6.3201432z"/>
	<path fill="#212121" d="M12.3106165,10.5328341c0.4277411-0.3803062,0.493453-0.7574186-0.0117922-1.1294956
		c0.2572165,0.0079689,0.3410473,0.3199453,0.6158724,0.29706c0.0008821,0.1407003,0.0017567,0.281415,0.0026703,0.4221258
		C12.674387,10.2083254,12.5795832,10.4794846,12.3106165,10.5328341z"/>
	<path fill="#231516" d="M11.9853249,8.9909811c0.0081425-0.0452976,0.0162859-0.0905962,0.024519-0.1359205
		c0.1314869,0.1261692,0.2261009,0.2665396,0.2057018,0.4512348C12.1045523,9.2223434,12.0052242,9.1311827,11.9853249,8.9909811z"
		/>
	<path fill="#212121" d="M11.7702122,10.9637394c-0.0724058-0.1170778-0.1448107-0.2341557-0.2172146-0.3512573
		c0.2204943,0.0596924,0.4351044,0.2733164,0.6675024,0.021553c0.0021076,0.0749807,0.0042171,0.1499605,0.0063152,0.2249393
		C12.0848618,10.9316854,11.9364576,10.9805918,11.7702122,10.9637394z"/>
	<path fill="#00E8FE" d="M21.7260323,6.5228052c-0.0219383,0.5558348,0.0893745,1.1248002-0.1955605,1.6546707
		c-0.0720196,0.1339254,0.0202961,0.4198809-0.2988644,0.3280382c-0.2602177-0.0748806-0.326273-0.2650852-0.206728-0.5048485
		c0.2784443-0.5584435,0.2595463-1.1539135,0.2427578-1.7481785c-0.0423164-1.4979978-0.8205585-2.6430774-2.0261192-3.5866859
		c-0.8841152-0.692009-1.9386997-1.0720463-3.0602417-1.1357915c-1.0084658-0.0573186-1.9605265,0.2924728-2.8443661,0.7803788
		c-1.2247095,0.6760781-2.0390339,1.6649337-2.4057446,2.8890014c-0.4493847,1.5000305-0.1781569,2.9405551,0.9067211,4.1965213
		c0.1177893,0.1363649,0.2210064,0.284586,0.3489761,0.4120283c0.2052736,0.2044258-0.0030966,0.333499-0.1124382,0.4418116
		c-0.1680737,0.1664925-0.2913141,0.0269384-0.4082146-0.1053114c-0.6926832-0.7836418-1.1046524-1.6492796-1.3276157-2.6635513
		C10.0537186,6.184978,10.3133736,5.0316219,10.91327,3.8998363c0.7947416-1.4993899,2.1414242-2.3955202,3.8887911-2.6985769
		c2.4544182-0.4256845,4.4848938,0.3005484,6.0064583,2.1427975C21.4284153,4.0945978,21.7254696,5.1883869,21.7260323,6.5228052z"
		/>
	<path fill="#147378" d="M20.8100948,7.3871627c0.0003529-0.5968738,0.0007057-1.193747,0.0010586-1.7906222
		C21.0357323,6.1935263,21.0358829,6.790401,20.8100948,7.3871627z"/>
	<path fill="#221B1D" d="M11.3196888,10.3342371c-0.1922255-0.0925541-0.3476534-0.209959-0.3460999-0.433382
		C11.1341152,10.0148182,11.2861967,10.1344833,11.3196888,10.3342371z"/>
	<path fill="#02F1F4" d="M24.3405418,3.164645c-0.1104546,0.1053038-0.2209053,0.2106082-0.331356,0.315912
		c-0.4356213,0.2068779-0.8834591,0.2755435-1.3527851,0.1011419c-0.2711487-0.2071056-0.4997158-0.4480245-0.6816902-0.7259438
		c-0.0645981-0.4538205,0.0437965-0.8657081,0.3522949-1.2290905c0.8871708-0.4962525,1.2072926-0.4659861,2.0180302,0.1908003
		C24.5937767,2.2672307,24.5878696,2.7162783,24.3405418,3.164645z"/>
	<path fill="#00E9FE" d="M13.3769293,4.9312768c-0.075037-0.1442428-0.2767839,0.0097852-0.3406487-0.1409669
		c1.2527037-0.1066103,1.3647442-0.0126896,1.3647795,1.1404619c0.0000191,0.6129351,0.0014439,1.2258744-0.0009327,1.8388009
		c-0.0006685,0.1727309,0.0328197,0.3537526-0.1075621,0.5019917c-0.1073103,0.1133146-0.1643314,0.2967033-0.3870268,0.2554502
		c-0.2461405-0.0455971-0.1864948-0.2345257-0.187891-0.3808622c-0.006012-0.6303992-0.0041647-1.2608771-0.0021982-1.8913188
		c0.0013056-0.4186687-0.0055199-0.8268328-0.6200619-0.8813496C12.9540396,5.3609447,12.9108,5.2560992,12.9283772,5.1420798
		C12.966753,4.893158,13.2348347,5.0149527,13.3769293,4.9312768z"/>
	<path fill="#03E8EC" d="M19.337698,7.8613024c0.2290688-0.4605613-0.0504627-0.7800326-0.3580933-1.0915861
		c0.0439034-0.008965,0.0877781-0.0180459,0.1316643-0.027132C19.6198044,7.2006216,19.6789131,7.4926667,19.337698,7.8613024z"/>
	<path fill="#02EEF1" d="M19.2150402,6.0329361c0.1178188-0.4215384-0.210947-0.7225337-0.3435802-1.0764852
		c0.2075443,0.0480862,0.266613,0.2514734,0.4289761,0.3468237c0.0244827,0.2385077,0.1152935,0.475121,0.0242023,0.7169275
		C19.2871494,6.0174756,19.2506161,6.0217199,19.2150402,6.0329361z"/>
	<path fill="#02EEF1" d="M16.9038963,4.7444639c0.4855499-0.2425861,0.9974804-0.0800381,1.4986629-0.0825367
		c0.1342793,0.1304131,0.3722973,0.121592,0.4725361,0.2977047C18.2332783,4.7698708,17.5724106,4.7275453,16.9038963,4.7444639z"/>
	<path fill="#00E9FE" d="M16.3468208,6.8589292c0.0030556-0.0855856,0.023098-0.1633568,0.113533-0.2087383
		c0.0770893,0.0852184,0.1644955,0.1023221,0.2078438-0.0141025c0.0408955-0.1098404-0.0459728-0.1970568-0.1184368-0.2801409
		c-0.6789179-0.7784252-0.0727367-1.2287612,0.8422089-1.353477c0.0242634,0.1728592-0.1562824,0.1689701-0.2467785,0.2370119
		c-0.5747585,0.4321594-0.5808754,0.5747061-0.0737648,1.0844951c0.1111908,0.1117778,0.4082298,0.189507,0.0912399,0.4351602
		c-0.7958488,0.6167498-0.781538,0.8427448,0.0063934,1.5126224c-0.5828323,0.0793285-0.911232-0.1510487-0.9398937-0.6393905
		C16.2134495,7.3646364,16.2746677,7.1124315,16.3468208,6.8589292z"/>
	<path fill="#00E9FD" d="M18.154438,8.2906256c0.0066738-0.0328484,0.0027733-0.0740509,0.0231647-0.0970221
		c0.6342468-0.7145095,0.6347675-0.7143617,0.0008392-1.3851123c-0.0947628-0.1002693-0.221405-0.1616902-0.0924931-0.3450484
		c0.5392914-0.767067,0.5302029-0.772471-0.154232-1.4497375c1.0508385,0.2129784,1.2240143,0.5404439,0.6916161,1.3804159
		c-0.1483154,0.2339969,0.0429058,0.3089008,0.1454639,0.4377656c0.454958,0.5716586,0.4546013,0.9594288-0.002533,1.328032
		C18.5684261,8.3194427,18.5684261,8.3194427,18.154438,8.2906256z"/>
	<path fill="#212020" d="M17.9211273,7.0726147c0.2604637,0.1512766,0.3617134,0.3542876,0.2417526,0.629178
		c-0.2935905,0.2070584-0.6043282,0.3011551-0.9564323,0.122798c-0.0898018-0.1444941-0.4236622-0.1862254-0.2251148-0.4521308
		c0.1503735-0.0846429,0.253355-0.2177038,0.3865108-0.3199348l-0.0076351,0.0056863
		C17.5488377,7.0084395,17.736721,6.9832792,17.9211273,7.0726147z"/>
	<path fill="#221514" d="M17.8186703,5.4951181c0.0809402,0.0719295,0.1618805,0.1438594,0.2428207,0.2157888
		c-0.0633526,0.4897819-0.2361755,0.5574245-0.8140717,0.3186226l0.0027676,0.0024009
		C17.2364292,5.5494156,17.3190403,5.4714065,17.8186703,5.4951181z"/>
	<path fill="#212A2D" d="M17.2474194,6.0295296c0.3559895,0.0766363,0.7225628,0.1761432,0.8140793-0.3186278
		c0.2534428,0.2410126-0.0017815,0.3713036-0.1602135,0.4588361C17.6650009,6.3002825,17.4075527,6.3028145,17.2474194,6.0295296z"
		/>
	<path fill="#21272A" d="M17.2064476,7.8245907c0.3362713,0.0740533,0.6442699-0.0381136,0.9564362-0.122797
		C17.8940239,8.071763,17.5711002,8.0856028,17.2064476,7.8245907z"/>
	<path fill="#212A2D" d="M17.8186703,5.4951181c-0.3934669-0.0037699-0.5624638,0.1934896-0.5684528,0.5367842
		c-0.236063-0.1582417-0.1502781-0.3364015,0.0021477-0.4737067C17.4070168,5.41889,17.6012211,5.2904825,17.8186703,5.4951181z"/>
	<path fill="#21272A" d="M17.3678436,7.052525c-0.0672302,0.1695309-0.1830063,0.2894773-0.3864594,0.3199291
		C17.0576229,7.2121305,17.1475277,7.0657105,17.3678436,7.052525z"/>
	<path fill="#21272A" d="M17.9211273,7.0726147c-0.1869316-0.0047679-0.3738632-0.0095367-0.5608578-0.0143542
		C17.551302,6.9273305,17.7390041,6.9080997,17.9211273,7.0726147z"/>
	<path fill="#00E9FE" d="M9.8055182,10.1305332c-0.1604691,0.2983627-0.0646534,0.6217308-0.107543,0.9315538
		c-0.2516499,0.2198801-0.5347328,0.3857193-0.8877602,0.4245644c-0.5608473,0.0617132-1.0194287-0.2007313-1.1897998-0.6774349
		c-0.1845675-0.5164232-0.0251637-0.8885813,0.506846-1.1833258C8.568573,9.3813944,9.1574783,9.4570293,9.5210257,9.8107824
		C9.6236229,9.9106159,9.7111034,10.0235882,9.8055182,10.1305332z"/>
	<path fill="#00E9FE" d="M23.2733765,3.2829134c-0.5669518,0.0007029-0.977499-0.3338263-0.9743805-0.7939532
		c0.00313-0.4609344,0.4998474-0.9031843,0.9966125-0.887327c0.4853516,0.0154928,0.8307858,0.3842714,0.8321648,0.8884053
		C24.1292973,3.0466275,23.8754826,3.2821667,23.2733765,3.2829134z"/>
</g>
</svg>
