<?xml version="1.0" encoding="utf-8"?>
<!-- Generator: Adobe Illustrator 24.1.1, SVG Export Plug-In . SVG Version: 6.00 Build 0)  -->
<svg version="1.1" id="Слой_1" xmlns="http://www.w3.org/2000/svg" xmlns:xlink="http://www.w3.org/1999/xlink" x="0px" y="0px"
	 viewBox="0 0 32 13" enable-background="new 0 0 32 13" xml:space="preserve" width="32px" height="13px">
<g>
	<path fill="#212121" d="M20.1775417,11.6492186c-1.1169147,0.8711691-2.4271355,1.2876101-3.8619404,1.3038712
		c-2.4946775,0.0282726-4.9901571,0.015624-7.4850874-0.0036345c-1.4543824-0.0112257-2.4667449-0.783411-2.8114042-2.0910997
		c-0.1215272-0.4610901,0.0527897-0.893693,0.272181-1.2781334C7.3500462,7.724947,8.4646244,5.8981514,9.6416473,4.1049485
		c0.2496691-0.0689135,0.0600014-0.5497954,0.4887638-0.4510379c0.0911207,0.0852549,0.1020641,0.1888909,0.0800333,0.3000884
		c-0.0628071,0.1679902-0.175355,0.315165-0.2379351,0.4836073C9.8550968,4.6014738,9.7943182,4.7821627,9.7900591,4.9796314
		C9.7698193,5.1305051,9.7134523,5.2697396,9.6358614,5.4022722C9.5986166,5.468173,9.5583706,5.5326724,9.5229368,5.5994754
		C9.4535532,6.0440092,9.4353352,6.5101867,8.9496956,6.7789397c-0.040741,0.0321898-0.0868769,0.0560346-0.1372881,0.0719151
		c-0.3330898,0.0486541-0.4047461,0.3209987-0.533906,0.543623C8.1545534,7.6297402,7.9856119,7.8429909,7.8887472,8.091321
		C7.7658978,8.2903767,7.590888,8.4723988,7.6518908,8.730607C7.627492,8.9246407,7.709693,9.1023436,7.750762,9.2865543
		c-0.0402861,0.2893715-0.3505378,0.4286079-0.441112,0.690155c-0.266407,0.6530399,0.0153241,1.3366451,0.7293515,1.7665911
		c0.5456171,0.3285418,1.1812944,0.2333498,1.718564-0.2358513c0.1847639-0.1613569,0.2706947-0.452816,0.607131-0.4332342
		c0.2127228,0.3120031-0.0573692,0.4803648-0.2309418,0.6774435c-0.3732367,0.304018,0.1807537,0.0928898,0.1388531,0.2121134
		c0.5845585,0.1592741,1.2055712-0.0704355,1.782753,0.1480455c0.0491571,0.035388,0.0701675,0.0825977,0.0630856,0.1399403
		c-0.2855749,0.2616653-0.6481085,0.1261711-0.9774809,0.1596251c-0.1976213,0.020072-0.4003191-0.0206032-0.6487617,0.0401955
		c0.5091887,0.0014868,0.9652786,0.0033312,1.4212465-0.001564c0.1409187-0.0015144,0.3210821,0.0513887,0.366353-0.1562147
		c0.059392-0.1315098,0.138526-0.2505274,0.2442865-0.35394c0.0347738-0.0173817,0.0705061-0.021349,0.1077299-0.0161695
		c0.1732111,0.024106,0.0662775-0.0363092,0.0253372-0.0745239c-0.240118-0.2241287-0.7486057-0.2601051-0.6085949-0.7513552
		c0.1705608-0.1937275,0.3905134-0.3403702,0.5739746-0.5226622c0.5441236-0.5406618,0.5448198-0.6879272-0.0133934-1.2358017
		c-0.0790958-0.07763-0.165534-0.1484594-0.2453699-0.225688c-0.1339903-0.1288204-0.2445908-0.2705927-0.2864676-0.4499788
		c-0.0344315-0.1754704-0.1172285-0.3293848-0.2423086-0.4648857c-0.1611862-0.175415-0.241209-0.381103-0.2667694-0.6078439
		c-0.1450443-0.7136769-0.1717863-1.4268074,0.0032454-2.1394868c0.1708078-0.2620597,0.1857157-0.573669,0.3172054-0.8524122
		c0.4969244-1.0534229,1.3775702-1.7235518,2.4618158-2.203593c0.1081667-0.0573161,0.2201061-0.105705,0.3407021-0.1359951
		c1.2930965-0.1872256,2.5767269-0.3007178,3.7512341,0.4219847c0.8204918,0.5013177,1.4520664,1.147326,1.826088,2.0062127
		c0.0960426,0.2205544,0.1574802,0.4368014,0.1753407,0.6690946c0.0091209,0.1725092,0.1459751,0.3007751,0.1871166,0.462543
		c0.0616627,0.4375196,0.0637951,0.8749886,0.0017433,1.3123116c-0.1027374,0.2229409-0.2229233,0.4415021-0.2218227,0.6934762
		c-0.0093727,0.051228-0.0255299,0.1011629-0.045414,0.1496549c-0.263895,0.6831856-0.7078743,1.2624331-1.2110538,1.8068285
		c-0.0820065,0.1136065-0.0617218,0.2230635,0.0161934,0.329936c0.3587971,0.2846041,0.4713936,0.8298378,1.0640411,0.8612738
		c0.3687458-0.1651087,0.4976845-0.6503935,0.9937382-0.6437044c0.0341835,0.0406818,0.0570202,0.0859995,0.0676594,0.1367674
		C21.0960388,11.0014601,20.5407028,11.2467232,20.1775417,11.6492186z"/>
	<path fill="#222222" d="M21.2074165,10.4467535c-0.0002365-0.0363092-0.000473-0.0726175-0.0007095-0.1089277
		c-0.0976982-0.2385626,0.0880203-0.3937197,0.2028942-0.5627937c0.1897984-0.2793503,0.3936863-0.5500402,0.488266-0.8747997
		c0.0601082-0.1489697,0.1016369-0.3040819,0.1724663-0.4495163c0.4757404-1.5469823,0.9561577-3.0933867-0.2168674-4.5725651
		c-0.0092354-0.1507728,0.058157-0.2616172,0.2012749-0.3323627c0.443203-0.0315967,0.51091,0.3805201,0.7719402,0.5641172
		c0.3205242,0.1451454,0.6358032,0.0782771,0.9500408-0.0196061c0.4098606,0.0051026,0.0907879-0.3447046,0.2560349-0.4578593
		c0.2903442-0.2964208,0.6002789-0.5805953,0.7136211-0.9875765c0.0136013-0.144031,0.0102634-0.287627-0.0048466-0.4310889
		c-0.3565884-0.8407873-0.9143276-1.199319-1.8446999-1.1834111c-0.3845215,0.0304855-0.5376987,0.3574535-0.8014679,0.5422038
		c-0.061409,0.0497365-0.1294479,0.0877429-0.2103767,0.1025449c-0.0880966-0.0088284-0.1382484-0.0564082-0.1580048-0.1344703
		c-0.0104713-0.2110907,0.2404346-0.3391974,0.2045059-0.5585542c-0.0076332-0.1519479,0.0218868-0.3063438-0.0418015-0.4537365
		c-0.5468712-0.3084473-1.1447239-0.0844426-1.7150116-0.1405805c-0.1886349-0.0185691-0.4370327-0.0797929-0.5362911,0.1804622
		c-0.0553684,0.1116723-0.1384468,0.1976367-0.2619114,0.2458038c-0.1494198-0.0041621-0.2785549,0.0441295-0.3915997,0.1352242
		c-0.1622314,0.0613921-0.3173943,0.0197053-0.472765-0.0244747c-0.1862736-0.0521013-0.353447-0.139137-0.5122318-0.2411981
		c-0.1660671-0.1148298-0.3663845-0.0752811-0.5518131-0.1039257c-0.23279-0.0465919-0.4646244-0.0961886-0.7057686-0.0784782
		c-0.4196835-0.0010333-0.8388596,0.0005401-1.2579918,0.001045c-0.3275566-0.0372601-0.6376686,0.0770286-0.9587593,0.0971631
		c-0.1648674,0.0011076-0.3286114-0.0028581-0.4649162-0.107623c-0.0424223-0.2718382,0.2010059-0.2584846,0.3641129-0.2909963
		c0.3711214-0.073975,0.7496958-0.111981,1.1272097-0.1515159c2.7280397-0.0035409,5.4563303,0.0120746,8.1840143-0.0187558
		c1.3509064-0.0152691,2.8542824,1.7023785,2.0678425,3.2786288c-0.4194221,0.8406389-0.9290581,1.6366198-1.4634571,2.4183919
		c-0.7553253,1.1076717-1.4440708,2.2499299-2.0595703,3.4302702c-0.2084274,0.2983627-0.3450851,0.6354933-0.5677681,0.9250221
		C21.5863304,10.2475233,21.4881668,10.4611797,21.2074165,10.4467535z"/>
	<path fill="#292A29" d="M10.1242018,3.6809504c-0.3045645-0.000174-0.1922932,0.4100883-0.4825544,0.4239981
		c0.5475302-1.3270421,1.42945-2.3978691,2.7645111-3.1214888c0.0487394-0.0299841,0.0985909-0.0316785,0.1495523-0.0052522
		c0.0392933,0.2584476-0.2132835,0.307352-0.3618927,0.4244893c-0.6729622,0.5304449-1.3019018,1.0956184-1.7343616,1.822879
		c-0.0809889,0.1168439-0.1690378,0.2300141-0.2325201,0.357276C10.2011776,3.6231914,10.1670027,3.6560385,10.1242018,3.6809504z"
		/>
	<path fill="#3D3C3C" d="M22.2243538,9.1560535c0.5125923-1.1713104,1.2727642-2.2181816,1.9318085-3.3157811
		c0.0317974-0.0529585,0.1214657-0.0758557,0.1841869-0.112751c-0.3319073,0.7436633-0.8405113,1.3978176-1.2356758,2.1096539
		c-0.2720089,0.4899902-0.5602741,0.9721699-0.8412762,1.45784C22.2033253,9.2601337,22.1903057,9.2138138,22.2243538,9.1560535z"/>
	<path fill="#2B2D2D" d="M22.2243538,9.1560535c0.0130119,0.046319,0.0260258,0.0926371,0.0390396,0.138958
		c-0.4601479,0.9649782-1.1270885,1.7714396-2.0858517,2.354207c0.0558605-0.3387604,0.4389572-0.4110079,0.6165752-0.6537247
		c0.1349182-0.18437,0.3999062-0.2837696,0.4132957-0.5487471C21.7624683,10.1638069,21.8237514,9.544281,22.2243538,9.1560535z"/>
	<path fill="#434242" d="M12.5471907,1.0152712c-0.0470085-0.0106027-0.094017-0.0212052-0.1410284-0.0318096
		c0.9342575-0.6444969,1.9718313-0.9880132,3.1457872-0.9342048c-0.468112,0.250885-1.0746861,0.0570596-1.5118752,0.4072622
		c-0.130024,0.1532852-0.3448839,0.1440282-0.509244,0.2318533C13.1834822,0.746277,12.9360151,1.0657988,12.5471907,1.0152712z"/>
	<path fill="#241211" d="M16.8202972,9.1578989c-0.2424812-0.2179184-0.7019806,0.0433435-0.9507465-0.4002523
		c1.032011,0.1921511,1.9982452,0.4107752,2.7829666-0.3663836c0.0139389-0.0189409,0.0278778-0.0378819,0.041275-0.0572271
		c0.1551418-0.1155157,0.2886639-0.2463455,0.3491344-0.4292173c0.0440922-0.0906687,0.1005058-0.1740661,0.1613655-0.2553244
		c0.3360996-0.7933664,0.4552174-1.5753212-0.1303482-2.3226738c-0.2113647-0.1614518-0.4201164-0.3257437-0.6354275-0.4822717
		c-0.6446705-0.3841205-1.292532-0.3784213-1.9430428-0.0149717c-0.1432953,0.1066566-0.2924538,0.2066498-0.4186726,0.3317566
		c-0.5413723,0.7196369-0.4679756,1.1582499,0.308279,1.8296099c0.0546761,0.0452394,0.1007843,0.0973654,0.1352882,0.1562366
		c0.0866089,0.1356492,0.1983547,0.0111766,0.297945,0.0220494c0.2737713,0.0411949,0.5695038-0.0290275,0.8153305,0.1442609
		c-0.1260586,0.4369545-0.6140327,0.1858687-0.8614883,0.3930669c-0.2118034,0.0517306-0.4064445,0.0119414-0.5879803-0.0967908
		c-0.0187378-0.0207458-0.0371799-0.0418773-0.055624-0.0630097c0.1154556-0.1674805,0.0576382-0.2611814-0.107748-0.3910351
		c-0.5120192-0.4020119-0.7862539-0.9145222-0.5973854-1.5495558c0.195446-0.6571503,0.619648-1.1086559,1.3648567-1.2978153
		c1.6502934-0.4188993,2.9854107,0.5465207,3.0516453,2.1373978c0.0496082,1.1915326-0.5566483,1.9329185-1.5776443,2.5112047
		c-0.2464371,0.1395817-0.5503674-0.0180569-0.7494564,0.2006006C17.2820244,9.2395802,17.0511856,9.2392721,16.8202972,9.1578989z"
		/>
	<path fill="#212424" d="M8.8555498,6.7964611c0.4054728-0.3472538,0.4481916-0.8349748,0.5770731-1.2893314
		c0.2639074,0.3001633,0.1281414,0.6505561,0.1440687,0.9815965C9.5306301,6.7316527,9.422699,6.9717355,9.533289,7.2231889
		C9.6006794,7.5059328,9.5609465,7.804482,9.6807165,8.0793791c0.0372639,0.1207628,0.0808983,0.2394562,0.1440144,0.3511229
		c0.44415,0.6491566,0.9344912,1.2729912,1.2614431,1.9858809c-0.1482,0.2161512,0.2512016,0.3345604,0.1152515,0.5496874
		c-0.2912798,0.0563784-0.2950315,0.4571991-0.6333904,0.4573689c-0.037281-0.0379286-0.0643177-0.0810232-0.0803833-0.1301689
		c-0.0158033-0.1258278-0.0199747-0.2532902-0.0655975-0.3744488c-0.1350946-0.3707781-0.0408163-0.8081465-0.3781271-1.1197176
		c-0.1709309-0.2245903-0.4347687-0.374794-0.578023-0.6216002C9.4443245,8.8492374,9.1902981,8.7756128,8.9092598,8.7660589
		C8.5066099,8.7523737,8.0907269,8.7374153,7.8896642,9.1728392C7.8494797,9.2419176,7.8009977,9.2970715,7.7033029,9.2659492
		C7.5080199,9.1162586,7.4381967,8.942831,7.5857215,8.728281C7.5645771,8.492136,7.632472,8.3120337,7.9189448,8.2692938
		c0.3763957,0.2550449,0.8040261,0.0858936,1.2054191,0.108099c0.2570982,0.0142221,0.108716-0.196352,0.0972548-0.3173857
		C9.0597649,7.6485481,9.1982698,7.1624632,8.8555498,6.7964611z"/>
	<path fill="#231515" d="M10.1233244,9.6966009c0.4745293,0.2849016,0.2308874,0.8132086,0.4624395,1.1804619
		c-0.1019135,0.047431-0.004878,0.279994-0.2294273,0.2133055c-0.2326994,0.0882797-0.290494,0.320013-0.4431839,0.4752979
		c-0.7923346,0.8058033-1.9574647,0.6259708-2.5549803-0.2609615c-0.2967815-0.4405308-0.6046386-0.8923292-0.1204329-1.396594
		C7.3608251,9.9883451,7.397563,10.1150389,7.44384,10.236764c0.0642748,0.1906776,0.0348372,0.396944,0.1133857,0.5852585
		c0.0379829,0.0902061,0.079855,0.1787004,0.1324511,0.2625227c0.5204988,0.6536083,0.9691615,0.78195,1.5451198,0.4396915
		c0.6132908-0.3846951,0.6970329-0.947361,0.6097469-1.567811C9.8801498,9.8166952,10.0161161,9.7700462,10.1233244,9.6966009z"/>
	<path fill="#03E9ED" d="M13.3656712,5.6085563c-0.0775547-0.1517258-0.2270155-0.1055508-0.3520451-0.1012053
		c-0.3820581,0.0132813-0.3588648-0.2256651-0.3641453-0.4684834c-0.0053635-0.2466106,0.0454216-0.4285564,0.3668537-0.4159522
		c0.038249,0.0014997,0.0766411,0.0021801,0.1148882,0.0010271c1.5853891-0.047801,1.5852699-0.047833,1.5854473,1.4146323
		c0.0000887,0.7303648-0.0334206,1.4625793,0.0122099,2.1904893c0.0345526,0.5511827-0.3188095,0.4817963-0.6934137,0.4942532
		c-0.3850031,0.0128002-0.6103382-0.0351896-0.5852013-0.4834023c0.0408525-0.7284141,0.0168829-1.4602294,0.0095081-2.190515
		c-0.0015039-0.1489019,0.0867634-0.324091-0.0957413-0.4425616L13.3656712,5.6085563z"/>
	<path fill="#23100E" d="M14.8617401,6.6629128c-0.000021-0.5545993-0.0031834-1.1092272,0.0026035-1.663774
		c0.0011835-0.1132059-0.0517597-0.2857575,0.1468143-0.2917018c0.1228724-0.0036778,0.1835899,0.1219883,0.1838665,0.2362895
		c0.0028181,1.1627135,0.0030155,2.3254356,0.0008211,3.4881506c-0.0002165,0.1146202-0.0609751,0.2403507-0.1828146,0.2381144
		c-0.1994362-0.0036612-0.1476116-0.1763678-0.1487122-0.2896309C14.8587523,7.8079176,14.8617592,7.2354021,14.8617401,6.6629128z"
		/>
	<path fill="#241314" d="M10.1242018,3.6809504c0.001359-0.0346966,0.0027933-0.0693905,0.004302-0.1040816
		c0.0949793-0.0795467,0.1450949-0.1929684,0.2388144-0.2738831c0.6799297-1.0119686,1.4850674-1.8977479,2.7247448-2.3477538
		c0.0849085,0.0206769,0.1430511,0.070404,0.1795845,0.1433609c-0.0622292,0.3340361-0.4981441,0.3460155-0.6228027,0.6265547
		c-0.729269,0.595679-1.4005289,1.2418804-1.9766607,1.9704449c-0.1413317,0.1386957-0.1667795,0.3647113-0.3851862,0.4459329
		c-0.0902882-0.010046-0.1415329-0.0596347-0.1629248-0.1393647C10.1241159,3.8950906,10.1241589,3.7880206,10.1242018,3.6809504z"
		/>
	<path fill="#231819" d="M11.1652603,10.9798756c-0.0063276-0.1587496-0.0861158-0.2641497-0.2530079-0.3121681
		c-0.0847025-0.0243683-0.2157993-0.0493364-0.1261864-0.1612673c0.0416336-0.052,0.170825-0.043354,0.2603226-0.0622015
		c0.1524611-0.0253124,0.3003416-0.0082655,0.4451313,0.0407057c0.070241,0.0285578,0.131505,0.0696535,0.18855,0.1166735
		c0.1389179,0.1334724,0.2985802,0.2504978,0.3943672,0.4193659c0.0046864,0.0229673,0.0089207,0.0461006,0.0131559,0.0692339
		c-0.051199,0.301425,0.2261124,0.3788671,0.413125,0.50947c0.2204113,0.1539268,0.4926882,0.2634602,0.4912109,0.602293
		c-0.2593784,0.0544405-0.2648106-0.2542753-0.4614401-0.2454004c-0.0878162,0.0453644-0.1851702,0.039175-0.2805443,0.046175
		c-0.0493383,0.0029221-0.0977917-0.0016136-0.145998-0.0115013c-0.1898298-0.0688257-0.34659-0.1798534-0.4782429-0.3234596
		C11.4893389,11.4287033,11.111352,11.3288422,11.1652603,10.9798756z"/>
	<path fill="#241213" d="M14.3959885,2.5003028c-1.3375387,0.607765-2.2810793,1.5277195-2.6550484,2.8989816
		c-0.1845655-0.1644254-0.1444883-0.3769536-0.1451397-0.5808277c0.014267-0.2556782,0.1694317-0.4726882,0.2278214-0.7165103
		c0.1902628-0.4939377,0.5266647-0.8780484,1.0066347-1.1537519c0.4579058-0.1519446,0.7834339-0.5507724,1.2949467-0.6048493
		C14.2399712,2.3589463,14.3353777,2.4037955,14.3959885,2.5003028z"/>
	<path fill="#241213" d="M20.2838879,5.3991747c-0.0782871-0.8959055-0.6071339-1.5605321-1.2798061-2.1496418
		c-0.177248-0.1552289-0.4449863-0.2071419-0.568716-0.4253929c0.0569305-0.0678048,0.1357632-0.0979218,0.2233906-0.1135051
		c0.0856552-0.0130496,0.171627-0.0129175,0.2576332-0.0032768c0.6662369,0.2385111,1.0550766,0.7285738,1.3566113,1.2976015
		c0.0386295,0.1601081,0.08251,0.3190947,0.1699371,0.4644809c0.0235062,0.0414977,0.041914,0.0848718,0.0586491,0.1289949
		c0.0489597,0.1580853,0.1195374,0.3133492,0.0809193,0.4843841c-0.0345402,0.1176925-0.0687542,0.2356734-0.1588268,0.3304219
		C20.3734875,5.4399977,20.3266544,5.4367161,20.2838879,5.3991747z"/>
	<path fill="#02F0F3" d="M19.2528629,7.761209c-0.0464573,0.0578766-0.0929127,0.1157532-0.13937,0.1736298
		c-0.0683098,0.2273974-0.2533436,0.3542819-0.4602089,0.4623675c0,0-0.0007553-0.0059309-0.000761-0.0059366
		c-0.7125473,0.3547525-1.4595833,0.4921761-2.2514877,0.2852678c-0.2081871-0.0543947-0.4701099-0.0750074-0.486413-0.363781
		c0.0258007-0.014719,0.0516014-0.029438,0.0773363-0.0443859c0.0611591-0.0011559,0.1205826,0.0080166,0.1785145,0.0258484
		c0.6692238,0.2451916,1.3337097,0.2734232,1.9937763-0.0312195c0.6005535-0.2771749,0.9030743-0.7128868,0.9371662-1.3482594
		c0.0237293-0.442275-0.1815434-0.9209242,0.181778-1.325119C19.7284908,6.3190403,19.5970211,7.0414352,19.2528629,7.761209z"/>
	<path fill="#231415" d="M22.0152359,8.9431133c-0.1092243,0.5452976-0.5797501,0.9093933-0.8085251,1.3947239
		c-0.3075695,0.2508907-0.615139,0.501792-0.9227066,0.7526932c-0.0445728,0.0412149-0.0921688,0.0424347-0.1424026,0.0095234
		c-0.103344-0.2038145,0.0868568-0.3284979,0.1506557-0.4876137c0.4242458-0.5296459,0.8606949-1.0513964,1.2505512-1.6047087
		c0.0939236-0.0815811,0.1762066-0.1794806,0.3132935-0.2040281C21.9460468,8.8135509,21.9755573,8.8833466,22.0152359,8.9431133z"
		/>
	<path fill="#221D1D" d="M12.3187256,12.2692509c0.1002016,0.0701027,0.2004004,0.1402044,0.3946342,0.2760925
		c-0.9445925,0-1.7821131,0-2.6973619,0c0.3015499-0.383604,0.6850014-0.2495241,1.0123835-0.2695065
		c0.3618641-0.0220871,0.7258453-0.014163,1.0889044-0.019309C12.1881132,12.2103491,12.2550325,12.2177086,12.3187256,12.2692509z"
		/>
	<path fill="#260303" d="M20.3996506,5.3991966c0.0055103-0.1147733-0.0249252-0.2402091,0.1086788-0.316987
		c0.3481617,0.2230744,0.3359299,0.5823045,0.3645458,0.9080119c0.0528622,0.6017022,0.0281105,1.2035851-0.1508541,1.7913251
		c-0.0101357,0.0515871-0.0262299,0.1015429-0.0459881,0.1505699c-0.1276627,0.1799603-0.1441422,0.4887943-0.5155106,0.3899603
		c-0.0630989-0.1474762,0.0605297-0.2370138,0.1241074-0.3452158c0.0012379-0.0350175,0.0013161-0.0700364,0.0002308-0.1050582
		c0.1094952-0.2052836,0.0176716-0.4721222,0.2284546-0.6464381c-0.0000172-0.5012836-0.0000324-1.0025673-0.0000477-1.5038514
		C20.4304638,5.6277771,20.4043159,5.5167627,20.3996506,5.3991966z"/>
	<path fill="#270202" d="M11.7413673,4.756865c-0.0001392,0.2141433-0.0002775,0.4282866-0.0004215,0.6424246
		c-0.2086544,0.7518449-0.1631823,1.5037985-0.0010662,2.2557993c-0.0956068,0.0534444-0.0091562,0.287569-0.2390709,0.2081332
		c-0.4588108-0.9782338-0.338644-1.9599442-0.013505-2.9404106C11.520421,4.8229437,11.5982275,4.7344694,11.7413673,4.756865z"/>
	<path fill="#231719" d="M12.436368,9.0495834c1.0508528,0.7872953,0.9275703,1.5086117-0.348774,2.040637
		c-0.000001-0.0000029,0.0002871,0.0003185,0.0002871,0.0003185c-0.1058311-0.1108952-0.0568314-0.2159929,0.0127554-0.3207026
		c0.0277481-0.0383358,0.0598602-0.0736895,0.0939569-0.107255c0.1406984-0.1246538,0.2720995-0.2570257,0.3771563-0.4103518
		c0.0276175-0.0370226,0.0591612-0.071106,0.0919867-0.1037655c0.1259842-0.1174994,0.1840229-0.2421713,0.0480986-0.3879976
		c-0.1169243-0.1411457-0.266468-0.2543087-0.3852291-0.3936424c-0.0130272-0.0192823-0.0251207-0.0389757-0.0379248-0.0585175
		c-0.0180559-0.0435486-0.0220566-0.0884314-0.0148306-0.13447C12.3049498,9.1064091,12.3571911,9.062706,12.436368,9.0495834z"/>
	<path fill="#260404" d="M18.6748314,2.8219287c-0.079813,0.0007265-0.1596241,0.0014536-0.2394505,0.0021958
		c-1.0759354-0.6687596-2.2697124-0.598685-3.4711609-0.4779117c-0.1128464,0.0113437-0.2246037,0.0320683-0.3368673,0.0484369
		c-0.0394287-0.0505886-0.0424976-0.10302-0.0095243-0.1575089c0.2306318-0.2298291,0.5336418-0.2453282,0.8417826-0.2467139
		c0.4137497,0.068717,0.8274622,0.0660186,1.2411966-0.0037611c0.5487518,0.0116143,1.0531616,0.1851957,1.5405579,0.3946741
		C18.4361706,2.465064,18.6806297,2.5486276,18.6748314,2.8219287z"/>
	<path fill="#250907" d="M13.2435036,5.9371228c0.1673393,0.9005785,0.1207991,1.7977724,0.0633898,2.6947942
		c-0.0594988-0.0001316-0.1189957-0.0002632-0.1784945-0.0003967c0-0.8984814,0-1.7969637,0-2.6954455
		C13.1671152,5.9034204,13.2054834,5.9037685,13.2435036,5.9371228z"/>
	<path fill="#231819" d="M20.2846298,7.976861c-0.0387592,0.1079111-0.0775166,0.2158232-0.116272,0.3237352
		c0.1346741,0.0700073,0.2257671,0.1665812,0.2258911,0.3190565c-0.0171642,0.3159094-0.1947823,0.5437336-0.459919,0.7234917
		c-0.2863293,0.1359653-0.4379883,0.4486828-0.7772465,0.5163765c-0.0556049-0.003561-0.1033134-0.0240889-0.1441689-0.0590181
		C19.4647465,9.2094717,19.9355907,8.6299095,20.2846298,7.976861z"/>
	<path fill="#03E7EC" d="M12.0870657,12.1648407c-0.506156-0.0043402-1.0123186-0.0080099-1.5184622-0.0133934
		c-0.1739883-0.0018501-0.3972321,0.0832911-0.422081-0.1969013c0.0314159-0.2066851,0.168992-0.3162622,0.3791895-0.3593111
		c0.0546665,0.0098848,0.0939445,0.0386925,0.1176367,0.0847578c0.0186615,0.0476599,0.0401087,0.1254425,0.0864725,0.1231222
		c0.4971457-0.024888,0.9786777,0.0988617,1.4698792,0.12498c-0.0203152-0.017417-0.0217314-0.0360756-0.0042486-0.055975
		c0.1107149,0.0419827,0.1999712,0.1115789,0.1549826,0.2281933C12.3055162,12.2167482,12.2010145,12.2345228,12.0870657,12.1648407
		z"/>
	<path fill="#03E6E9" d="M8.8555498,6.7964611c0.1447105-0.0416913,0.3230247-0.2023616,0.3501167,0.1103668
		c0.0336647,0.3885899,0.086791,0.7757211,0.1315117,1.1634827C9.3146029,8.0825653,9.2920265,8.09482,9.2694941,8.1072197
		c-0.3253193-0.1273041-0.2915211-0.403573-0.317359-0.6568394C8.9429407,7.3602548,8.9367723,7.3607998,8.7343645,7.4608445
		C8.6776228,7.4717746,8.6284523,7.4587221,8.584403,7.4251699C8.517416,7.3334031,8.5087881,7.2320147,8.5242329,7.1261997
		c0.0308065-0.133821,0.0951767-0.24471,0.2405643-0.2989159C8.8023701,6.8356633,8.8326216,6.8253889,8.8555498,6.7964611z"/>
	<path fill="#231415" d="M20.1674404,11.0899477c0.0388527,0.0001936,0.0777035,0.0003853,0.11656,0.0005808
		c-0.3780384,0.2559853-0.4885674-0.1444798-0.6663818-0.274374c-0.2449398-0.1789293-0.4061241-0.4570522-0.6031876-0.6926842
		c0.0395985-0.0545597,0.0639038-0.1230335,0.1460304-0.1391392c0.1507301,0.0184269,0.2566528,0.1237764,0.3916702,0.1737204
		c0.1140213,0.0584564,0.1971302,0.143549,0.2533684,0.2520399C19.9184074,10.6401825,20.1157284,10.8316793,20.1674404,11.0899477z
		"/>
	<path fill="#250808" d="M7.3480425,10.2263432c-0.1335306-0.077055-0.1029148-0.2033215-0.1102834-0.3182182
		C7.2501383,9.6045103,7.5954156,9.5096769,7.70328,9.2659426C7.7415094,9.230298,7.779716,9.1946459,7.8179231,9.1589937
		c0.0869493-0.0872993,0.1976981-0.1170254,0.3214965-0.1159124c0.0889912,0.00422,0.1712666,0.0272474,0.2426033,0.0784216
		C8.4635773,9.248106,8.3632317,9.3051577,8.2744694,9.3668442C8.0076542,9.5040216,7.7921033,9.6923523,7.6318426,9.9345379
		c-0.0290618,0.063838-0.060678,0.1263962-0.0987992,0.1861515C7.4873013,10.1799364,7.4286518,10.2199373,7.3480425,10.2263432z"/>
	<path fill="#231516" d="M15.9146223,8.3127565c-0.1779432,0.0036278-0.0961113,0.3829422-0.3490372,0.2331619
		c-0.2281876-0.135129-0.0376892-0.2917185,0.0681257-0.3953619c0.1897774-0.1858773,0.1617126-0.5240526,0.4948349-0.6037951
		c0.0000057-0.0000048-0.0010414-0.0002589-0.0010414-0.0002589c0.0889759,0.0842886,0.1075172,0.1856689,0.0844574,0.2974854
		c-0.0442181,0.1882272-0.1776638,0.327785-0.3002729,0.4733138L15.9146223,8.3127565z"/>
	<path fill="#240C0B" d="M14.6622934,8.9388475c-0.369915,0.1387053-0.7400541,0.1452723-1.11024,0.0080805
		C13.9166422,8.7953243,14.2886143,8.8299026,14.6622934,8.9388475z"/>
	<path fill="#260503" d="M10.124073,4.0021605c0.0382509,0.0359344,0.0765038,0.0718689,0.1147556,0.1078038
		c0.0663147,0.4107275-0.0652189,0.7693849-0.3321905,1.0925536c-0.1866179,0.0166678-0.1800785-0.1055541-0.183322-0.2207456
		C9.6979704,4.7765799,9.7550554,4.5936766,9.8954096,4.4333897C9.883502,4.2492166,9.9174547,4.0860829,10.124073,4.0021605z"/>
	<path fill="#250807" d="M7.8130317,8.0829115c-0.0349774-0.3131366,0.263947-0.4894872,0.3555017-0.7507877
		C8.290946,7.2864265,8.3654652,7.346242,8.4277754,7.433661c0.0336647,0.1285119-0.0242167,0.2392101-0.0779753,0.3510542
		C8.276226,7.9147344,8.2025652,8.0449858,8.0804996,8.1439438C7.9771791,8.1783657,7.8448181,8.319396,7.8130317,8.0829115z"/>
	<path fill="#231414" d="M10.5636158,11.6085396c-0.1390419,0.1153345-0.2780848,0.230669-0.4171095,0.3460054
		c-0.1536322,0.0084715-0.2206812,0.2003832-0.4346895,0.1556959c-0.0184269-0.2054806,0.14223-0.2891073,0.2982931-0.3754416
		c0.2514219-0.0712881,0.30474-0.3673258,0.5638008-0.4299479c0.0078878,0.042572,0.0157766,0.085144,0.0236635,0.1277161
		C10.6460905,11.501215,10.6415482,11.5610046,10.5636158,11.6085396z"/>
	<ellipse fill="#250603" cx="13.7035265" cy="4.3793521" rx="1.2920351" ry="0.0347018"/>
	<path fill="#221B1D" d="M12.3179684,9.1597576c-0.0133057,0.0432434-0.0266132,0.0864849-0.0399189,0.1297283
		c-0.3850622-0.0652952-0.4658451-0.3517351-0.5414181-0.6427708C11.7260075,8.5392008,11.735404,8.4338398,11.7793121,8.33253
		c0.0404587-0.0752764,0.1026344-0.1252794,0.1933832-0.1412287c0.149498,0.1100368,0.2127666,0.2598095,0.2295685,0.4309959
		C11.968214,8.8522263,12.4424076,8.9502439,12.3179684,9.1597576z"/>
	<path fill="#270000" d="M8.38585,7.4375415c-0.0724802-0.0351424-0.1449604-0.0702844-0.2173786-0.105422
		c0.1869402-0.1804104,0.093709-0.6470509,0.5963249-0.5048366c0.0377007,0.1297917-0.0759735,0.199028-0.1342812,0.2904129
		C8.5213013,7.2060061,8.5883703,7.4109812,8.38585,7.4375415z"/>
	<path fill="#250A0A" d="M10.5739107,11.3048515c-0.1993904,0.1303205-0.206171,0.4791632-0.5638056,0.4299469
		c0.1133842-0.2157507,0.4086456-0.3469629,0.3462296-0.6444292c0.0764866-0.0711164,0.1529713-0.142231,0.2294426-0.2133255
		C10.5818119,11.019659,10.5778608,11.1622553,10.5739107,11.3048515z"/>
	<path fill="#270202" d="M13.2435036,5.9371228c-0.0383806-0.0004187-0.0767641-0.0007639-0.1151276-0.0010419
		c-0.0815229-0.1430206-0.281436-0.0709357-0.3975582-0.1714334c0.1760988-0.2292356,0.4311752-0.0985765,0.6348486-0.1560798
		c0.0000048-0.0000114-0.0016594-0.0017185-0.001647-0.0017242C13.337121,5.7211213,13.3726816,5.8551273,13.2435036,5.9371228z"/>
	<path fill="#231615" d="M7.8130317,8.0829115c0.0776138,0.1213493,0.1565175,0.0108232,0.2348609,0.0011311
		c0.0686512,0.1113539,0.0697317,0.197566-0.0954385,0.2219229C7.715261,8.3603764,7.6866221,8.5714731,7.5857215,8.7282801
		C7.3462653,8.4171,7.6057796,8.2579689,7.8130317,8.0829115z"/>
	<path fill="#211E20" d="M9.4338999,6.5823612c-0.0004253-0.3584104-0.0008507-0.7168221-0.001276-1.0752325
		C9.4708376,5.4712763,9.5090523,5.4354229,9.547267,5.3995705C9.5994205,5.4399796,9.6366768,5.4899898,9.659893,5.5492911
		c0.0503654,0.3350844,0.1003819,0.6705055-0.0540447,0.9963021C9.5595188,6.60179,9.5020819,6.613977,9.4338999,6.5823612z"/>
	<path fill="#147379" d="M12.0870657,12.1648407c0.198595-0.0453243,0.2973289-0.1226606,0.1083384-0.2924862
		c0.1494522-0.1015415,0.2190914,0.0713644,0.3351974,0.0841837c0.0606365,0.1812267,0.0070314,0.2954102-0.2118778,0.3127289
		c-0.0672855-0.0041771-0.1345739-0.0083389-0.2016506-0.01262C12.0976439,12.2286949,12.0875702,12.1981325,12.0870657,12.1648407z
		"/>
	<path fill="#260100" d="M12.3179684,9.1597586c-0.0978785-0.1480875-0.223527-0.2866697-0.286788-0.4466019
		c-0.084075-0.212553,0.0817518-0.1094103,0.171093-0.0908747c-0.0151234,0.1865807,0.164155,0.2810287,0.2340651,0.427309
		C12.3969021,9.0863085,12.3574362,9.1230335,12.3179684,9.1597586z"/>
	<path fill="#270202" d="M11.9726954,8.1913013c-0.0390291,0.0373783-0.0780582,0.0747566-0.1170874,0.112134
		c-0.1926546,0.0351305-0.2329769-0.1045351-0.2940283-0.2209787c-0.0167513-0.0815763-0.0048723-0.1559849,0.0649776-0.2151003
		c0.0018463-0.0873647,0.0215979-0.1664586,0.1133394-0.2122779C11.6998062,7.8780313,11.8644419,8.0240774,11.9726954,8.1913013z"
		/>
	<path fill="#231313" d="M9.5502787,5.5085907C9.5492821,5.4722519,9.5482855,5.4359131,9.5472775,5.3995719
		c0.0390253-0.1428542,0.0780611-0.2857065,0.1170988-0.4285588C9.70119,4.9221721,9.7388334,4.9216113,9.7773066,4.9693341
		c0.0035381,0.084981,0.0184355,0.1648517,0.1094503,0.2104774C9.9838915,5.2791505,9.948741,5.368329,9.8628578,5.4540629
		C9.7675724,5.5158381,9.6699848,5.5676289,9.5502787,5.5085907z"/>
	<path fill="#260403" d="M12.3985891,5.3825326c-0.0972891-0.2101712-0.1022673-0.4125319,0-0.6161213
		C12.3985891,4.9717846,12.3985891,5.1771588,12.3985891,5.3825326z"/>
	<path fill="#211F20" d="M20.5133152,7.2253647c-0.0749016,0.2158465-0.0638924,0.4579649-0.2284679,0.6464114
		C20.3047123,7.6391101,20.193737,7.366416,20.5133152,7.2253647z"/>
	<path fill="#231616" d="M16.8202972,9.1578989c0.2308445-0.0001135,0.4616852-0.0002279,0.692524-0.0003443
		C17.2820721,9.3205452,17.0512314,9.319397,16.8202972,9.1578989z"/>
	<path fill="#231B1C" d="M9.7773066,4.9693341C9.7396584,4.9699955,9.7020073,4.9705486,9.6643658,4.9710035
		c0.0004864-0.2076468-0.0392561-0.4302549,0.2310333-0.5376124C9.8560419,4.6120381,9.8166742,4.7906857,9.7773066,4.9693341z"/>
	<path fill="#260404" d="M14.6272821,2.2866609c0.0000248,0.0359852,0.0000477,0.0719705,0.0000706,0.1079724
		c-0.0771179,0.0352373-0.1542358,0.0704584-0.2313595,0.1056745c-0.0900679-0.0018044-0.1746912-0.014364-0.2235088-0.097754
		C14.2722263,2.1878572,14.4251184,2.1536186,14.6272821,2.2866609z"/>
	<path fill="#211F20" d="M20.3996506,5.3991966c0.1332664,0.0783467,0.1125793,0.2036552,0.1136303,0.3223219
		c-0.152813-0.0604463-0.2295856-0.167696-0.2293968-0.3223372C20.3224754,5.3991823,20.361063,5.3991895,20.3996506,5.3991966z"/>
	<path fill="#250B0B" d="M19.130291,10.0160275c-0.0386257,0.03582-0.0772495,0.07164-0.1158657,0.1074514
		c-0.0336571-0.1075201-0.1815853-0.2145739-0.0014992-0.322958c0.0393391,0.0003443,0.0786896,0.0007067,0.1180382,0.00107
		C19.20014,9.8732576,19.2004929,9.9447393,19.130291,10.0160275z"/>
	<path fill="#231212" d="M21.9037189,3.7878551c0.497509,0.5609136,0.9135494,1.1927056,0.8340912,1.9248915
		c-0.0742779,0.6844115-0.0228996,1.399292-0.2908039,2.0499229c-0.1022358,0.2482872,0.0653439,0.6079788-0.3149643,0.75214
		c-0.0827999-0.0608149-0.1177807-0.1449413-0.1352062-0.2377243c-0.006876-0.5721354,0.218874-1.1119227,0.2281151-1.6926794
		c0.0143261-0.9003134-0.1918755-1.7335463-0.5689812-2.5454931c-0.0526848-0.219013-0.2127209-0.4110096-0.1941891-0.6487124
		c0.0097828-0.0563362,0.0354652-0.1059716,0.0761375-0.1487715C21.9066639,3.2804668,21.9064426,3.5334363,21.9037189,3.7878551z"
		/>
	<path fill="#240D0D" d="M21.555727,3.2500839c-0.000864,0.0369372-0.0017242,0.0738747-0.0025883,0.1108119
		c-0.062458,0.0588422-0.1372757,0.0696175-0.2202587,0.049412c-0.1015816-0.0418222-0.1628742-0.1193237-0.2123566-0.2070925
		c-0.0636177-0.149904-0.1564293-0.2829158-0.2767925-0.400038c-0.0337219-0.0359118-0.0628605-0.0743496-0.0909824-0.1141109
		c-0.1227875-0.1984234-0.2932529-0.3447165-0.5263004-0.4237521c-0.1722679-0.0755579-0.2968464-0.2000406-0.4047718-0.3417027
		c-0.2254887-0.2956357-0.5704937-0.4399241-0.8925171-0.6145779c-0.1890297-0.1025211-0.428627-0.1446601-0.5253067-0.3638596
		c-0.0043488-0.0948537,0.087862-0.113121,0.1454449-0.1588885c0.1463642,0.067389,0.2962532,0.1213493,0.4644737,0.1054749
		c0.1226826,0.0006889,0.2413902,0.0457152,0.3658791,0.0268679c0.0755157-0.0060129,0.149725-0.0004466,0.2226353,0.0187111
		c0.1614361,0.060966,0.3204765,0.1276999,0.485384,0.1815557c0.0467281,0.0193504,0.0891705,0.0448302,0.1281261,0.0755321
		c0.135807,0.1893842,0.370163,0.3272209,0.3623524,0.5923198c-0.1480236,0.1692775,0.0987225,0.1603261,0.131773,0.2477434
		c0.1609726,0.1491344,0.3243065,0.2957213,0.4869118,0.4435711C21.3509903,2.7214608,21.7151089,2.8810141,21.555727,3.2500839z"/>
	<path fill="#231515" d="M22.716095,4.2127194c-0.2101307-0.2009497-0.2915611-0.5042002-0.5861683-0.638
		c-0.3148785-0.0961125-0.4197788-0.352375-0.5322227-0.6032634c-0.0052032-0.0500622,0.0003891-0.0989611,0.0173931-0.1468196
		c0.0388432-0.0687201,0.0968685-0.1168098,0.176712-0.1411471c0.1532803,0.0016944,0.2206268,0.1130509,0.3036461,0.2049272
		c0.1180687,0.1514859,0.2238407,0.312077,0.3736076,0.4408245c0.4182987,0.4596074,0.9347744,0.3292837,1.4496498,0.2097297
		c0.0852146,0.0199523,0.1461315,0.0655007,0.1753159,0.1442506c0.1522579,0.2669704,0.1075344,0.4573398-0.2384739,0.5305448
		C23.475769,4.180141,23.0958881,4.2386193,22.716095,4.2127194z"/>
	<path fill="#231213" d="M19.5913792,0.5662621c-0.0541363-0.0992933-0.3096409-0.2703073-0.0077591-0.2867632
		c0.7788582-0.0424558,1.5627956-0.0223573,2.3437729,0.0004031c0.182209,0.0053101,0.1409245,0.1742564,0.0865135,0.2962687
		c-0.0740891,0.0781305-0.1719875,0.1101656-0.278635,0.1255085c-0.6230736,0.0222121-1.2464314,0.0260085-1.8700733-0.0007907
		C19.75774,0.6844223,19.661005,0.6490318,19.5913792,0.5662621z"/>
	<path fill="#250706" d="M24.0940285,3.6832213c-0.0378742-0.0343938-0.0757465-0.0687873-0.1136208-0.1031811
		c0.0040188-0.0238636,0.0080338-0.0477273,0.0115738-0.0717461c0.0876617-0.174978,0.2631721-0.2936065,0.3471565-0.4708741
		c0.2257233-0.3492663,0.2390862-0.711678,0.0785084-1.0846791c-0.1459579-0.2901546-0.3832893-0.4950625-0.6863842-0.6388166
		c-0.2843513-0.1262429-0.6040878-0.0264452-0.8930721-0.1217301c-0.1863289-0.0933975-0.1858444-0.1941209-0.0133934-0.3011213
		c1.0933189-0.0011822,1.6502457,0.3447916,2.0743046,1.2885993c-0.0914211,0.178077-0.0907307,0.3562226-0.0004578,0.5344343
		C24.7089043,3.093508,24.4981728,3.4578295,24.0940285,3.6832213z"/>
	<path fill="#04E2E5" d="M23.2886925,5.9394374c-0.0184517,0.1293259-0.0693092,0.2714043-0.2156563,0.273778
		c-0.2025433,0.0032859-0.1419621-0.1766763-0.1431026-0.2836175c-0.0043812-0.410583-0.0917263-0.806313-0.2177238-1.1964545
		c-0.0631485-0.1955295-0.088007-0.373138,0.2272396-0.3209219c0.4085598,0.0676708,0.7890797,0.0089169,1.1630287-0.1516147
		c0.15271-0.065557,0.1998367,0.0278969,0.1802387,0.1597147c0.0358505,0.0895805,0.0181389,0.1741266-0.0268574,0.2564354
		c-0.062439,0.0947628-0.1370068,0.1824164-0.1919365,0.2820883c-0.1511383,0.2089305-0.2118244,0.4893012-0.5213737,0.5734944
		c-0.0486488-0.0233173-0.0819206-0.0592513-0.1025543-0.1060753c-0.0640926-0.2986822,0.2050762-0.4763432,0.3067532-0.7742586
		c-0.1606312,0.0511556-0.309515,0.0969782-0.462965,0.1015921c-0.1370716,0.0041213-0.2312374,0.0627804-0.1781483,0.1942267
		c0.1222343,0.3026528,0.0232048,0.6317329,0.1460419,0.9314566C23.2648296,5.8989525,23.276762,5.9191952,23.2886925,5.9394374z"/>
	<path fill="#212121" d="M21.6681824,2.9303679c0.1539192,0.2147806,0.3078384,0.4295609,0.46175,0.6443455
		c-0.0754375,0.0710657-0.1508694,0.1421261-0.2262573,0.2131641c-0.1159687-0.1792655-0.2319832-0.3585081-0.3479729-0.5377724
		c-0.0581837-0.3016729-0.3229218-0.4922945-0.4652119-0.7487435c-0.038332-0.147675-0.0698223-0.2992618-0.2453327-0.368778
		c-0.1016674-0.0822728-0.1791859-0.1751888-0.1616726-0.3102111c0.0144463-0.0475589,0.0469589-0.0815119,0.0940437-0.103652
		c0.1198711-0.0160793,0.2373772,0.0539391,0.3588943,0.0087709c0.0470905-0.0157936,0.0952129-0.0217932,0.1451836-0.0199651
		c0.0497398,0.015077,0.0898876,0.0419745,0.1221046,0.08003c0.0473461,0.0590569,0.0815392,0.1256047,0.1286488,0.1851159
		C21.7993603,2.264888,21.6240673,2.6109202,21.6681824,2.9303679z"/>
	<path fill="#166A6E" d="M19.5913792,0.5662619c0.0720654,0.0031572,0.1441307,0.0063143,0.2161961,0.0094715
		c0.663065,0.0775664,1.3260746,0.0791845,1.989027-0.0012228c0.0724373,0.0005168,0.1448765,0.0010336,0.21731,0.0016052
		c0.1065998,0.1395207,0.0214291,0.2714716-0.0183563,0.405201c-0.0588741,0.0691334-0.1344929,0.0727353-0.2173138,0.0488503
		c-0.6806469-0.1835504-1.3629913-0.1649762-2.0463486-0.0132349c-0.0483303,0.0254836-0.0951385,0.0243212-0.1400967-0.0068985
		c-0.0734196-0.0113266-0.1468391-0.0226533-0.2202587-0.0339798c-0.0679932-0.0612014-0.0824528-0.12509-0.0112152-0.1932809
		C19.4373417,0.7106027,19.5143604,0.6384324,19.5913792,0.5662619z"/>
	<path fill="#221B1C" d="M23.5327892,5.5200629c0.1508427-0.2189908,0.3016853-0.4379807,0.4525299-0.6569705
		c0.1573849-0.0906229,0.1533947,0.2681351,0.336937,0.1046815c-0.1564922,0.3993607-0.3653889,0.7697163-0.6888161,1.0766802
		c-0.1153831-0.0522461-0.1844082-0.1510038-0.27038-0.2331567C23.350399,5.679194,23.3988304,5.5780239,23.5327892,5.5200629z"/>
	<path fill="#260504" d="M18.5492973,0.7862859c-0.0375023,0.0345706-0.0750065,0.0691408-0.1125107,0.1037108
		c-0.0487576,0.041882-0.1054535,0.0698243-0.1699467,0.0843647c-0.6285152-0.0799391-1.225008-0.3356298-1.8791389-0.2879115
		c-0.1259823,0.0091902-0.2592926-0.0541126-0.2839146-0.2060938c0.2115898-0.1752665,0.4996567,0.0224919,0.7166138-0.1268661
		c0.2443237-0.0404457,0.4610443,0.0721809,0.6916332,0.1079106c0.1715527,0.1314696,0.4055214-0.0218093,0.5771217,0.1094449
		C18.2068405,0.7086198,18.368927,0.764347,18.5492973,0.7862859z"/>
	<path fill="#241012" d="M21.8002701,1.0078013c0.0651569-0.0087558,0.130312-0.0175116,0.1953773-0.0263759
		c0.2933216,0.3045635-0.2094421,0.3458696-0.2114944,0.5528051c-0.104372,0.1827101,0.0000401,0.5576737-0.4496174,0.4224371
		c-0.0095787-0.0788004-0.0191612-0.157601-0.0287437-0.2364016C21.2263126,1.3360838,21.4341564,1.1244252,21.8002701,1.0078013z"
		/>
	<path fill="#260404" d="M14.5134001,0.4612362c0.3115673-0.004571,0.602025-0.1650307,0.9219322-0.1080103
		c0.0834169,0.1270895,0.3345022-0.0428183,0.3649111,0.1783727c-0.4046965,0.2957809-0.9022713,0.1876354-1.356123,0.2710221
		c-0.127038-0.0195396-0.2458467-0.0521057-0.3016672-0.1766887C14.1933908,0.4297878,14.4228764,0.5806659,14.5134001,0.4612362z"
		/>
	<path fill="#221B1B" d="M22.8247967,0.8910729c-0.0126648,0.0719565-0.1315117,0.1431913-0.0016975,0.2161162
		c0.0552349,0.2069041-0.1819077,0.2576721-0.245842,0.4014258c-0.1140404,0.130239-0.2153072,0.2788404-0.4303322,0.2693609
		c-0.1067238-0.0535877-0.1266327-0.1475055-0.1327724-0.2477961C22.2470417,1.2761832,22.4283714,0.965608,22.8247967,0.8910729z"
		/>
	<path fill="#221B1B" d="M21.3345356,1.9566675c0.2977505-0.0046412,0.2516823-0.325884,0.4496193-0.4224364
		c0.0378819,0.0356184,0.0757637,0.0712383,0.1136456,0.1068583c-0.0008373,0.4064434-0.0379162,0.8068137-0.2288017,1.1814139
		C21.6687317,2.858458,21.6684647,2.894412,21.66819,2.9303672C21.3940048,2.6541121,21.7459431,2.192241,21.3345356,1.9566675z"/>
	<path fill="#260403" d="M21.6689987,2.8225033c-0.0146599-0.4090405-0.0395985-0.819804,0.2288246-1.1814064
		c0.0387669-0.0369421,0.0775585-0.0738772,0.1163387-0.1108646c0.0934677,0.0458138,0.1080265,0.1285052,0.1156712,0.2144241
		c0.0154705,0.1046571-0.0189781,0.1989336-0.0682335,0.2903062c-0.1815357,0.1951232-0.0670643,0.4948285-0.2760963,0.6802716
		C21.7466698,2.7509902,21.7078342,2.7867465,21.6689987,2.8225033z"/>
	<path fill="#240B0A" d="M22.716095,4.2127194c0.3800621-0.1635108,0.7599392-0.1648712,1.1395416,0.0010877
		C23.4756298,4.3130736,23.0957031,4.4114199,22.716095,4.2127194z"/>
	<path fill="#24100F" d="M24.193964,4.608624c-0.0089397-0.0785122-0.000103-0.1497645,0.0888138-0.1882977
		c0.1120758-0.0432677,0.2242107-0.0865302,0.3703442-0.1429086c0.0167694,0.2829971-0.1934261,0.4166269-0.3295956,0.5851693
		C24.2020836,4.8124728,24.1276646,4.7416029,24.193964,4.608624z"/>
	<path fill="#232121" d="M14.5134001,0.4612362c-0.0853739,0.1229559-0.2219324,0.1007337-0.3486738,0.1063572
		c-0.1151457,0.225504-0.3173151,0.2423906-0.5456553,0.1974921c-0.0884066-0.0348789-0.1595373-0.0817453-0.1435337-0.1864081
		c0.1702404-0.1127764,0.3660841-0.1230704,0.5646429-0.1221144C14.1978493,0.4580915,14.3556252,0.4596639,14.5134001,0.4612362z"
		/>
	<path fill="#221B1B" d="M19.360323,0.7827731c0.0036793,0.0645098,0.0073586,0.1290197,0.0111275,0.1934052
		c-0.1887474,0.2271436-0.2643147,0.0386782-0.3576794-0.0844374c0.0143089-0.0953147-0.0392456-0.2257075,0.0925083-0.2673278
		C19.2378445,0.5828524,19.2578945,0.7516207,19.360323,0.7827731z"/>
	<path fill="#260402" d="M15.7868261,0.4627894c-0.127984-0.0064898-0.2668829,0.0173153-0.3514938-0.1095633
		c0.4616909,0.0000861,0.9233809,0.0001725,1.3850698,0.0002614c-0.2037468,0.1949537-0.4652786,0.070512-0.6973038,0.1091577
		C16.0110512,0.5513575,15.8989611,0.5513826,15.7868261,0.4627894z"/>
	<path fill="#260603" d="M22.1304283,8.2963495c0.0005264,0.0728102,0.0010529,0.1456194,0.0015965,0.2184448
		c0.0164814,0.1558533-0.0365696,0.295289-0.1167889,0.4283171c-0.0383224-0.0357418-0.076643-0.0714865-0.1149654-0.1072302
		C21.7857933,8.5854721,21.805336,8.3845253,22.1304283,8.2963495z"/>
	<path fill="#260000" d="M24.193964,4.608624c0.0431881,0.0846567,0.08638,0.1693125,0.1295662,0.2539659
		c-0.0009499,0.0350718-0.0013638,0.0701518-0.0012569,0.1052108c-0.1705475,0.1271939-0.23769-0.0334802-0.3369541-0.1047077
		C23.9903202,4.7324815,24.0868759,4.6668181,24.193964,4.608624z"/>
	<path fill="#260000" d="M23.4025536,5.8296094c0.1517601,0.0020628,0.2262726,0.0759339,0.2308598,0.2148385
		c-0.2205296,0.1753244-0.2016792-0.0347104-0.2510433-0.134943l-0.018486-0.0461936L23.4025536,5.8296094z"/>
	<path fill="#221A1A" d="M18.0891552,0.5708455c-0.1936893-0.0304485-0.4153576,0.0667118-0.5771122-0.109453
		C17.7068043,0.4869484,17.9292889,0.3860528,18.0891552,0.5708455z"/>
	<path fill="#04E2E5" d="M23.4025536,5.8296094c-0.0259056,0.0224438-0.0326309,0.049078-0.0201797,0.0798988
		c-0.0320301,0.0078106-0.0632553,0.0177879-0.0936813,0.0299292L23.260973,5.9204373
		c-0.1181965-0.2356277-0.055254-0.3850775,0.2345791-0.4265833c0,0,0.0372372,0.0262065,0.0372372,0.0262074
		C23.4893761,5.6232443,23.4459629,5.7264266,23.4025536,5.8296094z"/>
	<path fill="#260505" d="M24.8986435,2.7141066c-0.1678505-0.178292-0.1680908-0.3564491,0.0004768-0.534452
		C24.8989468,2.3578172,24.8987942,2.5359619,24.8986435,2.7141066z"/>
	<path fill="#22201F" d="M13.4755373,0.5786775c0.0380592,0.032431,0.0761175,0.0648619,0.1141787,0.0972926
		c0.0270901,0.0271225,0.0398836,0.0565313,0.0383863,0.0882264c-0.0015516,0.0328382-0.0058708,0.0492575-0.0126362,0.0494593
		c-0.1234894,0.1516216-0.2701283,0.2505178-0.488636,0.1839747c-1.1626987,0.5449511-2.0277891,1.3917377-2.7701178,2.3630314
		c-0.0356178-0.0239425-0.047555-0.0479908-0.0359011-0.0721824c0.0116692-0.0242214,0.0234003-0.0363503,0.0352802-0.0363503
		c0.3192196-0.8423829,1.059268-1.3590988,1.7310944-1.9268866c0.1393595-0.1177784,0.3060417-0.2075877,0.4600687-0.3101293
		C12.8465843,0.8512404,13.1361198,0.6690764,13.4755373,0.5786775z"/>
	<path fill="#212121" d="M10.3560915,3.2521293c0.0002041,0.0361693,0.0004063,0.0723388,0.0006151,0.1085205
		c-0.0041103,0.1378284-0.0806246,0.209496-0.2282381,0.2161932C10.1258068,3.4209888,10.2017193,3.3127728,10.3560915,3.2521293z"
		/>
	<path fill="#01F7FA" d="M19.2556877,5.5925808c-0.0036049,0.3576865-0.0500183,0.7202835-0.0033512,1.0722032
		c0.1945572,1.4672408-1.3762989,2.1700263-2.6135178,1.9090152c-0.2228508-0.0470142-0.525528-0.007122-0.6338692-0.2932129
		c-0.0217085-0.1308126,0.0604286-0.2294807,0.1198273-0.3352637c0.0424805-0.028626,0.0849762-0.0572414,0.1271782-0.0863585
		c0.1634731-0.0914474,0.3210182-0.0532303,0.4818249,0.0124402c0.2947102,0.1203561,0.5811787,0.1095948,0.8514671-0.0646482
		c0.4186153-0.1620998,0.5493431-0.5995336,0.9068794-0.8199592c0.2686577,0.1714501,0.1443329,0.3775983,0.0272675,0.5499644
		c-0.2135429,0.3144174-0.4803391,0.5859108-0.8852005,0.6964073c-0.2241611,0.1064692-0.4677467,0.0455837-0.7018986,0.0691156
		c0.2392311-0.0208979,0.485424,0.0362854,0.7183475-0.0566025c1.1108608-0.3556924,1.6606617-1.6482959,1.0696964-2.5817995
		c-0.1452236-0.2293944-0.3030663-0.5830879-0.7416401-0.3736234c-0.0384998,0.0382667-0.0812969,0.0757389-0.1352139,0.0892439
		c-0.8295498,0.2077684-0.8296833,0.2073054-0.8925056,0.9729528c-0.6970768-0.1266356-0.7452469-0.5032587-0.1473598-1.1508374
		c-0.677599,0.5213399-0.6097298,1.1158066,0.1702404,1.4652319c0.0326157-0.1051836-0.114069-0.1880713-0.0421944-0.2960091
		c0.1367569-0.1241341,0.2848167-0.0435057,0.4328289-0.0254183c0.600029,0.073328,0.8630295-0.224339,0.6651134-0.7490454
		c-0.0426083-0.1129627-0.1462746-0.2212372-0.0134563-0.3396726c0.5834789,0.1151237,0.8235912,0.5019498,0.5542622,0.9503989
		c-0.1301842,0.2167678-0.2460499,0.4407864-0.3810844,0.6556668c-0.6280632,0.3657594-1.3373299,0.3893337-1.81991,0.0614343
		c-0.5530376-0.375773-0.6951923-0.8657212-0.466877-1.6085963c0.0226831-0.0872312,0.052578-0.1713948,0.1211681-0.2385345
		c0.1160221-0.0986099,0.2320442-0.1972198,0.3480644-0.2958302c0.7223473-0.3886743,1.4472351-0.3842602,2.1745014-0.0121675
		c0.1833076,0.1423707,0.3666172,0.2847409,0.5499249,0.4271116C19.2212791,5.3032856,19.3510799,5.40874,19.2556877,5.5925808z"/>
	<path fill="#212121" d="M19.2556858,5.5925813c-0.0531578-0.1321325-0.1063175-0.2642651-0.159481-0.3963957
		c0.1265945,0.01754,0.196701,0.0983052,0.2594891,0.1926022c0.3923531,0.5892396,0.3374901,1.8772802-0.1028328,2.3724217
		C19.4468994,7.0385509,19.670948,6.3159256,19.2556858,5.5925813z"/>
	<path fill="#212121" d="M16.0237103,5.0770736c-0.0070152,0.0639791-0.0140285,0.1279593-0.0210419,0.1919389
		c-0.3846273,0.6813097-0.0717077,1.2157159,0.4171734,1.7131863c0.0020885,0.0575738-0.0212059,0.1041479-0.0697174,0.139812
		C15.4991598,6.6596708,15.3331108,5.509882,16.0237103,5.0770736z"/>
	<path fill="#250303" d="M16.7059021,7.6535115C16.9224644,7.327672,17.3701,7.5614624,17.6238174,7.3256063
		c0.1779232-0.2602968,0.3136444-0.2297726,0.4133644,0.0517325c-0.0233994,0.1587167-0.151123,0.2438688-0.2721691,0.3338671
		c-0.335556,0.0889778-0.6706409,0.2673812-1.0114708,0.011899C16.7374725,7.7001138,16.7216873,7.6768131,16.7059021,7.6535115z"/>
	<path fill="#1F3333" d="M17.9751873,7.4404168c-0.0396862-0.2433672-0.1650906-0.2595639-0.351326-0.1147466
		c-0.3133011,0.013876-0.6276608,0.0390649-0.9279404-0.0789886c-0.0800571,0.0450749-0.1516132,0.0343528-0.2152462-0.0283723
		c-0.0434494-0.0321326-0.0868988-0.0642648-0.1304493-0.0963478c0.0031433-0.0381308,0.0063858-0.0763106,0.0096302-0.1144905
		c0.5458889,0.0300264,1.0946865,0.2255859,1.6354122-0.0488033c0.1011791-0.051343,0.2404041,0.0140605,0.2614574,0.1337304
		C18.2904129,7.2838902,18.2420158,7.4459376,17.9751873,7.4404168z"/>
	<path fill="#1D393A" d="M18.5462761,4.7690763c-0.7265987-0.269053-1.4511166-0.2156968-2.1745014,0.0121651
		C17.0179749,4.2944922,17.8785458,4.2896767,18.5462761,4.7690763z"/>
	<path fill="#1F3333" d="M16.1936455,7.9628754c-0.0230484,0.0021853-0.0461521,0.0035429-0.0693111,0.0040736
		c-0.0291176-0.0179219-0.0411797-0.0382705-0.0362263-0.0610542c0.0052147-0.023993,0.0119476-0.0359921,0.020237-0.0359921
		c0.0063915-0.1077952,0.0127811-0.21559,0.019165-0.3233924c0.1927872,0.0356688,0.385582,0.0713449,0.5783825,0.1070108
		c0.0000095-0.0000095-0.0029697,0.0035219-0.0029697,0.0035219c0.0381432,0.0446777,0.0357838,0.0889974-0.001152,0.1330557
		C16.5252838,7.8292546,16.3278465,7.8155608,16.1936455,7.9628754z"/>
	<path fill="#231616" d="M18.6532841,8.3972063c0.1534061-0.1540956,0.3068123-0.3081903,0.4602146-0.4623265
		C19.1172409,8.224288,18.961319,8.3762426,18.6532841,8.3972063z"/>
	<path fill="#250303" d="M16.4806747,7.2183094c0.0718021,0.0093489,0.1436024,0.0186982,0.2153263,0.0282097
		c-0.0098057,0.1278758-0.0785847,0.216928-0.2181034,0.168417C16.3484917,7.3699417,16.3914223,7.2837763,16.4806747,7.2183094z"/>
	<path fill="#231718" d="M11.5172157,10.5535355c-0.1626854-0.014924-0.3468304,0.0501451-0.4707937-0.1092758
		c-0.5226431-0.6068411-0.8128262-1.3555117-1.3695774-1.9414949c0.1118402-0.1023207,0.202445-0.234726,0.3859024-0.2359419
		c0.2942019,0.1632681,0.2775183,0.5249548,0.5295744,0.7155704c0.3170242,0.3555536,0.5447807,0.7680836,0.8431654,1.1359863
		C11.5350208,10.2411022,11.6431084,10.3841448,11.5172157,10.5535355z"/>
	<path fill="#221B1B" d="M8.161396,9.1566038c-0.114502,0.0007877-0.2290053,0.0015736-0.3434906,0.0023746
		c-0.025846-0.09478-0.1465168-0.1862926-0.0225849-0.2875528c0.3319044-0.2711849,1.2672691-0.3240995,1.6572723-0.1286964
		c0.241251,0.1208744,0.0833158,0.2747993,0.0948906,0.4158945c-0.0419817,0.0348625-0.090662,0.0512819-0.1470585,0.04706
		C8.9914293,9.1048279,8.5800247,9.0531168,8.161396,9.1566038z"/>
	<path fill="#260503" d="M9.5502777,5.5085907C9.6258726,5.4724331,9.7014675,5.436275,9.7770624,5.4001174
		c0.2032242,0.2032552,0.1548109,0.4449654,0.122694,0.6842847C9.8128195,6.3284402,9.7925377,6.5738468,9.8884392,6.821044
		c0.0499115,0.2228808,0.0505066,0.4471574,0.0228233,0.6722727C9.8653784,7.681076,9.8204098,7.8693242,9.7658014,8.0555573
		C9.7258768,8.1331081,9.6757145,8.1979904,9.5677729,8.1870165C9.4247007,7.8783112,9.4261465,7.5520234,9.4325018,7.2251372
		C9.2990608,6.9839749,9.4429264,6.784461,9.5447321,6.57863C9.5465813,6.2219505,9.5484295,5.8652706,9.5502777,5.5085907z"/>
	<path fill="#03E6E9" d="M7.9524541,8.3059654c0.1024528-0.0476913,0.1251578-0.1250553,0.0954385-0.2219229
		c0.076664-0.1080332,0.1533289-0.2160668,0.2299929-0.3241c0.1361141-0.088583,0.1010914-0.323801,0.3298197-0.3330293
		l0.0345068,0.0240722c0.2079649,0.2705102-0.105916,0.4474163-0.1513577,0.7224622
		C8.7707729,8.1575594,9.042388,8.257122,9.3014717,8.0927019c0,0,0.0356874-0.0223789,0.035697-0.0223846
		C9.551753,8.4162416,9.6212206,8.6557884,9.0203562,8.5067501C8.7600145,8.4421759,8.4818916,8.4674397,8.2250519,8.561121
		C7.9085193,8.6765747,7.9030447,8.5204182,7.9524541,8.3059654z"/>
	<path fill="#03E7EC" d="M10.5636158,11.6085396c0.0113163-0.0586643,0.0226326-0.1173286,0.0339537-0.1759825
		c0.2730093-0.0599947,0.007165-0.7046185,0.5676908-0.4526806c0.1128893,0.2800503,0.4803791,0.3606625,0.585577,0.6467381
		c-0.3783083,0.1878967-0.4617968-0.1959133-0.7219849-0.2966537c-0.1354818,0.0745459-0.1557865,0.3473215-0.4248409,0.3089294
		L10.5636158,11.6085396z"/>
	<path fill="#250808" d="M9.433589,9.1568365C9.4715672,9.156991,9.5095367,9.1575794,9.5474911,9.1586132
		c0.1919556,0.1793213,0.3839188,0.3586311,0.5758572,0.5379648c-0.0011263,0.1377544-0.0761614,0.2080803-0.2237139,0.2122889
		C9.7299805,9.8859501,9.6493654,9.7630157,9.5600739,9.6492853c-0.0863533-0.1413507-0.2422915-0.2423477-0.279851-0.4125586
		C9.3022299,9.1618204,9.3315458,9.0987377,9.433589,9.1568365z"/>
	<path fill="#260302" d="M9.5677729,8.1870165c0.0318375-0.0337534,0.063674-0.0675077,0.0955114-0.1012611
		c0.1310034-0.087666-0.0354614-0.3237691,0.2055645-0.356668c0.249033,0.1466174,0.2516356,0.3460279,0.1405821,0.5697055
		C9.9460478,8.4339352,9.8449678,8.515914,9.6767168,8.5028734C9.6404877,8.3975153,9.6041307,8.2922659,9.5677729,8.1870165z"/>
	<path fill="#231313" d="M9.5447321,6.57863C9.5073223,6.7941318,9.4699135,7.009634,9.4325037,7.2251363
		C9.2221985,7.0104775,9.3324251,6.7964087,9.4338846,6.5823436C9.4708471,6.581203,9.5077915,6.5799594,9.5447321,6.57863z"/>
	<path fill="#01F2F6" d="M9.6446524,9.6203365C9.7296467,9.7165127,9.81464,9.8126907,9.8996344,9.9088669
		c0.2799053,0.7721367,0.1665697,1.0996513-0.588419,1.7004118c-0.7048378,0.3213787-1.1048012,0.2007599-1.7253942-0.5203371
		c-0.0340605-0.070405-0.0681205-0.14081-0.1021819-0.211216c-0.1148639-0.2502031-0.0994973-0.5014248-0.0068045-0.7532501
		c0.002429-0.0600491,0.004859-0.1200981,0.0072889-0.1801462C7.7327828,9.737936,7.9325166,9.4809475,8.2278194,9.3223791
		C8.7956696,9.0295792,9.253849,9.1864281,9.6446524,9.6203365z"/>
	<path fill="#212121" d="M7.5858212,11.0889416c0.4761343,0.457448,1.0033426,0.7683783,1.7253942,0.52034
		C8.7789526,12.0883617,7.9429302,11.836237,7.5858212,11.0889416z"/>
	<path fill="#212020" d="M7.4768348,10.1244755c0.0022635,0.2510805,0.0045261,0.502161,0.0067973,0.7532463
		c-0.2360768-0.1827326-0.0871334-0.4347553-0.1355243-0.651329C7.3909731,10.1923876,7.4339042,10.1584311,7.4768348,10.1244755z"
		/>
	<path fill="#00EAFE" d="M14.6227694,6.7395358c-0.0000525,0.4829783,0.0049534,0.9660263-0.0027723,1.4488969
		c-0.0026979,0.1685953,0.0261698,0.4291039-0.2734442,0.3414335c-0.2588768-0.0757494-0.7437162,0.2068033-0.7498484-0.3268089
		c-0.0088282-0.7680497-0.014411-1.5381064,0.0367661-2.3039441c0.0254488-0.3808513-0.0630369-0.5898733-0.490818-0.6059785
		c-0.1822567-0.0068612-0.3636761-0.0108881-0.3472443-0.2479177c0.013669-0.1971483,0.1503525-0.2758374,0.3475227-0.2852149
		c0.0191994-0.0009131,0.0385838,0.0001822,0.0576506-0.0016866c1.3911734-0.1363239,1.4222422-0.1106472,1.4222422,1.1762538
		C14.6228237,6.2028913,14.6228237,6.4712133,14.6227694,6.7395358z"/>
	<path fill="#00FAFC" d="M11.5172157,10.5535355c-0.2218056-0.5730724-0.7163839-0.9863157-1.0226097-1.509923
		c-0.9797592-1.8040662-0.8790779-3.590436,0.1015224-5.3623934c0.4961214-0.8066425,1.2138262-1.4283783,1.9569397-2.0289125
		c0.3763838-0.284314,0.8051491-0.4922493,1.2181711-0.724714c0.050415-0.0270285,0.1023855-0.0494729,0.1554604-0.0713043
		c0.0831823-0.0358957,0.1689186-0.0618784,0.2605143-0.0701583c0.71661-0.0249132,1.4082794-0.2260321,2.1424026-0.1800479
		c0.6528225,0.0408916,1.2726955,0.1591763,1.8880997,0.3377531c0.6042385,0.2646186,1.2367516,0.4868364,1.7015629,0.9649558
		c0.110363,0.0942245,0.2207241,0.1884489,0.3310852,0.2826738c0.274416,0.1078198,0.4577389,0.303098,0.5984592,0.539279
		l-0.0061569-0.0077696c0.1264267,0.1459966,0.2881374,0.2686744,0.3495693,0.4576242
		c0.0425758,0.059731,0.0851536,0.1194615,0.1277294,0.1791918c0.2266121,0.1600816,0.3004799,0.4050806,0.406353,0.6326683
		c0.7868614,1.6950858,0.812273,3.3790085-0.0827789,5.0498705c-0.3757229,0.5641098-0.793232,1.1002407-1.2474709,1.6117764
		c-0.4001427,0.4119225-0.4907341-0.0504408-0.6882458-0.210824c-0.032692-0.1037073-0.1033974-0.1764364-0.2083817-0.2212305
		c-0.297163-0.1516495-0.2753105-0.3412666-0.0615368-0.5374298C19.5824337,9.552,19.6975937,9.3935938,19.8593788,9.2769337
		c0.2145634-0.1656981,0.3595257-0.3738785,0.438879-0.6221027c0.0657005-0.2788382,0.223465-0.5222139,0.3467789-0.7788591
		l-0.0012589,0.0031061c0.3577633-1.1445131,0.2489681-2.2620773-0.2242317-3.358593l0.0061455,0.0093575
		c-0.1194859-0.1297531-0.14744-0.3034949-0.2462006-0.4432087c-0.2805672-0.5385063-0.6962223-0.9635181-1.2421322-1.2790942
		c-1.4017773-0.8594387-2.9031563-1.0441111-4.503828-0.5828948c-0.5783443,0.1666436-1.0612879,0.4833677-1.5384388,0.8125491
		c-0.4107294,0.271971-0.7247982,0.6189213-0.9369106,1.0449591c-0.7627859,1.3031278-0.9076719,2.6513891-0.342042,4.0513024
		c0.1109962,0.1615114,0.1754332,0.3405848,0.2258654,0.5248709c0.0828581,0.2477417,0.2210493,0.4624081,0.436059,0.6311541
		c-0.0000143,0.0000057,0.0028477-0.0013285,0.0028477-0.0013285c0.1752853,0.116641,0.291235,0.2876396,0.4473114,0.4222383
		c0.1992292,0.1982546,0.1688871,0.3700209-0.0686169,0.5179377l0.0018969-0.0017614
		c-0.1335802,0.1983585-0.3151817,0.3589478-0.4825077,0.5307646l0.0117493-0.0125427
		c-0.2263441,0.2285767-0.3817749-0.0090113-0.5634375-0.0741529
		C11.5906105,10.6316023,11.5539131,10.5925684,11.5172157,10.5535355z"/>
	<path fill="#212121" d="M10.5961285,3.6812191C10.057416,4.8957558,9.742857,6.1370487,9.995717,7.4647264
		c0.1041145,0.5466623,0.3492651,1.0483055,0.498888,1.5788908c-0.3052931-0.167367-0.2659721-0.5289383-0.4851713-0.7448244
		C9.9686537,8.1228533,9.9278774,7.9469128,9.8871021,7.7709727c-0.087471-0.0531535-0.0394917-0.1628056-0.1079435-0.2238922
		C9.7740555,7.2972164,9.7689524,7.0473528,9.7638493,6.7974892c-0.0641279-0.2160034-0.0636253-0.432034-0.0003185-0.6480918
		C9.768055,5.8996329,9.7725792,5.649868,9.7770834,5.4001102c0.0943804-0.0484548,0.1131849-0.1295428,0.1097488-0.2202477
		c0.1172943-0.3566594,0.2346649-0.7132678,0.3520164-1.0698876C10.4063711,4.001976,10.3468723,3.7302926,10.5961285,3.6812191z"/>
	<path fill="#22201F" d="M13.8256197,1.0149671c-0.4241848,0.212446-0.8483686,0.4248921-1.2725515,0.6373389
		c0.1058207-0.3175008,0.4921274-0.3291317,0.6893787-0.5469285C13.4267292,1.0188314,13.572896,0.7195805,13.8256197,1.0149671z"/>
	<path fill="#260605" d="M13.8256197,1.0149672c-0.2283354-0.1593143-0.3761435,0.1308402-0.5831785,0.0904034
		c-0.0385361-0.0359098-0.077075-0.0718267-0.1156149-0.107742c0.1539469-0.0715526,0.307889-0.1431068,0.461833-0.2146608
		c0.2045641-0.0533866,0.4443064-0.1559507,0.3459826,0.2141093C13.8983002,1.0030404,13.8619604,1.0090039,13.8256197,1.0149672z"
		/>
	<path fill="#00EFFE" d="M10.6040115,11.6388903c0.1999979-0.10005,0.2293482-0.3175306,0.3766479-0.4751215
		c0.3157749,0.064786,0.4053726,0.4709139,0.770174,0.4628429c0.1496124,0.1005249,0.299222,0.201046,0.4488487,0.3015261
		c-0.1204863,0.1795406-0.2871561,0.11689-0.4526281,0.0777388c-0.427496-0.1011486-0.8550396-0.0755272-1.3086386,0.0199175
		C10.4992056,11.8837633,10.5516081,11.7613277,10.6040115,11.6388903z"/>
	<path fill="#212121" d="M11.6273069,10.6706352c0.1986284-0.0460882,0.3569193,0.1724749,0.5634623,0.0742292
		c-0.0343132,0.1151733-0.0686016,0.230422-0.10289,0.3456717C11.8934994,10.9893436,11.7416105,10.8478222,11.6273069,10.6706352z"
		/>
	<path fill="#212121" d="M12.895092,3.0371938c1.4829473-1.4467533,4.4652443-1.5600994,6.0422478-0.2296486
		c-0.0875473,0.004797-0.1751118,0.0095994-0.2625942,0.0143929c-0.5570145-0.480989-1.2775116-0.5851901-1.9755211-0.741246
		c-0.4192257,0.0680838-0.8384752,0.06743-1.2577448,0.0003612c-0.2713995,0.0685298-0.542798,0.1370599-0.8141975,0.2055988
		c-0.1666622-0.0125027-0.3163929,0.0325706-0.4548607,0.1158175C13.7466869,2.6141002,13.3208895,2.8256469,12.895092,3.0371938z"
		/>
	<path fill="#202528" d="M11.6116858,8.2198896c-0.6647768-1.4357677-0.5693922-2.8164601,0.3465023-4.1377201
		c0.0388546,0.2557745-0.2167177,0.4297061-0.2168198,0.6746802c-0.4853516,1.0225806-0.489316,2.0605202-0.1148167,3.1105266
		c0.005578,0.0672202,0.0111523,0.1344595,0.0167255,0.2017002C11.6855698,8.1289206,11.6750364,8.1791906,11.6116858,8.2198896z"/>
	<path fill="#212121" d="M20.4195461,4.5204849c0.6256638,1.0877147,0.7061367,2.2069144,0.2242126,3.3585949
		c-0.1124344-0.4388304,0.1385517-0.8470669,0.1138096-1.2878828c-0.0289154-0.5151029-0.0460987-1.0226178-0.2491741-1.5090346
		C20.511425,4.8904982,20.3443718,4.7220531,20.4195461,4.5204849z"/>
	<path fill="#212121" d="M20.179491,4.0866337c0.1517887,0.1142278,0.249054,0.2546473,0.2461433,0.4432116
		C20.2296944,4.4368606,20.1780663,4.2744951,20.179491,4.0866337z"/>
	<path fill="#212121" d="M16.108345,7.8699026c0.0063801,0.0321984,0.0117092,0.064548,0.0159893,0.0970473
		c-0.0397949,0.1045499-0.079586,0.2091002-0.1193829,0.3136439c-0.027854,0.0193901-0.0589657,0.031599-0.0932989,0.0366631
		C15.8922062,8.1358309,15.9851665,7.9971209,16.108345,7.8699026z"/>
	<path fill="#212123" d="M21.6435394,9.0423288c0.4614716-1.1488972,0.732626-2.316422,0.5006008-3.5548649
		c-0.1027813-0.5485854-0.3423615-1.0533223-0.4919357-1.5853465c0.0419636-0.0488961,0.0859489-0.0480993,0.1316662-0.0046296
		c0.4538975,0.9721739,0.6576519,1.9796569,0.592104,3.0459678c-0.0286255,0.4656281-0.2635403,0.8874917-0.2455444,1.3529205
		c-0.150322,0.1526508-0.1784935,0.3504143-0.2301655,0.5395021C21.8146954,8.9046974,21.7291183,8.9735136,21.6435394,9.0423288z"
		/>
	<path fill="#212121" d="M19.7078228,10.4432812c0.2205582,0.095293,0.3310661,0.5014067,0.6882458,0.210824
		c0.0324612,0.1945953-0.2472,0.2475538-0.2286186,0.4358482C20.0105934,10.8766317,19.7369385,10.7351418,19.7078228,10.4432812z"
		/>
	<path fill="#212121" d="M20.6450367,7.8759718c-0.00667,0.301568-0.1532173,0.5492496-0.3467884,0.7788353
		c-0.043293-0.1180696-0.0865955-0.2361622-0.1298943-0.3542337C20.47262,8.3002424,20.4157772,7.9491711,20.6450367,7.8759718z"/>
	<path fill="#212121" d="M12.659606,10.2283278c0.1540403-0.1757984,0.1991196-0.3534508,0.0105257-0.5350809
		c0.0344353-0.0436573,0.0715799-0.0457506,0.1114359-0.0062857C13.1499767,9.9471464,12.9925222,10.1048365,12.659606,10.2283278z"
		/>
	<path fill="#212121" d="M12.1789951,10.7573309c0.0969372-0.2271786,0.2671804-0.3967009,0.4825106-0.5307617
		C12.6293182,10.5046721,12.4311523,10.6522341,12.1789951,10.7573309z"/>
	<path fill="#221D1F" d="M12.7815676,9.6869612c-0.0370493,0.0035686-0.0741959,0.0056629-0.1114359,0.0062847
		c-0.1850147-0.0890808-0.3087568-0.2290564-0.3891096-0.4051313C12.5304642,9.3313026,12.6476011,9.5182705,12.7815676,9.6869612z"
		/>
	<path fill="#260403" d="M15.4414797,2.0810535c0.4193068-0.0001743,0.8386145-0.0003486,1.2578325-0.000442
		C16.2800274,2.2375238,15.8607788,2.2370086,15.4414797,2.0810535z"/>
	<path fill="#212121" d="M19.8593788,9.2769337c-0.0989819,0.1262455-0.1742249,0.2811327-0.3019409,0.3727131
		c-0.2575092,0.1846523-0.2507248,0.3630476-0.0579987,0.5724058c-0.1915226,0.0374775-0.2495842-0.1319618-0.3691597-0.2060194
		c0.0002232-0.0714808,0.0004349-0.1429558,0.0006657-0.2144365C19.4201336,9.682395,19.5370426,9.3562899,19.8593788,9.2769337z"/>
	<path fill="#00E9FE" d="M9.3014717,8.0927019c-0.005949,0.1344528,0.0479403,0.3360062-0.21595,0.2516232
		C8.7981005,8.2524185,8.5236235,8.3304882,8.2095928,8.3664474c0.0389109-0.3688087,0.4520636-0.5587192,0.4325132-0.9155087
		C8.8538752,7.3608956,8.8339167,7.1216598,9.0179043,6.917088C9.1672802,7.3394699,8.9465694,7.7879133,9.3014717,8.0927019z"/>
	<path fill="#221F21" d="M8.6077051,7.4269133C8.4617977,7.5071068,8.4731817,7.7220683,8.2778864,7.759944
		C8.3139267,7.6524897,8.3499689,7.5450373,8.385931,7.4375634c0.0814743-0.1066365,0.1630287-0.2132511,0.2445822-0.3198667
		C8.6229115,7.2207685,8.6153078,7.3238406,8.6077051,7.4269133z"/>
	<path fill="#1E3434" d="M9.6446524,9.6203365C9.1973162,9.3040886,8.7092171,9.2206135,8.1754789,9.3977423
		C8.1149921,9.3577671,8.1119423,9.3143015,8.1663198,9.2673464c0.0747166-0.036787,0.1494331-0.0735741,0.2241497-0.1103611
		c0.323575-0.073328,0.6550598-0.2077093,0.9287395,0.1040974C9.4621763,9.3538055,9.6329823,9.4247103,9.6446524,9.6203365z"/>
	<path fill="#240C0C" d="M9.3192091,9.2610826c-0.2939415-0.1552219-0.615427-0.0978212-0.9287033-0.1040897
		c-0.0763836-0.0001268-0.1527319-0.000246-0.2290945-0.0003767C8.5855131,8.9039106,9.0095758,8.8866749,9.4335804,9.156847
		C9.395463,9.1915855,9.357336,9.2263346,9.3192091,9.2610826z"/>
	<path fill="#221B1B" d="M8.1663198,9.2673464c0.0030508,0.0434599,0.0061016,0.0869188,0.0091553,0.1303873
		C7.9212155,9.5538635,7.7907839,9.8455105,7.4841194,9.9443035C7.6112843,9.631278,7.8912268,9.4514256,8.1663198,9.2673464z"/>
	<path fill="#212121" d="M11.6116858,8.2198896c0.0104609-0.0502024,0.0209217-0.1004047,0.0314865-0.1507101
		c0.0708923,0.0779772,0.1416798,0.1560574,0.212451,0.2341976C11.851079,8.42171,11.8465509,8.5399847,11.8420134,8.6582928
		C11.6909189,8.5459538,11.6397104,8.3881903,11.6116858,8.2198896z"/>
	<path fill="#231515" d="M21.7838707,3.8974879c-0.0438862,0.0015426-0.0877762,0.0030851-0.1316643,0.0046284
		c-0.1590958-0.1551502-0.2631817-0.3394566-0.3322411-0.5423262c0.0777264,0.0003583,0.1554527,0.0007167,0.2331753,0.0010903
		C21.6300488,3.5397601,21.7069607,3.7186236,21.7838707,3.8974879z"/>
	<path fill="#00E9FE" d="M20.1664486,1.2340463c-0.0339565-0.018599-0.0705757-0.0263997-0.1098518-0.0234017
		c-0.1216564-0.0683416-0.2066994-0.1520755-0.144701-0.2976773c0.575182-0.1638089,1.1571522-0.030567,1.7812595-0.0835721
		c-0.0979538,0.3820275-0.4359608,0.5929457-0.4785423,0.9297028l0.0019093-0.0047582
		c-0.3841743,0.1299014-0.5273743-0.2515786-0.8129368-0.3310367C20.3048801,1.3815476,20.238802,1.3044043,20.1664486,1.2340463z"
		/>
	<path fill="#221A1B" d="M19.9192791,1.9087911c-0.5357456-0.2972851-1.0714931-0.5945704-1.6072388-0.8918554
		c-0.0570717-0.0456454-0.0541878-0.0877389,0.008646-0.1262812c0.0387001-0.0002186,0.0773983-0.0004372,0.1161003-0.0006568
		c0.3757095,0.2101593,0.7508678,0.4211856,1.127388,0.6300819C19.7308083,1.6125299,19.8991299,1.7015221,19.9192791,1.9087911z"/>
	<path fill="#221918" d="M20.8608799,2.0711765c0.3107948,0.0352027,0.51087,0.1215415,0.2296238,0.4301786
		c-0.1954517-0.104516-0.3501854-0.246722-0.4603539-0.4301856C20.7070618,2.0023971,20.7839718,2.0113823,20.8608799,2.0711765z"/>
	<path fill="#221A1B" d="M20.1664486,1.2340461c0.0636349,0.0335938,0.1272678,0.0671873,0.1909027,0.1007812
		c0.2006874,0.0781125,0.3938732,0.1625431,0.3965244,0.4074121L20.7239113,1.771444
		c-0.0503674,0.0692734-0.096489,0.1475811-0.2088509,0.0848826C20.5367336,1.5820732,20.163332,1.4993058,20.1664486,1.2340461z"/>
	<path fill="#231617" d="M20.8488235,2.7307439c-0.1994858-0.17976-0.3989716-0.3595197-0.5984592-0.539279
		C20.6026001,2.2245696,20.8027115,2.403728,20.8488235,2.7307439z"/>
	<path fill="#231617" d="M20.5150604,1.8563263c0.0697079-0.0284069,0.1394138-0.0568134,0.2089863-0.0850512
		c0.0455189,0.1000798,0.0911751,0.1999909,0.1368332,0.2999016C20.783968,2.0711744,20.707056,2.0711722,20.630146,2.0711699
		C20.5587635,2.0148604,20.3725033,2.0117903,20.5150604,1.8563263z"/>
	<path fill="#231617" d="M21.1922379,3.1805983c-0.1515598-0.1293783-0.2881203-0.2686667-0.3495312-0.4576292
		C21.0653152,2.8053792,21.2148476,2.9361067,21.1922379,3.1805983z"/>
	<path fill="#222222" d="M19.9143867,1.0392646c0.0474033,0.0571264,0.0948067,0.1142534,0.14221,0.17138
		c-0.185833-0.0050524-0.337595-0.0783604-0.4648247-0.2006853c0.0445728-0.0105411,0.0891228-0.0211569,0.1336689-0.0317726
		C19.8078232,0.9466233,19.8886127,0.9193215,19.9143867,1.0392646z"/>
	<path fill="#02EEF1" d="M22.0167084,1.9638355c0.0377083-0.0730594,0.0754166-0.1461188,0.1131248-0.2191784
		c0.1840076-0.0311571,0.2528706-0.180838,0.3538723-0.2974339c0.3975239-0.3407731,0.8460331-0.3555269,1.3243313-0.1792786
		c0.268898,0.1660289,0.48419,0.3830149,0.6786995,0.6197064c0.1774979,0.4259424,0.1754551,0.8377252-0.112072,1.226948
		c-0.1141663,0.1578817-0.2580128,0.2883875-0.4246235,0.3979201c-0.5709877,0.3163886-1.1009941,0.2682574-1.5888119-0.1546514
		c-0.1114922-0.1420796-0.2229862-0.2841597-0.3344803-0.42624C21.8695316,2.6104114,21.8344803,2.2880986,22.0167084,1.9638355z"/>
	<path fill="#221E1E" d="M22.3612289,3.3578675c0.5194798,0.2880828,1.0522537,0.3898239,1.6129894,0.0995433
		c0.0358868,0.0241547,0.0490665,0.049691,0.0396023,0.0766294c-0.0097027,0.0276177-0.0200977,0.0414364-0.0312519,0.0414364
		c0,0-0.0022163,0.0044572-0.0021896,0.0045104C23.1813965,3.928865,22.8375511,3.8816848,22.3612289,3.3578675z"/>
	<path fill="#221E1E" d="M22.0167084,1.9638355C22.02005,2.2864301,22.0233917,2.609025,22.026741,2.9316237
		c-0.0804157-0.0721271-0.160841-0.1442583-0.2412529-0.2163894C21.8280907,2.4555888,21.6462955,2.1362097,22.0167084,1.9638355z"
		/>
	<path fill="#222222" d="M21.7966022,0.5745108c-0.6628532,0.1344107-1.3257904,0.1353463-1.9889221,0.0011769
		C20.470583,0.575326,21.1335926,0.5749183,21.7966022,0.5745108z"/>
	<path fill="#222222" d="M23.8539944,1.3419532c-0.4751587-0.1720731-0.9304943-0.1209083-1.3702908,0.105266
		c0.0265198-0.1881471,0.249979-0.20625,0.3394032-0.3400551c0.3492203,0.0105928,0.7096558-0.0750915,1.0391712,0.1047323
		C23.9147282,1.2582911,23.9119701,1.3016436,23.8539944,1.3419532z"/>
	<path fill="#1D363A" d="M24.3119068,3.1398571c0.2356644-0.4099591,0.2618008-0.8341808,0.1000156-1.2711945
		c0.0432434-0.0567135,0.0883846-0.0580535,0.1354294-0.004022c0.1996651,0.4446515,0.1774349,0.873341-0.1066933,1.2831908
		C24.3945084,3.1903498,24.3515892,3.1876931,24.3119068,3.1398571z"/>
	<path fill="#221B1D" d="M24.5473518,1.8646406c-0.0451374,0.001339-0.0902748,0.0026779-0.1354198,0.0040193
		c-0.1859837-0.1755714-0.3719578-0.3511449-0.5579357-0.5267127c0.002758-0.043344,0.005518-0.0866941,0.0082798-0.1300476
		C24.1380291,1.3864439,24.3815289,1.5902759,24.5473518,1.8646406z"/>
	<path fill="#22191A" d="M24.3119068,3.1398571c0.0429115,0.0026395,0.0858212,0.0052783,0.1287441,0.007946
		c-0.1118622,0.1804457-0.2651176,0.3225007-0.4581261,0.4276686c-0.002739-0.0393491-0.0055218-0.0787034-0.0083065-0.1180592
		C24.0867805,3.3515594,24.1993446,3.2457082,24.3119068,3.1398571z"/>
	<path fill="#00E8FE" d="M23.4955521,5.493854c-0.174921,0.0962796-0.220108,0.2541652-0.2344151,0.4266872
		c-0.1339226,0.0727887-0.2224331,0.0537639-0.2036304-0.1068268c0.048111-0.4109192-0.07477-0.7984076-0.2319679-1.2707739
		c0.4428463,0.1790524,0.7867241,0.0255399,1.1708488-0.0957355C23.9116669,4.8546906,23.5270271,5.1038876,23.4955521,5.493854z"/>
	<path fill="#03E5E8" d="M19.9143867,1.0392646c-0.0629883-0.0203519-0.1259785-0.0407034-0.1889553-0.0610664
		c-0.0425453-0.1002517-0.1054707-0.2143386,0.0949516-0.2149864c0.6112118-0.0019757,1.2224655,0.0047593,1.8336449,0.0005295
		c0.2282162-0.0015793,0.1868629,0.1166449,0.1462421,0.2440596c-0.2074471,0.2119057-0.4615669,0.3957896-0.4944668,0.7124827
		c-0.0292721,0.0152417-0.059679,0.0281698-0.0912113,0.0387907c-0.0540829-0.3315541,0.1874695-0.5490309,0.4784794-0.887
		C21.0164928,0.9664438,20.4506569,0.7220118,19.9143867,1.0392646z"/>
	<path fill="#03E5E8" d="M20.7538757,1.7422396c-0.1321392-0.1358058-0.2642784-0.271612-0.396471-0.4074152
		c0.3986206-0.0591271,0.4874802,0.4306926,0.8591061,0.4195104C21.0495434,2.1724544,20.9076443,1.7610625,20.7538757,1.7422396z"
		/>
	<path fill="#1F2E2F" d="M18.3206863,0.8906546c-0.002882,0.0420928-0.0057621,0.0841857-0.008646,0.1262799
		c-1.4059429-0.412111-2.8198662-0.4554551-4.2428617-0.0794297c-0.1325274-0.3506628,0.2671452-0.1216941,0.3286304-0.2610536
		c0.4629688-0.0712351,0.9259396-0.1424702,1.3889627-0.2136835c0.1121788-0.0000396,0.2243023-0.0001009,0.3363762-0.0001423
		C16.8567905,0.6001547,17.6223869,0.5959369,18.3206863,0.8906546z"/>
	<path fill="#231110" d="M14.397809,0.6764513c-0.0645199,0.1360376-0.3222914,0.0615112-0.3286324,0.2609979
		c-0.0249414,0.0587977-0.0667591,0.0845734-0.1345348,0.059628c-0.0105982-0.2177899-0.178381-0.2158309-0.3459864-0.214112
		c-0.0001097-0.0356719,0.0002308-0.0713429,0.0010443-0.1070027c0.2021284,0.0117899,0.3974533-0.0075949,0.575037-0.1083657
		C14.214921,0.6548221,14.302392,0.6729946,14.397809,0.6764513z"/>
	<path fill="#00E9FE" d="M17.9752693,5.2922192c0.0759602-0.3067865,0.2899227-0.2497325,0.4749966-0.126729
		c0.2009659,0.1335635,0.379652,0.2992659,0.4838161,0.521152c0.3021584,0.6436357,0.0389061,1.8361821-0.4802933,2.3397059
		c-0.2415676,0.2342777-0.5042,0.3019438-0.8251076,0.2723255c-0.0295925-0.0238504-0.0394516-0.0477076-0.0296268-0.0715876
		c0.0098228-0.0238724,0.019659-0.0358171,0.0295563-0.0358171c0.243021-0.2116642,0.5086193-0.4057827,0.7204971-0.6416507
		c0.1248207-0.1389561,0.3307991-0.3231869,0.0879669-0.5389676c-0.1851101,0.0281649-0.2620068-0.0446019-0.2330132-0.2161374
		c-0.125761-0.1762733-0.0617828-0.3028622,0.0805225-0.4570742c0.4446163-0.4818234,0.3504524-0.7718725-0.3096466-1.0454192
		L17.9752693,5.2922192z"/>
	<path fill="#00E8FE" d="M16.9359951,6.3659539c0.1344872,0.1431189,0.2689743,0.2862368,0.4032497,0.4295235
		c-0.5123768,0.0841079-1.0216866-0.1630077-1.0921211-0.5296216c-0.1546936-0.8051639,0.0780716-1.1222725,0.9765224-1.2681599
		c-0.2536926,0.4432483-1.3184175,0.748682-0.2875633,1.3683686L16.9359951,6.3659539z"/>
	<path fill="#02F0F3" d="M18.2040615,6.7945123c0.0776672,0.0720439,0.1553383,0.1440859,0.2330112,0.2161331
		c-0.0984764,0.4244022-0.3626385,0.7161741-0.802475,0.867322c-0.0106144-0.0213094-0.0212288-0.0426178-0.0318699-0.0639372
		c0.0167656-0.0752039,0.079958-0.1157866,0.1380539-0.1601691c0.0781364-0.0711479,0.156271-0.1422963,0.2344055-0.2134442
		c0.1910248-0.0713501,0.2768192-0.2278829,0.1869678-0.3762617c-0.080862-0.1335287-0.2397404-0.0220318-0.3568573,0.0295429
		c-0.4994602,0.2199483-0.9698639,0.0320086-1.4454441-0.0862217c-0.700099-0.7277436-0.7753582-1.0940423-0.3571796-1.7384462
		c0.0503693,0.2679124-0.1543512,0.5044117-0.0911579,0.7818837c0.1700497,0.7466826,0.9914532,1.1662264,1.8143826,0.9079647
		C17.8868389,6.90837,18.044754,6.8495164,18.2040615,6.7945123z"/>
	<path fill="#02EDF4" d="M16.9360828,6.3660645c-0.2985954-0.8659239-0.0894814-1.0820122,1.0391827-1.0738444
		c0.0000038-0.000001-0.0003281-0.0001926-0.0003281-0.0001965c0.201189,0.2875004,0.4966221,0.5504522,0.1872749,0.9359255
		c-0.3639851,0.4535551-0.7982445,0.2434902-1.2262173,0.1380062C16.9359951,6.3659539,16.9360828,6.3660645,16.9360828,6.3660645z"
		/>
	<path fill="#02F0F3" d="M16.1936455,7.9628754c0.0794582-0.2740951,0.2998161-0.2022834,0.5013504-0.1766806
		c0.3009205,0.0637503,0.6156273-0.0538235,0.9127369,0.0600357c0,0,0.0268555,0.0316591,0.0268612,0.0316973
		c-0.2575665,0.3243351-0.6114655,0.2596598-0.9131584,0.1272182C16.5272255,7.9198895,16.3759022,7.9120936,16.1936455,7.9628754z"
		/>
	<path fill="#00F0FE" d="M17.6286106,8.1912689c0.0000229,0.0358019,0.0000458,0.0716038,0.0000706,0.1074047
		c-0.3880424,0.1927538-0.7533703,0.1476078-1.1008911-0.1074047C16.8947296,8.1912689,17.2616692,8.1912689,17.6286106,8.1912689z"
		/>
	<path fill="#231F21" d="M17.6077328,7.8462305c-0.3070068,0.0163379-0.6221371,0.1394711-0.9127312-0.0600471
		c0.0026531-0.0430555,0.0053101-0.086122,0.0079441-0.1291652c0.3465157,0.1643133,0.6918144-0.0217361,1.037838-0.0031571
		C17.6964321,7.7179842,17.6520824,7.7821069,17.6077328,7.8462305z"/>
	<path fill="#231313" d="M9.7791586,7.5470805c0.0942717,0.0502071,0.1112309,0.1327338,0.1080093,0.2237806
		C9.8124981,7.875885,9.7378941,7.9807973,9.6632872,8.0857325C9.6518488,7.8968806,9.6685829,7.7132483,9.7791586,7.5470805z"/>
	<path fill="#231313" d="M9.7635307,6.1493974c0.0001783,0.216042,0.0003548,0.4320841,0.0004244,0.6481094
		C9.6130695,6.5815225,9.6122341,6.3654919,9.7635307,6.1493974z"/>
	<path fill="#00E9FE" d="M9.5483179,10.5071859c-0.0013914,0.5788937-0.2173347,0.7950068-0.7971611,0.7977896
		c-0.5751553,0.0027609-0.8171816-0.2477522-0.8192301-0.8479586c-0.0018735-0.548624,0.2403879-0.7698393,0.8351755-0.7626247
		C9.3376207,9.701313,9.5497236,9.9219894,9.5483179,10.5071859z"/>
	<path fill="#00E8FE" d="M15.9513769,1.0972002c2.4417505-0.0631802,4.1593637,0.9158454,5.239255,2.8059299
		c0.7030563,1.2305226,0.7620831,2.5537953,0.4252052,3.9324341c-0.203043,0.8309331-0.6219025,1.5164285-1.1122684,2.1937919
		c-0.1090336,0.1506147-0.2092209,0.3936853-0.4822559,0.2118702c-0.2733345-0.1820154-0.2023849-0.3642406,0.0004063-0.5786858
		c1.0416241-1.1014671,1.4196453-2.4044242,1.299593-3.8477988c-0.128788-1.5483832-1.9534073-3.5902731-3.5876503-4.0548368
		c-2.5467167-0.7239506-4.7134161,0.1928555-6.0495148,2.0698533c-1.3734894,1.9295239-1.1453047,3.9885745,0.3830605,5.7830892
		c0.1818523,0.213521,0.3896112,0.4021301,0.0629921,0.6157398c-0.3364334,0.2200289-0.4036846-0.1133041-0.5434942-0.2778425
		c-1.2859011-1.5133457-1.5310659-3.2435174-1.0555048-5.0480628C11.1090689,2.7099261,13.4214449,0.9068157,15.9513769,1.0972002z"
		/>
	<path fill="#00E9FE" d="M22.3612156,2.4366457c0.001543-0.5085951,0.4309616-0.997281,0.8860493-1.0083419
		c0.4894791-0.0118967,0.962431,0.4883929,0.9611416,1.0166937c-0.0012608,0.5171103-0.4228287,0.9119618-0.9749107,0.9131238
		C22.7228508,3.3591962,22.359581,2.9754372,22.3612156,2.4366457z"/>
	<path fill="#211C1B" d="M17.229948,6.2737403c-0.4169159-0.2578235-0.4155579-0.5185261-0.0062199-0.7820363
		c0.2767048-0.0854549,0.5289631-0.0247378,0.7686367,0.1112161l-0.0051422-0.0037127
		c0.0743256,0.1878314,0.0840569,0.3751216-0.0054417,0.5615807l0.0038853-0.0031242
		C17.7529697,6.3045521,17.5037327,6.3582864,17.229948,6.2737403z"/>
	<path fill="#222123" d="M17.9923649,5.6029201c-0.2560997-0.0370803-0.5121994-0.0741615-0.7684689-0.1112294
		C17.5165558,5.3098388,17.7770329,5.3214107,17.9923649,5.6029201z"/>
	<path fill="#222123" d="M17.229948,6.2737403c0.2518902-0.0386987,0.5037785-0.0773983,0.7556934-0.1160874
		C17.7771702,6.4408636,17.5189533,6.4440112,17.229948,6.2737403z"/>
	<path fill="#222123" d="M17.981781,6.1607881c0.0017796-0.18715,0.0035572-0.3742995,0.0053883-0.5615149
		C18.2225571,5.7883887,18.2236729,5.9756069,17.981781,6.1607881z"/>
</g>
</svg>
