<?xml version="1.0" encoding="utf-8"?>
<!-- Generator: Adobe Illustrator 24.1.1, SVG Export Plug-In . SVG Version: 6.00 Build 0)  -->
<svg version="1.1" id="Слой_1" xmlns="http://www.w3.org/2000/svg" xmlns:xlink="http://www.w3.org/1999/xlink" x="0px" y="0px"
	 viewBox="0 0 32 13" enable-background="new 0 0 32 13" xml:space="preserve" width="32px" height="13px">
<g>
	<path fill="#A1A1A1" d="M8.9037104,12.9916716c0.0029688-0.0328426-0.0034819-0.0637197-0.019351-0.0926323
		c-0.0178537-0.0697107,0.00315-0.1245651,0.0627108-0.1648817c0.2483425-0.1319275,0.5193987-0.0992813,0.7830238-0.0972376
		c2.0961933,0.016243,4.1923571-0.0112429,6.2885027-0.0005665c0.5835915,0.0029726,1.1641693,0.0069017,1.7272415-0.1849718
		c0.156435-0.0533085,0.3243446-0.0797968,0.4899063-0.0162191c0.0708179,0.0321884,0.0882683,0.0829248,0.0525188,0.1519308
		c-0.3032036,0.1994104-0.7474861,0.0544758-0.9889507,0.4045782c-0.6330013,0-1.2660046,0-1.8990059,0
		c-0.119833-0.0844059-0.2568722-0.0497513-0.386405-0.0499249c-1.7080307-0.0022879-3.4160671-0.0022879-5.1240988,0
		c-0.1295338,0.0001736-0.266573-0.0344791-0.3864059,0.0499249C9.3035011,12.9916716,9.1036062,12.9916716,8.9037104,12.9916716z"
		/>
	<path fill="#B1B1B1" d="M9.503397,12.9916716c0.0989828-0.1225634,0.2384596-0.0943079,0.3676214-0.0943966
		c1.720397-0.0011797,3.440794-0.0011444,5.1611919,0.0000563c0.1293383,0.0000916,0.2685566-0.0268459,0.3680964,0.0943403
		C13.4346695,12.9916716,11.4690332,12.9916716,9.503397,12.9916716z"/>
	<path fill="#212121" d="M18.2929115,12.4851208c-1.2074528,0.4002647-2.4551582,0.3308353-3.698885,0.322834
		c-1.8956976-0.0121975-3.7914591-0.0142775-5.6871929-0.0206537c-0.4122877-0.0186777-0.7145319-0.2460976-0.9913158-0.5218134
		C7.0620656,11.241128,7.04561,10.1869669,7.7091165,9.0423822C8.7431097,7.258687,9.7518158,5.460021,10.756155,3.6589596
		c1.1236858-2.015085,2.9044933-3.0855336,5.2189817-3.1417201c2.0806952-0.0505108,4.1636209-0.0190189,6.2454863-0.008555
		c1.653471,0.0083107,2.5086079,0.8100293,2.662674,2.4619789c-0.0004139,0.7734449-0.4478378,1.370707-0.8018608,2.0008187
		c-0.6331749,1.1269593-1.3022766,2.2335329-1.9146137,3.3725319c-0.2825565,0.5255823-0.4729919,1.0935364-0.7750511,1.6107283
		c-0.686121,1.1747952-1.681982,1.9869041-2.9124813,2.5325766C18.4198265,12.5136881,18.3544006,12.5325184,18.2929115,12.4851208z
		"/>
	<path fill="#F2F2F2" d="M18.2929115,12.4851208c1.7216301-0.7151413,2.862896-1.9581776,3.5827808-3.6817303
		c0.5890064-1.4102001,1.4748878-2.6774812,2.2228546-4.0116096c0.3259659-0.5814171,0.6604118-1.1547327,0.7847614-1.8210213
		c0.164444,0.7523406-0.3105984,1.3114731-0.6384544,1.8798969c-0.9736767,1.6881204-1.9143085,3.39116-2.8014927,5.1270475
		c-0.59692,1.1679516-1.5856533,1.9718409-2.7716694,2.5292082c-0.1236954,0.0581293-0.2463799,0.0969782-0.3833809,0.080205
		C18.289814,12.5531025,18.2913628,12.5191116,18.2929115,12.4851208z"/>
	<path fill="#E5E5E5" d="M7.9155178,12.2654877c0.3268099,0.1808195,0.628767,0.4087849,0.9913149,0.5218153
		c-0.0074205,0.03722-0.0148411,0.0744429-0.0223675,0.1117001C8.4720211,12.8243513,8.1072559,12.6770201,7.9155178,12.2654877z"/>
	<path fill="#303030" d="M21.4967136,5.6011329c0.1298027,0.9583378,0.0975628,1.9090304-0.2067204,2.8314147
		c-0.5809975,1.7611885-1.7351398,2.9562502-3.5129967,3.5555916c-1.3021679,0.4389791-2.5553799,0.3426294-3.8181419-0.1525841
		c-0.5697069-0.2234201-1.024416-0.6013823-1.4983253-0.9539557c-0.1836348-0.1366177-0.3761845-0.2553253-0.5630264-0.3845053
		c-0.023962-0.0262661-0.0332966-0.0535936-0.0280161-0.0819864c0.0053787-0.0289221,0.011672-0.0433846,0.0185699-0.0433617
		c0.36726-0.1767349,0.7470512-0.340683,0.8417988-0.8031616c0.0090256-0.0745125,0.0335445-0.1403389,0.1008348-0.1826601
		c0.1137133-0.0107489,0.1892509,0.0487204,0.2510443,0.1344709c0.5271816,0.8200665,1.3694324,1.1375494,2.251359,1.3303623
		c2.4098969,0.5268688,4.8004494-1.3501701,4.9099617-4.0230918c0.0569859-1.3908796-0.5428505-2.5576692-1.6239891-3.4335952
		c-1.6433392-1.3314159-4.1412754-1.0999649-5.5459642,0.4811475c-0.0352211,0.0349612-0.0782928,0.0525596-0.1278505,0.0534382
		c-0.1490717-0.0536103-0.2358513-0.1826258-0.3271809-0.2964346c-0.2390699-0.2979176-0.5242271-0.4743123-0.9211226-0.412025
		c-0.0645189-0.1739094,0.0620718-0.2580307,0.1654387-0.3534257c0.104949-0.0658128,0.223505-0.0582082,0.3400164-0.061929
		c0.8993893-0.8178108,1.9079809-1.3769443,3.1457329-1.544515c1.0038385-0.1359026,1.9389086,0.0254376,2.8692789,0.3534713
		c0.0930309,0.0328017,0.1874542,0.0616546,0.2812347,0.0923402c0.0213051-0.0003165,0.0426121-0.0006326,0.0639744-0.0012486
		c0.1282482,0.0214524,0.2407703,0.0830407,0.3560028,0.1381074c0.1122189,0.0605143,0.2227116,0.1239102,0.3211365,0.2060201
		c0.1079788,0.1005075,0.2168732,0.1998827,0.3468475,0.2731268c0.0375614,0.0225916,0.0720139,0.048934,0.1055756,0.0768602
		c0.2079563,0.1974614,0.4128876,0.3978276,0.6091976,0.6070042c0.0298805,0.0333071,0.0562592,0.0692136,0.0808811,0.1064205
		c0.0775356,0.1366141,0.186182,0.2486269,0.2907352,0.3640563c0.150528,0.2045283,0.2995167,0.4100063,0.4048386,0.6430743
		c0.1510735,0.4680696,0.4227791,0.8996181,0.430315,1.4113669C21.5045605,5.5543289,21.5006371,5.5777307,21.4967136,5.6011329z"/>
	<path fill="#202120" d="M20.9957104,4.1033258c-0.170681-0.1744134-0.2959938-0.3789802-0.3985157-0.5986953
		c-0.0883999-0.1420574-0.2060814-0.2622166-0.2997837-0.4003084l0.0001411,0.0001874
		c-0.1932163-0.273083-0.4263763-0.5062428-0.6997929-0.6991713l0.0002213,0.0001657
		c-0.1381893-0.0937037-0.258379-0.2114553-0.4007835-0.2995307c-0.0996819-0.0663025-0.1993637-0.1326056-0.2990456-0.1989083
		c-0.1097031-0.1136354-0.2668018-0.1331875-0.3995914-0.2009943c0,0,0.0000896,0.0000644,0.0000896,0.000066
		c-0.2326965-0.4867965-0.8338032-0.2391288-1.2182827-0.6346353c0.5014706-0.1191509,0.8884811,0.3709278,1.318264,0.1351242
		c0.54426,0.4454633,1.173378,0.7747467,1.7027855,1.240003c0.1107979,0.1126413,0.2574253,0.1497099,0.403553,0.1876998
		c0.1036987,0.0347211,0.2091084,0.0657096,0.2988567,0.131824c0.16432,0.1696253,0.0207253,0.4271133,0.1729107,0.6003716
		c0.0926189,0.1702626,0.2515812,0.3085411,0.2541504,0.5221932c-0.1292934,0.3603306,0.2975121,0.5022721,0.3179379,0.8042173
		c-0.0308743,0.2590065,0.1116867,0.4965487,0.0984592,0.7499914c-0.0091934,0.1761894,0.064497,0.013319,0.0919094,0.0311041
		c0.1815109,0.0790415,0.2279797,0.2058191,0.1380291,0.3814559c-0.042902,0.0480843-0.1000862,0.0885925-0.1183395,0.1524391
		c-0.0109119,0.0381718-0.0317535,0.0835972-0.0005798,0.1250768c-0.0146122-0.0499811-0.0009079-0.0955572,0.0231037-0.1411443
		c0.3370533-0.0279193,0.112833,0.4039164,0.3665714,0.4411197c0.1218262-0.0891562,0.1178665-0.2262502,0.1403408-0.3522701
		c0.0198631-0.1363592,0.0681534-0.263135,0.1306381-0.38518c0.073555-0.1400857,0.1584396-0.2715364,0.2883701-0.3672113
		c0.1506081-0.0954332,0.2275925-0.2466531,0.3007927-0.4007564c0.0196228-0.0390472,0.0428658-0.0756564,0.067627-0.111464
		c0.1033401-0.1405001,0.1843853-0.2983303,0.3202667-0.4135251c0.3224182,0.090106,0.2092896,0.2803187,0.0938683,0.4525743
		c-0.3654957,0.5454679-0.7020321,1.1065717-0.9993916,1.69278c-0.1016636,0.200418-0.2156582,0.412416-0.4813004,0.466455
		c-0.1796875,0.0365534-0.2107315,0.1879253-0.2135677,0.3472142c-0.0028915,0.1625991-0.0537567,0.3322821-0.2383442,0.3102937
		c-0.2508335-0.0298791-0.085392-0.2148175-0.0908184-0.3450875c-0.0240631-0.5779209,0.2194576-1.1839824-0.1697426-1.725667
		c-0.0000038,0,0.0001507,0.0002437,0.0001507,0.0002437C21.4290333,5.0688834,21.216032,4.5848818,20.9957104,4.1033258z"/>
	<path fill="#1E211E" d="M21.3970432,3.9032495c-0.099926-0.1664069-0.1998539-0.3328133-0.2997818-0.4992192
		c0.0367203-0.0320787,0.079134-0.0503142,0.128191-0.0529206c0.0738354,0.00879,0.1362228,0.0418792,0.1919003,0.0893748
		c0.0348148,0.0320623,0.0658436,0.0677774,0.0939045,0.105809c0.2805061,0.3664098,0.6237392,0.6087263,1.1096878,0.4858468
		c0.4649792-0.1175785,0.900526-0.6161635,0.9380798-1.0643859c0.0419979-0.501256-0.2037945-0.8581419-0.6173096-1.109771
		c-0.3557243-0.2164615-0.8356247-0.1696907-1.160862,0.0956285c-0.1935539,0.1578934-0.3235016,0.3798215-0.5326023,0.5219679
		C21.1602154,2.5220921,21.0681725,2.5560839,20.9686089,2.5681c-0.111887,0.0032549-0.1945496-0.0426509-0.2437439-0.144799
		c-0.0468273-0.1193008-0.0480061-0.242487-0.0305748-0.3671994c0.0153103-0.094928,0.0497513-0.1834184,0.0943012-0.2681975
		c0.0795765-0.1461127,0.1966267-0.2498448,0.3538818-0.3073528c0.0449028-0.0117184,0.0883999-0.0077124,0.1299839,0.0136781
		c0.2013779-0.0110794,0.1960449-0.2552686,0.3552094-0.3196163c-0.0118408,0.2269669-0.0306587,0.2776568-0.2579651,0.6263632
		c0.4115314-0.24874,0.7312317-0.433324,1.1525707-0.4080449c0.7041874,0.0422494,1.0685463,0.4837565,1.3063564,1.0367811
		c0.2010345,0.4675019,0.0977612,0.9649727-0.2645817,1.3342719c-0.2014999,0.2053683-0.3469105,0.359735-0.1688747,0.6361647
		c-0.1100693,0.1391544-0.2744904,0.1951485-0.422533,0.2770076c-0.0954418,0.0349026-0.1945724,0.0480738-0.2954197,0.0522199
		c-0.1512775,0.0041614-0.3025665,0.0038304-0.4538631,0.0007954c-0.0998821-0.0028892-0.1979256-0.0162106-0.2907696-0.0553489
		C21.7455864,4.4240355,21.4690437,4.2344346,21.3970432,3.9032495z"/>
	<path fill="#20211E" d="M8.2038488,10.9944191c-0.1765251-0.4136629-0.1878605-0.8241339,0.0997353-1.1875544
		c0.2274494-0.2874165,0.4839258-0.5505295,0.6001873-0.9093084c0.4351959-0.4104624,0.88311-0.4107161,1.3991756-0.0007954
		c-0.0742121,0.2098589-0.0476151,0.3882685,0.1754293,0.4856844c0.1860762,0.0812683,0.2415981,0.2558594,0.324501,0.413146
		c-0.0144777,0.0692158-0.0569134,0.1126709-0.1235065,0.1341572c-0.0936384,0.0037766-0.1661072-0.0427618-0.2352428-0.0979347
		C10.3613024,9.761425,10.2837467,9.6849489,10.1977015,9.618c-0.5706406-0.3284292-0.9444513-0.2756948-1.4953289,0.213129
		C8.5847435,9.955184,8.5305233,10.131135,8.3816481,10.2295408c-0.1462307,0.221343,0.017436,0.4972658-0.126215,0.7184448
		C8.238431,10.9635544,8.221139,10.9789867,8.2038488,10.9944191z"/>
	<path fill="#1F211E" d="M10.7025461,9.89608c0.0334425-0.0334959,0.0668859-0.0669909,0.1003304-0.1004877
		c0.14396,0.1002045,0.0909748,0.3479042,0.2997112,0.3995972c0.2135582,0.1410017-0.0083818,0.4532175,0.23036,0.5843706
		c0.1041298,0.172123,0.0373116,0.3320465-0.0336962,0.4919462c-0.0800047,0.1442385-0.1441946,0.2966452-0.2185211,0.4441919
		c-0.0428448,0.0600119-0.0912104,0.1086206-0.1746559,0.0786076c-0.2459126-0.0244999-0.2824163,0.2420769-0.4741383,0.377305
		c-0.048316-0.413352,0.3732891-0.4853945,0.4688072-0.884923c-0.4685926,0.4235392-0.8608704,0.8034506-1.4811258,0.7148552
		c-0.6313829-0.0901842-0.9652367-0.485486-1.215766-1.0071268c-0.0000029,0.0000029,0.0003176-0.0003414,0.0003176-0.0003414
		c0.0763969-0.0554819,0.0195026-0.1930227,0.1373281-0.2230501c0.1708641,0.0469084,0.1919794,0.2134953,0.261672,0.3371487
		c0.2943125,0.5221882,1.0704842,0.7963142,1.61024,0.3414192c0.0861845-0.0742073,0.1679029-0.1528177,0.2420034-0.2390537
		c0.237731-0.3135223,0.3951969-0.6408491,0.2147446-1.0426388C10.6302671,10.0790787,10.6151791,9.9774151,10.7025461,9.89608z"/>
	<path fill="#222122" d="M11.599966,10.095583c-0.2322264-0.3329983-0.4644518-0.6659966-0.6966772-0.9989948
		c-0.4037828-0.7409878-0.6224861-1.5284801-0.5983028-2.3769145c0.1224966-0.9862618,0.2437859-1.9730392,0.8311014-2.8229442
		c0.0691242-0.0498385,0.1445274-0.0606573,0.2254238-0.0353575c0.1208715,0.0820849,0.0517693,0.1779947,0.0205851,0.2713995
		C11.2465,4.3614254,11.1355972,4.6011457,11.0707216,4.8608189c-0.144846,0.3787866-0.1829309,0.783011-0.2809,1.1729531
		c-0.1600704,0.8530765,0.0206022,1.6679597,0.2752399,2.4740567c0.1169052,0.4491386,0.3214407,0.8583698,0.5746107,1.2454891
		c0.0318842,0.0691299,0.0449572,0.1413574,0.0359154,0.2172413C11.663023,10.019804,11.6376715,10.0614481,11.599966,10.095583z"/>
	<path fill="#202120" d="M11.2025557,3.9031336c-0.5082378,0.8632882-0.6295013,1.8370712-0.7997828,2.7968571
		c-0.0665493,0.0586505-0.1330891,0.0586491-0.1996212-0.0000305c0.0574665-1.5478148,0.5777664-2.899106,1.6989574-3.9952509
		c0.0590057,0.0667551,0.0594587,0.1337552,0.000844,0.2010028c-0.0599718,0.1104329-0.1199436,0.2208657-0.1799145,0.3312988
		c0.0115385,0.0457633,0.0069466,0.0898497-0.0130882,0.1325042C11.5690956,3.5740123,11.4368935,3.7871466,11.2025557,3.9031336z"
		/>
	<path fill="#1A2310" d="M10.2031517,6.6999602c0.0665417,0.0000067,0.1330833,0.0000143,0.1996231,0.0000257
		c-0.0022087,0.6832342,0.1963377,1.3276267,0.3916855,1.9710965c0.0428314,0.1410847,0.1205454,0.2709675,0.108819,0.4255056
		C10.6125422,9.055584,10.779789,8.5469713,10.396246,8.6007109c-0.3541613-0.1558714-0.2507839-0.5201511-0.3602638-0.7879109
		c-0.0053005-0.0815063,0.0108232-0.155592,0.0753756-0.2123117C10.2949409,7.3158832,10.1620378,6.9990654,10.2031517,6.6999602z"
		/>
	<path fill="#212120" d="M20.2972889,2.5054691c-0.6166363-0.3671093-1.2297249-0.7388521-1.698658-1.2988435
		c0.1012001-0.162365,0.2202091-0.2923414,0.2947826,0.0035272c0.071682,0.2844032,0.2296791,0.4114448,0.5163612,0.3906807
		c0.0333748-0.0308002,0.0726948-0.0481199,0.1179848-0.0523645c0.1616173,0.0163646,0.2889862,0.1027153,0.4111195,0.2001832
		c0.1268578,0.1188607,0.2511063,0.2403051,0.3369808,0.3945335c0.0494576,0.0981445,0.0993671,0.1965287,0.0635929,0.3120437
		C20.32551,2.4719932,20.3113995,2.4887311,20.2972889,2.5054691z"/>
	<path fill="#301C47" d="M10.1134758,7.7888775c0.0943089,0.2705879,0.1886168,0.5411768,0.2828474,0.811799
		c-0.0311756,0.0987186-0.0622749,0.197402-0.0933752,0.2960854C9.8364573,8.7220888,9.3700218,8.645648,8.9037714,8.8975477
		C8.6845703,8.8694553,8.6841125,8.7411261,8.7616997,8.5816069c0.0786238-0.1616526,0.1614208-0.3212767,0.2423906-0.4817896
		C9.0414295,8.0619354,9.081418,8.0569057,9.1245537,8.0898838C9.164732,8.1525517,9.1717196,8.2208586,9.158742,8.2923412
		C9.1442938,8.394392,9.0418377,8.546567,9.2816305,8.5013723c0.2386923-0.0530472,0.4786339,0.0019779,0.7150736,0.0037479
		c0.0844069-0.1904869-0.0432959-0.3630714,0.0044222-0.5352674C10.016511,7.8955812,10.047473,7.8312607,10.1134758,7.7888775z"/>
	<path fill="#1E211C" d="M10.7952929,12.4579258c0.7045898-0.216423,1.4091749-0.1638079,2.1137609-0.1387186
		c-0.000001,0.0462389-0.000001,0.0924797-0.0000029,0.1387186C12.2044659,12.4579258,11.4998798,12.4579258,10.7952929,12.4579258z
		"/>
	<path fill="#5B1884" d="M12.6970377,11.7753401c0.0946035,0.0839624,0.2690897,0.1336756,0.2303505,0.2872095
		c-0.0403728,0.1600094-0.2106638,0.1213913-0.3376875,0.1218138c-0.4944305,0.0016489-0.9888926,0.0019436-1.4833021-0.0021515
		c-0.1880016-0.0015564-0.3979006,0.0010242-0.2289562-0.2889423c0.0215187,0.0013256,0.0430374,0.0026512,0.0645838,0.0037956
		c0.2364655,0.0907469,0.4668598-0.0182533,0.7006073-0.0226879c0.1350508-0.0046539,0.2699556-0.0045042,0.4049578-0.0034351
		c0.0455828-0.0008259,0.0908566,0.0026197,0.1361713,0.0075912c0.1424465,0.0096731,0.3057203,0.1094131,0.3962679-0.0957241
		C12.6172132,11.7541914,12.6563406,11.7518225,12.6970377,11.7753401z"/>
	<path fill="#53158D" d="M21.2724571,1.4942293c-0.0311852,0.0040869-0.0625038,0.0063365-0.0939541,0.0067488
		c-0.5989418-0.0903744-1.1971874-0.1183375-1.7935658,0.0200721c-0.1283321-0.0264237-0.2291145-0.1031691-0.2099152-0.2336007
		c0.0192356-0.1306989,0.155405-0.0938171,0.247221-0.0943474c0.5318069-0.0030715,1.0636692,0.0024277,1.5954552-0.0019931
		C21.235342,1.1892998,21.3292255,1.2741971,21.2724571,1.4942293z"/>
	<path fill="#8F14D0" d="M19.3849373,1.5210502c0.0248623-0.0947349,0.0465889-0.2028105,0.1692181-0.205084
		c0.4876614-0.009041,0.9755096-0.0080937,1.4631882-0.0165225c0.1521511-0.0026298,0.0896606,0.1492289,0.1611767,0.2015673
		c-0.1049442,0.0997398-0.2098713,0.1995125-0.3147984,0.2992852c-0.0445385,0.0011157-0.0792236-0.0168078-0.1043816-0.0536176
		c-0.0160179-0.0388651-0.0270519-0.0791612-0.0354061-0.1193715c-0.4028435-0.2029973-0.8149395-0.0828767-1.2243347-0.0408463
		c-0.0289154,0.0112032-0.058857,0.0159993-0.0898247,0.0143807C19.4018841,1.5741179,19.3936043,1.5475236,19.3849373,1.5210502z"
		/>
	<path fill="#27202D" d="M11.1980495,11.2945232c0.0344667-0.1666126,0.0689335-0.3332243,0.1034002-0.4998379
		c-0.0250731-0.0224295-0.0332384-0.044651-0.0245371-0.0666771c0.0086565-0.0219107,0.0172262-0.0328732,0.0257492-0.0328732
		c0.5130062,0.0411072,0.6930122,0.504283,1.0091038,0.7949743c-0.0167885,0.0144043-0.033576,0.0288086-0.0503006,0.0433617
		c-0.2949562,0.0478477-0.3989067-0.2274809-0.5935946-0.3477316c-0.1430912-0.0744858-0.1662073,0.0597897-0.2254066,0.130724
		c-0.0650969,0.0726109-0.1392355,0.1223164-0.2432833,0.0977497c-0.0266943-0.026391-0.0355968-0.0529366-0.0270548-0.0796041
		C11.1806831,11.307888,11.1893158,11.2945232,11.1980495,11.2945232z"/>
	<path fill="#192213" d="M21.2929649,0.9814602c-0.6899967,0-1.3799896,0-2.0699825,0
		c-0.0002804-0.0138522-0.0005608-0.0277044-0.0008411-0.0415565c0.6900101,0,1.3800201,0,2.0700302,0
		C21.2924347,0.9537559,21.2926979,0.967608,21.2929649,0.9814602z"/>
	<path fill="#411771" d="M10.1134758,7.7888775c-0.0073633,0.0747328-0.0147257,0.1494646-0.022089,0.2241974
		c-0.0460835,0.0171165-0.0869684,0.007863-0.1234627-0.0239058C9.829278,7.7361469,9.8751593,7.4304371,9.7354555,7.1782136
		c-0.0296793-0.0289221-0.0482178-0.0641742-0.0570831-0.104506c0.0302439-0.1159797,0.0759687-0.2393913,0.2123108-0.2345448
		c0.1291637,0.0045905,0.1126871,0.1345072,0.1278744,0.2290998c0.0285425,0.1777768,0.0615339,0.3548398,0.0927372,0.5322127
		C10.1120625,7.6632848,10.1127691,7.7260814,10.1134758,7.7888775z"/>
	<path fill="#212122" d="M11.3026619,10.6951351c-0.0000343,0.0331869-0.0004301,0.06637-0.0011997,0.0995493
		c-0.3600044-0.1025486-0.1315298-0.400013-0.1988745-0.5994949C11.430995,10.1640387,11.4372721,10.1797247,11.3026619,10.6951351z
		"/>
	<path fill="#232124" d="M22.9942646,4.586122c0.0861263-0.1642923,0.2346687-0.1941791,0.400919-0.1859446
		c0.0669346,0.0007787,0.1338825,0.001586,0.2008305,0.0023928c-0.0415039,0.2028666-0.0846481,0.4046779-0.3139763,0.4865088
		c-0.0811424-0.0594554-0.1336746-0.1492996-0.21908-0.2044725C23.0308895,4.6580968,23.0082741,4.6250491,22.9942646,4.586122z"/>
	<path fill="#6C07EB" d="M9.094018,8.2905731c0.0082283-0.0617876,0.0164576-0.1235743,0.0246868-0.1853619
		c0.0228615-0.1560779,0.0934467-0.2895722,0.1938238-0.408968c0.0189762-0.0163398,0.0278816-0.0370116,0.0267143-0.0620155
		c0.0514984-0.126637,0.1432848-0.1770039,0.2778521-0.1465955c0.0468197,0.0602646,0.0556087,0.1279979,0.0398607,0.2006831
		C9.5032034,7.909471,9.4580135,8.2169266,9.1562805,8.3216143C9.1355476,8.3113327,9.1147823,8.3009529,9.094018,8.2905731z"/>
	<path fill="#411771" d="M9.5916862,7.4784851C9.5074549,7.5303206,9.4232244,7.5821562,9.339118,7.6341095
		c0.049264-0.2253389,0.1245975-0.4349513,0.3393774-0.5602746c0.0123196,0.0124102,0.0251656,0.024519,0.038415,0.0361996
		C9.764782,7.1624255,9.7704535,7.2240028,9.756711,7.2901168C9.7257833,7.3738494,9.6811399,7.4458551,9.5916862,7.4784851z"/>
	<path fill="#8C0FE3" d="M11.2153149,11.4199924c0.0578394-0.0510311,0.1156788-0.1020622,0.1735172-0.1530933
		c0.1188173,0.1026583,0.0715237,0.2190542,0.0288124,0.3355646c-0.0410795,0.0893621-0.096468,0.1688604-0.1671724,0.2376423
		c-0.0971918,0.0708265-0.192235,0.1602764-0.317378,0.0481796l-0.0282192-0.0020342c0,0-0.0274076,0.0070162-0.02742,0.0070162
		c0.0095301-0.0329866,0.0190725-0.0659752,0.0286169-0.0989618c0.034997-0.0262623,0.0699921-0.0525246,0.1049862-0.0787859
		C11.0656013,11.6076651,11.1106348,11.4932461,11.2153149,11.4199924z"/>
	<path fill="#27202D" d="M11.5999651,10.095583c0.0033159-0.0389185,0.0066309-0.077837,0.0099468-0.1167545
		c0.1710014-0.0314808,0.2505007,0.0825787,0.3257933,0.2039328c0.0254784,0.0685768,0.0273914,0.1345186-0.0238514,0.1937885
		c-0.0047569,0.0401716-0.0095139,0.0803432-0.0143108,0.1205301C11.7983227,10.3632574,11.6991444,10.2294197,11.5999651,10.095583
		z"/>
	<path fill="#1C231C" d="M11.9029531,2.9057121c-0.0002813-0.0670006-0.0005627-0.1340015-0.000844-0.2010026
		c0.1101532,0.0032539,0.2282829-0.01738,0.3002882,0.1001298C12.130228,2.9204023,12.0120268,2.8995311,11.9029531,2.9057121z"/>
	<path fill="#222123" d="M12.6970377,11.7753401c-0.0331049,0.0034447-0.0654478,0.0104208-0.0970278,0.0209312
		c-0.0343695,0.030817-0.0736771,0.0396194-0.1180916,0.0267668c-0.117033-0.0696592-0.213829-0.1528521-0.2023191-0.3071394
		c0,0,0.0319757-0.0257435,0.0320711-0.0257664C12.5002012,11.5042458,12.6061239,11.629673,12.6970377,11.7753401z"/>
	<path fill="#212122" d="M9.3125286,7.6962433C9.3172445,7.8653889,9.2183886,7.985496,9.1186647,8.1051912
		c-0.038167-0.0017929-0.0763741-0.0036058-0.1145773-0.0053959C9.0865898,7.949791,9.1243868,7.7656503,9.3125286,7.6962433z"/>
	<path fill="#212121" d="M13.0012331,3.9030054c0.0073156-0.3845897,0.3465557-0.5116706,0.58325-0.6798639
		c2.764966-1.9647689,6.2967768-0.1957722,6.7351332,2.9013097c0.3246174,2.293509-1.3368492,4.5644164-3.6004562,4.8920331
		c-1.3054581,0.1889429-2.4039822-0.2293949-3.4201031-0.9802265c-0.1721983-0.1272402-0.3326473-0.2857866-0.2996025-0.5388069
		c-0.006773-0.0488758-0.0196066-0.0964785-0.0478916-0.1369648c-0.5295191-0.7578754-0.5343342-1.0014067-0.0336523-1.7763739
		c0.0753298-0.0480838,0.1458616-0.0379024,0.2131815,0.016706c0.0417728,0.0712576,0.0515127,0.1482897,0.0438089,0.2285638
		c-0.0703802,0.2987795,0.0517969,0.4319458,0.354949,0.4317045c0.5260935-0.0004177,1.0522184-0.0021496,1.5778627,0.0009508
		c0.5110455-0.0389853,0.5240889-0.0576496,0.3386879-0.4872465c-0.1940689-0.0687146-0.3967953-0.0220413-0.5923891-0.0499263
		c-0.1715889-0.0244641-0.3882446-0.0003867-0.3868246-0.2744346c0.0361013-0.0746274,0.099638-0.1076856,0.1781597-0.1177759
		c0.0993681-0.003428,0.1974449,0.0157661,0.2948427,0.0315723c0.2195578,0.0356317,0.3901014,0.0546412,0.3424654-0.2755933
		c-0.0195227-0.1353483,0.1577692-0.2406607,0.2436867-0.3609905c0.6067839-0.8498244,0.303834-1.4531393-0.4047594-1.9310093
		c-0.717782-0.4840679-1.6259995-0.3180151-2.2058859,0.3265057c-0.1135321,0.1261864-0.2266283,0.2506156-0.1172657,0.4352837
		c0.0628119,0.0638609,0.1257248,0.1275573,0.1560831,0.2146778c0.2853575,0.4137659,0.418294,0.4344316,1.0835133,0.1671405
		c0.3981915,0.0989647,0.1912785,0.3027382,0.0679903,0.464963c-0.3500891,0.4606471-0.803566,0.82056-1.2199631,1.2164841
		c-0.116621,0.1451483-0.1990643,0.3003073-0.1956062,0.4964476c0.0017977,0.1020164-0.0439386,0.1994333-0.164854,0.2136564
		c-0.1209183,0.0142241-0.1758146-0.0732241-0.2148418-0.1686783c-0.3252583-0.7955518-0.3035984-1.6099048-0.1437674-2.4360094
		C12.2980585,5.0496249,12.734971,4.5162406,13.0012331,3.9030054z"/>
	<path fill="#1F221C" d="M13.0012331,3.9030054c0.0925817-0.0266607,0.1027441-0.1819983,0.3160591-0.1302054
		c-0.4775209,0.6650248-0.9548512,1.3327632-1.0718946,2.1189504c-0.1162643,0.7809443-0.1562786,1.5948024,0.260643,2.3892555
		c0.1415815-0.2388935,0.0741529-0.589458,0.3955755-0.6824913c-0.137599,0.2762618-0.0361853,0.6099062-0.2517996,0.8829699
		c-0.1211147,0.1533842,0.09482,0.3208475,0.1567965,0.4838028c0.0667171,0.1754217,0.3699617,0.271349,0.1928644,0.5321474
		c-0.0713491-0.0275946-0.1426773-0.0552053-0.2140036-0.0828161c-0.0188046-0.0137882-0.0376081-0.0275764-0.0568256-0.0409451
		c-0.14851-0.1812801-0.2604685-0.3895006-0.4177351-0.5651131c-0.0615606-0.0839052-0.1062012-0.1755905-0.134347-0.2757111
		c-0.4678583-1.3488994-0.4818983-2.6765347,0.1843605-3.9722862c0.0330963-0.0968943,0.0844479-0.1840014,0.1468344-0.2645097
		c0.108077-0.1214399,0.2151814-0.2445869,0.3260441-0.3644767c0.0196171-0.0120447,0.0396013-0.0236342,0.0595865-0.0352237
		C12.9293394,3.8985703,12.9652853,3.9007881,13.0012331,3.9030054z"/>
	<path fill="#C21CD3" d="M11.7071047,3.3028274c0.0208549-0.0182085,0.0261459-0.0401623,0.0159035-0.0658391
		c0.4355755-0.2384784,0.8609123,0.0011506,1.1703939,0.659379c-0.0000105-0.0000143,0.0017462-0.0004652,0.0017462-0.0004652
		c-0.0576801,0.0985339-0.1184845,0.1917057-0.2577839,0.1502652c-0.1258793-0.0776248-0.0586166-0.2429309-0.1540976-0.3348465
		c-0.1842051-0.3935504-0.5232239-0.2107294-0.8104067-0.2186556C11.6412277,3.4216604,11.6463242,3.3572268,11.7071047,3.3028274z"
		/>
	<path fill="#7309EC" d="M12.2870121,8.634758c0.0355301,0.0535727,0.0710592,0.1071444,0.1065884,0.160717
		c0.1323166,0.204855,0.2616272,0.4116611,0.3988886,0.6133041c0,0-0.0069418,0.005723-0.006979,0.0057812
		c0.0107002,0.0561533,0.0214367,0.1122484,0.0321732,0.1683445c-0.0193624,0.0128174-0.0387249,0.0256348-0.0581007,0.0385761
		c-0.294673-0.0478659-0.3944883-0.2966547-0.5288343-0.5103273c-0.0998764-0.2031307-0.1983271-0.4071379-0.3058596-0.6068716
		c-0.0774803-0.1727152-0.1630468-0.3429661-0.1671801-0.5386658c0.010561-0.0510969,0.0404892-0.086729,0.086771-0.1095867
		C12.2357407,7.9772606,12.1340656,8.3782158,12.2870121,8.634758z"/>
	<path fill="#212121" d="M20.9957104,4.1033258c0.3159523,0.4496093,0.5339508,0.9319396,0.5011578,1.4980474
		C21.3298149,5.1020265,21.1627636,4.6026759,20.9957104,4.1033258z"/>
	<path fill="#6905F1" d="M11.9118538,10.3765497c-0.0095501-0.0548162-0.0191002-0.1096334-0.0286503-0.1644497
		c0.0156708-0.01618,0.0313425-0.0323601,0.0467672-0.0488482c0.1484995-0.0419588,0.2941637-0.089571,0.401926-0.2095556
		c0.1463127-0.1258173,0.2645206-0.2886696,0.458703-0.35217c0,0,0.0270176-0.0185404,0.0270519-0.0185804
		C12.803525,9.977067,12.3322859,10.3899441,11.9118538,10.3765497z"/>
	<path fill="#212121" d="M19.5977592,2.4053383c0.3499718,0.1164165,0.5831337,0.3495755,0.6997967,0.6991682
		C20.024601,2.9111154,19.7913017,2.6780932,19.5977592,2.4053383z"/>
	<path fill="#212121" d="M20.297411,3.1043222c0.1609135,0.0878236,0.2930584,0.1971614,0.2997894,0.4002976
		C20.4383755,3.4152319,20.3053913,3.3065143,20.297411,3.1043222z"/>
	<path fill="#212121" d="M19.197197,2.105973c0.2034626,0.0064912,0.3128967,0.1386139,0.4007854,0.2995265
		C19.3957596,2.3973479,19.2865753,2.2648921,19.197197,2.105973z"/>
	<path fill="#212121" d="M18.49856,1.7060707c0.1716137-0.0092816,0.3251305,0.017364,0.3995934,0.2009786
		C18.7403927,1.8888249,18.6001472,1.8358184,18.49856,1.7060707z"/>
	<path fill="#AE19CF" d="M22.7143269,5.7073288c-0.0414238,0.1251292-0.0828438,0.2502584-0.1242676,0.3753877
		c-0.0705776,0.1308327-0.0581017,0.3181849-0.2498665,0.3667998c-0.2243309-0.0064597-0.1863937-0.173738-0.1926899-0.3139081
		c-0.0137348-0.3057876-0.0649433-0.6021581-0.2207642-0.8726325c-0.0181847-0.0531831-0.0283909-0.1075616-0.0330524-0.1634393
		c-0.008316-0.2673101,0.1192207-0.409976,0.3889542-0.3921156c0.2664185,0.0176411,0.5257492-0.0659199,0.791214-0.0407434
		c0.104332,0.0989046,0.0778618,0.1910238-0.0142059,0.2798505c-0.065979,0.0418482-0.1391888,0.063314-0.2158203,0.0726304
		c-0.5571499,0.0166793-0.6692162,0.1848269-0.4360695,0.6856375c0.0585346,0.1257377,0.114994-0.043149,0.1817226-0.0339813
		C22.6374912,5.6636209,22.6784935,5.6768751,22.7143269,5.7073288z"/>
	<path fill="#212121" d="M21.3970432,3.9032495c0.173727,0.2283247,0.5413971,0.3184254,0.4997902,0.7002189
		c0.0086555,0.1417327,0.1285152,0.337285-0.1621552,0.3343296c-0.0848274-0.0666308-0.1124763-0.14252-0.0379333-0.2348185
		c-0.1059799-0.1253486-0.2355328-0.2381768-0.3108654-0.3798018C21.319416,4.1982307,21.0938854,4.0317101,21.3970432,3.9032495z"
		/>
	<path fill="#421F4A" d="M22.0094471,5.192451c0.1503792,0.2656541,0.1780701,0.5581231,0.1912842,0.8548803
		c0.0062523,0.1404505-0.0381546,0.3149424,0.1865311,0.337276c0.0671444,0.0706506,0.0707626,0.141717,0.0013962,0.2132597
		c-0.1987228,0.1008902-0.2687435,0.0028353-0.2908783-0.1825342c-0.0168858-0.1414433,0.0475311-0.3042941-0.1014748-0.4137287
		c-0.0560455-0.0661359-0.0548801-0.1329699-0.002449-0.2004285c0.1042538-0.1437764-0.0080357-0.2190061-0.0957451-0.3020163
		C21.7976723,5.3470664,21.8604622,5.254138,22.0094471,5.192451z"/>
	<path fill="#BA19D9" d="M22.7143269,5.7073293c-0.0393639-0.0021801-0.0787296-0.0043597-0.1180935-0.0065393
		c-0.0738945-0.1728005,0.0441036-0.3007994,0.1022739-0.443058c0.0693989-0.1430154,0.1836643-0.248755,0.2972088-0.3551016
		c0.0823898-0.0452666,0.0987148-0.121666,0.0973949-0.2063789c-0.0327053-0.0262294-0.0410347-0.0475473-0.0251274-0.0640821
		c0.0134544-0.0139885,0.0274715-0.0210595,0.0422039-0.0210595c0.2193966-0.0074148,0.1836624,0.1427102,0.1718884,0.2779927
		c-0.0000381-0.0000234,0.0052338,0.0003476,0.0052338,0.0003476c-0.1136379,0.163043-0.1583347,0.3688793-0.3143177,0.5056381
		C22.8867702,5.4991689,22.8005486,5.6032491,22.7143269,5.7073293z"/>
	<path fill="#172213" d="M21.1976604,3.4039197c-0.0334663,0.000035-0.0669308,0.0000706-0.100399,0.0001082
		c-0.3038216-0.1546202-0.0157051-0.4082084-0.1003742-0.5994706c-0.0807056-0.0999212-0.0807972-0.1997604,0.0003052-0.2995172
		c0.042675-0.0799546,0.116539-0.0976748,0.1984653-0.0993075C21.3087673,2.7382364,21.3060608,3.070972,21.1976604,3.4039197z"/>
	<path fill="#162213" d="M22.0094452,5.1924505c-0.0371208,0.1022491-0.0742416,0.2044978-0.1113472,0.3067279
		C21.8959694,5.51548,21.8990707,5.535615,21.8905582,5.5473022c-0.0162239,0.0222721-0.0390759,0.0397224-0.0591793,0.0591741
		c-0.0693588-0.2975297-0.3136826-0.5690279-0.134634-0.9035077c0.0016441,0.0809841,0.0181904,0.1547709,0.0961094,0.1989498
		c0.1149693,0.0655055,0.1091557,0.220264,0.2159557,0.2918062C22.00881,5.1937246,22.0094471,5.192451,22.0094452,5.1924505z"/>
	<path fill="#212121" d="M20.9971924,2.5050402c-0.0000992,0.0998394-0.0001965,0.1996789-0.0002995,0.2995176
		c-0.1097813-0.003366-0.2276421,0.0174758-0.2993603-0.0998333c-0.0694408-0.0548737-0.1523952-0.1019466-0.1236343-0.2137318
		c0.0555134-0.0770185,0.1163521-0.1406176,0.2228966-0.08693C20.839838,2.4847965,20.914465,2.5029445,20.9971924,2.5050402z"/>
	<path fill="#212120" d="M20.5974312,2.5078371c0.0333652,0.0656292,0.0667324,0.1312585,0.1001015,0.1968875
		c-0.157217-0.0186794-0.3666286,0.0673203-0.400238-0.1992612c-0.0000057,0.0000057,0.0003242-0.0003657,0.0003242-0.0003657
		C20.3982868,2.4262662,20.498312,2.4174759,20.5974312,2.5078371z"/>
	<path fill="#232124" d="M22.9729919,5.3950882c0.0580311-0.1975465,0.1286659-0.3872666,0.3143539-0.5055761
		C23.2649708,5.1091628,23.2075863,5.3071222,22.9729919,5.3950882z"/>
	<path fill="#212121" d="M22.3886585,6.597867c-0.0004425-0.0710521-0.000885-0.1421046-0.0013618-0.2132082
		c0.0675774-0.1006441,0.1351871-0.2012358,0.2027798-0.3018851C22.6053562,6.2866125,22.565155,6.468843,22.3886585,6.597867z"/>
	<path fill="#162213" d="M21.9938564,5.8011756c0.0008202,0.0668025,0.0016403,0.133606,0.0024548,0.2004189
		c-0.0000057,0.0943561-0.0000057,0.1887021-0.0000057,0.2830482C21.8939877,6.1187024,21.8465443,5.9543242,21.9938564,5.8011756z"
		/>
	<path fill="#232124" d="M21.1976604,3.403919c-0.0981236-0.3325431-0.0981674-0.6652794-0.0019836-0.9981954
		c0.3675003-0.4549677,0.7256126-0.9059441,1.4219074-0.8054001c0.4756641,0.0686848,1.0044746,0.5760119,1.0759907,1.0950294
		c0.0792122,0.5748472-0.356678,1.2149632-0.986681,1.4489686c-0.4339828,0.1611962-1.0120125-0.0651069-1.2809582-0.5068822
		c-0.0231724-0.0380614-0.0127258-0.0965569-0.0178967-0.1455605c0.2262096-0.0379801,0.3448219,0.1587174,0.5162163,0.2396884
		c0.3254013,0.153728,0.6433601,0.2444615,0.9610214-0.010154c0.0626335-0.0660305,0.1258965-0.1311049,0.1951294-0.1899905
		c0.4518166-0.4745426,0.4121914-1.0494277-0.0992832-1.4154425c-0.0419922-0.0199606-0.0809593-0.0444431-0.1185474-0.0715303
		C22.4362278,1.7519779,22.2519093,1.77028,21.77211,2.1548264C21.7253036,2.2059,21.6777668,2.2562659,21.6322803,2.3085356
		c-0.1949463,0.2064912-0.2235069,0.4566393-0.194664,0.7234685c0.0167847,0.1553071,0.1026154,0.3154218-0.026226,0.4627879
		C21.340147,3.4645009,21.2689037,3.4342098,21.1976604,3.403919z"/>
	<path fill="#421F4A" d="M22.00881,5.1937246c-0.1451321-0.0432196-0.2180023-0.1398182-0.2159176-0.2918096
		c0.1324711-0.0654531-0.0648079-0.2456241,0.103941-0.298461c0.0983429,0.0005884,0.1966858,0.001163,0.2950287,0.0017376
		c0.1699276,0.0771008,0.3398952,0.0764279,0.509903,0.0002737c0.0975094-0.0063553,0.1950207-0.0127106,0.2925148-0.0192041
		c0.0386086,0.0081758,0.0772285,0.0164909,0.1158791,0.0248275c-0.0020714,0.0291252-0.0077553,0.0575132-0.0170345,0.0851736
		c-0.2422352,0.0357437-0.4886436,0.1177397-0.7256813,0.096293C22.0214424,4.7612514,21.9751396,4.9237413,22.00881,5.1937246z"/>
	<path fill="#2B1F32" d="M20.5974312,2.5078366c-0.0999374-0.0009139-0.1998711-0.0018277-0.2998104-0.0027404
		c-0.0304813-0.1061418-0.0609627-0.2122853-0.0914421-0.3184283c0.0314007-0.0281076,0.0680199-0.044754,0.1098671-0.0507338
		c0.0414791-0.004076,0.0830173-0.005614,0.124342-0.0073705c0.1347027-0.0054302,0.2035656-0.15727,0.3415298-0.1540499
		c0.0049648,0.1431909,0.0099297,0.2863815,0.0148849,0.4295604C20.730341,2.4386539,20.6638851,2.4732454,20.5974312,2.5078366z"/>
	<path fill="#9011DD" d="M20.7819176,1.9745138c-0.1462955,0.0702188-0.0750904,0.4972553-0.4137783,0.2518449
		c0.0177326-0.1369112,0.1099815-0.2378379,0.1700859-0.3546484c0.0681114-0.0822506,0.1067486-0.21097,0.2568226-0.166744
		c0.0229034,0.0317804,0.0458031,0.0635613,0.0686893,0.0953361C20.8364544,1.8583688,20.809185,1.9164413,20.7819176,1.9745138z"/>
	<path fill="#232124" d="M22.7017651,4.6054654c-0.1700211,0.1340289-0.3399582,0.135993-0.5098534-0.0003004
		C22.3618298,4.6052833,22.5317993,4.6053743,22.7017651,4.6054654z"/>
	<path fill="#25202B" d="M10.3019686,11.4853134c-0.5207243,0.5256176-1.4191217,0.3777809-1.7990789-0.2981825
		c-0.0718765-0.1278687-0.1321039-0.2622757-0.1977053-0.3936672c-0.0777369-0.1992025-0.0786352-0.398325,0.0006399-0.5973597
		c0.0982037-0.133996,0.1964064-0.267992,0.2946091-0.4019871C8.6367702,9.825325,8.661726,9.8638878,8.6757336,9.9095211
		c0.0305367,0.1868744-0.0836573,0.3487453-0.096076,0.5252686c-0.0320206,0.4551163,0.1756239,0.7817545,0.5768185,0.9901352
		c0.250824,0.1459103,0.5080462,0.1764908,0.781703,0.0627279C10.0549746,11.4390993,10.1803255,11.3915749,10.3019686,11.4853134z"
		/>
	<path fill="#301C47" d="M8.6102514,9.9073687C8.6070042,9.8696299,8.603756,9.8318901,8.6004705,9.7941341
		c0.5381289-0.611063,1.1965075-0.6865711,1.7015619-0.1951704C9.9852695,9.7564993,9.6875334,9.398694,9.3710613,9.5660982
		C9.1265135,9.6250658,8.9437208,9.7938375,8.7382565,9.9225893C8.6931725,9.9378471,8.6504803,9.9325838,8.6102514,9.9073687z"/>
	<path fill="#25202B" d="M10.7025461,9.89608c0.2289696,0.509264,0.285224,0.9932241-0.2049971,1.3971205
		c-0.0986862-0.1244812-0.0498724-0.2540598,0.0010738-0.3733597c0.1341705-0.3141937,0.0564737-0.6122656-0.0509558-0.9108868
		c-0.0120497-0.0792933-0.0012331-0.1526175,0.0564632-0.2133408C10.5702696,9.8291016,10.6364079,9.8625908,10.7025461,9.89608z"/>
	<path fill="#7B0BE8" d="M10.5041304,9.7956133c0.0064774,0.0608454,0.0129557,0.1216908,0.019433,0.1825361
		c-0.0183601,0.0143147-0.0367193,0.0286303-0.0550737,0.0430746c-0.1261444,0.0025616-0.215251-0.0746708-0.3092251-0.1416683
		c-0.1262426-0.0961933-0.2680073-0.1621685-0.4182882-0.2114658C9.5955544,9.6038942,9.4109812,9.6374674,9.298151,9.4923048
		c0.3636827-0.2375374,0.6722708,0.0427628,1.0038824,0.1066532C10.3693981,9.6645136,10.4367647,9.7300634,10.5041304,9.7956133z"
		/>
	<path fill="#1C2311" d="M8.3058243,10.196104c-0.0002222,0.1991272-0.0004454,0.3982563-0.0006542,0.5973721
		c-0.003089,0.0822296-0.0199461,0.1575556-0.1010027,0.2006006c0.0057993-0.2639017,0.0112467-0.527813,0.018961-0.7916574
		c0.0002499-0.0085411,0.0233879-0.0224686,0.0363159-0.0230131C8.2746429,10.1787663,8.2903423,10.190012,8.3058243,10.196104z"/>
	<path fill="#7B0BE8" d="M10.5235634,9.9781494c0.3646049,0.4457188,0.1275682,0.8795624-0.0260038,1.3150511
		c-0.0652027,0.0640497-0.130394,0.1280994-0.1955881,0.192132c-0.4053946,0.1275749-0.8088388,0.3644581-1.2226152,0.0217466
		c0.0163336-0.0199718,0.0326672-0.0399437,0.0487881-0.0601835c0.2534609-0.1517353,0.5545406-0.0256357,0.8137407-0.1407061
		c0.3899879-0.1660862,0.5137892-0.4869261,0.5067043-0.8795156c-0.0026083-0.1445303-0.0746765-0.2943544,0.0457153-0.4250212
		L10.5235634,9.9781494z"/>
	<path fill="#20211E" d="M11.0914145,11.0758677c-0.0237331,0.0196133-0.0569839,0.0470924-0.0902357,0.0745716
		c-0.018858-0.0360699-0.0484648-0.0710287-0.0523567-0.1086445c-0.0021696-0.0209751,0.034359-0.058835,0.0605326-0.0673542
		C11.078289,10.9520016,11.0890036,11.0024023,11.0914145,11.0758677z"/>
	<path fill="#222123" d="M11.2153139,11.4199924c-0.0149279,0.1351833-0.0832796,0.2334757-0.2042732,0.2954674
		c-0.0039587-0.1697168,0.0592718-0.3096752,0.1870527-0.4209557C11.203804,11.3363466,11.2095594,11.3781691,11.2153139,11.4199924
		z"/>
	<path fill="#CA1BDB" d="M11.6678343,3.4905603c0.4116983-0.3714724,0.7024918-0.2096808,0.9344645,0.211551
		c-0.029521,0.2638135-0.2272482,0.4706626-0.2490635,0.7373681c-0.0270281,0.0923915-0.0756683,0.1651459-0.1747284,0.1918273
		c-0.2590609-0.21523-0.5942936-0.2909827-0.8713045-0.4736824c-0.0082598-0.0212765-0.0164175-0.0426459-0.0245743-0.0640149
		c0.0280752-0.0634975,0.0561514-0.1269948,0.0842266-0.1904924C11.4111729,3.724798,11.4822178,3.5659487,11.6678343,3.4905603z"/>
	<path fill="#770BE8" d="M10.9909487,8.6204414c-0.3385611-0.8491526-0.5165462-1.7163811-0.2963324-2.6284361
		c0.0436649,0.0306358,0.0748291,0.0709262,0.0941143,0.1205206c0.0405741,0.1227565,0.0413141,0.2501163,0.0430183,0.3772225
		c0.0030384,0.1913352-0.0152025,0.3844337,0.0448933,0.5715175c0.0243006,0.0911436,0.0374441,0.1842818,0.0498047,0.2774291
		c0.0090885,0.04529,0.0151024,0.0911655,0.0207958,0.1369424c0.0318069,0.1345391,0.0639954,0.2691011,0.0739889,0.4076118
		c0.0063343,0.1395473,0.0456018,0.2734175,0.0725794,0.4096918c0.0110159,0.0728321,0.0078125,0.144702-0.0124331,0.2157278
		C11.0627308,8.5552263,11.0324249,8.5923824,10.9909487,8.6204414z"/>
	<path fill="#6905F1" d="M10.9909487,8.6204414c0.0066204-0.0402679,0.0132408-0.0805349,0.0198622-0.1208019
		c0.3693285,0.1805992,0.355732,0.6029863,0.5622988,0.8864994c0.0438328,0.1037788,0.0942469,0.2061749,0.0864172,0.323823
		c-0.010973,0.0450335-0.0360126,0.0798225-0.0768442,0.1027708C11.2715187,9.471756,11.0696907,9.0765972,10.9909487,8.6204414z"/>
	<path fill="#9D14D8" d="M10.7152328,6.1033592c-0.0068426-0.0371318-0.0136843-0.0742636-0.0205708-0.1113744
		c0.050765-0.414299,0.0884132-0.8318787,0.2992802-1.2065506c0.0434027,0.0299382,0.0740776,0.0696845,0.092576,0.1189528
		c0.0755701,0.2576685-0.0548124,0.4963012-0.068306,0.7459574c-0.0075865,0.0492649-0.0203409,0.0973773-0.0354748,0.1448312
		C10.9165115,5.9173427,10.916173,6.0978184,10.7152328,6.1033592z"/>
	<path fill="#212121" d="M11.6678343,3.4905603c-0.1003256,0.1375189-0.2006521,0.2750378-0.3009796,0.4125566
		c-0.0547667,0.0000062-0.1095343,0.0000122-0.164299,0.0000176c0.1621647-0.2051432,0.242753-0.4787459,0.5045376-0.600302
		C11.6940145,3.3654051,11.6809244,3.4279826,11.6678343,3.4905603z"/>
	<path fill="#B019CE" d="M11.0157175,4.9126849c-0.0072374-0.0423965-0.0144758-0.0847926-0.0217447-0.1272197
		c0.0121555-0.2656612,0.1368132-0.484427,0.2886648-0.6918564c-0.0000105,0,0.0362396,0.0191803,0.0362396,0.0191803
		c0.1464987,0.3005691-0.053298,0.5258784-0.1672001,0.7701325C11.1133194,4.9242415,11.0678864,4.9340453,11.0157175,4.9126849z"/>
	<path fill="#6905F1" d="M11.8832035,10.2121c-0.0911102-0.0777302-0.1822205-0.1554594-0.2733116-0.2332306
		c-0.0090332-0.0554237-0.0180864-0.1108084-0.027174-0.1661644c-0.0000353,0.0000277,0.0263481-0.0218868,0.0263481-0.0218868
		c0.2616863,0.012023,0.3956614,0.1196623,0.2995806,0.3995428L11.8832035,10.2121z"/>
	<path fill="#910BF9" d="M20.59832,1.9062854c-0.0014076,0.1607107-0.0925961,0.2569627-0.2301254,0.3200282
		c-0.0261612-0.0003617-0.0474777-0.0106661-0.0640011-0.0308685c-0.1245956-0.1430125-0.2244434-0.3140676-0.4232635-0.3729726
		c-0.1270885-0.0786636-0.2541771-0.1573272-0.3812981-0.2360013c0.2014217-0.178517,1.2681675-0.269578,1.4174175-0.1146004
		c0.0046158,0.0047939-0.0749798,0.0905662-0.1153145,0.1385858C20.7300644,1.7064129,20.3890743,1.6174561,20.59832,1.9062854z"/>
	<path fill="#6D14AC" d="M19.8809299,1.8224722c0.25527-0.0050439,0.3713741,0.1475878,0.423254,0.3729855
		c-0.0329552,0.0001841-0.065649-0.002687-0.0980396-0.008708C20.0977631,2.0652688,19.9893475,1.9438704,19.8809299,1.8224722z"/>
	<path fill="#710AE0" d="M10.0089045,7.9856133c0.0280294,0.0076146,0.055563,0.0167232,0.0825415,0.0273929
		c0.0237322,0.1109972,0.040432,0.2240343,0.0727291,0.3324318c0.0776854,0.2607241,0.0291719,0.3673553-0.2766714,0.2999125
		C9.669116,8.5971918,9.4352274,8.6192265,9.2082548,8.6099386c-0.0333319-0.0464249-0.0333242-0.0928421-0.000268-0.1393538
		c0.1261415-0.0992136,0.2774439-0.093646,0.4248734-0.1026182c0.2083883,0.022336,0.2489061-0.1289577,0.2886839-0.2809601
		C9.9412374,8.0449686,9.9705563,8.0113592,10.0089045,7.9856133z"/>
	<path fill="#6C07EB" d="M9.2046576,8.4984055C9.205842,8.5355511,9.2070265,8.5726967,9.2082329,8.60989
		C9.132575,8.6788073,9.0169306,8.7390842,8.9603958,8.6502724C8.8670969,8.5037079,8.9988556,8.3935318,9.0940504,8.290596
		C9.094018,8.2905731,9.1136389,8.3044968,9.1136389,8.3044968C9.1731911,8.3554411,9.2107964,8.4166727,9.2046576,8.4984055z"/>
	<path fill="#9B10ED" d="M11.2017727,11.7926264c0.0347776-0.0657244,0.0695543-0.1314487,0.104331-0.1971722
		c0.2443132-0.008214,0.1415529-0.1884317,0.1464577-0.3071203c0.0085974-0.2080202,0.0738649-0.2796183,0.2576866-0.1298637
		c0.1559362,0.1962328,0.3915977,0.3104219,0.534647,0.5201435c-0.0007782,0.1260929-0.0542316,0.2282228-0.1434288,0.3139868
		c-0.1656895,0.0017023-0.3313799,0.0034056-0.4970703,0.0051079
		C11.5167685,11.8380375,11.2184448,12.0913925,11.2017727,11.7926264z"/>
	<path fill="#9910ED" d="M11.2017727,11.7926254c0.0861263,0.1625738,0.3188505,0.0377131,0.4025955,0.2050467
		c-0.2149363-0.0907469-0.5084553,0.2999659-0.6713629-0.1093683
		C11.0226536,11.8563995,11.1122131,11.8245125,11.2017727,11.7926254z"/>
	<path fill="#AF13EE" d="M12.5184574,11.7848692c0.02841-0.0049915,0.0555925-0.0011988,0.0815496,0.0113907
		c0.1362677,0.6131611-0.2825356,0.0941944-0.3976278,0.1946764c-0.0529451-0.1676922,0.0838919-0.1884394,0.184042-0.2377977
		C12.4341269,11.7479649,12.478179,11.7586422,12.5184574,11.7848692z"/>
	<path fill="#B512FB" d="M12.3977318,11.8011503c-0.0651217,0.0632706-0.1302433,0.1265421-0.1953583,0.1897993
		c-0.0336266,0.0005426-0.0672598,0.0010986-0.1008997,0.0016518c0.005662-0.1086273-0.0182886-0.227129,0.099617-0.2983294
		C12.3184519,11.6347084,12.3572531,11.7194691,12.3977318,11.8011503z"/>
	<path fill="#9410EB" d="M20.59832,1.9062855c-0.0995922-0.1044561-0.4169903,0.0505954-0.3436985-0.1927264
		c0.0732117-0.2430604,0.3484077-0.129503,0.5470676-0.1031498c-0.0021076,0.0315593-0.0043182,0.063067-0.0066166,0.0945638
		C20.7294731,1.7720733,20.6638966,1.8391794,20.59832,1.9062855z"/>
	<path fill="#9910ED" d="M11.6991529,11.19415c-0.3191748-0.0935431-0.1941633,0.1281166-0.1475687,0.2357054
		c0.0472355,0.1090698,0.2342777,0.1994581,0.0700483,0.321146c-0.1527042,0.1131496-0.2101097-0.0988531-0.315567-0.1555786
		c0.0276442-0.1094284,0.0552511-0.2188883,0.0828133-0.3284349c-0.0025549-0.1124907-0.0103111-0.2377729,0.1025543-0.2974176
		c0.1109238-0.0586157,0.171442,0.0278959,0.2120991,0.122036c0.0305862,0.0241327,0.0401087,0.0473566,0.0286465,0.0697107
		C11.7209616,11.1831923,11.7099791,11.19415,11.6991529,11.19415z"/>
	<path fill="#9D13E2" d="M11.6991529,11.19415c0.0014572-0.0341797,0.0029125-0.0683603,0.0043745-0.1025429
		c0.2207603,0.1024733,0.3275681,0.3594742,0.5761089,0.4242544c0.079566,0.0897064,0.1591682,0.1793756,0.2387962,0.2690268
		c-0.0401907,0.0053549-0.0804071,0.0107288-0.1206617,0.0161829c-0.0655804-0.0355549-0.1311207-0.071188-0.1966715-0.1068096
		C12.0366621,11.5246744,11.8069859,11.4204636,11.6991529,11.19415z"/>
	<path fill="#6C07EB" d="M10.0089045,7.9856133c-0.0045919,0.03859-0.0091839,0.0771785-0.0137768,0.115767
		c-0.368165-0.1721687-0.2406912-0.5330887-0.3120813-0.8182764c0.0112476-0.0577211,0.0224943-0.1154418,0.033803-0.1731157
		C9.8102045,7.0574746,9.894166,7.0215302,9.912034,7.1821442C9.9418621,7.4502411,9.976368,7.7178173,10.0089045,7.9856133z"/>
	<path fill="#7207F5" d="M9.2046576,8.4984055C9.1254787,8.4566469,9.106698,8.3865442,9.1135683,8.3044672
		c0.2562704-0.1271734,0.2203398-0.4894304,0.4889469-0.6066508c0.427578,0.2135668,0.248457,0.5050263,0.1018753,0.7923093
		C9.5378132,8.4928865,9.3712358,8.4956455,9.2046576,8.4984055z"/>
	<path fill="#7D05FE" d="M9.7043905,8.4901257C9.6669617,8.4413414,9.6295319,8.3925581,9.5921021,8.3437738
		c0.4015608-0.2088928,0.137742-0.4285192,0.0104246-0.6459503C9.5989504,7.6247807,9.5953846,7.5517454,9.5917521,7.4785972
		c0.0304327-0.0651832,0.0609312-0.1302547,0.091362-0.1954093c0.2257061,0.226294,0.1211195,0.5785437,0.3120852,0.8181744
		C10.0108862,8.3151016,10.0280838,8.5298977,9.7043905,8.4901257z"/>
	<path fill="#1E221A" d="M12.7016602,5.7009072c-0.1569405-0.1566734-0.126585-0.3320265-0.0323496-0.498795
		c0.2577639-0.4561625,1.2502174-0.9099307,1.8209496-0.7900305c0.6004477,0.126143,1.3136988,0.5904808,1.4497957,1.2419796
		c0.1077404,0.5157495-0.0868597,0.9108934-0.4100113,1.2513089c-0.249258,0.2625742-0.2508488,0.3984828,0.1688766,0.4950271
		c-0.3771343,0.0979719-0.6961126,0.2052999-1.0074701-0.0270424c-0.0133362-0.1502161,0.0907793-0.2178335,0.1980734-0.2834172
		c0.3730984-0.205689,0.605402-0.5278678,0.6707029-0.9376712c0.1478891-0.9280844-0.7274742-1.6282187-1.708169-1.3817225
		c-0.3127069,0.0785985-0.5845165,0.2341552-0.8118505,0.4636321c-0.0259047,0.0357432-0.054822,0.0693359-0.0843077,0.1019578
		C12.8393106,5.4352245,12.8161402,5.6000733,12.7016602,5.7009072z"/>
	<path fill="#252127" d="M17.7990494,7.0991178c-0.3040504-0.1984744-0.6429939-0.0589871-0.9637775-0.0970364
		c-0.1499252-0.0177836-0.3180447,0.0019774-0.3286495-0.2097921c-0.0336456-0.6718445,0.0472889-1.3330717,0.2015152-1.9863968
		c0.0779076,0.0894151,0.115633,0.1944695,0.1224194,0.3114338c0.0556526,0.412703-0.0670319,0.8123422-0.0952034,1.2193103
		c-0.0219975,0.3177867,0.0964928,0.451932,0.4212284,0.4295163c0.2276363-0.0157137,0.4589577-0.0171242,0.6875534,0.0192032
		c0.1740837,0.0406151,0.3106117,0.1333518,0.4020863,0.2887754C18.33078,7.277216,18.2688732,7.461678,18.1733818,7.6421881
		c-0.06744,0.100843-0.1661873,0.1495857-0.2825012,0.1692934c-0.3707638-0.0462275-0.7949123,0.0372558-1.0048161-0.4066367
		c0.038826-0.0044923,0.0776501-0.008985,0.1164761-0.0134783C17.0524979,7.340373,17.114769,7.329648,17.182333,7.3355708
		c0.0843754,0.0137415,0.1675949,0.0352926,0.2533073,0.0420632C17.6010475,7.3415074,17.908289,7.4931459,17.7990494,7.0991178z"/>
	<path fill="#1F221C" d="M13.1067362,7.5988631c-0.0683737-0.0001159-0.1367464-0.0002327-0.2051201-0.0003486
		c0.2220011-0.5556788,0.8067236-0.7916408,1.1193752-1.2677555c0.0770407-0.1173172,0.3194399-0.2394032-0.0197906-0.3298101
		c-0.0679655,0.0578532-0.1387568,0.0539613-0.2114401,0.0097194c0.0360193-0.3755798,0.3055143-0.3572154,0.5403671-0.2699146
		c0.3068514,0.1140633,0.2405462,0.3802562,0.1067448,0.5788627c-0.306859,0.4554887-0.7418671,0.7971106-1.1254473,1.1846013
		C13.2519922,7.5545206,13.1857519,7.5906863,13.1067362,7.5988631z"/>
	<ellipse fill="#1D2219" cx="14.350769" cy="8.7033024" rx="1.8084363" ry="0.0683958"/>
	<path fill="#1F211E" d="M18.1983032,5.8010764c0.147274-0.0001125,0.2947102-0.0046458,0.4417839,0.0007229
		c0.2085972,0.0076151,0.4377251-0.0887508,0.4136963,0.3221426c-0.01367,0.2337761,0.3647327,0.3966117,0.4441051,0.6763005
		c-0.1713181,0.2128353,0.1090641,0.5322919-0.1699142,0.7197022c-0.1255474-0.698566-0.5632229-1.1622467-1.1446991-1.5175729
		c0.0773792-0.0964031,0.2120056-0.0017529,0.3014011-0.0887656c0.0570412-0.009861-0.0334072-0.0779467-0.003706-0.0183449
		c0.0142002,0.0285034,0.0069294,0.0436473-0.021595,0.0418777C18.3523121,5.9304976,18.1952019,6.0188994,18.1983032,5.8010764z"/>
	<path fill="#1A2118" d="M16.8019142,4.7801256c0.0124207-0.1264482,0.0687351-0.2509174,0.1965275-0.2532821
		c0.6351833-0.0117517,1.2707043-0.0053635,1.9064541,0.0614996c-0.6606007,0.2093873-1.3499184,0.0026779-2.0081196,0.1775751
		C16.8717194,4.8144193,16.840416,4.8212709,16.8019142,4.7801256z"/>
	<path fill="#1F211E" d="M19.3979282,7.7975116c-0.2673931,0.4207892-0.4854317,0.9018197-1.0995064,0.8994498
		c-0.0344372-0.0223866-0.0458164-0.0446577-0.0342579-0.0668716c0.0115147-0.0221195,0.023037-0.0332079,0.0346851-0.0332079
		c-0.0027199-0.0393028-0.0054436-0.0786057-0.0081654-0.1179085c-0.0226593-0.0411539-0.0241394-0.0830545-0.0048332-0.1259518
		c0.0354443-0.0582495,0.083931-0.1032619,0.1410961-0.139432c0.1941605-0.0984068,0.3741837-0.2145576,0.4977074-0.401053
		c0.0289898-0.0330062,0.062933-0.06006,0.0999317-0.0834885c0.0770092-0.0419016,0.1570053-0.073729,0.2473564-0.0665193
		C19.3416538,7.6814799,19.3622303,7.7465262,19.3979282,7.7975116z"/>
	<path fill="#551D64" d="M16.8019142,4.7801256c0.0330715,0.0054235,0.0646877,0.0008416,0.0948601-0.0139761
		c0.5591869,0.0068989,1.1184025,0.0122471,1.677536,0.0222068c0.1757107,0.00313,0.4016399-0.0512228,0.4733391,0.1646256
		c0.0756226,0.2276649,0.1350365,0.4880762-0.1401062,0.6575284c-0.0574303-0.0411563-0.0763378-0.1009221-0.0825787-0.1673217
		c-0.0650158-0.1863718-0.0968647-0.401022-0.3643627-0.4061079c-0.3007259-0.0038891-0.600666,0.0024152-0.9004402-0.0001516
		c-0.2413197,0.0078049-0.4902821-0.0484824-0.7164631,0.0869679c-0.0493889,0.0167017-0.0958443,0.0104737-0.1393204-0.0179467
		c0.0011997-0.1000419,0.0024014-0.2000842,0.0036812-0.3000922C16.7410431,4.8032885,16.7723007,4.7946997,16.8019142,4.7801256z"
		/>
	<path fill="#6907EC" d="M15.1979122,8.3631124c-0.5718946,0.0114298-1.1437473,0.0287151-1.7156935,0.0325708
		c-0.5270529,0.0035534-0.5697088-0.0683804-0.3995905-0.6132026c0.0192871,0.0125384,0.0385761,0.0250773,0.0581236,0.0373187
		c0.0998869,0.3158646,0.3335819,0.387538,0.6308641,0.3434896c0.2358036-0.0007162,0.4708767-0.0017586,0.7061796-0.0021915
		c0.2188759,0.0125055,0.4427948-0.0251551,0.6536217,0.0659199C15.1874485,8.2557707,15.2095337,8.3012733,15.1979122,8.3631124z"
		/>
	<path fill="#710AE3" d="M14.5233221,7.425231c0.0118227,0.2640615,0.2113543,0.1788521,0.3599005,0.1968699
		c0.2345772,0.0284514,0.4854288-0.0904288,0.7045393,0.0768418c-0.0883656,0.1189556-0.2205296,0.1594496-0.3538504,0.1987667
		c-0.3043098,0.0440764-0.608758,0.0840707-0.9055252-0.0414972c-0.1275196-0.0980582-0.1361837-0.2298779-0.105526-0.3727546
		c0.0303965-0.0812826,0.0862446-0.1309075,0.1751928-0.1381617C14.4539557,7.3494434,14.4958038,7.3761096,14.5233221,7.425231z"/>
	<path fill="#20221D" d="M13.800683,6.0004134c0.0668383,0.0001755,0.1336775,0.000351,0.2005157,0.0005312
		c-0.3245068,0.4071755-0.6879301,0.2701573-1.0493021,0.0678825c-0.1066656-0.0597053-0.1926527-0.1491351-0.0503416-0.2679615
		c0.0511541-0.059103,0.1159964-0.0630612,0.1859322-0.0467587C13.2993326,5.9102364,13.5443048,5.9717717,13.800683,6.0004134z"/>
	<path fill="#172214" d="M18.2988491,8.5968819c-0.0001392,0.0333614-0.0002766,0.0667219-0.0004215,0.1000814
		c-0.3863964,0.1912041-0.799469,0.0626268-1.1987057,0.0998611c-0.0582275-0.0664463-0.0624676-0.1327953,0.0003586-0.1990242
		C17.49967,8.5974941,17.8992596,8.597188,18.2988491,8.5968819z"/>
	<path fill="#791B94" d="M18.9098282,5.4347477c-0.000803,0.0585475-0.001606,0.1170955-0.002346,0.175703
		c-0.397501,0.0809269-0.8148746-0.0936422-1.2042103,0.0933199c0.0021267,0.0229869,0.0042515,0.0459743,0.0067692,0.0690179
		c-0.0048237,0.1419768,0.0000935,0.2878823-0.14715,0.37431c-0.0796452,0.0179391-0.149313,0.0021663-0.2059822-0.0599008
		c-0.0559998-0.1011658-0.0535507-0.2056627-0.020689-0.3127069c0.1040192-0.2676206,0.3071384-0.3923464,0.5868187-0.4074087
		C18.2513103,5.3960996,18.5907784,5.2700047,18.9098282,5.4347477z"/>
	<path fill="#1B2217" d="M16.3947906,7.4375257c-0.0714359,0.3633833-0.1573086,0.6614513-0.4383545,0.8791351
		C15.7340956,7.8534899,16.0848522,7.684598,16.3947906,7.4375257z"/>
	<path fill="#9816CC" d="M16.8860645,7.4048448c0.2830372,0.2853422,0.6745777,0.211091,1.0151196,0.3058519
		c0.0276146,0.0511942,0.0186672,0.094913-0.0266399,0.1313934c-0.1117992,0.0691876-0.2355099,0.075263-0.3615837,0.0687585
		c-0.1643066-0.0144086-0.3179626-0.0719261-0.4735012-0.1198611c-0.1875668-0.0882463-0.3076744,0.0447879-0.440897,0.1355748
		c-0.0448647,0.0065894-0.0841045-0.0046506-0.1170807-0.0359936C16.513113,7.6428027,16.5801811,7.4245138,16.8860645,7.4048448z"
		/>
	<path fill="#890FE3" d="M15.2967739,7.7971625c0.070447-0.1114712,0.1844435-0.0940008,0.2910566-0.0982018
		c0.238616,0.5394511,0.1457968,0.6976428-0.389883,0.6642165c0.0012197-0.0203876,0.0015936-0.0407267,0.0010872-0.0610819
		c0.0173264-0.03899,0.0408125-0.0738354,0.0692844-0.1050167C15.3960905,8.0722713,15.3223324,7.9329324,15.2967739,7.7971625z"/>
	<path fill="#172212" d="M17.1993103,7.3989725c-0.0656013-0.0024896-0.1312027-0.0049796-0.1967888-0.0075374
		c-0.1025715-0.0761919-0.205162-0.1523147-0.3936081-0.2921429c0.3202553,0,0.5551491,0,0.790041,0
		C17.4387665,7.2699375,17.4332657,7.4104395,17.1993103,7.3989725z"/>
	<path fill="#11210C" d="M18.1983032,5.8010764c0.0614567,0.1266875,0.212265,0.0646777,0.3062515,0.1443672
		C18.4140015,6.0487733,18.2958279,5.977634,18.1971512,6.00245c-0.4539204,0.1618462-0.5111637,0.1270947-0.5023766-0.3049827
		c0,0,0.008461,0.0062723,0.0084801,0.0062876C17.8682823,5.7362056,18.0332928,5.768641,18.1983032,5.8010764z"/>
	<path fill="#AA14E4" d="M16.4814816,7.8905687c0.0389538,0.0017891,0.0779057,0.0035791,0.1168594,0.0053682
		c0.0989017,0.1276035,0.2557201,0.1462116,0.3907757,0.206255c0.0624504,0.030818,0.1123524,0.0737371,0.1365852,0.1412992
		c0.000597,0.0838938-0.0595665,0.1122379-0.1247044,0.1360216C16.7044182,8.3474598,16.3413582,8.3859377,16.4814816,7.8905687z"/>
	<path fill="#1F211E" d="M17.1993103,7.3989725c0.0665512-0.0998945,0.1331005-0.1997886,0.1996479-0.2996817
		c0.1002026,0.0000181,0.200407,0.0000353,0.3006134,0.000052c0.2036896,0.2944274,0.2036896,0.2944274-0.2967205,0.3969631
		C17.3197021,7.4958138,17.243948,7.4798765,17.1993103,7.3989725z"/>
	<path fill="#A618CD" d="M17.0009975,8.3795137c0.0324802-0.0297079,0.0649624-0.0594158,0.0974426-0.0891237
		c0.1046391-0.1152315,0.2466831-0.1162815,0.3855724-0.1276569c0.1901131,0.0033121,0.3806343-0.005558,0.5710545,0.0041037
		c0.0824738,0.0026016,0.1636333,0.0131807,0.2420692,0.0403214c0.0525341,0.0208092,0.0941925,0.0551357,0.1252842,0.1022711
		c-0.0437965,0.0273857-0.0875893,0.0547724-0.1313858,0.0821581c-0.3977871,0.0979061-0.7969418,0.0710268-1.196434,0.0130606
		C17.0613804,8.4037743,17.03018,8.3953953,17.0009975,8.3795137z"/>
	<path fill="#142111" d="M17.4028511,7.4963059c0.059763-0.1615329,0.5347862-0.0131483,0.2967129-0.3969655
		c0.0331688,0.0000777,0.066328,0.0000029,0.0994854-0.0002227c0.0963097,0.0104961,0.2065048,0.0157456,0.2312069,0.1303082
		c0.02458,0.1139951-0.0790024,0.1672406-0.1564789,0.2161832C17.7279625,7.5377207,17.5609245,7.4865384,17.4028511,7.4963059z"/>
	<path fill="#621B7F" d="M17.0946007,8.4046478c0.3988323-0.0043421,0.7976646-0.0086842,1.1964664-0.0130434
		c0.004303,0.0292063,0.0042248,0.0584192-0.0003281,0.0874949C17.8903389,8.4807224,17.4825249,8.6024923,17.0946007,8.4046478z"/>
	<path fill="#1F211E" d="M17.1000786,8.5978003c-0.0001221,0.0663433-0.0002441,0.1326857-0.0003605,0.1990261
		c-0.1712494-0.0441704-0.3425026-0.0883389-0.5578022-0.1438675C16.7330971,8.4119062,16.9178524,8.5159035,17.1000786,8.5978003z"
		/>
	<path fill="#142113" d="M19.3979282,7.7975116c-0.0339394-0.033927-0.0678787-0.067853-0.10182-0.1017799
		c-0.0583916-0.0679436-0.0487919-0.1323071,0.010231-0.1940689c0.2120686-0.193397-0.0331287-0.5114827,0.1915531-0.7014298
		C19.4698734,7.1331964,19.574976,7.4794731,19.3979282,7.7975116z"/>
	<path fill="#212023" d="M13.0981455,5.8060737c-0.0655298-0.0017366-0.1310587-0.0034728-0.1965904-0.005209
		c-0.0430555-0.0803943-0.1175985-0.0979133-0.199894-0.0999575c0.0189323-0.1585503-0.0680656-0.3716292,0.2056942-0.3990092
		c0.088685,0.0672874,0.1165247,0.17308,0.1687298,0.263792c0.0306225,0.0573893,0.0520496,0.1174355,0.0525198,0.1833968
		C13.1185875,5.7681117,13.108367,5.7870927,13.0981455,5.8060737z"/>
	<path fill="#710AE3" d="M14.8867931,7.1934896c-0.0651016,0.0599909-0.1302042,0.1199818-0.195323,0.1799188
		c-0.0560865,0.0172043-0.1121559,0.0344639-0.1681862,0.0517731c0.0000381,0.0000496-0.0298424-0.0364828-0.0298424-0.0364828
		c0.0140076-0.3118501,0.2266874-0.4482241,0.4828968-0.5464506c0.0484905,0.001184,0.0933647,0.0146074,0.1338711,0.0416675
		C15.1619511,7.0779228,14.9938469,7.1137228,14.8867931,7.1934896z"/>
	<path fill="#152113" d="M19.277029,4.9101696c0,0.187727,0,0.3754549,0,0.5631819
		c-0.0140457,0.0020728-0.0280914,0.0041456-0.0421371,0.006218c0-0.182848,0-0.3656964,0-0.5485444
		C19.2489376,4.9240727,19.2629833,4.9171209,19.277029,4.9101696z"/>
	<path fill="#6907EC" d="M13.1067362,7.5988631c0.0310831-0.0306778,0.0621653-0.0613551,0.0932493-0.092032
		c0.0588636-0.0683842,0.1273489-0.0687308,0.2016802-0.0284595c0.0434246,0.2330852-0.0727158,0.3248525-0.2900505,0.3269477
		c0,0-0.0289173-0.0227842-0.0289526-0.0228109C13.0906649,7.7212744,13.0987005,7.660069,13.1067362,7.5988631z"/>
	<path fill="#272029" d="M12.2870121,8.634758c-0.239131-0.2057858-0.1484299-0.6109324-0.4657707-0.7694445
		C11.6960535,7.763133,11.7628422,7.6255155,11.753356,7.50177c-0.0928745-0.418684-0.117733-0.8398352-0.0501003-1.2647386
		c0.0888958-0.2997766,0.0770435-0.6222363,0.2017212-0.9142394c0.1366434-0.3242326,0.2017193-0.6973438,0.5791063-0.8597431
		c0.0257769,0.2686014-0.1749477,0.4549508-0.2496538,0.6868992c-0.3104658,0.9639425-0.3569107,1.9325123-0.0593109,2.9102926
		C12.2316952,8.2461252,12.3388948,8.4262352,12.2870121,8.634758z"/>
	<path fill="#BE1AD7" d="M12.4840832,4.4630489c-0.2463617,0.2313943-0.2923365,0.5746627-0.4716225,0.843504
		c-0.040267,0.0338702-0.0827599,0.0352397-0.1272402,0.0087771c-0.0271206-0.040338-0.0423803-0.084794-0.0464153-0.1332335
		c0.048708-0.2382426,0.1276026-0.4580202,0.3626728-0.5801754c0.0325966-0.0680981,0.0651941-0.1361966,0.0977907-0.2042952
		c0.0099964-0.2029552,0.1067104-0.3152189,0.3200598-0.3055625c0.0479107,0.0717173,0.0350485,0.1409802-0.008481,0.2089949
		C12.568593,4.3550549,12.5263386,4.4090524,12.4840832,4.4630489z"/>
	<path fill="#222123" d="M12.7924891,9.4087791c-0.2159481-0.150527-0.3525066-0.3526058-0.398859-0.6132917
		C12.6109257,8.9451227,12.7540741,9.1429424,12.7924891,9.4087791z"/>
	<path fill="#303030" d="M12.6108475,4.3010583c-0.0005865-0.065938-0.001174-0.1318765-0.0017605-0.1978145
		c-0.0273275-0.0196209-0.0347738-0.0359187-0.0224648-0.0490112c0.0106707-0.0113506,0.0217657-0.0170932,0.033432-0.0170932
		C12.7117701,3.990073,12.803483,3.943007,12.895174,3.8959217C12.9037743,4.1033978,12.7655001,4.2079659,12.6108475,4.3010583z"/>
	<path fill="#D91AEC" d="M12.6200542,4.0371394c0.0102205,0.0243425,0.0065546,0.0463781-0.0109816,0.0661058
		c-0.1431437,0.0562634-0.2379236,0.1633358-0.3097773,0.2944469c-0.0824184-0.3116803,0.1749191-0.4754951,0.3029976-0.6955638
		C12.768754,3.8052919,12.5979443,3.9263201,12.6200542,4.0371394z"/>
	<path fill="#6F07F4" d="M11.5028334,9.4953394c-0.164053-0.3319321-0.3281059-0.6638632-0.4920902-0.9957476
		c-0.0025139-0.0673141-0.0050945-0.1346741-0.0076761-0.2020359c0.5820827,0.0241022,0.9910545,0.3295469,1.2994881,0.7983875
		c0.1638174,0.1674767,0.2747707,0.3859291,0.4881296,0.5055666c-0.0856771,0.1744604-0.222971,0.2979641-0.3884926,0.3936586
		c-0.0649395-0.0617189-0.0581598-0.149497-0.0847139-0.2254868C12.1570482,9.3105869,11.8600378,9.212285,11.5028334,9.4953394z"/>
	<path fill="#870CEE" d="M11.8823595,7.5982108c-0.0204105,0.0890865-0.0408211,0.1781735-0.0611753,0.2671809
		c-0.0063791,0.044539-0.0128155,0.0891571-0.0192509,0.1337743c0.0258417,0.1551061-0.0850115,0.1280618-0.134203,0.0730205
		c-0.2390032-0.2674265-0.5916243-0.3582258-0.8618488-0.5740862c-0.0001879-0.0341859-0.0003767-0.0683708-0.0005636-0.1025567
		c0.1082869-0.1222305-0.003191-0.2854671,0.0769987-0.4130363c0.3733969-0.1868553,0.5677032,0.1073422,0.8006897,0.2971463
		C11.8235645,7.3391705,11.8051529,7.498486,11.8823595,7.5982108z"/>
	<path fill="#7C09F0" d="M10.8058815,7.4981003c0.4055891,0.0209889,0.7044783,0.2537799,0.9960632,0.5010567
		c0.1362782,0.138114,0.1569195,0.3226929,0.2004328,0.4980803c0.0221348,0.0495329-0.0159206,0.1217756-0.0351505,0.1063995
		c-0.3338642-0.2669725-0.8245831-0.2986374-1.0636482-0.7054129C10.9182434,7.753334,10.8694181,7.6239243,10.8058815,7.4981003z"
		/>
	<path fill="#7508F3" d="M10.9035788,7.8982239c0.3531141,0.2237558,0.7749958,0.321558,1.0987949,0.5990143
		c0.1647425,0.1671925,0.255949,0.3711958,0.3001747,0.5987129c-0.3740664-0.3621769-0.8392448-0.5762777-1.2994862-0.7983952
		C10.9347591,8.1731882,10.8879833,8.0434637,10.9035788,7.8982239z"/>
	<path fill="#6906F3" d="M11.5028334,9.4953394c0.2088375-0.1192675-0.0261431-0.3058243,0.0617561-0.4446516
		c0.8395805,0.3156815,0.943203,0.4330378,0.8375978,0.9444847c-0.1156425,0.1884785-0.2313852,0.3767233-0.4935627,0.1952028
		c-0.0170403-0.195199-0.1490517-0.3043089-0.2995758-0.3995514C11.5736551,9.6923256,11.5382442,9.593832,11.5028334,9.4953394z"/>
	<path fill="#CA18F0" d="M22.7931309,5.3011355c-0.06563,0.1332192-0.1312618,0.2664385-0.1968937,0.3996558
		c-0.0646591,0.1113935-0.1293163,0.2227879-0.2105274,0.3627024c-0.1469421-0.1646194-0.072752-0.3389187-0.105381-0.4876513
		c-0.1468277-0.6692657-0.1422043-0.6702785,0.5144958-0.6667809c0.0455532,0.1013613-0.0109692,0.1693382-0.075716,0.2344856
		c-0.0257301,0.0501146-0.1259079,0.0179338-0.118063,0.1065435c0.0306435-0.0033545,0.0621014-0.0051646,0.0960827-0.0057082
		C22.7376575,5.2509141,22.7690887,5.2699256,22.7931309,5.3011355z"/>
	<path fill="#D51AEF" d="M22.7931309,5.3011355c-0.032362,0.0001941-0.0647259,0.0003152-0.0970917,0.0003638
		c-0.061718-0.0662518-0.0579491-0.1325583-0.0001678-0.1989112c0.0330048-0.064559,0.0660076-0.1291194,0.0989799-0.1936026
		c0.0669403-0.0020728,0.1339111-0.0042224,0.2008724-0.0063634C23.0090656,5.0765195,22.8520813,5.1639462,22.7931309,5.3011355z"
		/>
	<path fill="#B517E2" d="M21.4113903,3.494792c-0.1018715-0.4621909-0.2536316-0.9308,0.1707573-1.3252852
		c0.1904049,0.2407696,0.0297985,0.5048079,0.0384464,0.755703c0.0114231,0.3315153,0.1020622,0.5741773,0.4368038,0.6805966
		c0.2894115,0.1492503,0.6533775-0.0510933,0.9212685,0.196182c-0.4172268,0.3555262-0.8260689,0.2321827-1.2260151-0.0293212
		c-0.1233578-0.080657-0.2302647-0.1864359-0.3446579-0.2807503C21.408041,3.4918787,21.4113903,3.494792,21.4113903,3.494792z"/>
	<path fill="#C91BDC" d="M22.9379921,1.9921687c0.0238647-0.0128231,0.0433979-0.0080272,0.0586014,0.0143876
		c0.1602135,0.1219292,0.3480186,0.2237198,0.3420258,0.4675272c-0.0827351,0.3292332,0.1780777,0.7755654-0.3274345,0.9606771
		c-0.2382374-0.1055431-0.2289696-0.3253672-0.2433968-0.5326738c-0.0122204-0.1756291,0.0124111-0.3539951-0.0414162-0.5257263
		c-0.0283508-0.0398357-0.0554905-0.0804827-0.0838261-0.1204002c-0.0876427-0.138453-0.1177979-0.2704297,0.0467415-0.3777899
		C22.8017731,1.8513333,22.8495579,1.9660199,22.9379921,1.9921687z"/>
	<path fill="#B214EC" d="M21.9965458,3.7034421c-0.5168324-0.1121814-0.5241127-0.5069106-0.4969673-0.9114106
		c0.0139847-0.2083623,0.0542393-0.4149637,0.0825958-0.6224422c0.0243855-0.0262387,0.0487976-0.0523951,0.0732079-0.078552
		c0.1471367-0.0096693,0.243906-0.1881663,0.413044-0.1234385c0.0413227,0.0292718,0.0621586,0.0700864,0.0654831,0.1201235
		c-0.3643723,0.4869318-0.4727039,0.976872-0.0138035,1.4728134c0.0161171,0.0482111,0.0152855,0.096113,0.0005322,0.1444182
		C22.0786476,3.7442789,22.0373154,3.7418094,21.9965458,3.7034421z"/>
	<path fill="#C818EF" d="M21.9965458,3.7034421c0.0335999-0.0003383,0.0672016-0.0006766,0.1008015-0.0010149
		c0.1133099-0.1128345,0.2611103-0.1204755,0.4064884-0.1350453c0.191246,0.0285389,0.2870197-0.2328196,0.4917259-0.1639178
		c0.2027531-0.0883241,0.1941719-0.2662652,0.2047768-0.447397c0.0107975-0.1843979-0.0758667-0.3897228,0.093998-0.5477846
		c0.2469196,0.4706984,0.1995354,0.7830615-0.1871548,1.2337198c-0.0428276,0.0533223-0.0856571,0.1066449-0.1285,0.1599765
		C22.6523952,3.7581728,22.3068237,3.9064193,21.9965458,3.7034421z"/>
	<path fill="#CA1BDA" d="M23.1071815,3.6420023c0.2131004-0.3884339,0.3943672-0.7816899,0.1871738-1.2337568
		c-0.0992661-0.1338732-0.1985149-0.2677827-0.2977619-0.401691C23.427,2.0962043,23.5027237,2.4418561,23.5217686,2.790591
		C23.540617,3.1356697,23.5284481,3.4968152,23.1071815,3.6420023z"/>
	<path fill="#B517E2" d="M22.0962124,2.0049436c-0.1468582,0.0287061-0.2937164,0.0574121-0.4407024,0.0861058
		c0.5001774-0.4617493,0.9262295-0.4945886,1.2823448-0.0988663c-0.0804234-0.028057-0.160984-0.0561-0.2415447-0.0841434
		C22.5113831,2.0337462,22.3104248,2.0603204,22.0962124,2.0049436z"/>
	<path fill="#5809D4" d="M8.6102514,9.9073687c0.0298901-0.0061331,0.0595284-0.0133009,0.0889158-0.0215034
		c0.1336575,0.1228104,0.088048,0.2756491,0.059659,0.4179916c-0.0708418,0.3552084,0.0317926,0.6520271,0.2811174,0.9058542
		c0.0612078,0.0820408,0.1127672,0.1673985,0.0916538,0.2764368c-0.0159721,0.0104589-0.0333509,0.0174026-0.0521879,0.0208788
		C8.4410114,11.147893,8.317811,10.7277622,8.6102514,9.9073687z"/>
	<path fill="#6805F6" d="M9.000267,11.2981796c-0.5919552-0.3660984-0.3644552-0.9066315-0.3010836-1.4122725
		c0.1343422-0.2304792,0.3367834-0.3574343,0.598979-0.3935766c0.1686449,0.0319662,0.36341-0.0632362,0.5044365,0.1033649
		C9.7159481,9.7075233,9.5855045,9.7020693,9.4646511,9.7200136C9.2906046,9.7458582,9.3974352,9.849472,9.4069967,9.9270496
		c0.0531416,0.4195805,0.0685978,0.8377724-0.0088377,1.2553654C9.3198643,11.4065485,9.1478958,11.3104362,9.000267,11.2981796z"/>
	<path fill="#7C0AF2" d="M10.4943047,10.0016527c0.1571913,0.8202677,0.0424147,1.1459894-0.4907408,1.392664
		c-0.0383959-0.0415773-0.0608711-0.0904646-0.068181-0.1464863c0.0544071-0.43013-0.0143814-0.8687935,0.0861387-1.2964392
		c0.0347834-0.0819044,0.0925598-0.1372633,0.1815863-0.1560793C10.3001738,9.8640919,10.3972387,9.9328728,10.4943047,10.0016527z"
		/>
	<path fill="#7406FC" d="M10.2031078,9.7953119c-0.0334911,0.033473-0.0669804,0.066946-0.1004705,0.1004181
		c-0.144311,0.0775661-0.2963533,0.024148-0.445384,0.0275221C9.5255117,9.9191799,9.4025717,9.8904209,9.3036537,9.7958183
		c-0.137578-0.0241289-0.1960096-0.1078825-0.0404911-0.1583204c0.1667747-0.0540876,0.3585739-0.0311289,0.539444-0.0417986
		C9.9614763,9.6113997,10.1006289,9.6666193,10.2031078,9.7953119z"/>
	<path fill="#7206FC" d="M10.0025549,11.2934074c0.0003338,0.0336323,0.0006666,0.0672636,0.0010042,0.1009026
		c-0.2736921,0.1931734-0.5813284,0.0646439-0.8722439,0.0918818c-0.0434675-0.0627298-0.0872154-0.1254158-0.1310062-0.1880569
		c0.0985098-0.1618929,0.2015905-0.0351686,0.3031616-0.0047054c0.1126127-0.0992088,0.24613-0.1319942,0.3927383-0.1243916
		C9.8126802,11.1749239,9.9206047,11.2024832,10.0025549,11.2934074z"/>
	<path fill="#C51ADE" d="M12.201478,4.6019211c-0.099906,0.1993995-0.1998119,0.3987985-0.2997179,0.5981975
		c-0.0384502,0.0331264-0.0791368,0.0377712-0.1225662,0.0098886c-0.1294537-0.14887-0.1200895-0.5513906-0.487319-0.2653103
		c-0.0717669,0.0193195-0.1370401,0.0108142-0.1912756-0.0444779c-0.0280123-0.2903585,0.2232962-0.5035105,0.2181482-0.7875071
		C11.6423111,4.2231622,12.0295076,4.2186522,12.201478,4.6019211z"/>
	<path fill="#9C10E9" d="M10.7152328,6.1033592c0.0619907-0.1014752,0.1239824-0.2029505,0.1859722-0.3044257
		c0.3240032,0.1214814,0.615303,0.2927704,0.8468199,0.555367c0.0034332,0.1685758,0.0060081,0.3369541-0.0019274,0.5053096
		c-0.0334549,0.0987153-0.0960245,0.162221-0.2048683,0.1694398c-0.2082014-0.1376123-0.2659273-0.4714513-0.5930166-0.4537692
		c-0.0435686,0.0019736-0.0866575-0.0010848-0.1296196-0.0074053c-0.0421438-0.0128293-0.07798-0.0358062-0.1076698-0.0683551
		C10.7123604,6.3674664,10.7137957,6.2354131,10.7152328,6.1033592z"/>
	<path fill="#8C0BFA" d="M10.8018923,6.5006175c0.0336123-0.0000739,0.0672235-0.0001478,0.1008348-0.0002213
		c0.0651321,0.0542345,0.0925503,0.126986,0.1031952,0.208261c0.0100946,0.1124468-0.0280704,0.2080803-0.102807,0.2907095
		c-0.0153732,0.1363401,0.046874,0.2918191-0.0978231,0.3962216c-0.0009747-0.0987201-0.001976-0.1973968-0.0029774-0.296072
		C10.7267199,6.8999367,10.7272472,6.7003031,10.8018923,6.5006175z"/>
	<path fill="#8F0EED" d="M10.8018923,6.5006175c0.000144,0.1996307,0.0002871,0.3992615,0.0004272,0.5988951
		c-0.1753359-0.1779304-0.0721302-0.3983006-0.0914736-0.5999899C10.7412491,6.4996915,10.7715721,6.5000572,10.8018923,6.5006175z"
		/>
	<path fill="#B616E5" d="M11.1005993,4.900219c0.0672941,0.0004911,0.1345892,0.0009823,0.2018833,0.0014739
		c0.2066975,0.0327454,0.3590832,0.1560287,0.499527,0.2992167c0.0332575,0.0002403,0.0665102-0.0000114,0.0997553-0.0007734
		c-0.0000391,0.0338564-0.0000744,0.0677299-0.0001097,0.101604c0.1228018,0.1805205-0.0896463,0.3164501-0.0643454,0.4837999
		c-0.2148619,0.1621733-0.2833271-0.0131602-0.3463802-0.1606584c-0.1163721-0.2722211-0.2235451-0.1429434-0.3357611-0.0014358
		c-0.0724926,0.0635705-0.1453228,0.126967-0.2522202,0.0763803c0.0375128-0.2624488,0.0750265-0.5248981,0.1126547-0.7872443
		C11.0436277,4.9059253,11.0719223,4.9017701,11.1005993,4.900219z"/>
	<path fill="#A613E5" d="M10.9029484,5.6998262c0.0665064-0.0331335,0.1330128-0.0662675,0.1995192-0.0994015
		c0.4698963-0.2439289,0.4088211,0.2926741,0.6244068,0.4233027c0.021431,0.0458221,0.0302639,0.0942893,0.0291128,0.1446342
		c-0.0033703,0.0508046-0.0218267,0.0952139-0.0575991,0.1320591c-0.3640852-0.0110011-0.570055-0.2729845-0.797164-0.5014648
		C10.9016457,5.7658954,10.9022264,5.7328596,10.9029484,5.6998262z"/>
	<path fill="#212023" d="M14.8867931,7.1934896c0.0675087-0.0987568,0.1350193-0.1975131,0.202529-0.2962694
		c0.0130911-0.1186228,0.0832891-0.2120066,0.1369553-0.3129878c0.0216637-0.0410557,0.0469265-0.0797386,0.0732708-0.1177354
		c0.4090252-0.8101754,0.0103951-1.4996724-0.8939047-1.5349727c-0.2279501-0.0088978-0.4606972-0.0315256-0.6814384,0.0600262
		c-0.275692,0.0565863-0.4681339,0.384376-0.8029871,0.2473426c0.6117268-0.8367362,2.0357122-0.851553,2.6225195-0.0307631
		C15.8749056,5.6713467,15.7638845,6.8999796,14.8867931,7.1934896z"/>
	<path fill="#6D06F4" d="M12.9212179,5.238893c0.3001375-0.02356,0.4657745-0.3529148,0.7806931-0.3428702
		c0.00811,0.0208869,0.0162191,0.0417733,0.0245628,0.0626187c-0.1031456,0.2820301-0.074296,0.5995207-0.2326431,0.8672247
		c-0.2258263,0.0599656-0.3337345-0.1490517-0.5024347-0.2191834c-0.1465874-0.0689421-0.0677443-0.1999698-0.0840549-0.3047862
		C12.9272404,5.2842503,12.9318619,5.2632484,12.9212179,5.238893z"/>
	<path fill="#8317B0" d="M16.7043781,5.1059504c0.0301304-0.0039768,0.0603428-0.0071688,0.0906372-0.0095768
		c0.2091541,0.2127228,0.1179886,0.4823723,0.1396809,0.7303209c-0.0014038,0.102417-0.009716,0.2046227-0.03335,0.3042092
		c-0.0174007,0.1760416-0.1820374,0.3644166,0.0448284,0.5202675c0.161108,0.0326376,0.3229828,0.01336,0.4846458,0.0162244
		c0.1594772,0.0025253,0.3198204-0.0009022,0.4580288,0.0983319c0.043045,0.0470405,0.0440273,0.0950561,0.0032387,0.1439214
		c-0.1812534,0.0015073-0.362505,0.0043697-0.5437584,0.0042868c-0.8137226-0.000371-0.8122234-0.0005226-0.7295856-0.8248057
		C16.651556,5.7618308,16.6760788,5.4337015,16.7043781,5.1059504z"/>
	<path fill="#C819E5" d="M17.895937,7.7953544c0.0019913-0.0282073,0.0037479-0.0564294,0.0052567-0.084662
		c0.064642-0.0374608,0.1292915-0.0749254,0.193943-0.11239c0.1346779-0.1497931,0.1938896-0.3190322,0.1334915-0.5192075
		c-0.0553436-0.078083-0.114172-0.1617713-0.0442924-0.253746c0.0873241-0.1149397,0.1900902-0.0689349,0.2883701-0.0067997
		c0.3326664,0.2952404,0.289238,0.5992112,0.0214291,0.9089994c-0.0932999,0.0962167-0.1903191,0.18785-0.3201275,0.2347107
		C18.0416088,7.973166,17.898344,8.0010338,17.895937,7.7953544z"/>
	<path fill="#BF1ADA" d="M18.3992004,6.8992815C18.36376,6.8451037,18.308363,6.799664,18.2575531,6.8536429
		c-0.0827103,0.0878725,0.0243168,0.1622248,0.0422134,0.243938c-0.0346909,0.0561504-0.0734901,0.0591431-0.1163921,0.008976
		c-0.0970745-0.0656543-0.1941509-0.131309-0.2912579-0.1969361c-0.0001392-0.0357327-0.0002499-0.0714936-0.0003605-0.1072545
		c-0.2984676-0.4072137-0.0196285-0.5051503,0.3090611-0.5774875c0.0926762-0.0183258,0.1838245-0.0189695,0.2702694,0.0255342
		c0.0378094,0.026896,0.059864,0.0641432,0.0689373,0.1090889C18.491478,6.5384164,18.8352566,6.8207421,18.3992004,6.8992815z"/>
	<path fill="#A618CD" d="M18.1833744,7.1065569c0.0387897-0.0029793,0.0775795-0.005959,0.1163807-0.0089574
		c0.0000782,0.1947441,0.0390968,0.4054003-0.204607,0.5007019C18.1245499,7.4343872,18.1539631,7.270472,18.1833744,7.1065569z"/>
	<path fill="#212023" d="M13.3899469,7.4564962c-0.0633125,0.0167565-0.1266232,0.0335131-0.189949,0.050303
		c0.2977734-0.4205899,0.7092142-0.7335572,1.0532007-1.1104007c0.1377754-0.1509366,0.2780504-0.3679628,0.1283245-0.5134764
		c-0.1764193-0.1714587-0.4297676-0.1386795-0.5808353,0.1174922c-0.3018637,0.1794219-0.5329628,0.1035328-0.7025299-0.1943769
		c-0.0000124,0.0000362,0.017519-0.0222631,0.017519-0.0222631c0.2054338-0.0350499,0.4154434,0.1093364,0.6242695-0.1075497
		c0.2067642-0.2147431,0.5064182-0.2325587,0.7659531-0.033288c0.2576103,0.197793,0.2257595,0.4491744,0.1029673,0.7081194
		c-0.1389513,0.2295303-0.3511419,0.3935342-0.5308599,0.5868573C13.8435621,7.1035237,13.7218847,7.4197874,13.3899469,7.4564962z"
		/>
	<path fill="#361F3C" d="M18.5330429,6.3836312c-0.0093384-0.0300865-0.0241623-0.057178-0.0444698-0.0812721
		c-0.2803364-0.1369724-0.6371098,0.0609822-0.8885727-0.2024903c0.010313-0.1391339-0.0576782-0.2966952,0.0948009-0.4023843
		c-0.0230083,0.4149346,0.2908764,0.2757173,0.5023632,0.3049469c0.95504,0.3790789,1.0947018,0.5678701,1.1090946,1.4992032
		c-0.0033131,0.0647364-0.0067062,0.1294456-0.0101261,0.1941247c-0.0682564,0.0330572-0.136488,0.0661421-0.2047215,0.0992284
		c-0.0409336-0.0523391-0.085083-0.1131506-0.0691643-0.1770449C19.1542587,7.0880623,18.9200058,6.7063422,18.5330429,6.3836312z"
		/>
	<path fill="#C31AD8" d="M18.5330429,6.3836312c0.4625416,0.1176605,0.7090359,0.4878178,0.6454964,0.9815822
		c-0.0186119,0.1445999-0.0575142,0.286593-0.087122,0.4297776c-0.0241966,0.0058036-0.0487328,0.0089235-0.0736084,0.0093536
		c-0.1837063,0.2458262-0.4265079,0.4036918-0.7214355,0.4839749c-0.0657215,0.0018053-0.131443,0.0036097-0.1971645,0.005414
		c-0.0825462-0.0870943-0.0444412-0.1658316,0.0164547-0.2433414c0.1181507-0.0982919,0.2851849-0.1571259,0.2834377-0.3520026
		c0.1979866-0.266346,0.3357296-0.5326986,0.0000916-0.7991052c0.0772152-0.1060634,0.259182-0.1714826,0.0117893-0.3335676
		C18.2307034,6.4476018,18.4430809,6.417685,18.5330429,6.3836312z"/>
	<path fill="#B319D0" d="M18.2963734,8.2883205c0.2404652-0.1613293,0.4809265-0.3226585,0.7214127-0.4839816
		c-0.0929413,0.2926049-0.3169899,0.4308629-0.5954227,0.505055C18.3804054,8.302392,18.3383904,8.2953558,18.2963734,8.2883205z"/>
	<path fill="#C219E0" d="M18.9098282,5.4347477c-0.3314857,0.1215196-0.6739979,0.0627747-1.0129738,0.0618677
		c-0.1904774-0.064466-0.4576302-0.0608506-0.3486023-0.3918047c0.0412712-0.0749216,0.1085472-0.1167769,0.1859951-0.1455021
		c0.2868099-0.0379386,0.5820942,0.0515952,0.8643951-0.0567126C19.0324135,4.8872676,18.7861958,5.2689853,18.9098282,5.4347477z"
		/>
	<path fill="#B015E3" d="M16.8022423,5.8996925c-0.002388-0.2677479-0.004776-0.5354962-0.0071945-0.8032818
		c0.1512585-0.3758945,0.4642563-0.1468706,0.7049713-0.1882296c0.0311794,0.0507679,0.0243073,0.0957284-0.0201492,0.1350393
		c-0.2734795,0.0819869-0.5095043,0.1812129-0.4656982,0.5499291C17.0284271,5.7131276,17.02388,5.903214,16.8022423,5.8996925z"/>
	<path fill="#BA1BCF" d="M17.4992676,5.0018582c0.0000191-0.031249,0.0002594-0.0624957,0.0007362-0.0937095
		c0.3662224-0.0018315,0.7324295-0.0036955,1.0986385-0.0055561c-0.2812767,0.1983957-0.6005077,0.0540581-0.898735,0.0993862
		C17.6329937,5.0569477,17.5661106,5.0638585,17.4992676,5.0018582z"/>
	<path fill="#6F07F5" d="M13.3899469,7.4564962c0.1657381-0.2197356,0.3580875-0.4120965,0.5855236-0.5683656
		c0.0833979-0.0394359,0.1689882-0.0633526,0.2618666-0.0371051c0.230875,0.1587029,0.1992016,0.3482957,0.0646944,0.549931
		c-0.0004835,0.1325688-0.0009689,0.2651381-0.0014534,0.397707c0.1029272,0.130868,0.0351543,0.231051-0.058157,0.3268332
		c-0.1559763,0.1255331-0.3851614,0.0080652-0.5338116,0.1598892c-0.3553591,0.0340805-0.7129526,0.0709333-0.5970573-0.4800954
		C13.2385693,7.7162747,13.3689995,7.6299996,13.3899469,7.4564962z"/>
	<path fill="#7E07FE" d="M13.7086096,8.2853861c0.0681887-0.3138814,0.3226337-0.1396866,0.4923201-0.1875963
		c0.2775888-0.1500125,0.5524492-0.2324495,0.8131628,0.0325518c-0.1131649,0.2449245-0.3699656,0.024745-0.5172091,0.1592464
		C14.2341261,8.288187,13.9713669,8.2867861,13.7086096,8.2853861z"/>
	<path fill="#820CE8" d="M14.4968834,8.289587c0.1457548-0.1504784,0.333951-0.0703173,0.5033188-0.0924768
		c0.1358471-0.0807838,0.25772-0.1170101,0.3019047,0.0945272c-0.0343475,0.0034475-0.0686951,0.0068951-0.1030588,0.0103989
		C14.9649839,8.2979259,14.7309341,8.2937565,14.4968834,8.289587z"/>
	<path fill="#830BEF" d="M14.3020315,7.4009566c-0.0261765-0.1696119,0.0664997-0.3635812-0.1033926-0.5037394
		c-0.0205479-0.2667527,0.2668877-0.3243642,0.3527174-0.5188813c0.0215311-0.0700097,0.0648003-0.1135073,0.141634-0.1162844
		c0.1602383-0.0226054,0.1668682-0.1338778,0.151825-0.2534308c-0.0082293,0.1079202,0.025856,0.2618818-0.1816664,0.1726599
		c0.0051413-0.2288461-0.0192337-0.4464622-0.2228136-0.5978227c-0.0712414-0.1521592-0.068923-0.3034182,0.0042953-0.4539843
		c0.4180384-0.2905793,0.6304102,0.1766362,0.9482002,0.2573457c0.2805109,0.4292822,0.1386595,0.8308005-0.0812616,1.2271385
		l0.0057869-0.0064397c-0.1025352,0.0999999-0.1844139,0.2229519-0.319335,0.2869673
		c-0.2003984,0.1319447-0.3623552,0.3030581-0.50453,0.4942966C14.4296379,7.3927846,14.3658352,7.3968701,14.3020315,7.4009566z"/>
	<path fill="#7F09F6" d="M15.3021069,8.2916374c-0.0761633-0.1095419-0.1926098-0.0906048-0.301898-0.0945196
		c-0.2458429-0.1985416-0.5341845-0.0555429-0.7992792-0.0993271c0.0332193-0.0997128,0.0664387-0.1994247,0.0996532-0.2991319
		c0.3320894-0.0004859,0.6641846-0.0009766,0.9962349-0.0014825C15.6097383,7.9586358,15.6213188,8.1233549,15.3021069,8.2916374z"
		/>
	<path fill="#B015E3" d="M17.5979385,5.1022139c-0.0629406,0.2545438,0.1766014,0.2801728,0.2989464,0.3944368
		c-0.2526951-0.0375228-0.3607044,0.1572394-0.4959011,0.3083515c-0.1891842,0.1672964-0.1238461,0.2752671,0.0825481,0.3504176
		c0.1298714,0.011054,0.1789131,0.0925555,0.1865463,0.211575c-0.0564747,0.3147883-0.2798862,0.3439851-0.5378113,0.315042
		c-0.2434978-0.0752964-0.248991-0.2646489-0.2394524-0.4726081c0.0105572-0.2302098,0.0797215-0.4496541,0.1039181-0.6769052
		C17.0517616,5.015727,17.0530796,5.0158672,17.5979385,5.1022139z"/>
	<path fill="#A519C5" d="M17.5993958,6.2986441c-0.0447979-0.0795193-0.1210651-0.0942278-0.2025452-0.0981998
		c-0.0237999-0.0238566-0.0310459-0.0469737-0.0217762-0.069365c0.0091133-0.0220137,0.0178814-0.0330267,0.0263329-0.0330272
		c0.0661945,0.0006065,0.132391,0.0012131,0.1985893,0.0018182c0.2937202,0.0784726,0.6320477-0.0385561,0.8886242,0.2024817
		c-0.0974159-0.0002842-0.1947842-0.0005751-0.2921505-0.0008659C17.9971619,6.3600364,17.7978935,6.4101257,17.5993958,6.2986441z"
		/>
	<path fill="#B615E7" d="M17.4014072,6.0980525c-0.0015011,0.0341306-0.0030022,0.0682611-0.00453,0.1023917
		c-0.3162079-0.0794959-0.1765556-0.32093-0.1745548-0.5082669c0.0005989-0.0559478,0.0593414-0.1427145,0.1171455-0.0990181
		c0.0470276,0.035553,0.042923,0.1386456,0.0615025,0.2118154C17.401125,5.9026856,17.4012661,6.0003691,17.4014072,6.0980525z"/>
	<path fill="#AF15E5" d="M17.4995117,8.2975845c-0.1336746-0.0023499-0.2673492-0.0047016-0.4010468-0.0071239
		c-0.0330811-0.0309496-0.0661354-0.0618277-0.0991898-0.0927067c-0.2377586-0.1672277-0.1942692-0.334187,0.0004807-0.5010009
		c0.1663799,0.0346756,0.3327599,0.0693517,0.4991398,0.1040273C17.6635036,7.9661779,17.7569981,8.1316643,17.4995117,8.2975845z"
		/>
	<path fill="#BB18DD" d="M17.4995117,8.2975845c0.1384773-0.1657906,0.0179882-0.331264-0.0006123-0.4968333
		c0.13237-0.001761,0.26474-0.0035505,0.3970757-0.0053687c0.0720787,0.1190767,0.1913681,0.0998816,0.3029881,0.103179
		c0.0635147,0.0659022,0.0544319,0.1317778-0.0000744,0.1976366c-0.0787258,0.0429573-0.0978241,0.1159496-0.0996838,0.1975803
		C17.8993092,8.2950182,17.6994114,8.2963018,17.4995117,8.2975845z"/>
	<path fill="#A812EC" d="M16.9997559,7.696753c-0.0159073,0.1669855-0.1406422,0.3338675-0.0004787,0.5010009
		c-0.1349277-0.0988789-0.4590187,0.0531788-0.4009228-0.3017931C16.655302,7.6749115,16.7264366,7.4824052,16.9997559,7.696753z"/>
	<path fill="#6C0BDA" d="M14.6994333,6.2990808c-0.0334034,0.0333586-0.0668068,0.0667171-0.1002111,0.1000748
		c-0.0450201,0.0447845-0.0865803,0.0417819-0.1246786-0.009016c0.0626507-0.2279634,0.250742-0.4650517-0.0387583-0.6703629
		c-0.2473373-0.1754088-0.4887714-0.1031728-0.6807318,0.077045c-0.2340784,0.2197599-0.4285345,0.0444131-0.6394167-0.0129957
		c-0.0413713-0.0590963-0.0827827-0.1181407-0.124218-0.1771646c0.1972828-0.0102844,0.3378525,0.1317544,0.5097809,0.1895938
		c0.0789537-0.0962863,0.1135511-0.228651,0.2355108-0.2906113c0.2722969-0.1175604,0.544095-0.2266703,0.7638254,0.0919123
		c0.2725945,0.1316509,0.1872139,0.3846531,0.2046499,0.6028013c0.0232515,0.0233655,0.030139,0.0457754,0.0206976,0.0672441
		C14.7166567,6.2885828,14.7078505,6.2990808,14.6994333,6.2990808z"/>
	<path fill="#830EE1" d="M14.9980211,6.8944855c0.0765486-0.1287913,0.1647835-0.2446089,0.3192358-0.2869921
		c-0.0215244,0.1393151-0.1007786,0.2333198-0.2279091,0.2897248C15.0588522,6.8974962,15.0284176,6.896584,14.9980211,6.8944855z"
		/>
	<path fill="#9010E1" d="M11.6983881,6.3004208c0.001194-0.0332761,0.002389-0.0665512,0.003582-0.0998268
		c0.0351477-0.0339775,0.0697594-0.0352073,0.1037493,0.0016928c-0.000246,0.4667344-0.0013733,0.9335165,0.0766726,1.3959384
		c-0.1816406,0.0420837-0.0824337-0.1668878-0.1794653-0.200407c-0.1387796-0.1637807-0.1075134-0.3302388-0.0078487-0.4977736
		C11.6961813,6.7001696,11.6972847,6.5002952,11.6983881,6.3004208z"/>
	<path fill="#A014DC" d="M11.8057184,6.2022867c-0.0345802-0.000567-0.0691614-0.0011334-0.1037455-0.0016966
		c-0.0004044-0.033802-0.0008068-0.0676074-0.0012093-0.1014128c-0.1123514-0.1449089-0.0084829-0.2224736,0.093749-0.3005476
		c0.0357189-0.1656322,0.0714378-0.331265,0.1071501-0.4968939c0.0369196,0.0015969,0.0738459,0.0031905,0.1107845,0.0048003
		C11.9435453,5.6051307,11.8746319,5.9037085,11.8057184,6.2022867z"/>
	<path fill="#8F0EED" d="M11.6950779,6.9000444c0.0026102,0.1659322,0.0052214,0.3318639,0.0078411,0.4977851
		c-0.2706146-0.124784-0.4427977-0.4468579-0.7998104-0.3984647c-0.0000486-0.0998282-0.000104-0.199657-0.0001583-0.2994871
		c0.2862787-0.0738692,0.4513626,0.0953631,0.5995665,0.2984562C11.5667038,6.9655709,11.6308908,6.9328074,11.6950779,6.9000444z"
		/>
	<path fill="#BA19D9" d="M22.6958714,5.1025882c0.000061,0.0663028,0.0001202,0.132606,0.0001736,0.1989098
		c-0.0868435,0.0392427-0.1736832,0.0784845-0.2605228,0.1177263c-0.0110397-0.0453877-0.0335655-0.0913992-0.0311356-0.1360559
		C22.4149647,5.0886045,22.5638924,5.1072865,22.6958714,5.1025882z"/>
	<path fill="#BD19DF" d="M22.5968914,3.7018359c-0.1665192,0.0002053-0.3330383,0.000411-0.4995499,0.0006039
		c-0.0003605-0.0330057-0.0005836-0.066-0.0006657-0.0989952c0.1257706-0.4656103-0.0568352-0.9707472,0.1824608-1.422282
		c0.145216-0.096323,0.2828693-0.063822,0.4172249,0.0242338c0.0332413,0.0001178,0.0664845,0.0002098,0.0997276,0.0002759
		c0.0114288,0.325906-0.0093384,0.6518669,0.0009995,0.977725C22.8034916,3.385237,22.786869,3.5765035,22.5968914,3.7018359z"/>
	<path fill="#C31ADD" d="M22.5968914,3.7018359c0.1687355-0.2924123,0.0829868-0.6127665,0.0969124-0.9212558
		c0.0089245-0.197706-0.0083351-0.3966286,0.1022892-0.5749114c0.2486458,0.3689773-0.0390053,0.8271389,0.1994781,1.1977985
		C22.8210201,3.447351,22.8125591,3.7128177,22.5968914,3.7018359z"/>
	<path fill="#BE19E1" d="M22.6963615,2.2053964c-0.1331806-0.0000172-0.2663631-0.0000343-0.3995457-0.0000517
		c-0.110424,0.0546212-0.1606941-0.01157-0.20014-0.0995035c-0.0001507-0.033628-0.0003033-0.0672565-0.0004597-0.1008911
		c0.1763515-0.178676,0.3993053-0.0693505,0.6000996-0.096936C22.6329689,2.0071695,22.6358147,2.106288,22.6963615,2.2053964z"/>
	<path fill="#B517E2" d="M22.0966759,2.1058412c0.0667114,0.0331681,0.1334248,0.0663359,0.2001381,0.0995038
		c-0.0000687,0.3411498,0.0021362,0.682322-0.0012264,1.0234396c-0.001543,0.1564429,0.0411205,0.3421662-0.1989098,0.3746624
		C21.5172768,3.1382253,21.5172768,2.5709145,22.0966759,2.1058412z"/>
	<path fill="#6F07F5" d="M9.7032309,11.2935209c-0.1332531-0.0000277-0.2665062-0.0000553-0.3997602-0.0000868
		c0.0000601-0.4992094,0.0001202-0.998414,0.0001822-1.4976177c0.1332035-0.0000191,0.2664061-0.0000391,0.3996086-0.0000591
		C9.9423008,10.2950172,9.9424572,10.7942715,9.7032309,11.2935209z"/>
	<path fill="#7508F3" d="M9.7032309,11.2935209c0.0000105-0.4992552,0.000021-0.9985094,0.0000305-1.4977636
		c0.1453934-0.0156021,0.275116,0.0313082,0.3993807,0.0999718c-0.043252,0.4651899,0.1007719,0.9437656-0.1000795,1.3976831
		C9.9027805,11.2934456,9.8030062,11.2934837,9.7032309,11.2935209z"/>
	<path fill="#BB18DF" d="M11.8020096,5.2009096c-0.2061367-0.03368-0.3939466-0.097908-0.4995279-0.2992139
		c0.0161648-0.1373305,0.0560179-0.2990489,0.2211571-0.2567663C11.8014536,4.716063,11.81458,4.9616799,11.8020096,5.2009096z"/>
	<path fill="#920EEC" d="M11.5025167,6.9983339c-0.1998577-0.0994878-0.3997145-0.1989746-0.5995693-0.2984591
		c-0.0000715-0.0664949-0.0001459-0.1329927-0.0002203-0.1994843C11.3054943,6.4614854,11.4105453,6.5486979,11.5025167,6.9983339z"
		/>
	<path fill="#B015E3" d="M11.7945127,5.7986298c-0.0312395,0.100194-0.0624781,0.200388-0.0937319,0.3005648
		c-0.2551727-0.099514-0.1768036-0.5985193-0.5983124-0.4987621c-0.0016012-0.1597924,0.0194883-0.2939386,0.2308607-0.2977686
		c0.1875143-0.0033979,0.2732267,0.0769882,0.2693491,0.2614956C11.5999136,5.6957879,11.64995,5.7863493,11.7945127,5.7986298z"/>
	<path fill="#830EE1" d="M15.3115692,6.6139579c0.0515471-0.4048595,0.3628616-0.8119764-0.0105553-1.2131443
		c-0.3748894-0.3449049-0.8250303-0.4276013-1.3139648-0.3752346c-0.1057243-0.0087047-0.2059927-0.0310531-0.2817631-0.1134458
		c0,0-0.0034456-0.0160675-0.0034103-0.016089c0.4346008-0.180357,0.8700857-0.1537199,1.2840004,0.0433998
		C15.6744251,5.267355,15.810442,6.0062914,15.3115692,6.6139579z"/>
	<path fill="#6D06F4" d="M13.705286,4.9121332c0.1001472-0.0004692,0.2002935-0.0009389,0.3004408-0.0014076
		c0.0400286,0.1179647-0.0642719,0.1953878-0.0820141,0.2974524c-0.0340509,0.1541386-0.1027193,0.2888784-0.2211123,0.3956347
		c-0.040247,0.0922594-0.1048069,0.1591263-0.2013979,0.1924925C13.5154133,5.4891438,13.3687754,5.1449575,13.705286,4.9121332z"/>
	<path fill="#B414EF" d="M17.5979385,5.1022143c-0.3301697-0.0425868-0.5271683,0.0293231-0.5146255,0.4353323
		c0.0111217,0.3599334-0.3126316,0.7473793,0.1161423,1.0623741c0.0396652,0.0884843,0.2469044,0.0018187,0.1948624,0.1861577
		c-0.1978836,0.0022097-0.395771,0.0044198-0.5936565,0.0066299c-0.0795822-0.1986299-0.0731945-0.3979387-0.004734-0.5977392
		c0.0020905-0.098413,0.004179-0.1968265,0.0062923-0.295258c0.1070328-0.0823236,0.1126671-0.2034235,0.0947685-0.3154044
		c-0.0778923-0.4873519,0.1371346-0.6613269,0.6022797-0.5824494c0.0668736,0.0000396,0.1337452,0.0000787,0.2006283,0.0001197
		C17.6659164,5.0353909,17.6319275,5.0688024,17.5979385,5.1022143z"/>
	<path fill="#BA14EE" d="M17.3943176,6.7860785c-0.0649548-0.0620537-0.1299095-0.1241074-0.1948643-0.1861591
		c0.2161427,0.0093904,0.3862686-0.0422211,0.3999405-0.3012576c0.1990471,0.0009212,0.3980923,0.0018597,0.5971069,0.002811
		c-0.1824455,0.1022372-0.4968243,0.1529121-0.1766338,0.4514589c-0.0426559,0.0164585-0.08531,0.0329175-0.1280384,0.0494041
		C17.7259426,6.7969365,17.5601311,6.7915072,17.3943176,6.7860785z"/>
	<path fill="#B015E3" d="M16.795927,6.1949692c0.0015755,0.199285,0.003149,0.398571,0.0047302,0.5977979
		C16.6371574,6.5947423,16.682148,6.3951278,16.795927,6.1949692z"/>
	<path fill="#BF1ADA" d="M18.1988888,8.0961981c0.0000229-0.0658827,0.0000477-0.1317649,0.0000725-0.1976423
		c0.0377369-0.095644,0.1044235-0.1623907,0.2001362-0.2001662C18.741703,8.0367012,18.2142067,7.9377542,18.1988888,8.0961981z"/>
	<path fill="#710AE3" d="M14.4745436,6.3901391c0.0415707,0.0030127,0.0831404,0.0060248,0.1246939,0.0090261
		c-0.1335268,0.166028-0.2670383,0.3320656-0.4005747,0.4980774c-0.0743656-0.0030379-0.1487083-0.0060501-0.2231216-0.0090876
		C14.1418276,6.7221336,14.3081856,6.5561361,14.4745436,6.3901391z"/>
	<path fill="#7508F3" d="M13.7026005,5.6038127c0.0329905-0.1673918,0.0659809-0.3347836,0.0989714-0.5021753
		c0.2331028-0.0795646,0.4662142-0.1738176,0.6991453,0.0004678c-0.0000591,0.1651764-0.0001173,0.3303523-0.0001783,0.4954896
		C14.2331715,5.4231353,13.9680147,5.5297918,13.7026005,5.6038127z"/>
	<path fill="#8208FD" d="M14.5007172,5.1021051c-0.2330523-0.0001554-0.4661036-0.0003109-0.699151-0.0004668
		c0.0680323-0.0636907,0.1360598-0.1273799,0.2041245-0.1909909c0.5017509-0.0211663,0.9760399,0.0299673,1.2953186,0.4901724
		C14.9773579,5.4534369,14.8340111,5.0236988,14.5007172,5.1021051z"/>
	<path fill="#8809FC" d="M14.6994333,6.2990808c0.0010405-0.032949,0.0029287-0.0658493,0.0057087-0.0987124
		c0.1493587-0.0939341,0.0507774-0.2723675,0.1318874-0.3938422C14.9168997,6.1673841,14.9168997,6.1673841,14.6994333,6.2990808z"
		/>
</g>
</svg>
