<?xml version="1.0" encoding="utf-8"?>
<!-- Generator: Adobe Illustrator 24.1.1, SVG Export Plug-In . SVG Version: 6.00 Build 0)  -->
<svg version="1.1" id="Слой_1" xmlns="http://www.w3.org/2000/svg" xmlns:xlink="http://www.w3.org/1999/xlink" x="0px" y="0px"
	 viewBox="0 0 32 13" enable-background="new 0 0 32 13" xml:space="preserve" width="32px" height="13px">
<g>
	<path fill="#222222" d="M21.562191,10.3414135c-1.1320686,1.5476255-2.7492542,2.4630928-4.714571,2.55301
		c-2.8282452,0.1293955-5.6687365,0.0593472-8.5033741,0.0271225c-1.5670061-0.0178156-3.0300326-1.906847-2.0456362-3.4932079
		c1.0358982-1.6693592,2.0575047-3.3463316,3.0830231-5.0212016c0.4722795-0.7713237,0.7908592-1.6337707,1.5517073-2.2330618
		c0.0545645,0.031059,0.0881615,0.0756583,0.1011982,0.1336415c-0.7059679,1.0954907-1.2720098,2.2638667-2.0163555,3.339308
		c-0.143755,0.1616063-0.2176313,0.34059-0.1568146,0.5532417c0.0079241,0.1706953-0.0603905,0.3168669-0.1656866,0.4516368
		C8.3237619,7.049046,8.1073952,7.535069,7.8144002,7.9776587C7.6051784,8.2345572,7.4823017,8.5478258,7.21451,8.7665682
		c-0.7191868,0.7161884-0.8807936,1.5870342-0.6388059,2.4828463c0.1873422,0.6935196,0.7623663,1.1658583,1.5496936,1.2532825
		c0.7578573,0.0841513,1.5314589,0.1079874,2.2919264-0.0517712c0.5966072-0.0464764,1.1925974-0.0525837,1.7884226,0.0019379
		c1.7473593,0.1372089,3.4981194,0.1497698,5.2413607-0.0063944c0.9341774-0.0836868,1.7246571-0.5572786,2.484621-1.0444345
		c0.5987797-0.2644262,0.9057713-0.8537378,1.4801655-1.1465063C21.4757843,10.2632961,21.5266209,10.2909336,21.562191,10.3414135z
		"/>
	<path fill="#222222" d="M10.9333401,2.1740746c1.0982304-1.2447757,2.5416803-2.0142596,4.2395744-2.0788178
		c2.8469486-0.108248,5.7023029-0.0546599,8.5536175-0.026182c1.6574039,0.0165535,2.7863598,1.8681772,2.0799961,3.3515043
		C25.6702652,3.706728,25.467371,3.9656777,25.2952156,4.237174c-0.1045551,0.0539269-0.1850662,0.2514949-0.332983,0.0478768
		c-0.0365887-0.2845221,0.1748791-0.4820561,0.2993889-0.7065969c0.9038944-1.6300995-0.0420685-3.1380904-2.0226021-3.2410238
		c-0.7559109-0.0392871-1.4955463,0.1143736-2.2453842,0.1116831c-1.2214928-0.0043825-2.4364414-0.1436156-3.6619396-0.1233938
		c-0.9690094,0.0159891-1.9270725,0.0415671-2.870554,0.2643548c-1.0576763,0.2497535-2.0109749,0.6788126-2.8334637,1.3530225
		c-0.1787767,0.1465464-0.3320494,0.3945608-0.6515045,0.2688205L10.9333401,2.1740746z"/>
	<path fill="#3C3C3C" d="M25.0151157,4.3416181c0.0933647-0.0348153,0.1867313-0.0696301,0.2800999-0.104444
		c-0.7895222,1.4359016-1.6565018,2.8308067-2.5879745,4.191576c-0.0861721-0.0551414-0.1205368-0.1360512-0.1332817-0.2279282
		c-0.0102749-0.152174,0.0469666-0.2860332,0.1311092-0.4123812c0.1762047-0.2502556,0.3144493-0.5242891,0.5299053-0.7512069
		c0.1269283-0.1476851,0.2009583-0.3240347,0.3033485-0.4851999c0.4376907-0.6593719,0.8322544-1.3402638,1.1976585-2.036243
		C24.7999802,4.4178934,24.8527355,4.3037448,25.0151157,4.3416181z"/>
	<path fill="#222222" d="M22.6848068,8.1706018c0.0074787,0.0860491,0.0149555,0.1720972,0.0224323,0.2581472
		c-0.3189983,0.6697245-0.5553608,1.3818579-1.1450481,1.9126644l-0.0416317-0.0374479
		c-0.1429367-0.2084141-0.0079556-0.3829098,0.0935841-0.5505209c0.2408676-0.397604,0.4011917-0.8301096,0.6362228-1.2294912
		C22.3475304,8.3588448,22.3901768,8.130084,22.6848068,8.1706018z"/>
	<path fill="#212121" d="M20.1164169,11.3906918c-0.8235416,0.8039427-1.8862667,1.2156258-3.0285511,1.2874527
		c-1.513052,0.0951424-3.038353,0.02561-4.558341,0.0182781c-0.0929651-0.0004482-0.1855087-0.0759878-0.2782478-0.1165876
		c-0.3368988-0.2333307-0.7229605-0.0710506-1.083744-0.1133165c-0.2242393-0.0262699-0.4573469,0.0329428-0.6763954-0.0551834
		c-0.0535612-0.0347795-0.0822992-0.0833321-0.0898113-0.1429663c0.2571259-0.4574709,0.7229023-0.254734,1.1113462-0.3053541
		c0.1912069-0.0249186,0.464694,0.2040367,0.5596027-0.143281c0.0071268-0.0496054,0.025012-0.0955706,0.0480881-0.1390009
		c-0.1881294-0.3155603-0.2581568-0.6110945,0.1618586-0.8229656c0.1909695-0.1604633,0.3818293-0.3207521,0.5360432-0.5138874
		c0.1987028-0.2662096,0.1794977-0.5402288-0.0480204-0.7618608c-0.6382008-0.6216974-0.8817616-1.433032-1.2667046-2.1774673
		c-0.049469-0.1835809-0.0117893-0.3539405,0.0889959-0.5150356c0.1703987-0.2732348,0.1266546-0.5836544,0.1491985-0.8745842
		c0.1200771-1.5495157,0.9758291-2.6231859,2.4406796-3.3168645c0.4190073-0.1984212,0.9256315-0.1894844,1.3115406-0.470222
		c1.8758249-0.332752,4.5100622,0.9573591,4.7976294,2.6653275c0.117424,0.7188363,0.3163433,1.4232087,0.2071991,2.170754
		c-0.135334,0.92695-0.4323635,1.7750368-1.139225,2.4587984c-0.3983631,0.3853445-0.2659073,0.66259,0.0903454,0.9910755
		C19.7207737,10.7635565,20.1465054,10.9367008,20.1164169,11.3906918z"/>
	<path fill="#212121" d="M25.0151157,4.3416185c-0.1018333,0.0549889-0.1273594,0.1458044-0.1343555,0.2453198
		c-0.0449715,0.0423379-0.0946712,0.0499372-0.150032,0.0178747c-0.098938-0.1033039-0.1304302-0.2334647-0.1681919-0.3606224
		c-0.016655-0.1406918-0.1600075-0.18889-0.2429848-0.2818313c-0.03269-0.077569-0.0281544-0.1532042,0.0110588-0.2274806
		c0.2252026-0.2108915,0.5602989-0.3662298,0.4407768-0.7510471c0.0508385-0.3146102,0.1167374-0.628619,0.0246487-0.9464159
		c-0.0282307-0.0981596,0.0874081-0.2467042-0.1192493-0.2821375c-0.0772476-0.0382774-0.1150723-0.1010174-0.1358776-0.1756136
		c-0.0906334-0.3725154-0.2832336-0.6163284-0.7521324-0.5148122c-0.3588333-0.0231775-0.7169476-0.0380967-1.0712719,0.040774
		c-0.2949142,0.0235991-0.400486-0.2258982-0.593359-0.3500369c-0.1004257-0.0640414-0.2123642-0.1054422-0.3265591-0.1427855
		c-0.6922359-0.0559973-1.3834801-0.1084496-2.0698948,0.0377438c-0.109293,0.055865-0.2223473,0.0491317-0.3356495,0.0165861
		c-0.0764103-0.009409-0.1456661-0.0021871-0.1821766,0.0742931c-0.002573,0.2826069,0.5306015,0.4224214,0.2385578,0.7769523
		c-0.3986931,0.0746195-0.6828251-0.2561872-1.0611954-0.2549235c-0.2275467-0.0429161-0.4478912-0.1093459-0.6720982-0.1637051
		c-1.0951538-0.2644209-2.1917515-0.2388487-3.2889376-0.0192251c-0.5331383,0.0904564-1.014432,0.2935699-1.45539,0.5821614
		c-0.9187527,0.490523-1.6063852,1.1932863-2.1591358,2.0193357c-0.186285,0.245774-0.3093834,0.5183525-0.3973312,0.8059626
		c-0.0475311,0.1338363-0.088007,0.2693825-0.1289225,0.4050326c-0.1943741,0.8266716-0.5158625,1.6494389-0.0712013,2.4917569
		c0.0557976,0.1784549-0.0624771,0.2906656-0.1784477,0.4044476c-0.0509834,0.0441957-0.111187,0.0710287-0.1799259,0.0818987
		C9.6971521,7.8727365,9.6078844,7.7893643,9.5550251,7.661077c-0.1257076-0.4428606,0.023819-0.9050589-0.109889-1.3469114
		C9.3194399,6.0569701,8.9791985,5.9524012,8.9008303,5.6614118C9.5176125,4.7169423,9.8871498,3.6455586,10.64079,2.7698734
		c0.1413202-0.1642041,0.2250233-0.3709173,0.3353481-0.5579851c0.6687622-0.4123292,1.2033873-0.9887289,1.9642115-1.2948309
		c1.1010666-0.442993,2.2302914-0.7566597,3.4359379-0.740494c1.2582874,0.0168716,2.5163498-0.0697187,3.7760086,0.1004703
		c1.060873,0.1433324,2.1260433-0.2009009,3.1929207-0.0985545c0.7436142,0.0713353,1.4723892,0.2251501,1.9425831,0.8550014
		c0.7404327,0.9918563,0.7051926,1.8688271-0.1219692,3.0576525C25.1100426,4.1713161,25.0651016,4.2579732,25.0151157,4.3416185z"
		/>
	<path fill="#212121" d="M10.3188114,12.5814848c-1.4427633,0.4970503-3.0228047,0.1259394-3.7277288-0.8826246
		c-0.4456301-0.6375837-0.382915-1.3491974-0.1339455-1.9936018c0.144546-0.3741302,0.1014824-0.9700336,0.766499-1.0598602
		c0.3053741-0.0013962,0.3106265-0.504715,0.7035041-0.3614731c0.2063951,0.1537933,0.449296,0.0901995,0.6810246,0.1012468
		C8.8373985,8.396101,9.0934687,8.3587332,9.2189989,8.613471c0.0064039,0.0570202-0.004756,0.1109648-0.0329514,0.1619959
		c-0.3045921,0.1379852-0.6552734,0.018404-0.9610672,0.1487274c-0.4932585,0.249691-0.7054396,0.7200012-1.0177779,1.1104221
		c-0.1081228,0.3342152-0.1338758,0.6672812,0.0143251,0.9980602c0.256413,0.3613691,0.5639029,0.6708431,0.9981179,0.8529787
		c0.4383106,0.2021828,0.8415995-0.0552778,1.2617617-0.0824699c0.1405926,0.0675392,0.2698584,0.1637783,0.4425087,0.1554317
		c0.1167364,0.0747614,0.1476793,0.2011213,0.216465,0.3047743C10.2052269,12.3667259,10.30336,12.4544897,10.3188114,12.5814848z"
		/>
	<path fill="#202020" d="M20.1164169,11.3906918c-0.3068066-0.3040771-0.6144066-0.6074715-0.9201946-0.912426
		c-0.2935104-0.2927103-0.4655781-0.5095577-0.0567932-0.9261341c1.3087273-1.3336706,1.4593296-2.9235797,0.9769878-4.6068592
		c0.4862766-0.0052528,0.3553886,0.4414988,0.554224,0.646596c0.0199394,0.0499678,0.0302887,0.1022444,0.0319443,0.1554537
		c-0.0684013,0.233346,0.0058365,0.4423294,0.1327839,0.6424274c0.0222588,0.0783048,0.0195618,0.1558733-0.0050144,0.2331157
		c-0.1108055,0.1656189-0.1288948,0.332262-0.0061283,0.5009627c0.0273323,0.1159964-0.0181332,0.2084727-0.1064644,0.2871828
		c-0.2343006,0.1459394-0.1605225,0.351747-0.1225128,0.5506406c0.0185986,0.1959777-0.0557575,0.3811202-0.0731831,0.5730968
		c-0.0410671,0.2310276-0.1438503,0.4359713-0.3031788,0.6171446c-0.1193008,0.1290894-0.2616863,0.2337475-0.4111385,0.3305044
		c-0.5627842,0.4633379-0.5546398,0.5557337,0.0897217,0.9885941c0.3109112,0.1477957,0.4842339-0.0533514,0.6535168-0.2314968
		c0.2980137-0.3136129,0.5529442-0.657794,0.7904053-1.0125141c0.1758003-0.1330557,0.3171768-0.28897,0.3762188-0.4985752
		c0.0984974-0.1967096,0.1790524-0.3972273,0.170599-0.619379c0.0079269-0.1755638,0.04282-0.3442845,0.1405678-0.497478
		c0.1886559-0.2510219,0.051712-0.5673156,0.1914291-0.8281131c0.0957451-0.1563811,0.2770348-0.2126007,0.4234314-0.3098683
		c0.0555229-0.02105,0.1134548-0.0257897,0.1725483-0.017909c0.1630497,0.1222224,0.3880577,0.0674973,0.5602913,0.1657786
		c0.0470505,0.0744891,0.0548649,0.1512213,0.0160389,0.2306314c-0.357008,0.23524-0.6039467,0.5263028-0.5664864,0.9611402
		c-0.0470047,0.1191015-0.0940094,0.238203-0.141119,0.3573494c-0.4969597,0.6602926-0.7595863,1.4301081-1.1643085,2.133441
		c-0.3655014,0.1685324-0.5337868,0.5271254-0.8440762,0.750412C20.4993649,11.1818962,20.3828831,11.3916292,20.1164169,11.3906918
		z"/>
	<path fill="#212121" d="M8.642911,6.6124144c0.0429611-0.157846,0.0859241-0.3156919,0.1288853-0.4735379
		c0.3648586-0.2128139,0.5643148-0.0746083,0.6679459,0.2686453c0.0216293,0.1309948,0.0198812,0.2635474,0.020319,0.3954382
		c-0.0321722,0.2426162,0.0824127,0.4835663,0.01546,0.7268643c-0.0330687,0.0510874-0.081665,0.0839262-0.1441755,0.098175
		C9.0700455,7.6200967,9.0414457,7.430738,9.0166731,7.2578964C8.9851131,7.0376911,8.8263521,7.1001749,8.685647,7.1088634
		C8.4542742,6.9592934,8.5711651,6.7842097,8.642911,6.6124144z"/>
	<path fill="#010101" d="M10.3188114,12.5814848c-0.0818014-0.07376-0.1636028-0.1475191-0.2454042-0.2212782
		c0.114583-0.117856,0.2391663-0.1063395,0.3691864-0.0244598c0.5351477,0.004221,1.0703077,0.0121803,1.6054373,0.0106373
		c0.1879005-0.0005417,0.3005743,0.0321484,0.2032604,0.2335005C11.6071215,12.5803843,10.9629669,12.5809345,10.3188114,12.5814848
		z"/>
	<path fill="#0E0E0E" d="M8.642911,6.6124144C8.7778435,6.7740631,8.5682497,6.9393969,8.6490135,7.101625
		c-0.004652,0.0249076-0.009304,0.0498147-0.0132761,0.0749178C8.5586367,7.3384347,8.4554338,7.4879436,8.3744631,7.6485872
		C8.3487463,7.6955404,8.3183098,7.739347,8.2856522,7.7822475C8.1317129,7.9318485,8.0738277,8.1789846,7.79322,8.2006302
		C7.6686616,8.1279449,7.6373405,8.0390329,7.7377715,7.9273233C7.9625816,7.4436398,8.1411667,6.9326777,8.642911,6.6124144z"/>
	<path fill="#212121" d="M9.288312,6.4976311c0.0387058-0.3798542-0.2395477-0.3685107-0.5165157-0.3587546
		C8.5209446,5.9116435,8.6917953,5.782104,8.9008293,5.6614118C9.1156635,5.8205662,9.3304958,5.9797206,9.54533,6.1388755
		C9.6535168,6.3775196,9.5804033,6.504818,9.288312,6.4976311z"/>
	<path fill="#161616" d="M7.7377715,7.9273233c0.0044322,0.0968409,0.0224032,0.1873732,0.1287026,0.2367401
		c0.0437913-0.0430555,0.0915298-0.04949,0.1438332-0.013442C8.0348129,8.2461653,7.9989305,8.2975597,7.8877454,8.293746
		C7.5766301,8.2656593,7.6693649,8.8913555,7.2236519,8.6453981C7.3923206,8.4043865,7.4283867,8.0819759,7.7377715,7.9273233z"/>
	<path fill="#222222" d="M24.7579346,4.5873413c0.0409794-0.000072,0.0819626-0.0002046,0.1228848-0.000401
		c-0.4164753,0.6838212-0.7169685,1.4302573-1.2816219,2.0340133c-0.0527554-0.0395932-0.0885067-0.0896058-0.107893-0.1498141
		C23.7389698,5.7429552,23.9940128,5.018434,24.7579346,4.5873413z"/>
	<path fill="#212121" d="M22.8260307,7.8132076c-0.2211857-0.603786-0.1174755-0.7974224,0.5132008-0.9582071
		c0.0740471,0.0796342,0.0739326,0.1593213,0.0002003,0.2390623C23.1682987,7.3337779,22.9971657,7.5734925,22.8260307,7.8132076z"
		/>
	<path fill="#222222" d="M23.3394318,7.0940628c-0.0000648-0.0796871-0.0001316-0.1593742-0.0002003-0.2390623
		c-0.0000343-0.0797186-0.0000687-0.1594367-0.000103-0.2391558c-0.0037498-0.2021379,0.1076298-0.1957946,0.2565613-0.1214576
		c0.0011559,0.0421529,0.0023098,0.0843067,0.0034866,0.1265135C23.5765133,6.8087344,23.496067,6.9693289,23.3394318,7.0940628z"/>
	<path fill="#F5F5F5" d="M17.099123,6.9257398c-0.0003948,0.6563668-0.0203571,1.313458,0.0074596,1.9688096
		c0.0154686,0.3643932-0.113205,0.4832993-0.5092049,0.4879656c-1.0032015,0.0118208-1.0028477,0.0285616-1.001811-0.9211912
		c0.0008698-0.7956018-0.0145855-1.5916133,0.0092592-2.3866205c0.0108862-0.3629985-0.0568314-0.5902271-0.5192566-0.5306926
		c-0.5101051,0.0656719-0.4649801-0.2582893-0.4804382-0.5697107c-0.0172043-0.3466372,0.0908136-0.5204983,0.5036812-0.5019798
		c0.5143766,0.0230718,1.0313549,0.0187211,1.5462551,0.0015993c0.3410244-0.0113401,0.4543781,0.1211262,0.4485359,0.4231305
		C17.0905323,5.5730853,17.0995159,6.249486,17.099123,6.9257398z"/>
	<path fill="#1F1F1F" d="M11.7368965,6.9743972c-0.1887083,0.1253171-0.1106672,0.3123932-0.1288757,0.4771852
		c-0.0190897,0.0822315-0.0732012,0.1331439-0.1608162,0.1542873c-0.0934277-0.0130386-0.1442547-0.0680008-0.1704674-0.1476731
		c-0.0084581-0.1334872-0.091917-0.2472143-0.1182003-0.3771806c-0.0021067-0.0579219,0.0020399-0.114717,0.0094776-0.1720123
		c0.0027685-0.6046329,0.0154295-1.2079105,0.1400337-1.8037133c0.0186443-0.45052,0.2793999-0.8078551,0.5243607-1.1713538
		c0.5576649-0.8290236,1.2830553-1.4674857,2.3238411-1.746563c0.1248932-0.0185707,0.2512789-0.0264513,0.3768072-0.0414639
		c0.1862469-0.0396614,0.3719568-0.0909665,0.5639257-0.0276761c0.3573313,0.3554819-0.0640469,0.4112849-0.2502489,0.4523237
		c-1.6537285,0.36448-2.5677843,1.4052193-3.0079803,2.8425333C11.6866732,5.9096627,11.7061834,6.4498396,11.7368965,6.9743972z"/>
	<path fill="#1F1F1F" d="M20.6320801,5.6614161c-0.3861675-0.1064458-0.1295128-0.6096854-0.5156631-0.7161436
		C19.946146,3.9803436,19.2635174,3.3772893,18.40098,2.927511c-0.9032269-0.4709952-1.8856468-0.6722107-2.9255276-0.6081645
		c-0.2391129-0.0178714-0.2138023-0.1364577-0.1245728-0.2797675c0.8069782-0.3049327,1.5807781,0.0012658,2.3650379,0.1102433
		c0.1357956,0.0091116,0.2713108,0.0224092,0.4018459,0.0607183c0.616291,0.2903523,1.2082558,0.6134548,1.6611576,1.1141899
		c0.1242428,0.1935976,0.2885399,0.3605611,0.4300442,0.5433288c0.0827045,0.1270912,0.141943,0.2632294,0.1870461,0.4052944
		c0.0567856,0.2731156,0.2170448,0.5127273,0.2927837,0.7797408C20.7484245,5.2633038,20.8311043,5.4729204,20.6320801,5.6614161z"
		/>
	<path fill="#DFDFDF" d="M12.1143274,11.7523394c0.0691319,0.1290588,0.3408928,0.1644974,0.2398586,0.360321
		c-0.0785112,0.1521664-0.2625427,0.0634813-0.401804,0.0617418c-0.5029898-0.0062866-1.0074205-0.0708914-1.5073328,0.0352373
		c-0.4188147,0.1803064-0.5058489,0.0199175-0.3745213-0.3266048c0.0553246-0.1459761,0.1881886-0.2587652,0.2688599-0.3964415
		c0.2646866-0.2190828,0.1759701-0.8879442,0.8567963-0.5824947c0.2174673,0.1460228,0.3852968,0.3413277,0.5807648,0.5093679
		C11.8868961,11.5281563,12.039484,11.6073265,12.1143274,11.7523394z"/>
	<path fill="#212121" d="M15.346694,2.0808628c0.0024099,0.0982432,0.0249977,0.1871488,0.1287584,0.2384837
		c-0.1130419,0.2210104-0.3367786,0.3271224-0.5658636,0.3402681c-0.6196928,0.0355589-1.0574856,0.3799901-1.5192776,0.6949787
		c-1.1175852,0.7623072-1.4640188,1.8514938-1.5262642,3.0646009c-0.0097237,0.1895156,0.0725574,0.4013996-0.1271505,0.555203
		c-0.3897667-0.7763944-0.0893345-1.5419788,0.2150812-2.2209511c0.5033464-1.1226702,1.3820372-1.9579599,2.7542448-2.224216
		c0.1542997-0.0299399,0.4452562-0.0339959,0.3824825-0.3292439C15.0828533,1.9897571,15.2059603,2.0189455,15.346694,2.0808628z"/>
	<path fill="#0B0B0B" d="M17.3387585,9.2780733c0-1.5679388,0-3.1358776,0.0004864-4.704093
		C17.5718307,4.8853192,17.6599007,8.3791008,17.3387585,9.2780733z"/>
	<path fill="#161616" d="M11.4780159,7.5722351c0.043335-0.040215,0.086669-0.08043,0.1300049-0.1206489
		c0.2071552,0.20328,0.3435392,0.4263673,0.4168215,0.7123685c0.141572,0.5525179,0.5694752,0.9652872,0.9301071,1.4055853
		c0.2524376,0.3082037,0.2768764,0.595768-0.0550728,0.8681517c-0.1502724-0.0150709-0.3266878,0.1424589-0.4492655-0.0585117
		c0.2305832-0.5342169-0.3322001-0.816288-0.4600334-1.236393c-0.1203251-0.3487101-0.3246689-0.660862-0.5014353-0.9854126
		C11.4039841,7.9636436,11.2895269,7.7699919,11.4780159,7.5722351z"/>
	<path fill="#101010" d="M11.7202063,11.5161295c-0.2383347-0.0888815-0.3845673-0.2651043-0.5100126-0.4610386
		c-0.4490414-0.2996244-0.7114782-0.7004948-0.7691488-1.2133427c-0.0047522-0.1196499,0.0153494-0.2329006,0.099967-0.3292055
		c0.4215603-0.0515404,0.4451914,0.316556,0.6327419,0.5124846c0.2471771,0.3880301,0.5440311,0.7179728,1.066287,0.7870789
		c0.0567551,0.0218344,0.1030035,0.0563097,0.1406498,0.1009388c-0.1896973,0.2157841-0.5198355,0.4059944,0.0169172,0.6435366
		c0.1833296,0.0811338-0.0282555,0.1570625-0.1471901,0.1739111C12.065546,11.6762848,11.883544,11.6159964,11.7202063,11.5161295z"
		/>
	<path fill="#080808" d="M15.0898228,9.2792797c0-0.8851395,0.0065851-1.77035-0.0044947-2.6553702
		c-0.0028782-0.2296395,0.0891485-0.4793663-0.0934668-0.6871409c-0.1271067-0.1446171-0.046526-0.2154298,0.0998497-0.2462339
		c0.1322002-0.0278211,0.2949896,0.0003381,0.2963963,0.1454978c0.0111361,1.1472044,0.0061922,2.2945428,0.0061922,3.4418406
		C15.2928076,9.2783413,15.1913147,9.2788105,15.0898228,9.2792797z"/>
	<path fill="#0D0D0D" d="M14.644206,4.2698097c0.6096621-0.1962771,1.7256174-0.2078691,2.2894506,0
		C16.2207813,4.2698097,15.5079079,4.2698097,14.644206,4.2698097z"/>
	<path fill="#080808" d="M17.0289021,9.6633568c-0.4319477,0.2776213-0.8850098,0.1410723-1.3337765,0.0887842
		C16.1292305,9.5167904,16.5814056,9.6359549,17.0289021,9.6633568z"/>
	<path fill="#040404" d="M14.2713804,4.5769687c0.2306185,0.2873511,0.1669807,0.5854244,0.0997686,0.985651
		C14.0868034,5.1911793,14.2052031,4.8773823,14.2713804,4.5769687z"/>
	<path fill="#313131" d="M10.4689913,11.5422287c-0.0067425,0.1313896-0.1175909,0.1965351-0.2040138,0.2784548
		c-0.2764893,0.262084-0.1041298,0.3482151,0.1800718,0.3889599c-0.0007896,0.0420933-0.0015783,0.0841913-0.0024109,0.126195
		c-0.123167,0.0079613-0.2462912,0.0160141-0.3693218,0.0242186c-0.1572695-0.0880213-0.144187-0.2362614-0.1546326-0.3762083
		c-0.0188007-0.2851086,0.1234131-0.4617462,0.4198799-0.5346355
		C10.3997526,11.4587421,10.4432573,11.4898233,10.4689913,11.5422287z"/>
	<path fill="#0D0D0D" d="M12.3806906,10.9130449c-0.0417595,0.0001497-0.0835209,0.0004015-0.1252804,0.0007553
		c-0.0970964-0.1278582-0.0218964-0.2457972,0.0236654-0.3658409c0.0423937-0.0706453,0.0982609-0.1242495,0.1930084-0.126646
		c0.1425276,0.0064917,0.2936516-0.1799021,0.4277573,0.0163593C12.7698593,10.6364441,12.6048155,10.8024044,12.3806906,10.9130449
		z"/>
	<path fill="#171717" d="M11.7202063,11.5161295c0.2123423-0.0037899,0.382122,0.0825825,0.5302763,0.2144938
		c-0.0454283,0.0071516-0.0907917,0.0144348-0.1361551,0.0217161
		C11.9372454,11.7389822,11.8334618,11.6207819,11.7202063,11.5161295z"/>
	<path fill="#303030" d="M10.1892614,7.4543748C9.7795296,7.3046737,9.8265486,6.9353681,9.8206244,6.6560626
		c-0.0132771-0.6260023,0.0699062-1.2516432,0.368576-1.8315916c0.1736994,0.1447949,0.1257191,0.3175335,0.0964727,0.4155049
		c-0.0125914-0.4526186,0.2672625-0.8965898,0.5020857-1.3538713c0.257719-0.5018706,0.6044741-0.9386072,1.0378857-1.3306215
		c0.4144773-0.3748872,0.870616-0.6890604,1.3493128-0.9832375c0.0540695-0.0316519,0.1114969-0.0560027,0.1711588-0.0767773
		c0.3520145-0.0602436,0.6469822-0.2730925,1.0032244-0.3230537c0.6128998-0.1002133,1.2296495-0.164168,1.8516064-0.1848756
		c1.0465202,0.103429,2.0526829,0.3030896,2.9736843,0.8260325c1.5674629,0.8900065,2.4010048,2.2034922,2.6805058,3.8453779
		c0.0654049,0.3842025,0.1797657,0.779108,0.0567722,1.1765962c-0.0787983,0.2074399-0.0768414,0.4242578-0.0832539,0.640172
		c-0.0934715,0.3946066-0.0856647,0.8100758-0.2799644,1.1840515c-0.3249931,0.4624376-0.498415,1.0181789-0.9818153,1.3845682
		c-0.2002106,0.1517477-0.4251022,0.3523035-0.6773624,0.1593094c-0.2614326-0.2000122-0.0806313-0.4439154,0.0666695-0.6356611
		c0.2858047-0.3720512,0.5482578-0.7547436,0.7860909-1.155426c0.8501682-1.4322858,0.6132431-2.8342848-0.1898937-4.1813145
		c-0.7217007-1.2104487-1.8370781-2.0049074-3.270134-2.442759c-1.0041046-0.3067909-1.9647198-0.1417269-2.884655,0.1769906
		c-1.2996883,0.4502861-2.3343678,1.226748-2.9729319,2.413784c-0.1548376,0.2878299-0.1479702,0.6198082-0.3551645,0.8879862
		c-0.0349073,0.0451827,0.1804276,0.0000005,0.2106504,0.112875c0.0201025,0.5736976-0.0299997,1.1428862-0.0606852,1.7126818
		l0.000659-0.0001359c-0.0567789,0.1302123-0.1252136,0.2516866-0.2732124,0.3139839
		c-0.1659727,0.0607562-0.3414555,0.0881047-0.5150566,0.1233835C10.3390179,7.5379758,10.2545881,7.5220566,10.1892614,7.4543748z"
		/>
	<path fill="#070707" d="M24.6266613,1.6061041c0.0430107,0.0396792,0.0860214,0.0793587,0.1290302,0.1190383
		c0.1054668,0.0510167,0.0578766,0.1724266,0.128479,0.2394775c0.2420216,0.3561653,0.1009445,0.7126538,0.0010529,1.0691074
		c-0.0552731,0.277765-0.2148552,0.4887514-0.474514,0.6359622c-0.1551208,0.132267-0.3916645,0.224093-0.280304,0.4893785
		c-0.0492344,0.079536-0.1190929,0.1360993-0.2050972,0.1775684c-0.4563084,0.1920667-0.9063644,0.2039318-1.3477879-0.0392308
		c-0.3283043-0.4472778-0.9111195-0.7034385-1.1043148-1.2538302c-0.1034908-0.4606493-0.2419376-0.9169083-0.2070045-1.3954057
		c0.0454693-0.1912613,0.1334839-0.3587445,0.313406-0.473846c0.1469002-0.0727608,0.2984848-0.124415,0.4682674-0.0760167
		c0.2362976,0.3779523-0.3311234,0.4453995-0.3162537,0.6944985c0.2454758-0.3039297,0.4665833-0.6854643,0.9638062-0.7857707
		c0.3865566-0.1775938,0.7727947-0.1795068,1.158699,0.0018167C24.2650566,1.0378196,24.4684601,1.2969006,24.6266613,1.6061041z"/>
	<path fill="#323232" d="M13.283885,1.6031756c-0.3879766,0.2995454-0.7819366,0.5927331-1.1627369,0.8999052
		c-0.9079304,0.7323825-1.4280701,1.6751304-1.7183075,2.7417564c-0.0238638,0.0877004-0.0950365,0.1643653-0.213623,0.3615479
		c0-0.3469381,0-0.5644088-0.0000086-0.7818971c0.0045004-0.1306853-0.0231676-0.2712021,0.1275034-0.3571305
		c0.1341667-0.2767906,0.2699776-0.5529261,0.388361-0.8360016c0.5190735-0.8716731,1.1909657-1.6019108,2.1904888-2.0289214
		C13.0251884,1.5199314,13.1546803,1.4972743,13.283885,1.6031756z"/>
	<path fill="#151515" d="M23.5956879,6.4943871c-0.1050682,0.0050907-0.2014809,0.0258551-0.2565575,0.1214633
		c-0.1960964,0.0611696-0.4326096,0.2785592-0.5114555-0.1134419c0.1182594-0.1501732,0.3534756-0.2149062,0.3708305-0.4381471
		c0.2286472-0.6085029,0.5542259-1.1632533,1.0515213-1.6227722c0.1111259-0.0936742,0.218111-0.1943469,0.3783779-0.2132282
		c0.1541462,0.0853791,0.125206,0.2273688,0.1295204,0.3590784C24.281929,5.1767397,23.8439407,5.7859998,23.5956879,6.4943871z"/>
	<path fill="#141414" d="M19.4732208,1.4833726c0.0793915-0.3615067-0.6201744-0.4125978-0.3881283-0.8349369
		c0.1287956-0.0729066,0.2152786,0.0031235,0.3038921,0.0728406c0.1143188,0.1484757,0.2443008,0.2799332,0.4411488,0.3373778
		c0.4822426,0.1449494,0.8854122,0.3813959,1.1146774,0.8202276c0.0695114,0.2076602,0.5647373,0.2686288,0.3286934,0.5369112
		c-0.2600021,0.2955077-0.5215073-0.0027318-0.7494926-0.1614134c-0.0673256-0.04686-0.1308517-0.098568-0.2007961-0.1421158
		C20.0468884,1.8948256,19.6842251,1.7766634,19.4732208,1.4833726z"/>
	<path fill="#242424" d="M19.4732208,1.4833726c0.3631229,0.0587326,0.5943584,0.3293868,0.9001503,0.4802412
		c0.109375,0.1762462,0.3204651,0.3252642,0.1779633,0.5689833c-0.0680637,0.0601377-0.1625938,0.0852454-0.2267017,0.0301735
		c-0.5868301-0.5041142-1.3315716-0.8010921-1.9403629-1.2755176C18.377449,1.2261441,18.3960018,1.1724145,18.439703,1.12613
		C18.8373089,1.1135215,19.1088486,1.4135576,19.4732208,1.4833726z"/>
	<path fill="#2C2C2C" d="M19.7201748,1.1273967c-0.246315-0.0079097-0.3634243-0.1380977-0.3903751-0.3536096
		c-0.0555305-0.0842803-0.0708523-0.1666702,0.0134029-0.2443777c0.0954628,0.0297331,0.1909294,0.0594662,0.2863922,0.0891992
		c0.7594223-0.1948529,1.5343227-0.0405395,2.3003063-0.0874c0.1043186,0.0023012,0.197876,0.0241294,0.2513371,0.1187258
		c0.1451263,0.2022383,0.0450153,0.3460089-0.1311703,0.4716426c-0.1325111,0.0504937-0.2491875,0.1510289-0.4102516,0.1112871
		c-0.0475903-0.1042731-0.0296783-0.2833179-0.186348-0.2818214C20.8708076,0.9566086,20.2582855,0.744903,19.7201748,1.1273967z"/>
	<path fill="#020202" d="M9.4099741,7.5718269C9.3773518,7.339077,9.3447294,7.1063266,9.3121071,6.8735762
		c0.0425453-0.0877137,0.0279207-0.2303071,0.1354895-0.2522373c0.1378231-0.0280991,0.1494293,0.0955186,0.1602068,0.1965857
		c0.0310774,0.2914162-0.0723104,0.591332,0.0645533,0.8758764C9.7237349,7.7897058,9.820713,7.8081236,9.9217634,7.8196206
		c0.098464,0.1430449,0.084547,0.3211474,0.1724091,0.4680734c0.0667267,0.1727743,0.1240549,0.3452482-0.0279846,0.5076723
		c-0.0639143,0.0276346-0.130023,0.0348272-0.1992617,0.0223618C9.4164457,8.4961357,9.1501741,8.1165524,9.4099741,7.5718269z"/>
	<path fill="#060606" d="M21.9299011,0.5312086c-0.7588367,0.2105253-1.5336876,0.06103-2.3005047,0.0875703
		c0.0204029-0.053903,0.0370426-0.1531293,0.0613308-0.1547619C20.4392281,0.4137111,21.1916065,0.2915255,21.9299011,0.5312086z"/>
	<path fill="#303030" d="M9.9323854,8.2871838C9.7874851,8.133975,9.7827158,7.9780893,9.9218636,7.8195367
		c0.0034504-0.0421829,0.007-0.0844488,0.0105505-0.1267157c0.1588879-0.0921745,0.3556938-0.0870142,0.5171471-0.1730175
		c0.1702719-0.0834751,0.3519592-0.128664,0.543766-0.141232c0.1355352-0.0466452,0.2545614-0.0223455,0.3576946,0.0705905
		c0.0423393,0.0410175,0.0846777,0.0820355,0.1270046,0.123064c0.0533018,0.1990948,0.1066132,0.398181,0.1599255,0.5972667
		c0.0281572,0.0572958,0.0133657,0.1046553-0.0384531,0.143527c-0.066288,0.0022764-0.1314373-0.012538-0.1746817-0.0572977
		c-0.5256844-0.5441232-0.755311-0.5365057-1.3324528,0.0484009C10.0343332,8.336628,9.9811697,8.3290424,9.9323854,8.2871838z"/>
	<path fill="#303030" d="M14.314703,1.0059069c1.1605186-0.36831,2.3210087-0.3686403,3.4814682,0.0002397
		c-0.0265083,0.0227518-0.0530186,0.0455039-0.0793686,0.0685157c-0.5405502,0.1148423-1.0663052-0.0698539-1.6014214-0.0682909
		c-0.5769091-0.0508389-1.1398039,0.2007583-1.7205544,0.0683028C14.3680353,1.0518608,14.3413696,1.0288839,14.314703,1.0059069z"
		/>
	<path fill="#181818" d="M22.0500679,1.121577c0.043705-0.1572284,0.0874119-0.3144568,0.1311455-0.4716638
		c0.296833-0.0357618,0.2172794,0.3930261,0.5142059,0.3571141c-0.3440666,0.2589217-0.6779842,0.5276119-0.98489,0.89993
		C21.6084232,1.5275023,22.1003189,1.4224205,22.0500679,1.121577z"/>
	<path fill="#222222" d="M24.6266613,1.6061045c-0.2575073-0.1991024-0.5150108-0.3982048-0.7725258-0.5972799
		c0.0238113-0.1673393,0.1080017-0.2918449,0.2803593-0.1429266C24.3663635,1.0662311,24.860363,1.1358957,24.6266613,1.6061045z"/>
	<path fill="#1D1D1D" d="M9.6723566,7.6938009C9.4336157,7.444283,9.6048431,7.1407108,9.5441904,6.8688297
		c-0.075285-0.3374739-0.154273-0.0101538-0.232192,0.0046315c-0.0078297-0.1252046-0.0157681-0.250525-0.0236969-0.3758373
		C9.4582653,6.4298072,9.5453253,6.3110733,9.54533,6.1388755C9.826787,6.6404386,9.6036615,7.1773376,9.6723566,7.6938009z"/>
	<path fill="#303030" d="M13.283885,1.6031756c-0.1294289-0.0002413-0.2588577-0.0004826-0.3883047-0.0007323
		c0.3845673-0.3792707,0.8534451-0.586622,1.4191313-0.5965303c-0.0000086-0.0000061,0.0009718,0.0008934,0.0009718,0.0008934
		c0.0302477,0.0315666,0.0417652,0.0641776,0.0345631,0.0978348c-0.0073128,0.0341775-0.0155983,0.0512669-0.0244646,0.0514017
		c-0.3517637,0.1396866-0.7017756,0.2835317-1.0418968,0.4471509V1.6031756z"/>
	<path fill="#222222" d="M24.6284046,4.228261c-0.0498981,0.1108813-0.128191,0.1961575-0.2524376,0.2399969
		c-0.1176968-0.0373974-0.2198277-0.1025753-0.3285065-0.1567469c-0.0436783-0.0261765-0.072113-0.0626922-0.08605-0.1088839
		c0.0474701-0.032558,0.0949421-0.0651155,0.1424141-0.0976725c0.0640144-0.0863986,0.1228828-0.1829357,0.2650681-0.1153708
		c0.1112785-0.0200734,0.2306614-0.1622021,0.3267918-0.0251474C24.7324181,4.0168056,24.6542244,4.138279,24.6284046,4.228261z"/>
	<path fill="#222222" d="M24.3675709,3.6298025c0.1725597-0.1986799,0.3451176-0.3973591,0.5176659-0.5960569
		c0.2427692,0.4933164-0.1724968,0.5828695-0.513813,0.7177992c-0.0397301-0.0259995-0.0535183-0.052691-0.0414524-0.0801096
		C24.3421822,3.6436908,24.3546848,3.6298025,24.3675709,3.6298025z"/>
	<path fill="#222222" d="M22.8261719,0.5773955c0.2522335,0.0312784,0.5044708,0.0625566,0.7567081,0.0938351
		c-0.2613544,0.1065028-0.5196419,0.1230805-0.7765999,0.0626962C22.8129082,0.6817497,22.81954,0.6295726,22.8261719,0.5773955z"/>
	<path fill="#303030" d="M10.7050734,3.631356c0.0004597,0.3303919-0.1492701,0.600981-0.3883362,0.8360045
		C10.3205662,4.1386724,10.4711313,3.8684125,10.7050734,3.631356z"/>
	<path fill="#222222" d="M25.1703587,2.7863779c0-0.2246056,0-0.4492109,0-0.6738164
		c0.0187855-0.0020609,0.037569-0.0041218,0.0563526-0.0061824c0,0.219147,0,0.4382942,0,0.6574414
		C25.2079277,2.7713397,25.1891441,2.7788587,25.1703587,2.7863779z"/>
	<path fill="#181818" d="M24.3675709,3.6298025c0.0012779,0.0405817,0.0025539,0.0811632,0.0038414,0.1217434
		c-0.0008202,0.0793512-0.0016499,0.1587031-0.0024986,0.2380471c-0.0883102,0.0384736-0.1766014,0.0769553-0.2649899,0.1153994
		C23.7702332,3.7460001,24.2955017,3.795727,24.3675709,3.6298025z"/>
	<path fill="#222222" d="M24.8841705,1.96462c-0.1021652-0.0525616-0.1228676-0.1425699-0.1284599-0.2395046
		c0.0499077-0.0785263,0.1158066-0.2200801,0.2112961-0.1325679C25.0958576,1.710637,24.9235554,1.8395741,24.8841705,1.96462z"/>
	<path fill="#1F1F1F" d="M10.4477787,7.5717454c-0.1367903,0.1681051-0.3375568,0.1026626-0.5153656,0.1210485
		c0.0856256-0.079473,0.1712503-0.1589742,0.2568617-0.2384477c0.0851355-0.0018449,0.1702852-0.0037179,0.255434-0.0055909
		c0.0340099,0.026618,0.0457869,0.0537062,0.0353785,0.0812802C10.469594,7.5578361,10.4588423,7.5717454,10.4477787,7.5717454z"/>
	<path fill="#303030" d="M18.439703,1.12613c0.0003815,0.0396742,0.0004463,0.0793486,0.0001945,0.1190236
		c-0.3157711,0.1547364-0.5526085,0.1264657-0.6443367-0.2382418c0,0,0.0006046-0.0007592,0.0006065-0.0007622
		C18.0106812,1.046141,18.225193,1.0861355,18.439703,1.12613z"/>
	<path fill="#222222" d="M19.3432026,0.5294092c-0.004385,0.0814286-0.0087719,0.1628573-0.0132809,0.2443317
		c-0.0816917-0.0417388-0.1632595-0.0835238-0.2448292-0.125307C19.1107883,0.4965909,19.1380062,0.3475722,19.3432026,0.5294092z"
		/>
	<path fill="#DCDCDC" d="M7.8877454,8.293746c0.0328622-0.0427542,0.0657244-0.0855083,0.098587-0.1282606
		c0.0839744-0.1622992,0.1353774-0.3419909,0.2904763-0.4663091L8.270875,7.7084589
		c0.1266584-0.203743,0.2216215-0.4241705,0.3764801-0.6130676c0,0,0.0016508,0.0062218,0.0016546,0.006227
		c0.1825609-0.0795569,0.1203671-0.4580946,0.4226704-0.3489361c0.2196436,0.079309,0.0616856,0.321043,0.0998755,0.4856677
		c0.0265484,0.1144347,0.0618448,0.2271299,0.0932331,0.3406019c0.1351404,0.2408633,0.132885,0.5150719,0.210144,0.7706957
		c0.0577621,0.1911173,0.0452833,0.4263-0.3090115,0.2771626c-0.3327017-0.1907682-0.6758327-0.1257544-1.015192-0.0266542
		C7.7597127,8.714344,7.8582287,8.4817228,7.8877454,8.293746z"/>
	<path fill="#232323" d="M9.1659212,8.6268101c0.3095169-0.0323877,0.3195858-0.202219,0.2218313-0.4184532
		c-0.0912046-0.201746-0.145277-0.4089937-0.1229639-0.629405C9.3132296,7.5765724,9.3616705,7.574192,9.4100428,7.5718198
		c0.0203695,0.4566064,0.1565008,0.8690934,0.5297384,1.1911731c0.4227037,0.2561235,0.4350843,0.7181463,0.6355705,1.0857792
		c0.0702028,0.4659014,0.4067583,0.8116417,0.6348429,1.2063169c-0.2620926-0.2030296-0.4665365-0.2455034-0.5298624,0.1530828
		c-0.0212259,0.1336031-0.0886812,0.2510328-0.2113438,0.3340511c-0.0080519-0.0259275-0.0209455-0.0496006-0.0386782-0.0710154
		c-0.0304899-0.8437605-0.2052794-1.6356087-0.9356728-2.2266264C9.4164276,9.1207314,9.3907261,8.9666948,9.2511978,8.8766508
		C9.2117262,8.8453484,9.1812439,8.8076715,9.1586189,8.7645445C9.1610537,8.7186337,9.1634874,8.6727219,9.1659212,8.6268101z"/>
	<path fill="#121212" d="M9.54533,9.1228828c0.7472696,0.6368847,1.2139921,1.3643942,0.8850384,2.3486156
		c-0.246707,0.1054478-0.3529062,0.3312883-0.5115671,0.5123587c-0.1057711,0.0440998-0.123333,0.2290049-0.2734394,0.1797285
		c-0.1433001-0.0470438-0.0846472-0.1907434-0.0994034-0.2962017c0.037035-0.230279,0.2206011-0.4069672,0.26826-0.6334496
		c0.03403-0.0993547,0.0699644-0.1979361,0.1029882-0.2975788c0.1739302-0.3506918,0.0525036-0.6737251-0.1086817-0.9922247
		C9.70401,9.7211237,9.4897413,9.5878515,9.311532,9.4248543C9.2757368,9.381525,9.2542238,9.3327789,9.245676,9.2788439
		C9.2609329,9.193408,9.3139839,9.1328335,9.3915854,9.0884361C9.4504757,9.0700598,9.5018034,9.0816088,9.54533,9.1228828z"/>
	<path fill="#1A1A1A" d="M7.094089,9.9573355c0.3035054-0.428812,0.5530672-0.8986969,1.0489745-1.1810102
		c0.1133032,0.1137295,0.25984,0.205905,0.2855577,0.3768845C8.4104776,9.2954893,8.295969,9.3855658,8.2151566,9.494359
		c-0.4887695,0.4376326-0.8326192,0.9144287-0.5310445,1.5822086c0.0326982,0.072402-0.0128608,0.1548395-0.0741858,0.217267
		c-0.2884049,0.0170135-0.348197-0.2124119-0.4721231-0.3733177c-0.0740976-0.2892294-0.0256028-0.5838127-0.0422001-0.8757648
		C7.0950646,10.0156212,7.0945768,9.9864779,7.094089,9.9573355z"/>
	<path d="M8.3857508,9.1202526C8.2231779,9.054925,8.1211815,8.9529324,8.1429234,8.776227
		c0.3378534-0.0633297,0.6753092-0.1458435,1.0156956-0.0116796C9.196434,8.7697887,9.2344542,8.7727909,9.2726822,8.773551
		c0.1432066,0.0833731,0.1405239,0.217598,0.1424046,0.3502312C9.3738661,9.1617212,9.3326464,9.1996613,9.2914267,9.2376003
		C8.9693565,9.3319893,8.6621923,9.3277521,8.3857508,9.1202526z"/>
	<path fill="#030303" d="M9.9324875,11.2690268c-0.0453291,0.2457094-0.1279488,0.4707689-0.3865356,0.5983667
		c-0.4605312,0.1639805-0.9117212,0.422637-1.4183302,0.1200485c-0.0481901-0.1007814,0.0190535-0.1519251,0.0984621-0.1980152
		c0.2909594-0.1152287,0.6340714,0.006218,0.9110098-0.1726255c0.0464754-0.0288811,0.0950546-0.0544586,0.1436682-0.0797939
		C9.5096054,11.4724951,9.6355476,11.1912146,9.9324875,11.2690268z"/>
	<path fill="#171717" d="M8.2561789,11.8658381c-0.0428553,0.040535-0.0857105,0.0810699-0.128562,0.1216049
		c-0.4631872-0.1522341-0.7327929-0.5093508-1.0315862-0.8355761c-0.0351443-0.0352383-0.047051-0.0762587-0.0358748-0.1231575
		c0.0331268-0.0670481,0.0886168-0.1063452,0.1680145-0.1158714c0.1613455,0.0931549,0.1832128,0.3335238,0.423172,0.3437071
		c0.0959687-0.0003252,0.1640763,0.0487099,0.2267532,0.1081057C7.9862061,11.5429516,8.2944708,11.5928898,8.2561789,11.8658381z"
		/>
	<path fill="#1A1A1A" d="M7.0975246,11.0291834c-0.0004988,0.0408955-0.0009971,0.0817909-0.0014949,0.1226854
		c-0.2035975-0.3978958-0.2010746-0.796073-0.0019217-1.1945257c-0.0000191-0.0000076,0.004178,0.0047092,0.004178,0.0047092
		C7.1928778,10.3178215,7.1945939,10.6735325,7.0975246,11.0291834z"/>
	<path fill="#313131" d="M11.2219801,5.3037968c-0.2036514,0.0700364-0.0346479,0.3622465-0.3477592,0.4291043
		c-0.0660896-0.4819789,0.1619682-0.9080544,0.3416643-1.2788696c0.5595064-1.1545806,1.5059252-1.9783976,2.7717981-2.499639
		c0.9380341-0.3862481,1.9344435-0.6236516,2.9090815-0.4364634c1.2460632,0.2393192,2.3634205,0.8395079,3.1712246,1.7876419
		c0.8244438,0.9676607,1.3690739,2.0378425,1.3555813,3.3333271c-0.0111885,1.0741744-0.5285759,1.9138861-1.1335392,2.7555313
		c-0.1591759,0.2214489-0.6205463,0.4894953-0.3155708,0.7237225c0.2932892,0.2252541,0.5402317-0.219017,0.7222633-0.4224854
		c0.2818947-0.3150959,0.476963-0.6967773,0.7088509-1.0502253C21.6721973,8.6278028,21.6222,8.806325,21.6273956,8.9512606
		c-0.0305519,0.1242046-0.135334,0.2008228-0.2189941,0.2911186c-0.1733589,0.5862827-0.6326675,0.9859324-1.0675335,1.4013767
		c-0.2098007,0.200429-0.3635406,0.1312037-0.4844627-0.0885668c-0.7072849-0.5311613-0.7112541-0.548315-0.2343426-1.0105762
		c0.2127056-0.0925312,0.378231-0.232789,0.4937763-0.4230967c0.0865288-0.1984825,0.1730576-0.396966,0.2595863-0.5954485
		c0.5326252-0.9132161,0.7440186-1.867907,0.4343548-2.8889761c-0.0195808-0.0532174-0.0319576-0.1084342-0.0386372-0.1641998
		c0.0074825-0.2209506-0.0539474-0.424221-0.1883545-0.60813c-0.1591606-0.1904478-0.2236671-0.4240379-0.3376904-0.6350827
		c-0.0431499-0.1189995-0.0862999-0.2379987-0.1294518-0.356998c-0.1137505-0.1704016-0.2650452-0.3146958-0.3882141-0.4785495
		c-0.5149784-0.3578749-1.0299568-0.7157505-1.5449352-1.073626c-0.3563633-0.1305847-0.7202568-0.2331209-1.1065159-0.253792
		c-0.0614223-0.0084007-0.12043-0.0235312-0.1777592-0.0450506c-0.9392691-0.1769409-1.854723-0.1703207-2.7119284,0.2954483
		c-0.9701862,0.2891862-1.6882772,0.8616736-2.1935616,1.6733079c-0.4972162,0.2942345-0.5420952,0.8049476-0.7031813,1.2601297
		C11.267169,5.2684207,11.2445745,5.286109,11.2219801,5.3037968z"/>
	<path fill="#222222" d="M22.3083782,6.735786c-0.0584335,0.3162875,0.1314392,0.661973-0.1317577,0.9540181
		c-0.2754669-0.3110256-0.205574-0.6872916-0.1455402-1.0200291c0.1321182-0.7322345-0.0817089-1.3964229-0.3387775-2.063273
		c-0.0889778-0.1047225-0.1437988-0.2217741-0.1519089-0.3559904c-0.0002937-0.1004009,0.02775-0.19204,0.1000404-0.269448
		c0.4159718-0.0342226,0.4744091,0.3150828,0.6617184,0.5272954c0.3268433,0.5740047,0.3576832,1.1870675,0.2795029,1.8149295
		C22.5540085,6.4967031,22.4392872,6.6208706,22.3083782,6.735786z"/>
	<path fill="#303030" d="M21.7922535,4.4685001c0.3198051,0.666719,0.5596256,1.337501,0.409956,2.0937285
		c-0.0722485,0.3650498-0.0209122,0.7510657-0.0255604,1.1275816c-0.1858578,0.1261039-0.109848,0.3121257-0.1272888,0.4767652
		C21.9373875,8.2212,22.006773,8.6001034,21.7117729,8.32827c-0.0977936-0.2819395,0.0586243-0.5414329,0.1040974-0.805933
		c0.1380558-0.802989,0.1525307-1.5928364-0.0785236-2.3835449C21.6727581,4.9177628,21.5889683,4.6784167,21.7922535,4.4685001z"/>
	<path fill="#303030" d="M20.8894405,5.5421104c0.5150776,0.992054,0.1312714,1.9160953-0.2531357,2.8391094
		c-0.0433521,0.1040993-0.1498451,0.1335316-0.2608929,0.1448488c0.043417-0.1983318,0.0868206-0.3966637,0.1302242-0.5949941
		c0.0206223-0.0635252,0.0422287-0.1267619,0.0642834-0.1900477c0.3031387-0.4829292,0.2708607-1.0011802,0.1855526-1.5241079
		C20.7162743,5.9766402,20.7086773,5.7439265,20.8894405,5.5421104z"/>
	<path fill="#212121" d="M20.8894405,5.5421104c-0.0669231,0.7972755,0.1884098,1.6243505-0.2574387,2.3865862
		c-0.1586075-0.1987576-0.1583099-0.3974972,0.0000782-0.5962186c0.1038322-0.0514512,0.1263332-0.1404934,0.1287594-0.2388153
		c-0.141798-0.1591115-0.1134014-0.3181987,0.0000782-0.4772744c0-0.0796213,0-0.1592426,0-0.2388644
		c-0.15168-0.1787844-0.1231632-0.3909206-0.1288376-0.5967293c0-0.0397925,0-0.0795856,0-0.1193786
		c0.0756664-0.5246696-0.3742599-0.9275584-0.3869781-1.4317427c0.206625,0.1556201,0.2551689,0.39926,0.3873386,0.5963354
		c0.1785374,0.1651177,0.1619968,0.4020586,0.2568321,0.5979934C20.8888416,5.4633722,20.8888969,5.5027418,20.8894405,5.5421104z"
		/>
	<path fill="#212121" d="M19.7269917,9.599659c-0.7965965,0.4160452,0.0281696,0.6437759,0.1294384,0.9555321
		c-0.8145065-0.3428078-0.8478222-0.663846-0.1237888-1.1926155C19.808979,9.4432011,19.8021374,9.5221272,19.7269917,9.599659z"/>
	<path fill="#2D2D2D" d="M23.3317051,6.1247559c0.0054607,0.3244514-0.2222881,0.3819442-0.504076,0.3775878
		c-0.0436783-0.0028195-0.0873985-0.0057044-0.1311207-0.0085893c-0.0424213-0.0367737-0.0691719-0.0815701-0.0808811-0.1342683
		c-0.0036182-0.0526567,0.0013847-0.1047745,0.0127163-0.1563425c0.0673103-0.1989737,0.0274792-0.416419,0.1196842-0.6117077
		c0.0321045-0.0478268,0.0791817-0.0730205,0.1392136-0.0790763c0.2617722,0.0944834,0.1430359,0.3892379,0.3242264,0.5249295
		C23.2523346,6.0650072,23.2922192,6.0946507,23.3317051,6.1247559z"/>
	<path fill="#1F1F1F" d="M20.6320801,7.332478c-0.0000248,0.1987443-0.0000515,0.3974891-0.0000782,0.5962262
		c-0.0421371,0.0009189-0.0842781,0.0016947-0.1263943,0.0023456C20.3369751,7.6933684,20.2264309,7.4661865,20.6320801,7.332478z"
		/>
	<path fill="#1F1F1F" d="M20.6320801,5.7807946c0.2150154,0.1670628,0.0975857,0.3956566,0.1288376,0.5967302
		C20.484581,6.2218108,20.3966389,6.0312295,20.6320801,5.7807946z"/>
	<path fill="#212121" d="M22.6948891,6.3777761c0.0010376,0.0386801,0.0015602,0.0773649,0.0015945,0.1160164
		c-0.0123138,0.2415438-0.1979599,0.2448668-0.3881111,0.2419915c0.0430546-0.1198835,0.0861053-0.2397685,0.129158-0.3596535
		C22.5238361,6.3070316,22.6096249,6.3071365,22.6948891,6.3777761z"/>
	<path fill="#222222" d="M21.4084015,9.2423792c0.0001354-0.0986109,0.0229778-0.1869516,0.1260891-0.2389889
		c0.0898933-0.0681152,0.042202-0.2157269,0.1747017-0.259243c0.0279102,0.0069933,0.0558357,0.0140152,0.0837612,0.0210352
		C21.80406,9.0204725,21.7406025,9.2242537,21.4084015,9.2423792z"/>
	<path fill="#1F1F1F" d="M20.7609177,6.6163883c-0.0000229,0.1590929-0.0000496,0.3181849-0.0000763,0.4772763
		C20.3318157,6.9345112,20.5054169,6.775444,20.7609177,6.6163883z"/>
	<path fill="#313131" d="M19.7269917,9.599659c0.0018578-0.0790339,0.0037193-0.1580696,0.0056133-0.237093
		c0.1277733-0.0803318,0.2555103-0.160675,0.3832397-0.2410336C20.1066799,9.3648748,19.9373188,9.4965467,19.7269917,9.599659z"/>
	<path fill="#222222" d="M21.7931843,8.408535c0.0853996-0.0806427,0.1707954-0.1612844,0.2561855-0.2419434
		c0.0097237,0.234479-0.052475,0.4425592-0.256422,0.598587c0.0000057,0.0000038-0.0009155-0.0005589-0.0009155-0.0005589
		C21.6843948,8.6456251,21.6806812,8.5269184,21.7931843,8.408535z"/>
	<path fill="#151515" d="M8.6473551,7.0953913C8.5772934,7.3289194,8.4706593,7.54319,8.2708473,7.7084198
		C8.2838745,7.4448829,8.3784971,7.2242761,8.6473551,7.0953913z"/>
	<path fill="#151515" d="M8.2768087,7.6991763C8.2588072,7.8967047,8.135047,8.0377579,7.9863334,8.1654854L7.9264183,8.1658583
		c0,0-0.0598884-0.0017185-0.059916-0.0017567C7.9856105,7.9957523,8.0160446,7.7603245,8.2768087,7.6991763z"/>
	<path fill="#303030" d="M14.1862936,2.3171108c0.0109072-0.1492341,0.065443-0.2946241,0.2327328-0.3220593
		c0.8646221-0.1417934,1.7299337-0.4259009,2.603179-0.0334125c-0.4806747,0.1275169-0.9714756,0.0352784-1.4571419,0.0540847
		c-0.3667202,0.0141993-0.7246256,0.026324-0.9936123,0.3032012C14.4430647,2.3183203,14.3146801,2.3177154,14.1862936,2.3171108z"
		/>
	<path fill="#212121" d="M14.5714512,2.3189254c0.1311264-0.3671439,0.4858685-0.3386427,0.7876062-0.3508768
		c0.5534229-0.02244,1.1086683-0.00641,1.6631517-0.0064142c-0.0000038,0.0000046-0.000061-0.0001767-0.000061-0.0001767
		c0.234766,0.163008,0.685276-0.075271,0.7751503,0.3572471c-0.8101463-0.1386795-1.6168385-0.3078313-2.4506063-0.2378449
		c-0.1062584,0.0020895-0.2023907,0.0229771-0.257987,0.1191263C14.9005661,2.1810248,14.733119,2.2391996,14.5714512,2.3189254z"/>
	<path fill="#212121" d="M11.2194595,7.0928035c-0.2192326-0.5966029,0.0796452-1.192585,0.002512-1.789012
		c0.0000086,0.0000052-0.0003023,0.0000901-0.0003023,0.0000901c0.1150799-0.0532484,0.0055313-0.3116746,0.2565384-0.2407632
		C11.2504911,5.7242203,11.4955893,6.4369931,11.2194595,7.0928035z"/>
	<path fill="#303030" d="M11.4782076,5.0631185c-0.085516,0.0802507-0.171032,0.1605015-0.2565432,0.2407579
		c0.1423979-0.4955144,0.1231976-1.0723581,0.7710886-1.3134596C11.77108,4.3273673,11.4721537,4.6325417,11.4782076,5.0631185z"/>
	<path fill="#1A1A1A" d="M11.3510218,7.449162c-0.130703-0.0031762-0.2614059-0.0063524-0.3921089-0.0095291
		c-0.0423241-0.0253758-0.0557184-0.0496864-0.0403423-0.0730238c0.014986-0.022747,0.0298738-0.0341673,0.0448322-0.0341673
		c0.0483189-0.1141257,0.1338081-0.194129,0.256732-0.2397633C11.2954636,7.2015171,11.4964685,7.270812,11.3510218,7.449162z"/>
	<path fill="#303030" d="M17.7972984,2.3187048c-0.175005-0.2741661-0.5626717-0.1527796-0.7751484-0.3572489
		c0.4423771-0.0343601,0.8366356,0.0646049,1.160347,0.359037C18.0540962,2.319906,17.9256992,2.3193054,17.7972984,2.3187048z"/>
	<path fill="#303030" d="M19.7274323,3.3941321c0.2097969,0.1035938,0.379631,0.2349815,0.3882217,0.4785306
		C19.9108715,3.765579,19.7413864,3.6339359,19.7274323,3.3941321z"/>
	<path fill="#F3F3F3" d="M10.0864325,8.2783871c-0.0482531-0.6654353,0.6119871-0.4928851,0.9569225-0.6437135
		c0.3164063-0.1383519,0.2939711,0.2383409,0.3927622,0.4123693c0.0487947,0.0859547,0.1120319,0.1648808,0.1687336,0.2469873
		c0.2199411,0.252491,0.3013029,0.5786486,0.5168324,0.8334856c0.1027021,0.1416874,0.1732559,0.3258181,0.3140392,0.4172268
		c0.4495192,0.2918653,0.3544626,0.5731268,0.0363617,0.8765707c-0.035593,0.0339413-0.0711832,0.0678844-0.1067762,0.1018267
		c-0.17136,0.3708582-0.4045105,0.4288092-0.7168083,0.1262856c-0.19067-0.1847019-0.4003201-0.3530893-0.5569019-0.5664358
		c-0.1607771-0.2088423-0.3215542-0.4176846-0.4823303-0.6265268c-0.0270033-0.011445-0.0540056-0.0228901-0.0812941-0.0340118
		C10.2449026,9.0861645,10.1891727,8.6745062,10.0864325,8.2783871z"/>
	<path fill="#212121" d="M12.1216831,9.1275158C11.85392,8.900444,11.6777658,8.6246767,11.6048508,8.2940302
		c0.0109138-0.0415602,0.0218287-0.0831194,0.0329218-0.124608C11.8403254,8.4710302,12.0533848,8.7679434,12.1216831,9.1275158z"/>
	<path fill="#232323" d="M11.0915976,10.0829897c0.244915,0.055603,0.3572073,0.2618065,0.4817162,0.4206657
		c0.2769327,0.3533297,0.520236,0.2941217,0.7919941,0.0194855c-0.0366554,0.1302156-0.0733099,0.2604313-0.109931,0.3906536
		C11.6010685,10.9567747,11.3225861,10.5483999,11.0915976,10.0829897z"/>
	<path fill="#010101" d="M10.5753517,9.848772c-0.3485174-0.2933455-0.451786-0.709794-0.6356602-1.0857582
		c0.0397749,0.0013666,0.0794735,0.0021076,0.1191864,0.002202c0.4162235,0.0694227,0.2833223,0.5196266,0.5566416,0.6881447
		c0,0-0.0062523,0.0031023-0.0062532,0.0031023C10.5979614,9.5872326,10.5866566,9.7180023,10.5753517,9.848772z"/>
	<path fill="#313131" d="M21.7931843,8.408534c-0.0003834,0.1186962-0.0007648,0.2373924-0.0011482,0.3560877
		c-0.0858498,0.0795898-0.1716976,0.1591806-0.2575455,0.2387705c-0.0044518-0.1312113,0.0226402-0.2721596-0.1289158-0.3579512
		c0.182148-0.3800526,0.1491737-0.7999411,0.2578316-1.1936026c0.1589298-0.1774611-0.0232563-0.4180889,0.1289158-0.5968013
		c0.0383072-1.6857567-0.5113544-3.1983032-1.8411255-4.3447824c-0.8326511-0.7178802-1.8769207-1.2223437-3.084547-1.2619743
		c-0.2174854-0.0071369-0.4260368-0.0194025-0.6177025-0.1225369c-0.0693913-0.0673325-0.2103519-0.1015289-0.1289158-0.2386932
		c0.5682087-0.0762783,1.112669,0.1320998,1.6755333,0.1198557c0.1677246,0.1885195,0.3921356,0.2456123,0.6443405,0.2382466
		c0.7656975,0.3318493,1.4341526,0.7950597,2.0642738,1.3100517c0.5499935,0.214252,0.6849155,0.7330191,0.9758663,1.1376212
		c0.1185036,0.1619236,0.0562038,0.376806,0.183815,0.5364649c0.0032578,0.0979252,0.0253506,0.1871839,0.1283932,0.2392006
		c0.0859566,0.5389414,0.1904316,1.0760245,0.253479,1.6172442C22.1375141,6.8736382,21.9527092,7.6411257,21.7931843,8.408534z"/>
	<path fill="#313131" d="M16.1200314,0.8870504c0.0429707,0.0795646,0.0859413,0.1591288,0.1289158,0.2386932
		c-0.6457043,0.0717537-1.3025398,0.0662091-1.9337358,0.2387115c-0.0759878-0.0795676-0.076642-0.1591347,0-0.2387023
		C14.3152151,1.0861,14.3153687,1.046448,14.3156767,1.0068014C14.9200325,1.0043412,15.5098133,0.8137279,16.1200314,0.8870504z"/>
	<path fill="#323232" d="M14.3152113,1.1257528c0,0.0795676,0,0.159135,0,0.2387023
		c-0.3784676-0.0488944-0.6359215,0.3503516-1.0313263,0.2387388C13.5433903,1.2879986,13.8981838,1.1492546,14.3152113,1.1257528z"
		/>
	<path fill="#121212" d="M10.9634027,7.3324418c-0.0002623,0.035852-0.0017309,0.0716634-0.0044489,0.1073108
		c-0.1704197,0.0439129-0.3407974,0.0879464-0.5111761,0.1319861c-0.0010004-0.040967-0.0019999-0.0819407-0.0030355-0.1229491
		C10.5832605,7.278687,10.7850027,7.3501782,10.9634027,7.3324418z"/>
	<path fill="#313131" d="M21.7923222,6.8550372c-0.0313759,0.2010808,0.0862083,0.4297457-0.1289158,0.5968013
		C21.6947823,7.2507567,21.5771961,7.0220923,21.7923222,6.8550372z"/>
	<path fill="#DBDBDB" d="M19.7201748,1.1273967c-0.1039276-0.208733-0.2183189-0.4081559,0.2080879-0.3901959
		c0.5064354,0.0213303,1.0142612,0.0128492,1.521328,0.0236841c0.1559258,0.0033321,0.3732624-0.1027371,0.4446411,0.0965267
		c0.0620842,0.1733145-0.1713066,0.2463206-0.2544155,0.375453c-0.148077,0.0781326-0.1942749,0.2164519-0.2433224,0.3530864
		c-0.0995445,0.2820865-0.1074791,0.7083923-0.6212826,0.338303C20.6168232,1.4392503,20.1348858,1.3214729,19.7201748,1.1273967z"
		/>
	<path fill="#1F1F1F" d="M20.7752113,1.9242539c0.4099789,0.2066498,0.4985714-0.0926833,0.6212845-0.3382988
		c0.0520477,0.4893804,0.0899658,0.9809575,0.2627182,1.4516146c-0.1660137,0.2435949,0.0825634,0.3419642,0.2016697,0.4811516
		c0.1941776,0.2269199,0.4505329,0.4067686,0.5948753,0.6723483c0.0283279,0.0514321,0.0371208,0.1050282,0.0241566,0.1617408
		c-0.0730591,0.0997734-0.1554794,0.1785054-0.3010368,0.1149921c-0.1716328-0.1591706-0.3432655-0.3183417-0.5148964-0.4775124
		c-0.1320324-0.0370638-0.1810341-0.1511226-0.2584076-0.2388735c-0.3004723-0.3987138-0.6009445-0.7974284-0.9014072-1.1961772
		c-0.0435848-0.1972497-0.087183-0.3944638-0.1307888-0.5916522c0.300087,0.0905993,0.4023666,0.5071006,0.8449249,0.4415097
		C21.2050056,2.1114013,20.7346115,2.2117236,20.7752113,1.9242539z"/>
	<path fill="#222222" d="M24.6272659,1.961863c0.2307777,0.7681417-0.0335159,1.3714993-0.7565441,1.7271161
		c-0.7352657,0.3616362-1.1133823,0.2533531-1.8400745-0.5269499c-0.0447788-0.0580983-0.0366974-0.1089997,0.023735-0.1528316
		c0.2407932-0.0275607,0.3800049,0.1411777,0.552906,0.2459762c0.7807446,0.4732211,1.6042671,0.1269214,1.7224541-0.7253151
		c0.0266285-0.1920054-0.0035305-0.394377,0.1295662-0.56563C24.5146103,1.9160074,24.5706291,1.9153758,24.6272659,1.961863z"/>
	<path fill="#2D2D2D" d="M22.4319572,4.3545313c0.0019093-0.0417199,0.0038204-0.0834403,0.0057297-0.1251602
		c0.0431385-0.0436931,0.0887432-0.0460243,0.1368179-0.0069962c0.464304,0.1110916,0.927433,0.1502504,1.3870258-0.0195942
		c0.0571098,0.0117693,0.114336,0.0236917,0.1715641,0.035614c-0.096735,0.395957-0.4601345,0.3471165-0.7609768,0.3739786
		c-0.2727928,0.0243578-0.4606895,0.0867143-0.3995132,0.3891892c0.0097675,0.186368,0.0279808,0.3739352-0.1258068,0.5255418
		l-0.0460396,0.0339799c-0.0726147,0.0182767-0.1300335-0.0014219-0.1725197-0.0588446
		C22.6435204,5.107995,22.2370415,4.7752786,22.4319572,4.3545313z"/>
	<path fill="#202020" d="M22.5745049,4.2223749c-0.0456123,0.0023298-0.0912247,0.0046592-0.1368275,0.0069928
		c-0.3330669-0.3560724-0.9110851-0.575016-0.7784214-1.1918306c0.0490685,0.3495672,0.3748875,0.505918,0.6086788,0.7181613
		C22.4199619,3.8937089,22.6056595,3.9899304,22.5745049,4.2223749z"/>
	<path fill="#191919" d="M22.0626183,3.0106425c-0.0105667,0.0504453-0.0211315,0.1008909-0.0318336,0.1513617
		c-0.3848152-0.7780347-0.3416519-1.0422018,0.2583275-1.58189c0.0219612,0.019825,0.0439243,0.0396502,0.0660992,0.0593944
		C22.2758656,2.0998023,22.1601791,2.5535634,22.0626183,3.0106425z"/>
	<path fill="#3F3F3F" d="M22.6978683,1.2464255c0.3836689-0.1653845,0.7668304-0.142722,1.1496601,0.0026618
		c0.0488777,0.0675406,0.0379639,0.1254102-0.0325871,0.1739945c-0.360939,0.1448627-0.7218857,0.1454952-1.0828419-0.0002871
		C22.6628113,1.3737968,22.6514549,1.3148813,22.6978683,1.2464255z"/>
	<path fill="#1B1B1B" d="M24.6272659,1.961863c-0.0508881,0.0024524-0.1017761,0.0049043-0.1526623,0.0073566
		C24.2784824,1.9854519,24.1991653,1.880321,24.172533,1.720257c0.0091324-0.0582021,0.0383129-0.105494,0.0903206-0.1401476
		C24.3843231,1.7073605,24.5057945,1.8346118,24.6272659,1.961863z"/>
	<path fill="#181818" d="M22.6978683,1.2464255c0.0017109,0.0448219,0.0034199,0.0896436,0.0051289,0.1344655
		c-0.0066147,0.2387743-0.1233425,0.3301158-0.3753529,0.240316c0,0-0.0383968-0.0409023-0.0384655-0.0409974
		C22.3994274,1.4416484,22.5191441,1.3130555,22.6978683,1.2464255z"/>
	<path fill="#1B1B1B" d="M23.8424911,1.3880932c0.0017204-0.0463531,0.0034389-0.0927063,0.0050983-0.1390325
		c0.1838264,0.061541,0.3006268,0.1951278,0.4151554,0.3311611c-0.0160885,0.0167106-0.0325565,0.0333037-0.0492916,0.0496671
		C23.9725056,1.703554,23.8554955,1.6142161,23.8424911,1.3880932z"/>
	<path fill="#E5E5E5" d="M22.8080387,4.9464035c-0.2175503-0.3769546-0.1593246-0.5504317,0.3598614-0.4792671
		c0.3399105,0.0465903,0.6886311,0.0097938,0.965189-0.2287445c0.1585636,0.0063367,0.1842384,0.1330304,0.242878,0.229866
		c-0.4528942,0.4955263-0.8242569,1.0351148-1.0442619,1.656498c-0.0313969,0.0166082-0.065134,0.0260162-0.1012154,0.0282245
		c-0.378994-0.0489588-0.1313705-0.3346491-0.2186813-0.4923844C22.8869133,5.4349689,22.9501019,5.1659751,22.8080387,4.9464035z"
		/>
	<path fill="#232323" d="M10.6155195,9.4533606c-0.3472328-0.1172657-0.2729445-0.5267982-0.5566168-0.6881485
		c0.0189123-0.1732006-0.0431242-0.3280354-0.1265192-0.4780264c0.0513506-0.0029345,0.1026974-0.0058661,0.154048-0.0087986
		C10.301095,8.655261,10.5242796,9.0288439,10.6155195,9.4533606z"/>
	<path fill="#1C1C1C" d="M9.4150867,9.1237831C9.2650175,9.0427008,9.2980099,8.8979626,9.2728214,8.7734795
		C9.5482922,8.7663984,9.5460691,8.945137,9.54533,9.1228828C9.501915,9.1231823,9.4585009,9.1234827,9.4150867,9.1237831z"/>
	<path fill="#2B2B2B" d="M9.9333305,9.8359718c0.2144251,0.3821783,0.3291073,0.7732344,0.1238394,1.1927671
		c-0.0668039,0.0455837-0.1266947,0.0388041-0.1800041-0.0201082c-0.1511564-0.370491-0.1819563-0.7520571-0.1210642-1.1420622
		C9.8043871,9.8033047,9.863553,9.7931461,9.9333305,9.8359718z"/>
	<path fill="#1C1C1C" d="M8.3857508,9.1202526c0.3083754-0.0038872,0.6219625-0.0422125,0.9056358,0.1174002
		C9.2941456,9.272275,9.2998362,9.3065262,9.3085012,9.340354C9.2836761,9.3672171,9.258853,9.3940811,9.2342453,9.4212828
		C8.8635149,9.5604916,8.4963245,9.5917511,8.1373043,9.388813C8.2201195,9.2992926,8.3029346,9.2097731,8.3857508,9.1202526z"/>
	<path fill="#1D1D1D" d="M9.8987656,11.0204239c0.052825,0.0028,0.1056499,0.005599,0.1584406,0.0083561
		c-0.0416021,0.0800734-0.083168,0.1601877-0.1247263,0.2402744c-0.2373343,0.0868406-0.3335714,0.4007006-0.6565323,0.3498325
		C9.3049145,11.2600279,9.5290232,11.075264,9.8987656,11.0204239z"/>
	<path fill="#1C1C1C" d="M9.9333305,9.8359718C9.8854656,9.8384647,9.8375988,9.8409586,9.7897339,9.8434515
		C9.4518003,9.8522921,9.3002014,9.6765699,9.2629871,9.3875551c0.0152092-0.0155649,0.0303135-0.0312166,0.045414-0.0470772
		C9.6042643,9.4110088,9.778183,9.613348,9.9333305,9.8359718z"/>
	<path fill="#FAFAFA" d="M9.2629871,9.3875551C9.4385691,9.5395203,9.614152,9.6914864,9.7897339,9.8434525
		c0.2085447,0.3786488,0.2250347,0.7725487,0.1090326,1.1769714c-0.2076054,0.1994896-0.4152107,0.3989773-0.622817,0.598465
		c-0.0000019-0.0000019,0.0047274-0.0022955,0.0047274-0.0022955c-0.6007242,0.3651724-1.0847044,0.1568441-1.524992-0.26612
		c-0.03478-0.0313101-0.0695615-0.0626192-0.1043425-0.0939283c-0.4130216-0.9000053-0.335948-1.1962271,0.4859619-1.867732
		C8.5124111,9.2951937,8.8876457,9.3006277,9.2629871,9.3875551z"/>
	<path fill="#010101" d="M7.0975246,11.0291834c0.0002351-0.3557463,0.0004711-0.7114925,0.0007339-1.0671854
		c0.2545967,0.2922564,0.0556345,0.637536,0.1298718,0.9508438C7.1846218,10.9516191,7.1410732,10.9904013,7.0975246,11.0291834z"/>
	<path fill="#1D1D1D" d="M7.7556849,11.3504734c0.4587383,0.3323212,0.965457,0.4289522,1.524992,0.2661257
		c-0.2391453,0.4436684-0.6768579,0.1877995-1.0244932,0.2492619C8.1016865,11.6837759,7.7915964,11.6312542,7.7556849,11.3504734z"
		/>
	<path fill="#303030" d="M20.8892727,5.4240022c-0.1735039-0.1669722-0.2019005-0.3873701-0.2568359-0.5979953
		C20.9330387,4.9461861,20.8882732,5.1935191,20.8892727,5.4240022z"/>
	<path fill="#0D0D0D" d="M22.4319572,4.3545318c0.0923195,0.3941679,0.313736,0.7628646,0.272377,1.1834087
		c0.0810642,0.2407703,0.0874157,0.481101-0.0049438,0.7208514c-0.0018444,0.039649-0.0033455,0.0793095-0.0045033,0.1189823
		c-0.0857887-0.0005345-0.1715813-0.0010705-0.2573643-0.0016251c0.056818-0.6527457-0.0340881-1.2883101-0.2586422-1.9083462
		C22.263237,4.4300456,22.3475971,4.3922887,22.4319572,4.3545318z"/>
	<path fill="#313131" d="M21.4055748,3.7514172c0.1235371,0.0449376,0.2077866,0.1263089,0.2584019,0.238874
		c-0.0000381,0.0796633-0.000082,0.159328-0.0001221,0.238996C21.4957638,4.1079936,21.4264126,3.9409444,21.4055748,3.7514172z"/>
	<path fill="#C6C6C6" d="M22.8080387,4.9464035c0.3661079,0.3345723,0.1077213,0.8565826,0.422451,1.2065759
		c-0.1647377,0.1901321-0.2709827,0.1405001-0.303627-0.0766315c-0.0274887-0.1828341,0.0409641-0.3774157-0.0800762-0.5492377
		C22.8338776,5.3335371,22.8209591,5.1399708,22.8080387,4.9464035z"/>
	<path fill="#222222" d="M22.6993904,6.2587919c0.001585-0.2402611,0.0031681-0.4805222,0.0048504-0.7208176
		c0.0334854,0.0034871,0.0657425,0.011116,0.096693,0.0229821C22.7952442,5.7971754,22.9086151,6.0480728,22.6993904,6.2587919z"/>
	<path fill="#FBFBFB" d="M23.8424911,1.3880932c0.1236553,0.0805984,0.2473087,0.1611969,0.3709621,0.2417955
		c0.0870495,0.1131101,0.174099,0.2262204,0.2611504,0.3393304c0.142992,0.8279145-0.0393105,1.2714248-0.6443462,1.5675955
		c-0.5813808,0.2845912-1.0805378,0.1360083-1.7676411-0.5261707c-0.1480255-0.5017965-0.0713158-0.9668436,0.265028-1.389437
		c0.1251163-0.0801058,0.2502365-0.1602112,0.3753529-0.2403163C23.0833855,1.3080069,23.4632225,1.3094701,23.8424911,1.3880932z"
		/>
</g>
</svg>
