<?xml version="1.0" encoding="utf-8"?>
<!-- Generator: Adobe Illustrator 24.1.1, SVG Export Plug-In . SVG Version: 6.00 Build 0)  -->
<svg version="1.1" id="Слой_1" xmlns="http://www.w3.org/2000/svg" xmlns:xlink="http://www.w3.org/1999/xlink" x="0px" y="0px"
	 viewBox="0 0 32 13" enable-background="new 0 0 32 13" xml:space="preserve" width="32px" height="13px">
<g>
	<path fill="#222223" d="M7.18467,12.6397676c-1.3576121-1.0954752-1.551126-2.1667881-0.6685271-3.6254511
		C7.652782,7.1358047,8.8329077,5.2806354,9.9371452,3.3842854c0.9985504-1.7148483,2.5539026-2.8179369,4.6419516-3.226223
		c0.3826704-0.0900609,0.7723646-0.1192465,1.1659985-0.119185c2.497468,0.0003886,4.994956-0.0043533,7.4923773,0.0058977
		c0.307272,0.001261,0.6634884-0.0982358,0.8962803,0.2093621c-0.373888,0.3452697-0.8508816,0.1890675-1.2865562,0.2183458
		c-0.2774181,0.0186427-0.5586147,0.0010998-0.8376141-0.0108627c-0.8724575-0.0117027-1.745182-0.0066923-2.617485-0.0019054
		c-0.5877571,0.0072816-1.1758728,0.0020269-1.7630787-0.0059244c-0.6120796-0.0062767-1.2251301-0.0176254-1.8380852-0.008972
		c-2.3359594,0.0329767-4.0950251,0.9904557-5.2922812,2.8422875c-0.1236725,0.1912854-0.2532463,0.3794682-0.3638897,0.5774622
		C9.9519691,4.1882863,9.8612776,4.5539966,9.6174612,4.8504257C8.7574654,5.973196,8.0447206,7.1756077,7.380249,8.4042797
		c-0.363286,0.554388-0.8370781,1.0598402-0.9410954,1.731492c-0.1192575,0.7700567,0.0440874,1.4523907,0.7205114,1.9875917
		c0.1797762,0.1422424,0.4756513,0.2512436,0.4011374,0.5639782C7.4259686,12.7342939,7.2961893,12.7487249,7.18467,12.6397676z"/>
	<path fill="#222223" d="M24.7697086,0.4057485c1.2734032,0.8512912,1.6005249,1.9469287,0.8625889,3.2174699
		c-0.9974003,1.7172661-2.1214905,3.3736119-3.0651035,5.114707c-0.6016464,1.1101274-1.2780552,2.125289-2.3001156,2.9314852
		c-0.2606182,0.1324701-0.4306202,0.4430456-0.805336,0.35147c-0.120615-0.2680559,0.1179066-0.3665571,0.2846661-0.4761391
		c1.0836983-0.7121229,1.8589191-1.6340542,2.3646145-2.7779961c0.3647518-0.825109,0.9547596-1.5479412,1.3779488-2.3495622
		c0.0247269-0.0783668,0.0666885-0.1481733,0.1252689-0.2087474c0.154768-0.1180472,0.2166443-0.2814975,0.254755-0.4565797
		c0.0522785-0.1520743,0.1344528-0.2871408,0.2601967-0.397512c0.1746006-0.1308951,0.313242-0.2810483,0.3145828-0.5056372
		c0.0387383-0.1718411,0.140831-0.3089232,0.2701092-0.4317627c0.3778763-0.589874,0.8175926-1.1410542,0.823988-1.8869655
		c0.0064354-0.7505856-0.2517204-1.3445566-0.9032879-1.7945616c-0.1246967-0.0861219-0.3485832-0.134626-0.249361-0.361778
		C24.519598,0.3229375,24.6484032,0.3260387,24.7697086,0.4057485z"/>
	<path fill="#212121" d="M18.9544373,12.309576c-0.4805698,0.2625742-0.9936295,0.4351215-1.5526123,0.4803991
		c-0.8715534,0.0963154-1.7436619,0.071537-2.6199884,0.058259c-2.1106548-0.0319824-4.2222614-0.0090113-6.3334751-0.0124035
		c-0.2171888-0.0003481-0.4403391,0.0408802-0.6513591-0.0460157c-0.094945,0.0234108-0.1781416,0.0121212-0.2376428-0.0688114
		c-0.0531111-0.2260809-0.2958264-0.2852488-0.4478073-0.421031C6.083137,11.381176,5.9173608,10.2585297,6.6826696,9.1308899
		c0.1824255-0.268796,0.3115911-0.5823336,0.6242285-0.7625418C7.328968,8.3832617,7.351037,8.3981762,7.3736057,8.4125357
		c0.0858665,0.0978909,0.1675997,0.1996737,0.2887959,0.2654982c0.0991354,0.0596371,0.1989074,0.1182766,0.2516236,0.2226191
		c0.1026878,0.3068209-0.1180224,0.4895048-0.3047395,0.6872149c-0.5753083,0.6091747-0.6521978,1.0816355-0.2697644,1.6376858
		c0.4405227,0.6405125,1.1044302,0.9054251,1.8475313,0.645463c0.4255314-0.1488657,0.5956402-0.0192242,0.7205887,0.3124847
		c0.0861053,0.0756645,0.1847296,0.1356688,0.2827988,0.1961632c0.6981716,0.1880493,1.396039,0.1833096,2.093257,0.0039206
		c0.1643162-0.1075497,0.217001-0.2474499,0.1452894-0.423605c-0.089221-0.2814302-0.5263176-0.3987055-0.4257174-0.7697468
		c0.2052059-0.3135118,0.5323992-0.5256662,0.7822828-0.8041649c0.2305431-0.2569475,0.2740965-0.4620876,0.0300751-0.7385893
		c-0.3020658-0.3422709-0.6200705-0.6756706-0.8775377-1.0517397c-0.2837801-0.3395128-0.3143711-0.757585-0.4221678-1.1523204
		c-0.0330572-0.5655308-0.0387506-1.1309204-0.0002489-1.6957655c0.0097828-0.0628524,0.0290728-0.1240692,0.0543051-0.1830511
		c0.1751881-0.2287087,0.2052965-0.5003242,0.2567139-0.7659516c0.0302324-0.089623,0.0771704-0.1714225,0.1330423-0.2492929
		c0.6230421-1.5447659,2.6249266-2.4686174,4.4356709-2.2600083c0.1524105,0.0175591,0.3039265,0.0300083,0.4566975,0.0330839
		c1.5313568,0.1055698,2.9728298,1.2200549,3.4200478,2.5592604c0.2215023,0.6632924,0.3082485,1.3211393,0.2610435,1.8471608
		c-0.008419-0.4679985,0.0827084-1.1023903-0.2185936-1.6998973c-0.0566654-0.1123681-0.0192795-0.2397766,0.0724506-0.3422875
		c0.4659405,0.0517859,0.4563866,0.4274116,0.5425949,0.7157607c0.2826538,0.9454274,0.1423149,1.8728857-0.1843777,2.7861423
		c-0.0222073,0.0568438-0.0513916,0.1119595-0.0829697,0.1648893c-0.1103954,0.168129-0.2097073,0.3430414-0.3014259,0.5215082
		c-0.0818596,0.1427164-0.1690178,0.2826805-0.2814503,0.407568c-0.1581001,0.1529131-0.3073673,0.3120499-0.4083023,0.5049677
		c-0.2434673,0.3495102,0.0563946,0.5237064,0.288166,0.6835356c0.2804527,0.1934023,0.4226475-0.0506353,0.5716743-0.2165909
		c0.3187523-0.3549623,0.6370411-0.7106771,0.8214798-1.1480446c0.1021519-0.1665869,0.1825199-0.3423691,0.2516041-0.5229006
		c0.0226288-0.0509815,0.0524197-0.0982437,0.0866432-0.1431246c0.235508-0.1979809,0.2818222-0.4633002,0.30369-0.737998
		c0.0081024-0.0595846,0.0215645-0.1171789,0.0378819-0.1749597c0.2081318-0.6686063,0.0348186-1.3610196,0.1517544-2.0343986
		c0.0402145-0.0518188,0.0950985-0.0827112,0.1631546-0.0926557c0.291254,0.1891766,0.180315,0.5406857,0.3645744,0.7724347
		c0.0607166,0.1158328,0.1467228,0.2170382,0.2283001,0.3195171c0.2484818,0.2073727,0.3977966-0.2369409,0.6371994-0.0840869
		c-0.0898895,0.6580644-0.5979614,1.1233473-0.9145527,1.6751914c-0.5800629,1.0110893-0.98592,2.1110191-1.9397812,2.9313107
		c-0.4080257,0.3508911-1.0011444,0.5153923-1.2438469,1.0314102c0.0000019,0.0000038,0.0011311-0.0012712,0.0011311-0.0012712
		C19.3034,12.1304827,19.0824623,12.1409111,18.9544373,12.309576z"/>
	<path fill="#222222" d="M24.1373749,0.2746601c0.0787659,0.0451483,0.1575336,0.0902967,0.2363148,0.1354665
		c1.3875523,0.5733011,1.6722775,2.122364,1.0371971,3.1981325c-0.1937256,0.3281493-0.2849655,0.7252579-0.6435699,0.9617863
		c-0.1120987-0.0799398-0.1540852-0.2004509-0.2127419-0.311409c-0.0634556-0.1146312-0.1694813-0.1961989-0.2622356-0.288785
		c-0.1712608-0.2097988-0.044157-0.3740718,0.101656-0.5278945c0.1574841-0.1661367,0.2820568-0.3489313,0.3703613-0.5535955
		c0.0189648-0.05323,0.0413303-0.1050482,0.0630436-0.1570866c0.0789585-0.9364866-0.7882156-1.7200127-1.7893562-1.7617486
		c-0.475462-0.019821-0.8781357,0.255516-1.3407269,0.1493577c-0.031456-0.085916,0.0743885-0.2095264,0.064909-0.2085847
		c-0.5822792,0.0578235-1.1663895-0.0012234-1.7484589,0.0274283c-0.1647854,0.0081115-0.1967449,0.1364831-0.26791,0.2322382
		c-0.0845909,0.047941-0.1744347,0.0554214-0.2687149,0.0330683c-0.4277554-0.4672718-1.0912571-0.3019977-1.6146183-0.5141842
		c-0.1987762-0.0805882-0.516264-0.0576963-0.3695545-0.4047404c0.6188374,0.0004012,1.2376747,0.0008026,1.8565121,0.001204
		c0.879631,0.196361,1.7592316,0.1984342,2.6387997-0.0003556C22.7046452,0.2815254,23.4210091,0.2780926,24.1373749,0.2746601z"/>
	<path fill="#201F22" d="M17.4929695,0.2841095c0.2857075,0.4330246,0.9512787,0.5050236,1.2074242,0.4193216
		c0.6071644-0.203148,0.5584412,0.2517449,0.7775688,0.4360278c0.0204296,0.1181064,0.1115417,0.2555715-0.0993729,0.3107834
		c-0.2263699-0.0252885-0.4447365-0.1070998-0.6790752-0.0788951c-0.0624599-0.0059129-0.1222515-0.0196193-0.1812553-0.0388948
		c-0.148489-0.0588894-0.2768421-0.1459883-0.4012318-0.2389077c-1.0561981-0.3570796-2.1239538-0.5831849-3.2430506-0.2634565
		c-0.0592556,0.0224577-0.1207428,0.0390887-0.1829309,0.0525958c-0.6055527,0.0185474-1.1346092,0.2233924-1.6048832,0.5697032
		c-0.272974,0.1787957-0.5507345,0.3509893-0.8400631,0.5064484c-0.3934994,0.2064927-0.6906252,0.5070512-0.9542046,0.8394451
		c-0.0298729,0.0448709-0.064167,0.0872161-0.1000051,0.1280251C11.0649767,3.0581911,10.9356623,3.1888452,10.8476,3.348314
		c-0.0499821,0.0893457-0.0886068,0.1831696-0.1269503,0.2774601c-0.0431089,0.0997558-0.105093,0.186542-0.1991043,0.251982
		c-0.0505009,0.0285466-0.1046009,0.0485692-0.1618958,0.0620244c-0.0583811,0.0105557-0.1172323,0.0128031-0.1765394,0.0097694
		c-0.0913897-0.0104249-0.1690083-0.0454898-0.2286806-0.1117611c0.7504101-1.435225,1.8454494-2.5427208,3.4763498-3.1443119
		c0.9045868-0.3336757,1.8380508-0.4749761,2.8121824-0.414055C16.6578541,0.305369,17.0761948,0.2839847,17.4929695,0.2841095z"/>
	<path fill="#1F0F24" d="M9.9544296,3.8377888c0.0877056-0.0005457,0.1754122-0.0010915,0.2631178-0.0016377
		c0.1936636,0.2154169,0.072691,0.4270701-0.0068808,0.6395521C9.9685307,4.9538169,9.85322,5.4609981,9.8128099,5.984787
		c-0.0803995,0.2223349-0.1044216,0.4461651-0.015542,0.6724558c0.0831442,0.6774011,0.0582857,1.3796034,0.5335989,1.9655495
		c0.3744373,0.5220366,0.6707287,1.0872469,1.0395498,1.6122341c0.1101408,0.3224764,0.3810005,0.5250254,0.643034,0.7343216
		c0.0607595,0.0628719,0.109663,0.1287327,0.0566692,0.2169361c-0.0374079,0.3767357,0.4984436,0.4000893,0.528554,0.7352028
		c-0.0738392,0.0650225-0.1615992,0.0964737-0.263567,0.0944481c-0.2012901-0.0224056-0.3604012-0.1168509-0.497077-0.249486
		c-0.9031219-0.6908922-1.3532763-1.6846142-1.99084-2.553978C9.6416397,8.8734846,9.4203005,8.54179,9.2980518,8.1649561
		C9.2796202,7.7124758,9.0769682,7.2756548,9.1625671,6.8143182c0.0932503-0.249608,0.0865726-0.5088339,0.0832195-0.7677875
		C9.244215,5.9133525,9.2444649,5.7803664,9.2393112,5.6471004C9.2845221,5.350668,9.2122469,5.0152817,9.5551138,4.8161378
		C9.6882191,4.4900212,9.8213243,4.1639051,9.9544296,3.8377888z"/>
	<path fill="#222222" d="M9.5551138,4.8161378c-0.1831188,0.2674446-0.122757,0.567028-0.1319923,0.8574247
		C9.2609482,5.815762,9.3329601,6.0476427,9.1901159,6.1974564C8.8416986,6.3771262,8.6553679,6.6880388,8.4512405,6.9847388
		c-0.2638054,0.3297281-0.4130697,0.7206516-0.6612387,1.05761C7.6731443,8.2010155,7.6036358,8.4326229,7.307241,8.3687763
		c0,0-0.0003409-0.0004234-0.0003419-0.0004263C7.5557308,7.4345713,8.2139559,6.6976376,8.7167597,5.888073
		C8.952527,5.508462,9.0194368,4.9994159,9.5551138,4.8161378z"/>
	<path fill="#1F0825" d="M21.9882813,0.2849579c-0.0046024,0.0198628-0.0016422,0.0481425-0.0149078,0.0583622
		c-0.3905697,0.3009422-2.206152,0.2596696-2.6239452-0.058026C20.2290821,0.285195,21.1086807,0.2850766,21.9882813,0.2849579z"/>
	<path fill="#201423" d="M24.6367073,4.2031665c0.1552715,0.0881872,0.1285343,0.2319479,0.1306324,0.366889
		c-0.0877323,0.1227622-0.1754417,0.2455335-0.2631531,0.3683052c-0.100214,0.15764-0.1505146,0.3385653-0.2660732,0.4890475
		c-0.0877151,0.1226816-0.1754322,0.2453632-0.2631493,0.3680453c-0.1407394,0.1388693-0.1304474,0.3481359-0.2660389,0.4894047
		c-0.0438843,0.0411272-0.0877666,0.0822539-0.13167,0.1233778c-0.1467915,0.1065025-0.2813206,0.2342863-0.4433575,0.3142905
		c-0.2176323,0.1074529-0.3236599,0.050211-0.2148895-0.1890221c0.0209446-0.1159415,0.1096878-0.1904769,0.1901741-0.2703037
		c0.2220879-0.265079,0.3719425-0.56145,0.4519196-0.8885198c0.0956364-0.3432617,0.2928982-0.6310515,0.5593052-0.8812914
		C24.2965717,4.4035411,24.3672562,4.1507683,24.6367073,4.2031665z"/>
	<path fill="#222222" d="M24.2381153,5.4274087c-0.0092564-0.2087107,0.0265617-0.3963909,0.2660751-0.4890451
		C24.6229572,5.1981578,24.4302826,5.3126645,24.2381153,5.4274087z"/>
	<path fill="#222222" d="M23.7089252,6.2848582c-0.0091267-0.2087226,0.0267792-0.3964562,0.2660465-0.4893975
		C23.9873409,6.0056925,23.9531918,6.1942439,23.7089252,6.2848582z"/>
	<path fill="#222222" d="M7.7970023,12.7898149c3.2014594,0.0000401,6.4029193,0.0000801,9.6046009,0.0001411
		c-0.8520985,0.226635-1.7144899,0.1837082-2.5920029,0.1601534c-1.9053125-0.0511446-3.8133554-0.0123806-5.7202606-0.0173473
		C8.6543236,12.9316292,8.2109385,12.9667368,7.7970023,12.7898149z"/>
	<path fill="#222222" d="M18.9544373,12.309576c0.0812855-0.2482548,0.2922897-0.2755947,0.5257492-0.2647038
		C19.3360081,12.186017,19.1539536,12.2626667,18.9544373,12.309576z"/>
	<path fill="#303030" d="M12.2008066,1.8760138c0.231698-0.209685,0.5040283-0.3629363,0.7947397-0.4906588
		c0.5214691-0.3288562,1.1145411-0.4850299,1.7199221-0.6115239l-0.0002146,0.0001201
		c0.8220453-0.1965893,1.6472397-0.1561407,2.4727821-0.0288035c0.0780392,0.3187199-0.1995277,0.2559471-0.3632889,0.2638345
		c-0.3714657,0.0178913-0.7449722,0.0209353-1.123394,0.0170385c1.3479958-0.1572971,2.5617905,0.1771716,3.6668625,0.8646722
		c1.3700562,0.8523587,2.1700726,2.0410333,2.405304,3.5588098c0.1975708,1.274786,0.1127014,2.5134521-0.4898567,3.6951146
		c-0.1802444,0.3534708-0.4095078,0.6779776-0.7203884,0.9434929c-0.2072277,0.1769934-0.4394283,0.4137173-0.7302876,0.1391859
		c-0.2649059-0.2500353-0.0815239-0.4956179,0.1018887-0.7057047c0.1657162-0.1898127,0.3623543-0.3573208,0.4843178-0.5776882
		c0.0996437-0.1800394,0.224659-0.3582821,0.116375-0.5754766c0.2941151-0.9774632,0.5289383-1.9617457,0.2249737-2.9741449
		c-0.0739765-0.2463961-0.1079159-0.5252652-0.3561077-0.7023368c-0.2408066-0.1361036-0.3135853-0.3843575-0.4449863-0.5895329
		c-0.566124-0.8839729-1.4744129-1.3570969-2.4370441-1.7690127c-0.9903736-0.3298082-1.9814024-0.3345304-2.9732141-0.0102646
		C13.431159,2.5824337,12.7113838,3.322927,12.0316639,4.11198c-0.0695372,0.0633264-0.1503496,0.1089373-0.2441406,0.1341434
		c-0.0638046,0.0090647-0.1260519,0.0019555-0.1868267-0.0173712c-0.3369331-0.2000217-0.7066221-0.3577344-0.9837122-0.6377039
		c0.0009794-0.1007721,0.023551-0.1917579,0.1294785-0.2449656c0.1222792-0.1703558,0.2803717-0.3157983,0.3973951-0.4898102
		L11.1436701,2.856498C11.4467869,2.4841275,11.800828,2.1588366,12.2008066,1.8760138z"/>
	<path fill="#30FB00" d="M16.4448147,7.6266403c-0.1243706-0.2586679-0.380024-0.2376733-0.6204119-0.2503467
		c-0.6986351-0.0368338-0.8853712-0.3435378-0.5706997-0.9399829c0.0477114-0.0904374,0.1056118-0.1762652,0.1587992-0.264225
		c-0.0332298-0.1454248,0.189662-0.2711549,0.0324554-0.4233303c-0.1991272-0.0479326-0.3972921-0.0244775-0.5934172-0.0285115
		c-0.8360825-0.0171981-0.8981314-0.0923185-0.8681087-0.841424c0.0152807-0.3812757,0.2044048-0.5697522,0.5918398-0.5833507
		c0.8968191-0.031477,1.7950268-0.0368824,2.6912422,0.0014253c0.4820366,0.0206037,0.755455,0.2832613,0.7773247,0.743248
		c-0.0012836,0.0643358-0.0137844,0.1282077-0.0343819,0.1897449c-0.0963707,0.2228894-0.3031254,0.3771996-0.4293213,0.5822473
		c-0.1151543,0.1520343-0.2748165,0.269743-0.3852005,0.4245591c-0.0692196,0.2749028,0.2354984,0.2370877,0.349371,0.3572035
		c0.1807384,0.1247406,0.3383999,0.26966,0.4614258,0.4458718c0.2593002,0.4663539,0.3157654,0.9469485,0.1179295,1.4458122
		c-0.1966534,0.4007244-0.48386,0.7190866-0.9399624,0.8839388c-0.9589424,0.3599854-1.9179525,0.3412094-2.8771372,0.0009384
		c-0.2927036-0.103838-0.5684128-0.2235498-0.6376581-0.5493784c-0.0156689-0.1361332,0.0167255-0.2609329,0.1055775-0.3715563
		c0.2818336-0.219265,0.4322596-0.6664319,0.9532785-0.4791141c0.0592813,0.0170069,0.1172304,0.0390439,0.1741304,0.061872
		c0.2750893,0.1103697,0.5553141,0.1949806,0.8630867,0.1823406c0.3625793-0.0148926,0.6132164-0.1458225,0.6620712-0.5072713
		C16.4327259,7.6803746,16.4387684,7.6535068,16.4448147,7.6266403z"/>
	<path fill="#313131" d="M20.5355682,8.3684263c0.4097214-0.12146,0.2724514,0.1592197,0.2230721,0.2957983
		c-0.1347198,0.3726339-0.387846,0.6769638-0.6963902,0.9511662c-0.1611195,0.1431894-0.4023609,0.3354673-0.1360474,0.5626211
		c0.2744675,0.2341089,0.3899651-0.078042,0.509716-0.1979113c0.687603-0.6882744,1.1104774-1.484664,1.166523-2.4448237
		c0.0376129-0.6443448,0.0684166-1.2748723,0.0235062-1.9289641c-0.1687202-2.457423-2.8195972-4.5064945-5.2838688-4.4674172
		c-0.3729544,0.0059141-0.7466869-0.0142606-1.1194296-0.0330814c-0.0467262-0.0023592-0.0895767-0.0705965-0.2546272-0.2100212
		c0.8412399,0,1.5511827,0,2.2611265,0c0.0312271-0.0001311,0.0624561-0.0002624,0.093708-0.0005323
		c0.4511356,0.0038024,0.83535,0.1989662,1.2285595,0.3684106c0.0439529,0.000029,0.0879059,0.0000993,0.131855,0.0002114
		c1.6155872,0.6450907,2.5880146,1.8229007,3.1946907,3.3054972c0.3714943,1.1486502,0.3405666,2.3065624,0.0985031,3.4694815
		c-0.0502129,0.1658602-0.1355076,0.3153858-0.247858,0.4521809c-0.0014305,0.0410213-0.002861,0.0820427-0.0042915,0.123064
		c-0.1474819,0.1354876-0.1704388,0.3282537-0.2624512,0.489255c-0.0925236,0.6011457-0.6163177,0.9570599-0.9512959,1.4190054
		c-0.171196,0.2360859-0.4231758,0.4094954-0.6678925,0.0731478c-0.1873875-0.2575531-0.8683872-0.4277411-0.2359982-0.880475
		c0.12813-0.1668882,0.2814655-0.3161469,0.3996372-0.4899988c0.0874767-0.1224022,0.1749554-0.2448044,0.2624302-0.3672085
		c0.1519375-0.1337547,0.1770897-0.3267937,0.2669735-0.4895649L20.5355682,8.3684263z"/>
	<path fill="#201323" d="M9.8179998,12.2859144c-0.2232752-0.5227652-0.5832586-0.214119-0.9214163-0.1429415
		c-0.5555887,0.1169443-1.4546499-0.3537273-1.7925434-0.9118576c-0.3224664-0.5326481-0.2246304-1.1529245,0.2489381-1.6212177
		C7.5719514,9.393364,7.887713,9.2275829,7.8387089,8.8608665c0.1633511-0.2356758,0.4381466-0.2718811,0.6981297-0.3358278
		c0.6248322,0.0185947,1.1243982,0.2261782,1.3851061,0.7917042c0.5618782,0.5776644,0.7586613,1.2611122,0.6854544,2.0232115
		c-0.0737543,0.234992-0.2243166,0.4272232-0.3982248,0.6060305C10.079649,12.0595655,9.9852753,12.2089605,9.8179998,12.2859144z"
		/>
	<path fill="#1F1325" d="M17.838213,7.0346727c-0.1201611-0.1085243-0.2403221-0.2170496-0.3604851-0.3255739
		c-0.0367336-0.2438822-0.6007652-0.1755123-0.3906078-0.5655947c0.0796089-0.1523752,0.1909218-0.2785869,0.3509197-0.3646235
		c0.1980858-0.1227527,0.3336792-0.293272,0.4360619-0.4891772l-0.005785,0.0107727
		c0.2487049-0.2532072-0.0700989-0.5947948,0.1546936-0.8517256c0.6646881,0.3193774,0.4540691,0.8609881-0.0951443,1.3505507
		c-0.3925285,0.3498979-0.4199944,0.5304995,0.0208588,0.8704085c0.7138653,0.5504107,0.7897015,1.3401008,0.2761612,2.0727658
		c-0.4208603,0.6004429-0.9857426,1.0214977-1.7898445,1.0962906c-0.4410276,0.0963831-0.8820477,0.0964937-1.3230639-0.0000572
		c-0.0440292-0.000145-0.0880585-0.0002575-0.1320877-0.0003347c-0.1969204-0.1507196-0.4632778,0.0217962-0.6617117-0.1218834
		c-0.2288418-0.1533041-0.6545439-0.0788555-0.6607609-0.4897194c0.0285149-0.0199566,0.0570307-0.0399141,0.0854988-0.0599909
		c0.6044588,0.0737839,1.1480999,0.3689528,1.7782145,0.3769255c0.6042223,0.0076427,1.1726599-0.0658321,1.7088118-0.3259792
		c0.2717915-0.221427,0.5596714-0.4292812,0.7269192-0.7388954C18.3691406,7.9656153,18.2462006,7.4901042,17.838213,7.0346727z"/>
	<path fill="#1F1F1F" d="M17.6258411,2.2434921c1.2818985,0.4700439,2.3328495,1.1648104,2.7785835,2.448472
		c0.2401447,0.891027,0.3541012,1.7903595,0.2180729,2.7607808c-0.3681068-0.2836194-0.2221661-0.6332603-0.2071667-0.9202657
		c0.0547161-1.0468349-0.2848301-1.9781551-0.9940033-2.7601626c-0.661993-0.729984-1.5073376-1.2352498-2.5895119-1.283704
		c-0.1661091-0.1004765-0.2819767-0.2142749-0.1240692-0.4006684C17.027319,2.0707366,17.3232574,2.1739378,17.6258411,2.2434921z"
		/>
	<path fill="#202020" d="M16.6996078,2.1213157c0.0440674,0.1224325,0.0881367,0.2448649,0.1322079,0.3672969
		c-1.0415306-0.0805049-2.0304184-0.0934653-3.0167437,0.431567c-0.825491,0.4394178-1.3794203,1.0005579-1.7489309,1.7723997
		c-0.1012983-0.0866752-0.2485752-0.1278872-0.3023949-0.2618532c-0.0052414-0.1432648,0.099062-0.2400823,0.1733236-0.3496947
		c0.6107244-0.8784537,1.3451366-1.611918,2.5125198-1.8378396C15.1897545,2.0467968,15.9330406,1.8997958,16.6996078,2.1213157z"/>
	<path fill="#1F1A24" d="M13.9213686,8.4893045c-0.0426769,0.081893-0.0853539,0.163785-0.1280308,0.245676
		c-0.163599,0.135848,0.0567732,0.3629494-0.1363058,0.4917917c0,0,0.0003729-0.0000181,0.0003796-0.0000095
		c-0.3551807-0.0965757-0.4536591-0.2765636-0.2419567-0.5829363c0.1997929-0.2891359,0.3624592-0.6014585,0.5763435-0.8806653
		c0.1609535-0.2101088,0.3825626-0.3513484,0.6642675-0.1263433c0.1042852,0.0832973,0.2473717,0.1573181,0.3575659,0.0681453
		c0.4617882-0.3736949,0.9492865-0.1430879,1.4311581-0.0783072c0.0000248-0.0000157-0.0013599-0.0031486-0.0013599-0.0031486
		c0.0183353,0.4924259-0.2238274,0.7212734-0.7575598,0.6745024c-0.2984343-0.0261526-0.5890341-0.1158781-0.8875513-0.1562719
		l-0.0445566,0.0070896L14.7149858,8.127306C14.1163063,7.6198516,14.1624775,8.3245945,13.9213686,8.4893045z"/>
	<path fill="#212A21" d="M18.0230103,4.4487505c-0.0596752,0.2826238,0.1384182,0.6053362-0.1545868,0.8517075
		c-0.0478458-0.816968-0.0478458-0.8169889-0.9535179-0.8170972c-0.7239189-0.0000868-1.4479837,0.0079727-2.1716976-0.0033174
		c-0.4091253-0.0063825-0.7144794,0.0039501-0.717802,0.5305133c-0.0031796,0.5041537,0.243309,0.5795641,0.6841745,0.5456567
		c0.3052444-0.0234766,0.6137619-0.016922,0.9206705-0.0132651c0.2188778,0.0026069,0.3646173,0.0588665,0.1629934,0.2797379
		c-0.581049,0.0446587-1.1617527,0.0688381-1.7404547-0.0252504c-0.1837473-0.4913888-0.2298307-0.9824462,0.0041237-1.4728317
		c0.3670988-0.1996565,0.7732725-0.1290169,1.1589737-0.1131296c0.8908901,0.0366936,1.7928963-0.1377687,2.6728439,0.111474
		C17.9334908,4.3648825,17.9782505,4.4068165,18.0230103,4.4487505z"/>
	<path fill="#201823" d="M12.0701199,11.1862841c-0.0444565-0.0412302-0.088912-0.0824594-0.1333694-0.1236887
		c-0.0592566-0.2475901,0.248003-0.329195,0.2808084-0.5353403c0.0837021-0.1748104,0.2388639-0.2965069,0.3716927-0.4344435
		c0.1882162-0.4422979-0.2585917-0.536561-0.4806166-0.7523212c-0.1990242-0.1376276-0.3910151-0.2803478-0.4090099-0.5361853
		c0.0031967-0.0562935,0.0189381-0.1098757,0.0460253-0.1604996c0.0970554-0.1143408,0.2140493-0.053154,0.3266926-0.0311661
		c0.3476896,0.3855381,0.6873789,0.7776146,1.0461493,1.1540985c0.2061815,0.2163601,0.0671597,0.3994789-0.0657473,0.5406466
		C12.7538404,10.6248646,12.4972162,10.9896812,12.0701199,11.1862841z"/>
	<path fill="#200625" d="M17.888731,4.3229485c-1.2773018,0.0005631-2.5545998,0.0011263-3.8318596,0.0016727
		c0.0933514-0.193428,0.2668219-0.2439709,0.4792299-0.2433753c0.956955,0.0026841,1.913928,0.0028811,2.8708792-0.0001755
		C17.6199608,4.0803905,17.7919064,4.1332827,17.888731,4.3229485z"/>
	<path fill="#1F1226" d="M14.0527897,5.7974358c0.5825796-0.1371799,1.1636162-0.1829638,1.7404127,0.0252151
		c-0.1269321,0.1165009-0.2539072,0.2329664-0.3807907,0.3494339c-0.3775949,0.110291-0.4437008,0.3776803-0.4393635,0.7016773
		c0.0026445,0.1974306,0.1027699,0.4621267-0.257081,0.514432c-0.1049013-0.3264866-0.1040764-0.6530318-0.0006361-0.9796338
		c0.0087605-0.1710672,0.4085197-0.2515783,0.1320047-0.4887161c-0.2646236,0.0909176-0.5291519,0.0919385-0.7935791-0.0007262
		C13.9654703,5.8791571,13.9605856,5.8386264,14.0527897,5.7974358z"/>
	<path fill="#222222" d="M9.8179998,12.2859144c0.0031796-0.1718903,0.0875912-0.2947359,0.2576332-0.3658791
		c0.7390041,0.1082554,1.478838,0.1206684,2.2196751,0.0164204c0.1011209-0.0049934,0.2022419-0.0099869,0.3033638-0.0149746
		c0.0256929,0.2185841,0.2573347,0.5337305-0.2696695,0.4931622c-0.7463484,0.1921015-1.4926081,0.1916132-2.2387819-0.0008688
		C9.9785404,12.4093828,9.8770771,12.3863373,9.8179998,12.2859144z"/>
	<path fill="#1E0326" d="M12.0723429,8.6126394c-0.0903721,0.1394262-0.1690092,0.0158377-0.2520256-0.0096388
		c-0.5166798-0.388854-0.5683813-0.9358048-0.5930204-1.4922309c0.0004091-0.3697538-0.0016003-0.7396669,0.0010462-1.109252
		c-0.0016155-0.388443,0.1110773-0.7563934,0.2375917-1.1216154c0.0220652-0.0575724,0.0511446-0.1126666,0.0834913-0.1659503
		c0.0653095-0.1040545,0.1345139-0.2058849,0.2557745-0.2640934c0.1722851,0.0022836,0.2591467,0.0833321,0.2609797,0.2427306
		c-0.0432911,0.0406523-0.086545,0.0813146-0.129797,0.1219759c-0.1270409,0.2334909-0.0208883,0.5386472-0.2639627,0.7364783
		L11.671792,5.5505896c-0.1100864,0.6536703-0.11133,1.3073254,0.0003052,1.9609666
		C11.8055105,7.8785839,11.9389267,8.2456121,12.0723429,8.6126394z"/>
	<path fill="#201223" d="M7.307241,8.3687763C7.8364806,7.9872832,7.8911848,7.3135204,8.3641481,6.897367
		c0.1191359-0.0446177,0.1714325,0.0240755,0.214879,0.1082315c0.0433435,0.1523399-0.0147448,0.283556-0.0987177,0.4093313
		C8.3148699,7.6348681,8.1974258,7.8794045,8.0715933,8.1195612C8.0210838,8.2131529,7.9674702,8.3053265,7.9088435,8.3949528
		C7.8094358,8.5197105,7.7282767,8.6607199,7.5685186,8.7335644C7.2987795,8.7241402,7.3065548,8.544281,7.307241,8.3687763z"/>
	<path fill="#1F0B24" d="M10.0902205,12.4137745c0.7462978,0.0002613,1.4925976,0.0005226,2.2388382,0.0008259
		c-0.0005369,0.0735245,0.0024166,0.2112055-0.0019798,0.2114067c-0.7066975,0.0323811-1.4145851,0.0698385-2.118928-0.0196438
		C10.1602316,12.600275,10.1291389,12.4806156,10.0902205,12.4137745z"/>
	<path fill="#303030" d="M21.8588142,8.123539c0.243269-1.2336545,0.1580372-2.4571638-0.1323376-3.6743374
		c0.5545559,0.2148156,0.4261131,0.6796799,0.4629593,1.0843863c0.0049438,0.700891,0.1025581,1.4039607-0.0658226,2.0998683
		c-0.0007248,0.0405855-0.0009346,0.0811739-0.0006275,0.1217628C21.95228,7.8271627,22.2059364,8.1600904,21.8588142,8.123539z"/>
	<path fill="#1E0A23" d="M22.6531544,6.2868853c-0.3041172-0.2280574-0.2659435-0.5474024-0.266386-0.8564487
		c-0.1824741-0.2217422-0.2102032-0.4349308,0.0405731-0.6327658c0.1836395-0.0121441,0.2354088,0.1228762,0.3077393,0.2351918
		c0.0946312,0.2306142,0.1236343,0.4771733,0.1513081,0.7178407C22.9090977,5.9482007,22.9776363,6.2021346,22.6531544,6.2868853z"
		/>
	<path fill="#222222" d="M22.1236134,7.6334562c-0.000145-0.7349558-0.000288-1.4699116-0.000433-2.2048678
		c0.0220909-0.0138202,0.0441818-0.0276408,0.0662746-0.0414634c0.0222645,0.0135794,0.044529,0.0271611,0.0667934,0.0407429
		C22.2774124,6.1664352,22.4998188,6.915379,22.1236134,7.6334562z"/>
	<path fill="#222F1E" d="M22.6531544,6.2868853c0.2458115-0.4084415-0.0700588-0.8114414-0.0137634-1.2180471
		c-0.0536327-0.0601406-0.0454483-0.1118908,0.0242691-0.1553593c0.3452244,0.0957208,0.3077583,0.3950863,0.3806553,0.6298876
		c0.0707817,0.2279882,0.02882,0.4792218,0.1563301,0.6978321c0.0393009,0.0600057,0.0333405,0.1159368-0.0174637,0.1677709
		c-0.0880737,0.041492-0.1761456,0.082983-0.2641964,0.124505C22.7485924,6.526907,22.6570282,6.447423,22.6531544,6.2868853z"/>
	<path fill="#201823" d="M11.6720972,7.5115561c-0.214715-0.653626-0.2141562-1.3072791-0.0002985-1.9609628
		C11.6718931,6.2042451,11.6719942,6.8579011,11.6720972,7.5115561z"/>
	<path fill="#212720" d="M7.5685186,8.7335644C7.5730662,8.5612831,7.6573157,8.437686,7.8292089,8.3676252
		c0.1866908,0.0515509,0.372333,0.1063404,0.5603805,0.1549025C8.4423199,8.5467567,8.4822826,8.583086,8.510066,8.6309023
		C8.2862606,8.7075396,8.0624552,8.7841759,7.8386798,8.8608389C7.7277083,8.856535,7.6268473,8.8337526,7.5685186,8.7335644z"/>
	<path fill="#1F0E23" d="M22.5152988,4.816741c-0.214138,0.1737914-0.0948505,0.4074516-0.1285172,0.6136732
		c-0.0435162-0.0011964-0.0870285-0.0020466-0.1305389-0.0025377c0.0000057-0.0000086,0.0001507,0.0002198,0.0001507,0.0002198
		c-0.1716862-0.220356-0.141058-0.4954629-0.2263813-0.7404952c-0.0706501-0.2028913-0.0165424-0.4055676,0.2947998-0.4119177
		C22.5686111,4.4015369,22.6072445,4.5894465,22.5152988,4.816741z"/>
	<path fill="#222222" d="M21.8588142,8.123539c0.0880604-0.1227674,0.1761208-0.2455344,0.2641773-0.3683105
		c-0.0176373,0.2975917,0.0482178,0.6335654-0.3944092,0.7358155C21.7309513,8.3560677,21.7043667,8.2123051,21.8588142,8.123539z"
		/>
	<path fill="#201B22" d="M15.1119776,9.8387089c0.44102,0.0000172,0.8820429,0.0000343,1.3230639,0.0000544
		C15.99401,10.0302734,15.5529871,10.030303,15.1119776,9.8387089z"/>
	<path fill="#1F0126" d="M13.6805563,5.4110012c0-0.2705746,0-0.5411487,0-0.8117232
		c0.0214834-0.0009007,0.0429649-0.0018024,0.0644493-0.0027032c0,0.2677374,0,0.5354743,0,0.8032122
		C13.7235212,5.4035249,13.7020397,5.4072633,13.6805563,5.4110012z"/>
	<path fill="#201C22" d="M14.7153311,6.4085603c0.000206,0.3265471,0.000412,0.6530933,0.0006256,0.9796367
		C14.5097675,7.0617638,14.510972,6.7352185,14.7153311,6.4085603z"/>
	<path fill="#202020" d="M11.6724205,5.5510435c0.0957832-0.2430873,0.0747156-0.5220895,0.2639713-0.7364616
		C11.9125395,5.079771,12.0399199,5.3914514,11.6724205,5.5510435z"/>
	<path fill="#303030" d="M20.0063152,9.2250404c-0.0100079,0.2494631-0.1831627,0.3848572-0.3995991,0.4900084
		C19.6223278,9.469492,19.7955246,9.3341198,20.0063152,9.2250404z"/>
	<path fill="#201C22" d="M14.0537567,5.9191179c0.2645302,0.0002337,0.5290604,0.0004663,0.7935848,0.0007133
		C14.5826139,6.1035385,14.3180857,6.1041899,14.0537567,5.9191179z"/>
	<path fill="#303030" d="M20.5357189,8.3682671c0.0122566,0.2105141-0.022562,0.3990211-0.266943,0.4895706
		C20.2938728,8.6647816,20.3640881,8.4928131,20.5357189,8.3682671z"/>
	<path fill="#303030" d="M21.4618645,9.1033611c-0.0121899-0.2089539,0.0231647-0.3960333,0.262476-0.4892654
		C21.7050056,8.808548,21.6323166,8.9784384,21.4618645,9.1033611z"/>
	<path fill="#201B22" d="M14.3181782,9.7164907c0.2230186,0.0292349,0.4760609-0.0813017,0.6617117,0.1218853
		C14.7568855,9.8090715,14.5037556,9.9200153,14.3181782,9.7164907z"/>
	<path fill="#201523" d="M21.7299824,1.1421096c0.1684017-0.0034369,0.2883835-0.0777558,0.3754444-0.2095333
		c0.0450783-0.0682334,0.1244831-0.1918595,0.1528358-0.1837606c0.667942,0.1907892,1.456749-0.0660822,2.0284176,0.4962626
		c0.441412,0.4342133,0.9165611,0.8367361,0.6996899,1.5211259c-0.0110016,0.0347183-0.0556126,0.0603034-0.0845776,0.0901401
		c-0.1245289-0.1647379-0.0338688-0.3541977-0.0705853-0.5290241c0.0318546,0.1754363-0.0607815,0.3651493,0.0704842,0.5291846
		c-0.0310726,0.2664797-0.1759453,0.4773846-0.3806801,0.6565964c-0.1414585,0.1238236-0.2897854,0.2416997-0.1495876,0.4449642
		c-0.5059452,0.5737684-1.1012955,0.6726377-1.8652287,0.3107069c-0.8274422-0.6612825-1.3218727-1.4740152-1.3257084-2.5096607
		C21.2539787,1.4699662,21.2785854,1.1425209,21.7299824,1.1421096z"/>
	<path fill="#2FD706" d="M21.7299824,1.1421096c-0.243969,0.1297328-0.3573494,0.3389091-0.4135399,0.5828761
		c-0.1134624,0.4544746-0.3648357,0.3899001-0.6632996,0.1525295c-0.1258602-0.1124625-0.2614269-0.2144026-0.4107952-0.3001791
		c-0.1696739-0.138041-0.372097-0.2473671-0.4695358-0.4501384c-0.0795708-0.1426129-0.5288849-0.3580035,0.0720596-0.3734735
		c0.5826187-0.014998,1.1662445,0.0067853,1.7491703-0.0021021C22.1338348,0.743392,21.8084602,0.9755552,21.7299824,1.1421096z"/>
	<path fill="#212620" d="M22.5212574,4.2027264c0.6682835,0.252759,1.2731762,0.0944514,1.8501797-0.2446544
		c0.1715164,0.0045776,0.2610016,0.0853035,0.2652721,0.2450993c-0.166605,0.0920663-0.1858063,0.3253365-0.4074326,0.3646998
		c-0.546524,0.0078964-1.1245594-0.1085739-1.5597,0.3388848c-0.0099945,0.0539932-0.0199871,0.1079874-0.0300827,0.1620317
		c-0.0414295-0.0839872-0.0827579-0.1680241-0.1241379-0.2520537c-0.0823402-0.15376-0.149416-0.3109894-0.1296387-0.4879932
		C22.3533955,4.2152572,22.3992119,4.17384,22.5212574,4.2027264z"/>
	<path fill="#1F0F24" d="M19.7728119,1.1271976c0.212801,0.0612082,0.3839855,0.1747977,0.5088615,0.3466704
		c0.1326752,0.145201,0.2987328,0.2583623,0.4415321,0.3941518c0.0961914,0.2221174,0.57934,0.1483812,0.4699707,0.5274312
		c-0.1945171,0.1004431-0.3650551,0.0119977-0.538559-0.0566473c-0.4701824-0.2347195-0.8345127-0.5822033-1.1770935-0.9526809
		c-0.0121479-0.0822256-0.1481266-0.164637,0.0004349-0.2466424C19.5762444,1.1353718,19.6745281,1.1312848,19.7728119,1.1271976z"
		/>
	<path fill="#222222" d="M19.4775238,1.3861228c0.53475,0.1217052,0.7539425,0.6194178,1.1912479,0.8572339
		c0.1651039,0.081991,0.2999516,0.2756765,0.5286751,0.1227956c-0.1786594-0.163362-0.3573189-0.3267233-0.5359802-0.4900848
		c-0.0349369-0.024475-0.0462189-0.0485054-0.033926-0.0721264c0.0121613-0.0233753,0.02421-0.0350806,0.0362244-0.0350806
		c0.2319012,0.1692641,0.4651775,0.3561971,0.6527328-0.0437217c0.1591473,0.8050566,0.1892357,1.6651063,1.0991402,2.1436825
		c0.1286335,0.0676572,0.0987148,0.2142413,0.105608,0.3339174c-0.0451469,0.0419703-0.0903091,0.0839524-0.1355,0.1259685
		c-0.3300457,0.0465622-0.2881603,0.2572384-0.2066936,0.4503479c0.0905113,0.2145391,0.0701466,0.4311047,0.0773335,0.6490469
		c-0.0443935,0.0001578-0.0887966,0.0003219-0.1332035,0.0004859c-0.1952209-0.3045921-0.1132908-0.705441-0.3967056-0.979394
		C21.47785,4.2367296,21.3807831,3.9395783,21.246912,3.6697638c-0.4249992-0.8565829-1.1454487-1.4440746-1.9663448-1.9578348
		c-0.2093639-0.1310323-0.4799347-0.2067804-0.5972881-0.4480492C18.9830456,1.1095061,19.2265778,1.2684625,19.4775238,1.3861228z"
		/>
	<path fill="#222222" d="M17.2291489,0.895793c-0.825161-0.2671122-1.6774492-0.0543454-2.513895-0.1218451
		c0.4777651-0.353788,1.0486126-0.2706314,1.5798264-0.2320539c0.685215,0.0497605,1.3835411,0.1213617,1.9906883,0.4796371
		c-0.3815632,0.1684842-0.7056236-0.0768178-1.0569477-0.1259418L17.2291489,0.895793z"/>
	<path fill="#222222" d="M14.7154684,0.7738311c-0.5399027,0.2844082-1.1484957,0.4031696-1.719924,0.6115326
		C13.4614544,0.9225092,14.0386877,0.7281351,14.7154684,0.7738311z"/>
	<path fill="#303030" d="M11.6840954,4.7023721c-0.0034075,0.0371757-0.007226,0.0743146-0.0114574,0.1114178
		c-0.0461807,0.0468321-0.0988874,0.0543237-0.1581774,0.0231156c-0.2501078-0.4586997-0.7415495-0.5920959-1.2045231-0.7642989
		c-0.025074-0.0844929-0.0391674-0.1671498,0.0427685-0.234736c0.0450592-0.0029776,0.0901184-0.0059547,0.1351776-0.0089319
		c0.518775-0.2108781,0.7732811,0.2946546,1.1847305,0.3747261l0.0007019,0.0004787
		C11.7816372,4.3682766,11.7538633,4.534935,11.6840954,4.7023721z"/>
	<path fill="#301F34" d="M11.6726141,4.2036648c-0.4690228,0.0760212-0.730875-0.4098804-1.1848087-0.3746483
		c0.0430899-0.079375,0.0861006-0.158673,0.1291456-0.2379696C11.04877,3.677187,11.3895273,3.8978221,11.6726141,4.2036648z"/>
	<path fill="#222222" d="M12.2008066,1.8760138c-0.2981091,0.3769989-0.6526031,0.70187-1.0571394,0.9804802
		C11.3371086,2.3827317,11.691062,2.0573595,12.2008066,1.8760138z"/>
	<path fill="#303030" d="M17.2288208,0.8955893c0.3523254,0.0419579,0.7046471,0.0839158,1.0569592,0.125908
		c0.0885391,0.0807475,0.1770897,0.1614605,0.2656384,0.2421739C18.0956783,1.1868017,17.6256084,1.1540892,17.2288208,0.8955893z"
		/>
	<path fill="#222222" d="M10.352706,3.8378706c-0.0024996,0.074162-0.0049992,0.1483245-0.0074997,0.2224865
		c0.1662426,0.2693324,0.055707,0.4365125-0.2317486,0.5384941c-0.0807314-0.0379009-0.0933237-0.0900168-0.0377941-0.156251
		c0.0472937-0.2021499,0.0945854-0.4043007,0.1418819-0.6064501C10.2625999,3.836724,10.3076534,3.8372974,10.352706,3.8378706z"/>
	<path fill="#222222" d="M11.143858,2.8562725c-0.0119677,0.2470963-0.1848698,0.3822353-0.3973951,0.4898102
		C10.7568302,3.0978727,10.9309778,2.9636002,11.143858,2.8562725z"/>
	<path fill="#30FA01" d="M10.0998211,4.6023664c0.1632385-0.1489749,0.22124-0.3388152,0.2453804-0.5419087
		c0.5700731-0.0706444,1.0910397,0.2579145,1.1907701,0.7508807c-0.4020367,1.3395829-0.4348679,2.6578555,0.2647934,3.9338522
		c0.0412483,0.2110777,0.1741467,0.3659477,0.3525486,0.4929123c0.1915588,0.1293697,0.3269749,0.3101349,0.4846439,0.4690571
		c0.1406651,0.1417828,0.2960644,0.3144073,0.0258636,0.4889784c-0.1553068,0.0798702-0.2732887,0.1917009-0.3437347,0.3442316
		c-0.4008837,0.4797096-0.4800577,0.4627199-1.0393391-0.2230263c-0.3476629-0.5287876-0.6953278-1.0575762-1.0429916-1.5863638
		C9.5978327,7.3717899,9.5183115,5.9965467,10.0998211,4.6023664z"/>
	<path fill="#2FDC05" d="M12.2953081,11.9364557c-0.0047474,0.0588207,0.0003338,0.1666632-0.0156555,0.1694126
		c-0.7173901,0.1233253-1.4362364,0.1458759-2.1503515-0.0175734c-0.0309563-0.0070848-0.0363359-0.1099882-0.0536489-0.1682577
		c0.1354122-0.1630383,0.2708426-0.3260756,0.4062729-0.4891119c0.285943-0.7145863,0.332469-0.7261324,0.9242392-0.1784191
		c0.1694613,0.156846,0.3638783,0.2890577,0.5177689,0.4603758C12.0477238,11.7874069,12.1715174,11.8619308,12.2953081,11.9364557z
		"/>
	<path fill="#211F21" d="M11.923933,11.712882c-0.1730423-0.1184263-0.3884716-0.2076988-0.5112247-0.3607168
		c-0.3764849-0.4693022-0.6660166-0.4082241-0.9307833,0.0787601c-0.0202198-0.7486982-0.0883856-1.4843397-0.6613264-2.0825367
		C9.8348255,9.2795315,9.8802595,9.2395945,9.953496,9.2254181c0.3920164,0.3917074,0.7352028,0.7968493,0.9021978,1.3357172
		c0.0721035,0.2326689,0.3910923,0.3964796,0.5871544,0.6004496C11.6123457,11.3379211,11.8603392,11.457119,11.923933,11.712882z"
		/>
	<path fill="#212421" d="M10.0998211,4.6023664c-0.4006042,1.3889914-0.3654737,2.7655067,0.1379004,4.1286154
		c-0.5745649-0.6049595-0.5440836-1.350071-0.5628662-2.0837717C9.5985594,6.44627,9.5931501,6.2456903,9.6784201,6.0455709
		c-0.0317335-0.5691991,0.0848293-1.1068726,0.397315-1.6029263C10.0837164,4.4958558,10.0917692,4.5491114,10.0998211,4.6023664z"
		/>
	<path fill="#212A20" d="M9.953496,9.2254181C9.9091959,9.2664099,9.8648949,9.3074017,9.8205967,9.3483906
		C9.5406523,8.8633432,9.0471449,8.7126789,8.5099573,8.6307402C8.452836,8.6214466,8.3956051,8.6119909,8.3383741,8.6025352
		C8.5265846,8.1481571,9.0226059,8.534606,9.2916584,8.3017921c0.0438251-0.0331116,0.0926237-0.0575457,0.1463041-0.0734549
		C9.6214008,8.5555573,9.8951139,8.8427553,9.953496,9.2254181z"/>
	<path fill="#222222" d="M9.2969656,6.7751088c0.0469179,0.4845071,0.0938358,0.9690137,0.1408749,1.4533744
		c0.0001221-0.0001459-0.0357609,0.0340929-0.0357609,0.0340929C9.0257654,8.1445017,9.0420513,7.8091054,9.0381126,7.5597386
		c-0.0053883-0.3411717-0.2125998-0.48276-0.4659634-0.6302209c-0.0044537-0.1922293,0.0872755-0.343082,0.2387505-0.4630933
		C8.9276094,6.3739543,9.0673962,6.3000197,9.218442,6.3706307C9.4208765,6.4652624,9.3648214,6.6240783,9.2969656,6.7751088z"/>
	<path fill="#201523" d="M9.2969656,6.7751088C9.2712231,6.6478624,9.3330879,6.4262257,9.1097021,6.4603353
		C8.7936068,6.5086012,8.642231,6.734056,8.6527338,7.0377345C8.6255074,7.0485983,8.5982809,7.0594621,8.5710545,7.0703349
		C8.5469246,7.054389,8.5227966,7.0384336,8.4986677,7.0224781C8.4538355,6.9807844,8.4090042,6.9390917,8.3641605,6.8973827
		c0.2191219-0.2871823,0.2636909-0.7364874,0.7948704-0.7338185c0.0734234-0.0679312,0.1127319-0.198782,0.2641754-0.1228161
		C9.3825321,6.2857423,9.5269871,6.5580244,9.2969656,6.7751088z"/>
	<path fill="#212121" d="M11.2807474,10.3173437c0.3374681,0.1103239,0.5186071,0.8447857,1.0393648,0.2231283
		c0.0653877,0.2955694-0.2442226,0.3552103-0.3833599,0.5221338C11.6537504,10.8627348,11.3277636,10.6953182,11.2807474,10.3173437
		z"/>
	<path fill="#201F22" d="M9.4232063,6.0407481C9.3351479,6.081687,9.2470884,6.1226258,9.1590309,6.1635642
		C9.1465979,5.9537988,9.1826801,5.7664547,9.4231272,5.6735616C9.4231501,5.7959576,9.4231787,5.9183526,9.4232063,6.0407481z"/>
	<path fill="#1F1024" d="M9.6784201,6.0455709c-0.0011129,0.200614-0.0022249,0.401227-0.0034513,0.6017404
		C9.4977922,6.4457579,9.4961061,6.2451968,9.6784201,6.0455709z"/>
	<path fill="#30EC03" d="M22.6695766,4.9067559c-0.0320549-0.2592602-0.0657196-0.5070987,0.3715782-0.444746
		c0.2838173,0.0404692,0.5708122,0.0204577,0.8432846-0.0855618c0.2055149-0.079967,0.3445511-0.0493917,0.3448582,0.1914277
		c-0.2379475,0.2424431-0.4261284,0.512394-0.5333786,0.827096c-0.1776009,0.2868724-0.2813587,0.612546-0.5286961,0.8627777
		c-0.3077984,0.005496-0.2503185-0.2067161-0.2611961-0.3770618C22.8845234,5.5440226,22.8572483,5.2087493,22.6695766,4.9067559z"
		/>
	<path fill="#222222" d="M23.167223,6.2577496c0.1405106-0.3062992,0.2621689-0.6225104,0.5287285-0.8626552
		c-0.0520325,0.389442-0.2554474,0.7133517-0.5127869,1.0138741C23.1778622,6.3585625,23.1725407,6.3081565,23.167223,6.2577496z"/>
	<path fill="#212121" d="M16.6996078,2.1213157c-0.7531509-0.0092678-1.5062637-0.0179203-2.2500067,0.1218805
		c1.0587902-0.4725454,2.1175337-0.4261242,3.1762381,0.0002973C17.3048248,2.2825327,17.0038548,2.1912744,16.6996078,2.1213157z"
		/>
	<path fill="#212121" d="M11.6840954,4.7023721c-0.0035992-0.16608-0.0071983-0.33216-0.010787-0.4982343
		c0.087925-0.0410314,0.1758442-0.082068,0.2637615-0.123106c-0.0439587,0.1229315-0.0879173,0.2458644-0.1318722,0.3688121
		C11.7648325,4.53403,11.7244635,4.6182013,11.6840954,4.7023721z"/>
	<path fill="#212821" d="M13.657032,9.2267723c0.0183773-0.1703529-0.0656366-0.3650351,0.1362944-0.4917841
		c0.0237379,0.3317833,0.3097324,0.3977404,0.5737696,0.4929657c0.9565449,0.3449831,1.9097385,0.2731991,2.8628349-0.0102062
		c-0.9443417,0.6272917-1.9476528,0.4212608-2.9475784,0.1663475C14.0743284,9.3310642,13.8880434,9.2050314,13.657032,9.2267723z"
		/>
	<path fill="#212C20" d="M14.7983189,8.1417379c0.2572412-0.0240784,0.5040102-0.0009708,0.7617378,0.0505924
		c0.4831619,0.0966663,0.8574524-0.0223379,0.883337-0.5687847c0.3450966,0.4638529-0.0533695,0.6152325-0.3981533,0.6967983
		C15.6230297,8.420228,15.1872559,8.3616905,14.7983189,8.1417379z"/>
	<path fill="#201D22" d="M17.838213,7.0346727c0.5514412,0.4152226,0.5986233,0.9871359,0.1188908,1.444088
		C18.1652699,7.9799781,18.1220341,7.4988513,17.838213,7.0346727z"/>
	<path fill="#212821" d="M13.9213686,8.4893045c0.085906-0.2243357,0.0330563-0.5336881,0.3823824-0.6018105
		c0.1972599-0.0384693,0.3880615-0.0069418,0.4112329,0.2398052C14.2264862,7.8269682,14.1973743,8.3901939,13.9213686,8.4893045z"
		/>
	<path fill="#201D22" d="M17.0871201,6.1435041c-0.021698,0.2783999,0.3954544,0.2967854,0.3905869,0.5654111
		C16.8332748,6.4399266,16.8332748,6.4399266,17.0871201,6.1435041z"/>
	<path fill="#212A21" d="M17.8741016,5.2897034c0.0104103,0.2819338-0.1590633,0.426486-0.4358864,0.4891815
		C17.5833931,5.6158218,17.7287483,5.4527626,17.8741016,5.2897034z"/>
	<path fill="#30FB00" d="M9.8040295,11.1821823c-0.8056898,0.6494961-1.3017626,0.726469-1.8964539,0.2942657
		c-0.5509663-0.4004288-0.6389284-0.8318672-0.3318586-1.6277037c0.6244421-0.7382727,1.2062445-0.799242,1.9663229-0.2060585
		c0.0708151,0.069273,0.1416292,0.138546,0.2124443,0.207819C10.1163435,10.2833805,10.1454229,10.7268724,9.8040295,11.1821823z"/>
	<path fill="#201B22" d="M9.5420399,9.6426859C8.6554928,9.1886406,8.4007587,9.2153292,7.5757098,9.8487215
		C7.6592355,9.2932339,8.1845655,9.217803,8.6053734,9.1525488C8.9733238,9.0954924,9.4006386,9.2009182,9.5420399,9.6426859z"/>
	<path fill="#201A22" d="M9.8040295,11.1821823c0.1969633-0.4505796,0.1954565-0.894886-0.0493155-1.3315945
		C10.2092571,10.2847309,10.2269602,10.7605562,9.8040295,11.1821823z"/>
	<path fill="#212121" d="M11.800765,8.7451906c-0.8090286-1.2696519-0.9262609-2.5792346-0.2648029-3.9338078
		c0.0455637,0.000792,0.0911169,0.0016284,0.1366739,0.0024357c-0.1460562,0.3564382-0.2680454,0.7178826-0.26649,1.104877
		c-0.1089754,0.4082751-0.1093388,0.816535,0.0001917,1.224781c-0.0655041,0.5360026,0.2481089,0.9798698,0.4138479,1.4596148
		C11.8137989,8.6503973,11.8072834,8.697794,11.800765,8.7451906z"/>
	<path fill="#201B23" d="M12.6638212,10.1961384c0.2205477-0.4977589-0.466238-0.5811214-0.5103989-0.9580336
		C12.4584885,9.4957619,13.1541824,9.5749903,12.6638212,10.1961384z"/>
	<path fill="#201823" d="M11.4063377,7.1434765c-0.2018738-0.4082432-0.2019787-0.8165069-0.0001736-1.2247872
		C11.4062099,6.3269558,11.4062738,6.7352166,11.4063377,7.1434765z"/>
	<path fill="#30E404" d="M8.6527338,7.0377345C8.7883959,6.9800434,8.8387804,6.76513,9.0061655,6.8077769
		c0.2300644,0.0586176,0.1188278,0.2687206,0.1332483,0.4130545c0.0359211,0.3595591,0.0748415,0.7159915,0.2627172,1.0417104
		C9.4299698,8.5225925,9.3436956,8.6523285,9.030942,8.565937C8.7996378,8.5020437,8.5611982,8.4606676,8.3385239,8.6025934
		C8.133791,8.589035,7.847373,8.7276211,7.8292189,8.3676262c0.0463667-0.0798473,0.0927444-0.1596937,0.139122-0.2395401
		c0.1567488-0.1936402,0.2597446-0.4141655,0.3684206-0.6319013C8.5124979,7.3840995,8.5256844,7.1770544,8.650691,7.0353646
		L8.6527338,7.0377345z"/>
	<path fill="#201523" d="M8.3737822,7.5287142C8.3047962,7.7668667,8.2188492,7.995182,7.9683452,8.128068
		c0.0519433-0.2826123,0.1801257-0.5306058,0.3923354-0.7404227c0.0424175,0.028203,0.0584764,0.058497,0.0482464,0.0909019
		C8.3983688,7.5119858,8.3866758,7.5287142,8.3737822,7.5287142z"/>
	<path fill="#222222" d="M8.3737822,7.5287142c-0.0043325-0.0470166-0.008667-0.0940328-0.013051-0.1410594
		c0.0459366-0.1217432,0.0919237-0.2434783,0.1379242-0.3651943c0.0506134,0.004262,0.1012144,0.0085058,0.151926,0.0128264
		C8.6377344,7.2380018,8.5634031,7.4111009,8.3737822,7.5287142z"/>
	<path fill="#30FB00" d="M22.3983784,3.4365723c-0.6224442-0.7760623-0.6233501-1.0919919-0.005476-1.9102947
		c0.4387703-0.3357984,0.9109573-0.4456478,1.438324-0.1825393c0.3104439,0.2497743,0.6526604,0.4906406,0.7278099,0.8903599
		c0.1132851,0.6025631-0.1664772,1.0466106-0.7261429,1.3504715l0.0062485-0.0041959
		C23.3162975,3.8983297,22.8402729,3.8140574,22.3983784,3.4365723z"/>
	<path fill="#222223" d="M23.8328934,3.5845697c0.9204674-0.9270475,0.9188023-1.3232045-0.0092106-2.191102
		c0.0462132-0.0531336,0.096756-0.0595374,0.1522827-0.0120926C24.9553738,2.1227663,24.8864803,3.1837037,23.8328934,3.5845697z"/>
	<path fill="#201D22" d="M23.9759655,1.3813753c-0.0507298,0.004019-0.1014595,0.0080382-0.152235,0.0120748
		c-0.5052662-0.2171953-0.9719734-0.0784694-1.43083,0.1327944C22.8852348,1.0348654,23.3187542,0.9951842,23.9759655,1.3813753z"/>
	<path fill="#212321" d="M22.3983784,3.4365723c0.4563026,0.2536244,0.9363499,0.3033741,1.4407635,0.1438437
		C23.3498173,3.9957063,22.8605404,3.9468722,22.3983784,3.4365723z"/>
	<path fill="#1E0326" d="M24.9016914,2.8565047c-0.2044563-0.1803195-0.140583-0.3901832,0.0000935-0.6043065
		c0,0.20138,0,0.40276,0.0000038,0.6041429C24.9017925,2.8563437,24.9016914,2.8565047,24.9016914,2.8565047z"/>
	<path fill="#201523" d="M20.663765,1.7688606c0.0002785,0.0357602-0.0004425,0.0715028-0.0022297,0.1072177
		c-0.1771488-0.0931216-0.3306465-0.2053356-0.3798714-0.4021139C20.4582806,1.5175086,20.5847988,1.6167767,20.663765,1.7688606z"
		/>
	<path fill="#201523" d="M21.1974468,2.3661528c-0.2520199,0.2388873-0.3953915,0.0766506-0.5286808-0.122793
		C20.8449974,2.2842889,21.0212212,2.3252206,21.1974468,2.3661528z"/>
</g>
</svg>
