<?xml version="1.0" encoding="utf-8"?>
<!-- Generator: Adobe Illustrator 24.1.1, SVG Export Plug-In . SVG Version: 6.00 Build 0)  -->
<svg version="1.1" id="Слой_1" xmlns="http://www.w3.org/2000/svg" xmlns:xlink="http://www.w3.org/1999/xlink" x="0px" y="0px"
	 viewBox="0 0 32 13" enable-background="new 0 0 32 13" xml:space="preserve" width="32px" height="13px">
<g>
	<path fill="#212121" d="M6.5348763,11.890727c-0.7148833-0.8070173-0.6968665-1.6902485-0.1918855-2.547473
		C7.2413249,7.8183012,8.202136,6.324831,9.1368132,4.8181925c0.1049566-0.0942912,0.1609249-0.218493,0.2389078-0.3294244
		c0.1006718-0.1432042,0.2217264-0.2396307,0.3765125-0.0448303c-0.0224018,0.7524376-0.1973763,1.4909306-0.21663,2.2479987
		c-0.008729,0.3431673,0.120676,0.6996174-0.0285711,1.0389733c-0.0263729,0.05656-0.0720615,0.0965538-0.1342602,0.1188807
		C9.047574,7.777648,9.05546,7.515965,9.0080271,7.289319c-0.03407-0.1627865,0.0504274-0.3777585-0.2349672-0.4181571
		C8.5397263,6.7692924,8.4743958,6.928103,8.3943529,7.074306C8.1800079,7.4658232,7.940032,7.8435006,7.6734333,8.2069025
		C7.6584592,8.2273159,7.5357256,8.2674656,7.6533418,8.2999916C7.6939626,8.311224,7.7667146,8.256917,7.8327479,8.2589855
		c0.158844,0.1105747,0.3267379,0.1922159,0.5366149,0.1350679C8.6149416,8.4026127,8.8967352,8.3189402,9.028595,8.6148691
		c-0.2242041,0.264616-0.589324,0.165061-0.8674355,0.2888308C7.9285216,8.9442005,7.8765507,9.1349401,7.7860093,9.2935114
		C7.7077265,9.4110699,7.596971,9.502862,7.5003762,9.605917c-0.5186911,0.55338-0.5469584,0.8190193-0.1635156,1.5156527
		c0.6556311,0.9171152,1.419301,1.0952044,2.5850315,0.6006088c0.0867462-0.0370846,0.172636-0.0360718,0.2583704,0.0014801
		c0.5475264,0.4734936,1.2165785,0.1684017,1.8275013,0.2296772c0.0339422,0.0034037-0.0581293-0.1707029-0.046813-0.2685452
		c0.0738993-0.5711985,0.4475718-0.990056,0.8307123-1.4043541c0.277956-0.2985344,0.1901035-0.5472202-0.1223879-0.7657118
		c-1.3201284-1.1617098-1.5615168-3.5120125-0.8182087-4.8656192c0.9636393-2.5484645,4.8784809-3.3641844,7.2401237-1.476038
		c0.9915504,0.7927482,1.5330124,1.7984667,1.4865685,3.0404396c-0.0104065,0.2782202-0.0029411,0.5574489-0.0023861,0.8359346
		c-0.0543518,0.9708953-0.5017986,1.775907-1.2195625,2.4662919c-0.4185162,0.2470512-0.4493332,0.5386095-0.1235485,0.8782873
		c0.2260342,0.2356682,0.4250011,0.4922886,0.6813507,0.7047462c0.1487312,0.1232653,0.3731441,0.2390013,0.2050838,0.4864836
		c-1.1952534,0.8603668-2.5499763,1.2762499-4.0616932,1.2517834c-1.3732653-0.0222254-2.7471304,0.0457544-4.1202869-0.0561991
		c-0.9862289-0.073226-1.9728689,0.039547-2.9592476,0.0638351C7.9937348,12.8688955,7.1662331,12.6096573,6.5348763,11.890727z"/>
	<path fill="#222222" d="M10.0479221,3.2548859c1.247551-1.9818597,3.0530672-3.1652946,5.5816565-3.2036569
		c2.6071444-0.039554,5.2155428-0.0112275,7.8233843-0.007933c1.9043732,0.0024055,3.1509209,1.7623494,2.2905121,3.3525331
		c-0.8458424,1.5632651-1.8352299,3.0598304-2.7502728,4.5914679c-0.3008366,0.5035558-0.5587921,1.028873-0.850214,1.5374455
		c-0.2203331,0.3845186-0.4284668,0.7805862-0.808054,1.063118c-0.0235538-0.0181713-0.0471096-0.0363445-0.0708389-0.05445
		c-0.0772209-0.1964273,0.0627308-0.3350525,0.1484623-0.4904728c0.6463051-1.1716776,1.3555164-2.3131542,1.9654789-3.5022559
		c0.0365028-0.071156,0.0727921-0.1423955,0.0875168-0.2212024c0.224596-0.6421676,0.6662216-1.1791086,0.9997978-1.7691298
		c0.0790997-0.100174,0.1751728-0.1850996,0.2736149-0.268271c0.2154675-0.2513294,0.3609352-0.5435867,0.5526752-0.8072491
		c0.9732227-1.3382907-0.2027454-3.0736623-1.8478603-3.1254346C20.7968674,0.2660955,18.1410713,0.22996,15.499115,0.3653079
		c-1.8686943,0.0957332-3.4601698,0.9041806-4.6359787,2.3157156c-0.2965984,0.3560615-0.4191017,0.781265-0.6264381,1.1728156
		c-0.0901566,0.0744359-0.1889048,0.0801136-0.2943687,0.0311918C9.7396393,3.6409416,9.9534616,3.4564734,10.0479221,3.2548859z"/>
	<path fill="#212121" d="M6.5348763,11.890727c0.469656,0.1396437,0.6852894,0.6150665,1.2050304,0.723444
		c0.7289386,0.1520014,1.4599538,0.150054,2.1781716,0.0696363c0.880784-0.0986233,1.7457027-0.0165577,2.6195898-0.0087967
		c1.9825497,0.0176067,3.9977264,0.3204556,5.938345-0.3211422c0.6227627-0.2058935,1.2048054-0.4950266,1.6678963-0.951252
		c0.3172588-0.3595781,0.5759239-0.7869482,1.1495304-0.849925l0.0414944,0.0351686
		c-1.2238922,1.4758472-2.8714199,2.281703-4.8488922,2.3394709c-2.6388187,0.0770864-5.282547,0.0300455-7.9238119,0.0046959
		C7.7118049,12.9238644,6.9731193,12.6330185,6.5348763,11.890727z"/>
	<path fill="#474747" d="M10.0479231,3.2548859C10.0054798,3.4571767,9.9630365,3.6594675,9.9205914,3.861758
		C9.9189529,3.8879557,9.9173164,3.9141536,9.9162588,3.9404635C9.8753576,4.0673389,9.817975,4.1869044,9.7308836,4.2932072
		C9.7076778,4.3083816,9.6840591,4.3231859,9.6604404,4.3379903C9.4028311,4.4205709,9.4307203,4.7694712,9.1368132,4.8181925
		C9.3992815,4.2765322,9.6525574,3.7302883,10.0479231,3.2548859z"/>
	<path fill="#202120" d="M21.2934399,10.5526915c-0.4049358,0.258132-0.6907024,0.6541433-1.1495304,0.849926
		c-0.5237598-0.2483253-0.847126-0.6822128-1.1728497-1.1070433c-0.2743149-0.3577766-0.1962204-0.6441936,0.2675838-0.8069086
		c0.0977669,0.0183096,0.1631947,0.0721483,0.2015781,0.1560068c0.0384026,0.1126194,0.016758,0.2354679,0.0589848,0.3460712
		c0.0935669,0.2450905,0.2224979,0.4892082,0.5096035,0.5595932c0.2976437,0.0729694,0.4461994-0.1764593,0.6107044-0.3445368
		c0.2694931-0.2753477,0.3961124-0.6473866,0.6947098-0.9053469c0.1730556-0.1156797,0.2317085-0.2825155,0.2426453-0.4708729
		c0.0115929-0.0846834,0.0334682-0.1664572,0.0646458-0.2467556c0.2198868-0.4068203,0.2265911-0.881073,0.4736786-1.2791247
		c0.1250648-0.5990958,0.0931587-1.2003803,0.0179291-1.7990084c-0.0269165-0.2141747-0.0895805-0.4206595,0.0252285-0.6261663
		c0.4305134-0.1699367,0.3663788,0.2038832,0.4430218,0.3734207c0.1319828,0.2919602-0.0085468,0.6344318,0.1574955,0.9276881
		c0.1524887,0.1980753,0.3369236,0.0960789,0.5160446,0.0447321c0.1630917-0.0255089,0.2780571,0.0508575,0.3806534,0.1533093
		C22.8548565,7.7693472,22.0741482,9.1610193,21.2934399,10.5526915z"/>
	<path fill="#1F1F1F" d="M20.4026604,7.0961952c0.0181522-0.9883451,0.0378017-1.9536061-0.548418-2.8688354
		c-1.1075954-1.7292154-3.8347015-2.4856725-5.9293623-1.4731286c-0.8965864,0.4334037-1.5947208,1.0376201-1.9270487,1.9496143
		c-0.1391573-0.0480561-0.2417517-0.1372199-0.3264027-0.247364c-0.0415916-0.074173-0.0602922-0.1534204-0.0628777-0.2366185
		c0.0001163-0.0842004,0.0181284-0.164978,0.0530453-0.2426395c0.1678028-0.2596023,0.338603-0.517374,0.6216974-0.6881857
		c0.2303772-0.1281979,0.3958588-0.3181419,0.5618439-0.5083513c0.2584219-0.2343028,0.5606871-0.4028943,0.8990631-0.5189905
		c1.0487804-0.5093058,2.1701164-0.5426205,3.3128576-0.4364523c0.2828636,0.070783,0.558075,0.1650037,0.8345966,0.2546245
		c0.1931877,0.0779724,0.3812561,0.1665442,0.5659714,0.2609596c0.1437531,0.0865581,0.2826405,0.1803339,0.4281082,0.2652037
		c0.2014027,0.1431422,0.374157,0.3184373,0.5887527,0.4473708c0.04599,0.0329669,0.0862503,0.0710223,0.1231995,0.1123359
		c0.1443462,0.2034471,0.3368912,0.3683777,0.5131989,0.5466921c0.172308,0.2027764,0.2845173,0.4377973,0.4197006,0.6611474
		c0.1394463,0.2810874,0.2567215,0.5682778,0.2947674,0.8787122c0.0109215,0.3956485,0.0226555,0.7891717,0.0951691,1.1820927
		c0.044014,0.2385197-0.0468349,0.4695325-0.213892,0.6654768C20.6044178,7.1649919,20.5028667,7.1727686,20.4026604,7.0961952z"/>
	<path fill="#1F1124" d="M9.9205914,3.861758c0.0882215,0.0013585,0.1764431,0.002717,0.2646637,0.0040755
		c0.2095652,0.2298868,0.0544243,0.44893-0.024087,0.6696737c-0.5418663,1.5235085-0.4172525,3.0069532,0.3128557,4.4531393
		c0.0660591,0.0993767,0.1187944,0.2055588,0.1718187,0.310914c0.1206522,0.269702,0.2598171,0.5273809,0.5437307,0.6878366
		c0.1211605,0.0825644,0.2167702,0.1848783,0.283637,0.3098202c0.4025545,0.5578051,0.4020824,0.5573206,0.9363422,0.1133938
		c0.1418571-0.1178732,0.2683802-0.2683067,0.4968243-0.2237015c0.0349808,0.0320921,0.0458212,0.0635471,0.0327978,0.0942936
		c-0.0128651,0.0303755-0.0253458,0.0455713-0.0374851,0.0455713c-0.1424685,0.1904755-0.2728815,0.3899651-0.4298773,0.5695772
		c-0.3406496,0.3897133-0.3462048,0.3855591-0.0253115,0.7815189c-0.1671915,0.1071033-0.3175526-0.0740108-0.4790497-0.0230427
		c-0.4250851,0.1138105-0.5522881-0.2024632-0.7378712-0.4351501c-0.7232227-0.8992271-1.2405519-1.909421-1.8158741-2.8891182
		c-0.0850229-0.1620541-0.16574-0.3245735-0.0198994-0.4941616c0.083848-0.4080935-0.0361366-0.8148136-0.0233412-1.2271118
		c0.0239487-0.7716489,0.1467991-1.5193958,0.2900419-2.2712297C9.6604404,4.3379903,9.6609669,4.3416204,9.6609669,4.3416204
		c0.1498041-0.130487,0.1379328-0.3365631,0.2618675-0.4791446L9.9205914,3.861758z"/>
	<path fill="#2FDC05" d="M11.3452387,11.17206c0.1571693,0.2163658,0.3490019,0.3944988,0.6222916,0.4827347
		c0.096508,0.0748119,0.1930084,0.1496887,0.289712,0.2243376c0.0852213,0.0657854,0.1689968,0.1469622,0.0824423,0.2433548
		c-0.0403776,0.0449667-0.1476269,0.0542383-0.2241659,0.0532436c-0.5513268-0.007163-1.1031027-0.0399914-1.6536179-0.026288
		c-0.3687248,0.0091791-0.3874464-0.1349907-0.2772112-0.387991c-0.0912685-0.2296362,0.1096258-0.3599119,0.2071886-0.5257797
		C10.8913746,10.6383429,10.8913746,10.6383429,11.3452387,11.17206z"/>
	<path fill="#201324" d="M13.9269781,8.526289c-0.2573442,0.2100573,0.0097408,0.5502424-0.2186346,0.7733927
		c-0.2969065-0.5459728-0.2013836-0.8726807,0.3649158-1.3637381c0.5023441-0.4356022,0.9963169-0.8797026,1.4849415-1.3284745
		c0.1759729-0.161622,0.4861126-0.3459382,0.3274355-0.5824409c-0.2088394-0.3112636-0.4359264,0.0440602-0.6583471,0.0962453
		c-0.0414915,0.0097342-0.0848017,0.0128365-0.1272717,0.0189977c-0.0464811-0.0527644-0.066534-0.1130495-0.0605192-0.1809831
		c0.4460821-0.5437517,0.8308649-0.5771813,1.389514-0.1215668c0.0991077,0.1875472,0.0337219,0.3590431-0.06106,0.527566
		c-0.2981625,0.3891177-0.7209005,0.6723528-1.0422297,1.0424981c-0.3073311,0.4163542-0.6928711,0.7585487-1.1478062,1.035183
		C14.1026506,8.4922371,14.0217695,8.5275345,13.9269781,8.526289z"/>
	<path fill="#30E803" d="M8.7709608,6.8678198C8.9176245,6.8049951,9.1441793,6.455399,9.1477852,6.939496
		c0.0022459,0.3016167,0.0496931,0.5914731,0.1234941,0.8813033c0.1274071,0.1228304,0.0758553,0.2927184,0.1292896,0.43782
		c0.0846319,0.2298203-0.0611639,0.324625-0.3020105,0.2703581c-0.2851467-0.0642471-0.5655947-0.1192694-0.84587,0.0106735
		C7.9522729,8.688427,7.8316889,8.5895681,7.8549814,8.2925835c-0.0820699-0.3787746,0.2043953-0.619576,0.391222-0.897975
		c0.1936007-0.127728,0.2896719-0.332521,0.4471827-0.4890971C8.7190094,6.8926611,8.7449856,6.88024,8.7709608,6.8678198z"/>
	<path fill="#1F0E24" d="M7.209517,11.1650238c-0.5049891-0.8609161-0.4043946-1.2338867,0.5169611-1.9167223
		c0.1403866-0.1320572,0.1267667-0.3374596,0.2625947-0.4716883c0.3360195-0.1087904,0.6828318-0.1443605,1.0368938-0.130723
		c0.0301189,0.0011492,0.0602379,0.0022974,0.0904093,0.0032816c0.609148,0.2549486,0.8760157,0.7980242,1.2400608,1.2597542
		c0.0181131,0.0547848,0.0218649,0.1103153,0.0101442,0.1667109c-0.037714,0.0812902-0.1011553,0.1371517-0.1923714,0.165081
		c-0.1402426-0.0020838-0.1998024-0.0964432-0.2583447-0.1922617C9.8303232,9.881073,9.6897507,9.7551641,9.5436373,9.6334486
		c-0.696043-0.5068245-1.0737629-0.4942303-1.7450576,0.0606365c-0.5268455,0.3575487-0.4008107,0.8694363-0.3754692,1.3577805
		C7.380558,11.1360245,7.3271255,11.2026787,7.209517,11.1650238z"/>
	<path fill="#200B24" d="M18.0690136,9.4946909c0.0252476,0.2514-0.0941029,0.3563013-0.3706913,0.3544436
		c-1.0478554-0.0070391-2.0958042-0.0040541-3.1437082-0.0019121c-0.2664404,0.0005455-0.4655886-0.0674038-0.4843578-0.3527145
		C15.4031906,9.2123489,16.7361107,9.2119207,18.0690136,9.4946909z"/>
	<path fill="#212A20" d="M18.0690136,9.4946909c-1.3329525-0.0001106-2.6659079-0.0002213-3.9988089-0.0002575
		c-0.2719383-0.2942686-0.0727158-0.648201-0.1431437-0.9680939c0.0456944-0.0381718,0.0914698-0.0762911,0.1372471-0.1144123
		c0.1272449,0.0950003,0.1628017,0.2324762,0.1776104,0.3693943c0.0361452,0.3342237,0.2673149,0.4122639,0.5808764,0.4123154
		c0.8337755,0.0001373,1.667592,0.0062637,2.5013018-0.0033998c0.2649918-0.0030708,0.5399323-0.0240011,0.5317974-0.365818
		c-0.0080948-0.3399525-0.2894478-0.3403492-0.5499115-0.3542337c-0.2766495-0.0147476-0.5626583,0.0279312-0.8270912-0.0629702
		c-0.3519535-0.120986-0.371748-0.2978373-0.0560093-0.4959936c0.5526009,0.0279026,1.1113796-0.0049186,1.651886,0.1426134
		C18.4510841,8.4924765,18.4487114,9.0860863,18.0690136,9.4946909z"/>
	<path fill="#1F0A25" d="M11.7482309,4.4727473c0.170043-0.0032077,0.242816,0.0834422,0.2495766,0.2310963
		c-0.7624912,1.465086-0.3937225,3.8181186,0.902647,4.7858691c0.0722952,0.0738869,0.0685577,0.1559372,0.0303745,0.2417755
		c-0.3898706,0.0829391-0.5186415-0.2693882-0.7815294-0.399457c-0.1465464-0.1252851-0.2364588-0.2835789-0.3100128-0.4517803
		c-0.2862244-0.6456223-0.668972-1.2665706-0.6051168-2.0027537c0.097559-0.2893262,0.0940428-0.579587,0.0061274-0.8706536
		c-0.0388641-0.375493,0.1128788-0.7178903,0.2152519-1.0691714C11.5295191,4.7701688,11.5689945,4.5835567,11.7482309,4.4727473z"
		/>
	<path fill="#1F1024" d="M18.0747681,8.0538349c-0.4389935,0.0281706-0.8837566-0.0622168-1.3187714,0.0642319
		c-0.1714859,0.0498466-0.2156181-0.0680237-0.2400875-0.1919479c0.0146255-0.0231562,0.029253-0.0463128,0.0432816-0.0698786
		c0.3913822-0.3483839,0.823555-0.6608305,1.1228199-1.0903988c0.0261879-0.0481753,0.0555038-0.0944333,0.0847206-0.1408572
		c0.4075966-0.5447993,0.3166599-1.0637627-0.0938663-1.5666881c-0.0301762-0.0499659-0.0505314-0.1028924-0.0618992-0.1590533
		c0.0139999-0.1137996,0.0165348-0.238451,0.2050686-0.1955886c0.7879143,1.0728035,1.1564178,1.0702744-0.4939232,3.1400671
		C17.577116,7.9273181,17.9502411,7.6770296,18.0747681,8.0538349z"/>
	<path fill="#1F1423" d="M17.8160343,4.7036543c-0.1112804,0.0538411-0.1307182,0.1541262-0.1503391,0.2543192
		c-0.1842861,0.0238457-0.286232-0.0930138-0.3961582-0.1966162c-0.8097782-0.5408063-2.0070648-0.5247278-2.8617792,0.0414958
		c-0.1381884,0.0915465-0.2491484,0.2156487-0.4007034,0.2929072c-0.0599155,0.0250039-0.1226349,0.035111-0.1880226,0.0335255
		c-0.1015463-0.0270667-0.1779032-0.0707059-0.1428957-0.1869159c0.3616676-0.5354524,0.9201822-0.7976336,1.5528402-0.9568846
		c0.4743662-0.0908833,0.948699-0.091465,1.4229975,0.0004461C17.0850716,4.1626277,17.5556507,4.287323,17.8160343,4.7036543z"/>
	<path fill="#201623" d="M7.209517,11.1650238c0.0433497-0.0404177,0.0866985-0.0808353,0.1300473-0.121253
		c0.0583162-0.0251417,0.1151471-0.0213709,0.1710296,0.0069103c0.1556191,0.1057348,0.2610369,0.2594128,0.4131489,0.3691635
		c0.5155406,0.3719673,0.9154773,0.3851919,1.4645734,0.0569687c0.1946039-0.1163254,0.3293724-0.3158789,0.5787964-0.356452
		c0.55863,0.2445879,0.2270117,0.440896-0.040513,0.6407089c-0.0837517,0.3529663-0.0856285,0.3553019-0.3258476,0.1901588
		c-0.0767317-0.0527506-0.1434898-0.0505123-0.231554-0.0260715C8.1870966,12.2532253,7.7591105,12.1013088,7.209517,11.1650238z"/>
	<path fill="#1F1F1F" d="M20.4026604,7.0961952c0.0861969,0,0.1723938,0,0.2585907,0
		c0.3008614,0.2992668,0.0461082,0.6234369,0.0506001,0.9361887c-0.0600014,0.528677-0.3559361,0.9560204-0.708931,1.3496618
		c-0.153162,0.1707973-0.3228149,0.3897629-0.6324444,0.2273331c-0.0439453-0.0402374-0.0878887-0.0804758-0.1318321-0.1207132
		C19.827631,8.774826,20.3840904,8.0474482,20.4026604,7.0961952z"/>
	<path fill="#201223" d="M8.3744574,7.4559398C8.2013006,7.7348208,8.0281448,8.0137005,7.8549852,8.2925835
		C7.7186499,8.4325304,7.5823178,8.5724764,7.4448085,8.7136316C7.2963104,8.5777397,7.3252211,8.4535942,7.3854456,8.3574657
		c0.3402658-0.5431209,0.6888962-1.0818758,1.0443726-1.6166048C8.4848633,6.6580577,8.532546,6.4785786,8.6968689,6.5932975
		c0.0632782,0.0441761,0.0515747,0.180234,0.0740633,0.2744746c0.0000286,0.0000477-0.000411-0.0086403-0.000411-0.0086403
		C8.591032,7.0311198,8.5329485,7.2720308,8.3744574,7.4559398z"/>
	<path fill="#201823" d="M15.0999947,6.0195847c0.0000076,0.0402203,0.0000153,0.08044,0.0000229,0.1206737
		c-0.1541777,0.2645531-0.3978233,0.3190279-0.6423187,0.1556497c-0.3073606-0.2053876-0.6908865-0.3216753-0.9099646-0.6351285
		c0.0223427-0.0202851,0.0446825-0.0405707,0.0668688-0.0611482c0.2249327-0.0986929,0.4245758-0.031004,0.6180525,0.079042
		C14.4818316,5.878509,14.7855387,5.9606781,15.0999947,6.0195847z"/>
	<path fill="#1F0A26" d="M9.9265995,11.7610703c0.1033125-0.1993027,0.4420061-0.396944,0.0049496-0.6000586
		c-0.0851555-0.1511478-0.0106211-0.265317,0.1001625-0.3711233c0.1513548-0.1279621,0.1809025,0.2645206,0.3485346,0.0693817
		c0.0965366-0.0115957,0.1800938,0.0084801,0.2416811,0.0832567c0.0581465,0.1676769-0.0841694,0.2601967-0.1645098,0.375946
		c0.0435419,0.2184696-0.1721344,0.3004179-0.2727261,0.4429789C10.0986605,11.7613249,10.0126295,11.7611971,9.9265995,11.7610703z
		"/>
	<path fill="#277A14" d="M8.2526884,8.5396509c0.09904-0.1403799,0.2661085-0.1439333,0.39995-0.1127186
		c0.614913,0.1434116,0.7705078-0.0916939,0.6186781-0.6061597C9.3134222,7.8175211,9.354352,7.8226018,9.3939371,7.8362193
		c-0.0060177,0.167541,0.0456514,0.318995,0.147336,0.4566264C9.7119322,8.84161,9.3573303,8.730092,9.0237675,8.6450214
		c0,0,0.00214,0.0009499,0.0021696,0.0009089C8.7936869,8.4518242,8.5087299,8.5857677,8.2526884,8.5396509z"/>
	<path fill="#1E0226" d="M10.2096949,12.382041c0.6709862,0,1.3419724,0,2.0129595,0
		c0.0006475,0.0195322,0.001297,0.0390635,0.0019436,0.0585957c-0.6688633,0-1.3377247,0-2.006588,0
		C10.2152376,12.4211044,10.2124662,12.4015732,10.2096949,12.382041z"/>
	<path fill="#201822" d="M13.676136,4.9423699c0.0604982,0.0483093,0.1209974,0.0966182,0.1814947,0.144928
		c0.0146675,0.0496984,0.0145178,0.0995259,0.0027103,0.1496501c-0.0419922,0.1801648-0.1361914,0.3278351-0.3122931,0.4236374
		c0,0-0.000309,0.0001926-0.0003119,0.0001931C13.0477543,5.3383203,13.3747044,5.1422963,13.676136,4.9423699z"/>
	<path fill="#201A22" d="M16.6519737,3.9859312c-0.4743309-0.0001452-0.9486628-0.0002904-1.4229956-0.0004408
		C15.7033796,3.7929502,16.1777115,3.7920554,16.6519737,3.9859312z"/>
	<path fill="#201224" d="M12.9012165,9.7250118c-0.0002489-0.0784407-0.0004978-0.1568813-0.0007544-0.2353096
		c0.2340117,0.2787333,0.4159155,0.5575218,0.0012197,0.8370628c-0.0002031-0.0402365-0.0004139-0.0804815-0.0006237-0.1207266
		C12.7529039,10.0456543,12.7551479,9.885313,12.9012165,9.7250118z"/>
	<path fill="#201623" d="M7.9890728,8.7766132c0.0071864,0.2023344-0.0268178,0.3850536-0.262579,0.4717007
		C7.7191672,9.0459032,7.745759,8.8596525,7.9890728,8.7766132z"/>
	<path fill="#202120" d="M10.4562969,9.1284771c-0.6093445-0.6687975-0.6751709-1.4986-0.7851667-2.3103242
		c-0.1392117-1.0273337,0.2206335-1.9862185,0.5141239-2.9523132c-0.0767927-0.4497731,0.1504898-0.8304594,0.4211206-1.1463976
		c1.0200996-1.190873,2.2657423-2.0188222,3.9353065-2.3689609c1.2516012-0.2624839,2.4797459-0.1522434,3.7169933-0.1821557
		c1.6785183-0.0405807,3.3590679-0.0148135,5.0387096-0.0086704c1.4721775,0.005384,2.6574879,1.1454926,2.5217552,2.4932957
		c-0.0708942,0.7039819-0.5677319,1.2602556-1.0191612,1.8114498c-0.1250839-0.0366535,0.0059547-0.3527293-0.2776756-0.2171082
		c-0.0951443-0.0680795-0.152216-0.1614432-0.205883-0.2576835c-0.0630054-0.1272724-0.1174831-0.2560883-0.0748177-0.4002006
		c0.0219212-0.055362,0.0457268-0.1122766,0.0869007-0.1564198c0.5060043-0.5424821,0.582201-1.1394551,0.2688999-1.7869925
		c0.0021744-0.2929864-0.067852-0.5235351-0.4705486-0.4702593C23.901041,1.2217782,23.7537727,1.10133,23.6112881,0.969994
		c-0.0397568-0.0343619-0.0782089-0.0703504-0.117506-0.1046703c-0.1410084-0.1097002-0.2946911-0.0767356-0.4486141-0.0327289
		c-0.099762,0.0369967-0.1941967,0.0833094-0.2866306,0.1335807c-0.0962868,0.0475721-0.1933727,0.0928004-0.3061543,0.0464313
		c-0.1115322-0.101602-0.1688633-0.2444904-0.2969818-0.3334316c-0.1402493-0.1013184-0.3157368-0.05639-0.4708481-0.0967419
		c-0.6330032-0.0412534-1.2651672-0.0333259-1.8962002-0.0036205c-0.160696,0.0612798-0.3780613-0.0431029-0.494524,0.1461681
		c0.0271282,0.3435311,0.3103752,0.4983171,0.5720673,0.6607637c0.2682514,0.1665187,0.4844265,0.3884097,0.7407608,0.566255
		c0.0567799,0.0393922,0.0749454,0.121689,0.1633263,0.1244198c-0.0521069-0.0711095-0.0534935-0.146374-0.0218506-0.2242278
		c0.2958279-0.0277685,0.3852425-0.4609208,0.7620945-0.3323067c0.2872982,0.6267366,0.1060104,1.3784039,0.6097832,1.9463742
		c0.0404587,0.1724079,0.0415668,0.3570676,0.1757603,0.5023363c0.0863533,0.1573961,0.2385101,0.2906225,0.2138176,0.4896634
		c-0.0708828,0.1196108-0.1686249,0.2148571-0.2988567,0.2809367c-0.1270771,0.0347738-0.2360706-0.0099425-0.3432941-0.0651617
		c-0.0517616-0.0322151-0.0937634-0.0732074-0.1290588-0.1204801c-0.697731-1.5543408-1.8135281-2.7307158-3.5436344-3.3518684
		c-1.1466389-0.3788573-2.3101778-0.528116-3.5073395-0.2304509c-1.6525908,0.3990122-2.9548311,1.238224-3.8319273,2.6110897
		c-0.0734835,0.1331382-0.1292286,0.2730966-0.1910934,0.4109805c-0.7874184,1.4309876-0.8430071,2.8987434-0.271698,4.4019823
		C10.4822674,8.6309948,10.6611462,8.8677111,10.4562969,9.1284771z"/>
	<path fill="#1F1324" d="M23.6355667,6.3776755c-0.1264229-0.040731-0.2528439-0.0814619-0.3792667-0.1221924
		c-0.0199661-0.0217814-0.0399303-0.0435638-0.0601292-0.065299c0.0970974-0.677403,0.4672585-1.2186294,0.9836597-1.6877298
		c0.113905-0.0569992,0.2306843-0.1006703,0.3635578-0.0613356c0.0366516,0.0322037,0.048748,0.0644708,0.0363865,0.0966587
		c-0.0123348,0.0321331-0.0246296,0.0482063-0.0369263,0.0482063c-0.1245537,0.4446101-0.4155846,0.8122182-0.6551151,1.2030931
		C23.7733879,5.9756665,23.5912991,6.1341128,23.6355667,6.3776755z"/>
	<path fill="#201323" d="M24.5428486,4.5859838c-0.0007553-0.0409341-0.0015087-0.0818677-0.0022621-0.1228018
		c-0.0796242-0.0793319-0.0667381-0.1577725,0.002655-0.2356677c0.3208218-0.1391406,0.2441711,0.0902324,0.2567368,0.2368875
		C24.7142677,4.5049281,24.6285591,4.5454559,24.5428486,4.5859838z"/>
	<path fill="#202120" d="M9.9228344,3.8624759C9.9391336,4.07059,9.9076891,4.2563944,9.661025,4.3416381
		C9.6610146,4.1411171,9.7085724,3.9628263,9.9228344,3.8624759z"/>
	<path fill="#313131" d="M19.3704758,9.6093788c0.7354183-0.2958622,1.0017815-0.8915854,1.1621208-1.555088
		c0.0901012-0.1147242,0.0892677-0.2748084,0.2161961-0.3713059c0.240591-0.7794056,0.1846123-1.5626926,0.0377007-2.3467202
		c-0.0109825-0.055162-0.0258293-0.1098938-0.0453396-0.1631036c-0.0345325-0.3034353-0.1279163-0.5866017-0.3404236-0.8278899
		c-0.2061501-0.1562271-0.2562237-0.398937-0.3867397-0.5970738c-0.14044-0.2235217-0.3687019-0.3820567-0.5180988-0.5989504
		l0.000761,0.0006835c-0.2346268-0.1380942-0.4058208-0.3495815-0.6479149-0.4790366
		c-0.1856251-0.0000401-0.3137913-0.0802574-0.3869553-0.2372265c-0.1407108-0.1393659-0.3464413-0.159219-0.5183487-0.2412405
		c-0.2830772-0.0098891-0.549963-0.064919-0.7746162-0.2376897c-1.2315111-0.26825-2.3987017-0.131853-3.4911518,0.4747303
		c-0.2590418,0.1599739-0.5180826,0.3199477-0.7771244,0.4799213c-0.2150383,0.1195879-0.387167,0.2788813-0.5166426,0.4776416
		c-0.3243122,0.1004169-0.3507242,0.4735813-0.6443729,0.6020739c-0.1517401,0.0949368-0.2504492,0.0421309-0.3181829-0.0972743
		c0.1130104-0.5203562,0.5159302-0.8763852,0.9120541-1.1884108c2.9872389-2.3530459,6.5840893-1.6195956,8.4147167,1.2319732
		c1.2427368,1.9358115,1.1386089,3.8089356-0.3899021,5.5892982c-0.0764599,0.089057-0.1853638,0.1674643-0.1767788,0.3663435
		c0.347086-0.2036524,0.4711342-0.5109015,0.6493168-0.7840223c0.2042084-0.3130159,0.2619095-0.7322865,0.7092934-0.8792667
		c0.0711231-0.0011187,0.1338882,0.0191116,0.189045,0.0604677c0.0560017,0.1263027,0.0538578,0.2478561-0.0332336,0.3626909
		c-0.0001068,0.0795565-0.0002155,0.1591139-0.0003242,0.2386713c-0.0981617,0.154336-0.118721,0.3446798-0.259861,0.4790735
		c-0.2238102,0.3061256-0.4109955,0.6445513-0.6828842,0.9082727c-0.2219944,0.2153244-0.41469,0.6868048-0.8382092,0.4443102
		C19.5199738,10.4952955,19.1472435,10.1473122,19.3704758,9.6093788z"/>
	<path fill="#303030" d="M21.6958542,8.6509037c0.0000515-0.1194916,0.0001049-0.2389822,0.0001583-0.3584738
		c-0.1052132-0.2159023-0.0399113-0.4286327,0.0223217-0.637887c0.2318344-0.7795482,0.2524738-1.5597749,0.0300541-2.3442249
		c-0.0706635-0.2492204-0.1539402-0.5032973,0.0771961-0.7267761c0.0426407,0.0002856,0.0852852,0.0005665,0.1279259,0.0008426
		c0.3857994,0.9337091,0.391468,1.8965726,0.2573299,2.8701601C21.9135437,7.8070664,22.0851173,8.3322477,21.6958542,8.6509037z"/>
	<path fill="#212121" d="M22.2108402,7.4545445c0.0549831-0.9675155-0.023613-1.9247875-0.2573166-2.870163
		c0.0868683,0.0397892,0.1737499,0.0795755,0.2606316,0.1193619c0.0285263,0.0259528,0.0380917,0.0519629,0.0287209,0.0780377
		c-0.0093784,0.0260983-0.0187988,0.0391517-0.0282917,0.0391517c0.0971832,0.6888723,0.1652775,1.379559,0.1262989,2.075161
		C22.3301811,7.0870996,22.412735,7.3003287,22.2108402,7.4545445z"/>
	<path fill="#1D0125" d="M22.2145844,4.8209329c0.0005188-0.0390654,0.00037-0.0781288-0.0004425-0.1171894
		c0.0050354-0.1506028,0.0805168-0.2350521,0.2518768-0.2294874c0.0812836,0.044806,0.1275845,0.1148353,0.1639442,0.1922946
		c0.0888939,0.2032347,0.1254845,0.419908,0.1874504,0.630384c0.0176201,0.0803056,0.0176334,0.1608214,0.0028667,0.2412772
		c-0.0691395,0.2050171-0.0586987,0.4110889-0.0062523,0.6179075c0.0047417,0.0845714-0.0145988,0.1609521-0.0874138,0.2187972
		c-0.3021736-0.1265278-0.2557564-0.3792701-0.2519703-0.6112709C22.4801483,5.4263558,22.4549522,5.0989938,22.2145844,4.8209329z"
		/>
	<path fill="#212D1F" d="M22.726614,6.3749166c-0.0011539-0.0797334-0.002306-0.1594663-0.0034599-0.2391996
		c-0.0864277-0.1961803-0.0816097-0.3927703-0.0030956-0.5896912c-0.0010815-0.0785618-0.0021629-0.157124-0.0032425-0.2356858
		c-0.0573158-0.0886636-0.0559921-0.1770124,0.0014572-0.2650466c0.3359127,0.030757,0.2679462,0.2879691,0.3033619,0.4780731
		c0.0450382,0.2417355,0.0025597,0.5016756,0.1891346,0.7109365c0,0,0.0453453,0.0212474,0.0454369,0.0212135
		C23.1197357,6.4470453,22.9772511,6.6161413,22.726614,6.3749166z"/>
	<path fill="#212121" d="M21.4356689,9.3686485c0.0236397-0.1889124,0.0929585-0.3566275,0.2598648-0.479063
		C21.708147,9.095315,21.6737652,9.2792454,21.4356689,9.3686485z"/>
	<path fill="#303030" d="M13.6776657,2.429467c0.7692461-0.6819676,2.4097614-0.9050711,3.4911537-0.4747562
		C15.9726992,1.9091444,14.7841539,1.9111972,13.6776657,2.429467z"/>
	<path fill="#212121" d="M20.789526,7.8137946c-0.0856476,0.0801578-0.1712952,0.160315-0.2569351,0.2404838
		c0.0047646-0.3237324,0.1940498-0.6262803,0.1286602-0.9580832c0.2217884-0.6381469-0.0853825-1.2763681,0.0003166-1.9145336
		c0.0433884-0.0539351,0.0863686-0.0536551,0.1289406,0.0008316l-0.0001068-0.0002398
		C21.0533161,6.0595083,21.0958996,6.9367013,20.789526,7.8137946z"/>
	<path fill="#311F35" d="M11.477334,3.8678029c0.0570307,0.0965476,0.155797,0.1158926,0.2621641,0.1212628
		c-0.0010138,0.0789366-0.0020561,0.157835-0.0030985,0.236733c-0.1031666,0.0882349-0.2244978,0.1319013-0.3654366,0.1286087
		c-0.3504076-0.0369868-0.649106-0.1488719-0.7961369-0.4768412c0.0432005-0.1233673,0.086401-0.2467339,0.1296005-0.3701012
		c0.1163683-0.0561638,0.2170572-0.0050082,0.3193417,0.0382991C11.1956568,3.6278431,11.3967037,3.6757314,11.477334,3.8678029z"/>
	<path fill="#303030" d="M20.7905083,5.1824932c-0.042984-0.0002208-0.0859661-0.000493-0.1289444-0.0008249
		c-0.0869274-0.2788057-0.1738586-0.5576043-0.2608109-0.8364005C20.7549305,4.5350232,20.8005657,4.8476682,20.7905083,5.1824932z"
		/>
	<path fill="#303030" d="M11.3267956,4.235322c0.1365414-0.0031791,0.2730827-0.0063577,0.4096146-0.0095301
		c0.0038576,0.0822673,0.0077276,0.1645279,0.0117083,0.2468715c-0.047184,0.1558442-0.0944834,0.311605-0.1417799,0.4673653
		c-0.048646,0.042522-0.1003609,0.0440178-0.1548519,0.0101161C11.3691835,4.7180724,11.333045,4.4789243,11.3267956,4.235322z"/>
	<path fill="#303030" d="M18.8487377,2.6708939c0.3302631,0.0274234,0.4879818,0.254503,0.6479206,0.4790225
		C19.1701069,3.1181905,19.0127659,2.8906734,18.8487377,2.6708939z"/>
	<path fill="#303030" d="M19.4958916,3.1492469c0.2427902,0.1477721,0.4879322,0.2938046,0.5181065,0.5989339
		C19.7758427,3.5969777,19.5304413,3.4511263,19.4958916,3.1492469z"/>
	<path fill="#303030" d="M12.3838987,3.3870304c0.0376997-0.2836895,0.2099171-0.4429069,0.5166502-0.4776423
		C12.7773066,3.1139231,12.6049643,3.2730193,12.3838987,3.3870304z"/>
	<path fill="#303030" d="M17.9434338,2.1924269c0.2230053-0.0119421,0.4226437,0.0190811,0.5183563,0.2412081
		C18.2577286,2.410732,18.0761433,2.3465004,17.9434338,2.1924269z"/>
	<path fill="#30FA01" d="M11.3267956,4.235322c0.3030176,0.1889482,0.2469788,0.4425969,0.1482773,0.7039328
		c-0.3023863,1.3812985-0.328764,2.7329836,0.5007801,3.992835c0.0756855,0.1117449,0.1513729,0.2234888,0.2270584,0.3352337
		c0.0616407,0.0211897,0.1003132,0.0650311,0.1437454,0.1092787c0.5366774,0.5467548,0.4541636,1.0635567-0.2278872,1.4368315
		c-0.1381178,0.0755892-0.2441835,0.0274878-0.345892-0.0509529c-0.1650229-0.1272688-0.3115616-0.2708769-0.4199514-0.4445858
		c-0.0735588-0.0806208-0.1471195-0.1612415-0.2206783-0.2418623c-0.2673693-0.1824284-0.371994-0.4743595-0.5590858-0.710804
		c-0.03897-0.0789146-0.0779419-0.1578302-0.11689-0.2367487C10.2330151,8.4091454,9.9020166,7.7136946,9.861517,6.9532042
		c-0.0576439-1.0824337,0.0488529-2.1351776,0.7133188-3.0756614C10.8288946,3.9906828,11.0316896,4.1959939,11.3267956,4.235322z"
		/>
	<path fill="#212221" d="M9.0237675,8.6450214c0.2793808,0.0169544,0.5562553,0.0307579,0.5174818-0.3521862
		c0.3559437,0.5777988,0.8138494,1.1245022,1.0344143,1.7435465c0.1662931,0.4667168,0.6606903,0.6786661,0.7695837,1.1356554
		c-0.4049568-0.5178747-0.6191339-0.0439777-0.8878641,0.1462784c0.0375948-0.1305685,0.0751562-0.2612953,0.1127157-0.3920212
		c-0.4617243-0.2336922-0.1789484-0.6373253-0.2558517-0.9588566C9.8840876,9.5266314,9.453928,9.0858269,9.0237675,8.6450214z"/>
	<path fill="#212422" d="M11.3529263,10.3178949c0.3855419,0.4226322,0.716794,0.5568333,1.1521654-0.005126
		c0.2437649-0.314642,0.2771606-0.4805431-0.0373325-0.718008c-0.1107368-0.0836163-0.1776628-0.2168674-0.264719-0.3274469
		c0.3206758,0.0377083,0.4205246,0.3637543,0.6981764,0.4577322c-0.0000515,0.1603107-0.000103,0.3206549-0.0001564,0.4809971
		c-0.143424,0.1131754-0.2985687,0.2159805-0.4282255,0.3413401C11.927227,11.0749102,11.6742153,11.0252762,11.3529263,10.3178949z
		"/>
	<path fill="#201523" d="M10.573163,9.3652287c0.2730122,0.1786137,0.4103012,0.4485226,0.5590038,0.7108068
		C10.7628384,9.962265,10.6382971,9.683733,10.573163,9.3652287z"/>
	<path fill="#30FC00" d="M13.8163776,5.1797781c0.0233536-0.0271678,0.0370951-0.0580006,0.0412397-0.0924888
		c0.0293894,0.0131955,0.0547905,0.0083928,0.0762148-0.0143991c0.960103-0.8175364,2.0362778-1.0103359,3.2384491-0.5110788
		c0.0954494,0.0396399,0.1923141,0.0869765,0.2439919,0.1814127c0.083168,0.071558,0.1663361,0.1431165,0.249464,0.2147117
		c-0.000042,0.0000377-0.0024662-0.0043955-0.0024662-0.0043955c0.5145569,0.5623722,0.5317669,1.1563859,0.1321507,1.7769184
		l0.0060596-0.0095811c-0.348938,0.475235-0.8026619,0.8551364-1.2853928,1.2086487c0,0-0.0001469-0.0033693-0.000164-0.0033884
		c-0.1062641,0.0352311-0.2029915,0.0942307-0.1997719,0.2038698c0.0051727,0.1761703,0.1628742,0.1464958,0.2838974,0.1460972
		c0.3637867-0.0011978,0.7280998,0.0022106,1.0911827-0.0148621c0.4279728-0.0201263,0.4238892,0.2409201,0.4090767,0.5108423
		c-0.0141735,0.2583275,0.1068211,0.5897732-0.3896065,0.5870314c-1.0916729-0.0060291-2.1834269-0.004302-3.2751112,0.0008183
		c-0.2703295,0.0012693-0.3950405-0.1059351-0.3852034-0.3549385c0.0078058-0.1975832,0.0095091-0.3953714,0.0139217-0.5930691
		c0.3917141-0.3504629,0.8799334-0.6106524,1.1625547-1.0631676c0.3891773-0.2863393,0.7444191-0.6039066,1.045186-0.9716053
		c0.0196095-0.1641035,0.2198849-0.2857566,0.1305885-0.4754496c-0.3962288-0.379899-0.7430811-0.4463882-1.214386-0.1079469
		c-0.3200407,0.2298203-0.56283,0.2032199-0.8548136,0.0274134C14.2147236,5.5703678,13.6164265,5.6502113,13.8163776,5.1797781z"/>
	<path fill="#201823" d="M14.3557148,5.7680273c0.2996283,0.1372991,0.5434523,0.1579499,0.8560543-0.0661054
		c0.4830122-0.3461947,0.9135666-0.2372508,1.1908493,0.1997728c-0.4734802-0.3320856-0.9140558-0.3529129-1.3026237,0.1178899
		c-0.403326,0.2545595-0.6403255-0.0369921-0.9055309-0.2359304C14.2422686,5.7259588,14.2960186,5.7207508,14.3557148,5.7680273z"
		/>
	<path fill="#201C23" d="M16.2720509,6.3771544c-0.1992264,0.4611096-0.5825663,0.7527804-1.0451689,0.9715652
		C15.5126724,6.9672942,15.8664322,6.6483626,16.2720509,6.3771544z"/>
	<path fill="#201523" d="M8.3744574,7.4559398c0.0472002-0.2470722,0.1233044-0.4777365,0.3960342-0.5968084
		C8.6894751,7.0870075,8.6434984,7.3347921,8.3744574,7.4559398z"/>
	<path fill="#212121" d="M10.0768213,10.8069916c-0.0484648,0.1180248-0.0969305,0.2360477-0.1453342,0.3540459
		c-0.7721558,1.071229-2.0591812,0.813653-2.4745173-0.1117535c0.028482-0.0116043,0.0569634-0.0232096,0.0854135-0.0350685
		c0.2053485,0.0169048,0.3331885,0.1600132,0.4907465,0.2559929c0.7766733,0.4731274,1.6152611,0.1150522,1.7265968-0.7373142
		c0.0251732-0.1927242-0.0063248-0.3955851,0.1293974-0.5668573c0.0559521-0.0406237,0.1116009-0.0401821,0.166872,0.0008125
		c0.0046816,0.097353,0.0250607,0.1876564,0.12675,0.2414436C10.3790693,10.4429169,10.339097,10.641777,10.0768213,10.8069916z"/>
	<path fill="#201623" d="M7.7187853,9.6036949C8.3649406,8.9293795,9.0315886,8.92943,9.6762877,9.6038446
		c-0.0227051,0.0173359-0.0454102,0.0346727-0.068038,0.0522146C9.0011482,9.435565,8.393961,9.4361057,7.7866855,9.6564054
		C7.7640009,9.6389723,7.7413936,9.6213341,7.7187853,9.6036949z"/>
	<path fill="#201623" d="M7.4569697,11.049284c-0.0390463-0.0034218-0.0781789-0.0052595-0.1174021-0.0055132
		c-0.192585-0.5519075-0.2393079-1.0709448,0.3792739-1.4400616C7.7187853,9.6036949,7.750762,9.6294498,7.750762,9.6294498
		c-0.0311146,0.4732895-0.1809936,0.9282351-0.2519469,1.3953724L7.4569697,11.049284z"/>
	<path fill="#201623" d="M10.3142471,9.9674377c0.2787571,0.2754307-0.0010023,0.6783905,0.2558861,0.9588318
		c-0.0850496-0.0008087-0.1700668-0.0016432-0.2550821-0.0024776c-0.1171999-0.2786293-0.0882463-0.5574179-0.0010614-0.8362703
		C10.3140755,10.0474939,10.3141613,10.0074654,10.3142471,9.9674377z"/>
	<path fill="#1E0126" d="M10.3139896,10.0875216c0.000349,0.27876,0.0006981,0.557518,0.0010548,0.8362741
		c-0.1756296,0.1288185-0.132308-0.1245985-0.23839-0.1168556c0.0906668-0.1911745,0.1284304-0.3903856,0.106123-0.5986681
		C10.2264929,10.1680346,10.2702398,10.1277771,10.3139896,10.0875216z"/>
	<path fill="#201623" d="M10.0559959,9.9668493c-0.0524826,0.0030375-0.1049662,0.0060749-0.1574497,0.0091124
		C9.6539383,9.9644365,9.5583763,9.8564873,9.6399136,9.6339664c0,0,0.0362501-0.0300837,0.0363121-0.0301027
		C9.8415117,9.690259,9.9734783,9.8064299,10.0559959,9.9668493z"/>
	<path fill="#212121" d="M11.975853,8.9320898c-0.9278221-1.2492814-1.0465422-2.5853753-0.5007839-3.9927993
		c0.0437698,0.0002456,0.0875349,0.0005274,0.1312857,0.0007739c-0.0831299,0.3616505-0.1662445,0.7233362-0.2493582,1.0850224
		c0.0846996,0.2760067,0.0880718,0.5518651-0.001771,0.8275523C11.3228703,7.6068692,11.8035164,8.2301216,11.975853,8.9320898z"/>
	<path fill="#1F0426" d="M11.3552246,6.8526392c0.0005417-0.2759056,0.0010834-0.5518103,0.0016994-0.8276343
		C11.5476713,6.3012881,11.5497065,6.5771437,11.3552246,6.8526392z"/>
	<path fill="#212221" d="M17.7954216,6.7304587c0.2207508-0.6091332,0.2580853-1.2066183-0.1320305-1.7769427
		C18.3414803,5.5078554,18.3815022,6.0460129,17.7954216,6.7304587z"/>
	<path fill="#212221" d="M16.5160885,7.9295263c0.4285088-0.4028263,0.8570194-0.805654,1.2854595-1.2085648
		C17.5603256,7.2941709,17.1104279,7.6775527,16.5160885,7.9295263z"/>
	<path fill="#201A22" d="M17.4162731,4.7432241c-1.2401409-0.6071701-2.3900146-0.3984928-3.4824276,0.3296394
		C14.7837229,4.0571413,16.6603794,3.8794873,17.4162731,4.7432241z"/>
	<path fill="#212121" d="M14.3557148,5.7680278c-0.05375,0.0051842-0.1074982,0.0103688-0.1612492,0.0155897
		c-0.1982374-0.118443-0.4190702-0.1353798-0.6464195-0.1230302c0.1223984-0.1445217,0.0797987-0.3678026,0.2683039-0.480794
		C13.7702723,5.5530291,14.2173452,5.5394659,14.3557148,5.7680278z"/>
	<path fill="#313131" d="M21.8255844,4.5835419c-0.0576344,0.323235,0.0567608,0.631269,0.1404839,0.9308071
		c0.2687302,0.9614797,0.0471783,1.8712816-0.2700558,2.7780809c-0.0431118,0-0.0862236,0-0.1293354,0
		c-0.2784386-0.3450866-0.0306988-0.6906133,0.0102901-1.0308976c0.2597866-2.1566939-0.4998455-3.9088442-2.411293-5.1934061
		c-0.5441723-0.3657025-1.1829185-0.5554551-1.8456573-0.6728243c-0.2465229-0.0436587-0.5254993-0.0143853-0.7200451-0.2156243
		c-0.0798912-0.1092464-0.1809311-0.2167651-0.0387402-0.3469695c0.6312084-0.1237854,1.1743641,0.2252829,1.7719307,0.2823581
		c1.5978928,0.5506783,2.6509514,1.6225778,3.3749084,3.0118656C21.7845078,4.2736206,21.8365383,4.4202471,21.8255844,4.5835419z"
		/>
	<path fill="#1F1224" d="M22.084837,3.6266484c-0.6121159-0.6139469-0.5572071-1.3994541-0.6458302-2.1480446
		c-0.0788898-0.2690402,0.1330357-0.3508093,0.3313236-0.4416296c0.0599689-0.0109746,0.1205025-0.0102664,0.1798191-0.0008668
		c0.1909046,0.1837277,0.3490715-0.0102779,0.5218697-0.040946c0.0860844-0.039863,0.1721706-0.0797259,0.258255-0.1195891
		c0.3023796-0.0851582,0.6047287-0.201381,0.9073753-0.0007231c0.1781654,0.0685719,0.2909603,0.2573021,0.51581,0.2400638
		c0.2629204,0.0757773,0.434145,0.2364794,0.5177994,0.4782811c0.5394421,0.7869132,0.3086586,1.448524-0.3869038,2.034524
		C24.226881,3.6872752,24.2481461,3.7763472,24.198,3.8358805c-0.0841694,0.0999279-0.363657,0.1107118-0.1713333,0.3333457
		c-0.1044674,0.1298194-0.254549,0.1750441-0.417778,0.1974783c-0.1986141,0.0196404-0.3978939,0.0153294-0.5970898,0.0150771
		c-0.3124371-0.0033336-0.595789-0.052237-0.6905079-0.3872273C22.2442169,3.8712189,22.1023312,3.7830575,22.084837,3.6266484z"/>
	<path fill="#303030" d="M16.5226021,0.8758094c0.0431118,0.0797368,0.0862255,0.1594737,0.1293354,0.2392105
		c-0.391304,0.277553-0.8679247,0.165799-1.3004923,0.217628c-1.5190945,0.1820142-2.7482529,0.8029894-3.7084723,1.9049357
		c-0.1671896,0.1918638-0.2731056,0.5358987-0.6823273,0.3898611c-0.0854206-0.0399947-0.1708422-0.0799897-0.2562418-0.1199822
		c0.9116936-1.3570766,2.1672716-2.2807975,3.877121-2.6320906C15.2285557,0.8525317,15.8756466,0.614234,16.5226021,0.8758094z"/>
	<path fill="#2FDD05" d="M21.7725525,1.0930208c-0.153677,0.0970677-0.2820587,0.2128574-0.3335495,0.3855654
		c-0.211628,0.1245704-0.1484814,0.6805451-0.6480045,0.3530856c-0.446497-0.3302662-1.1336365-0.3525362-1.3890514-0.9286904
		c0.0309963-0.2084355,0.1836586-0.3454985,0.3849144-0.3356551c0.6209583,0.0303714,1.2440929-0.0104458,1.8607998,0.0335232
		C22.0370522,0.6286118,22.1324234,0.8405469,21.7725525,1.0930208z"/>
	<path fill="#201623" d="M19.5312805,0.9988695c0.419878,0.2776369,0.9992905,0.3488436,1.259716,0.832805
		c-0.0235844,0.302054,0.4146957,0.2518243,0.4609127,0.4982196c-0.0863647,0.1079576-0.1986523,0.1134796-0.2837849,0.0476131
		c-0.5978813-0.4625667-1.2744751-0.838331-1.7955837-1.3853879c-0.1323814-0.1389701-0.3079948-0.2915745,0.0650444-0.3542415
		C19.4111938,0.7055148,19.3713036,0.9217454,19.5312805,0.9988695z"/>
	<path fill="#222222" d="M19.5312805,0.9988695c-0.1938648-0.0535573-0.288744-0.1759934-0.293684-0.3610084
		c0.0308285-0.3179559,0.2657681-0.0751461,0.3949375-0.1229513c0.7301025-0.091448,1.4601498-0.0930139,2.190134,0.0012172
		c0.1280499,0.0464528,0.3606052-0.1969094,0.3909225,0.1205868c0.1742249,0.2800719-0.0489807,0.3760229-0.2589264,0.4781183
		c-0.0605888-0.007238-0.1211777-0.0144763-0.1819401-0.021763c0.1034946-0.1956894,0.3029594-0.4161841-0.1863594-0.3817667
		c-0.5729179,0.0402978-1.1486092,0.0582128-1.7207928-0.0219688C19.5973225,0.6517428,19.5295467,0.7912065,19.5312805,0.9988695z"
		/>
	<path fill="#303030" d="M16.5226021,0.8758094c-0.6470165-0.0001431-1.2940359-0.0002861-1.9410658-0.0004333
		c1.2866879-0.4041784,2.5305777-0.2351558,3.751626,0.2396898C17.7066517,1.1841542,17.1550522,0.7682863,16.5226021,0.8758094z"/>
	<path fill="#222222" d="M22.3430882,3.8655477c0.1479282,0.2239251,0.2970314,0.4460468,0.646637,0.3605433
		c0.2152233,0.0964499,0.4305,0.0959868,0.6458302,0.0003128c0.1290016-0.0410419,0.2580032-0.0820837,0.3870049-0.1231256
		c0.0956802-0.1325114,0.1963043-0.251251,0.387104-0.1189475c0.1057987,0.052247,0.1290493,0.1432805,0.1335545,0.2431564
		c-0.0008564,0.0785933-0.0017338,0.1571593-0.0026226,0.2357101c-0.0977745,0.036027-0.1955414,0.0720692-0.2933083,0.1081109
		c-0.5535145-0.0726953-1.0916595-0.0153337-1.6152229,0.1641216c-0.0602531,0.0212164-0.1132813,0.0103688-0.1588364-0.0317345
		c-0.0023632-0.07655-0.0047283-0.1531-0.0071507-0.2295446c-0.0562973-0.1750402-0.2744179-0.2785234-0.2527256-0.4881663
		C22.2275887,3.9191046,22.2707958,3.8789251,22.3430882,3.8655477z"/>
	<path fill="#1F0525" d="M21.8226681,0.516127c-0.7300968-0.0003924-1.4601898-0.0007851-2.1902103-0.0011974
		C20.3627033,0.3247148,21.0927486,0.3227494,21.8226681,0.516127z"/>
	<path fill="#201E22" d="M21.9546642,1.1148322c0.073101-0.165492,0.277195-0.270301,0.2589226-0.478121
		c0.262455,0.0107483,0.2602081,0.1847471,0.2584324,0.3584525c-0.0759335,0.0899873-0.1474075,0.1835878-0.2285748,0.2693429
		C21.8973923,1.6301248,22.0671253,1.13866,21.9546642,1.1148322z"/>
	<path fill="#222222" d="M24.6712589,1.5931942c-0.2207794-0.1148046-0.3934879-0.2741305-0.5177994-0.4782797
		c0.0338573-0.2581388,0.2168179-0.1711915,0.297369-0.070786C24.5751743,1.1991147,24.9789486,1.2850431,24.6712589,1.5931942z"/>
	<path fill="#201423" d="M24.4096642,3.9843311c-0.1290188,0.0396657-0.2580395,0.0793319-0.3870831,0.1189728
		c-0.3445911-0.3618686,0.2680798-0.2730033,0.2617531-0.4755917C24.3261242,3.7465892,24.3678932,3.8654602,24.4096642,3.9843311z"
		/>
	<path fill="#212121" d="M22.3430882,3.8655477c-0.0432453,0.0401459-0.0864906,0.0802913-0.1297359,0.1204367
		c-0.1391296-0.0903103-0.3610592-0.1552835-0.1285248-0.3593295C22.2075577,3.6724026,22.2937241,3.7519591,22.3430882,3.8655477z"
		/>
	<path fill="#201323" d="M23.6376495,0.8748493c-0.3024559,0.0002424-0.6049118,0.0004849-0.9073696,0.0007252
		c0.0561295-0.0958861,0.1526203-0.1168436,0.2590446-0.1193534c0.2155972-0.090132,0.4311619-0.0895709,0.6466961,0.0001914
		C23.6360931,0.7958971,23.6366367,0.835376,23.6376495,0.8748493z"/>
	<path fill="#222222" d="M23.6360207,0.7564127c-0.2155647-0.0000643-0.4311275-0.0001287-0.6466961-0.0001923
		C23.2049522,0.578602,23.420517,0.5783247,23.6360207,0.7564127z"/>
	<path fill="#30E803" d="M22.6195641,4.6992459c0.0145206-0.1405811,0.0220108-0.313055,0.2335529-0.2845058
		c0.4134922,0.0558028,0.7965584,0.033915,1.1937847-0.1229081c0.2911377-0.1149406,0.2123451,0.1337132,0.2004585,0.2794991
		c-0.4581337,0.4943056-0.7670441,1.0681529-1.0365467,1.663002c-0.3214741,0.0168295-0.3142052-0.1867714-0.3209343-0.3949151
		c-0.0088158-0.2727184,0.0222511-0.5539079-0.1453018-0.8029013C22.6208401,4.9501157,22.6655827,4.8102918,22.6195641,4.6992459z"
		/>
	<path fill="#303030" d="M10.9606457,3.6274447c0.3336029-0.0649524,0.4383039-0.3553805,0.6193457-0.5599804
		c0.9245758-1.0448835,2.0861769-1.6706848,3.5466614-1.8436172c0.5089941-0.0602688,1.0121851-0.1256,1.5252848-0.1088272
		C17.246109,1.324477,17.8863792,1.31252,18.494133,1.554369c1.3665047,0.543786,2.2136307,1.4858539,2.8173771,2.6834674
		c0.6664925,1.3220825,0.5907059,2.6804647,0.255167,4.0545936c-0.5045357,0.4222479-0.5594654,1.0993509-1.0257931,1.5453815
		c-0.1650963,0.1579094-0.2517071,0.4937038-0.5824528,0.2420588c-0.3282356-0.2497368,0.0351467-0.3750381,0.1655025-0.5082045
		c2.7551231-2.8144708,0.7024727-6.9527507-2.5983772-7.8958082c-1.452858-0.4150828-2.7496405-0.18775-4.0422306,0.4702899
		c-0.8353586,0.4252675-1.468564,1.0170953-2.0059767,1.7216394C11.3051043,3.7876832,11.1328754,3.7075639,10.9606457,3.6274447z"
		/>
	<path fill="#303030" d="M20.789526,7.8137946c0.2201462-0.8771172,0.1239853-1.7543254,0.0008793-2.6315408
		C21.1928787,6.0595479,21.194231,6.9367285,20.789526,7.8137946z"/>
	<path fill="#212121" d="M22.6195641,4.6992464c0.117157,0.0885963,0.1408997,0.206758,0.1249428,0.3373895
		c-0.0091114,0.0911183-0.0182972,0.1823559-0.0275879,0.2736487c-0.0813084-0.2021589-0.1625137-0.4043736-0.2437038-0.6065884
		C22.5220089,4.7022128,22.5707855,4.7007298,22.6195641,4.6992464z"/>
	<path fill="#1E0125" d="M22.7200603,5.5460258c0.0010777,0.1966009,0.0021572,0.3932014,0.0031662,0.589747
		C22.5419464,5.9399619,22.5436077,5.7433863,22.7200603,5.5460258z"/>
	<path fill="#30FB00" d="M9.6399136,9.6339664C9.7261562,9.7479572,9.812398,9.8619461,9.8985939,9.9759502
		c0.0810108,0.4167461,0.1237059,0.8249016-0.1772499,1.197319c-0.5625477,0.6961279-1.3880901,0.6435232-2.2225804-0.1484175
		c-0.199995-0.5090284-0.0672302-0.9666328,0.2519717-1.3954258C8.381711,9.1902266,9.0114431,9.1865549,9.6399136,9.6339664z"/>
	<path fill="#30FB00" d="M24.2196636,3.2526634c-0.026968,0.0260081-0.0539341,0.0520165-0.0809021,0.0780249
		c-0.1104832,0.1640456-0.2702866,0.2733383-0.4575958,0.3524313c-0.7222042,0.2055161-1.2104645-0.1395438-1.5907688-0.6302476
		c-0.2964554-0.3825114-0.3196621-0.8120334,0.0059433-1.216l-0.0050583,0.005686
		c0.5215225-0.6369562,0.9676342-0.8150362,1.5606556-0.6229864c0.5756168,0.1864141,0.9988365,0.774779,0.9510841,1.3289135
		C24.5787773,2.8298557,24.480299,3.0798368,24.2196636,3.2526634z"/>
	<path fill="#201E22" d="M24.2196636,3.2526634c0.5015621-0.8520217,0.359251-1.4960272-0.4264336-1.8780507
		C23.0670223,1.02151,22.5717964,1.4159302,22.091259,1.8425208c0.1762428-0.6270763,0.6879005-0.7525994,1.2898865-0.7274332
		c0.6418991,0.0268346,1.059967,0.3956287,1.2268658,0.9064652C24.7486877,2.4521277,24.8383179,2.9769773,24.2196636,3.2526634z"/>
	<path fill="#202120" d="M22.0963402,1.836872c-0.5050182,1.1420876,0.5596504,2.0355339,1.6582012,1.7626637
		c0.0654125,0.0451326,0.0690765,0.0942094,0.0109921,0.1472299c-1.0749836,0.26232-2.0450001-0.4819131-1.9446278-1.4838636
		C21.8402023,2.070277,21.880085,1.9104559,22.0963402,1.836872z"/>
	<path fill="#201423" d="M23.7655334,3.7467656c-0.0036526-0.0490391-0.0073051-0.0980787-0.0109768-0.1471736
		c0.1280289-0.0895414,0.2560749-0.1790273,0.384161-0.268708C24.1077271,3.5410318,23.9501534,3.6542759,23.7655334,3.7467656z"/>
	<path fill="#202120" d="M23.6355553,4.2264037c-0.2153854,0.1754608-0.4306679,0.1757174-0.6458359-0.0003223
		C23.2050018,4.2261953,23.4202785,4.2262993,23.6355553,4.2264037z"/>
</g>
</svg>
