<?xml version="1.0" encoding="utf-8"?>
<!-- Generator: Adobe Illustrator 24.1.1, SVG Export Plug-In . SVG Version: 6.00 Build 0)  -->
<svg version="1.1" id="Слой_1" xmlns="http://www.w3.org/2000/svg" xmlns:xlink="http://www.w3.org/1999/xlink" x="0px" y="0px"
	 viewBox="0 0 32 13" enable-background="new 0 0 32 13" xml:space="preserve" width="32px" height="13px">
<g>
	<path fill="#222222" d="M7.4253054,12.5757217c-1.4921207-0.8483925-1.8450837-2.0838575-0.98667-3.4981775
		c0.3073006-0.5063095,0.6416183-0.9989529,0.9636054-1.4978337c0.542902-0.5556555,0.6854239-1.348093,1.3147678-1.8528829
		c0.1437435,0.0309973,0.2074442,0.1247597,0.2342291,0.2477822c-0.0005789,0.1451793-0.050087,0.2781615-0.1236868,0.40484
		C8.691638,6.5225401,8.6336441,6.7043929,8.5413828,6.8693571c-0.1110744,0.1417437-0.2049084,0.2942533-0.3179073,0.434936
		c-0.172472,0.2147269,0.1260967,0.1034794,0.1516504,0.1826382C8.5151834,7.7323108,8.330472,7.9058251,8.2184687,8.0953379
		C8.1285248,8.2247486,8.0351419,8.3536301,8.2041941,8.492609c0.0398903,0.0434675,0.0573978,0.0925283,0.0515318,0.1487703
		C8.0778265,8.8663063,7.7871351,9.0061464,7.722331,9.253315c0.7112608-0.4898233,1.2361565-0.4841309,1.5519848,0.0471115
		C9.2570753,9.3125401,9.2402601,9.3340855,9.221961,9.3351946C7.5065508,9.4391022,7.325666,10.202651,7.8759236,11.2915421
		c0.1852078,0.5246124,0.4858956,0.6641607,1.2251287,0.5662546c0.3140173-0.0238695,0.6093292-0.1246357,0.9140701-0.1897469
		c0.0586405,0.0156698,0.1113796,0.0410881,0.1595821,0.074976c0.6297216,0.3108149,1.6277952,0.2666864,2.1109695-0.0951614
		c0.1446114-0.0515385,0.2847433-0.0446606,0.422102,0.0214415c0.3250952,0.3807697,0.1613913,0.5882273-0.2931547,0.6931057
		c-0.5921993,0.0438814-1.1864519,0.0154104-1.7799683,0.0182381c-0.3025599,0.001441-0.5613689,0.0526571-0.7562313,0.277854
		C9.215353,12.80935,8.5466051,12.743124,7.8785748,12.707222C7.730783,12.6539688,7.5652175,12.6515732,7.4253054,12.5757217z"/>
	<path fill="#232324" d="M7.8086848,12.5804605c0.7171903-0.0027866,1.4343801-0.0055723,2.1515698-0.008358
		c0.4729099-0.3152552,1.0157967-0.1359186,1.5268211-0.1743956c0.2819033-0.0212259,0.5678024-0.0098391,0.8506289,0.0030136
		c1.3463068-0.0002956,2.694046,0.0550938,4.0408506,0.014823c2.6317501-0.0786915,4.445467-1.3387489,5.5654354-3.4222488
		c0.4867058-0.9054298,1.0955639-1.7471867,1.5384827-2.6689153c0.1232491-0.2778916,0.2522068-0.5539045,0.4839725-0.7763042
		c0.2324505-0.1476264,0.284687-0.3748965,0.3212852-0.6099324c0.0235596-0.0532031,0.0568352-0.0997887,0.099987-0.1412244
		c0.6375809-0.7680082,1.2636681-1.5347948,1.2533073-2.5714526C25.6371651,1.839096,25.2564602,1.534412,25.3926411,1.1287
		c0.0602627-0.0358378,0.119772-0.0348256,0.1785336,0.0027885c0.5815868,0.7477003,0.5650215,1.5826778,0.1451435,2.3267624
		c-0.9206848,1.631597-1.9627361,3.2057481-2.9320145,4.815012c-0.5097027,0.8462448-0.8815403,1.7568655-1.6279125,2.4833069
		c-1.0011482,0.974411-2.1835289,1.6346083-3.6067543,1.9379463c-0.3229122,0.2241459-0.7437878,0.0560856-1.0805111,0.2249308
		c-0.3462601-0.0003567-0.6925201-0.0007153-1.0387802-0.0010719c-1.76686-0.0957527-3.5353584-0.0200691-5.3029604-0.0408716
		c-0.6185102-0.0072803-1.2374582,0.0086126-1.8530588-0.0634928C8.0859957,12.7919512,7.8562274,12.8371296,7.8086848,12.5804605z"
		/>
	<path fill="#343431" d="M25.5711746,1.1314886c-0.0531216,0.0082899-0.1062412,0.0165797-0.1593628,0.0248698
		c-0.0656815,0.0065321-0.1424294,0.0249201-0.1919155-0.0175034c-0.9423409-0.8078828-2.111351-0.8114798-3.297348-0.8047695
		c-1.8801804,0.0106381-3.7607117,0.0350445-5.6407509,0.0088336c-1.3420668-0.0187108-2.5833435,0.2672268-3.7226925,0.913741
		c-0.4691,0.2591506-0.9341335,0.5246193-1.2951488,0.9127408c-0.2722197,0.2241101-0.3954649,0.5857816-0.7787867,0.708359
		c-0.0658092,0.0091715-0.1193638-0.011291-0.1623096-0.0568314c1.1956434-1.6895859,2.88908-2.6861587,5.0891819-2.7495997
		c2.7220297-0.078491,5.4488192-0.0200349,8.1735506-0.0195409C24.4809685,0.0519504,25.1502972,0.4022332,25.5711746,1.1314886z"/>
	<path fill="#898989" d="M7.8086848,12.5804605c0.5470557,0.1669598,1.1108413,0.2328997,1.6855912,0.2327814
		c1.7228975-0.0003529,3.4458084-0.0035858,5.1686811,0.0021849c0.2578354,0.000864,0.5337648-0.0660439,0.7673883,0.1029482
		c-2.4059677,0.0081758-4.8119345,0.0173588-7.2179079,0.023345c-0.3265004,0.0008116-0.570169-0.1624632-0.7871323-0.3659983
		C7.5530982,12.577301,7.680892,12.5788813,7.8086848,12.5804605z"/>
	<path fill="#393932" d="M8.7586222,5.7630916c-0.3782969,0.3991852-0.624155,0.8696375-0.8918934,1.331717
		c-0.1049199,0.1810751-0.1839213,0.425909-0.4644895,0.4849038C7.825985,6.6524091,8.4323673,5.814527,8.9849329,4.9531312
		c0.4535418-0.7070274,0.7465544-1.4984248,1.3379297-2.1322026c0.0206375,0.0111463,0.0405703,0.0232635,0.0597944,0.036351
		c0.0639124,0.0709236,0.0693903,0.152066,0.0509281,0.2376277c-0.1067438,0.2559342-0.2533541,0.4947209-0.3878851,0.7388952
		C9.9466028,3.9688292,9.855876,4.1078577,9.8024302,4.2649164C9.5440512,4.8164439,9.1596146,5.2945857,8.7586222,5.7630916z"/>
	<path fill="#9B9B9B" d="M16.4691257,12.9194469c0.32024-0.2348452,0.6868649-0.2839823,1.0805111-0.2249308
		C17.284668,13.15065,16.8422871,12.8964815,16.4691257,12.9194469z"/>
	<path fill="#212121" d="M23.6766605,6.2499642c-0.1573696,0.7089109-0.7299366,1.2225194-1.0702534,1.8467984
		c-0.136055,0.2495804-0.2362423,0.5075884-0.3592739,0.7588701c-0.9601364,1.9610043-2.6099644,3.1978359-4.8752155,3.6780405
		c-0.7251949,0.1537323-1.5241547,0.0909986-2.2949076,0.0502262c-0.8605566-0.0455217-1.7261887-0.0110836-2.5896111-0.011446
		c0.1838694-0.1917782-0.2229776-0.1927834-0.1367884-0.3530149c0.4023771-0.0251608,0.5496244-0.1652927,0.2693119-0.4980955
		c-0.1418753-0.1441488-0.3619175-0.1687508-0.5235567-0.2836752c-0.2528982-0.2378559-0.6212873-0.4106054-0.5623331-0.825428
		c0.297368-0.1511946,0.5938301-0.3044748,0.9113207-0.4187317c0.0605059-0.0012598,0.1182814,0.0112953,0.1720448,0.0366182
		c0.068162,0.0571222,0.01404,0.1318827,0.0324278,0.1965265c0.0759439-0.0911999,0.0970478-0.194026,0.0763645-0.3055649
		c0.0051231-0.1854477-0.0309582-0.3675127-0.053689-0.5505648c-0.0927391-0.2450171-0.0758438-0.5969887-0.55299-0.4609327
		c-0.0675888-0.0014076-0.1288681-0.017005-0.187747-0.0464039c-1.4122219-1.3510122-1.1094427-4.4289265,0.0290022-5.2605038
		c0.5487909,0.3145521-0.0663748,0.5460908-0.0368233,0.8084977c0.2497625-0.5083003,0.5268412-1.0338151,1.0880299-1.3673515
		c0.177496-0.1054933,0.2172337-0.2432442,0.1038141-0.4125059c-0.0051746-0.2027066,0.1299353-0.3229096,0.2964191-0.4254515
		c0.2978458-0.1251335,0.6120872-0.2073622,0.9250746-0.293411c0.378994-0.0993626,0.7723236-0.1320598,1.1566019-0.2094649
		c0.0655069-0.019899,0.1320791-0.0330255,0.1999722-0.043084c0.6799049-0.0712411,1.3128109,0.1478295,1.9628067,0.2618208
		c3.2442265,0.6515291,4.5398483,4.8250422,2.3055782,7.2575459c-0.1393948,0.1517601-0.3478565,0.2876883-0.337122,0.5066118
		c0.0108318,0.2208672,0.1899853,0.3646822,0.4065151,0.4394054c0.2670612,0.0921621,0.4060936-0.0960331,0.5456905-0.2510719
		c1.1912689-1.3230896,1.6597748-2.836287,1.4193001-4.5329561c-0.0338821-0.239048-0.125248-0.4773922,0.0232468-0.7100368
		c0.0435314-0.0451555,0.0974064-0.0766015,0.1613941-0.0919528c0.348011,0.0458188,0.2955227,0.2951431,0.2953281,0.506031
		c-0.0002174,0.2374444,0.1907158,0.4305201,0.1443424,0.6740246c0.0523586-0.2564454-0.2052708-0.4797425-0.0649223-0.743432
		c0.0407505-0.0442228,0.0931129-0.0701857,0.154953-0.0807686c0.316433,0.0361829,0.3097057,0.2884727,0.3729591,0.4834499
		c0.0506935,0.1562696,0.0764465,0.3113046,0.3162746,0.2812848C23.5599041,5.9504471,23.5094929,6.1642361,23.6766605,6.2499642z"
		/>
	<path fill="#F9F701" d="M7.8441515,11.3389559c-0.6141009-0.8456392-0.5901985-1.3274117,0.0590196-1.8539772
		C8.3278198,9.1405563,8.7968054,9.2122736,9.2790222,9.306242C9.3137417,9.3095732,9.3484621,9.3129034,9.383378,9.3157511
		c0.7897272,0.5243216,0.9096594,0.9674311,0.4909039,1.8087931c-0.8750067,0.7331352-1.2144461,0.7843342-1.986423,0.3008108
		C7.8730192,11.3967609,7.8585849,11.3678579,7.8441515,11.3389559z"/>
	<path fill="#E6E504" d="M12.2060013,11.7281837c0.0961847,0.1247129,0.2906189,0.3042364-0.0514469,0.3212605
		c-0.6117296,0.0304461-1.226862,0.004817-1.84056,0.0009193c-0.2371845-0.0015068-0.2059507-0.1577578-0.2000561-0.2977285
		c0.0068226-0.0252934,0.0136461-0.0505877,0.020031-0.0760593c0.0961876-0.1284466,0.218442-0.2404728,0.2896872-0.3850517
		c0.2038288-0.2256021,0.1990128-0.7110586,0.7507982-0.5069723c0.1679506,0.111208,0.3028126,0.2552443,0.4533949,0.3838224
		C11.7901363,11.3808661,12.113595,11.4555349,12.2060013,11.7281837z"/>
	<path fill="#171723" d="M9.2790222,9.306242C8.4518566,8.651041,7.9391484,9.29737,7.3252068,9.6794653
		C7.5714269,9.2701302,7.6440372,8.7610254,8.233429,8.5918436c0.1872063-0.2348633,0.449935-0.178793,0.7048235-0.1542978
		c0.1989193,0.0523186,0.4053516,0.085824,0.5918589,0.1745663c0.2276669,0.2166328,0.3588829,0.4944057,0.5532274,0.7329998
		c0.0708294,0.1375341,0.1322422,0.2762823,0.0399094,0.4264002C9.7057428,9.8187037,9.6140985,9.3729696,9.2738657,9.3031197
		L9.2790222,9.306242z"/>
	<path fill="#202021" d="M8.7586222,5.7630916C8.8784437,5.1412277,9.4759808,4.755734,9.6963167,4.1836033
		C9.776659,4.112133,9.8675022,4.1096587,9.9650345,4.1493621c0.0473099,0.042881,0.0827055,0.0926857,0.105464,0.150033
		c0.0368624,0.117455,0.0373125,0.2366161,0.0194664,0.3565216C10.08043,4.7141843,10.0632582,4.7709737,10.04181,4.8264952
		C9.9075079,5.0571914,9.8588915,5.3153043,9.7669554,5.5599194C9.4882813,5.8658466,9.714448,6.3295655,9.3729296,6.6156993
		C9.3181944,6.6480451,9.2577038,6.6600008,9.1934643,6.6550779c-0.055378-0.0262508-0.097271-0.0657892-0.1272917-0.1155438
		C8.9976864,6.3655133,8.9671822,6.1803489,8.8923988,6.0071797C8.8478069,5.9258175,8.8032141,5.8444543,8.7586222,5.7630916z"/>
	<path fill="#E4E404" d="M8.0869551,8.0593224C8.1754131,7.861084,8.2638721,7.6628466,8.3523302,7.4646082
		C8.3569946,7.4364691,8.3616581,7.408329,8.3655539,7.3799801C8.4593124,7.1686788,8.6041374,6.9760232,8.6436768,6.744072
		c0.0340271-0.093925,0.0895834-0.1674571,0.2053585-0.1862741c0.3163929,0.0394425,0.3270302,0.2699232,0.3457766,0.4808002
		c0.0223398,0.2512946,0.009654,0.5057721,0.1183367,0.745769C9.347188,7.9590769,9.4233198,8.1337719,9.3139324,8.3085833
		c-0.32693,0.2318211-0.6991882,0.1265974-1.0508556,0.0969915C8.068881,8.389226,7.9726377,8.2487087,8.0869551,8.0593224z"/>
	<path fill="#151522" d="M12.3506107,12.2194386c0.0975542,0.1009026,0.2853479,0.1726561,0.1368017,0.3530283
		c-0.8424129-0.0001183-1.6848116-0.0002232-2.5271835-0.0003471c-0.1206474-0.4296427,0.2714424-0.3441601,0.479208-0.3520269
		C11.0754099,12.1960115,11.7134027,12.2163668,12.3506107,12.2194386z"/>
	<path fill="#0D0D24" d="M9.1582298,11.9653349c-0.6122227,0.3146267-1.032114-0.0445585-1.4478979-0.3621283
		c-0.2208829-0.1687069-0.0132751-0.2179117,0.1338077-0.2642393c0.0000119-0.0000114-0.0058718-0.0025196-0.0058718-0.0025196
		c0.5201049,0.441309,1.0686564,0.425005,1.6373458,0.0846815c0.0636368-0.012042,0.1258202-0.0074863,0.1865273,0.013319
		c0.0517378,0.0380964,0.0760946,0.088213,0.0771799,0.1483488C9.6397381,11.8291502,9.369422,11.8598118,9.1582298,11.9653349z"/>
	<path fill="#43431C" d="M9.309804,8.1683311C9.2777014,8.0571671,9.1339293,7.9755182,9.2047796,7.8371439
		C9.2364941,7.6977315,9.105258,7.5005736,9.3720713,7.4443798c0.30896,0.206655,0.238966,0.5368876,0.3218412,0.8180857
		C9.655962,8.6938372,9.3505239,8.6522198,9.0261345,8.576951c-0.2642546,0.0048199-0.5285082,0.0096397-0.7927351,0.014677
		C8.1829538,8.5794592,8.1324787,8.5670729,8.0820036,8.5546865c0.1491232-0.3616095,0.4819994-0.0956488,0.714345-0.173975
		C8.9732227,8.3210859,9.2850666,8.534853,9.309804,8.1683311z"/>
	<path fill="#E4E404" d="M9.309804,8.1683311c0.1447039,0.3168087-0.0969067,0.2666645-0.296072,0.2620831
		C8.6956835,8.4231014,8.3639755,8.3350048,8.0820208,8.554697C7.5912528,8.3854599,7.982523,8.2235956,8.0869589,8.05933
		C8.4471159,8.53934,8.879365,8.3453732,9.309804,8.1683311z"/>
	<path fill="#1A1A22" d="M8.3523302,7.4646082c-0.1231308,0.0738378-0.2462616,0.1476741-0.440711,0.2642784
		C7.9617963,7.2971764,8.144309,7.0326357,8.4927273,6.8583059C8.5135059,6.8794222,8.5342855,6.900537,8.5552216,6.9215941
		c0.0749025,0.2230263-0.0795603,0.3753176-0.1993551,0.5383162L8.3523302,7.4646082z"/>
	<path fill="#0C0D24" d="M7.1562033,9.98209c0.1513343,0.2717295,0.171874,0.5416641,0.004323,0.9353209
		C6.9778204,10.525732,7.0058718,10.2549524,7.1562033,9.98209z"/>
	<path fill="#161623" d="M12.2060013,11.7281837c-0.2500048-0.1358471-0.5096464-0.2600393-0.6923494-0.4772587
		c0.2958889-0.2946062,0.4423389,0.2377577,0.7086678,0.1067305c0.1694555,0.0876102,0.395628,0.123538,0.3976278,0.3636999
		C12.4819498,11.7236233,12.3439741,11.7259035,12.2060013,11.7281837z"/>
	<path fill="#181822" d="M8.8923988,6.0071797c0.3731585,0.054625,0.2387304,0.3168874,0.2541666,0.5178456
		C9.0693331,6.564455,8.9887991,6.558116,8.9072552,6.5395026C8.8268681,6.5064707,8.7737198,6.4533811,8.7590799,6.3719473
		C8.7636662,6.2382183,8.7361269,6.0947032,8.8923988,6.0071797z"/>
	<path fill="#1F1F21" d="M9.1582298,11.9653349c0.1778116-0.1214924,0.3556223-0.2429848,0.533432-0.3644791
		c0.0766001-0.0711288,0.1638756-0.0740614,0.2579641-0.0336914c0.0332346,0.031496,0.0462198,0.0644722,0.0390043,0.0988941
		c-0.0073652,0.0351391-0.0160227,0.0527105-0.0259924,0.0527105C9.7463369,11.9418983,9.4529018,11.9552994,9.1582298,11.9653349z"
		/>
	<path fill="#1A1A22" d="M8.7590799,6.3719473c0.0444403,0.0349565,0.0888805,0.0699124,0.1333208,0.1048675
		c0.0018349,0.0733933-0.085475,0.0987177-0.104187,0.1610317c-0.016551,0.0731964-0.033102,0.1463928-0.0496521,0.2195892
		c-0.0814705,0.073441-0.1633444,0.0720272-0.2455912,0.0010991c0,0-0.0002403-0.000226-0.0002413-0.000227
		C8.5173426,6.6668973,8.4024897,6.4118309,8.7590799,6.3719473z"/>
	<path fill="#131323" d="M9.9626379,11.7187691c-0.0031481-0.039052-0.0048647-0.0781555-0.0051508-0.1173124
		c-0.0691471-0.2601004,0.0771608-0.421711,0.3231354-0.4878531c0.1132536-0.0304556,0.1542721,0.1032658,0.1578217,0.2060175
		c-0.009676,0.2075148-0.2245331,0.2843714-0.3302584,0.4309368c0,0,0.0056887,0.0020189,0.0057211,0.0020475
		C10.0635042,11.7413464,10.013072,11.7300577,9.9626379,11.7187691z"/>
	<path fill="#0D0C24" d="M7.7892284,7.7994919c0.0336852,0.2838936,0.0013404,0.3750849-0.1111979,0.4254608
		c-0.0132384,0.0059261-0.0787058-0.045269-0.0749712-0.0540676C7.6407394,8.0821218,7.6878033,7.9966779,7.7892284,7.7994919z"/>
	<path fill="#212121" d="M12.3506346,1.2618033c0.9418707-0.7987796,2.1253233-1.0493308,3.3380222-1.0762408
		c2.367095-0.0525258,4.7366629-0.0043754,7.1050177-0.0208965c1.038702-0.0072458,1.9482841,0.2137563,2.6180859,0.9915587
		c0.972517,1.3771048,0.0134888,2.4528284-0.6739388,3.5677223c-0.0766983,0.1243958-0.225193,0.1883016-0.392065,0.1891999
		c-0.1170673-0.1601686,0.1887951-0.2568178,0.0738926-0.4182596c0.0020542-0.1921864,0.0390434-0.3851757-0.0549488-0.5678182
		c-0.1438541-0.0223525,0.1480045-0.5790601-0.3124943-0.2079895c-0.4778023,0.2339377-0.9598732,0.35903-1.4599533,0.0509262
		c-0.1013279-0.0913272-0.1817684-0.1895869-0.1230431-0.3304136c0.2283726-0.1361377,0.4700718-0.0313423,0.7047138-0.0249298
		c0.459856,0.0125675,0.8348045-0.1332018,1.025095-0.5193231c0.1782131-0.3616128,0.1881981-0.7450178-0.1108971-1.0753819
		c-0.2891865-0.3194195-0.6558895-0.4556868-1.1126137-0.3405491c-0.1864033,0.0469905-0.3687115,0.1426183-0.5734425,0.06392
		c-0.1366673-0.1140752-0.0577984-0.2191602,0.0151291-0.32487c0.1246109-0.1053441,0.2726612-0.1689794,0.4368362-0.2028185
		c0.4383469-0.0411036,0.870306-0.0416071,1.3082867,0.221758c-0.435957-0.3130594-0.8666363-0.3795321-1.3363781-0.2451159
		c-0.1161938,0.0306389-0.2229385,0.0895448-0.3468628,0.0967768c-0.1681061-0.0241556-0.2504959-0.1339015-0.3145809-0.2614987
		c-0.0386639-0.2183802-0.2685986-0.2215793-0.4236183-0.3109156c-0.6255951-0.1136332-1.2615223,0.0114675-1.6799526-0.0401501
		c0.3665733,0.0041333,0.9415569-0.0043977,1.5153294,0.0017363c0.0681915,0.0073634,0.1169815,0.0400267,0.1455708,0.0971183
		c-0.0564556,0.3227206-0.345089,0.3203505-0.601902,0.3454775c-0.3682175,0.0360267-0.7388935-0.0100415-1.1131763-0.0008753
		c-0.0131321,0.1552036,0.184515,0.2352538,0.1390171,0.3872093c-0.1603298,0.2632587-0.2668209,0.0041783-0.3880882,0.0080526
		c0.0400486,0.1042752,0.2817707,0.1312804,0.2618122,0.321028c-0.0100479,0.0582049-0.0394669,0.1060143-0.0883923,0.1443365
		c-0.4294395-0.015316-0.7286224-0.3569171-1.1544685-0.3809701c-0.702095-0.2771419-1.4573746-0.3871191-2.186058-0.5789264
		c-0.3290615-0.1963755-0.6868248-0.1453549-1.0435114-0.0972192c-0.0561981,0.0172628-0.1137505,0.0296502-0.171648,0.0404348
		c-0.1979218,0.0333164-0.40516,0.0305304-0.5862608,0.1287432c-0.1543951,0.0783393-0.3171883,0.1317086-0.4948244,0.1399826
		c-0.21735,0.0054338-0.436862,0.002792-0.6242352,0.1302925c-0.0466032,0.026872-0.0958977,0.0484812-0.1466293,0.0676086
		c-0.1878405,0.0449106-0.3466845,0.1499625-0.5262699,0.2132885c-0.0575886,0.0089269-0.1148663,0.0081346-0.1725197,0.0010632
		C12.6562605,1.4063517,12.4710722,1.4033916,12.3506346,1.2618033z"/>
	<path fill="#1B1B22" d="M23.6766605,6.2499642c-0.510355,0.116724-0.1605377-0.2770329-0.2795296-0.3925681
		c-0.1190491-0.3534703,0.1427402-0.5233674,0.4015732-0.6955051c0.5453415-0.0585413,0.3966026,0.2179785,0.2776661,0.4801536
		C23.8371468,5.7866054,23.7795906,6.0307164,23.6766605,6.2499642z"/>
	<path fill="#212121" d="M24.0763702,5.6420445c-0.020647-0.1896524,0.1109943-0.4865055-0.3244629-0.3841662
		c-0.0655899-0.2322941,0.0236282-0.3970618,0.2600899-0.4977126c0.1865997,0.0139832,0.2094097,0.1929417,0.3299065,0.273798
		C24.409277,5.2933908,24.3561535,5.5089641,24.0763702,5.6420445z"/>
	<path fill="#0C0C24" d="M24.3419037,5.0339637c-0.1980667-0.0023208-0.2585316-0.1230884-0.283453-0.2744503
		c-0.0048199-0.0840001,0.0462475-0.1387439,0.1150551-0.1846557c0.097023-0.045054,0.1931839-0.1027622,0.3028717-0.0261765
		c0.1586037,0.1818995-0.1372986,0.2279773-0.1306477,0.3644629C24.3437023,4.9533987,24.3424187,4.9936709,24.3419037,5.0339637z"
		/>
	<path fill="#1A1A22" d="M12.3506346,1.2618033c0.186018,0.0208782,0.3993311-0.0548458,0.5398245,0.1271365
		c0.0319395,0.0221001,0.0476503,0.0479147,0.0471439,0.0774441c-0.0005388,0.0313864-0.0048475,0.0470798-0.0125971,0.0470529
		c-0.0348177,0.0364518-0.0760527,0.0656242-0.1233149,0.0873121c-0.093935,0.0394983-0.1828985,0.0867958-0.2605448,0.1511605
		c-0.0616217,0.0497298-0.130065,0.0893307-0.2028971,0.1234328c-0.2094679,0.0855205-0.3640299,0.2348899-0.5255871,0.3757492
		c-0.0602922,0.0532303-0.1262684,0.0997558-0.1993504,0.137244c-0.050211,0.0198915-0.1031399,0.0301371-0.1579399,0.0309985
		c-0.1227064-0.0260198-0.2743788,0.0291903-0.3611794-0.1032579c-0.0143986-0.0758421-0.0011024-0.1444733,0.0634232-0.1994903
		C11.4610157,1.7219958,11.8417482,1.4173616,12.3506346,1.2618033z"/>
	<path fill="#282827" d="M11.1576157,2.1165855c-0.0006771,0.0805366-0.0013523,0.1610734-0.0020294,0.2416101
		c0.151783,0.1123128-0.2119923,0.2768762,0.0473642,0.3799324c0.0226774,0.0479908,0.0328426,0.0963085,0.0305824,0.1480289
		c-0.0684586,0.2184277-0.1885719,0.4000182-0.4193153,0.5047109c-0.0592756,0.010071-0.1181746,0.0069778-0.1762438-0.0082171
		C10.507472,3.3127329,10.4106512,3.21544,10.3546476,3.0857472c0.0092201-0.0761831,0.0184412-0.1523669,0.0278358-0.2285089
		C10.6409779,2.6103816,10.8992968,2.3634837,11.1576157,2.1165855z"/>
	<path fill="#141423" d="M10.3546476,3.0857472c0.1707258,0.0070105,0.2651157,0.0834901,0.2667933,0.2443409
		c0.1204367,0.2089145-0.0609264,0.3585207-0.1234951,0.5319176c-0.0671606,0.122263-0.1290665,0.2473865-0.2203836,0.3575702
		c-0.0910616,0.0762348-0.1815147,0.1559477-0.3194046,0.084537C9.957222,4.2636862,9.9562922,4.2232585,9.9553671,4.1828308
		C9.8464203,4.0607677,9.8613462,3.9397147,9.9589243,3.8193359C10.0173149,3.5417535,10.1453352,3.2954762,10.3546476,3.0857472z"
		/>
	<path fill="#222222" d="M9.9589243,3.8193359C9.9577599,3.9405041,9.9565954,4.0616717,9.9553986,4.1828356
		c-0.0864162,0.0002499-0.1728001,0.000505-0.2591343,0.0007639C9.6944761,4.0084796,9.7823753,3.8872747,9.9589243,3.8193359z"/>
	<path fill="#303030" d="M12.503912,1.6601555c0.0319605-0.1227676,0.1363335-0.1445771,0.2519989-0.1506423
		c0.1373062,0.0871023,0.2711191,0.1779714,0.4003468,0.3163462c-0.0982237-0.1229503-0.2179022-0.1957207-0.2668858-0.3177825
		c0.000042-0.0397344,0.0003881-0.0794667,0.0010624-0.1191669c0.0437202-0.0013478,0.0874252-0.0023493,0.1311407-0.0029747
		c0.1503038-0.1309485,0.3618021-0.149823,0.5329771-0.2425479l-0.0001078,0.000077
		c0.184247-0.1680353,0.4480352-0.1540393,0.6668892-0.2428768c0.1937914,0.0191988,0.3662977-0.0387737,0.5317736-0.1222379
		c0.1998262-0.142889,0.4678726,0.0273473,0.6665049-0.1210234l-0.0002642,0.0001255
		c0.3994532-0.0941201,0.7988758-0.0948217,1.1982613,0.0003542c0.7515831,0.2114112,1.5410957,0.3050531,2.2633286,0.6075855
		c0.418108,0.2082206,0.8069515,0.4618679,1.2317657,0.6599374c0.2689476,0.1864423,0.5008259,0.4070455,0.7130852,0.6457785
		c0.2568188,0.3688738,0.5252094,0.7309213,0.7997837,1.0892532c0.1210041,0.1882379,0.2730865,0.3627145,0.3191681,0.5850036
		c0.0242081,0.1592908,0.0675316,0.3144159,0.1284981,0.465632c0.0021095,0.0268068,0.0036221,0.0536723,0.0051346,0.0805373
		c0.0996037,0.9801493,0.264101,1.9565363,0.003252,2.9413815c-0.2608719,0.9849138-0.822403,1.8175507-1.4880371,2.6045818
		c-0.2696934,0.318882-0.5612621,0.3892717-0.8584232,0.0321894c-0.2056847-0.2471628-0.6821918-0.3558445-0.1624451-0.8391638
		c2.0860062-1.9397874,1.6847687-5.3198419-0.7680225-6.8052063c-0.3415756-0.206851-0.7459507-0.3272705-1.1212559-0.4877007
		c-0.6970997-0.1794958-1.3855247-0.4222418-2.1317291-0.243625l0.0004206-0.0002352
		c-0.3916264,0.1165688-0.8388996,0.0038217-1.2008076,0.2428596c-0.3009577,0.1128821-0.5954819,0.24614-0.9323397,0.2452943
		C12.8665113,2.4376481,12.7681379,1.9719392,12.503912,1.6601555z"/>
	<path fill="#FDFB00" d="M12.503912,1.6601554c0.460783,0.1293498,0.51334,0.6375741,0.9150667,0.8217469
		c-0.0965605,0.1181571-0.1931267,0.2363081-0.2896938,0.3544593c-0.3181267,0.3513196-0.6416359,0.6978486-1.0423632,0.975616
		c-1.2384558,1.4647987-1.2361012,3.7226312,0.0054588,5.2341032c0.2591038,0.1265793,0.400794,0.3493376,0.5685606,0.5561895
		c0.240696,0.2967739,0.1767969,0.5043602-0.1736603,0.6604052c-0.2705297,0.1811352-0.4707403,0.5279732-0.9061794,0.3205032
		c-0.0582323-0.0213518-0.1060963-0.055233-0.1458988-0.0991335c-0.1742039-0.2655678-0.450222-0.4552965-0.6397409-0.7100658
		c-0.2496138-0.4054317-0.4582882-0.8300695-0.7030296-1.2385406c-0.0931044-0.1760187-0.157959-0.359046-0.1768312-0.5546627
		C9.739913,6.9183941,9.6506023,5.8584285,10.010623,4.8104463c0.0152645-0.1574764,0.0484152-0.3113036,0.1296892-0.4530878
		c0.1397648-0.1580296,0.221467-0.3443804,0.3031197-0.530494c0.1263294-0.1534514,0.1695156-0.3526669,0.3225927-0.4917657
		c0.1312456-0.1626046,0.2624903-0.3252096,0.3937359-0.4878139c0.1017923-0.1826489,0.2060661-0.3636091,0.3966084-0.4858785
		c0.0453377-0.0399938,0.0906754-0.0799868,0.1360121-0.1199806c0.2421513-0.1393733,0.4188671-0.3533909,0.6662579-0.486788
		C12.4070625,1.7231437,12.4554873,1.6916497,12.503912,1.6601554z"/>
	<path fill="#FAF901" d="M13.4264174,6.9837718c0.1535149-0.5383191,0.7961235-0.7841735,0.9490852-1.3228226
		c0.0005531-0.0265999,0.0011063-0.0531998,0.0012846-0.0799055c0.0634623-0.1538296,0.1752119-0.2750182,0.3094149-0.3811798
		c0.0268517-0.0103464,0.0540171-0.0202637,0.0811853-0.0301809c0.1519966-0.1702671,0.3465052-0.3217998,0.4482403-0.5142145
		c0.3431797-0.6490731,0.9846706-0.54703,1.5543556-0.4917383c0.4547005,0.0441308,0.0900497,0.315661,0.0597439,0.4890461
		c0.0220737,0.0566683,0.0282841,0.1149073,0.0214291,0.1745191c-0.3852463,0.6348972-0.9330711,1.1691709-1.3321095,1.792913
		c0.2274971,0.3516488,0.2956285,0.1053367,0.3914614-0.0799761c0.2687693-0.5197191,0.689971-0.6778274,1.258584-0.5453553
		c0.5481396,0.1277018,0.2127495,0.7274947,0.5437527,0.8549829c0.3590927,0.1383076,0.6683826,0.1556635,0.6532001,0.6340585
		c-0.0134926,0.4252515-0.1287251,0.6938992-0.603817,0.778513c-0.0607224,0.0254278-0.146822,0.0540876-0.1518078,0.106822
		c-0.0487728,0.5160122-0.3685284,0.6412153-0.8994846,0.6297979c-0.4777088-0.0102711-0.7509241-0.1163607-0.7934179-0.5858536
		c-0.023015-0.254281-0.2673731-0.2852402-0.5005884-0.2899599c-0.4405375-0.008914-0.8812647,0.0033617-1.3216486-0.0071011
		C13.2069521,8.0950346,12.9977608,7.7381945,13.4264174,6.9837718z"/>
	<path fill="#202021" d="M20.7454224,2.6028731c-0.2728367-0.1556053-0.4940529-0.3583872-0.6653748-0.6067729
		c-0.0796661-0.0656048-0.1347828-0.1422616-0.1322575-0.2448664c0.0003986-0.0416622,0.0007954-0.0833244,0.0011959-0.1249866
		c0.4209232-0.2115755,0.5469761,0.30814,0.8874722,0.296158c0.2022591,0.03083,0.405386,0.048219,0.6103535,0.0516627
		c0.1237259,0.0071024,0.2433414,0.0266906,0.3475037,0.0937067c0.1451569,0.2024758,0.0515938,0.433511,0.0941219,0.6487741
		c-0.1059532,0.4592195,0.3845978,0.676919,0.5076637,1.042804c0.0010548,0.1908677,0.0220375,0.3816829,0.0198326,0.5734544
		c-0.0310669,0.1662955-0.05019,0.3372664-0.2033882,0.4582448c-0.0447197,0.0001578-0.0894394,0.0003161-0.1341648,0.0004783
		c-0.0000076,0.0000033,0.000061,0.0002151,0.000061,0.0002151c-0.1411457-0.1383104-0.1646614-0.3300333-0.2652016-0.4867821
		c-0.0889912-0.2028079-0.1779823-0.4056156-0.2669754-0.608423C21.2984428,3.320312,21.0479107,2.9457383,20.7454224,2.6028731z"/>
	<path fill="#DBDB05" d="M24.161417,4.6508336c-0.0343151,0.0362391-0.0686321,0.0724778-0.1029549,0.1086979
		c-0.1021671,0.16611-0.2043209,0.3322387-0.3065166,0.4983568c-0.1182899,0.1998467-0.2365417,0.3997035-0.3548031,0.5995336
		c-0.0878696,0.1048479-0.175724,0.209722-0.300211,0.3583245c-0.2142773-0.3653769-0.09519-0.7659531-0.3263493-1.0683408
		c-0.4193649-0.6281838-0.3334064-0.8219905,0.4155388-0.8800392c0.2425232-0.0187974,0.4701843-0.0842214,0.7065639-0.1180305
		c0.154129-0.0220456,0.3159618-0.0352087,0.4122257,0.1058578C24.4244099,4.4303122,24.318409,4.5516891,24.161417,4.6508336z"/>
	<path fill="#878614" d="M13.4264174,6.9837718c-0.0313377,0.1363864-0.0718727,0.2716379-0.0922537,0.4093757
		c-0.0568628,0.3842492,0.0527353,0.6163282,0.5580873,0.588263c0.5484419-0.0304585,1.1004829-0.0033612,1.6508369-0.0098157
		c0.3970814-0.0046563,0.6524458,0.1152611,0.5879927,0.5267057c-0.0609283,0.3889351,0.1913662,0.4449787,0.5189362,0.417079
		c0.3171349-0.027009,0.7628021,0.1412897,0.7543335-0.4051323c-0.0029163-0.1881027-0.0738354-0.4315042,0.282238-0.4319429
		c0.0313473,0.0539875,0.0414963,0.1111135,0.0308304,0.1713524c-0.2140789,0.2298107,0.0558987,0.6122866-0.3010101,0.7972441
		c-0.4424572-0.0004873-0.8849106-0.0009737-1.3273678-0.0014601c-0.3025436-0.10921-0.1154709-0.4274063-0.3009396-0.5867929
		c-0.4007559-0.2545881-0.8562136-0.0928631-1.2835722-0.1428623c-0.3598709-0.0421038-0.7500906,0.1171169-1.0786667-0.1337414
		C13.1045952,7.7824955,12.973815,7.3830214,13.4264174,6.9837718z"/>
	<path fill="#37371E" d="M17.672905,8.1875143c0.0143738-0.0353842,0.0189323-0.0717916,0.0136795-0.1092157
		c0.2995453-0.0123463,0.6008396-0.021904,0.5618553-0.416142c-0.0291901-0.2951727,0.1463718-0.694932-0.4548435-0.6834102
		c-0.2421989,0.0046411-0.3702812-0.1472149-0.3426933-0.3599772c0.0765247-0.5902052-0.3828564-0.4447708-0.7374172-0.4752078
		c-0.4075813-0.0349903-0.6496716,0.0512667-0.5860977,0.487287c0.0311146,0.2133904-0.0913372,0.3521738-0.3423271,0.3520579
		c-0.1944971-0.0000901-0.4399147,0.0935664-0.5705137-0.0570393c-0.1674109-0.1930523,0.0624456-0.3204684,0.1959839-0.4478722
		c0.0819273,0.0839033,0.0957928,0.1700239,0.0101385,0.2593861c0.1217842,0.003408,0.1917362-0.0741677,0.2510452-0.1501408
		c0.1800804-0.2306905,0.1532583-0.5927591,0.5338955-0.6981945c0.4069214,0.0017395,0.8226776-0.0818076,1.20784,0.110292
		c0.2469807,0.098,0.2827206,0.2957506,0.2877998,0.5079765c0.0629253,0.0750766,0.0615215,0.1484847-0.0068512,0.2201562
		c0.6758804,0.1146388,0.903986,0.4880905,0.7906246,1.0907164c-0.0446186,0.2371778-0.1625576,0.3613892-0.4129829,0.3951731
		c-0.1033249,0.0848827-0.2171383,0.0879574-0.3380775,0.0362921C17.7135506,8.2290611,17.6932278,8.2082872,17.672905,8.1875143z"
		/>
	<path fill="#1E1E21" d="M12.0869217,3.8119776c0.2364035-0.4241002,0.5875168-0.7460499,1.0423737-0.9756129
		c0.1245222,0.0198221,0.2900572-0.027369,0.3543453,0.1019821c0.0676146,0.1360533-0.062253,0.2387295-0.1694784,0.2919481
		c-0.7685652,0.3814533-1.1035576,1.0556557-1.4356451,1.8016088c-0.1210537-0.243083-0.1638956-0.4283466-0.0431242-0.6190982
		C11.9548626,4.2241092,12.1410732,4.0606174,12.0869217,3.8119776z"/>
	<path fill="#232321" d="M24.161417,4.6508346c0.1260662-0.244545,0.2737045-0.5001478-0.2548161-0.3476825
		c-0.1452789,0.0419102-0.3044796,0.1177816-0.4417839,0.0961251c-0.7175465-0.1131763-0.9238319,0.1422-0.6942425,0.7481298
		c-0.052803,0.0028291-0.1056137,0.0056601-0.1584244,0.0084915c-0.1068516-0.2786045-0.4590282-0.4927783-0.2677517-0.8496819
		c-0.064127-0.1626515-0.2426796-0.325454,0.0007744-0.4876986c0.0237961-0.0152023,0.0475883-0.0304043,0.0712032-0.0457048
		c0.0584202,0.00878,0.1069736,0.0338624,0.1460991,0.0740108c0.0814724,0.1123674,0.1892757,0.1838489,0.3449516,0.1802411
		c0.3712158,0.0057774,0.7421799,0.0209417,1.0974655-0.105911c0.1597004-0.0438187,0.3203869-0.1026506,0.4715137,0.0188432
		c0.2541962,0.2028973,0.0928879,0.4057815-0.0000267,0.6086757C24.3713913,4.5827322,24.2664032,4.6167831,24.161417,4.6508346z"/>
	<path fill="#131323" d="M16.0859509,6.0100484c-0.1269264,0.1744661-0.1307278,0.3746109-0.1580801,0.5735078
		c-0.0259314,0.1885805-0.1859751,0.2708764-0.3799171,0.2586036c-0.3356524-0.0212426-0.0548325-0.2532172-0.1374226-0.3641639
		c0.4479485-0.5622053,0.8958979-1.1244106,1.3438463-1.6866159c0.1577778-0.0852904,0.2668762-0.0821476,0.2654419,0.1217856
		c-0.1801071,0.2650862-0.4429111,0.4977279-0.4002113,0.850225C16.3722019,5.7202473,16.2337379,5.8735542,16.0859509,6.0100484z"
		/>
	<path fill="#0F0F24" d="M11.5653057,10.5064344c0.0333519,0.0207748,0.0386143,0.0463629,0.0157919,0.0767536
		c0.0808659,0.3498411,0.3681679,0.5572386,0.641222,0.7744675c-0.2894316,0.2589064-0.4421539-0.2385664-0.7086411-0.1067371
		c-0.1717405-0.0723-0.2940044-0.1894913-0.3749247-0.3442135c-0.0239058-0.2398138-0.2926598-0.1658735-0.4204464-0.2732954
		c-0.1063147-0.2205305-0.0173159-0.4055996,0.12537-0.5810843C11.2284956,10.0119734,11.3561029,10.3132477,11.5653057,10.5064344z
		"/>
	<path fill="#040425" d="M13.4258623,8.182044c0.6418324-0.0013113,1.2836637-0.0024872,1.9254951-0.0039997
		c0.2424726-0.0005713,0.5019598-0.0344238,0.5909357,0.2578516c-0.0277166,0.0533648-0.0697794,0.0938511-0.128541,0.1193476
		c-0.6827583-0.197649-1.3860931-0.0852823-2.0799627-0.1161165C13.5585499,8.4313402,13.2840805,8.5111017,13.4258623,8.182044z"/>
	<path fill="#191922" d="M22.3443985,4.3062167c-0.0780201,0.3271565,0.3456841,0.5225477,0.267746,0.8496833
		c0.0810318,0.366436,0.1620617,0.732873,0.2661381,1.2035565c-0.5970592-0.4716234-0.3697147-1.1107712-0.665741-1.5684032
		C22.2311211,4.6236882,22.1497879,4.4336801,22.3443985,4.3062167z"/>
	<path fill="#0F0F24" d="M16.0859509,6.0100484c0.0659752-0.2839861,0.1321144-0.5676742,0.533638-0.2466521
		c0.2202568,0.0000415,0.4405136,0.0017033,0.6607285-0.0003147c0.2203007-0.0020189,0.1856995,0.1121807,0.1331654,0.2363386
		C16.9709492,6.0029073,16.52845,6.0064774,16.0859509,6.0100484z"/>
	<path fill="#1F1F22" d="M14.3755026,5.6609492c-0.2677555,0.0593071-0.5092707,0.0376039-0.260191-0.2614365
		c0.2426615-0.2913318,0.3990545-0.6563768,0.7713966-0.8514595c0.0402784,0.0270319,0.0536261,0.0539908,0.040143,0.0809188
		c-0.0134525,0.026866-0.0269079,0.0403194-0.0404663,0.0403194c-0.0396729,0.1667852-0.0793476,0.3335695-0.11901,0.5003729
		c0.0000124,0.0000186,0.0039625-0.0076632,0.0039625-0.0076632c-0.1464806,0.158658-0.3182631,0.3004436-0.401247,0.5014482
		L14.3755026,5.6609492z"/>
	<path fill="#212121" d="M15.551712,1.9939905c0.7563381-0.2525169,1.4524899-0.0661155,2.1317291,0.243625
		C16.9644833,2.217526,16.2840538,1.9164695,15.551712,1.9939905z"/>
	<path fill="#040425" d="M16.2128048,9.2031279c0.3631134,0,0.7262287,0,1.2190361,0
		c-0.4848309,0.3166876-0.8545952,0.1902924-1.2210426,0.1506329C16.2114677,9.3035498,16.2121353,9.2533379,16.2128048,9.2031279z"
		/>
	<path fill="#2C2C20" d="M12.4872808,10.2626753c0.3001423-0.2830572,0.3040075-0.534936-0.0660172-0.7812147
		c-0.1556797-0.1036139-0.2816839-0.2510157-0.3288832-0.43538c0.0450592-0.0016108,0.0901175-0.0032225,0.1351767-0.0048323
		c0.3217611,0.0312204,0.4136391,0.2706013,0.5299892,0.4878216c0.1251831,0.1898527,0.1507998,0.3974066,0.1307621,0.6130753
		c-0.0743113,0.0650692-0.11096,0.1937571-0.2619753,0.1292639C12.5799818,10.2684984,12.5336323,10.2655869,12.4872808,10.2626753z
		"/>
	<path fill="#0E0E24" d="M12.7575464,9.5290699c-0.2603045-0.086833-0.3437519-0.3338661-0.5300322-0.4877682
		c-0.0270901-0.101018-0.1841335-0.1964598-0.0155516-0.3057461C12.4059353,8.9931202,12.9025297,9.0772696,12.7575464,9.5290699z"
		/>
	<ellipse fill="#020225" cx="16.2839298" cy="3.8779926" rx="0.835825" ry="0.0401191"/>
	<path fill="#121323" d="M12.6263332,10.27141c0.0873251-0.0430918,0.1746521-0.0861845,0.2619753-0.1292706
		c-0.0416622,0.2903099-0.2480555,0.460577-0.5661907,0.7249689C12.3156605,10.5115919,12.5671282,10.4355135,12.6263332,10.27141z"
		/>
	<path fill="#212121" d="M14.351325,2.2366149c0.3352728-0.3488129,0.7876053-0.2151947,1.2008076-0.2428527
		C15.1780567,2.1826518,14.7516804,2.1560156,14.351325,2.2366149z"/>
	<path fill="#202021" d="M17.1507339,4.5483303c0.0691204-0.1748195,0.1382408-0.3496389,0.2344933-0.5930743
		c0.178978,0.2874498,0.3120975,0.4875221-0.1012154,0.5927234C17.2397213,4.5911975,17.1952972,4.5913124,17.1507339,4.5483303z"/>
	<ellipse fill="#111223" cx="12.9553604" cy="7.5271649" rx="0.0463705" ry="0.5975963"/>
	<path fill="#37371E" d="M17.4164085,9.0468998c0.271143-0.2402439,0.0002041-0.6153955,0.2565441-0.8593473
		c-0.0000477-0.0000381,0.0419712,0.0383148,0.0419712,0.0383148c0.0517597,0.0736361,0.0441551,0.1419687-0.021986,0.2050705
		C17.6247349,8.6452274,17.8526344,8.9703112,17.4164085,9.0468998z"/>
	<path fill="#030325" d="M17.6943989,6.7274704c0.0021763-0.0734658,0.0043488-0.1469312,0.0066872-0.2202768
		c0.1531639,0.0145049,0.4191036-0.086256,0.4165745,0.1116323C18.1150856,6.8201928,17.846714,6.705112,17.6943989,6.7274704z"/>
	<path fill="#1B1C22" d="M17.1507339,4.5483308c0.0444241-0.0001173,0.08885-0.0002337,0.133276-0.000351
		c-0.0001945,0.1747313-0.0892792,0.2958574-0.2642212,0.3651853c-0.0573101-0.0971632-0.1555786-0.1199794-0.2654114-0.1217852
		c-0.0423603-0.0768294-0.0002174-0.1153202,0.0753994-0.1385999C16.9367294,4.6179614,17.0437317,4.5831466,17.1507339,4.5483308z"
		/>
	<path fill="#030326" d="M17.6929398,8.4309378c0.0072098-0.0684748,0.0144196-0.1369476,0.0218048-0.205246
		c0.1192684-0.0040913,0.2383595-0.008357,0.3573723-0.0124779C18.1932487,8.6454105,17.8171101,8.3552217,17.6929398,8.4309378z"/>
	<path fill="#050425" d="M14.886385,4.6692915c0.000988-0.040411,0.001092-0.0808239,0.0003176-0.1212382
		c0.1083097-0.1322627,0.2166138-0.2645268,0.3591843-0.4386382C15.2991734,4.4473753,15.0789843,4.549964,14.886385,4.6692915z"/>
	<path fill="#32321F" d="M15.8137522,8.5552435c0.0428658-0.0397787,0.0857296-0.0795593,0.1285677-0.1193438
		c0.0094547,0.2110901,0.0003996,0.4259014,0.1466961,0.6095495C15.7210903,9.0113115,15.8521652,8.7436132,15.8137522,8.5552435z"
		/>
	<path fill="#0B0C23" d="M13.8186493,6.1831312c-0.1155109-0.0465927-0.0988998-0.1052766-0.0686655-0.1589441
		c0.0295935-0.0525303,0.0608225-0.1283698,0.1094418-0.1426735c0.0899696-0.0264683,0.090559,0.0606337,0.0742836,0.1051927
		C13.9079704,6.057169,13.857111,6.1199822,13.8186493,6.1831312z"/>
	<path fill="#252520" d="M9.2738657,9.3031197c0.4020786-0.0298347,0.5068302,0.3692217,0.8169565,0.4720268
		c0.122715,0.0596199,0.1861801,0.1611786,0.2344046,0.2739601c0.099906,0.331111,0.060216,0.6408739-0.1717596,0.9207935
		c-0.0572271,0.0691233-0.1225824,0.1303606-0.2100725,0.1679497c-0.0654783,0.0135021-0.1159077-0.0061922-0.1508741-0.0588884
		C10.1878138,10.3487091,9.911931,9.7818336,9.2738657,9.3031197z"/>
	<path fill="#222222" d="M9.5627499,11.4803429c-0.8688765,0.3905926-1.2483521,0.3589525-1.7244964-0.1438389
		c0.7315764,0.421093,1.3703332,0.2551479,1.9542727-0.257535c0.0144749,0.017622,0.0296726,0.0347223,0.0455866,0.0512915
		C9.9006681,11.3481359,9.6828728,11.382225,9.5627499,11.4803429z"/>
	<path fill="#252520" d="M10.7661924,10.6192198c0.2089005,0.0043058,0.4072514,0.0200071,0.3725681,0.2874651
		c-0.5812607-0.2655296-0.363308,0.3728647-0.6293859,0.4637957c-0.0239639-0.0203838-0.0479288-0.0407667-0.0719366-0.0611277
		c-0.0052643-0.1484671-0.0929794-0.292614-0.0291319-0.4451809C10.487545,10.7340918,10.5405378,10.5710621,10.7661924,10.6192198z
		"/>
	<path fill="#1F1F21" d="M10.1081858,11.7505579c0.083024-0.1312704,0.166049-0.2625408,0.249073-0.3938112
		c0.0274925-0.0440083,0.0624857-0.0497189,0.1049776-0.0171337c0,0,0.0471334,0.0308647,0.0471354,0.0308657
		C10.4513121,11.5637407,10.3175154,11.6903744,10.1081858,11.7505579z"/>
	<path fill="#1F1F21" d="M10.7661924,10.6192198c-0.0921116,0.0839729-0.1842241,0.1679449-0.2763357,0.2519178
		c-0.1903448,0.0177517-0.1878452-0.101367-0.1998968-0.2227221c-0.0207977-0.2094517,0.0710201-0.4290018-0.0650826-0.6282387
		c-0.1079245-0.052824-0.1302853-0.1446667-0.1340485-0.2450104c-0.0440092-0.1213531-0.0880136-0.2426853-0.1320171-0.3640175
		c0.113842-0.1757507-0.2274818-0.3527851,0.001709-0.5285444c0.0830135-0.0468597,0.1726933-0.059166,0.267787-0.0437508
		c0.2733049,0.1264,0.2936316,0.4049377,0.4384079,0.6084089c0.0003643,0.1891966,0.1039953,0.3426266,0.2091169,0.4955683
		c0.005022,0.0252647,0.0097523,0.0505981,0.0144835,0.0759325C10.8489418,10.2189159,10.8075666,10.4190674,10.7661924,10.6192198z
		"/>
	<path fill="#252520" d="M9.9579153,8.925766c-0.0484228,0.1618757,0.2401562,0.3232431,0.0008869,0.4853945
		C9.8243599,9.1689281,9.4868555,9.0206356,9.5554934,8.6844711c0.0466852-0.0906343,0.1021185-0.1724386,0.2252188-0.1861954
		C10.0878611,8.5549564,10.1039362,8.7123785,9.9579153,8.925766z"/>
	<path fill="#262620" d="M9.6943064,8.556591C9.6480579,8.5991993,9.6018095,8.6418076,9.5555267,8.6844435
		c-0.1815462-0.0152922-0.3813534,0.044301-0.5294371-0.1076107c0.2866869-0.0013151,0.5858021,0.0118656,0.537364-0.3821325
		C9.8511124,8.241787,9.7939672,8.3927832,9.6943064,8.556591z"/>
	<path fill="#121223" d="M9.6943064,8.556591c-0.0043879-0.1324682,0.0197172-0.27353-0.1309004-0.361887
		C9.3524723,7.9866772,9.5301962,7.6627436,9.3006773,7.4602489C9.2013636,7.3942332,9.1732445,7.2982941,9.1660309,7.1935873
		c0.0004826-0.2001114-0.0427866-0.4082179,0.125083-0.5782218c0.3077803-0.3098235-0.1030092-0.8368521,0.3950176-1.08917
		c0.2598429,0.3075423,0.1024952,0.6639204,0.1335888,0.9970627C9.8553267,6.9047427,9.7772169,7.2930341,9.896203,7.6699734
		C9.943984,7.7891002,9.9522753,7.9173269,9.9913397,8.038394c0.0199137,0.1767664,0.0930624,0.3393211,0.1676121,0.5013981
		c0.0522375,0.1240606,0.2194662,0.2324638,0.0635386,0.3851757c-0.088191,0.0002642-0.1763821,0.0005293-0.2645741,0.0007963
		C9.9601307,8.7490959,9.9586945,8.5745993,9.6943064,8.556591z"/>
	<path fill="#757514" d="M9.9431028,8.0914793C9.8939133,8.0033035,9.8447227,7.9151282,9.7955322,7.8269529
		C9.8098555,6.814373,9.5837536,5.7916484,9.9490824,4.793879c0.0140581-0.0343876,0.0197792-0.0698943,0.0171633-0.1065211
		c0.0307245-0.0803542,0.0730629-0.0858269,0.127017-0.0164204c-0.168025,1.1347742-0.2154074,2.2697167-0.0056963,3.4050169
		C10.0460377,8.1325169,9.9978838,8.1376915,9.9431028,8.0914793z"/>
	<path fill="#252420" d="M9.9490824,4.793879C9.7577419,5.7277517,9.7166367,6.6641493,9.877737,7.6061993
		c0.0116386,0.0680566-0.0529032,0.1469736-0.0821152,0.2207971c-0.2317905-0.759274-0.0496864-1.5348835-0.1094265-2.3008618
		C9.6839867,5.255218,9.6968546,4.9887323,9.9490824,4.793879z"/>
	<path fill="#7D7C14" d="M9.2842197,7.2364802c0.0054617,0.0746055,0.0109234,0.1492114,0.0164213,0.2237926
		C9.2814646,7.5885925,9.3433304,7.7341394,9.204752,7.8371468C9.0112963,7.6371427,9.0755024,7.3921261,9.0527964,7.1592016
		C9.0337009,6.9633169,9.150322,6.6941209,8.7882109,6.6378427C8.8229427,6.5841999,8.8576727,6.5305538,8.8924017,6.476861
		c0.0847626,0.0159125,0.1695251,0.0318718,0.2542257,0.0479975c0.0005655,0.0319343,0.0089493,0.061892,0.0250902,0.0900402
		C9.3001928,6.8083696,9.1424141,7.0450206,9.2842197,7.2364802z"/>
	<path fill="#252420" d="M10.0932627,4.6709375L10.0284538,4.670856c0,0-0.0623188,0.0162482-0.0622635,0.0163751
		C9.9635477,4.5596151,9.9608507,4.4318728,9.9581556,4.304122c0.0801096-0.0440078,0.1602163-0.088007,0.2403221-0.1320062
		c0.0838537,0.0326238,0.0946102,0.079288,0.0322638,0.1399941C10.1849146,4.4317193,10.1390886,4.5513282,10.0932627,4.6709375z"/>
	<path fill="#222222" d="M9.2842197,7.2364802C9.1276836,7.0472584,9.1928549,6.824553,9.1716518,6.6149006
		c0.0398712,0.0001855,0.0796785,0.0003395,0.1194744,0.000463C9.2888165,6.8224034,9.2865191,7.0294423,9.2842197,7.2364802z"/>
	<path fill="#222222" d="M8.4929705,6.8585348c0.0818644-0.0003662,0.1637278-0.0007329,0.2455912-0.0010991
		C8.7385559,7.1257911,8.5566921,7.2978711,8.3558664,7.4599113C8.4015675,7.2594519,8.4472685,7.0589933,8.4929705,6.8585348z"/>
	<path fill="#151523" d="M10.2248774,10.0201769c0.3023033,0.2281199-0.0358515,0.622468,0.2649889,0.8509636
		c-0.0090714,0.1562281-0.0181332,0.312459-0.0274124,0.4685812c-0.0343351,0.0100508-0.0693245,0.0157681-0.1051903,0.0170355
		c-0.2949543-0.1386118-0.2762127,0.1499081-0.3997688,0.2446918c-0.0886164-0.0001936-0.1772251-0.0003939-0.2658329-0.0005932
		c-0.0001068-0.040535-0.0002155-0.0810699-0.0003252-0.1216059c0.0486717-0.1811209,0.3401709-0.243515,0.280261-0.4777269
		C10.2358971,10.7130995,10.2525616,10.3714085,10.2248774,10.0201769z"/>
	<path fill="#101023" d="M9.9715977,11.001523c0.2015705,0.3034716-0.1236734,0.3493662-0.2802563,0.4777269
		c-0.0429029,0.0000544-0.0857973,0.0004091-0.1286392,0.0010805c0.0917988-0.1167393,0.1835499-0.2334909,0.2753553-0.3501558
		C9.8826075,11.087348,9.9271021,11.0444345,9.9715977,11.001523z"/>
	<path fill="#FAF901" d="M22.3780594,1.5331707c1.1213112-0.5041672,2.072401-0.1343213,2.1114235,0.8210602
		c0.0376225,0.921067-0.7303467,1.4567015-1.6997738,1.1860499c-0.1029758-0.0287488-0.2071743-0.0538464-0.3108025-0.0806375
		c-0.2098331,0.0513804-0.2983093-0.0788343-0.384304-0.2131052c-0.284481-0.5634968-0.4250507-1.1193926,0.1111317-1.637174
		C22.2564697,1.5715342,22.3141174,1.5463486,22.3780594,1.5331707z"/>
	<path fill="#DEDD05" d="M20.1015892,1.3792037c-0.0177307-0.2983333-0.6187-0.2975587-0.4688034-0.5642172
		c0.156004-0.2775137,0.5647106-0.0312463,0.8613586-0.066215c0.3920021-0.0462095,0.7971821,0.0536925,1.1850243-0.0752147
		c0.3439178,0.0562794,0.3467922,0.0621524,0.2342968,0.4758012c-0.0527592,0.1081485-0.1192951,0.2086747-0.2052593,0.297904
		c-0.6131592,0.6115828-0.6131592,0.6115828-1.3606911,0.1778171C20.2380657,1.5659698,20.1207199,1.5134215,20.1015892,1.3792037z"
		/>
	<path fill="#1D1D22" d="M21.6683636,1.3500332c0.0263996-0.0734367,0.0527992-0.1468737,0.0791988-0.2203108
		c0.1926117-0.0754631,0.2680721-0.2809953,0.4664001-0.3501095c0.0892906,0.0811548,0.1785812,0.1623099,0.2678699,0.2434652
		c0.0866547,0.0813975-0.0039558,0.1607025-0.0034142,0.241083c-0.0334663,0.0896528-0.0669308,0.1793058-0.100378,0.2689841
		c0.0000191,0.0000255,0.0008125-0.0020957,0.0008125-0.0020957c-0.2951298,0.1090775-0.3540154,0.4101288-0.5694027,0.5840044
		c-0.1320572,0.000314-0.2641125,0.0006285-0.3961678,0.0009429C21.2466106,1.7908161,21.4780407,1.5761296,21.6683636,1.3500332z"
		/>
	<path fill="#010126" d="M24.066021,4.0545979c-0.4166603,0.2237144-0.8723717,0.1021824-1.3119049,0.1236815
		c0.0868511-0.233814-0.2386341-0.2050118-0.2752476-0.3601923l0.0002232,0.000021
		c-0.0338459-0.1116621,0.0063095-0.1556015,0.1325741-0.1207368c0.5124989,0.2052557,0.9952774,0.1083171,1.4651279-0.1200864
		C24.299078,3.6916494,24.2986107,3.7123439,24.066021,4.0545979z"/>
	<path fill="#191922" d="M22.7450085,0.9002098c0.831028-0.2804253,1.3830166-0.0847113,1.7812271,0.7064959
		c-0.485117-0.3867656-1.0375748-0.5411029-1.654686-0.4722835c0.0953751-0.3404717,0.4462852-0.0515578,0.5892239-0.2029258
		c0.1135464-0.0235069,0.0099239-0.1359001,0.0426083-0.0605245c0.0133114,0.0306966,0.0040302,0.0476788-0.0273457,0.0532582
		C23.2302876,0.9679278,22.9848938,1.0045325,22.7450085,0.9002098z"/>
	<path fill="#191922" d="M22.6116657,3.6973712c-0.0441971,0.0402479-0.0883923,0.0804958-0.1325798,0.1207404
		c-0.044632,0.0001323-0.0892715,0.0002682-0.1339111,0.0004056c-0.2009907-0.3550158-0.8518772-0.5249698-0.5386982-1.0914855
		c0.1776981,0.1324735,0.2566261,0.3348539,0.4109249,0.4838889c0.0871696,0.0829074,0.1743374,0.1658144,0.2615051,0.2487218
		C22.523159,3.5388863,22.5674114,3.6181288,22.6116657,3.6973712z"/>
	<path fill="#060724" d="M21.6794853,0.5399312c-0.6527691,0-1.3055363,0-1.9583054,0
		c0.7395039-0.0756139,1.4809418-0.2664793,2.2146206-0.008534C21.8535004,0.6128266,21.7675705,0.6033394,21.6794853,0.5399312z"/>
	<path fill="#222121" d="M21.6794853,0.5399312c0.0855122-0.0028189,0.1710243-0.0056376,0.2564259-0.008495
		c0.117857-0.0128025,0.2440758-0.1629895,0.3440819-0.0239196c0.0389385,0.0541528-0.040535,0.1792729-0.0660496,0.2720821
		c-0.0288162,0.2570866-0.2487602,0.3020897-0.4662075,0.3500896c0.1052284-0.1680487,0.2882271-0.3458273-0.0685654-0.4561445
		C21.6792774,0.6290148,21.6793804,0.5844732,21.6794853,0.5399312z"/>
	<path fill="#030325" d="M20.1015892,1.3792034c0.0818806,0.044023,0.1637611,0.0880462,0.2456417,0.1320697
		c0.1535721,0.1465369,0.45965,0.1884545,0.3975163,0.4829637c-0.3828239,0.0892962-0.4307156-0.4252033-0.7957726-0.3679516
		c-0.0951118-0.0986929-0.190237-0.1973473-0.2900276-0.3008395C19.829361,1.1822979,19.9504642,1.3975879,20.1015892,1.3792034z"/>
	<path fill="#232321" d="M19.9477901,1.7512338c0.1077614,0.0529385,0.1308403,0.1440099,0.1322689,0.2448463
		c-0.4418907-0.1858572-0.8551598-0.410866-1.1991081-0.7306947C19.2941074,1.3220111,19.6108189,1.5551587,19.9477901,1.7512338z"
		/>
	<path fill="#191922" d="M24.066021,4.0545979c-0.0455837-0.1600492,0.1439362-0.3156688,0.0107822-0.47734
		c0.1342506-0.1147041,0.2320747-0.2752745,0.4941635-0.3132904c-0.0459232,0.2396343-0.2434196,0.4482758-0.0945606,0.6760299
		C24.3396111,3.9781971,24.2028141,4.0163975,24.066021,4.0545979z"/>
	<path fill="#040426" d="M22.7450085,0.9002098c0.2582951,0,0.5165939,0,0.864109,0
		c-0.2633667,0.2087315-0.5750198,0.0250013-0.7375183,0.234288c-0.1310921,0.0431768-0.2621365,0.0864289-0.3931808,0.1296721
		c-0.1479988-0.0821023-0.0095596-0.1608876,0.0033779-0.2411071C22.5695591,0.9821225,22.6572819,0.9411663,22.7450085,0.9002098z"
		/>
	<path fill="#232324" d="M16.617609,0.6578062c-0.3994198-0.0001225-0.7988424-0.000245-1.1982613-0.0003609
		C15.8188372,0.4623093,16.2182579,0.461703,16.617609,0.6578062z"/>
	<path fill="#232324" d="M14.2213335,0.9005876c-0.1862535,0.1634467-0.4320974,0.1905127-0.6668892,0.242874
		C13.6880064,0.8594398,13.9640408,0.901457,14.2213335,0.9005876z"/>
	<path fill="#232324" d="M13.5545521,1.1433874c-0.1358738,0.1573774-0.3216276,0.2234094-0.5329771,0.2425532
		C13.1226654,1.1648552,13.326333,1.1316388,13.5545521,1.1433874z"/>
	<path fill="#232324" d="M15.4196119,0.6573263c-0.1870899,0.2013416-0.4417696,0.0924619-0.6665049,0.1210241
		C14.9398975,0.575618,15.194891,0.6859527,15.4196119,0.6573263z"/>
	<path fill="#262532" d="M12.8893719,1.5080769c0.2580261,0.1683289,0.5178213,0.335294,0.6607447,0.712605
		c-0.4641218-0.1362448-0.5561399-0.4928302-0.79422-0.7111856C12.8003979,1.5090343,12.8448839,1.5085557,12.8893719,1.5080769z"/>
	<path fill="#080825" d="M11.1436014,2.7088072c-0.101964,0.0644214-0.2039289,0.1288428-0.3318987,0.2096951
		c-0.0321951-0.2913797,0.2882681-0.356221,0.3438978-0.5602963c0.0884981-0.0073726,0.1767921-0.1361909,0.2655611-0.0004072
		C11.491972,2.5824442,11.303833,2.63643,11.1436014,2.7088072z"/>
	<path fill="#343431" d="M12.3586388,1.7546382c-0.1936169,0.1947687-0.3434877,0.4394448-0.6662922,0.4867902
		C11.8553858,2.0117674,12.0139351,1.7770286,12.3586388,1.7546382z"/>
	<path fill="#343431" d="M11.1436014,2.7088072c0.0925341-0.1169941,0.1850691-0.233988,0.2775822-0.3509953
		c0.0450516,0.0011721,0.0901251,0.0023568,0.1351919,0.0035679c-0.0313444,0.230629-0.2088461,0.3617916-0.3966341,0.4859233
		C11.1543741,2.8011258,11.1489878,2.7549663,11.1436014,2.7088072z"/>
	<path fill="#313123" d="M10.7660246,3.3350987c-0.029047,0.1895413-0.1344833,0.3449416-0.2628117,0.4901116
		c-0.0515308,0.0550745-0.1004963,0.0505099-0.1472626-0.0052764c0.0885162-0.1632669,0.1770325-0.326534,0.2655201-0.4898236
		C10.6696358,3.3317585,10.7178297,3.3334289,10.7660246,3.3350987z"/>
	<path fill="#393932" d="M10.3559513,3.8199344c0.0490942,0.0017405,0.0981894,0.0034811,0.1472721,0.005249
		c-0.036005,0.187923-0.1388826,0.3446231-0.272501,0.4869518c-0.0106192-0.0466442-0.0212593-0.0932636-0.0320721-0.1399508
		C10.250968,4.0547218,10.3034601,3.9373281,10.3559513,3.8199344z"/>
	<path fill="#232321" d="M20.7454224,2.6028731c0.4142799,0.2746422,0.6763706,0.642163,0.8008404,1.0936701
		C21.1836224,3.3903871,20.9159164,3.026294,20.7454224,2.6028731z"/>
	<path fill="#232321" d="M21.8132401,4.3049631c0.1723938,0.1241174,0.2448807,0.293602,0.2652054,0.4867764
		C21.8375473,4.6987267,21.7993908,4.5136518,21.8132401,4.3049631z"/>
	<path fill="#262620" d="M10.2224903,8.9249678C10.1787176,8.8035984,10.134944,8.68223,10.0911722,8.5608616
		c0.0467005-0.0674191,0.0980797-0.0705318,0.1541357-0.0093441c0.2263165,0.3988104,0.452632,0.7976217,0.6789484,1.1964321
		c-0.0207834,0.0209703-0.0415659,0.0419416-0.0623484,0.0629349c-0.1678705-0.0276308-0.2974348-0.0830688-0.2391405-0.274765
		C10.4895964,9.3322639,10.4378195,9.0839758,10.2224903,8.9249678z"/>
	<path fill="#252520" d="M11.5653057,10.5064335c-0.2249956-0.1625481-0.4499912-0.3250952-0.6749887-0.4876566
		c-0.000001-0.0000134,0.0013695,0.0017157,0.0013695,0.0017157c-0.07442-0.0681973-0.0809593-0.1432228-0.0270815-0.224328
		c0.0203924-0.0155382,0.0402718-0.0316057,0.0596447-0.0482082C11.1915493,9.9630156,11.4588938,10.1780443,11.5653057,10.5064335z
		"/>
	<path fill="#43431C" d="M10.2453079,8.5515175c-0.0513783,0.0031137-0.1027565,0.0062284-0.1541357,0.0093431
		c-0.0493088-0.156517-0.0986176-0.313036-0.1479969-0.4694672c0.0480843-0.0050898,0.096241-0.0102654,0.1443949-0.01544
		C10.1401472,8.2344761,10.1927271,8.3929958,10.2453079,8.5515175z"/>
	<path fill="#212121" d="M14.3700905,5.6634493c-0.01933-0.2691889,0.1620903-0.4045315,0.4011946-0.5014486
		C14.718298,5.3829761,14.5749493,5.5437231,14.3700905,5.6634493z"/>
	<path fill="#232321" d="M22.2174015,3.210921c-0.2233162-0.1002052-0.3878708-0.241982-0.4108582-0.4839232
		c-0.1384449-0.2045293-0.1442585-0.4085424,0.002943-0.6119325c0.0886936-0.2767589,0.1157665-0.6035841,0.5692787-0.5840696
		C21.9273262,2.0591495,21.8747044,2.6192026,22.2174015,3.210921z"/>
	<path fill="#232321" d="M20.7447472,1.9942364c-0.1325035-0.1609894-0.2650089-0.3219782-0.3975163-0.482965
		c0.0609989,0.0134097,0.145401,0.00796,0.1794014,0.0431246c0.3639736,0.3764433,0.6776161,0.478899,0.9159908-0.1030365
		c0.0213547-0.0521247,0.1480045-0.0683002,0.2257442-0.1012487c-0.0850353,0.2552439-0.170063,0.5105653-0.2550907,0.7658862
		C21.178463,2.1302066,20.9514465,2.1087155,20.7447472,1.9942364z"/>
	<path fill="#191922" d="M22.4788685,3.8180871c0.1431713,0.0873337,0.4185982,0.0905218,0.2751465,0.36024
		C22.475275,4.1773739,22.4768448,3.9978747,22.4788685,3.8180871z"/>
	<path fill="#0F0F24" d="M10.8646049,9.7961645c0.0090179,0.0747719,0.0180359,0.1495419,0.0270681,0.2243214
		c-0.1390676-0.1385946-0.5246391-0.1631622-0.2688942-0.484396C10.7033796,9.6228008,10.7839928,9.7094822,10.8646049,9.7961645z"
		/>
</g>
</svg>
