<?xml version="1.0" encoding="utf-8"?>
<!-- Generator: Adobe Illustrator 24.1.1, SVG Export Plug-In . SVG Version: 6.00 Build 0)  -->
<svg version="1.1" id="Слой_1" xmlns="http://www.w3.org/2000/svg" xmlns:xlink="http://www.w3.org/1999/xlink" x="0px" y="0px"
	 viewBox="0 0 32 13" enable-background="new 0 0 32 13" xml:space="preserve" width="32px" height="13px">
<g>
	<path fill="#272726" d="M23.9554844,6.3382077c-0.7115517,1.2395496-1.3368225,2.5300651-2.1543179,3.7070327
		c-1.3169689,1.8960695-3.2521954,2.9038658-5.7277603,2.9175844c-2.4318056,0.0134773-4.8638411,0.0047045-7.2956953-0.0076752
		c-0.9757824-0.0049658-1.8186808-0.2688885-2.2845783-1.1512184c0.0624752-0.0393896,0.1295033-0.0477562,0.2011466-0.0257673
		c0.7918549,0.7415485,1.7759233,0.8430119,2.8500056,0.8260479c2.1952047-0.0346756,4.3918276-0.0180655,6.5878658-0.0135498
		c2.3582993,0.0048494,4.1526642-0.9806852,5.3712902-2.7831221c0.6785011-1.0035505,1.1899033-2.1071153,1.8060913-3.1502891
		c0.3019791-0.0686831,0.2079353-0.3048353,0.2384777-0.4886642c0.3083076-0.6412897,0.5422726-1.3241568,1.1689568-1.7887053
		c0.1125546,0.0004721,0.1774502,0.057332,0.2106133,0.1515927C24.768507,5.2090268,24.2230968,5.7100544,23.9554844,6.3382077z"/>
	<path fill="#252525" d="M6.6336122,11.8001232c-0.0468264,0.0012693-0.0936532,0.0025377-0.1404796,0.0038071
		c-0.6354108-0.7092524-0.6536589-1.4961138-0.2087111-2.2613096c0.9177809-1.578351,1.8567948-3.1474376,2.8971772-4.6618881
		c0.2124491-0.0380754,0.1385231-0.4463577,0.4813881-0.3164673c0.2045937,0.3097892-0.010911,0.6143866-0.0118637,0.921844
		C9.6433144,5.612536,9.6263208,5.737689,9.5936651,5.8607211C9.4822083,6.1644735,9.5309458,6.4788308,9.5235825,6.7892666
		C9.4770489,7.3532538,9.6140251,7.8936906,9.773407,8.4308081c0.0240202,0.1817636,0.1667747,0.3262854,0.1912174,0.5082045
		c0.0131521,0.1608-0.0440769,0.2915287-0.1939125,0.3817921C9.3532333,9.3658972,9.2580376,8.8597975,8.8610678,8.869298
		c-0.183073-0.0234222-0.3714113-0.0132809-0.5476246-0.0757418C8.2573786,8.7673664,8.2119951,8.7298841,8.1786919,8.6805401
		c0.1089039-0.3143711,0.4088507-0.2144489,0.6436796-0.246748c0.1739874-0.0239325,0.4139481-0.0344706,0.3444538-0.2456999
		C9.0197649,7.7410989,9.2198238,7.2186255,8.8162289,6.8325038c-0.0238276-0.031034-0.0398273-0.0650926-0.0474463-0.1016731
		C8.7530737,6.6554046,8.7679272,6.58775,8.8295488,6.5323682C8.7228937,6.5629597,8.7219067,6.6661873,8.6683683,6.7335696
		c-0.1363964,0.172143-0.2013311,0.4007182-0.4480085,0.4844933c-0.3947864,0.0325232-0.3482552,0.395359-0.506814,0.6002946
		C7.5683069,8.0060768,7.473053,8.2318668,7.3601627,8.4434175C6.665421,9.3992748,6.1753054,10.3929853,6.6585474,11.573699
		C6.6890893,11.6483231,6.6742105,11.7276258,6.6336122,11.8001232z"/>
	<path fill="#151423" d="M9.4770575,5.4866195c0.0039015-0.3227758,0.1932058-0.62396,0.1307077-0.9544683
		C9.5166531,4.1212854,10.023385,3.92501,10.0233335,3.5467484c0.0823793-0.1532488,0.1451693-0.3137457,0.2081785-0.4741611
		c-0.0116854-0.0351129-0.0017147-0.0638304,0.0299149-0.0861528c0.1678581-0.101285,0.305707-0.234246,0.4482422-0.3624911
		c0.4039488-0.3127687,0.7855158-0.6456299,1.1056671-1.0345638c0.086607-0.1197798,0.21766-0.1876725,0.3488255-0.2554156
		c0.4888611-0.2020808,0.929491-0.4855007,1.4047556-0.7114809c0.0877924-0.0345674,0.1749916-0.0696175,0.2626534-0.1049525
		c0.4154158-0.1143304,0.8202724-0.2683039,1.2633972-0.2731852c0.3435974-0.0019121,0.7134924-0.1547779,1.0024748,0.1499239
		c0.027092,0.3668668-0.2852345,0.3307273-0.5235071,0.3615362c-0.7477026,0.0966788-1.4724979,0.26039-2.1475143,0.5802869
		c-0.0545349,0.028139-0.1118574,0.0526485-0.1686296,0.0766473c-0.4145107,0.1578032-0.7826796,0.3815916-1.1036568,0.6709245
		c-0.2696362,0.2319641-0.5269709,0.4756634-0.7855625,0.7178378c-0.1622248,0.1370256-0.3026056,0.2867117-0.3391361,0.4973466
		c-0.0699835,0.236897-0.2303982,0.4222612-0.3995771,0.6026933c-0.2585545,0.2114708-0.2756834,0.5635087-0.5292664,0.7780545
		C9.8668489,4.7634044,9.8930721,4.9679608,9.8510828,5.1402397C9.8385105,5.1923823,9.8185844,5.2423592,9.7940559,5.2908125
		C9.7121811,5.3881698,9.674901,5.5486488,9.4770575,5.4866195z"/>
	<path fill="#3A3A3D" d="M15.0282125,0.3594849c-0.4764109-0.1276022-0.8181038,0.3340292-1.2846031,0.2497703
		c-0.0366583-0.0295627-0.0503225-0.0604745-0.0410309-0.0927449c0.0094824-0.0329398,0.0198679-0.0494143,0.0311956-0.0494143
		c0.6506109-0.2857268,1.3477354-0.4182511,2.0568981-0.423117c2.4932022-0.0171069,4.9867554-0.0194894,7.4798985,0.0011853
		c0.8700905,0.0072152,1.6352291,0.2833732,2.1288185,1.0069906c-0.034565,0.0177255-0.0691261,0.0354509-0.103672,0.0534191
		c-0.1809502-0.0066571-0.3308868-0.0878922-0.4685974-0.1827633c-0.5616798-0.3869636-1.2030067-0.4945174-1.8871574-0.5009822
		c-1.8934898-0.0178913-3.7875996-0.036279-5.6800938,0.001413C16.5110855,0.4381548,15.7777367,0.1580526,15.0282125,0.3594849z"/>
	<path fill="#3C3C3B" d="M23.9554844,6.3382077c0.0977554-0.6853299,0.7404652-1.1391129,0.8986912-1.7987494
		c0.0733089-0.2937231,0.2297153-0.5554905,0.3854351-0.8148074c0.4233646-0.7050087,0.4811974-1.4250891,0.1408024-2.1707444
		c-0.066267-0.1451597-0.1419277-0.293746-0.0440483-0.4543569c0.0211258-0.0156633,0.0421333-0.0314605,0.0630226-0.0473932
		c0.64254,0.6733522,0.7960472,1.4627545,0.4174442,2.2569201C25.3102283,4.3717399,24.6689053,5.3769522,23.9554844,6.3382077z"/>
	<path fill="#40403F" d="M13.7337742,0.467096c0.0032587,0.0473386,0.0065174,0.0946772,0.0098057,0.1420878
		c-0.0445957,0.0386661-0.08922,0.0772603-0.1338444,0.1158544c-0.527647,0.1455565-0.9622974,0.4506719-1.4256001,0.7066245
		c-0.0850773,0.0788808-0.1701555,0.1577615-0.2552328,0.2366418c-0.1185913,0.0766114-0.2275133,0.1694864-0.3786545,0.1916562
		c-0.0599136-0.0075665-0.1102295-0.0320251-0.1510029-0.0731771C12.0376997,1.1366904,12.8169527,0.6984136,13.7337742,0.467096z"
		/>
	<path fill="#252529" d="M10.118927,3.5749137c0.061759,0.4245288-0.4247036,0.6000741-0.5111904,0.9572489
		C9.4404736,4.6221066,9.418211,4.8628464,9.1816015,4.8807335c0.2223005-0.3958569,0.444602-0.7917128,0.6669044-1.1875694
		C9.9324923,3.641778,9.9728832,3.505609,10.118927,3.5749137z"/>
	<path fill="#2F2F2F" d="M11.3992453,1.7867838c0.0498276,0.0068897,0.0996552,0.0137795,0.1494827,0.0206692
		c-0.0992451,0.4265102-0.5909147,0.5756301-0.7801151,0.9385551c-0.1766043,0.0665967-0.2829876,0.2591832-0.5071831,0.2404118
		C10.5679693,2.5278876,10.9144068,2.1015182,11.3992453,1.7867838z"/>
	<path fill="#474747" d="M10.118927,3.5749133c-0.0901403,0.0394166-0.1802807,0.0788331-0.270421,0.1182499
		c0.0766554-0.2336235,0.1539726-0.4669003,0.3830023-0.6205623C10.2937679,3.2590487,10.2318735,3.4218466,10.118927,3.5749133z"/>
	<path fill="#212121" d="M6.6336122,11.8001242C5.9153318,10.6175976,6.390522,9.4053049,7.2806249,8.3457241
		c0.0693979-0.0678959,0.1505613-0.0721922,0.2389483-0.0377245C7.658319,8.4760408,7.5639343,8.6701288,7.5915184,8.8511591
		C7.535995,9.1683512,7.2867694,9.4389658,7.3322301,9.7798309c0.0131955,0.1092377-0.0202723,0.2110243-0.0574803,0.3122129
		c-0.1470032,0.3043365-0.0874805,0.6053581,0.0189471,0.9054947c0.0313816,0.1024933,0.0560718,0.2060518,0.0662303,0.3119946
		c0.0191827,0.2988415,0.1549706,0.4840231,0.5159459,0.451993c0.4411778,0.1657887,0.8829675,0.3086281,1.3672118,0.1464052
		c0.2720003-0.0911207,0.448741,0.0380859,0.5860996,0.2386971c0.1024313,0.097187,0.2418318,0.1404638,0.3637905,0.2091837
		c0.6172256,0.1400337,1.2343035,0.3063345,1.8340893-0.0530777c0.093091-0.1507998,0.3358259-0.1855965,0.3509111-0.3935442
		c0.0103931-0.1068554-0.0362797-0.1939058-0.1243324-0.2541771c-0.3857393-0.2640276-0.2685947-0.5175819,0.0096245-0.7736464
		c0.2238503-0.2060251,0.4465933-0.4133091,0.6283598-0.6534433c0.3053064-0.3222904,0.0075274-0.5074377-0.1927948-0.7139015
		c-0.4282732-0.3447981-0.6894894-0.790431-0.9030848-1.265605c-0.0499163-0.1416531-0.1064491-0.2814384-0.1352091-0.4288344
		c-0.1670122-0.7934866-0.2338448-1.5658922-0.0466585-2.3888092c0.3567705-1.5684595,1.9525595-2.9640758,3.7040825-3.0844035
		c0.2060804-0.0141573,0.43993,0.034961,0.5890026-0.1624777c0.0594082-0.0682311,0.1277351-0.1281979,0.2033749-0.1808724
		c0.1012154-0.0660856,0.2127113-0.1132685,0.3316231-0.1464928c0.0606842-0.0116588,0.1219578-0.0135927,0.1837749-0.0082697
		c0.0305424,0.0043119,0.0608616,0.0099709,0.0914841,0.0142813c0.2669868,0.1254864,0.7233849-0.023299,0.7575817,0.4418337
		c-0.1063175,0.0717204-0.2231998,0.0942996-0.3513107,0.0631604c2.0113716,0.4394186,3.4257164,1.9338448,3.4093609,3.8299725
		c-0.010376,1.2028313-0.1911373,2.2658272-1.012373,3.2073469c-0.0580559,0.0665579-0.0323315,0.1510878-0.017107,0.2290154
		c0.0393658,0.1708431,0.013258,0.3502979,0.1195183,0.5122252c0.2870808,0.4374762,0.5800838,0.4725962,0.9415989,0.0873585
		c0.2649593-0.2823505,0.4656315-0.6081047,0.6789703-0.9239769c0.1624165-0.2423172,0.2956562-0.4973888,0.3872929-0.7706881
		c0.0186157-0.0507326,0.0424805-0.0989637,0.0693855-0.1462908c0.0716095-0.1198473,0.1530113-0.2339487,0.2297821-0.350934
		c0.2638168-0.7736707,0.1387424-1.5809822,0.2453403-2.3678622c0.0306969-0.056304,0.0792522-0.0930219,0.1448097-0.1106076
		c0.1014442-0.0008316,0.1774178,0.0450373,0.2411232,0.1121702c0.1696491,0.1729054,0.0146599,0.4174366,0.1557732,0.5974793
		c0.0506477,0.0093646,0.0914268,0.0308576,0.124773,0.0658979c0.042263,0.0612154,0.0670605,0.1284866,0.0928955,0.1944275
		c0.1147671,0.1625633,0.2227135,0.0102673,0.3329353-0.0066648c0.0592728-0.0106907,0.1135426-0.0007482,0.162344,0.0321202
		c0.0801086,0.4500389-0.3087196,0.71316-0.4957352,1.0565863c-0.3783646,0.6948056-0.7152119,1.4125199-1.1453781,2.0789609
		c-1.3038902,2.0200787-3.2152214,3.0825186-5.8048859,3.0630264c-2.4255371-0.0182562-4.8514471-0.0152006-7.277009,0.0014067
		C7.8213105,12.7645664,7.1297731,12.4784365,6.6336122,11.8001242z"/>
	<path fill="#222222" d="M25.3363647,1.0995494c0.7799244,1.2587517,0.4603882,2.3864098-0.482233,3.4398398
		c-0.042942-0.0415893-0.0859261-0.0832481-0.1289139-0.124907c-0.1880989,0.0234447-0.2486763,0.2016602-0.3946114,0.2765679
		c-0.0590954,0.006443-0.1118336-0.0074363-0.1584835-0.04143c0.1145172-0.2316079-0.0663033-0.2813725-0.2424603-0.3341236
		c-0.0278549-0.0497513-0.0336876-0.1020174-0.0214176-0.1564808c0.1904678-0.317749,0.3359547-0.6493239,0.6152592-0.9313419
		c0.345583-0.3489392,0.3175678-0.785408,0.0749359-1.2003789c-0.397995-0.920501-1.21525-0.9959979-2.1188126-0.8953586
		c-0.1223412-0.0626143-0.2462311-0.1311496-0.3425217,0.0372372c-0.1241875,0.0909848-0.2555695,0.1290876-0.4043713,0.0531363
		c-0.5794868-0.3943183-1.6420574-0.3335983-1.9144592,0.1108278c-0.4296513,0.046738-0.6193523-0.1902713-0.729084-0.5229127
		c-0.0039711-0.2019004,0.1145115-0.2988926,0.3218899-0.319305c0.1375217-0.007027,0.2751694-0.0084848,0.411623,0.0085703
		c0.5071087,0.107382,1.0215874,0.0475315,1.5253029,0.0506521c-0.6904354-0.0514789-1.3751698-0.0337822-2.0599041-0.0646961
		c-1.0752869,0.0830554-2.148695,0.1111837-3.2219028-0.0036969c-0.318222-0.24121-0.6944265-0.0636128-1.0379581-0.1222348
		c0.2221098-0.1779871,0.4923372-0.1055656,0.7404947-0.1062456c2.4222555-0.0066384,4.8446569,0.0084405,7.2667494-0.0109364
		C23.9467468,0.2350423,24.7098427,0.4930104,25.3363647,1.0995494z"/>
	<path fill="#0D0D25" d="M24.3349056,4.6540098C24.45924,4.5662122,24.391222,4.211936,24.725172,4.4144745
		c-0.3808117,0.5779486-0.7733841,1.1500931-1.0385418,1.7852755c-0.0953484,0.1130433-0.0698605,0.3439717-0.3346748,0.2917805
		c-0.0965347-0.0297441-0.1267948-0.1008625-0.136528-0.1848373c0.0014229-0.0526667,0.0120068-0.1041369,0.0309639-0.1538701
		c0.0832043-0.1610589,0.1533546-0.3266139,0.1831703-0.5049658c0.0456238-0.183846,0.1318092-0.3472114,0.2824421-0.4781108
		C23.9267483,5.0053754,24.0585308,4.7551432,24.3349056,4.6540098z"/>
	<path fill="#1C1C22" d="M23.304678,6.4379511c0.1990337,0.0184073,0.2499371-0.1652184,0.3819656-0.2381902
		c-0.0858898,0.1193933,0.2189865,0.4765873-0.256731,0.358758c-0.0431671-0.0000696-0.086338-0.0001416-0.129509-0.0002136
		c-0.0471916,0.0489116-0.0963764,0.0506787-0.1475277,0.0054417C23.1457767,6.4627533,23.1771793,6.4011059,23.304678,6.4379511z"
		/>
	<path fill="#0F0F24" d="M12.9688015,10.2528028c-0.0332928,0.3312922-0.3312559,0.4913931-0.5587931,0.6763144
		c-0.3305006,0.2686052-0.3902702,0.4679937,0.0372086,0.6866302c0.1630192,0.0833769,0.4155884,0.209013-0.0032234,0.3060675
		c-0.0453281,0.0414839-0.100338,0.0619659-0.1637068,0.0646944c-0.4842682-0.143877-0.8355589-0.4372025-1.0974331-0.8307447
		c-0.0634356-0.2208433-0.2954102-0.2872906-0.4559784-0.4197092c-0.0568275-0.3419704-0.1729345-0.6607428-0.4259443-0.9260788
		c-0.228447-0.2548742-0.2960157-0.5780773-0.4357738-0.8706923c-0.0778856-0.1216736-0.1557693-0.2433453-0.233655-0.3650188
		c0.101428-0.0889816,0.2224541-0.106554,0.3547153-0.0835829c0.321332,0.1065512,0.388916,0.397892,0.5331221,0.6314106
		c0.1674652,0.271184,0.2727575,0.5810165,0.5804787,0.7604256c0.2191029,0.1480198,0.4218807,0.3103399,0.5462132,0.539238
		c0.1000338,0.1658182,0.1737089,0.3780794,0.4557981,0.2127171c0.1758118-0.1612816,0.2869081-0.3872776,0.5479708-0.461319
		c0.0576668-0.0119286,0.1155968-0.0136986,0.1741257-0.006649C12.8819475,10.1814175,12.9297113,10.2109623,12.9688015,10.2528028z
		"/>
	<path fill="#E7E603" d="M8.8290205,6.7838326C8.9608574,6.7872829,9.1367359,6.6797051,9.1838646,6.898159
		c0.0122204,0.0566387,0.0074997,0.11724,0.004261,0.175725C9.1626959,7.5331907,9.4953518,8.0095358,9.3900175,8.388833
		c-0.1403723,0.5054598-0.878808-0.1021957-1.2238092,0.2923326C8.1443672,8.7017431,8.1225262,8.7223206,8.100667,8.7429705
		C7.8609395,8.7749958,7.7590923,8.650301,7.7171712,8.4568758C7.7415528,8.1946259,7.8818316,7.9845905,8.0688696,7.795856
		c0.2369118-0.1644187,0.3401632-0.3964152,0.3864861-0.6572461c0.0424633-0.1321816,0.1065512-0.2535105,0.2067566-0.3572044
		C8.7182217,6.7523923,8.7739496,6.751811,8.8290205,6.7838326z"/>
	<path fill="#0E0E24" d="M8.949584,8.7131195c0.3937387,0.0445204,0.498168,0.4189119,0.7849102,0.5854311
		c0.3494616,0.074193,0.4502068,0.3669119,0.6202383,0.5989285c0.2148008,0.2810898,0.1157618,0.6615982,0.3500729,0.937088
		c0.0537882,0.1097479,0.0579777,0.2229099,0.0297117,0.3386955c-0.1020927,0.2433519-0.2033062,0.4876137-0.4346218,0.6584234
		c-0.0558958,0.0247831-0.1152678,0.0367641-0.1773968,0.0347013c-0.2966337-0.1117544-0.0930929-0.4552565-0.3252335-0.5977278
		c0.1682987-0.4098043,0.2417774-0.8244915,0.0720596-1.2504292C9.7355118,9.7502823,9.516552,9.5583229,9.2398129,9.4182377
		C9.0311403,9.3137245,8.790206,9.3296909,8.570549,9.2663593C8.3481331,9.1833868,8.0813751,9.1538935,8.0151796,8.8800907
		c0.0044498-0.0980673,0.1179771-0.1235199,0.1560431-0.1993208c0,0-0.0049896,0.0004253-0.005002,0.000411
		c0.0540981,0.012557,0.1082077,0.0251293,0.1623192,0.0377026C8.5363359,8.7885714,8.7434664,8.7971992,8.949584,8.7131195z"/>
	<path fill="#020227" d="M9.9948311,8.5843697C9.873579,8.5810528,9.752326,8.5777359,9.6312876,8.5743427
		C9.4928827,7.9890709,9.2697172,7.4148111,9.3616314,6.799799c0.1449156-0.3082776-0.0467043-0.6503382,0.112978-0.9571333
		C9.47542,5.7239799,9.4762297,5.6052938,9.4770498,5.4866138c0.083189-0.0789819,0.1663694-0.1579695,0.2495508-0.236958
		c0.3296452,0.1613064,0.1353998,0.4022675,0.1123638,0.6176472C9.7419949,6.1414852,9.75387,6.4151654,9.8458395,6.6885185
		C9.928462,7.1167879,9.8771591,7.560102,10.0220089,7.981257C10.0596638,8.1840544,10.1872053,8.3907995,9.9948311,8.5843697z"/>
	<path fill="#111124" d="M8.1843872,7.875875C8.0594158,8.0718622,7.9344463,8.2678499,7.8094764,8.4638376
		C7.7147632,8.5798531,7.7115202,8.7552996,7.5375218,8.8198004C7.3007331,8.6627617,7.474638,8.5036564,7.5347142,8.3451242
		C7.5320253,7.846498,7.8817873,7.5111313,8.1837149,7.1536069c0.1282368-0.1600256,0.2564735-0.3200512,0.3847103-0.4800758
		c0.1346483-0.0091591,0.2300472,0.012207,0.1531992,0.1675267c0.0709095,0.1488938-0.0576277,0.2212582-0.1404047,0.3111811
		C8.4424295,7.3904138,8.3631048,7.656321,8.1843872,7.875875z"/>
	<path fill="#222222" d="M8.1837149,7.1536069C7.9674101,7.5507817,7.7511048,7.947957,7.5347576,8.345129
		C7.4500122,8.3453217,7.3653092,8.34552,7.2806158,8.3457203C7.4092932,7.9402184,7.6830463,7.601891,7.8834271,7.2296844
		C7.9650521,7.0780687,8.063036,7.1086402,8.1837149,7.1536069z"/>
	<path fill="#212121" d="M10.2511148,9.8950233c-0.1722059-0.198823-0.3444109-0.3976479-0.5166187-0.5964718
		C9.778039,9.1788092,9.8215818,9.0590677,9.8651409,8.9393053c0.3048201,0.2087021,0.3791037,0.5388098,0.5172262,0.8353014
		C10.3676624,9.841671,10.3230953,9.881052,10.2511148,9.8950233z"/>
	<path fill="#161523" d="M8.7216244,6.8410578c-0.0510445-0.05581-0.1020889-0.1116204-0.1531668-0.1674786
		C8.7426386,6.5242133,8.8427715,6.1034861,9.07514,6.2571869c0.3190804,0.2110548-0.3265505,0.2727222-0.2461214,0.52665
		C8.8010435,6.8153911,8.7652454,6.8344665,8.7216244,6.8410578z"/>
	<path fill="#141424" d="M9.4746094,5.8426657c-0.0428381,0.318532,0.1137848,0.657125-0.1130838,0.9571352
		C9.3918619,6.4800091,9.2244282,6.1403761,9.4746094,5.8426657z"/>
	<path fill="#040425" d="M8.949584,8.7131195C8.7441368,8.875453,8.5369797,8.8743591,8.328372,8.7187662
		C8.5355539,8.7169619,8.742569,8.7150412,8.949584,8.7131195z"/>
	<path fill="#FDFB00" d="M11.5395308,10.4950008c-0.1619034-0.1631231-0.3238058-0.3262453-0.4857092-0.4893675
		c-0.5669737-0.6218739-0.8798866-1.358901-1.1320896-2.124126c-0.1313066-0.869947-0.2654591-1.7362928-0.0363102-2.6135087
		c0.1346426-0.5154295,0.4243288-0.9648061,0.6451588-1.4435606c0.1792784-0.1607101,0.2898006-0.3603706,0.3805323-0.5712438
		c0.0754242-0.2021086,0.2626915-0.332978,0.380537-0.5080667c0.2560472-0.2366204,0.5120945-0.4732413,0.7681437-0.7098615
		c0.3810415-0.2554349,0.7546968-0.5215586,1.1894894-0.6992333L13.2361374,1.344569
		c0.6531696-0.349216,1.3657694-0.5267659,2.1077528-0.6172054c0.3771429-0.0459694,0.7379408-0.0777242,0.8218756,0.4067532
		c0.10536,0.6081452-0.0763073,0.9583963-0.6383381,1.0249001c-0.5829506,0.0689785-1.1237173,0.2298307-1.647707,0.4599733
		c-0.2328911,0.1022882-0.4561348,0.217896-0.6357288,0.3926587c-0.5267582,0.4492183-1.0669727,0.8882461-1.3730106,1.5090187
		c-0.6288691,1.127408-0.7313757,2.2859764-0.2469301,3.4794173c0.138339,0.3367786,0.2651253,0.6790533,0.5108194,0.9680367
		c0.0544395,0.0660114,0.105278,0.1343069,0.1542425,0.203845c0.1196575,0.2088308,0.3274336,0.3532057,0.4702358,0.5439625
		c0.1490154,0.1990528,0.2021151,0.3918619-0.1091585,0.5128422c-0.2412872,0.0994463-0.3138351,0.3295965-0.4587603,0.5036821
		C11.8658981,10.9059982,11.7072563,10.6898947,11.5395308,10.4950008z"/>
	<path fill="#212120" d="M13.0722179,2.9761093c0.6719131-0.6113038,1.5119133-0.893985,2.4236536-0.9505956
		c0.8044634-0.0499486,0.4672174-0.5838459,0.5007257-0.9234977c0.0407028-0.4126033-0.32757-0.2998298-0.5984459-0.2904457
		c-0.7655258,0.0265205-1.4450455,0.3429587-2.162014,0.5329217c0.66959-0.5626835,1.5327158-0.6050123,2.3594694-0.7412612
		c0.1626921-0.0268114,0.3467436,0.0300315,0.4705801-0.1214788c0.7024612-0.2482811,1.4325314-0.0711832,2.1484222-0.1144379
		c0.402832-0.0243391,0.8088741-0.0034953,1.2134705-0.0030065c0.0726662,0.0752201,0.0737476,0.1522995,0.0070591,0.2311392
		c-0.1674442,0.0079365-0.2639637,0.0825691-0.2689819,0.2432494c0.0487671,0.516083,0.729641,0.50288,0.9036045,0.9147192
		c0.2129459,0.315273,0.7650471,0.4699764,0.5526199,0.9870701c-0.1978092,0.0976033-0.338192-0.0217259-0.4488201-0.1321502
		c-0.4275112-0.4267311-0.9613953-0.7230587-1.469944-1.0505387c-0.15308-0.1345763-0.3344994-0.2067676-0.5478554-0.2088083
		c-0.3394451-0.0314251-0.670311-0.0917952-0.9763451-0.2370123c-0.1972752-0.1265712-0.4189034-0.1424598-0.6481476-0.1165311
		c-0.2426929,0.0870412-0.1528053,0.2860152-0.1698112,0.4429973c-0.0222836,0.2057018,0.0153122,0.4225897-0.1651096,0.5896761
		c-0.0450802,0.0412922-0.0901604,0.0825849-0.1352406,0.123877c-0.7764301,0.3222935-1.7025423,0.2119007-2.4186726,0.7185619
		C13.4851274,2.9818518,13.3074999,3.1543269,13.0722179,2.9761093z"/>
	<path fill="#2A2920" d="M10.5305805,3.8244381c-0.6303091,1.3372645-0.8002243,2.7235484-0.5205412,4.1577024
		C9.9633589,8.027257,9.9145079,8.0271139,9.8637915,7.9881091C9.6930628,7.563745,9.7386284,7.1179667,9.7114353,6.6793923
		C9.6561136,6.3992491,9.6379662,6.1194792,9.7213469,5.8407292C9.6964417,5.6434822,9.8675947,5.447772,9.7266979,5.2496357
		c-0.0000982,0.00002,0.0088444-0.009727,0.0088444-0.009727c0.1856794-0.1600022-0.0226774-0.4635086,0.2529812-0.5907416
		C10.236639,4.4119473,10.1937532,4.0120726,10.5305805,3.8244381z"/>
	<path fill="#1F1F22" d="M10.7686129,2.7460082c0.0782471-0.441386,0.5739899-0.5877626,0.7800894-0.9386891
		c0.1267614-0.046216,0.2534962-0.0925659,0.3802156-0.138965C11.601284,2.081692,11.2048521,2.4320731,10.7686129,2.7460082z"/>
	<path fill="#1C1C2A" d="M12.1841354,1.4316627c0.4024105-0.3604697,0.8404512-0.659815,1.425622-0.70667
		C13.145256,0.9789714,12.7259922,1.3104848,12.1841354,1.4316627z"/>
	<path fill="#1F1F22" d="M13.2492828,1.3360329c-0.3699999,0.2714069-0.7458057,0.5344168-1.1894875,0.6992321
		C12.3633242,1.6676968,12.7353411,1.3992023,13.2492828,1.3360329z"/>
	<path fill="#020227" d="M9.9885235,4.6491671c-0.1416674,0.176105,0.0221643,0.4634399-0.2529898,0.5908408
		C9.8221426,5.0438228,9.5163155,4.7048187,9.9885235,4.6491671z"/>
	<path fill="#1F1F22" d="M11.2916498,2.7451282c-0.0318918,0.2298353-0.2122211,0.3651161-0.3805408,0.5080557
		C10.8889942,2.9889548,11.0693092,2.8536572,11.2916498,2.7451282z"/>
	<path fill="#FBFA00" d="M15.7997961,5.3636918c-0.2654963,0.366354-0.2875366,0.6268787,0.3151407,0.6130891
		c0.597271-0.0136657,1.1187115,0.1862121,1.6064739,0.482161c0.0271015,0.0091681,0.0542049,0.0183363,0.0816116,0.0271072
		c0.1833439,0.1410437,0.2970467,0.3279104,0.403347,0.5206518c0.0248547,0.0521064,0.042202,0.1058717,0.0552979,0.1613841
		c0.0848465,0.5194664-0.0647755,0.9808226-0.4057751,1.3952179c-0.0676689,0.0692892-0.1477356,0.1138144-0.2532387,0.1061516
		c-1.079874,0.6658049-2.211731,0.5999155-3.3683691,0.2060385c-0.275671-0.093874-0.504179-0.2372856-0.2517242-0.5073709
		c0.2009802-0.2150154,0.0815115-0.8066368,0.7403793-0.5463114c0.5106812,0.2017746,1.0526543,0.4616318,1.599021,0.0468268
		c-0.052166-0.0753512-0.0132484-0.1428437,0.019455-0.2110205c0.1099758-0.2193956-0.0239697-0.3317323-0.2186565-0.4185152
		c-0.4280872-0.0710092-0.8577852-0.0337186-1.2850275-0.0381536c-0.4966917-0.0051556-0.7616205-0.1986442-0.7572021-0.675364
		c0.0056734-0.6124287,0.1356106-1.2142005,0.1735106-1.8246055c0.0189276-0.3048272,0.2465315-0.4744883,0.6182585-0.4683805
		c0.835144,0.013721,1.6715307,0.0242743,2.5058546-0.0032978c0.4853573-0.0160398,0.4378662,0.254705,0.4298344,0.536685
		c-0.007597,0.2666407,0.0871334,0.5598702-0.415617,0.5495887C16.8631973,5.3047523,16.3259621,5.2334476,15.7997961,5.3636918z"/>
	<path fill="#313131" d="M17.2277889,0.9585294c0.3200836,0.170182,0.6666279,0.2429073,1.0340405,0.2387668
		c0.1426811,0.133525,0.3452282,0.1565459,0.5162106,0.2378302c0.671545,0.3556758,1.2344265,0.8392018,1.8097649,1.3080724
		c0.5476055,0.2838962,0.7456665,0.8080032,1.0307274,1.2726698c0.1005001,0.2893767,0.2555408,0.5601139,0.3502426,0.8519115
		c0.0591621,0.187582,0.0608845,0.384604,0.1132431,0.5738854c0.0145073,0.0566301,0.0218601,0.1136456,0.0243263,0.1715422
		c0.0724907,0.5908237,0.0252304,1.182601,0.0226288,1.7739787c-0.0055408,0.0596604-0.0220833,0.1167254-0.0473022,0.1716638
		c-0.0843925,0.3099055-0.1559525,0.6239138-0.3318768,0.9053268l-0.0002747,0.0004015
		c-0.1306648,0.2772083-0.2666721,0.5523052-0.3873024,0.833478c-0.1007557,0.3964586-0.4014435,0.6904602-0.656004,0.9946041
		c-0.1695576,0.2025843-0.3720379,0.6018038-0.7514915,0.349452c-0.3314495-0.2204256-0.8049469-0.4547958-0.5295792-0.9859257
		c-0.0414639-0.2868118,0.2590427-0.3106337,0.4064903-0.4523411c0.2002583-0.1029406,0.3235798-0.2619247,0.3920403-0.4612617
		c0.0220165-0.0493107,0.0498028-0.0951834,0.0802631-0.1401958c0.2524929-0.2201195,0.1926575-0.6490793,0.6005955-0.7652221
		C21.0005016,7.866785,21.0541,7.9327741,21.0878067,8.0163498c0.1110802,0.4048691-0.0860214,0.7222052-0.3199196,1.0436039
		c-0.2193165,0.301362-0.5720787,0.5255556-0.686512,0.9447746c1.2285461-0.7620544,1.7300835-2.899724,1.2476807-5.1584635
		c-0.0236378-0.2200923-0.0932274-0.4248266-0.2391205-0.6040821c-0.8758583-1.4208996-2.1126804-2.4043155-3.8970108-2.7217765
		c0.9155693,0.2727841,1.7171326,0.7147101,2.4455051,1.2974895c0.5817299,0.4654481,0.9376049,1.0698156,1.3475227,1.6430674
		c0.1289482,0.180325,0.1589985,0.4074802,0.1026115,0.6305933c-0.029562,0.0842195-0.0809917,0.1510077-0.1737976,0.1839709
		c-0.0618515-0.003459-0.1137733-0.0267634-0.1555557-0.0688272C20.60429,5.0207534,20.5723362,4.763289,20.3547745,4.6127067
		c-0.0815659-0.0767946-0.1300087-0.169981-0.1597233-0.2723341c-0.0510197-0.2303023-0.1558456-0.4289744-0.3854828-0.5545671
		c-0.6079807-0.5794868-1.3303661-1.0179119-2.0714054-1.4340122c-0.2836723-0.3748093-0.7554016-0.3285527-1.1565475-0.4396658
		l-0.0000648,0.0002799c-0.230875-0.2835187-0.252676-0.606438-0.0562668-0.8840026
		C16.6867104,0.8002732,16.9799595,0.8858052,17.2277889,0.9585294z"/>
	<path fill="#1F1F1F" d="M19.9408016,9.2985439c-0.1718922,0.1192131-0.3437843,0.2384262-0.5156689,0.3576412
		c-0.3739338-0.0636196-0.2100258-0.2271862-0.0634232-0.3541183c1.4447632-1.2509308,1.3140812-4.38658,0.0326633-5.6180611
		c-0.6005726-0.5771673-1.3687534-0.9329898-2.1998844-1.1621342c-0.2039337-0.0562255-0.5949345,0.044709-0.5219879-0.2605748
		c0.0599346-0.2508287,0.3599529,0.0408876,0.5577049,0.0069425c0.0829258-0.0142345,0.1714706-0.0006208,0.2574615,0.0003316
		c0.1293869-0.0888364,0.2579765-0.0792906,0.3859825,0.0026588c0.7702599,0.3751578,1.4363194,0.8783433,2.0640488,1.4286261
		c0.1615257,0.1813552,0.2264118,0.4164836,0.3903065,0.5965192c0.0020981,0.0973992,0.0233879,0.1860642,0.1269894,0.2372622
		c0.1449795,0.2160807,0.2043781,0.4670982,0.3316307,0.6909089c0.3969383,0.7737741,0.3055,1.5770016,0.0909119,2.3585057
		c-0.1065292,0.3879676-0.2868595,0.7794309-0.5484886,1.1198869l-0.0001106,0.0001202
		C20.2475529,8.9281578,20.0913429,9.1117802,19.9408016,9.2985439z"/>
	<path fill="#101024" d="M13.0722179,2.9761093c0.7236376-0.2509487,1.3597841-0.6988761,2.17097-0.7631664
		c0.2713966-0.0215096,0.5443172-0.0497086,0.8179731-0.0609725c-0.0176964,0.2836721-0.2162867,0.3370817-0.4818401,0.3582048
		c-2.1262426,0.1691279-3.3377895,1.2840972-3.8351631,3.1664519c-0.2082348,0.7880816,0.1057787,1.4649172,0.0554771,2.1929493
		c-0.2281065,0.021328-0.2555103-0.1371279-0.2144995-0.2630892c0.0999966-0.3071308-0.1823912,0.0309095-0.1753712-0.0970659
		c-0.3571434-1.0894489-0.073904-2.1110888,0.3830481-3.1145225C12.0607967,3.8004313,12.4987984,3.3363454,13.0722179,2.9761093z"
		/>
	<path fill="#171722" d="M8.5598125,9.1690598c0.2684536,0.0119677,0.5448732-0.0172892,0.7872953,0.1293859
		c0.0330315,0.0327597,0.0440197,0.0655031,0.0329914,0.0982409C9.3690729,9.4294119,9.3580503,9.4457769,9.347559,9.4457951
		C9.1638966,9.54492,8.9688482,9.4592018,8.7800159,9.474555c-0.5439882,0.0442343-0.9220681,0.3123112-1.1276841,0.7677145
		c-0.1692414,0.3748417-0.0108709,0.70716,0.2683086,0.9777937c0.3691173,0.3578176,0.8258519,0.3821688,1.3067241,0.2138319
		c0.1593046-0.0557671,0.2961168-0.1630411,0.474206-0.1778202c0.0644207,0.0033941,0.1182938,0.0276527,0.1633472,0.0694075
		c0.1687832,0.016571,0.5530863-0.1154671,0.1994104,0.2564583c-0.084794,0.0891714-0.018136,0.1785669,0.0863457,0.2330465
		c0.032876,0.1143789-0.0298138,0.2032051-0.0905657,0.2930012c-0.0927706,0.0813866-0.1302223,0.2552719-0.3253307,0.1693964
		c-0.1182489-0.2599745-0.3072958-0.307292-0.5903931-0.2071142c-0.5039024,0.1783123-0.9517126,0.049531-1.3482642-0.2670927
		c-0.327014-0.0170422-0.4954495-0.1803427-0.5183086-0.47791c-0.0424867-0.0795841-0.0849724-0.1591692-0.127459-0.2387533
		c0.1159668-0.3252392-0.1011386-0.6682024,0.0618753-0.9908142c0.204802-0.4222784,0.454525-0.8065147,0.9676666-0.9665527
		C8.3083391,9.1265469,8.4405308,9.0960531,8.5598125,9.1690598z"/>
	<path fill="#202020" d="M21.4955463,4.0561943c-0.3025856-0.4376445-0.6051693-0.8752894-0.9077473-1.3129649
		c0.0575409-0.4748383-0.483202-0.603611-0.646534-0.9506717c0.4269924-0.1596389,0.5663185,0.1949738,0.7975311,0.3771436
		c0.0254173,0.0223157,0.0504799,0.050343,0.0725727,0.0805757c0.0629883-0.0514596-0.0276527-0.0869715-0.0168324-0.1358442
		c0.0043583-0.0527928,0.0232677-0.0975873,0.058403-0.137851c0.3362579-0.1519053,0.2874031-0.6810635,0.7812557-0.6765939
		c0.0368538,0.0450774,0.0599079,0.0953465,0.0678959,0.1514481c-0.1380005,0.4841377-0.0997791,0.9660156,0.0253792,1.446008
		c0.0868397,0.1708272,0.2006893,0.3318517,0.2287941,0.5242863c0.0222912,0.445751,0.4981537,0.7258565,0.5079098,1.1769087
		c-0.1307545,0.3294215,0.1843357,0.6843381-0.0670815,1.0064821c-0.0433979-0.0000076-0.0867958-0.0000162-0.1301918-0.0000243
		c-0.2627125-0.1689219-0.2024441-0.4464512-0.2854424-0.678947C21.8716278,4.6184845,21.7860374,4.2841597,21.4955463,4.0561943z"
		/>
	<path fill="#111124" d="M17.6026535,8.6694546c0.037508-0.0315647,0.0750179-0.0631304,0.112524-0.0946951
		c0.4901314-0.4324541,0.6022358-0.9471917,0.3921337-1.5320644l0.0076332,0.0109773
		c-0.0458565-0.2491808-0.193327-0.4413552-0.3970928-0.6019468c0,0,0.0035706,0.0071545,0.0035648,0.0071855
		c-0.3010406-0.5492496-0.8708248-0.5675888-1.4272594-0.6214695c-0.1685734-0.0163231-0.4538784,0.0891957-0.4380751-0.1946063
		c0.0121059-0.21736,0.2632799-0.1502166,0.4222612-0.1546087c0.3226738-0.0089116,0.64678-0.0153918,0.9685078,0.0032873
		c0.2083492,0.0120964,0.6339283-0.1174779,0.3412437,0.3432527c-0.0731735,0.1151872,0.0494957,0.1658421,0.1255703,0.2340508
		c1.3231678,1.1863809,0.9280224,2.8099537-0.8234673,3.3881531c-0.1002178,0.033083-0.2053776,0.0534363-0.3082352,0.0797129
		c-0.0804253-0.1362867,0.0569344-0.1716585,0.1292343-0.2371759C16.9928799,9.0708771,17.489933,9.1013918,17.6026535,8.6694546z"
		/>
	<path fill="#3C3B1E" d="M15.7997961,5.3636918c0.4932051-0.1961517,1.010005-0.0713596,1.5136557-0.0768051
		c0.4507084-0.0048733,0.4566784-0.2308259,0.4633198-0.5381117c0.0066471-0.307548-0.0557594-0.4926343-0.4486599-0.4859967
		c-0.7948723,0.0134287-1.5905704,0.0159841-2.3852034-0.0029039c-0.3714237-0.0088282-0.489954,0.1528406-0.5141449,0.457469
		c-0.0486345,0.6124659-0.0978527,1.2254457-0.1744041,1.8352709c-0.0476799,0.379837,0.1154232,0.4957762,0.5061607,0.4710984
		c0.3634529-0.022954,0.7305613-0.0097942,1.0953789,0.0034571c0.2303114,0.0083671,0.4858541-0.0097837,0.6078463,0.2418971
		c-0.049614,0.047555-0.1098137,0.0761633-0.1805458,0.0865684c-0.0698242,0.0064831-0.1388264,0.0016055-0.2070522-0.0126367
		c-0.5208282-0.0639734-1.0449972-0.0081177-1.5675144-0.0355201c-0.1145449-0.0071874-0.2226658-0.0333939-0.3234043-0.0853877
		c-0.2587776-0.1786308-0.2189951-0.4449577-0.241128-0.6934223c0.0897951-0.7441525-0.0092402-1.5116673,0.3210468-2.2263684
		c0.4778032-0.2647338,1.0025368-0.1059647,1.5051374-0.1342483c0.4468002-0.0251427,0.9007168,0.0301681,1.3440456-0.0138392
		c0.6235294-0.0618949,0.8309155,0.1495852,0.7868557,0.7226009c-0.0292988,0.3810344-0.148119,0.5297246-0.5646248,0.5079083
		C16.8255234,5.3579531,16.3121567,5.3689957,15.7997961,5.3636918z"/>
	<path fill="#1A1A23" d="M14.2651472,4.3023c0.0406494,0.7595234-0.1166248,1.5071859-0.1593761,2.2617121
		c-0.0711479,0.1284924-0.034833,0.2675657-0.0466175,0.4019127c-0.0168343,0.1918898-0.088459,0.3050847-0.3192959,0.1878109
		c-0.0934486-0.8637819,0.1763163-1.7110543,0.1387434-2.5739641C13.8703032,4.3892369,13.8861217,4.0957932,14.2651472,4.3023z"/>
	<path fill="#0A0A25" d="M16.2026596,7.2658825c0.0390587,0.003509,0.0775299,0.0099916,0.1154099,0.0194497
		c0.2246227,0.1116371,0.2493839,0.2725115,0.1354446,0.4675565c-0.0438519,0.0385833-0.0877018,0.0771656-0.1315536,0.1157489
		c-0.6237736-0.0259748-1.2891665,0.1266389-1.8060713-0.3579326c0.004096-0.151094,0.0561571-0.2686291,0.2411747-0.2931685
		C15.2387085,7.2392654,15.7243414,7.159658,16.2026596,7.2658825z"/>
	<path fill="#0B0B24" d="M12.055975,12.2907915c0.0606642,0.1217957,0.2909985,0.1025133,0.2780399,0.3412342
		c-0.6318703,0-1.2663221-0.0009604-1.9007654,0.0006256c-0.1749468,0.0004377-0.2877378-0.0607777-0.3042545-0.2327871
		c0.0776224-0.1361723,0.2090244-0.2044659,0.362422-0.2457952C11.018755,12.1399994,11.562459,11.9734716,12.055975,12.2907915z"/>
	<path fill="#212121" d="M21.4955463,4.0561938c0.5408363,0.1135349,0.4605026,0.5962868,0.6278038,0.9245319
		c0.095541,0.1874518,0.0987587,0.4149218,0.143549,0.624372c0.0285702,0.8833032,0.1206551,1.7719855-0.2609615,2.6205511
		c-0.0987358-0.2383943-0.0948811-0.4763937,0.0032272-0.7140303l-0.0002651,0.0003653
		c0.1149616-0.675456,0.0961838-1.3509154,0.0000725-2.0263777l0.0000362,0.000289
		c-0.1524353-0.1781464,0.0289631-0.418201-0.1297874-0.5951753C21.7081013,4.6294456,21.5624123,4.3582301,21.4955463,4.0561938z"
		/>
	<path fill="#212121" d="M22.3946342,4.5383768c-0.1642437-0.3625922-0.6087894-0.6107812-0.5172482-1.0777695
		c0.2143326,0.0333552,0.3312283,0.1930845,0.4795685,0.3124976c0.1544209,0.1516743,0.2908268,0.3207333,0.4918041,0.4280317
		c0.048975,0.0340204,0.0849571,0.0769162,0.1099167,0.1284809c0.0061684,0.0574994-0.0035324,0.112473-0.0252113,0.1661086
		c-0.1794853,0.401032,0.0748997,0.7948632,0.0242901,1.1941323c-0.0155525,0.2223382,0.0337696,0.4609184-0.1879673,0.6301312
		c-0.0371361,0.0000644-0.0742741,0.0001526-0.111412,0.0002656C22.512352,6.0823545,22.6546764,5.8045349,22.5349922,5.56318
		C22.4825764,5.222363,22.3293896,4.8930783,22.3946342,4.5383768z"/>
	<path fill="#222222" d="M7.5375218,8.8198004c0.0049253-0.174346,0.0900898-0.2965612,0.2719474-0.3559618
		C7.8651447,8.6282129,7.9918337,8.691905,8.1712341,8.6808119C8.1322699,8.7326937,8.0933161,8.7846165,8.0543633,8.8365393
		C8.0029144,8.9015398,8.0007572,8.9827175,7.971529,9.0554552c-0.1344061,0.3201399-0.3913097,0.5394011-0.6958556,0.719348
		c-0.108211-0.0152245-0.2767205-0.0869064-0.1981363-0.1574783C7.3300467,9.3905592,7.3171349,9.0498953,7.5375218,8.8198004z"/>
	<path fill="#040425" d="M16.7111969,9.2995071c-0.0430756,0.0790606-0.086153,0.1581221-0.1292324,0.2371788
		c-0.4802876,0.0345564-0.9661236-0.0617065-1.4437857,0.0642166c-0.2028389,0.0534725-0.3647203-0.0421429-0.4955816-0.1828041
		c-0.1886578-0.1398706-0.5149021,0.0372133-0.6447897-0.2380371l-0.0005322-0.0002117
		c-0.0296803-0.1065855-0.0050964-0.1640835,0.1296721-0.1218996c0.3907318,0.0716677,0.7470064,0.2776432,1.1622982,0.2535744
		c0.3886576,0.0752459,0.7770996,0.0818653,1.1652546-0.0031176C16.5400639,9.3054399,16.6256313,9.302474,16.7111969,9.2995071z"/>
	<path fill="#727115" d="M12.055975,12.2907915c-0.5583496-0.0002804-1.1166992-0.0005617-1.6750488-0.0008421
		c-0.2271729,0.0449171-0.4897814,0.1375551-0.3958511-0.2499704c0.0550966-0.0750475,0.1101952-0.150095,0.1654463-0.2250671
		c0.0338306-0.0075531,0.0680027-0.0118294,0.1026669-0.0127554c0.6598082,0.3258905,1.3564348,0.1906891,2.0463943,0.1389656
		c0.0481501-0.006444,0.0963011-0.012887,0.1444311-0.0193186C12.7177792,12.4053278,12.256299,12.2312822,12.055975,12.2907915z"/>
	<path fill="#040525" d="M17.611496,4.0212436c-0.9920254,0-1.9840488,0-2.9760752,0
		c-0.0007429-0.0534251-0.0014868-0.1068497-0.0022316-0.1602747C15.6266661,3.9836955,16.6178131,3.9064205,17.611496,4.0212436z"
		/>
	<path fill="#010127" d="M12.1374197,9.2010374c-0.0305452-0.0382175-0.0610924-0.0764351-0.0916367-0.1146526
		c-0.0096283-0.3041487-0.412818-0.4932404-0.2877026-0.8368816c0.0492401-0.0556898,0.1060991-0.0633354,0.1705418-0.0230331
		c0.247015,0.4326124,0.4408131,0.8994331,0.9025383,1.1940241c0.0773621,0.0731659,0.071907,0.1555376,0.0317554,0.241787
		C12.4717093,9.7085161,12.4119568,9.3110952,12.1374197,9.2010374z"/>
	<path fill="#171735" d="M16.1963482,2.0281184c0.000576-0.3502198-0.004921-0.7005804,0.0046043-1.0505931
		c0.0040417-0.1485494,0.0355759-0.3027687,0.253828-0.1371324c0.0988274,0.3570853,0.094841,0.7141506-0.0002422,1.0711987
		C16.3980656,2.006192,16.3030548,2.0281775,16.1963482,2.0281184z"/>
	<path fill="#151523" d="M13.4812613,8.82236c-0.0721216-0.480258,0.2146397-0.8177767,0.513896-1.1547408
		c0.0818195,0.424829-0.3790998,0.7282338-0.2592421,1.1527333C13.6517439,8.898036,13.5667553,8.8873777,13.4812613,8.82236z"/>
	<path fill="#121223" d="M7.2756743,9.7748041c0.2161531-0.2783003,0.4323063-0.5565996,0.6484604-0.8348989
		c0.1234584,0.0468197,0.2106519,0.1269674,0.2607036,0.2412481C7.8839803,9.4585552,7.5831232,9.7359571,7.2822647,10.01336
		c-0.0450139,0.0568123-0.089386,0.0563879-0.1331148-0.0012722C7.1913242,9.9329929,7.2334995,9.853898,7.2756743,9.7748041z"/>
	<path fill="#080824" d="M22.3946342,4.5383768c0.0834179,0.3179412,0.1668339,0.6358829,0.2502499,0.953825
		c-0.0819664,0.0601592-0.0271397,0.1805348-0.1217175,0.2351427c-0.0420341-0.0407405-0.0840683-0.081481-0.1260891-0.1222224
		C22.4286213,5.2494764,22.0575771,4.8946204,22.3946342,4.5383768z"/>
	<path fill="#050525" d="M7.1491499,10.0120878c0.0443525,0.0004244,0.0887051,0.0008497,0.1330872,0.0012732
		c-0.0686727,0.3551254,0.1242514,0.7376003-0.1318803,1.073144C7.04844,10.7284689,6.9175549,10.370451,7.1491499,10.0120878z"/>
	<path fill="#272726" d="M22.7697868,6.3199897c0.009737-0.248055,0.019474-0.4961104,0.029211-0.7441659
		c0.3587265,0.0696802,0.1852951,0.4938378,0.4765759,0.6084461c0.0096703,0.0845723,0.0193367,0.1691437,0.0290546,0.2536988
		C23.259737,6.4778056,23.214798,6.5176616,23.169857,6.5575166c-0.1279182,0.1050873-0.2565765,0.0949473-0.3857708,0.0021162
		C22.7793198,6.4797516,22.7745533,6.3998709,22.7697868,6.3199897z"/>
	<path fill="#303030" d="M16.4545383,1.9115914c0.0000648-0.3570743,0.0001316-0.7141482,0.0002193-1.0712104
		c0.2583542,0.0357127,0.5470619-0.097608,0.7730331,0.1181487c-0.9575901-0.1096548-0.5619297,0.5603675-0.6462326,0.9538692
		C16.5392132,1.9123001,16.4968758,1.912028,16.4545383,1.9115914z"/>
	<path fill="#212221" d="M13.7398577,7.1537356c0.4293509-0.0344143,0.1343327-0.4512577,0.3660688-0.5898228
		c0.0431347,0.2035241-0.0697737,0.4420471,0.1593304,0.6037207c0.044838,0.1199689-0.0419693,0.1730976-0.1336012,0.2237773
		C13.8298483,7.5522037,13.7165184,7.4487667,13.7398577,7.1537356z"/>
	<path fill="#141423" d="M12.8337746,9.6503334c-0.0008411-0.0766287-0.0016813-0.1532593-0.0025663-0.2298641
		c0.149826,0.2628345,0.7146521,0.467329,0.1375427,0.832324c-0.0441322-0.0001764-0.0883131-0.0003624-0.1324959-0.0005484
		C12.8600512,10.0515223,12.8467588,9.8509283,12.8337746,9.6503334z"/>
	<path fill="#222222" d="M7.2778115,11.3252678c0.1268449,0.2016535,0.2994852,0.3610611,0.5183182,0.4778795
		c-0.0174184,0.0992947-0.0826073,0.2447252-0.177969,0.1586552C7.4347692,11.7962799,7.0425496,11.6906252,7.2778115,11.3252678z"
		/>
	<path fill="#303030" d="M17.8736496,2.27123c-0.1286697-0.0008821-0.2573395-0.0017643-0.3859959-0.0026529
		c-0.2419415-0.2486465-0.6490593-0.1402681-0.9060326-0.3564546C17.0548077,1.9017485,17.5046387,1.9628386,17.8736496,2.27123z"/>
	<path fill="#020226" d="M11.9286222,8.22647c-0.042984,0.0000305-0.085969,0.0001125-0.128952,0.0002441
		c-0.2434464,0.0384226-0.1951237-0.198267-0.3108902-0.2803626c0.0015364-0.1460962-0.0959806-0.3022938,0.0520639-0.4333577
		c0.0099993-0.035428,0.0075359-0.0855293,0.032383-0.1034741c0.0687075-0.0496249,0.0903091,0.0022736,0.096096,0.0559716
		c0.0153742,0.1426439-0.032959,0.3021522,0.1303349,0.4040828C11.8426304,7.9885411,11.8856258,8.1075058,11.9286222,8.22647z"/>
	<path fill="#303030" d="M21.3622169,9.2980566c0.0002022-0.3287668,0.1525574-0.5974054,0.3873081-0.8334789
		C21.7494907,8.7934122,21.5973377,9.0621281,21.3622169,9.2980566z"/>
	<path fill="#1C1C22" d="M13.4812613,8.82236c0.0849161-0.0006561,0.1698303-0.0013103,0.2547007-0.0019865
		c0.1303034,0.0791969,0.2606564,0.1584148,0.390996,0.2376051c-0.0432272,0.0406017-0.0864439,0.081233-0.1296711,0.1218672
		C13.7361317,9.1701078,13.5952787,9.0127029,13.4812613,8.82236z"/>
	<path fill="#303030" d="M22.0091648,7.5116186c-0.0010567,0.2380137-0.0021133,0.4760289-0.0031986,0.7140369
		c-0.0854073,0.0795069-0.1707859,0.1590195-0.2561684,0.2385273C21.8207417,8.1430664,21.8130646,7.8037496,22.0091648,7.5116186z"
		/>
	<path fill="#111124" d="M16.4545002,9.3084068c-0.3879223,0.1755352-0.7763748,0.1713543-1.1652822,0.0030174
		C15.6776638,9.3104858,16.066082,9.3094463,16.4545002,9.3084068z"/>
	<path fill="#030325" d="M14.1316557,7.3914108c0.0444918-0.074677,0.0889845-0.1493549,0.1335402-0.2239056
		c0.0816441,0.0028863,0.1632242,0.0056429,0.2448063,0.0084c0.0589533,0.0155067,0.1038322,0.0476971,0.1346331,0.0965786
		c-0.0026693,0.0979152-0.0249147,0.1868329-0.1287556,0.2382312C14.3878107,7.4709401,14.2597332,7.4311748,14.1316557,7.3914108z"
		/>
	<path fill="#191922" d="M22.7840862,6.5596328c0.1286011-0.0006981,0.2572021-0.0013971,0.3857861-0.0021052
		c0.043499,0.0002518,0.0870171,0.0005145,0.1305313,0.0007777c-0.0993652,0.1442609-0.1842899,0.3353543-0.4071369,0.2989144
		C22.7425785,6.8325777,22.7983074,6.6681914,22.7840862,6.5596328z"/>
	<path fill="#050625" d="M18.0864334,4.4335127c0.0355854,0.2511234,0.101429,0.4794645-0.0273647,0.7364569
		C17.9824066,4.8895817,17.9667206,4.6499233,18.0864334,4.4335127z"/>
	<path fill="#010125" d="M22.5231667,5.7273445c0.0054417-0.0939398,0.0206833-0.1835623,0.1218052-0.2352262
		c0.0043774,0.2760963,0.0088406,0.5521092,0.0133553,0.8281293C22.3928852,6.1653652,22.5801201,5.9226766,22.5231667,5.7273445z"
		/>
	<path fill="#222222" d="M9.985075,12.0399799c0.0169477,0.2382689,0.2139912,0.2338457,0.3958693,0.2499027
		c-0.0840464,0.0366793-0.1680746,0.0732918-0.2520256,0.1099434c-0.1429405-0.0090113-0.299614,0.0193167-0.3941431-0.1224432
		C9.8182096,12.1982498,9.9016428,12.1191149,9.985075,12.0399799z"/>
	<path fill="#1C1C22" d="M13.9978075,9.1800613c0.1852112,0.1478348,0.4768953,0.0503769,0.644805,0.2380342
		C14.415247,9.367362,14.0820179,9.5605373,13.9978075,9.1800613z"/>
	<path fill="#D6D606" d="M21.6203194,1.3148211c-0.3999329,0.1123433-0.1928558,0.7781438-0.7758102,0.7236148
		c-0.4803257-0.0738897-0.7459145-0.4027652-1.0152931-0.7271408c0.0020885-0.1795141-0.3422585-0.2512366-0.2091312-0.4355071
		c0.1162701-0.1609409,0.3534565-0.0478736,0.5355148-0.0524476c0.4649582-0.0116817,0.9307079,0.0012696,1.3954983-0.0131909
		c0.4267597-0.0132778,0.3407383,0.1658152,0.1882095,0.3831289C21.7190533,1.2499504,21.6784306,1.2896667,21.6203194,1.3148211z"
		/>
	<path fill="#DAD905" d="M23.2755737,6.1842699c-0.1672421,0.0941114-0.351984,0.2366786-0.4026318-0.0900292
		c-0.02672-0.1723652,0.0509281-0.3573418-0.0739841-0.5183444c0.0182381-0.2544994-0.0475712-0.4945922-0.1404591-0.7314157
		c-0.0864487-0.2203975-0.0395927-0.3780851,0.2480125-0.4082294c0.3466759-0.0481424,0.6921349-0.1041069,1.0411186-0.1373668
		c0.3370419-0.0383682,0.3395634,0.1318622,0.2593403,0.3536897c-0.1598263,0.1835513-0.2206154,0.4284763-0.4255867,0.5840511
		c-0.1291695,0.1245241-0.2306843,0.262022-0.2433815,0.4411874c-0.075386,0.1765499-0.1495533,0.3536229-0.2599163,0.5151653
		L23.2755737,6.1842699z"/>
	<path fill="#111124" d="M22.7933235,4.2878461c-0.3172855-0.0216317-0.3657494-0.2991939-0.5262585-0.470083
		c0.0662746-0.1057863,0.1715946-0.154551,0.297226-0.1740654c0.4291859,0.1194475,0.8554001,0.1750872,1.2659149-0.0566828
		c0.2137775-0.0872753,0.3422756-0.250911,0.4515572-0.4315953c0.3129501-0.3304055,0.1987381-0.7519822,0.2843304-1.1309531
		c0.054081-0.0364236,0.1067715-0.0330763,0.1582336,0.0044272c0.3824615,0.5196886,0.2852116,1.0267951-0.1944523,1.3996542
		c-0.2810822,0.2184937-0.1997375,0.6313453-0.584259,0.7448421c-0.0499516,0.0428047-0.1062984,0.0765238-0.1689377,0.1013489
		C23.4508972,4.4046664,23.1206207,4.2498012,22.7933235,4.2878461z"/>
	<path fill="#151523" d="M24.7243271,2.0288932c-0.0437984,0.0006278-0.0875969,0.001255-0.1313953,0.0018826
		c-0.0253868,0.0156853-0.0507736,0.0313709-0.0759544,0.0471244c-0.0598469-0.0127246-0.1124897-0.0381525-0.1571331-0.0771453
		c-0.7178974-0.7682885-1.1172123-0.8532163-1.8175163-0.3845146c-0.0942898,0.1050209-0.1958447,0.2017052-0.3406334,0.247455
		c-0.0562229,0.0141513-0.1137047,0.0225916-0.1716652,0.0272657c-0.5471344,0.1670871-0.4502468-0.1579801-0.4009399-0.4468473
		c-0.0029202-0.0430979-0.0058441-0.0861957-0.0087681-0.129293c0.0396633-0.0405132,0.0793266-0.0810269,0.1189899-0.1215415
		c0.1327171-0.0387088,0.2654343-0.0774167,0.3981552-0.1161243c0.0860977,0.0153079,0.1722527,0.0159698,0.2584743,0.0009052
		C23.5308437,0.7246527,24.3672886,1.0662291,24.7243271,2.0288932z"/>
	<path fill="#070725" d="M19.4351387,0.5954468c-0.0023804-0.0770585-0.0047626-0.1541168-0.0070992-0.2311574
		c0.7484188,0.0003259,1.4968281-0.0023502,2.2451382,0.0043859c0.1038017,0.0009345,0.2971134-0.0373285,0.2295513,0.1569552
		c-0.0170765,0.0491064-0.1850071,0.0536007-0.2836151,0.078595c-0.6020966,0.0891191-1.2041187,0.0916532-1.806057-0.001311
		C19.6870842,0.6004254,19.5611115,0.5979361,19.4351387,0.5954468z"/>
	<path fill="#111025" d="M19.829216,1.3112952c0.4367046,0.1256863,0.6925869,0.4660891,1.0152931,0.7271389
		c-0.0021019,0.0375476-0.0022545,0.0751002-0.0004539,0.1126599c0.0350895,0.1109211-0.0068035,0.151525-0.1282806,0.119432
		c-0.2956829-0.1076286-0.4062061-0.4704139-0.7745094-0.4779683c-0.1655674-0.1728638-0.3474712-0.3251461-0.545599-0.469575
		c-0.1398621-0.1019546-0.472683-0.1994952-0.2295094-0.4842769C19.349184,1.0415585,19.5257568,1.2521241,19.829216,1.3112952z"/>
	<path fill="#202020" d="M23.805275,4.1767302c0.0467873-0.0010972,0.0935726-0.0021944,0.1403522-0.0033159
		c0.000658,0.0418,0.0013275,0.0836248,0.0020008,0.1254597c-0.3120766,0.2711668-0.6651535,0.2780194-1.0411148,0.1373615
		c0.0020714-0.046288,0.0041447-0.0925922,0.006218-0.138896C23.1913033,4.1379247,23.5266533,4.3358359,23.805275,4.1767302z"/>
	<path fill="#212120" d="M19.8130569,0.6029145c0.6020393,0.0004165,1.2040768,0.0008331,1.8060856,0.0012803
		C21.0169353,0.7904617,20.4149132,0.7923768,19.8130569,0.6029145z"/>
	<path fill="#171722" d="M22.3959408,1.07806c-0.0332527,0.0617968-0.0561962,0.1681365-0.1016808,0.1770892
		c-0.139883,0.0275331-0.1379738-0.0911882-0.1567917-0.1779878c0.0145073-0.107899,0.015871-0.2615823,0.1554832-0.2584176
		C22.4657173,0.8226603,22.3665009,0.9867754,22.3959408,1.07806z"/>
	<path fill="#181822" d="M23.7813835,5.2366252c0.1247425-0.2052922,0.1897125-0.4476247,0.4255867-0.5840511
		c0.0426311,0.0014052,0.0852699,0.0018692,0.1279297,0.0014143C24.1431904,4.8423915,24.1003857,5.1510873,23.7813835,5.2366252z"
		/>
	<path fill="#1C1C22" d="M23.2780857,6.1929779c-0.0081596-0.2123628,0.1000824-0.3747592,0.2599335-0.51508
		C23.5564175,5.8946095,23.4890919,6.0746183,23.2780857,6.1929779z"/>
	<path fill="#DDDD05" d="M12.2995825,11.9411221c-0.0015965,0.192996-0.1390448,0.2074928-0.3023376,0.2053204
		c-0.4664783-0.0062075-0.9337816-0.0214729-1.399332-0.0028286c-0.2925415,0.0117149-0.3792715-0.099226-0.3447256-0.3414583
		c0.1277037-0.2044907,0.2554064-0.4089823,0.3831091-0.6134748c0.1365213-0.0980511-0.0118179-0.352685,0.2233591-0.3807688
		c0.2325172-0.0277653,0.3322887,0.1393375,0.4094601,0.3103418C11.5277948,11.4828625,11.9503927,11.672904,12.2995825,11.9411221z
		"/>
	<path fill="#141424" d="M9.8637915,7.9881091c0.048748-0.0019889,0.0974951-0.0039778,0.146245-0.0059676
		c0.2758512,0.7061157,0.6272812,1.379076,1.0437822,2.0234919c-0.439992-0.150466-0.491004-0.5652199-0.697751-0.8740263
		c-0.1216593-0.1817179-0.2409315-0.3647928-0.3612566-0.5472479C9.9511509,8.3856163,9.9074717,8.1868629,9.8637915,7.9881091z"/>
	<path fill="#1F1F21" d="M10.2511148,9.8950233c0.0437374-0.0401344,0.0874758-0.080267,0.1312323-0.120409
		c0.3360786,0.2439032,0.5722237,0.5229445,0.3921185,0.9483442c-0.0207739,0.068882-0.0680332,0.1133204-0.1432257,0.1319771
		C10.1556606,10.6524534,10.4949017,10.1755657,10.2511148,9.8950233z"/>
	<path fill="#212121" d="M12.8337746,9.6503334c0.144021,0.2001352,0.1526518,0.4007425,0.0024719,0.6019068
		c-0.0619984-0.0078154-0.1240044-0.0156355-0.1860323-0.0234623c0.1435232-0.177578,0.1670742-0.3331852-0.0478601-0.4937029
		c-0.193223-0.1443033-0.3670645-0.3138771-0.464921-0.5340405C12.4654722,9.2243567,12.5527601,9.5650167,12.8337746,9.6503334z"/>
	<path fill="#222221" d="M10.6312389,10.8549356c0.0476961-0.0439491,0.0953932-0.0878963,0.143158-0.1319113
		c0.289608-0.000989,0.5188503,0.0622644,0.4947271,0.3952045c-0.2479563-0.259079-0.462533-0.2633839-0.632823,0.0704803
		C10.6346111,11.0774326,10.632925,10.9661846,10.6312389,10.8549356z"/>
	<path fill="#616018" d="M11.5395308,10.4950008c0.216507,0.0810003,0.362711,0.3261423,0.6518993,0.2374525
		C11.8470554,10.9765892,11.7753906,10.9504843,11.5395308,10.4950008z"/>
	<path fill="#161523" d="M8.1843872,7.875875c0.0535927-0.2779055,0.1692591-0.5268617,0.3968296-0.7236347
		C8.6058159,7.4666114,8.4421492,7.6931844,8.1843872,7.875875z"/>
	<path fill="#222221" d="M9.8649178,11.3254824c-0.0512018-0.0031567-0.1024027-0.0063143-0.1536036-0.0094728
		c0.0128765-0.4704638,0.1226568-0.9343424,0.1122084-1.4066715c0.0508509-0.0567131,0.1076088-0.0621471,0.1701088-0.016593
		C10.2011223,10.3894548,10.2402191,10.8732986,9.8649178,11.3254824z"/>
	<path fill="#161623" d="M9.9936314,9.892745C9.9448586,9.8950033,9.8960867,9.8972626,9.8473148,9.8995199
		c-0.3330154,0.0007458-0.4944801-0.159811-0.5080023-0.4594698C9.3419113,9.392848,9.3445091,9.3456478,9.3471079,9.2984457
		C9.6127796,9.4501362,9.8268051,9.6496077,9.9936314,9.892745z"/>
	<path fill="#040425" d="M8.1848383,9.1811533C8.0979509,9.1007471,8.0110645,9.02034,7.9241552,8.9399185
		c0.0433769-0.0345602,0.0867748-0.0691051,0.1301908-0.1035156c0.0770254,0.2294254,0.3753357,0.1726294,0.50562,0.3327513
		C8.4348211,9.1730909,8.3098297,9.1771221,8.1848383,9.1811533z"/>
	<path fill="#141424" d="M9.7213469,5.8407292c-0.0032082,0.2795773-0.0064154,0.559154-0.0097675,0.8386965
		C9.5505867,6.3981881,9.537158,6.1184654,9.7213469,5.8407292z"/>
	<path fill="#222221" d="M11.540844,7.5129938c0.0068626,0.1522455,0.0137253,0.3044901,0.0205879,0.4567356
		c0.0483351,0.0667992,0.0370445,0.1235018-0.0338717,0.1701069c-0.5768986-1.2883844-0.5026999-2.5375481,0.2652569-3.7449293
		c-0.1013765,0.6337333-0.4209709,1.2210221-0.4333963,1.8780022C11.3513336,6.7005072,11.3714695,7.1129074,11.540844,7.5129938z"
		/>
	<path fill="#212121" d="M11.5275602,8.1398363c0.0112257-0.056612,0.0224533-0.113225,0.0337772-0.1699724
		c0.079524,0.0855246,0.1589527,0.1711845,0.2383575,0.2568464C11.7287159,8.550518,12.1630478,8.7512999,12.045785,9.086381
		C11.7912369,8.8089571,11.6009541,8.5016079,11.5275602,8.1398363z"/>
	<path fill="#303030" d="M18.7780399,1.4351264c-0.2210598,0.0111432-0.4184685-0.021372-0.5162144-0.2378356
		C18.4667282,1.2159755,18.647049,1.2800246,18.7780399,1.4351264z"/>
	<path fill="#212121" d="M18.1073112,7.042695c0.3127213,0.5887432,0.1658306,1.162674-0.3921242,1.5320654
		C18.0638771,8.1115198,18.1746578,7.5964942,18.1073112,7.042695z"/>
	<path fill="#1D1D22" d="M17.7178516,6.4517255c0.3118668,0.0998826,0.4536057,0.2952542,0.3971481,0.6018915
		C17.9825802,6.8530235,17.8502159,6.6523743,17.7178516,6.4517255z"/>
	<path fill="#212221" d="M16.4535141,7.7528887c0.012188-0.1700249-0.026619-0.327498-0.1354065-0.4676571
		c0.0485191-0.0053205,0.0970745-0.0107417,0.1456356-0.0161638C16.6592007,7.4339175,16.7333202,7.5965853,16.4535141,7.7528887z"
		/>
	<path fill="#303030" d="M20.9748459,5.1285744c0.0281601-0.7918296-0.5771465-1.3109188-1.0528984-1.8280549
		c-0.7533722-0.8189037-1.7255726-1.4058357-2.9045792-1.6279793c-0.1006603-0.0189654-0.2392941,0.0001762-0.2397041-0.1361018
		c-0.0004311-0.1432116,0.1317291-0.2187121,0.2602348-0.2033566c0.3148975,0.0376278,0.6441174,0.0629485,0.9345913,0.1696119
		c1.4325867,0.5260525,2.5220451,1.4205527,3.2607517,2.6727633c0.0877419,0.1979675,0.0713959,0.4343324,0.2583942,0.5956845
		c0.4207287,1.4629421,0.3133354,2.8814635-0.3539658,4.2750468c-0.1870022,0.3905315-0.4983406,0.6847868-0.7291317,1.037302
		c-0.0779381,0.1190519-0.1760826,0.3169861-0.3949223,0.1624155c-0.1936722-0.1367931-0.2686481-0.3085661-0.0870762-0.5091171
		c0.2191849-0.242095,0.4201412-0.5008774,0.6608391-0.7230968c0.3151264-0.2909317,0.4289818-0.6289682,0.3874664-1.0256553
		C21.1909676,7.0348825,21.2598095,6.0817285,20.9748459,5.1285744z"/>
	<path fill="#303030" d="M20.9748459,5.1285744c0.4861317,0.3039823,0.3270607,0.8121719,0.3552094,1.206552
		c0.0394249,0.5524802,0.0967903,1.1655297-0.3552094,1.6529102c-0.0430393-0.0397034-0.0860786-0.0794058-0.129118-0.1191082
		c0.0623856-0.8737593,0.1665001-1.7475176,0.0000782-2.6212826C20.8888206,5.2079554,20.9318314,5.1682649,20.9748459,5.1285744z"
		/>
	<path fill="#303030" d="M20.8458061,5.2476459c0.284668,0.8737683,0.2157211,1.7475271-0.0000782,2.6212826
		c-0.1790714,0.2743974-0.1448822,0.6611533-0.5166817,0.8340106C20.8784599,7.55023,21.0002499,6.3582258,20.71525,5.12884
		c0.043354-0.0471878,0.0868187-0.0472803,0.1303978-0.0002656C20.8456879,5.1682649,20.8457413,5.2079554,20.8458061,5.2476459z"/>
	<path fill="#303030" d="M22.0089722,5.4856062c0.2075024,0.6754632,0.2083855,1.3509192-0.0000763,2.0263734
		C22.0089245,6.8365245,22.0089493,6.1610661,22.0089722,5.4856062z"/>
	<path fill="#303030" d="M20.8456478,5.1285744c-0.043457,0.0000868-0.0869122,0.0001736-0.1303844,0.0002632
		c-0.2035503-0.1549797-0.2628727-0.3635731-0.2602329-0.5952067C20.7589722,4.6349192,20.6973438,4.9403625,20.8456478,5.1285744z"
		/>
	<path fill="#303030" d="M19.9408016,9.2985439c0.0297165-0.2537384,0.2200336-0.4184551,0.3881359-0.5954866
		C20.3596706,8.9903049,20.2050209,9.1747913,19.9408016,9.2985439z"/>
	<path fill="#303030" d="M20.3280048,4.2963753c-0.2572212-0.1281137-0.3402596-0.3531258-0.3902645-0.5965283
		C20.2036629,3.8230972,20.2841759,4.0495291,20.3280048,4.2963753z"/>
	<path fill="#303030" d="M21.4916363,4.7711415c-0.3010674-0.1192722-0.2564964-0.3660502-0.2583942-0.595685
		C21.4086895,4.3410702,21.4360886,4.5612974,21.4916363,4.7711415z"/>
	<path fill="#303030" d="M21.879221,4.8907199c0.2157154,0.1664128,0.0987244,0.3945193,0.1297817,0.5951748
		C21.79245,5.3196411,21.9107666,5.0912852,21.879221,4.8907199z"/>
	<path fill="#F8F701" d="M9.3393126,9.4400501c0.1693354,0.1531553,0.3386698,0.3063126,0.5080032,0.4594698
		c0.2499466,0.496273,0.1720905,0.9657812-0.1359987,1.4164906c-0.4597616,0.3285542-0.9400787,0.5560293-1.529911,0.2760067
		c-0.6006446-0.2851572-0.8994784-0.908308-0.686285-1.4372358C7.7668004,9.4807529,8.4415569,9.2192459,9.3393126,9.4400501z"/>
	<path fill="#020226" d="M22.5182629,3.7059841c-0.0539379,0.0942068-0.1492996,0.1092467-0.2511997,0.1117818
		c-0.1742687-0.0778716-0.3015347-0.1993475-0.3896561-0.3571596c-0.0854721-0.1589801-0.1709232-0.3179607-0.2563763-0.4769421
		c-0.0962582-0.3191752-0.1155567-0.6375055,0.0119648-0.9538639c0.2663097-0.0380542,0.2271996,0.1680865,0.2601128,0.2956569
		c0.0518379,0.2009213-0.0028439,0.420789,0.1223965,0.6098311c0.0350513,0.0462074,0.065815,0.0952063,0.0954304,0.1443529
		C22.2062607,3.3103607,22.4771137,3.4450374,22.5182629,3.7059841z"/>
	<path fill="#090926" d="M21.748354,2.0308049c-0.2548618,0.293483-0.0711784,0.6368017-0.1273251,0.9528632
		c-0.1630096-0.5139818-0.3414898-1.0280282,0.0079918-1.5396594c0.1195164,0.1219555,0.0112629,0.4544476,0.3779984,0.3475405
		C22.0507145,1.9907503,21.9635735,2.0696559,21.748354,2.0308049z"/>
	<path fill="#181822" d="M20.7157745,2.2705259c0.0427761-0.0398173,0.0855503-0.0796351,0.1283054-0.1194422
		c0.118391,0.0687737,0.2910137,0.0799773,0.3233757,0.2374408c0.0054283,0.0264173-0.0729504,0.0933723-0.1180019,0.09813
		C20.8768101,2.5048854,20.7856846,2.3975377,20.7157745,2.2705259z"/>
	<path fill="#181823" d="M14.6446352,7.2724838c-0.044879-0.0322866-0.0897598-0.0645738-0.134635-0.0967193
		c0.5647297,0.0213661,1.1404247-0.1326513,1.6925964,0.0901761C15.6833181,7.2680821,15.1639767,7.2702832,14.6446352,7.2724838z"
		/>
	<path fill="#1C1C21" d="M15.0230455,7.4582739c0.3839598-0.0784273,0.6744528-0.1115522,0.9540291,0.0679584
		C15.6832848,7.6235662,15.3897038,7.7168212,15.0230455,7.4582739z"/>
	<path fill="#010126" d="M23.805275,4.1767302c-0.2672043,0.231041-0.5965347,0.0708771-0.8925438,0.1205778
		c-0.0398827-0.0030971-0.0797691-0.0062213-0.1195297-0.0094018C23.1059475,4.0595584,23.4695854,4.2263646,23.805275,4.1767302z"
		/>
	<path fill="#1B1B22" d="M22.5182629,3.7059841c-0.2190933-0.1681833-0.5135899-0.2855256-0.4896545-0.6175759
		c0.0644073-0.011451,0.1445847-0.0210238,0.1856384,0.0181005c0.4827499,0.4600892,1.1070766,0.4384873,1.7256508,0.4406083
		c0.0358677,0.0322955,0.0487461,0.0655966,0.039032,0.0998023c-0.0098438,0.0346501-0.0203514,0.0519783-0.0315533,0.0519783
		C23.4723225,3.9270947,22.9964695,4.0183029,22.5182629,3.7059841z"/>
	<path fill="#1C1C22" d="M24.4392624,2.0539813c0.0512199-0.0077348,0.1024361-0.0154696,0.1536617-0.0232046
		c0.1644173,0.4470305,0.1767769,0.8675439-0.2484913,1.2117341c-0.0222569-0.0246069-0.0445137-0.0492136-0.0670986-0.0737166
		C24.2544861,2.7877779,24.2258301,2.4058986,24.4392624,2.0539813z"/>
	<path fill="#141423" d="M23.9473763,3.6988976c-0.0027351-0.0462663-0.0054722-0.0925319-0.0082073-0.1387982
		c-0.0156326-0.2429106,0.1197186-0.352381,0.3723011-0.3582408c0,0,0.0328751,0.0403588,0.0329189,0.0405054
		C24.3091412,3.4664516,24.1501827,3.5988951,23.9473763,3.6988976z"/>
	<path fill="#F9F701" d="M24.31147,3.201859c-0.1240978,0.1194148-0.2481976,0.2388294-0.3722973,0.3582423
		C23.155653,3.9080744,22.543211,3.666729,22.028595,3.0884182c0.0000134-0.00001,0.0021172,0.004741,0.0021172,0.004741
		c-0.3455257-0.4643347-0.2790051-0.8928742,0.1319256-1.2914946c0.1201-0.0380207,0.1998291-0.1132033,0.2416668-0.2232671
		c0.8790131-0.5410055,1.373497-0.4256912,2.0388126,0.4754541c0,0-0.0038357,0.0001163-0.0038452,0.0001228
		C24.5245228,2.4487119,24.5156307,2.8345292,24.31147,3.201859z"/>
	<path fill="#1C1C22" d="M24.4431171,2.0538516c-0.7987595-0.8091072-1.0467167-0.8669323-2.0388126-0.4754578
		C23.0624466,0.8907104,24.1067696,1.1342477,24.4431171,2.0538516z"/>
	<path fill="#1B1B22" d="M22.1626377,1.8016646c-0.2419186,0.4132984-0.297718,0.8427746-0.1319656,1.2915006
		c-0.5241203-0.256933-0.1864758-0.7086267-0.282299-1.0623612c0.12393-0.045058,0.209856-0.1250846,0.2586613-0.2392429
		C22.0588932,1.7949209,22.1107635,1.7982926,22.1626377,1.8016646z"/>
</g>
</svg>
