<?xml version="1.0" encoding="utf-8"?>
<!-- Generator: Adobe Illustrator 24.1.1, SVG Export Plug-In . SVG Version: 6.00 Build 0)  -->
<svg version="1.1" id="Слой_1" xmlns="http://www.w3.org/2000/svg" xmlns:xlink="http://www.w3.org/1999/xlink" x="0px" y="0px"
	 viewBox="0 0 32 13" enable-background="new 0 0 32 13" xml:space="preserve" width="32px" height="13px">
<g>
	<path fill="#242423" d="M25.6036339,1.4122897c0.5750637,0.6959895,0.5098667,1.4278141,0.0827065,2.1414647
		c-0.9045391,1.5112069-1.8425179,3.0056632-2.758604,4.5111485c-0.2283974,0.37535-0.4272614,0.7658005-0.6369991,1.1505375
		c-1.2669487,2.3240442-3.3010387,3.6380959-6.1531773,3.7177753c-2.4452648,0.0683126-4.8951063,0.0243912-7.3424969-0.0024948
		c-2.3335619-0.0256329-3.5006433-1.8508759-2.3949399-3.7229185c0.5484581-0.9285841,1.087183-1.8637176,1.7377706-2.7387791
		c0.0244818,0.0168548,0.0489635,0.0337105,0.0736694,0.0504408c0.1588383,0.4306817-0.2652016,0.7170167-0.3237247,1.0946813
		c-0.7223063,0.7734857-1.1748252,1.6829906-1.5051899,2.6358914c-0.290925,0.8391466,0.5282874,1.9769173,1.531126,2.2250977
		c0.7591801,0.1878796,1.5340109,0.0949373,2.3037748,0.1073313c0.6622992-0.0011435,1.3237476-0.002017,1.9847889-0.0016174
		c1.6040888-0.0410986,3.2184258,0.1361332,4.8123827-0.0989466c2.194952-0.3237143,3.8269119-1.3897171,4.8182678-3.2314835
		c0.3961449-0.9379244,1.0892754-1.7348723,1.5179863-2.658946c0.0680885-0.1467586,0.1290894-0.288291,0.1448326-0.4460726
		c0.0772896-0.3593459,0.2517757-0.665689,0.5810318-0.8872204c0.892189-1.0029125,1.737833-2.0211754,1.4002876-3.4414575
		c-0.0313072-0.1317276-0.0967274-0.2593027-0.0424976-0.3985356C25.4893723,1.3769416,25.5457344,1.3750845,25.6036339,1.4122897z"
		/>
	<path fill="#444445" d="M25.6036339,1.4122897c-0.0489426,0.0036932-0.0978832,0.0073866-0.1468258,0.0110795
		c-0.5793915-0.4752632-1.1389484-0.9839165-1.9982777-0.9889807c-2.6525326-0.0375056-5.3033199-0.0673574-7.9532442,0.0185135
		c-0.1450148,0.0420035-0.2948942,0.0568548-0.4456749,0.0641634c-0.2913303-0.0264358-0.5660057,0.0784513-0.8524323,0.0954651
		c-0.1502886-0.0033256-0.2915144-0.0275099-0.3893299-0.1468905c0.7108831-0.3031494,1.4700422-0.418351,2.2426291-0.422195
		c2.3374996-0.0116297,4.6755543-0.0260782,7.012516,0.0091944C24.163229,0.069095,25.1443958,0.3627408,25.6036339,1.4122897z"/>
	<path fill="#2C2C2B" d="M8.1378937,6.4690237C8.9111652,5.1490264,9.6153259,3.790946,10.5545845,2.559936
		c0.4387989-0.5750967,0.993968-1.0689369,1.7001743-1.3892521c0.0564356-0.0330037,0.115284-0.0355463,0.1762295-0.0118921
		c0.1043444,0.4973602-0.4661913,0.5168878-0.6720295,0.7947038c-0.2840052,0.1213176-0.5322294,0.277096-0.6404066,0.5657325
		c-0.0833855,0.1685743-0.2190151,0.2952554-0.3819466,0.3996992c-0.1399298,0.0791919-0.2226019,0.197933-0.2748499,0.33775
		c-0.0204029,0.0460472-0.0461693,0.0891116-0.0747595,0.1310649c-0.0759792,0.103641-0.1489439,0.2089021-0.2207766,0.3149421
		c-0.0988951,0.1251268-0.1699162,0.2631621-0.2273045,0.4081187C9.9161348,4.1607647,9.8881845,4.2076979,9.8570728,4.2534838
		c-0.3100491,0.6225224-0.7549686,1.174037-1.111433,1.7722669C8.6200905,6.2364492,8.5297451,6.5105743,8.1764851,6.5100341
		L8.1378937,6.4690237z"/>
	<path fill="#30302E" d="M12.4366293,1.200407c-0.0606174-0.0099057-0.1212339-0.0198113-0.1818609-0.0297199
		c0.4518509-0.3631296,0.9823837-0.5805494,1.5630856-0.7050449c0.1385775,0.0079787,0.2771606,0.0159592,0.4157429,0.02394
		c0.0083618,0.0608367-0.0114422,0.1126856-0.0589848,0.155893C13.5833778,0.7987598,13.0906067,1.2106532,12.4366293,1.200407z"/>
	<path fill="#212121" d="M21.971487,9.2062407c-0.4165974,1.2055759-1.3478432,2.0210686-2.4853191,2.6494408
		c-1.1123199,0.6144762-2.3354073,0.9074001-3.6452351,0.892292c-1.1825676-0.0136414-2.3654594-0.0035973-3.5482092-0.0039978
		c-0.0405035-0.035676-0.0657749-0.0788088-0.0778875-0.1284275c-0.6750383-0.3104906-1.3469963-0.3261099-2.0162954,0.0076771
		c-0.0268764,0.0451336-0.0614586,0.0848455-0.1013994,0.1207132c-0.6591825-0.0372486-1.3211546,0.0681505-1.9801064-0.0711641
		c-1.6021123-0.3387194-2.3787036-1.6964321-1.6979446-3.0673695C6.7425256,8.9540615,7.1629138,8.343317,7.5255218,7.7075772
		c0.091887-0.1610999,0.2320666-0.1440625,0.3777065-0.1533885c0.0119486,0.0244274,0.0238957,0.0488544,0.0362124,0.073174
		c-0.0087261,0.2746344-0.2598491,0.4468474-0.3460755,0.679913C7.537941,8.4570818,7.7187819,8.2757101,7.768311,8.3445988
		C7.944272,8.429471,8.1360531,8.482419,8.2990751,8.5881281C8.3294506,8.6359205,8.336957,8.6866245,8.3223724,8.7402916
		C8.2359962,8.8547173,8.0959778,8.905158,7.9791555,8.9831476C7.7784357,9.1811018,7.6817312,9.4421825,7.4665327,9.6368933
		c-0.4790077,0.4334049-0.6916571,0.9184418-0.2101502,1.475049c0.2607112,0.3658943,0.5997491,0.6463614,1.0490518,0.8064871
		c0.0764322,0.0312958,0.1519279,0.065239,0.2363291,0.0761118c0.3502359,0.0913248,0.6238155-0.2492199,0.9747305-0.1463022
		c0.2286625,0.2498035,0.3262281-0.1059189,0.5043516-0.0932426c0.0589294,0.0050421,0.1119003,0.0235662,0.1590996,0.0560904
		c0.5433035,0.3557816,1.1543112,0.158514,1.7370968,0.1662798c0.1279497,0.0017052,0.0729475-0.1569405,0.0799532-0.2478008
		c0.0190525-0.0597858,0.1218796-0.111659,0.1146612-0.1250134c-0.2650757-0.490571,0.1423025-0.7323332,0.4464293-1.004467
		c0.1369829-0.1225739,0.2654505-0.2499676,0.3795843-0.3785944c-0.0067215,0.0063314,0.0110168-0.0228472,0.0110168-0.0228472
		s-0.0265951,0.0246058-0.0304832,0.0290346c-0.1024036,0.1043091-0.1881599,0.2212944-0.3587294,0.2257099
		c-0.0585909-0.004715-0.1106367-0.0237007-0.1570044-0.0566673c0.1037254-0.2842731,0.0818348-0.5703993,0.01439-0.8562241
		c0.2288647-0.1536827-0.0183296-0.228301-0.0792198-0.313714c-0.3274384-0.4593067-0.6215811-0.9285841-0.6932125-1.4867802
		c-0.028821-0.3444233-0.0953016-0.6813478-0.2292671-1.0057201c-0.0227013-0.1172428-0.0218143-0.2346635-0.0050907-0.3521366
		c0.0875025-0.330821,0.2054939-0.6564164,0.21315-1.0013118c0.017066-0.0738015,0.017416-0.1505904,0.0395708-0.2240944
		c-0.0467138,0.0642819-0.0362549,0.142549-0.0620594,0.2122951c-0.0269079,0.0727262-0.0309973,0.1501651-0.0414724,0.2270637
		c-0.3507633,0.9849486-0.0168867,1.9124503,0.2830362,2.8419757c0.0454521,0.1408663,0.2038689,0.2635736,0.0691757,0.4283533
		c-0.2698278,0.0315399-0.3973398-0.143652-0.4816799-0.3196516c-0.6971645-1.4548111-0.695014-2.8913498,0.1699562-4.2961564
		c0.0749578-0.1217403,0.1807413-0.2193198,0.3319778-0.2622781c0.2034292,0.1037102,0.341692,0.0354657,0.4706507-0.1281865
		c1.876256-2.3810446,5.9932604-1.8801458,7.5029211,0.3462303c0.9001408,1.6862988,0.9419518,3.33988-0.223444,4.9495444
		c-0.1029072,0.1421394-0.2687016,0.2639618-0.2286797,0.4661055c-0.0748501,0.3939934,0.1721992,0.6434841,0.469614,0.8685532
		c0.1058807,0.0774202,0.2230854,0.1078033,0.3572235,0.0685539c0.2625427-0.1409245,0.4564323-0.3292351,0.5239658-0.6086664
		c0.1402931-0.2773924,0.2273331-0.5992203,0.6406002-0.6524401c0.0920467,0.0705748,0.0902081,0.1602898,0.0619221,0.2553616
		c0.0425777-0.0652561,0.0522289-0.1444693,0.1028233-0.2060604C21.7000408,9.2368994,21.8023834,9.1494608,21.971487,9.2062407z"/>
	<path fill="#222222" d="M23.6541023,0.3560745c0.8542976-0.0018277,1.4305668,0.3886748,1.8027039,1.0672605
		c0.3779716,0.6617439,0.3949547,1.3436232,0.054657,2.0096128c-0.293581,0.5745623-0.6435471,1.1256478-0.9846783,1.6788204
		c-0.0675907,0.1096034-0.1261139,0.3092313-0.3608818,0.2000566c-0.088562-0.3478084,0.1475563-0.5636692,0.3782539-0.7828832
		c0.0165939-0.0157681,0.0529594-0.0321598,0.0337849-0.066812c-0.042635,0.0484414-0.0980167,0.0603361-0.1629143,0.0471363
		c-0.1202793-0.0959253-0.1551075-0.2301078-0.1983871-0.3607264c-0.1931667-0.3488462,0.0403233-0.5980396,0.2451248-0.8488584
		c0.3353195-0.4106574,0.4519806-0.8374479,0.1450787-1.304769c-0.1955509-0.2516284-0.4379158-0.4582407-0.7208557-0.6258287
		c-0.1137791-0.0719401-0.217289-0.1571499-0.3413906-0.2152007c-0.2733269-0.0933483-0.5462799-0.0893999-0.8189106-0.0013942
		c-0.072834,0.0378202-0.1441441,0.0776627-0.2163696,0.1160783c-0.4793396,0.2234666-0.2457695-0.3476888-0.5028343-0.3748351
		c-0.1082687-0.0573102-0.1997604-0.1249557-0.2004108-0.2530404c0.0766239-0.1877306,0.2077389-0.3161618,0.4370537-0.3392216
		C22.7133236,0.3292687,23.1884594,0.2402982,23.6541023,0.3560745z"/>
	<path fill="#1E1E20" d="M21.971487,9.2062416c-0.1088753,0.0852594-0.2149162,0.1738482-0.3279476,0.2542295
		C21.5946426,9.495245,21.591608,9.6439505,21.485199,9.5409508c-0.0443268-0.0429049-0.0219078-0.1434174-0.0298386-0.2177343
		c-0.2019234-0.2856493,0.0441933-0.5133705,0.1358261-0.7501955c0.1188393-0.3071461,0.2215004-0.6189051,0.3380489-0.9263744
		c0.0201836-0.0558023,0.0449505-0.1101127,0.070694-0.1638207c0.2769108-0.6676311,0.2665482-1.3443918,0.0780125-2.0261536
		c-0.0303078-0.0481763-0.0538387-0.0994678-0.0738106-0.1517797c-0.063118-0.3348427-0.0736809-0.6876535-0.3795261-0.9414535
		c-0.1158428-0.1213655-0.182291-0.2688985-0.2620811-0.409791c-0.0531082-0.0980473-0.1043034-0.196677-0.0657158-0.3109262
		c0.1382008-0.1777165,0.2994003-0.1527071,0.4705067-0.0454171c0.2677212,0.1799262,0.4170227,0.442349,0.5789661,0.6965499
		c0.0490055,0.0705552,0.0762177,0.1468964,0.0748405,0.2309752c-0.0916462,0.3095131,0.1110382,0.579484,0.1415119,0.8725648
		c-0.0229893,0.2430186-0.0050812,0.4854074-0.0004959,0.7279968c-0.0140972-0.2335901-0.0351028-0.4667797,0.0368443-0.6982336
		c0.0669765-0.0251975,0.1269608-0.0155268,0.1809273,0.0282111c0.2226238,0.2987976,0.1088333,0.63904,0.1439877,0.9581952
		c0.0130558,0.0982599,0.0433559,0.1625929,0.1573238,0.0613022c0.0729733-0.0675864,0.1543827-0.1238785,0.2302876-0.1863985
		c0.1028519-0.0678844,0.1652393-0.2119784,0.336525-0.1523213c0.0896397,0.3627319-0.1933842,0.6328535-0.3392963,0.908277
		C22.9148216,7.787971,22.423912,8.4885902,21.971487,9.2062416z"/>
	<path fill="#212121" d="M8.1764851,6.5100341C8.7123203,5.9294496,9.061451,5.2433839,9.4702082,4.5912685
		c0.1045523-0.1667991,0.1474342-0.3715043,0.3695536-0.457757c0.1983633,0.2066822,0.0649719,0.408514-0.0087004,0.6117501
		c-0.1202822,0.2543421-0.2223129,0.512455-0.2006378,0.7973437C9.6391754,6.3051739,9.4694939,7.056828,9.4743662,7.8178997
		C9.4592705,7.8786926,9.4312716,7.9354959,9.3930368,7.9871531C9.0627213,8.1035566,9.0929937,7.840528,9.0241241,7.6883516
		c-0.1178493-0.2604012-0.03333-0.5842004-0.2991028-0.7962265C8.4260769,6.8435779,8.4116144,7.1015215,8.2816496,7.2341166
		C8.1665783,7.3515167,8.1712122,7.5872684,7.9038267,7.5547242c0,0-0.0005865-0.0005245-0.0005927-0.0005302
		C7.698173,7.1413932,8.2353125,6.8908596,8.1764851,6.5100341z"/>
	<path fill="#070725" d="M23.6480331,6.1361465c-0.0854721,0.079721-0.1709423,0.1594415-0.2564144,0.239162
		c-0.1208668,0.0447125-0.1708393-0.0251136-0.2122421-0.1092286c-0.0303402-0.4016557,0.2210407-0.6960521,0.4543018-0.997334
		c0.2042675-0.1485271,0.3399162-0.3398514,0.416029-0.5680108c0.0471611-0.1003203,0.1103611-0.1888022,0.2164001-0.2456479
		c0.060009-0.0191655,0.1128082-0.0082822,0.1582794,0.0323081c0.0473652-0.0386767,0.0879993-0.0950599,0.1433811-0.1126566
		c0.1558285-0.0495129,0.1129131,0.0786767,0.089735,0.1194749c-0.1567516,0.2759218-0.326231,0.545805-0.4915962,0.817626
		C23.9360905,5.5565839,23.702528,5.7993765,23.6480331,6.1361465z"/>
	<path fill="#232323" d="M12.2920141,12.6269341c0.0000143,0.0390253,0.0002441,0.0780497,0.000701,0.1170559
		c-0.7318468-0.0000162-1.4637003-0.0000191-2.1955643-0.0000362c0.0005016-0.0392227,0.0008173-0.0784321,0.0009346-0.1176424
		C10.8294878,12.3508272,11.5607996,12.348074,12.2920141,12.6269341z"/>
	<path fill="#22222D" d="M23.6541023,0.3560745c-0.5183372,0.0014551-1.0366707,0.00291-1.555006,0.0043649
		c-0.4197559,0.2728744-0.9008694,0.155153-1.3581448,0.1699611c-0.4866161,0.015758-0.9743862,0.0065425-1.4615173-0.0001481
		c-0.7776585,0.043898-1.5551987-0.028729-2.3330116-0.0021673c-0.5204105-0.0661138-1.0776625,0.1413504-1.5643435-0.1752778
		c0.1382494-0.1257815,0.3160563-0.1002909,0.4839439-0.100382c2.4354391-0.0013217,4.8708773-0.0012099,7.3063154,0.0003127
		C23.3399887,0.2528431,23.5183239,0.2255776,23.6541023,0.3560745z"/>
	<path fill="#0D0D24" d="M15.3820791,0.3528072c0.5172663,0.0028868,1.0345335,0.0057737,1.5517988,0.0086603
		c0.2107201,0.1075847,0.4425831,0.1143419,0.6749287,0.1172615c0.2470741,0.0031049,0.4693661,0.0405571,0.5334759,0.3080764
		c-0.016798,0.0975154-0.0784531,0.1652749-0.169384,0.213692c-0.3364887,0.0785755-0.6393356-0.0670946-0.9563313-0.1200573
		c-0.1267185-0.0179161-0.2523899-0.040608-0.3762741-0.0707421c-0.4075241-0.092213-0.8150291-0.0853892-1.2227154-0.000104
		c-0.1622534,0.0334708-0.3239975,0.0406874-0.4847221-0.0070269c-0.0940266-0.0335882-0.1650534-0.0912483-0.2127132-0.1725023
		c-0.0609598-0.22645,0.1864376-0.1807873,0.2837582-0.2678266C15.1299591,0.3590944,15.2560196,0.3559508,15.3820791,0.3528072z"/>
	<path fill="#22222D" d="M15.0039005,0.3622381c-0.087245,0.0769112-0.1744909,0.1538221-0.2617359,0.2307332
		c-0.1318808,0.1296594-0.2848597,0.1271452-0.4483042,0.0600143c-0.0226498-0.0215032-0.045188-0.0432487-0.067728-0.0649942
		c0.0006342-0.0329956,0.0030899-0.0658773,0.0074167-0.0985273C14.486352,0.4268588,14.7299995,0.3181054,15.0039005,0.3622381z"/>
	<path fill="#171723" d="M12.4366293,1.2004073c0.5812492-0.2413621,1.1153545-0.5978358,1.7895231-0.6123374
		c-0.00002-0.0000783,0.0021877,0.009441,0.0021877,0.009441c0.0536766,0.0840653,0.0169134,0.1555999-0.0365343,0.2248536
		c-0.04037,0.0393741-0.0880709,0.0700395-0.1413956,0.0928695c-0.1479387,0.0538149-0.3296299,0.0551262-0.4078417,0.218996
		c-0.0658979,0.1137816-0.1640778,0.2027736-0.2618284,0.292632c-0.3215399,0.2197247-0.6530981,0.4244342-1.0240774,0.5697827
		c-0.2528362,0.0697761-0.4287138,0.237597-0.6078424,0.4010267c-0.1046038,0.0901082-0.2062283,0.1838598-0.3385382,0.2416859
		c-0.0574255,0.0137181-0.1146278,0.0123968-0.1715641-0.0029404c-0.0796413-0.0410118-0.1290827-0.1031523-0.1520386-0.1834238
		c0.0842867-0.2717361,0.3424339-0.3990066,0.5589771-0.5609057C11.9093142,1.6615275,12.1729727,1.4309673,12.4366293,1.2004073z"
		/>
	<path fill="#030325" d="M11.129817,2.4804373c0.042572,0.0396254,0.085144,0.0792508,0.1277161,0.1188762
		c0.1037788,0.2532501-0.1794281,0.3547943-0.2511654,0.5396764c-0.0275936,0.0460169-0.0590086,0.0896225-0.0915604,0.1326816
		c-0.2649279,0.3445811-0.5432491,0.6819744-0.6731586,1.0962393c-0.1304789,0.2551475-0.1136036,0.5855451-0.4489555,0.735734
		C9.5875378,5.0089884,9.6255455,4.8699059,9.7091093,4.722507c0.0435505-0.196331,0.0871019-0.392663,0.1306515-0.588995
		c0.000001-0.0000005-0.0000792,0.0001025-0.0000792,0.0001025c0.0975599-0.1169033,0.0794773-0.2917829,0.2292128-0.3825054
		c0.1335506-0.1267977,0.1549463-0.3148623,0.2883644-0.4417672l0.000679-0.0010808
		c0.0981226-0.1509221,0.1098166-0.3430967,0.2663317-0.4661481c0.1663475-0.0835299,0.2913952-0.2038703,0.38029-0.3564346
		C11.043457,2.4269249,11.0852098,2.4251776,11.129817,2.4804373z"/>
	<path fill="#1F1F2A" d="M11.129817,2.4804373c-0.0417738,0.0017622-0.0835476,0.0034826-0.1252909,0.0052013
		c0.0633421-0.3335273,0.283432-0.5256305,0.6411438-0.5935513C11.473711,2.0882041,11.3017645,2.2843211,11.129817,2.4804373z"/>
	<path fill="#212121" d="M10.0992613,3.7812428c-0.086525,0.1174574-0.1730518,0.2349138-0.2595778,0.3523717
		C9.8297768,3.9322197,9.8664513,3.751895,10.0966301,3.659106C10.1331615,3.6856,10.14571,3.7125194,10.1343365,3.7398856
		C10.1228828,3.7674496,10.1112118,3.7812428,10.0992613,3.7812428z"/>
	<path fill="#1F1F2A" d="M10.0992613,3.7812428c-0.0008669-0.0406914-0.0017357-0.0813832-0.0026169-0.1221058
		c0.0041714-0.1680903,0.0872755-0.2870314,0.260602-0.3498113C10.3376627,3.4969697,10.2607708,3.6584301,10.0992613,3.7812428z"/>
	<path fill="#1F1F2A" d="M10.6242695,2.842113c-0.0346346,0.1812348-0.0995235,0.3480265-0.2663517,0.4661472
		C10.3460512,3.1048317,10.3761501,2.9214418,10.6242695,2.842113z"/>
	<path fill="#FDFC00" d="M10.8824596,3.1903749c0.0309086-0.0206482,0.0345955-0.0447726,0.0110607-0.0723722
		c0.1534624-0.184808,0.3712873-0.3170094,0.5059814-0.5171573c0.0825872-0.075279,0.1651754-0.150558,0.2477627-0.2258379
		c0.2340841-0.1421206,0.4050932-0.3571081,0.6588879-0.4764552c0.3417168-0.1938807,0.6834316-0.3877617,1.0251474-0.5816427
		c1.1120539-0.6890337,2.3593559-0.6274984,3.6100473-0.5435537c0.7112885,0.2363138,1.508831,0.2343669,2.1577148,0.6458894
		c0.5808125,0.3550686,1.1625023,0.7102829,1.6231327,1.2019192c0.0631046,0.0591724,0.1190701,0.1237071,0.1700554,0.1918406
		c0.1129074,0.1930485,0.3095341,0.3360076,0.3953991,0.5460427c0.0278072,0.5330105-0.5380898,0.5647821-0.8336334,0.8257549
		c-0.2836857,0.0823693-0.4773769-0.0857162-0.6886921-0.2059665c-0.0953636-0.0700753-0.1669102-0.1574364-0.2192345-0.257875
		c-0.1096287-0.2821691-0.3252277-0.4652159-0.6337852-0.5612743c-0.2854729-0.1558704-0.5840664-0.2929013-0.8347263-0.497225
		c-1.2665672-0.6565251-2.5663147-0.6534395-3.889617-0.1664109c-0.0523529,0.0245783-0.1070433,0.0459161-0.1612797,0.066699
		c-0.2093945,0.0749717-0.4114161,0.1634262-0.5891724,0.292743c-0.0435867,0.031532-0.0900965,0.0591474-0.1371422,0.0859056
		c-0.1714125,0.0867913-0.3118763,0.2079215-0.4449282,0.3375921c-0.290657,0.2232637-0.493825,0.5336039-0.8382435,0.7027135
		c-1.1555204,1.3438256-1.2154083,3.5392358-0.133934,4.9098825c0.3437643,0.1113291,0.5215445,0.3392057,0.5592842,0.66541
		c0.3388233,0.2813768,0.3040733,0.557951-0.0127878,0.8308973c-0.0314121,0.1831703-0.1333199,0.3237448-0.3049583,0.4227524
		c-0.7055912,0.1383018-0.8762083-0.5105486-1.3185072-0.7604275c-0.1529045-0.0863838-0.2329521-0.2726669-0.2999954-0.4387655
		c-0.1435061-0.5052462-0.4284716-0.9593372-0.63062-1.444437C9.8483353,8.1089449,9.8291864,8.0494604,9.8143406,7.9880009
		c-0.2852631-1.2413673-0.2249622-2.4547191,0.3476782-3.6263447C10.3202906,3.9295039,10.6261072,3.5726433,10.8824596,3.1903749z"
		/>
	<path fill="#FAF801" d="M15.6703072,6.7706022c0.2244539-0.1778216,0.2686434-0.4443693,0.3681488-0.6758566
		c0.0950336-0.2210822,0.4338684-0.4635968,0.1996422-0.6782694c-0.224123-0.2054105-0.6139383-0.0671554-0.9288111-0.0677195
		c-0.2436037-0.0004363-0.2927666,0.1793108-0.2931738,0.3775902c-0.001214,0.5902162-0.501852,0.3219161-0.8034773,0.3725233
		c-0.3850908,0.06461-0.4542866-0.1488791-0.4655514-0.4541521c-0.0512285-1.3883338-0.0589113-1.3880758,1.4477472-1.3880901
		c0.7077627-0.0000067,1.4155273-0.000042,2.123291-0.0001926c0.8063259-0.0001721,0.8193359,0.0121269,0.7816143,0.7598753
		c-0.004921,0.0975776-0.01478,0.1949472-0.0223484,0.2924132c0.030632,0.3179021-0.1521549,0.5794106-0.2696152,0.8584242
		c-0.3058243,0.4992266-0.4902401,1.0459356-0.7322159,1.5705161c-0.0223942,0.0525913-0.0497818,0.1025891-0.0788708,0.1521697
		C16.756773,8.2327442,16.6862907,8.6469545,16.4431229,8.98915c-0.5139742,0.3046036-1.0797815,0.1204576-1.6220064,0.1297541
		c-0.1777773,0.0030489-0.1881647-0.1912212-0.1725826-0.3308344c0.0221348-0.1982946,0.1420069-0.3696718,0.2016058-0.5579424
		c0.0456715-0.1153259,0.1070242-0.2244167,0.1674719-0.3334541C15.2797871,7.5433741,15.2819433,7.063138,15.6703072,6.7706022z"/>
	<path fill="#313131" d="M22.0985012,7.6715221c-0.2143784,0.5505714-0.4287529,1.1011438-0.643137,1.6517048
		c-0.2732925,0.1738491-0.4314251,0.4181089-0.5171356,0.7066441c-0.174427,0.2675285-0.4718056,0.4415169-0.6459198,0.7092819
		c-0.1414299-0.0032921-0.2931366,0.0217695-0.3855762-0.1167202c-0.0256844-0.0311546-0.0419979-0.0726938-0.0737667-0.0947809
		c-0.4656639-0.3237486-0.5315056-0.698164-0.1796894-1.1296549C19.745573,9.1902733,19.8685226,9.00212,20.064724,8.861145
		c0.3256054-0.2321262,0.419714-0.5786333,0.5383224-0.9131703c0.0327473-0.0938616,0.0530434-0.1921787,0.0999432-0.2799249
		c0.1051884-0.1968021,0.1427708-0.555047,0.4670181-0.4336858c0.2828102,0.1058521,0.1195602,0.4130359,0.0458679,0.6339154
		c-0.2442551,0.7320976-0.6073818,1.4115486-1.0820389,2.043025c0.6900024-0.5553455,1.079525-1.2663116,1.2649345-2.076612
		c0.1952-0.8530951,0.196619-1.7124934,0.0688858-2.5749435c-0.0719185-0.4856205-0.0421658-0.5255017,0.3229065-0.5821695
		C22.2987804,5.6411457,22.1365089,6.661654,22.0985012,7.6715221z"/>
	<path fill="#161624" d="M19.6663113,3.6635134c0.0439663,0.063535,0.0879307,0.1270704,0.131897,0.1906054
		c0.0566769,0.1274822,0.254488,0.2111893,0.1449738,0.3903217c-0.0520191,0.0539322-0.1070633,0.056572-0.1650486,0.0080023
		c-1.2247829-1.5546758-2.9611034-2.027195-4.9125929-1.7279706c-0.8220205,0.1260421-1.6458654,0.5399272-2.1828241,1.2401521
		c-0.1905441,0.2484767-0.4239321,0.4695055-0.6495705,0.715965c-0.1577606-0.2063041,0.0468388-0.3478441-0.0159483-0.4988773
		c0.1702852-0.3294477,0.4270153-0.5921438,0.7458019-0.8069246c0.2298727-0.0619035,0.3857431-0.2175639,0.549963-0.362644
		l-0.0118637,0.0077753c0.2274351-0.1076155,0.4768734-0.1810291,0.6613302-0.3554475l-0.0109797,0.0039394
		c0.5482512-0.162904,1.0879107-0.3613489,1.6807976-0.3396139c0.2167225-0.0002351,0.4334726-0.0001805,0.6501951-0.0000424
		c0.6966133-0.0025926,1.3396015,0.1806376,1.9516754,0.4708943c0.2561665,0.1555183,0.5123348,0.3110368,0.7685013,0.4665549
		C19.2625637,3.229372,19.4726791,3.4387929,19.6663113,3.6635134z"/>
	<path fill="#141423" d="M10.6142597,9.5600882c0.3252859,0.3295202,0.6588783,0.6526194,0.9722881,0.9913197
		c0.1525412,0.1648502,0.3010473,0.275198,0.5444031,0.1790724c0.1413631-0.1125307,0.246603-0.2625446,0.4220076-0.3397512
		c0.1276188-0.0802822,0.2552395-0.1605654,0.3828583-0.2408476c0.0414143-0.0581322,0.0840645-0.0560226,0.1277733-0.0021858
		c-0.1100473,0.2851849-0.3184299,0.5079823-0.5665255,0.6947651c-0.3690758,0.2778635-0.5906649,0.5415487,0.0652924,0.8135138
		c-0.2274504,0.1880083-0.4170704-0.0325508-0.5762234,0.0520678c-0.5678043,0.0117779-0.7519617-0.4420309-1.0696821-0.7340708
		c-0.0514297-0.0628796-0.103941-0.1253262-0.1636-0.1828003c-0.2929659-0.2014923-0.1921835-0.5609932-0.3884048-0.8011599
		c-0.0894814-0.1899338-0.2148571-0.3605595-0.3478127-0.5272703C9.9266281,9.2998905,9.7581024,9.1619844,9.8187542,8.9504633
		c0.0834084-0.0878935,0.1877241-0.1372118,0.3155727-0.1432981C10.4296188,8.9858208,10.4585819,9.3066769,10.6142597,9.5600882z"
		/>
	<path fill="#202020" d="M19.7781334,4.2524428c0.0427494-0.000638,0.085495-0.0013633,0.1282387-0.0021758
		c0.1880054-0.125556,0.3169746-0.0167031,0.4465065,0.0933771c0.0406284,0.053298,0.070797,0.1111016,0.0927715,0.1727128
		c0.5141487,1.2205367,0.5367851,2.4525089,0.1016178,3.6946692c-0.0593395,0.2818375-0.2189445,0.5214577-0.3844376,0.7585869
		c-0.2310791,0.0871096-0.278904,0.299324-0.3853321,0.4715309c-0.1186428,0.0925083-0.1410408,0.315649-0.385561,0.2372999
		c-0.2711506-0.0324764-0.2767735-0.1579237-0.1101665-0.3077888c0.8316002-0.7480307,1.0657749-1.7190771,1.1152859-2.7150817
		C20.4385471,5.8207889,20.2157974,5.0038514,19.7781334,4.2524428z"/>
	<path fill="#D8D806" d="M10.9821749,10.8992729c0.2943087,0.3114376,0.5969563,0.6142263,1.0039787,0.8087597
		c0.091897,0.1440163,0.3680849,0.1358757,0.3608608,0.4402208c-0.6855421,0-1.3725576,0.0042887-2.059454-0.0020657
		c-0.2829657-0.0026178-0.1701117-0.2093697-0.1902838-0.3448124c-0.0567427-0.3193674,0.2587852-0.4939528,0.350626-0.7561092
		C10.6074047,10.9406118,10.719346,10.6873894,10.9821749,10.8992729z"/>
	<path fill="#E2E204" d="M8.7092991,6.7709694c0.2294807-0.0308275,0.4142647-0.0277567,0.4033175,0.2679462
		C9.0998507,7.3837419,9.1547642,7.7237172,9.3161726,8.0422726c0.3385572,0.4944258,0.3077469,0.5711603-0.2741613,0.6856937
		C8.7944336,8.6692667,8.5372,8.654974,8.2871523,8.6043921c-0.1997147-0.0115805-0.4901419,0.1443443-0.4963446-0.224556
		C7.6668148,8.1938162,7.8176684,8.0795288,7.9224901,7.9529014c0.2074966-0.1495838,0.321456-0.3479657,0.3609238-0.5852113
		C8.3795118,7.1413441,8.4173203,6.8799849,8.7092991,6.7709694z"/>
	<path fill="#030326" d="M12.4425449,9.5569963c-0.2117624-0.2040205-0.4453592-0.3927097-0.5592785-0.6654215
		c-0.0202713-0.3987865-0.2554264-0.7367496-0.3907671-1.1010981c-0.2923422-0.7870188-0.2675457-1.567718-0.0710144-2.3596554
		c0.098074-0.0652981,0.1892738-0.0668979,0.2704744,0.0243092c0.0417986,0.3220468-0.1314163,0.6103454-0.1731167,0.919333
		c-0.0000563,0.1182513-0.0001116,0.2365022-0.0001659,0.3547535c0.1325502,0.3451099,0.1497517,0.7133913,0.2557955,1.0638256
		c0.0560646,0.7520947,0.6456547,1.2386489,1.0823212,1.8089042C12.6984301,9.7139511,12.5850658,9.5141249,12.4425449,9.5569963z"
		/>
	<path fill="#020226" d="M18.0989704,3.9000399c-0.0821762,0.164078-0.2309608,0.2207038-0.4180088,0.2200768
		c-1.268034-0.0042543-2.5360823-0.0066662-3.8040762-0.0152965c-0.0543585-0.0003695-0.1082697-0.0559659-0.1623869-0.085835
		c0.0929842-0.1489863,0.2374887-0.2292826,0.4208412-0.2297668c1.242836-0.0032814,2.4859753-0.0401249,3.7282772,0.0202034
		C17.9479122,3.8135157,18.0252037,3.8592846,18.0989704,3.9000399z"/>
	<path fill="#181823" d="M9.5801668,11.9209518c-0.4092884-0.01408-0.725378,0.3633051-1.1627512,0.2312574
		c-0.0574408-0.1264315,0.0470076-0.1437569,0.1375256-0.1704693c-0.0963745-0.0143042-0.1748104,0.0424395-0.2642174,0.0557299
		c-0.5253472-0.1128273-0.8527265-0.4583263-1.1615591-0.8256235c-0.0603886-0.1313152,0.0201964-0.2113667,0.1230898-0.2836142
		c0.0592837-0.0194893,0.1203594-0.0258989,0.1830606-0.0201588c0.1995311,0.0495758,0.2921786,0.1954565,0.3771663,0.3484764
		c0.5701241,0.5893011,1.2009845,0.5645084,1.8636203-0.0751572c0.0359011-0.0418129,0.0779495-0.0782242,0.124156-0.1105175
		c0.0522261-0.0235395,0.108037-0.0339127,0.1662312-0.0343723c0.3128738,0.0296736,0.439333,0.1361532,0.1927614,0.3954363
		C9.9318266,11.5608978,9.8444176,11.8287325,9.5801668,11.9209518z"/>
	<path fill="#181822" d="M7.2583609,10.9756937c-0.0430655,0.0787153-0.0861301,0.1574316-0.1291952,0.2361507
		c-0.4659142-0.9354391-0.4801579-1.0437107,0.3450198-1.7539854C7.6944628,9.2682552,7.49123,8.8744326,7.9126649,8.8570871
		c0.1780162,0.0663614,0.2645898,0.1952152,0.2965817,0.3616152C8.1589041,9.4718742,7.8731551,9.5469456,7.7404022,9.7380857
		c-0.1021261,0.117713-0.1867661,0.2456169-0.2634306,0.3780718C7.2485518,10.3696527,7.4808345,10.7214451,7.2583609,10.9756937z"
		/>
	<path fill="#0E0E24" d="M12.2920141,12.6269341c-0.7313108-0.0002003-1.4626226-0.0004005-2.1939316-0.0006113
		c-0.1274519-0.214325,0.0406523-0.3006868,0.2096119-0.3115396c0.6492996-0.0417051,1.3004398-0.1073236,1.9471197,0.0484934
		C12.5491896,12.434206,12.5114002,12.511735,12.2920141,12.6269341z"/>
	<path fill="#040426" d="M8.1615448,9.2041588C8.078517,9.0884361,7.9954886,8.9727135,7.9125633,8.8570395
		c0.1264172-0.0402489,0.2527323-0.0805464,0.3790474-0.1208429c0.1688719-0.1439743,0.3676634-0.1262817,0.5700808-0.0884113
		c0.657402,0.1049128,0.9078817,0.6500721,1.3208981,1.020256c0.0709171,0.1434145,0.1638527,0.2787304,0.1895084,0.4385099
		c0.0018902,0.3125725,0.1477585,0.6533737-0.2072687,0.8964815c-0.4258423-0.2605906-0.0961895-0.749795-0.3819761-1.0518217
		c-0.1694889-0.2875214-0.4630089-0.4602518-0.732563-0.6550941c-0.0433149-0.0331211-0.0847187-0.068182-0.126791-0.1023941
		C8.7696733,9.0894518,8.6097689,9.1044388,8.4477987,9.1719589c-0.044796,0.0293779-0.0931292,0.0533285-0.1434803,0.0737839
		C8.2473507,9.2596178,8.2000704,9.2443056,8.1615448,9.2041588z"/>
	<path fill="#161623" d="M17.6997299,6.1101956c0.0706234-0.2889142,0.1766758-0.5638814,0.3776665-0.8014731
		c0.0923977-0.0775208,0.184803-0.1550426,0.2772083-0.2325644c0.1190701-0.2349224,0.1036301-0.4704466,0.0037804-0.7063484
		c0.032608-0.1613827,0.1335468-0.231925,0.207901-0.0467591c0.1115932,0.277904,0.118042,0.5996857,0.0144043,0.8658671
		c-0.2050076,0.5265188-0.4892349,1.0272694-0.7407093,1.5386729c-0.0705185-0.0569382-0.1251888-0.1238604-0.1564007-0.205811
		C17.6510696,6.3835106,17.6274719,6.2451954,17.6997299,6.1101956z"/>
	<path fill="#191923" d="M15.1377125,7.9236984c0.0147629,0.0973272-0.0214272,0.1734886-0.1127491,0.2267475
		c-0.239769,0.3263721-0.3219357,0.7201881-0.5407047,1.0555477c-0.2309761-0.0056143-0.4747448-0.0210962-0.3193989-0.3229885
		c0.3111963-0.6047716,0.6420517-1.2010922,0.9647884-1.8009028c0.1482458,0.08954,0.1393108,0.2400699,0.1737938,0.3737345
		C15.256319,7.614109,15.2016544,7.7702775,15.1377125,7.9236984z"/>
	<path fill="#151523" d="M8.0327396,8.0255728C7.9520898,8.1436625,7.8714399,8.2617512,7.7907987,8.379838
		C7.6513658,8.4821606,7.5119247,8.5844851,7.3123298,8.7309494C7.2783346,8.1940928,7.7843885,7.95262,7.9038258,7.5547233
		c0.1640911-0.2572351,0.330142-0.5134487,0.4915552-0.7720809C8.496273,6.6209822,8.5971966,6.6080208,8.7092934,6.7709637
		c0.0207891,0.2675576-0.2458401,0.4274416-0.2991924,0.667222C8.2602949,7.6210914,8.1842995,7.8436089,8.0327396,8.0255728z"/>
	<path fill="#010129" d="M15.249836,7.4231396c-0.1516218-0.0808363-0.1087675-0.2189102-0.1201658-0.3410301
		c0.0621662-0.3013892,0.1829901-0.5794473,0.3916445-0.8225694c0.1392584-0.2814674-0.1543512-0.1790833-0.2591457-0.2441325
		c0.0279102-0.174643-0.0850754-0.4197264,0.2377739-0.4531984c0.1601734-0.0166063,0.3655481-0.0692401,0.4711227,0.0781999
		c0.1250858,0.1746926-0.0622625,0.3230247-0.1250935,0.4793539c-0.0649576,0.1616192-0.1404686,0.319695-0.2113638,0.4793196
		C15.5673227,6.8975515,15.4850416,7.1901712,15.249836,7.4231396z"/>
	<path fill="#1A1A22" d="M18.0989704,3.9000399c-1.2144623-0.0008109-2.4289303-0.0009141-3.6433907-0.0030053
		c-0.2558355-0.0004406-0.5133591-0.0168872-0.7411108,0.1219115c-0.0011406-0.0988657,0.0216713-0.187192,0.1264381-0.2393687
		c1.3766384-0.0950489,2.7532778-0.0948679,4.12992-0.0000908C18.0135422,3.8196709,18.0562572,3.8598557,18.0989704,3.9000399z"/>
	<path fill="#0F0F23" d="M13.390583,6.0393753c-0.0538807-0.5236282-0.1127176-1.0469346-0.1534452-1.5714154
		c-0.003787-0.0487437,0.1032038-0.1448951,0.1657801-0.1502299c0.1923199-0.0163946,0.1724682,0.1346707,0.1735983,0.2436357
		c0.0050459,0.4855914,0.0021925,0.9712515,0.0021925,1.4568868C13.5159998,6.0252934,13.4532919,6.0323343,13.390583,6.0393753z"/>
	<path fill="#232321" d="M17.9708271,3.7794867c-1.3766403,0.0000305-2.7532816,0.0000615-4.1299219,0.0000913
		c0.1661644-0.1790969,0.3935699-0.114022,0.5975666-0.1152532c0.9782219-0.0059028,1.9565344-0.0059073,2.9347563,0.0000041
		C17.577219,3.6655619,17.8046188,3.6004398,17.9708271,3.7794867z"/>
	<path fill="#292920" d="M14.4842587,9.2059937c0.0419407-0.4110279,0.2252502-0.7615604,0.5407009-1.0555477
		c-0.0004749,0.0196123-0.0035095,0.0394964-0.0010481,0.0587969c0.0383072,0.3004723-0.5309916,0.6823034-0.1642275,0.8028994
		c0.4571533,0.150321,1.0935946,0.2756596,1.5590439-0.1676674c0.0471535,0.0371466,0.0783558,0.0833015,0.0938969,0.1384125
		c0.0093479,0.0885201-0.0217571,0.1629992-0.0935287,0.2231989c-0.0461006,0.0026464-0.0922031,0.0052938-0.1383038,0.0079403
		c-0.0312099,0.0504541-0.0661011,0.0501623-0.104147,0.0063047C15.6125164,9.2155523,15.0483875,9.2107735,14.4842587,9.2059937z"
		/>
	<path fill="#0A0925" d="M10.0989542,10.9757519c0.2557278-0.2902145,0.0718203-0.6301184,0.1275768-0.942935
		c0.0566292-0.0360565,0.1122036-0.0347462,0.1667843,0.0037336c0.189188,0.2376881-0.0033131,0.5774755,0.2553406,0.7968388
		c0.0430098,0.1357536-0.1021757,0.1960297-0.1432648,0.2982159c0.0686121,0.3274307-0.2183399,0.4738674-0.4081144,0.6697702
		c-0.041647-0.0046978-0.0834494-0.0069504-0.125411-0.0067577c-0.1710453-0.2036552,0.0559521-0.3164549,0.1270113-0.4648466
		c0.3461542-0.2554502-0.16607-0.1199732-0.1281404-0.2350502C9.9349508,10.9843655,9.9793491,10.9462032,10.0989542,10.9757519z"/>
	<path fill="#020226" d="M17.8419628,6.4956465C17.84132,6.5729699,17.8406734,6.6502948,17.840004,6.7276044
		c-0.2958508,0.4406104-0.5923939,0.8809609-0.6467457,1.4138579c-0.1229687,0.1629982-0.2385654,0.2066927-0.3378296-0.0173244
		c0.0094681-0.1173544,0.0064144-0.2370563,0.0722351-0.3446651l-0.0030136,0.0051517
		c0.2411079-0.3136883,0.3398361-0.6845684,0.5041199-1.0292349C17.4964294,6.6134477,17.5156021,6.326582,17.8419628,6.4956465z"/>
	<path fill="#161623" d="M16.936861,8.1441364c0.0871162,0.132803,0.1711426,0.0117197,0.2564316-0.0026426
		c-0.2085648,0.3849096-0.2524738,0.8698435-0.7741604,1.0645924c0.0072823-0.0784798,0.0146008-0.1569586,0.0219193-0.2354374
		C16.647377,8.7157192,16.4942951,8.2806768,16.936861,8.1441364z"/>
	<path fill="#060625" d="M13.8478203,6.2965484c0.3469114,0,0.693821,0,1.2018929,0
		C14.538703,6.5791316,14.1851053,6.4929175,13.8478203,6.2965484z"/>
	<path fill="#303030" d="M19.3919373,9.6784439c0.1285229-0.079093,0.2570477-0.158185,0.3855667-0.2372885
		c-0.4601574,0.4397411-0.0816517,0.8028421,0.1292324,1.1812696C19.6176167,10.3613081,19.0633221,10.2209921,19.3919373,9.6784439
		z"/>
	<path fill="#191822" d="M10.098877,11.329771c-0.0423641,0.1549997-0.0847282,0.3099995-0.1270514,0.4649229
		c-0.0564528,0.1002846-0.108593,0.2029667-0.1707668,0.3002958c-0.0529604,0.0829086-0.141901,0.1757307-0.2414408,0.1201115
		c-0.1557627-0.0870333,0.0019131-0.1947832,0.0205669-0.2941675C9.7043467,11.6881781,9.8147211,11.4452848,10.098877,11.329771z"
		/>
	<path fill="#030326" d="M16.1766453,9.2203312c0.0347424-0.0031624,0.069561-0.0053272,0.1042995-0.0063992
		c-0.0971756,0.394022-0.4427519,0.1951046-0.6793051,0.2232122c-0.2682428,0.0318718-0.544508,0.0073566-0.8202009-0.0277958
		C15.2264042,9.211894,15.7411613,9.4573441,16.1766453,9.2203312z"/>
	<path fill="#1D1D22" d="M15.249836,7.4231396c0.1283178-0.2746263,0.2566357-0.5492516,0.3848629-0.823967
		c0.0118027,0.0570698,0.0236959,0.1142302,0.0355988,0.1714096c-0.1018744,0.4135685-0.2890739,0.7941961-0.532589,1.1531043
		C15.1025133,7.7432652,15.1826038,7.5844054,15.249836,7.4231396z"/>
	<path fill="#030326" d="M11.6472034,5.4312177c-0.0753927-0.0001311-0.1507874-0.0002627-0.2259493-0.0003953
		c0.1090488-0.2189698,0.0858135-0.4985437,0.3728466-0.6715245c0.1324396,0.2020793-0.0842495,0.3761311-0.0200033,0.5507851
		C11.7278242,5.346982,11.7259665,5.4227509,11.6472034,5.4312177z"/>
	<path fill="#1F1F21" d="M11.7744722,7.7930427c-0.2117338-0.3292093-0.2713461-0.6889768-0.2558069-1.0638328
		C11.8023329,7.0439749,11.7822113,7.4197521,11.7744722,7.7930427z"/>
	<path fill="#1C1C22" d="M8.9359732,8.735323C8.72118,8.7355995,8.5063877,8.7358761,8.2916021,8.7361746
		c-0.0014772-0.043911-0.0029631-0.0878429-0.0044489-0.1317797c0.2174397-0.112113,0.4366026-0.1228476,0.6578732-0.0093317
		C9.0114374,8.6455593,9.0084219,8.6923132,8.9359732,8.735323z"/>
	<path fill="#1F1F21" d="M11.6472034,5.4312177c0.0423098-0.0403557,0.0846205-0.0807109,0.1269121-0.1211004
		c0.0123425,0.3742905-0.0365429,0.7363439-0.2552853,1.0643554C11.4496326,6.0473161,11.6409578,5.7497869,11.6472034,5.4312177z"
		/>
	<path fill="#232323" d="M20.2923088,10.7391529c0.063961-0.3515692,0.3741016-0.5158348,0.6459332-0.7092581
		C20.8801212,10.3858919,20.5697708,10.5500107,20.2923088,10.7391529z"/>
	<path fill="#1D1D22" d="M15.2621689,6.0154076c0.1586246-0.0268388,0.28092-0.2801013,0.4114256-0.1678896
		c0.1647596,0.1416655-0.0316563,0.2916555-0.1523113,0.4119978C15.4349337,6.1781626,15.3485518,6.0967851,15.2621689,6.0154076z"
		/>
	<path fill="#050525" d="M18.3583851,4.3698096c0.2236004,0.2116847,0.1184044,0.4643488,0.1028748,0.7052875
		c-0.0006084,0.0094604-0.0322533,0.0242171-0.0492287,0.0239849c-0.0192299-0.0002627-0.0382309-0.0146589-0.0573807-0.0229173
		C18.3558636,4.8407087,18.3571224,4.6052594,18.3583851,4.3698096z"/>
	<path fill="#050525" d="M8.2907238,12.0374699c0.1449814-0.1621838,0.3280783-0.1287231,0.5532942-0.0822477
		c-0.162652,0.0751419-0.2946053,0.1361008-0.4265795,0.1970234C8.375185,12.1139622,8.3329544,12.075717,8.2907238,12.0374699z"/>
	<path fill="#070726" d="M13.06359,10.1476955c-0.0425682,0.0012178-0.0851479,0.0019464-0.1277561,0.0021858
		c0.0202322-0.1027002-0.0381947-0.2303371,0.1028233-0.2935448c0.0225229-0.0100956,0.0970964,0.0252838,0.0960016,0.0303745
		C13.115778,9.9745693,13.0887966,10.0609722,13.06359,10.1476955z"/>
	<path fill="#1E1D22" d="M12.5529585,10.390729c-0.1009226,0.1544905-0.2152615,0.2950602-0.4220037,0.3397512
		c0.0334864-0.1623678,0.1543674-0.2610579,0.2988024-0.3425865C12.4708433,10.3880854,12.5119123,10.3890305,12.5529585,10.390729z
		"/>
	<path fill="#131323" d="M24.6827831,1.8919669c0.4191265,0.4589015,0.3320503,0.9155957-0.0107536,1.3684672
		c-0.1985989,0.2623699-0.4630184,0.4988863-0.3818111,0.8639321c-0.0843067,0.1414399-0.2238235,0.1864247-0.3889656,0.1872215
		c-0.4325466-0.0691252-0.8408051-0.2649803-1.2982941-0.2095876c-0.4373741-0.0038204-0.612236-0.332165-0.8554764-0.5768814
		c-0.0988026-0.1730762-0.230711-0.3379025-0.1731968-0.5521345c0.0418415-0.0438519,0.0947094-0.0700791,0.1569157-0.0815732
		c0.129343-0.0027752,0.2396126,0.0446713,0.3437309,0.1084993c0.8262844,0.734844,1.0303326,0.7657487,1.9966602,0.2996943
		c0.4806995-0.2747109,0.4459038-0.7074432,0.4179745-1.1380894C24.5142612,2.0479076,24.5675602,1.9512702,24.6827831,1.8919669z"
		/>
	<path fill="#1B1A22" d="M19.263586,0.3603789c0.9451885,0.0000052,1.890377,0.0000103,2.835535,0.000038
		c0.0229359,0.1834988-0.1723843,0.2287314-0.2596054,0.3424274c-0.7772236,0.3292905-1.5819855,0.1598716-2.3806648,0.1106232
		C19.2673798,0.7081674,19.1234341,0.585188,19.263586,0.3603789z"/>
	<path fill="#151523" d="M22.099556,0.8341179c0.2590122-0.1030049,0.3053398-0.0020532,0.2102032,0.1968449
		c-0.1084747,0.2267884-0.0056324,0.2227646,0.1777916,0.1529776c0.0969963,0.0233793,0.1572037,0.0767307,0.1672573,0.1710929
		c-0.1847572,0.2819242-0.4526844,0.490309-0.7316151,0.6888353c-0.1609173-0.0126524-0.3534451,0.0412252-0.4260807-0.1646185
		c-0.0342216-0.1628294,0.0328426-0.3092288,0.0875626-0.4578687c0.0605488-0.1462241,0.1608944-0.2711068,0.2565861-0.3987135
		C21.9020519,0.9309719,21.9969711,0.8781159,22.099556,0.8341179z"/>
	<path fill="#444445" d="M22.0995579,0.8341182c-0.0432777,0.0787488-0.0865555,0.1574969-0.1298313,0.236245
		c-0.0589523,0.0352139-0.121624,0.0420865-0.188036,0.0213562c-0.7388496-0.1590564-1.4775219-0.1602408-2.2162552,0.0035071
		c-0.325016-0.0315944-0.4743519-0.1287293-0.1731586-0.3916497c0.8157692-0.0001861,1.6315403-0.0003722,2.4472752-0.0006453
		C21.9261971,0.746602,22.0128765,0.7903599,22.0995579,0.8341182z"/>
	<path fill="#010125" d="M22.6170273,1.2999257c-0.0431519-0.0386587-0.0863037-0.0773177-0.1294651-0.1159805
		c0.0433216-0.0390966,0.0866528-0.0781895,0.129982-0.1172826c0.3441143-0.0932739,0.6883373-0.0915319,1.0326538-0.00095
		c0.0855427,0.0792278,0.1710873,0.1584554,0.256628,0.2376832c-0.0240784,0.0192891-0.0481567,0.038578-0.072094,0.058151
		C23.4255657,1.3963575,23.0207348,1.3573829,22.6170273,1.2999257z"/>
	<path fill="#010226" d="M24.6827831,1.8919669c-0.0027008,0.090887-0.0149174,0.1776882-0.1162624,0.2262243
		c-0.2745285-0.2351125-0.6669064-0.3909765-0.6576042-0.8169515c0,0-0.0020618,0.0021347-0.0020771,0.0021453
		C24.2948647,1.3570845,24.4702835,1.644945,24.6827831,1.8919669z"/>
	<path fill="#32321F" d="M23.8892727,4.2323031c0.1336784-0.0359092,0.2673569-0.0718193,0.4009895-0.1078329
		c0.1553268,0.0867438,0.1346703,0.2279391,0.1341248,0.3629251c0-0.0000005-0.0624313,0.0036073-0.0624313,0.0036073
		l-0.0624905-0.0026464c-0.1665668,0.0080738-0.3328133,0.0140753-0.4864864-0.0629735
		c-0.0476971-0.0335894-0.0666981-0.0782881-0.0612144-0.1324363C23.7831821,4.2454224,23.8282909,4.2238092,23.8892727,4.2323031z"
		/>
	<path fill="#151523" d="M23.650198,1.0657126c-0.3442173,0.0003145-0.6884365,0.0006291-1.0326538,0.0009465
		C22.9615612,0.8836089,23.3057804,0.8845938,23.650198,1.0657126z"/>
	<path fill="#303030" d="M21.7137451,4.605618c-0.216404,0.2013011-0.1212597,0.4354105-0.0838985,0.663589
		c0.2716675,1.6591377,0.046402,3.2252932-1.0759087,4.6079531c-0.1450176,0.1786604-0.364975,0.5035105-0.6527672,0.276803
		c-0.3210506-0.2529049,0.0532341-0.4403086,0.2251606-0.6131811c0.4781857-0.4808226,1.035696-1.718051,0.9957676-2.2731333
		c-0.3031006,0.1912498-0.1837978,0.5699282-0.4401894,0.7592974c-0.0203609-0.0270715-0.0407257-0.0541425-0.0611553-0.0811772
		c-0.0430222-0.3539176,0.1127243-0.6859179,0.1329403-1.0352879c0.0465279-0.8040819-0.060051-1.5813398-0.3891945-2.3300304
		c0.2045002-0.4398975,0.5694027-0.6662285,1.0912991-0.6831448c0.0858974,0.1181195,0.171793,0.2362397,0.2576904,0.3543603
		c0.081213,0.0887389,0.0713882,0.192585,0.0590458,0.2968903C21.752985,4.5675955,21.7333641,4.5866065,21.7137451,4.605618z"/>
	<path fill="#242423" d="M22.100626,5.3136778c0.4703922,0.7468686,0.3422642,1.4939871,0.0011177,2.2411952
		C21.9969902,6.8078513,21.9983139,6.0607858,22.100626,5.3136778z"/>
	<path fill="#2B2B32" d="M21.4557991,3.897306c-0.3439159,0.1968727-0.6878338,0.3937449-1.0317516,0.5906167
		c-0.0521545-0.0293107-0.0957756-0.0667539-0.1295624-0.1135683l-0.0011978-0.0046072
		c-0.0785637-0.1333961,0.0870876-0.1849761,0.1135635-0.2831821C20.59025,3.7679238,21.212925,3.8171601,21.178896,3.3164296
		c0.0602455-0.0421455,0.1207848-0.0424995,0.1816921-0.0010755c0.0853214,0.1202946,0.052742,0.2330039-0.0263824,0.3427114
		C21.3747368,3.7378123,21.4152699,3.817559,21.4557991,3.897306z"/>
	<path fill="#303030" d="M22.100626,5.3136778c0.0003681,0.7470632,0.0007362,1.4941258,0.0011101,2.2411914
		c-0.000803,0.0389061-0.0018654,0.0778027-0.0032082,0.1166739c-0.1367435-0.0967484-0.1309185-0.2357335-0.1254959-0.3709264
		c0.0364151-0.9083309,0.0017262-1.8106866-0.2592831-2.6950016c-0.0000038,0.0000029,0.0008984-0.0005894,0.0008984-0.0005894
		c0.5027027,0.0659199,0.1976814,0.4995437,0.3861046,0.7085352L22.100626,5.3136778z"/>
	<path fill="#242423" d="M22.730711,5.4447923c-0.0364799-0.0064425-0.0732231-0.0111861-0.1102314-0.0142298
		c-0.0422211-0.0360584-0.0683994-0.0797973-0.0760918-0.1323876c-0.1408043-0.2556033-0.2576847-0.5158-0.1847858-0.8120337
		c-0.0430374-0.0389624-0.0860748-0.0779247-0.1291122-0.1168871c-0.0986614-0.1808801-0.0599976-0.2985744,0.1830711-0.2753057
		c0.1393719,0.013341,0.2654533,0.0994368,0.4144993,0.0930662c0.3029556,0.0443039,0.6300964-0.0275593,0.9043674,0.1549788
		l0.0464134,0.0273237c0.0360832,0.1254168-0.0596466,0.2106075-0.1566982,0.2053556
		c-0.649128-0.0351243-0.813633,0.320107-0.8192043,0.8160048C22.779047,5.4088774,22.7548771,5.4268346,22.730711,5.4447923z"/>
	<path fill="#212121" d="M22.7653675,4.3492923c-0.1701889,0.1880689-0.3781548-0.4693067-0.5348816,0.0199647
		c-0.1722202-0.2359242-0.3444424-0.4718466-0.5166626-0.7077692c-0.0865078-0.1374867-0.0926037-0.2381792,0.1286335-0.2348537
		c0.2085686,0.2499418,0.3893032,0.5302482,0.7714825,0.5908029C22.7486534,4.0959454,22.8051414,4.2042708,22.7653675,4.3492923z"
		/>
	<path fill="#1A1A22" d="M21.8424568,3.4266341c-0.1041508,0.050251-0.1257629,0.1382654-0.1286316,0.2348561
		c-0.1258774-0.0697536-0.2524204-0.0757358-0.3797016-0.003376c-0.0026302-0.1164379-0.0053425-0.2328279-0.0080528-0.3492172
		C21.2846127,3.2724922,21.2542,3.2295513,21.2344551,3.1800454c-0.0136967-0.0804434,0.0009842-0.1558263,0.0477695-0.2255976
		c0.0431099-0.0363829,0.0939426-0.0579717,0.1520939-0.0651672c0.0281296,0.0046632,0.0563526,0.0095179,0.0845528,0.0142682
		c0.0221577,0.0165291,0.0443363,0.0331624,0.066515,0.0497952C21.6710758,3.1111076,21.7567673,3.2688711,21.8424568,3.4266341z"/>
	<path fill="#242423" d="M23.2351246,6.2184801c0.0521679,0.0522723,0.1043377,0.1045461,0.156498,0.1568241
		c-0.0558758,0.0956707-0.1538391,0.1162047-0.2601852,0.1217732c-0.096077,0.1284299-0.1955414,0.2473526-0.3847256,0.1145458
		c-0.0052547-0.3889966-0.0105114-0.7779932-0.0158844-1.1669106c-0.0001163,0.0000796,0.0281658-0.0210633,0.0281658-0.0210633
		c0.2555485,0.0032964,0.2223873,0.1959782,0.2603188,0.3375397C23.0633259,5.9254608,23.0087128,6.1266003,23.2351246,6.2184801z"
		/>
	<path fill="#060624" d="M22.359602,4.4861417c0.0816383,0.2763677,0.1632748,0.5527353,0.2449112,0.8291035
		c-0.0399208,0.0550485-0.0787144,0.0543952-0.1163864-0.0019631C22.2400398,5.0642114,22.1031456,4.8007069,22.359602,4.4861417z"
		/>
	<path fill="#242423" d="M22.1007519,5.313561c-0.2216129-0.1938801-0.089262-0.5489049-0.3861122-0.7085319
		c-0.0003757-0.1177907-0.0007572-0.2355771-0.0011444-0.3533635C22.0823669,4.5325766,22.1455231,4.9066286,22.1007519,5.313561z"
		/>
	<path fill="#010125" d="M22.4881268,5.313282c0.0388927,0.0001287,0.0777779,0.0007706,0.116518,0.0019441
		c0.0070343,0.0382476,0.0123367,0.0766916,0.0158024,0.1153436c0.0000324,0.268661,0.0000324,0.5373292,0.0000324,0.8059983
		c-0.044117,0.0009413-0.0882359,0.0018835-0.1323528,0.0028253C22.4881268,5.9306898,22.4881268,5.6219859,22.4881268,5.313282z"/>
	<path fill="#181822" d="M22.7467117,6.6116233c0.1282597-0.0382156,0.2565193-0.0764318,0.3847523-0.1145964
		c-0.0117283,0.1263185,0.0377483,0.2880774-0.1616287,0.3236885C22.804245,6.8502922,22.7652149,6.7318616,22.7467117,6.6116233z"
		/>
	<path fill="#010127" d="M10.0994053,8.8517828C10.044055,8.946475,9.9493418,8.9675198,9.8427658,8.9663715
		c-0.4359426-0.2542782-0.3476295-0.711277-0.4980345-1.0759678C9.219244,7.0649514,9.5057335,6.2547827,9.4538965,5.4320626
		C9.5300837,5.340878,9.5951462,5.2220788,9.7523041,5.3315091c0.0799017,0.1105094,0.0333767,0.2225261,0.0046492,0.33428
		c-0.0716534,0.1934066-0.0392904,0.393899-0.0472231,0.5916295c0.0001097,0.1121173,0.000083,0.2242799,0.0000401,0.3362942
		c0.0078611,0.1904445-0.0213776,0.3828435,0.0335846,0.5708947c0.0817022,0.3233995,0.0356426,0.6738648,0.24436,0.9707961
		L9.9847555,8.1292629C10.0058479,8.3723736,10.2806168,8.5818558,10.0994053,8.8517828z"/>
	<path fill="#202022" d="M9.3447313,7.8904037c0.1659918,0.3586845,0.3319845,0.7173691,0.4980049,1.0760098
		c0.0640507,0.1677589,0.275547,0.2692461,0.2556143,0.4747963c0.0709467,0.0828714,0.0816002,0.164752-0.0048151,0.245039
		C9.6266003,9.4517183,9.433773,8.9384489,8.935977,8.7353106C8.9389906,8.6885719,8.942008,8.64182,8.9450254,8.5950651
		c0.6341944,0.1020384,0.397459-0.2844095,0.3711567-0.5528088C9.3256922,7.9916492,9.3352118,7.9410267,9.3447313,7.8904037z"/>
	<path fill="#111124" d="M9.7079048,5.314991C9.6232252,5.3540096,9.5385456,5.3930278,9.4538813,5.4320545
		C9.4609098,5.1720881,9.525403,4.9293871,9.7091255,4.7225142C9.7177067,4.8475223,9.6835833,4.9847326,9.828167,5.0709291
		C9.9161272,5.2049928,9.8228683,5.2644591,9.7079048,5.314991z"/>
	<path fill="#D8D806" d="M23.2351246,6.2184801c-0.1813965,0.11868-0.354908,0.2004623-0.3767109-0.1120629
		c-0.0160522-0.2301402,0.0466251-0.4687018-0.0994301-0.6827631c0.0768814-0.2987928-0.2906666-0.6113257-0.0970249-0.8400922
		c0.1985168-0.234529,0.609663,0.015789,0.9113598-0.0927186c0.0744247-0.0267677,0.1373253-0.0802994,0.2055225-0.1215262
		c0.1819954,0.0087957,0.391943-0.0845408,0.5206242,0.1190391c-0.0492153,0.0687351-0.0984325,0.1374702-0.1476517,0.2062049
		c-0.1350975,0.2033243-0.1922684,0.4513083-0.4147301,0.6045671C23.5044918,5.5758066,23.3618279,5.8935037,23.2351246,6.2184801z"
		/>
	<path fill="#191923" d="M23.7370834,5.2991281c0.1367645-0.2023678,0.1828327-0.4567127,0.4147339-0.6045632
		C24.1244278,4.9596124,24.0694485,5.2088523,23.7370834,5.2991281z"/>
	<path fill="#222221" d="M19.3922768,0.703577c-0.0798416,0.156589-0.1178055,0.2996792,0.1347103,0.3491421
		c0.1253529,0.0054703,0.1690121,0.0567092,0.1107826,0.1652855c-0.078083,0.0575681-0.1690464,0.0835923-0.2671776,0.0927314
		c-0.2617073,0.0115811-0.5003872-0.0692893-0.7381535-0.15429c-0.1785889-0.1061277-0.3923092-0.1660768-0.5290775-0.3288852
		c-0.2549553-0.4379637-0.8977184-0.0632161-1.1694355-0.4661225c0.7765064-0.0003479,1.5530586-0.0007252,2.3296375-0.0010807
		C19.3064823,0.4747784,19.3493786,0.5891775,19.3922768,0.703577z"/>
	<path fill="#30302E" d="M17.0591507,0.849032c-1.2825394-0.1097038-2.5251894,0.046104-3.7278643,0.4678817
		c0.0838337-0.0837678,0.1676531-0.1675309,0.2514734-0.2512939c0.1237974-0.1694492,0.3612175-0.1284234,0.5193739-0.2342267
		l-0.0029736,0.0022363c0.2350006-0.1521465,0.5043802-0.1302662,0.7700653-0.1270855
		c0.170743-0.0029876,0.3414841-0.0059752,0.5122271-0.0089629c0.4357309-0.0669477,0.8712902-0.072562,1.3066196,0.0030718
		c0.125494,0.0047724,0.2509899,0.0095447,0.3764858,0.0143172c0.0394077,0.0311602,0.0517197,0.0613979,0.0370102,0.0907452
		C17.0870991,0.8345821,17.0729866,0.849032,17.0591507,0.849032z"/>
	<path fill="#242321" d="M17.0591507,0.849032c0.0018253-0.044704,0.0036507-0.0894083,0.0054436-0.1340873
		c0.3048687,0.0738846,0.6097755,0.147744,0.9146805,0.2216032c0.2349606-0.0240842,0.4453583,0.0254008,0.6228523,0.1734447
		c0.1871471,0.0547825,0.3781509,0.1023937,0.5254688,0.2327096c0.0146732,0.0221517,0.0289822,0.0444736,0.0435429,0.0667489
		c0.0094776,0.0534062-0.0050812,0.1007469-0.043438,0.1419723C18.4381847,1.317293,17.7486668,1.0831624,17.0591507,0.849032z"/>
	<path fill="#030326" d="M14.8692255,0.7065439c-0.2377033,0.1384825-0.5060091,0.1219749-0.7700615,0.1270552
		c0.0430574-0.0787002,0.0861187-0.157431,0.129178-0.2361251c0.1712885-0.0014625,0.3425808-0.0029622,0.5138454-0.0044821
		C14.7845182,0.6308289,14.8268709,0.6686864,14.8692255,0.7065439z"/>
	<path fill="#242321" d="M16.6880722,0.7006528c-0.4355145-0.0009604-0.8710308-0.0019209-1.3065825-0.0029768
		C15.817441,0.5389758,16.2529945,0.5350764,16.6880722,0.7006528z"/>
	<path fill="#040425" d="M18.6169987,1.1688272c-0.2126446-0.0773532-0.4252872-0.1547066-0.6378269-0.2321692
		c0.0414429-0.0364132,0.0827808-0.0727172,0.1241531-0.1090592c0.2190685-0.0077143,0.4162941,0.0241378,0.5137691,0.2367659
		c0.0461807,0.0232497,0.0614929,0.0464398,0.046154,0.0696874C18.6479759,1.1571969,18.6326294,1.1688272,18.6169987,1.1688272z"/>
	<path fill="#2C2C2B" d="M12.3061523,1.8985519c-0.1918116,0.1909587-0.3610125,0.408041-0.6588955,0.4764509
		C11.8017445,2.1409237,11.9630661,1.9147455,12.3061523,1.8985519z"/>
	<path fill="#030326" d="M14.1021338,0.8313931c-0.1319494,0.1543547-0.3184481,0.2076675-0.5193758,0.2342373
		C13.5782967,0.6585812,13.9289331,0.9093269,14.1021338,0.8313931z"/>
	<path fill="#1F1F2A" d="M11.3995018,2.6008453c-0.0794783,0.2452774-0.2341709,0.4290695-0.5059929,0.5171306
		c0.0004416-0.2437701,0.2930717-0.3162298,0.3640471-0.5186543C11.3048563,2.5998247,11.3521786,2.6003349,11.3995018,2.6008453z"
		/>
	<path fill="#212121" d="M9.7079048,5.314991c0.0401573-0.0813146,0.0803156-0.1626301,0.1203671-0.2440038
		C9.9193192,4.797842,10.0104713,4.524754,10.1016245,4.251667c0.0557022-0.0525146,0.1076927-0.0496044,0.1559725,0.0087247
		C9.7702646,5.5289431,9.716198,6.8227053,9.9876995,8.1354074c-0.3863878-0.2342563-0.2328444-0.6131392-0.299181-0.9331245
		c-0.1113052-0.1827717,0.0492001-0.40874-0.1110506-0.5837326C9.5774813,6.4953899,9.5774937,6.3722305,9.577507,6.2490702
		c0.1626711-0.1740971-0.0062914-0.4037828,0.1172657-0.5844364C9.6991501,5.5480862,9.7035275,5.4315386,9.7079048,5.314991z"/>
	<path fill="#1F1F2A" d="M10.257597,4.2603917c-0.0520182-0.0029092-0.1040363-0.0058184-0.1560135-0.0087266
		c0.2238331-0.3761904,0.364253-0.8036261,0.7808752-1.0612955C10.7439899,3.5811076,10.499259,3.9200015,10.257597,4.2603917z"/>
	<path fill="#212121" d="M18.2341175,2.5996487c-0.6428699-0.1365693-1.2476234-0.4465528-1.9403515-0.3562753
		c-0.2156677-0.0916162-0.4312229-0.0927246-0.6466646,0.000663c-0.5932465-0.1022956-1.1225462,0.1989486-1.6955967,0.224416
		C15.2046947,1.8011695,17.2718964,1.8645169,18.2341175,2.5996487z"/>
	<path fill="#1B1B22" d="M19.1277008,1.5514234c0.0026703-0.044524,0.0053406-0.0890478,0.0080109-0.1335717
		c0.7544537,0.09613,1.206192,0.5648263,1.6105938,1.092654c0.0187283,0.0928781,0.0045834,0.1765134-0.0821075,0.239157
		C20.1520329,2.3502495,19.6398659,1.9508364,19.1277008,1.5514234z"/>
	<path fill="#212121" d="M10.0994053,8.8517828c0.0337715-0.2503757-0.2053652-0.46455-0.1146851-0.7224941
		c0.243804,0.4644451,0.5314837,0.9127741,0.6295395,1.4307995C10.4426413,9.3239861,10.2710238,9.0878849,10.0994053,8.8517828z"/>
	<path fill="#000026" d="M20.6641979,2.7496626c0.0055256-0.0891025,0.0110493-0.1782055,0.016573-0.267308
		c0.0258751-0.0098579,0.0517464-0.0197153,0.0776424-0.0297813c0.0865078,0.0070298,0.1610813,0.0400796,0.2294846,0.0869455
		c0.0864468,0.0637002,0.1631374,0.1366973,0.2363148,0.2131088c0.0543251,0.0589976,0.0942993,0.1241341,0.0994415,0.2032845
		c0.001236,0.0791113,0.0024719,0.1582222,0.003706,0.2373335c-0.3110981,0.056814-0.3492069-0.2558165-0.5544491-0.342258
		C20.7366734,2.8172126,20.7004356,2.7834373,20.6641979,2.7496626z"/>
	<path fill="#1B1B23" d="M19.6663113,3.6635129c-0.2822037-0.1425045-0.4966812-0.3478739-0.6636925-0.5973082
		C19.3356323,3.1615458,19.5483189,3.3685813,19.6663113,3.6635129z"/>
	<path fill="#303030" d="M20.4068508,4.086565c-0.0378475,0.0943928-0.0756931,0.1887856-0.1135521,0.2831802
		c-0.1289768-0.0398149-0.2579403-0.0796309-0.3869152-0.1194625c-0.0360851-0.1320577-0.0721569-0.2640994-0.108202-0.3961527
		C20.0175896,3.8955047,20.1165581,4.2002897,20.4068508,4.086565z"/>
	<path fill="#201F22" d="M20.7729111,2.8509877c0.2557316,0.0180609,0.3379288,0.2710183,0.5544415,0.3422165
		c-0.0006523,0.0385809-0.0010777,0.0771227-0.0012741,0.1156797c-0.0490761,0.002507-0.0981445,0.0050011-0.1471977,0.0075207
		C20.9920063,3.1988533,20.8636723,3.0386105,20.7729111,2.8509877z"/>
	<path fill="#1B1B23" d="M13.962429,2.4644713c-0.1256294,0.265744-0.3728905,0.3425188-0.6612635,0.3554866
		C13.4622622,2.6092987,13.6946602,2.5093956,13.962429,2.4644713z"/>
	<path fill="#1B1B23" d="M13.3129625,2.8121436c-0.095562,0.2320299-0.2549124,0.3832552-0.5499353,0.3626475
		C12.9192514,3.0196109,13.0647087,2.8507619,13.3129625,2.8121436z"/>
	<path fill="#212121" d="M17.8419628,6.4956465c-0.3681469,0.0480618-0.3046818,0.3753796-0.4492397,0.5689874
		c-0.1732159,0.2319875-0.1051903,0.5942278-0.4680595,0.7199936c0.1828156-0.5873408,0.4357471-1.1475701,0.7750759-1.6744075
		C17.7471428,6.2386785,17.7945538,6.3671622,17.8419628,6.4956465z"/>
	<path fill="#212121" d="M16.936861,8.1441364c-0.2987556,0.2086458-0.2174911,0.6078157-0.4959354,0.8265476
		c-0.0073128-0.0420923-0.0147533-0.0841484-0.0221958-0.1262074c0.1083298-0.3794775,0.2597771-0.7417383,0.508955-1.0649877
		C16.930727,7.9010277,16.933794,8.0225811,16.936861,8.1441364z"/>
	<path fill="#303030" d="M20.1628304,8.9696131c0.0870304-0.2353363,0.1740627-0.4706726,0.2610931-0.7060089
		c0.1153603-0.0523033,0.004137-0.30936,0.2569027-0.2374983c0,0,0.0010719,0.0008287,0.0010777,0.0008345
		C20.6543846,8.4081001,20.5080414,8.7345963,20.1628304,8.9696131z"/>
	<path fill="#1B1B23" d="M15.6471014,2.2440364c0.2153645-0.1686857,0.4309206-0.1683743,0.6466646-0.0006361
		C16.0782108,2.2435944,15.8626575,2.2438154,15.6471014,2.2440364z"/>
	<path fill="#202021" d="M10.5939045,10.8691902c-0.4442244-0.1895332-0.1527939-0.5570745-0.2411928-0.8327084
		c-0.0397234-0.1157417,0.0134926-0.1479769,0.1313534-0.1221247c0.2544994,0.2227468,0.0542803,0.6288452,0.3943787,0.8170767
		C10.8037062,10.8120508,10.6956263,10.8351355,10.5939045,10.8691902z"/>
	<path fill="#1F1F21" d="M10.4840651,9.9143572c-0.0437555,0.0406733-0.0875111,0.0813484-0.1313105,0.1220732
		c-0.0420666-0.0021486-0.0841246-0.003376-0.1262188-0.003623c-0.0443048-0.1155739-0.0886068-0.2311583-0.1329536-0.3466501
		c0.0015545-0.0815811,0.0031557-0.1632538,0.0047626-0.2449369C10.3304119,9.5284472,10.3781738,9.7411947,10.4840651,9.9143572z"
		/>
	<path fill="#2B2A1F" d="M10.5939045,10.8691902c0.0625639-0.1015463,0.1677809-0.1294374,0.284482-0.1376753
		c0.0346384,0.0558443,0.0692196,0.1117687,0.1037951,0.1677256c-0.2459373-0.0717831-0.2793217,0.221015-0.4768171,0.2323036
		C10.5348959,11.0441332,10.5643997,10.9566622,10.5939045,10.8691902z"/>
	<path fill="#212121" d="M20.6808262,8.0261059c-0.085638,0.0791578-0.1712761,0.1583157-0.2569103,0.2374859
		c0.4044914-1.3088851,0.2665234-2.6027021-0.1294308-3.8892918c0.0431786,0.0379071,0.0863609,0.0757589,0.1295528,0.1136165
		C20.9392891,5.6412683,20.8831921,6.8292532,20.6808262,8.0261059z"/>
	<path fill="#1B1B22" d="M8.0327396,8.0255728c0.0429916-0.2402363,0.1273651-0.4582615,0.377367-0.5873899
		C8.3639851,7.6767406,8.2701969,7.889709,8.0327396,8.0255728z"/>
	<path fill="#F9F801" d="M7.4002514,10.0297518c0.0816584-0.1163778,0.1633177-0.2327566,0.2449765-0.3491354
		c1.0505805-0.7070208,1.3211789-0.6773329,2.2398305,0.2457199c0.1757231,0.3940887,0.2912493,0.7852125-0.0680227,1.1528854
		l0.0048866-0.0061598c-0.6483536,0.850934-1.3098221,0.9168873-2.1616182,0.2155304
		c-0.0282288-0.139739-0.1083093-0.2477713-0.2381635-0.325367C7.2239804,10.6558065,7.2778177,10.3434505,7.4002514,10.0297518z"/>
	<path fill="#212121" d="M7.6603041,11.2885923c0.9767818,0.5787182,1.3195238,0.5445662,2.161665-0.2154655
		c-0.0778217,0.4937544-0.471159,0.6758432-0.9363394,0.7206345C8.3897591,11.8415089,7.8888621,11.8192863,7.6603041,11.2885923z"
		/>
	<path fill="#1D1D22" d="M9.8170357,11.0792217c0.1603537-0.3765917,0.1737127-0.7541761,0.0091581-1.1329622
		C9.7721977,9.884861,9.7795992,9.8304358,9.8483915,9.7829838c0.3824053,0.3451424,0.2217159,0.7855825,0.2505503,1.1927681
		c-0.0427437,0.0396471-0.0854998,0.0792942-0.1282301,0.1189556C9.9195032,11.0895548,9.868269,11.0843887,9.8170357,11.0792217z"
		/>
	<path fill="#1F1F21" d="M7.4002504,10.0297518c0.0072951,0.3111582,0.0145907,0.6223164,0.0218873,0.9334736
		c-0.0545902,0.0041561-0.1091838,0.0083122-0.1637769,0.0124683C7.2375884,10.6518507,7.0393453,10.305768,7.4002504,10.0297518z"
		/>
	<path fill="#1F1F21" d="M9.8483906,9.7829838C9.8409958,9.8373957,9.8336,9.8918066,9.8261995,9.9462385
		c-0.796526-0.7640142-1.0740976-0.797823-2.1809716-0.265624c0.0861454-0.2366257,0.3629231-0.3006639,0.5163159-0.4764338
		c0.0388737-0.0036087,0.0777884-0.006793,0.1167402-0.0095749C8.5446768,9.0531712,8.8104067,9.050333,9.0754194,9.1977882
		C9.3878822,9.3323784,9.6616545,9.5096617,9.8483906,9.7829838z"/>
	<path fill="#030326" d="M8.2909441,9.0883493C8.5490923,8.909461,8.8071766,8.9091215,9.0651951,9.088583
		C8.8070793,9.1777239,8.548996,9.1780539,8.2909441,9.0883493z"/>
	<path fill="#181822" d="M8.2909441,9.0883493C8.5490294,9.0884237,8.8071127,9.0884991,9.065197,9.0885792
		c0.0004349,0.036684,0.0037746,0.0731401,0.0101185,0.109292C8.8097887,9.1967974,8.5441589,9.1958065,8.2784061,9.1947107
		C8.2861071,9.1595459,8.290328,9.1241274,8.2909441,9.0883493z"/>
	<path fill="#F9F701" d="M24.133316,3.4157889c-0.9789734,0.5231645-1.3939819,0.454705-2.1346397-0.3521276
		c-0.3317757-0.6078207-0.1636066-1.1404408,0.4884968-1.5471388c0.5802917-0.3619109,1.2318802-0.2589622,1.7612152,0.2782687
		C24.6959991,2.2490788,24.6530914,2.8535218,24.133316,3.4157889z"/>
	<path fill="#1D1D22" d="M24.133316,3.4157889c0.3104477-0.4266429,0.4904842-0.8760107,0.2172337-1.3737833
		c-0.274065-0.4992501-0.9132328-0.7647476-1.4572392-0.6256189c-0.5933876,0.1517582-0.9996853,0.6713428-0.9624557,1.2420225
		c0.0088615,0.1358335,0.0444984,0.2702072,0.0678215,0.4052522c-0.0942802-0.0365679-0.1885624-0.0731361-0.2828426-0.109704
		c-0.2367134-0.3456521-0.2836056-0.670305,0.1250839-0.9445574c0.2587032-0.236473,0.5174065-0.4729463,0.7761097-0.7094467
		c0.4309425-0.2548375,0.8612843-0.0254474,1.2918835,0.0012964c0.1597118,0.3123041,0.5924759,0.4410983,0.6575069,0.8170282
		C24.7634945,2.6459329,24.7194176,3.1064458,24.133316,3.4157889z"/>
	<path fill="#050625" d="M22.7653675,4.3492923c-0.0504456-0.110631-0.1008892-0.221262-0.1513805-0.3318744
		c0.4730873-0.1655095,0.870985,0.0416522,1.2754803,0.2150221c-0.0522957,0.0365009-0.1043968,0.0731397-0.1567669,0.1096659
		C23.4100742,4.3444262,23.0877209,4.346859,22.7653675,4.3492923z"/>
	<path fill="#030326" d="M21.8409176,2.0093997c-0.1986694,0.2974813-0.1111145,0.6266389-0.1251049,0.9445567
		c-0.0434647-0.0001988-0.0869522-0.0003991-0.1304321-0.0006056c0.0000057-0.0000069-0.0002022,0.0003366-0.0002022,0.0003366
		C21.3624458,2.7562587,21.466629,2.4761724,21.3694,2.2470682c-0.0402565-0.0750411-0.074398-0.1520014-0.0938797-0.233978
		c-0.0017662-0.0575527,0.0167694-0.1088456,0.0576935-0.1529882c0.0905323-0.0391101,0.1748753-0.0365603,0.2492332,0.0316335
		C21.6686039,1.9309568,21.7547626,1.9701784,21.8409176,2.0093997z"/>
	<path fill="#010127" d="M21.5824471,1.8917352c-0.07481-0.0003724-0.149622-0.0007451-0.2244339-0.0011178
		c-0.0562057-0.0268822-0.0948105-0.0672656-0.1134624-0.123204c-0.0219173-0.1227429,0.0250015-0.2208289,0.1277561-0.2992339
		c0.1063442-0.0596879,0.2135029-0.1174055,0.3415947-0.0475521C21.6700821,1.5776632,21.6262646,1.7346991,21.5824471,1.8917352z"
		/>
	<path fill="#222222" d="M21.7139053,1.4206276c-0.0991802,0.0329789-0.1983585,0.0659572-0.2975388,0.0989352
		c-0.0431004-0.3089695,0.0713043-0.4893056,0.4464607-0.45669c0.0354195,0.0054106,0.0710812,0.0078753,0.1069431,0.0074416
		C21.8844509,1.1871171,21.7991772,1.3038721,21.7139053,1.4206276z"/>
	<path fill="#EAEA03" d="M21.8628273,1.0628729c-0.1917114,0.1172022-0.3555565,0.2571605-0.4464569,0.4566921
		c-0.1079483,0.0452324-0.1140461,0.1327028-0.1111507,0.2239019c-0.07728,0.2371362-0.0949039,0.5494227-0.5221653,0.3472121
		c-0.2750397-0.1865509-0.4642982-0.4758645-0.8171291-0.5705955c-0.143259-0.0825402-0.3614731-0.1058465-0.3217487-0.3347354
		c0.0168629-0.0853666-0.0457191-0.1121212-0.1170883-0.1325485c0.0235405-0.0963802,0.0547638-0.1960325,0.1864433-0.1963208
		c0.6536255-0.0014308,1.3072987-0.0001348,1.9608727,0.0067698C21.8018799,0.8645952,21.8344364,0.9687555,21.8628273,1.0628729z"
		/>
	<path fill="#151523" d="M21.4571838,2.12643c0.2443256,0.2496898,0.0767307,0.5526187,0.1279926,0.8272595
		c-0.0434761-0.0000086-0.086956-0.0000153-0.130434-0.0000219c-0.0977688-0.1052094-0.1513367-0.226439-0.1593494-0.3645892
		C21.2931442,2.418566,21.3004761,2.2505233,21.4571838,2.12643z"/>
	<path fill="#282820" d="M21.4532871,2.6017358c0.000494,0.1173124,0.000988,0.2346244,0.0014687,0.3519344
		c-0.0436878,0.0007303-0.0873585,0.0014639-0.1310673,0.0022194c-0.0414028-0.0409749-0.0827732-0.0819716-0.1241417-0.1229687
		C21.0952206,2.5826516,21.1826611,2.5082128,21.4532871,2.6017358z"/>
	<path fill="#111124" d="M9.5774679,6.6185503c0.210351,0.1670041,0.102561,0.3846893,0.1111898,0.5837693
		C9.5116415,7.0299325,9.6080761,6.814146,9.5774679,6.6185503z"/>
	<path fill="#111124" d="M9.6947727,5.6646338C9.6791601,5.8634205,9.7903719,6.0834451,9.577548,6.2491422
		C9.609293,6.0530338,9.5079927,5.8346896,9.6947727,5.6646338z"/>
	<path fill="#010226" d="M19.6441765,1.185348c0.1306515,0.0794916,0.2613029,0.1589833,0.3919544,0.2384751
		c0.298605,0.2055262,0.59585,0.4122143,0.7536602,0.7383547C20.812727,2.2857049,20.7853127,2.3949282,20.6812,2.4822886
		c0,0-0.0004139,0.0000589-0.0004215,0.0000625c-0.5149689-0.3549097-0.9470234-0.8103598-1.5450974-1.0644763
		c0.0000305-0.0000231,0.0043831-0.0078588,0.0043831-0.0078588c-0.0781155-0.2254398,0.1922188-0.1202421,0.2481594-0.2184783
		C19.4735413,1.1894745,19.5588589,1.1874112,19.6441765,1.185348z"/>
	<path fill="#030326" d="M19.3882236,1.191538c-0.0827904,0.0728903-0.1655788,0.1457806-0.2482643,0.2185746
		c-0.1742554-0.0803887-0.3486137-0.160681-0.5229683-0.2411295c-0.0003471-0.034961-0.0003223-0.0697656,0.0000935-0.1045941
		C18.8741379,1.1067559,19.1311798,1.1491468,19.3882236,1.191538z"/>
	<path fill="#201F22" d="M21.4532871,2.6017358c-0.1664524,0.0020363-0.2499599,0.0801163-0.2537632,0.2312169
		c-0.1230221-0.0437608-0.2108231-0.1203477-0.2599506-0.23299c-0.1229553-0.1549969,0.3220253-0.1834066,0.0962334-0.3614836
		c0.1025734-0.0800135,0.1905823-0.1753757,0.3056107-0.2422239c0.0385799,0.043404,0.077158,0.0868083,0.1157513,0.1301938
		C21.4558849,2.2848654,21.454586,2.4433005,21.4532871,2.6017358z"/>
	<path fill="#0F0F23" d="M21.0603828,2.2551839c0.1631165,0.1744618-0.0529346,0.2379334-0.1208096,0.3447788
		c-0.0861225-0.0392265-0.1722431-0.0784533-0.2583714-0.1176772c0.0007401-0.1185455,0.001482-0.2370944,0.002224-0.355643
		c0.0344315-0.0418098,0.0781479-0.052819,0.1311378-0.0332501C20.8885536,2.1572452,21.0047855,2.1677821,21.0603828,2.2551839z"/>
	<path fill="#282820" d="M21.0603828,2.2551839c-0.0858822-0.0408957-0.1717625-0.0817914-0.2576447-0.1226869
		c-0.0345497-0.032547-0.0442276-0.0631764-0.0290909-0.0919104c0.0146275-0.0277588,0.0284023-0.041651,0.0413857-0.041651
		c0.3248215,0.1736264,0.3519001-0.130067,0.4901943-0.2554587c0.0174446,0.0490446,0.0348988,0.0980994,0.0525684,0.1471471
		c-0.0123444,0.0343632-0.0179768,0.069657-0.0165272,0.1057534C21.3245392,2.1522028,21.2369537,2.244035,21.0603828,2.2551839z"/>
	<path fill="#1B1B22" d="M20.815033,1.9989357c-0.0040474,0.0444915-0.0080948,0.0889831-0.0122185,0.1335177
		c-0.0397816-0.0032873-0.0795689-0.0052276-0.1194115-0.0057943c-0.2157402-0.2342906-0.4315071-0.4685639-0.6472721-0.7028368
		C20.4075375,1.4890656,20.6119347,1.743266,20.815033,1.9989357z"/>
</g>
</svg>
