<?xml version="1.0" encoding="utf-8"?>
<!-- Generator: Adobe Illustrator 24.1.1, SVG Export Plug-In . SVG Version: 6.00 Build 0)  -->
<svg version="1.1" id="Слой_1" xmlns="http://www.w3.org/2000/svg" xmlns:xlink="http://www.w3.org/1999/xlink" x="0px" y="0px"
	 viewBox="0 0 32 13" enable-background="new 0 0 32 13" xml:space="preserve" width="32px" height="13px">
<g>
	<path fill="#212121" d="M21.857132,9.8604107c-0.9973545,1.5712757-2.5321598,2.4351187-4.4277611,2.8837318
		c-1.5144062,0.3583975-3.0409756,0.1531916-4.5612326,0.1966343c-1.2766075,0.0364809-2.5567598,0.0407209-3.8329601-0.0011148
		c-1.323411-0.0433836-2.3616033-0.5262461-2.8884773-1.7296467c-0.2865233-0.6544266-0.1884995-1.2625341,0.1643023-1.8359699
		c1.059021-1.721303,2.1475749-3.4275308,3.2246051-5.1396403c0.0932474-0.0682435,0.1724453-0.1870074,0.3165989-0.0731645
		c0.1394863,0.1980071,0.063632,0.3848863-0.0338144,0.5709291C9.7050009,4.9010458,9.7187538,5.0979781,9.6760073,5.2825327
		C9.6484432,5.3895235,9.597805,5.4878845,9.5408344,5.5836663C9.552721,6.2045422,8.8054361,6.2924309,8.5670519,6.7376814
		c-0.201375,0.4650202-0.4802408,0.8925142-0.7553411,1.322813C7.7460465,8.1632032,7.5179782,8.2978315,7.8032722,8.4230757
		c0.1148143,0.0833168,0.2289753,0.1655979,0.2542534,0.3086538c-0.091948,0.3089523-0.3167295,0.54076-0.5304074,0.7832603
		c-0.4464035,0.5066156-0.5104566,1.1328936-0.1765051,1.5473518c0.5798597,0.7196522,1.1729312,0.928709,1.969213,0.6139183
		c0.4804144-0.1899204,0.6290474-0.088088,0.5736542,0.3594999c0.1114016,0.0844994-0.4170065,0.3313494,0.0978575,0.3121109
		c0.811367,0.0368299,1.6234541,0.1477222,2.4287348-0.0386868c0.0776424-0.0969858,0.1792793-0.1799088,0.2103682-0.3033876
		c0.0000153-0.248373-0.2157183-0.3596239-0.389925-0.4814749c-0.3144913-0.2199697-0.3725252-0.4385433-0.061368-0.6950569
		c0.307847-0.2656384,0.6616287-0.4976139,0.7836504-0.8972254c-0.1293726-0.4881182-0.5620842-0.7957106-0.850194-1.189003
		c-0.1878767-0.2036638-0.3157749-0.437006-0.4147596-0.6855564c-0.0966129-0.2420993-0.1432543-0.4915552-0.1408644-0.7490129
		c-0.0011959-0.6050014-0.0062943-1.209692,0.0010176-1.8142004c0.0067854-0.3330574,0.1152315-0.6398969,0.2905397-0.9290824
		c0.550684-1.013886,1.3902617-1.7111804,2.5708189-2.1192346c2.1085768-0.7288212,5.1353178,0.2632704,5.9246778,2.5184436
		c0.1298199,0.3708811,0.1413269,0.7949934,0.4503345,1.1096797c0.1127357,0.0752487,0.1577415,0.1834617,0.1810608,0.3028226
		c0.0800991,0.393652-0.1179981,0.7653122-0.1081104,1.1530299c-0.0315342,0.8033981-0.5140419,1.4081059-1.0645123,1.9796181
		c-0.191555,0.1988773-0.3642006,0.3784838-0.1256561,0.6507206c0.2790203,0.3184271,0.5188255,0.3397102,0.8358803,0.0426235
		c0.4630413-0.4338818,0.7031937-1.0038795,1.0866413-1.4863367c0.2040768-0.136384,0.225956-0.3353348,0.2217102-0.5430059
		c0.0057392-0.1578913,0.0245895-0.3128896,0.1191406-0.4507527c0.1235733-0.1403861,0.1517086-0.3108201,0.1783562-0.4815841
		c0.0098152-0.0486503,0.0243797-0.0961404,0.0402889-0.1431808c0.0965786-0.2215767-0.0023842-0.4363565-0.0285168-0.653892
		c0.0031261-0.1107202,0.0378742-0.2066202,0.1499748-0.2661958c0.0550556-0.0180945,0.1118813-0.0255671,0.170393-0.0219479
		c0.1130009,0.0182571,0.216362,0.0634389,0.3237171,0.0968246c0.1732769,0.0652308,0.3218727-0.0142531,0.4742107-0.0686545
		c0.2129364,0.0057211,0.3251514-0.3140383,0.5872326-0.1523967c0.0650749,0.1032453,0.0632133,0.2118735,0.0330544,0.3231411
		c-0.2054844,0.3488059-0.4648952,0.6723862-0.591671,1.0575705l0.0027103-0.0094266
		C22.6194286,8.1325769,22.2640057,9.0088549,21.857132,9.8604107z"/>
	<path fill="#2A2A2A" d="M23.2775631,7.4124765c-0.0261211-0.4302082,0.3018398-0.72577,0.4921227-1.0736856
		c0.093462-0.5235691,0.4437656-0.9391346,0.7100468-1.3891764c0.1198483-0.2025561,0.2687511-0.390873,0.3190575-0.6231608
		c0.1631088-0.2928681,0.3235054-0.5917079,0.5180664-0.862581c0.9247723-1.2875204-0.3491001-3.0328627-2.0357285-3.0268617
		c-1.8268051,0.0064996-3.6538486,0.0078031-5.480547,0.00002c-0.2036133-0.0034446-0.407505-0.0047047-0.6110706-0.0058529
		c-0.1952763-0.0039089-0.3900032,0.0027629-0.5826912,0.0370953c-0.0645771,0.0069411-0.1291256,0.0053554-0.1933956-0.0018564
		c-0.3443451-0.0614444-0.6931067-0.0311967-1.0397911-0.0373493c-0.2784843-0.022267-0.5360003,0.0455792-0.7837839,0.154018
		c-0.1107445,0.0365902-0.2261887,0.0528557-0.3422956,0.0642627c-0.1949253,0.0102889-0.3713951,0.0759179-0.543025,0.1551095
		c-0.0489435,0.0212198-0.0998049,0.038085-0.1513529,0.0528918c-0.1541376,0.039302-0.3031778,0.090376-0.4421482,0.1643716
		c-0.0462475,0.025685-0.0944586,0.0475094-0.1430674,0.0688511c-0.1738758,0.0700912-0.337781,0.1553502-0.4877386,0.2625788
		c-0.0437136,0.0314831-0.0898962,0.0592363-0.1368151,0.0862254c-0.2270889,0.1144893-0.3915138,0.2866478-0.5335712,0.4800847
		c-0.5170069,0.405714-0.9480429,0.8753843-1.295949,1.4106467c-0.1038465,0.1597683-0.202611,0.3692122-0.4834862,0.2114182
		c-0.0296211-0.086293-0.0288992-0.1694541,0.0293732-0.2469041c1.393569-2.2483368,3.5958252-3.2122612,6.340477-3.249903
		c2.1714344-0.0297803,4.3439198,0.0029322,6.5159321,0.0096647c1.2271328,0.0038037,2.257803,0.3169123,2.8315582,1.4221095
		c0.321991,0.6202313,0.3784199,1.2600077,0.0660152,1.8538309C25.0711079,4.7399464,24.1976147,6.0894461,23.2775631,7.4124765z"/>
	<path fill="#232323" d="M21.857132,9.8604107c0.2416592-0.930934,0.6190968-1.7966299,1.4231224-2.4573679
		C22.787735,8.2134457,22.4332428,9.0901709,21.857132,9.8604107z"/>
	<path fill="#3C3D3E" d="M10.0597725,3.2926221c0.0061131,0.085032,0.0122271,0.1700642,0.0183401,0.2550962
		c0.0357914,0.0414834,0.0474787,0.0874531,0.0318766,0.1387415C10.0410414,3.8215089,9.9669533,3.9542961,9.876689,4.0792241
		C9.8551025,4.0943995,9.8330927,4.1092019,9.8110828,4.1240053C9.7192583,4.1608057,9.6274338,4.1976051,9.5356092,4.234405
		C9.64398,3.8898399,9.8009529,3.5677166,10.0597725,3.2926221z"/>
	<path fill="#313131" d="M21.718729,8.7899446c-0.3945313,0.5185938-0.6648273,1.1089344-1.14641,1.5796461
		c-0.3089123,0.3019371-0.5495872,0.3561115-0.8824043,0.0235157c-0.2906322-0.2904434-0.5715256-0.4975739-0.1133595-0.8899298
		c0.5890675-0.5044556,1.0672283-1.0941801,1.1204052-1.8782101c0.0947151-0.2152033,0.1466694-0.4447412,0.1771564-0.669261
		c0.0746174-0.5495038,0.5237122-0.4173908,0.8743687-0.4035082c0.3951874,0.0156446,0.6493912,0.1871514,0.4840698,0.6052284
		l0.0001926-0.0002847c-0.1564846,0.173583,0.0235863,0.4090586-0.1292953,0.5833039
		c-0.1858883,0.1227136-0.1092644,0.3048687-0.1270847,0.4656391C21.8823681,8.3977318,21.8991604,8.62994,21.718729,8.7899446z"/>
	<path fill="#0F1A24" d="M17.1125546,4.006515c1.150322,0.4296446,1.819582,1.2326102,1.1950054,2.1415119
		c-0.1316719,0.1916075-0.0946102,0.3513088,0.0241909,0.5371919c0.6656551,1.0415273,0.2847023,2.0565281-0.970768,2.615097
		c-1.1298046,0.5026598-2.9258699,0.1413937-3.6386013-0.7625246c-0.4870996-0.6177649-0.6967974-1.1431279,0.1857491-2.1948385
		c-0.0353127-0.0331817-0.0457487-0.0650492-0.0313559-0.0956187c0.014081-0.0299015,0.0274887-0.0448608,0.0400743-0.0449114
		c0.5762978,0.1135483,0.209897,0.4116168,0.1548786,0.6494708c-0.306776,0.6197324-0.2830763,1.1829433,0.3387299,1.6441402
		c1.0122967,0.6520529,2.2392521,0.6482906,3.2361317-0.0123625c0.5296021-0.5030136,0.5968304-0.865387,0.2772484-1.5136232
		c-0.2789745-0.3106856-0.6111069-0.6204023-0.0422974-0.9613118c0.3360634-0.4510779,0.3096333-0.8254437-0.0964947-1.2402606
		c-0.1556492-0.1589766-0.3202858-0.3111153-0.5456581-0.3911676c-0.0537453-0.0210571-0.1039104-0.047627-0.1521778-0.0776043
		c-0.0701427-0.0506892-0.1220703-0.1126575-0.1420326-0.1937499C16.9671459,4.0259819,16.9953499,3.9541466,17.1125546,4.006515z"
		/>
	<path fill="#121B23" d="M9.811553,12.0560789c-0.2040739-0.0970411-0.0067253-0.2442827-0.0749865-0.4178505
		c-0.3857212,0.3674049-0.8726034,0.3095026-1.3465843,0.3009739c-0.5669699-0.0102043-0.8243861-0.4165945-1.1324596-0.7524118
		c-0.4228578-0.4609375-0.3779716-0.9688559-0.0831475-1.4464388c0.2346234-0.3800621,0.5593629-0.7139702,0.8440957-1.068368
		c0.0458889-0.0498829,0.1026115-0.0854225,0.1697826-0.1074734c0.2733765-0.0637369,0.5510674-0.0423269,0.8283911-0.034277
		c0.1038904,0.0085535,0.2028379,0.0332508,0.2959099,0.0762949c0.8241415,0.6940966,1.5237036,1.4446507,1.3840084,2.5701313
		c-0.0665703,0.2233105-0.1686611,0.4280033-0.3776312,0.5739565C10.1541996,11.8578053,10.030014,12.0223207,9.811553,12.0560789z"
		/>
	<path fill="#141B24" d="M10.0672731,3.6569576c0.0012045-0.0366347,0.0047512-0.0730808,0.0107403-0.1092885
		c0.3220882-0.0451684,0.3084469-0.3439236,0.4414749-0.5198524c0.3492718-0.461906,0.7493801-0.8724597,1.2138224-1.2356608
		c0.2382612-0.1262926,0.4037285-0.3356905,0.6395531-0.4647654l0.0018835-0.0013101
		c0.196043-0.1420426,0.4465771-0.2017448,0.6382303-0.3504203l0.0001659-0.0001146
		c0.1699858-0.0789002,0.3697357-0.1031216,0.5127459-0.2315773c0.0421295-0.0013558,0.0842714-0.0023224,0.1264257-0.0028998
		c0.1706676-0.0769951,0.3680382-0.1036678,0.5144119-0.2264515c0.1276026-0.0026401,0.2552023-0.0052801,0.3828049-0.0079197
		c0.2654104-0.1070234,0.5522709-0.1269177,0.8335457-0.1703111c0.3619747,0.0249387,0.7305508-0.0591082,1.08675,0.0559615
		c0.0432396,0.0000806,0.0864792,0.0001609,0.1297207,0.0002414c0.2874527-0.0264499,0.5746708,0.015766,0.8620167,0.0022644
		c0.0948601,0.0016285,0.1894932,0.0054651,0.2811089,0.030948c0.4091434,0.1890561,0.8825722,0.2346279,1.2729664,0.468016
		c0.111021,0.0693876,0.1854115,0.1587059,0.1872482,0.287259c-0.0292645,0.091943-0.0949192,0.152781-0.1921616,0.1869797
		c-0.1717014,0.018363-0.322052-0.0443836-0.4738464-0.1025525c-1.9366741-0.7247118-3.8213816-0.7180279-5.631815,0.3303288
		c-0.1452141,0.1097037-0.2914219,0.2185932-0.4629288,0.2935352c-0.5259562,0.2567269-0.9244986,0.6312655-1.221076,1.0993925
		c-0.0561905,0.1241565-0.119278,0.2451375-0.1938047,0.3610232c-0.2794666,0.346138-0.4157505,0.7700205-0.7179213,1.1040201
		c-0.3130674,0.3052874-0.2045631,0.7883382-0.5477896,1.0811267c-0.0798817,0.0522156-0.1671438,0.0658221-0.261631,0.0416336
		c-0.024683-0.0169721-0.0492649-0.0340724-0.0738487-0.0511727c0.0431461-0.0780187,0.0862913-0.1560373,0.1294365-0.234056
		c0.157835-0.1737523-0.0226126-0.4088058,0.1275444-0.5839496c0.1222363-0.1799664,0.143362-0.3783455,0.1280422-0.5833707
		C9.8110828,4.1240053,9.810688,4.1247087,9.810688,4.1247087C9.9501972,3.9933591,9.9378262,3.7928863,10.0672731,3.6569576z"/>
	<path fill="#121A24" d="M20.7000923,6.1045809c-0.081377,0.2441945-0.243145,0.2733231-0.2394104,0.0034599
		c0.0078621-0.5676146-0.2780743-1.0279565-0.5108643-1.5173163c-0.7064152-1.4850097-2.0693207-2.0841575-3.7167454-2.2027109
		c-1.9310093-0.1389594-3.3218689,0.681628-4.2429409,2.20455c-0.0919724-0.0177493-0.1502972-0.0684614-0.1776342-0.1498704
		c-0.0030546-0.2160263,0.1283579-0.3930359,0.2048655-0.5865149c0.0402565-0.071738,0.0957832-0.1322231,0.1618128-0.1852429
		c0.3173704-0.2372432,0.6032476-0.5030246,0.8645325-0.7916019c0.0628872-0.0630379,0.1368446-0.1121652,0.220376-0.1500742
		c0.2054892-0.0772035,0.4022942-0.1701417,0.5962868-0.2695215c1.083209-0.5006453,2.2127819-0.6125392,3.3882427-0.3356414
		c0.1841602,0.0433817,0.3661919,0.0953994,0.5586777,0.0979073c1.0936184,0.2668581,1.8862209,0.8712239,2.4047298,1.7831738
		c0.1950474,0.4438043,0.4396572,0.8701067,0.5659676,1.3379631C20.8488369,5.6055698,20.9283218,5.8679051,20.7000923,6.1045809z"
		/>
	<path fill="#141B24" d="M12.244709,10.8901215c-0.1870937,0.2063122-0.2379684,0.3447666,0.0826054,0.5363779
		c0.2002239,0.1196766,0.6418839,0.2268381,0.42978,0.6296482c-0.1702652-0.0127306-0.3126068-0.1008396-0.4722643-0.1435328
		c-0.223094-0.0777702-0.4144344-0.1945591-0.5561342-0.3727818c-0.2562027-0.2784586-0.4950523-0.5740252-0.8294506-0.7810745
		c-0.1975517-0.1223173-0.2382126-0.2883711-0.2636538-0.4900389c-0.0414448-0.3285103-0.3490973-0.5596027-0.4344263-0.8780832
		c-0.0011997-0.0841522,0.020853-0.1621504,0.0742292-0.2317705c0.2703753-0.1268768,0.3364868,0.1508131,0.5120687,0.2129879
		c0.0941477,0.0630875,0.1823339,0.1321564,0.2553682,0.2158594c0.2429047,0.317421,0.5282354,0.6095972,0.7065516,0.9659262
		c0.0750875,0.1875725,0.2888069,0.1946917,0.4422703,0.2800808C12.2095852,10.8522959,12.2271481,10.8712082,12.244709,10.8901215z
		"/>
	<path fill="#131B23" d="M17.1125546,4.0065145c-0.0429249,0.0380902-0.0858479,0.0761805-0.1287727,0.1142712
		c-0.4123764,0.1193256-0.8336258,0.0133319-1.2503166,0.0395336c-0.4279356,0.0269084-0.837842,0.0787544-1.1470184,0.3871665
		c-0.395052,0.3690534-0.5468664,0.8242164-0.5663071,1.3261566C13.9966002,5.9272308,13.95963,5.9726696,13.9127893,6.011075
		c-0.2274809-0.1852102-0.2274809-0.1852102-0.2761087-0.5205398c0.019474-0.0757113-0.1479702-0.0067401-0.0631437,0.0020356
		c0.0125923,0.0013022,0.0139074,0.0200429,0.0156574,0.0557456c0.0037737,0.076961,0.0079727,0.1528225-0.0641747,0.2100482
		c-0.1910954-0.4934459,0.1531315-1.2338748,0.8451643-1.6247444c0.7938995-0.4484055,1.6844997-0.4397256,2.5752468-0.2938302
		C17.0100231,3.8503695,17.0572529,3.9488847,17.1125546,4.0065145z"/>
	<path fill="#0E1825" d="M22.4886951,6.225174C22.446455,6.2244039,22.404213,6.2237215,22.361969,6.223125
		c-0.0720997-0.0630879-0.1225624-0.1379075-0.1491356-0.2257776c-0.1155643-0.3879333-0.1224136-0.7959256-0.2611504-1.1794834
		c-0.1614666-0.5479455-0.3813496-1.0700214-0.8062344-1.5007098c-0.0634842-0.0545356-0.1163177-0.1166244-0.1586914-0.1857829
		c-0.0788879-0.1644819-0.1892605-0.3073499-0.3503304-0.4152925c-0.067112-0.0528898-0.1193542-0.1151199-0.1492271-0.1920109
		c-0.0223255-0.0814509-0.0163898-0.1607509,0.0213261-0.2377346c0.0355968-0.0457742,0.0835476-0.0750556,0.1434002-0.0883644
		c0.2849293,0.0057354,0.3690777,0.2494633,0.5479889,0.3818324c0.5742493,0.6163754,0.9129639,1.3686032,1.4129353,2.0284898
		c0.1518421,0.3252683,0.2453976,0.6601334,0.20121,1.0175157C22.6616707,5.8054366,22.6807671,6.0630302,22.4886951,6.225174z"/>
	<path fill="#141A24" d="M23.7699585,5.9913387c-0.1568604,0.0956736-0.1490936,0.4901433-0.5022316,0.2295742
		c-0.0201206-0.0171523-0.0402393-0.0343032-0.0605335-0.0514507c-0.0204067-0.0477462-0.028101-0.0971146-0.0240726-0.148252
		c0.0105438-0.050076,0.0285645-0.0979624,0.0507603-0.1445913c0.0741005-0.1368232,0.1160965-0.2835503,0.1570988-0.4307823
		c0.185833-0.3210716,0.4356556-0.6042914,0.648447-0.9097695c0.0857697-0.0685596,0.1815662-0.1258197,0.2665615-0.1955056
		c0.1262283-0.1013007,0.1889973-0.2865968,0.4118443-0.2612233c0.1991978,0.0731702,0.1329079,0.2264853,0.1314812,0.3603044
		C24.4784698,4.9504762,24.2728004,5.5566688,23.7699585,5.9913387z"/>
	<path fill="#1E1F21" d="M12.5003548,12.2903728c0.1559095,0.3493443-0.1110535,0.3801851-0.350028,0.3287497
		c-0.6072397-0.1306953-1.2044926-0.1490002-1.8091936-0.0043793c-0.1973944,0.0472097-0.3187113-0.0570717-0.4016151-0.2083149
		c-0.0175438-0.1061068,0.0343018-0.1841736,0.1254663-0.2416487C10.506526,11.8864117,12.0544577,11.9670095,12.5003548,12.2903728
		z"/>
	<path fill="#151A24" d="M7.7595229,8.4403458C7.6541848,8.4942741,7.5488458,8.5482025,7.3854814,8.631835
		c0.2078657-0.7475986,0.8260055-1.2532139,1.0178695-1.9401741C8.5038958,6.5682554,8.607399,6.4753656,8.738739,6.6643386
		C8.76056,6.714807,8.7727585,6.7674155,8.7768784,6.8215327c0.0005026,0.133719-0.0473185,0.2593107-0.0797653,0.3875604
		C8.6565552,7.3841453,8.6062632,7.5565138,8.5117865,7.7152448C8.4753256,7.7817926,8.4338818,7.8459806,8.3918524,7.9097614
		C8.3098049,8.0366364,8.207325,8.148963,8.0931826,8.2529507C7.995513,8.3351717,7.9029627,8.4256802,7.7595229,8.4403458z"/>
	<path fill="#37322E" d="M22.3630276,5.9921713c-0.0003586,0.0769958-0.0007191,0.1539922-0.0010681,0.2309709
		c-0.1034412,0.0496192-0.1259747,0.1368637-0.1302929,0.2325749c-0.4861393,0.1390347-0.9731598,0.2871542-1.4070301-0.1131325
		c-0.0048237-0.0952682-0.0272045-0.1829081-0.1245804-0.2379737c0.0863514-0.7758756-0.4195709-1.4026299-0.6377106-2.1018324
		c0.3066311-0.033294,0.3868484,0.1930532,0.4923058,0.3722663c0.1705341,0.2898121,0.2745247,0.6053839,0.3688545,0.9215012
		c0.258007,0.8646212,0.3224831,0.8999515,1.2629719,0.6510868C22.2523594,5.9394913,22.3115311,5.9534698,22.3630276,5.9921713z"/>
	<path fill="#222121" d="M12.5003548,12.2903728c-0.8616276-0.108077-1.7293234-0.3272285-2.5608349,0.1160555
		c-0.5288267,0.03055-0.192791-0.2009888-0.1279669-0.3503447c0.0839615-0.1574402,0.2099476-0.2763329,0.3860645-0.3492517
		c0.1675739,0.2439671,0.4364166,0.1993408,0.6864185,0.1933947c0.485034-0.0115366,0.9737997,0.0419836,1.4538651-0.0637655
		c0.2024145-0.026,0.3372583,0.0549669,0.4191914,0.2196913C12.7527723,12.2081194,12.6668339,12.2858677,12.5003548,12.2903728z"/>
	<path fill="#232323" d="M20.8246365,6.3425846c0.4520092,0.2132063,0.9375916,0.0801587,1.4070492,0.1131568
		c0.1122952,0.2337594,0.2479019,0.4675183,0.0008755,0.7016854c0.0343819-0.4598012-0.2981834-0.4733768-0.6668243-0.4699388
		c-0.328722,0.0030646-0.6397972-0.0316567-0.6364727,0.4182611c0.0012856,0.1741705-0.0619564,0.3808265-0.2323093,0.5192084
		C20.739521,7.1975055,20.7820778,6.7700453,20.8246365,6.3425846z"/>
	<path fill="#161A24" d="M12.2422543,8.6757593c0.2961664,0.4290915,0.814805,0.7286482,0.8990908,1.2811089
		c-0.1573792,0.0992346-0.2042341,0.3646555-0.4901476,0.2707634c0.0006218-0.5363455-0.6767368-0.76334-0.7082958-1.2856321
		C11.9868212,8.8013086,12.1335669,8.7563238,12.2422543,8.6757593z"/>
	<path fill="#2E251F" d="M22.7347279,5.645546c-0.0834885-0.3502302-0.1669769-0.7004595-0.2504635-1.0506887
		c-0.0867081-0.1558161-0.1108303-0.3016748,0.0788631-0.4138145c0.2720604-0.0847139,0.5364323,0.0274625,0.8055649,0.0253115
		c0.1327019,0.009778,0.2624035,0.0302067,0.3753357,0.0995188c0.0466156,0.0411468,0.0654869,0.0924301,0.0603008,0.1508813
		c-0.2307434,0.2941985-0.668354,0.0186429-0.9104443,0.2753425c-0.001297,0.0481677-0.0012264,0.0946608,0.005537,0.1420078
		c0.2065086,0.424592-0.016716,0.9343133,0.3248653,1.3303957c0,0,0.0432167,0.0164814,0.0433292,0.0164466
		c-0.1355457,0.1838803-0.2747536,0.3546486-0.5241604,0.1174612C22.5740814,6.1091943,22.5780563,5.8781681,22.7347279,5.645546z"
		/>
	<path fill="#041625" d="M11.7313395,7.3922091c-0.0458746,0.2465725,0.0889463,0.4652634,0.1298943,0.6984386
		c-0.0644665,0.0445108-0.1355476,0.0565157-0.2133789,0.0362225c-0.5724459-0.725677-0.5625944-1.5249004-0.3573189-2.3489151
		c0.085187-0.0826025,0.1870308-0.0950718,0.2998829-0.0577431C11.7700329,6.2680955,11.5359421,6.8452191,11.7313395,7.3922091z"/>
	<path fill="#202021" d="M8.662117,6.6953583C8.5781746,6.5601797,8.48983,6.6796427,8.403347,6.6916537
		C8.3984184,6.47368,8.6079559,6.4012766,8.7554541,6.3216467c0.3480444-0.1878958,0.571104-0.4440913,0.6706266-0.7962689
		c-0.0000153,0.0000134,0.002224-0.0006881,0.002224-0.0006881c0.233223,0.2534885,0.166296,0.5504131,0.1479816,0.8405232
		C9.5635986,6.4287381,9.5387659,6.4885306,9.5041981,6.544642C9.4643087,6.5973768,9.4113436,6.6365852,9.3472795,6.6629887
		C9.1220512,6.7197051,8.896246,6.7823205,8.662117,6.6953583z"/>
	<path fill="#232323" d="M23.7699585,5.9913387c0.3273563-0.5134068,0.5716743-1.0733294,1.0240688-1.5166917
		c0.0409641-0.0559211,0.0823841-0.0562048,0.124258-0.000844c-0.3828659,0.6216803-0.7657318,1.243361-1.1485996,1.8650146
		C23.7697773,6.2229729,23.7698689,6.1071563,23.7699585,5.9913387z"/>
	<path fill="#131B23" d="M12.6205978,10.187933c0.1735802-0.0770206,0.3471622-0.1540413,0.5207434-0.2310629
		c-0.1629162,0.4194555-0.4832773,0.7134171-0.8966322,0.9332514v0.0000353
		c-0.1517601-0.1656332-0.0506973-0.3271008,0.0084934-0.4898357C12.3351049,10.2717304,12.4182024,10.1436968,12.6205978,10.187933
		z"/>
	<path fill="#1A1E22" d="M11.7313395,7.3922091c-0.2834606-0.5292416-0.1361237-1.0862303-0.1268787-1.634325
		c-0.0945673-0.1581497-0.1631641-0.3084998,0.1270885-0.3510742C11.7314796,6.0686097,11.73141,6.7304091,11.7313395,7.3922091z"/>
	<path fill="#041625" d="M11.7315493,5.4068098c-0.1480579,0.0852804-0.1218262,0.2229075-0.1270885,0.3510742
		c-0.0785341-0.0000191-0.1570683-0.0000381-0.2356024-0.0000572c-0.1053829-0.5136895,0.001091-0.9593024,0.4958162-1.2801571
		c0.0418062,0.0382895,0.0836124,0.0765791,0.1254358,0.114881C11.8680744,4.8545299,11.7327719,5.1130066,11.7315493,5.4068098z"/>
	<path fill="#101A24" d="M13.5250196,5.7583647c0-0.1100864,0-0.2201724,0-0.3606229
		c0.2718973,0.1525941,0.1701288,0.4512987,0.3733845,0.5946522c0.0765476,0.0739975,0.089509,0.1506352,0.0115633,0.2310481
		c-0.0006037,0.0398231-0.0012054,0.0796456-0.0018206,0.1194892C13.6547461,6.2164259,13.5667944,5.9999485,13.5250196,5.7583647z"
		/>
	<path fill="#021527" d="M11.7321863,8.0907555c0.0430098-0.0000353,0.0860205-0.0000696,0.1290379-0.0001068
		c0.127037,0.1950226,0.2540627,0.3900461,0.3810616,0.5850897c-0.0016747,0.1508894-0.085988,0.2273026-0.2509041,0.2311211
		c-0.1376801-0.0345755-0.2044754-0.1298637-0.2519598-0.2422485C11.7050123,8.4739656,11.5617323,8.2837038,11.7321863,8.0907555z"
		/>
	<path fill="#011327" d="M22.734726,5.645546c0.0029259,0.2309747,0.0058498,0.4619493,0.0087528,0.692893
		c-0.1058006,0.0011511-0.2000866-0.0191097-0.2547741-0.1132741C22.5490246,6.0243292,22.3303566,5.7252336,22.734726,5.645546z"/>
	<path fill="#A8530D" d="M7.7595229,8.4403458c0.0803928-0.0826855,0.1607862-0.1653709,0.2411799-0.2480564
		C8.1289434,8.2171755,8.1929541,8.2996588,8.23172,8.4051991c0.0109186,0.0523357,0.0093422,0.1046724-0.0021019,0.1568098
		C8.206542,8.613205,8.1644068,8.6445627,8.1060581,8.658679L8.0606937,8.6567621c0,0-0.0422192,0.0152407-0.0422211,0.0152311
		C7.8580108,8.6635361,7.773005,8.5851088,7.7595229,8.4403458z"/>
	<path fill="#222222" d="M21.718729,8.7899446c0.0582142-0.2047424,0.0854626-0.4208231,0.2576466-0.583847
		C21.9749603,8.4316292,22.0211372,8.6745958,21.718729,8.7899446z"/>
	<path fill="#232323" d="M22.1034527,7.7404451c0.0327759-0.1963301-0.0826321-0.4199157,0.1293011-0.5832996
		C22.2018528,7.3538203,22.3201523,7.5779357,22.1034527,7.7404451z"/>
	<path fill="#151C23" d="M9.6830463,4.7073855C9.6526022,4.9042225,9.7691154,5.1276898,9.5555019,5.2913351
		C9.5864697,5.0945926,9.4711733,4.8713455,9.6830463,4.7073855z"/>
	<path fill="#1F2021" d="M24.9182854,4.473803c-0.0414143,0.0006628-0.0828304,0.0009451-0.1242542,0.0008459
		c-0.0039883-0.1283736,0.0227261-0.2660408-0.1277752-0.3500409c0.0283012-0.2801476,0.0834942-0.5619457-0.0625229-0.8313625
		c0.2222157-0.5266469,0.2647781-1.0530415-0.0061455-1.5788177c0.016058-0.4560661-0.2315331-0.6242682-0.7102089-0.5399723
		c-0.0593529,0.0085845-0.1188927,0.0095712-0.178709,0.006637c-0.2629013-0.0520401-0.5294094-0.0669706-0.7978973-0.0614135
		c-0.0908794,0.001659-0.181366-0.0023509-0.2717972-0.0103818c-0.0909195-0.0074424-0.1786346-0.0265925-0.262373-0.0597041
		c-0.0794678-0.0366166-0.1442165-0.0895128-0.1988773-0.1525105c-0.0999374-0.1872905-0.2948208-0.1989532-0.4874878-0.2156289
		c-0.6274738-0.02253-1.2539196-0.0337688-1.8791637,0.0092973c-0.1782455,0.0559655-0.3841877-0.0139017-0.5494232,0.1007652
		c-0.0744648,0.0637357-0.1339798,0.1430755-0.2298965,0.184065c-0.43536-0.1361799-0.9230537-0.1531615-1.280653-0.4664691
		c-0.0758457-0.0762165-0.075489-0.1519727,0.0016556-0.2272649c1.8902702-0.0013559,3.7806396,0.0078463,5.6707764-0.0072752
		c1.6288357-0.0130309,3.0045547,1.833052,2.1427269,3.0944011C25.3245792,3.722688,25.1329002,4.1047463,24.9182854,4.473803z"/>
	<path fill="#1F2021" d="M17.4950104,0.5074778c-0.303421-0.0064467-0.6159515,0.0460143-0.8954735-0.1148918
		c0.1358776-0.1704694,0.335268-0.0987809,0.5125084-0.1115311C17.1912804,0.424474,17.5305958,0.2029351,17.4950104,0.5074778z"/>
	<path fill="#161D23" d="M16.4698277,0.3923477c-0.3843803-0.0002303-0.7687616-0.0004605-1.153141-0.0006908
		c-0.0430508-0.02562-0.0564241-0.049759-0.0402975-0.0725188c0.0155582-0.0219558,0.031004-0.0329864,0.0465212-0.0329864
		C15.7050953,0.3226238,16.1089554,0.1648794,16.4698277,0.3923477z"/>
	<path fill="#232323" d="M15.3229103,0.2861518c-0.0032806,0.0351146-0.0053444,0.0702884-0.0062056,0.1055132
		c-0.2374372,0.1395735-0.5037127,0.1195611-0.7671766,0.1150568C14.7567673,0.2860957,15.0313597,0.2614543,15.3229103,0.2861518z"
		/>
	<path fill="#1C2128" d="M12.3728638,1.3273906c-0.1605549,0.215018-0.3159742,0.4358971-0.6395626,0.4647647
		C11.8917694,1.5747544,12.0490389,1.3559971,12.3728638,1.3273906z"/>
	<path fill="#232323" d="M17.4950104,0.5074779c-0.1276741-0.0755092-0.2553482-0.1510187-0.3829918-0.2264756
		c0.2135849,0.0002714,0.4271431,0.0004902,0.6407204,0.000777c-0.0005341,0.0758219-0.0010853,0.1515759-0.0016384,0.2273313
		C17.6657372,0.5085672,17.5803738,0.5080226,17.4950104,0.5074779z"/>
	<path fill="#1C2128" d="M13.0129776,0.9756601c-0.1348476,0.2345434-0.3760595,0.3083484-0.6382532,0.3504149
		C12.5091534,1.0908992,12.7513657,1.0186228,13.0129776,0.9756601z"/>
	<path fill="#1C2128" d="M14.1667271,0.514617c-0.102335,0.2057616-0.2958393,0.2397215-0.5144024,0.2264646
		C13.7858353,0.5940607,13.9611511,0.5258231,14.1667271,0.514617z"/>
	<path fill="#1C2128" d="M13.5258894,0.7439682c-0.0988979,0.2094903-0.2937746,0.2426691-0.5127478,0.2315778
		C13.1450348,0.8266663,13.3222075,0.7609719,13.5258894,0.7439682z"/>
	<path fill="#212121" d="M10.0672731,3.6569576c0.0127573,0.2006419-0.0216827,0.3798051-0.2565756,0.4677515
		C9.8103676,3.9297206,9.8427687,3.749625,10.0672731,3.6569576z"/>
	<path fill="#F37102" d="M13.919425,5.8532777c-0.1072712-0.5364661,0.1226606-0.9658604,0.5143385-1.3438969
		c0.835494-0.5555532,1.7306232-0.5777488,2.6651936-0.2472482L17.0944233,4.254406
		c0.4037609,0.1136732,0.6991463,0.3365149,0.8528767,0.7022667c-0.0126266,0.0579619-0.0476665,0.1019068-0.101511,0.1340079
		c-0.1826935,0.0253754-0.3539028-0.0317178-0.4638309-0.1462421c-0.4288845-0.4468064-0.9890099-0.4295101-1.5717039-0.4513345
		c-0.7029676-0.0263295-1.0701723,0.4023085-1.4754276,0.7835965c-0.1895695,0.1783566-0.103199,0.396215,0.0796041,0.5687737
		c0.3966522,0.3744187,0.3662539,0.7985926,0.0300264,1.14854c-0.40378,0.4202623-0.3818274,0.7711811-0.0057621,1.1694884
		c0.1043148,0.1104841,0.205575,0.2542953,0.1058779,0.422925c-0.0948725,0.0446968-0.1836901,0.0328503-0.2680149-0.0226688
		c-0.6255598-0.5149088-0.6994076-0.8766546-0.3512068-1.7204041C14.4508352,6.5107098,14.0586185,6.182622,13.919425,5.8532777z"/>
	<path fill="#E86A04" d="M14.2765579,8.5637589c0.0909548-0.0016823,0.1819077-0.0033646,0.2728624-0.0050468
		c0.4061117-0.0197945,0.7664127,0.169364,1.1684656,0.2010174c0.6512241,0.0512695,1.2385025-0.1565886,1.8492584-0.2774124
		c0.0703182,0.0057554,0.1311264,0.0308552,0.1826591,0.0746002C16.8653183,9.3023548,15.2017269,9.3056326,14.2765579,8.5637589z"
		/>
	<path fill="#EE7103" d="M17.8682919,5.0591793c0.0051136-0.0431609,0.0102253-0.0863218,0.0153389-0.1294827
		c0.4277134,0.370698,0.441618,0.6267824,0.063158,1.1631827c-0.5836086,0.3259449-0.0148258,0.5459661,0.0895901,0.80867
		c-0.0280876,0.018415-0.0561752,0.036829-0.0842094,0.0554814c-0.7535133-0.1674209-0.9029217-0.4213867-0.4622459-0.9326777
		C17.7493382,5.7233691,17.6003952,5.3312087,17.8682919,5.0591793z"/>
	<path fill="#212121" d="M17.0989571,4.2621322c-0.9196682-0.1973753-1.814394-0.1715679-2.6652002,0.2471943
		c0.1882181-0.4055614,0.6330128-0.4471588,0.9990129-0.4785604c0.5106745-0.0438139,1.0481815-0.1220388,1.5510025,0.090064
		C17.0221748,4.1679001,17.0605659,4.2150159,17.0989571,4.2621322z"/>
	<path fill="#1B1E22" d="M17.9467888,6.0928793c0.1621323-0.3959622,0.319582-0.7917137-0.0631695-1.1631508
		c-0.1348705-0.3493643-0.5296001-0.4468417-0.7891178-0.675386c0.640274,0.0167613,0.9492111,0.4423332,1.1103764,0.8932967
		C18.309,5.4389887,18.5026531,5.8893089,17.9467888,6.0928793z"/>
	<path fill="#EE7103" d="M17.7498035,8.5569172c-0.0433254-0.0025339-0.0866547-0.0050678-0.1299801-0.0076008
		c0.2728348-0.5103302,0.15312-1.0960388,0.3740959-1.6163268c0,0,0.0423965-0.0313892,0.0424271-0.0314145
		C18.46665,7.5260763,18.3766747,8.0458136,17.7498035,8.5569172z"/>
	<path fill="#1F1D23" d="M13.919425,5.8532777c0.3055182,0.3284669,0.7314863,0.6563401,0.0059013,0.9899812
		c-0.0955334-0.2046704,0.4855518-0.4233789-0.0153646-0.6198044c-0.0037746-0.0770364-0.0075579-0.1540613-0.0114489-0.2310729
		C13.9054108,5.946022,13.9124184,5.8996496,13.919425,5.8532777z"/>
	<path fill="#F47201" d="M9.7968903,9.7577372c0.3226776,0.7708588,0.2024584,1.2794695-0.3905821,1.6524382
		c-0.5364981,0.33741-1.0660686,0.2518978-1.7732129-0.2863302c-0.1115108-0.1731844-0.2689662-0.3192225-0.359509-0.504797
		c0.0005803-0.129405,0.0011597-0.2588091,0.00174-0.3882141c0.084703-0.1937723,0.2666569-0.33634,0.340364-0.5363712
		c0.151823-0.1359863,0.2748437-0.3012552,0.4787636-0.3832693C8.9000101,9.0439758,9.2940178,9.147378,9.7968903,9.7577372z"/>
	<path fill="#ED6E03" d="M12.3379011,11.8364611c0.0177908,0.1022377,0.0036182,0.2167873-0.1253786,0.2190657
		c-0.6311541,0.0111475-1.2631149,0.0198669-1.8938236,0.0016594c-0.3147812-0.0090876-0.0831766-0.2310076-0.1210833-0.3503551
		c0.2201548-0.0948353,0.2713423-0.303153,0.3818188-0.4716501c0.1951103-0.6115932,0.2610073-0.6329374,0.7295971-0.1986122
		c0.1768694,0.1639376,0.3916407,0.2938623,0.5336475,0.489028C11.9581833,11.6947327,12.1609936,11.7484798,12.3379011,11.8364611z
		"/>
	<path fill="#222121" d="M11.842679,11.5255966c-0.1794376-0.1292658-0.4048967-0.2294884-0.5295277-0.3933401
		c-0.34902-0.4588499-0.5445824-0.2537107-0.7337151,0.1029425c-0.0498724-0.7619162-0.1339579-1.5046492-0.8737154-2.0292873
		C9.5300112,9.0812969,9.4313927,8.8664951,9.2973137,8.6931782C9.2932549,8.5773039,9.3225965,8.474041,9.4303246,8.4001322
		c0.0572853-0.0212517,0.116847-0.0289812,0.1785374-0.0240259c0.4939852,0.1821995,0.5217752,0.6405373,0.7142172,1.0015144
		c0.3545933,0.6266556,0.5738363,1.3300352,1.2434645,1.7770786C11.6980391,11.242486,11.8326626,11.3516874,11.842679,11.5255966z"
		/>
	<path fill="#1D1F21" d="M9.7968903,9.7577372c-0.5037222-0.4708166-1.0765734-0.6627474-1.7710009-0.364213
		C7.9853492,9.3649483,7.9707546,9.3352079,7.9820457,9.304287C7.9935441,9.2727947,8.0056658,9.25704,8.0184736,9.25704
		C8.899519,8.9370041,9.5355988,9.116086,9.7968903,9.7577372z"/>
	<path fill="#9C4D0F" d="M9.4521933,8.4532681C9.4268856,8.5473118,9.4148407,8.6484613,9.2973156,8.6931372
		C9.2203074,8.6837158,9.1433001,8.6742544,9.0662937,8.6647921c-0.2924299-0.1294823-0.6207933,0.0244627-0.9143448-0.096179
		C8.1497917,8.5292978,8.1476345,8.4899826,8.1454773,8.4506674c0.066185-0.0733747,0.1517906-0.1165962,0.2528934-0.1364603
		c0.1320381-0.022418,0.2656527-0.0240021,0.3994951-0.0246115c0.167944,0.002696,0.3367586-0.0000229,0.4993858,0.0490742
		C9.3624048,8.3616323,9.4139252,8.4000845,9.4521933,8.4532681z"/>
	<path fill="#1A1D22" d="M8.1519489,8.5686131c0.3072357,0.0122204,0.6359663-0.1449499,0.9142466,0.0962095
		C8.7463703,8.6627941,8.426445,8.6607962,8.1062899,8.6587391C8.1225348,8.6291561,8.1378317,8.5991344,8.1519489,8.5686131z"/>
	<path fill="#181D22" d="M8.0184727,9.25704c0.0024662,0.0454741,0.0049324,0.0909491,0.0074072,0.1364536
		C7.8976974,9.5045652,7.769506,9.6156073,7.641315,9.7266474C7.5956116,9.7792521,7.5507936,9.7811728,7.5069966,9.7247009
		C7.6283665,9.5242414,7.8002648,9.3696299,8.0184727,9.25704z"/>
	<path fill="#39281D" d="M7.2735863,10.6190481c0.2541542,0.0889015,0.3108835,0.2944555,0.3595109,0.504797
		C7.4234552,11.0086412,7.2179489,10.890995,7.2735863,10.6190481z"/>
	<path fill="#39281D" d="M7.5069966,9.7247009C7.5517669,9.7253494,7.5965362,9.725996,7.6413107,9.7266455
		c-0.0598001,0.2055006-0.1070127,0.4185867-0.3660388,0.5040894C7.1883311,9.9997606,7.4352808,9.895504,7.5069966,9.7247009z"/>
	<path fill="#F47302" d="M10.9477787,9.6417236c-0.0750561-0.0515881-0.1501122-0.1031752-0.2251682-0.1547632
		c-0.2265062-0.3341026-0.5195065-0.6315041-0.6720095-1.0073652C9.5216341,7.0872784,9.5436277,5.7145801,10.2266169,4.365582
		c0.2912493-0.3284345,0.3532019-0.7847736,0.7200899-1.0710154c0.0228233,0.0243499,0.0456457,0.0487006,0.0687265,0.072978
		c0.0065651,0.5838513-0.3972883,1.047802-0.5610809,1.5848417c-0.4095392,1.3427858-0.2952175,2.6298332,0.3411264,3.8912168
		C10.9200401,9.0905123,11.1950645,9.3295889,10.9477787,9.6417236z"/>
	<path fill="#091526" d="M10.3230791,9.3776207c-0.3838644-0.2258348-0.338809-0.7439852-0.7701035-0.9374943
		C9.51017,8.3951092,9.4736338,8.3462057,9.4425583,8.2936745C9.3783989,8.0632839,9.3052855,7.8338666,9.3336487,7.591352
		c0.0552378-0.3757973,0.0878496-0.7531676,0.0950861-1.1323323C9.4285841,6.1475759,9.4284334,5.8361316,9.4282932,5.5246887
		c0.0828114,0.00103,0.1656132,0.0020595,0.248414,0.003088C9.807395,5.6271605,9.8131037,5.7618494,9.7905035,5.8972788
		c-0.1462688,0.8765035,0.074502,1.7120948,0.3356361,2.5432358c-0.0067854,0.2501574,0.3651505,0.4119263,0.1978683,0.6999998
		C10.323698,9.2195501,10.3233881,9.2985859,10.3230791,9.3776207z"/>
	<path fill="#1F2021" d="M12.7569389,1.5587122c0.6564741-0.5724333,1.4914379-0.7755321,2.3486652-0.8805641
		c1.2344017-0.1512454,2.4442158-0.0698316,3.5541801,0.5241753c-0.0209408,0.0198082-0.0418835,0.0396161-0.0627365,0.0596513
		c-0.2507286,0.0997405-0.4736977-0.0278343-0.7078571-0.0700808c-0.0608711-0.0136956-0.1197014-0.0319848-0.1782207-0.0519137
		c-1.3639221-0.3877004-2.6962233-0.2975657-4.0004082,0.2163717c-0.0552139,0.027445-0.1125326,0.0510188-0.1700258,0.0740064
		C13.2829828,1.4897034,13.0607815,1.7340403,12.7569389,1.5587122z"/>
	<path fill="#212121" d="M10.0686674,8.5565186C9.7008467,7.5723758,9.626092,6.5567794,9.6767836,5.5277438
		c0.2774-0.3503938,0.1227779-0.8704205,0.5497932-1.1621656c-0.4758434,1.3941951-0.487525,2.7893257-0.010169,4.1854463
		C10.1694298,8.6034803,10.1200781,8.6029816,10.0686674,8.5565186z"/>
	<path fill="#081725" d="M19.0352745,1.3222189c0.0415039-0.0381685,0.0830059-0.0763366,0.1245098-0.1145047
		c0.087532-0.0919079,0.2027035-0.1155295,0.329237-0.1116803c0.0600319,0.004142,0.1187191,0.015747,0.1760597,0.0324746
		c0.2204456,0.0800513,0.4075832,0.2121574,0.6072826,0.3254514c0.2152557,0.1460276,0.4451752,0.2816441,0.495924,0.5507579
		c0.0042381,0.1307983-0.1030998,0.1888816-0.1998386,0.2539048l-0.0000057,0.0000446
		c-0.437912,0.043669-0.6479244-0.306348-0.9696999-0.463745C19.4066582,1.6417959,19.1280937,1.5733955,19.0352745,1.3222189z"/>
	<path fill="#F47302" d="M12.7569389,1.558712c0.2535782-0.0815096,0.5071545-0.1630192,0.7607336-0.2445285
		c0.0300798,0.0531187,0.0545006,0.1246209,0.0099182,0.1616546c-0.4439936,0.368817-0.892848,0.7334408-1.5234079,0.8136955
		c-0.0780687-0.3202268,0.1968985-0.382219,0.4232855-0.4797689C12.5372915,1.7260807,12.6471157,1.6423966,12.7569389,1.558712z"/>
	<path fill="#191D23" d="M19.0352745,1.3222187c0.2125359,0.1176038,0.4250698,0.2352077,0.6376057,0.3528122
		c0.0672112,0.0739889,0.0808811,0.1536478,0.0307655,0.240121c-0.4072475,0.1624844-0.6304588-0.1647838-0.9305038-0.2892109
		c-0.1168976-0.1081812-0.1896229-0.2310836-0.1518002-0.3894553c0,0,0.0382195-0.0340543,0.038332-0.0341084
		C18.7849483,1.2422887,18.9101124,1.2822539,19.0352745,1.3222187z"/>
	<path fill="#1C2128" d="M12.4274683,1.8097643c-0.1625204,0.1443833-0.325038,0.2887663-0.4875584,0.4331497
		c0.0087833,0.2563727-0.2247677,0.3711083-0.3748741,0.5351205c-0.1378031,0.1001015-0.2529793,0.24735-0.4675579,0.193083
		C11.3770437,2.4284019,11.7697392,1.9931755,12.4274683,1.8097643z"/>
	<path fill="#161D23" d="M19.5440636,1.2087381c-0.1280918-0.0003321-0.2561836-0.0006644-0.3842773-0.0010098
		c-0.0426788-0.0773914-0.0853558-0.1547691-0.1280327-0.2321471c0.0024643-0.0959256,0.0247765-0.1828154,0.1278229-0.2329525
		C19.3736572,0.8391991,19.5635262,0.9523384,19.5440636,1.2087381z"/>
	<path fill="#F47302" d="M11.0974779,2.971117c0.1206532-0.0964849,0.2413063-0.19297,0.3619604-0.2894554
		c0.1790705,0.427341-0.0738688,0.5806487-0.4846182,0.6338551c0,0-0.0280924-0.0209346-0.0281019-0.020942
		C10.9969645,3.1867504,11.0472212,3.078934,11.0974779,2.971117z"/>
	<path fill="#FA7401" d="M10.9748201,3.3155167c0.2256975-0.1704979,0.5126343-0.3021288,0.4846497-0.6337304
		c0.1198025-0.1831005,0.2787657-0.3305013,0.4805784-0.4388452c0.5792971-0.234159,1.1356134-0.5008798,1.5776339-0.9287238
		c-0.0000095-0.0000336-0.0043201,0.0028417-0.0043201,0.0028417c1.4304333-0.5281067,2.8909235-0.5894744,4.3782625-0.2339232
		l-0.006897-0.0053296c0.2779541,0.2185333,0.7212944,0.1592215,0.9460144,0.4671873
		c0.3552952-0.0436957,0.5074043,0.3453687,0.8490543,0.3307331c0.1380672,0.041734,0.2294674,0.1408533,0.3338833,0.2242357
		c0.2879791,0.2098157,0.4657364,0.5143478,0.7535686,0.7245085c0.1876659,0.2980952,0.4322414,0.5553069,0.6939735,0.800776
		c0.3117886,0.3322597,0.3925056,0.7602499,0.5750732,1.1462548c0.0677071,0.4074473,0.2356644,0.8007698,0.2023029,1.221746
		c-0.2562733,0.4523177-0.7120762,0.2383933-1.0734596,0.228478c-0.336216-0.0092258-0.2641087-0.3463593-0.3164959-0.5543804
		c-0.151125-0.6000996-0.3002968-1.1972308-0.7863235-1.6645885c-0.5110207-0.7720313-1.206562-1.34266-2.1547718-1.6374254
		c-1.4195652-0.4203162-2.8146505-0.4561183-4.1640568,0.2199404c-0.1691637,0.0885172-0.3374615,0.179239-0.5211401,0.2425225
		c-0.0318069,0.0234535-0.0636158,0.0469069-0.0954237,0.0703604c-0.2985277,0.3021164-0.6200476,0.5834432-0.9420547,0.8643291
		c-0.027626,0.0326712-0.0552521,0.0653415-0.0828772,0.0980115c-1.0446291,1.5704083-1.1412201,3.182229-0.2546749,4.8369956
		c0.0480194,0.0697899,0.0960407,0.1395788,0.1440601,0.2093687c0.0951424,0.3009415,0.3369169,0.5131664,0.5785065,0.7049789
		c0.2504578,0.1988525,0.2205143,0.3705797,0.0507212,0.5760975c-0.1245222,0.0439892-0.2017956,0.1280813-0.245903,0.2403269
		c-0.2041187,0.2239981-0.3874884,0.5186968-0.7555962,0.1840048c-0.0807962-0.4055872-0.5691175-0.5773573-0.6713028-0.9706154
		c-0.0599136-0.605792-0.5054884-1.0753927-0.676816-1.6605344c-0.426445-1.45644-0.2131786-2.8043771,0.4596062-4.134861
		C10.8186455,3.6721301,10.8937302,3.4925635,10.9748201,3.3155167z"/>
	<path fill="#212121" d="M11.8473196,8.6974907c-1.0171556-1.3978739-0.9081755-3.4673476,0.254694-4.8369346
		c0.0313873,0.2409258-0.1614494,0.4103403-0.2373819,0.617084c-0.2728739,0.3921728-0.3445082,0.8490396-0.4959478,1.2801876
		c-0.0234728,0.7963467-0.1141205,1.6013513,0.3635054,2.3329277C11.741991,8.2974997,11.9195709,8.477829,11.8473196,8.6974907z"/>
	<path fill="#1A1D23" d="M13.6375151,2.6026835c1.3773642-0.7645475,2.8011656-0.8359082,4.2699385-0.2373273
		c-0.5199909,0.0586996-0.9798946-0.1975868-1.4880238-0.229444c-0.9345331-0.0585907-1.7948647,0.1664236-2.6414003,0.4803934
		C13.7259197,2.6568837,13.6788073,2.6546874,13.6375151,2.6026835z"/>
	<path fill="#131A24" d="M12.1848717,3.7624836c0.2405663-0.3543983,0.549922-0.6465759,0.9419985-0.8641565
		C12.9262743,3.2887774,12.6069536,3.5720913,12.1848717,3.7624836z"/>
	<path fill="#131A24" d="M13.6375151,2.6026835c0.0468788,0.0044944,0.0937567,0.0089893,0.1405754,0.0135531
		c-0.1479864,0.1516302-0.3316469,0.225343-0.5555992,0.2115698C13.3382263,2.7183104,13.461874,2.6207197,13.6375151,2.6026835z"/>
	<path fill="#161C23" d="M10.0686674,8.5565186c0.0492306-0.0018272,0.0984592-0.0036535,0.1477146-0.0054865
		c0.1687508,0.3119726,0.3374758,0.6239529,0.5062151,0.9359312c-0.2154198-0.0366716-0.2373838-0.2580194-0.398591-0.3464489
		C10.2388945,8.9458494,10.1537809,8.7511835,10.0686674,8.5565186z"/>
	<path fill="#212121" d="M11.6191082,10.6122675c0.3117762,0.1427612,0.5386591-0.0036869,0.7555962-0.1840105
		c-0.0433321,0.1539698-0.0866642,0.3079348-0.1299953,0.4618998
		C11.9928751,10.8784008,11.6968737,10.9491415,11.6191082,10.6122675z"/>
	<path fill="#232221" d="M20.6965008,2.025357c-0.1216373-0.2014142-0.2957516-0.3547044-0.5153809-0.4662536
		c-0.0640965-0.0694696-0.0778046-0.1446154-0.0308895-0.2265345c0.3735657-0.1043779,0.4846115,0.2275248,0.7177181,0.3560505
		c0.1441994,0.1955874,0.4350967-0.0268549,0.5812664,0.1666338c0.0667,0.0756761,0.1517258,0.1527379,0.1680946,0.2422748
		c0.1269951,0.6946795,0.3657608,1.3282094,1.0152435,1.7797463c0.1227016,0.0853038,0.0994949,0.2450321-0.0142708,0.3635762
		c-0.1527538,0.0840468-0.1245232,0.224906-0.1339703,0.3539796c-0.5873585-0.5920391-0.8604107-1.3683319-1.4035606-1.9862852
		C21.0354233,2.368911,20.8317432,2.2158399,20.6965008,2.025357z"/>
	<path fill="#131A24" d="M21.9680061,4.7118435c-0.2360172-0.3371143-0.285244-0.7616658-0.5993385-1.0622301
		c-0.1444759-0.1163914-0.2489929-0.2487817-0.2114048-0.4380679c0.6246414,0.3364246,0.6763515,0.9740868,0.9481049,1.4960537
		C22.0616856,4.765542,22.0158005,4.7643504,21.9680061,4.7118435z"/>
	<path fill="#131A24" d="M19.9273148,2.1370447c-0.08251-0.0870876-0.16502-0.1741751-0.2475243-0.2612903
		c-0.002306-0.0669245-0.0046177-0.1338214-0.0069199-0.2007209c0.2985306,0.1945423,0.5970516,0.3890873,0.8955727,0.5836328
		c-0.0058975,0.0897813-0.011795,0.1795621-0.0176945,0.2693424C20.2683544,2.4963574,20.1598816,2.2346144,19.9273148,2.1370447z"
		/>
	<path fill="#2E251F" d="M21.9680061,4.7118435C22.013792,4.710433,22.059576,4.709022,22.1053638,4.7076049
		c0.0858784,0.4281764,0.171751,0.8563581,0.2576447,1.2845531c0.0000191,0.0000134-0.0622196-0.0003157-0.0622196-0.0003157
		s-0.0622234,0.0013466-0.0622063,0.0013757C22.1483994,5.566113,22.0582027,5.138978,21.9680061,4.7118435z"/>
	<path fill="#F07202" d="M21.1572628,3.2115455c0.0704365,0.1460288,0.140871,0.2920573,0.2113571,0.4380767
		c-0.3364697-0.1902709-0.5421543-0.4726939-0.6810246-0.8021798c0.027586-0.0116019,0.055172-0.0232036,0.0827599-0.0348413
		c0.1620502,0.0442128,0.2392101,0.1604304,0.2983398,0.2919319C21.0982189,3.1402035,21.127739,3.1758745,21.1572628,3.2115455z"/>
	<path fill="#F07202" d="M19.9273148,2.1370444c0.2987957,0.0098953,0.3942509,0.2889028,0.6234608,0.3909109
		c0.0307274,0.0311058,0.0614815,0.0621586,0.0922356,0.0932114c0.1168156,0.033797,0.1225739,0.1072555,0.0845242,0.1963596
		c0,0-0.0398064,0.0298555-0.0398731,0.0298858C20.3953285,2.6451292,20.1233883,2.4247677,19.9273148,2.1370444z"/>
	<path fill="#131A24" d="M20.6965008,2.0253565c0.2266541,0.1405132,0.5423584,0.2323482,0.3842506,0.5831883
		c-0.2252083-0.0505147-0.2362785-0.3611333-0.5123043-0.3499227C20.6111317,2.1808667,20.6538162,2.1031113,20.6965008,2.0253565z"
		/>
	<path fill="#131A24" d="M20.7275352,2.8175263c-0.0280609-0.0654438-0.0561199-0.1308877-0.0843506-0.1963458
		c0.2720547,0.0658045,0.4323959,0.2134054,0.4255276,0.4832816C20.954977,3.0088637,20.8412552,2.9131947,20.7275352,2.8175263z"/>
	<path fill="#E77003" d="M23.7651215,4.4545417c-0.000227-0.0319281,0.0023289-0.0636706,0.0076637-0.0952272
		c0.0796185-0.0722752,0.1755352-0.0878396,0.2819252-0.0674381c0.1444283,0.0666785,0.2123966,0.1538248,0.0929337,0.2906189
		c-0.2097473,0.3136311-0.4194927,0.6272621-0.62924,0.9408927c-0.1495476,0.1250081-0.1685104,0.3118286-0.2638721,0.4624858
		l-0.0025673,0.0037618c-0.2308388,0.2574053-0.3109207,0.1267214-0.3080387-0.1114097
		c0.0048676-0.4021778-0.0065746-0.7980638-0.2194462-1.164577l-0.0032024,0.0045366
		c-0.0075054-0.2187285,0.1760044-0.1645231,0.3118839-0.1838307C23.2761936,4.4998207,23.5394974,4.6193733,23.7651215,4.4545417z"
		/>
	<path fill="#232323" d="M24.6665459,3.3085387c0.2916546,0.2721119,0.3726864,0.5441608-0.0002899,0.8160727
		c-0.1602421,0.0647893-0.0891647,0.3055019-0.3024521,0.3299537c-0.0995121-0.1030059-0.242733-0.1400909-0.3692818-0.2031288
		c-0.0213223-0.0523071-0.0256844-0.1055336-0.0143166-0.1602631C24.1759205,3.8063467,24.1824455,3.383414,24.6665459,3.3085387z"
		/>
	<path fill="#E26804" d="M22.7244797,4.7136488c0.3121815,0.2811055,0.2650509,0.6437559,0.2832584,0.9957218
		c0.0066471,0.1285133-0.1255665,0.3985662,0.2442303,0.2802649c-0.0092087,0.0716329-0.0184155,0.1432657-0.0276489,0.2148819
		c-0.2685432,0.0609159-0.3507748-0.0652728-0.3310966-0.2810879C22.9310303,5.5087914,22.7686157,5.1182432,22.7244797,4.7136488z"
		/>
	<path fill="#A0500E" d="M24.0240364,4.2357888c0.1648006,0.0067406,0.3686676-0.0368805,0.3400059,0.2188697
		c-0.0722828,0.0425611-0.1443253,0.0852165-0.216383,0.1278539c-0.000473-0.1086931-0.0406818-0.1974692-0.151413-0.2509437
		C23.9680367,4.2906213,23.9773006,4.2586946,24.0240364,4.2357888z"/>
	<path fill="#E26804" d="M23.2545319,5.9858737c-0.0084972-0.1998081,0.030407-0.3771796,0.2638607-0.4624772
		C23.5047016,5.7126989,23.4062233,5.8618803,23.2545319,5.9858737z"/>
	<path fill="#FE6C00" d="M8.7899666,8.4054861C8.6612492,8.4082985,8.5325298,8.4111099,8.4038124,8.4139223
		C8.2712603,8.2449732,8.467948,8.0194139,8.2887011,7.8584929c0.0174952-0.0444274,0.0349913-0.0888553,0.0524864-0.1332822
		c0.1784124-0.0616364,0.2164555-0.2197685,0.2918224-0.3524942c0.1353073-0.0879893,0.2705278-0.0533047,0.4060335-0.0010076
		c0.0509567,0.0225897,0.0965548,0.0526814,0.1380959,0.0877824c0.0334253,0.0416198,0.0532551,0.0886292,0.0628262,0.139297
		c0.0117588,0.1746769,0.0800323,0.3477101,0.0256958,0.5258369C9.1945133,8.3410635,8.9893703,8.3692265,8.7899666,8.4054861z"/>
	<path fill="#ED7503" d="M9.0563116,7.5004616C8.9268427,7.4658995,8.7973747,7.4313364,8.6679058,7.3967743
		C8.5836887,7.3392291,8.5967722,7.2611141,8.6132488,7.182281c0.0257559-0.1134462,0.0515127-0.2268925,0.0772696-0.3403382
		c0.0704107-0.1090341,0.1761866-0.1133733,0.2941885-0.0825C9.2719908,6.9853439,9.2474289,7.2362537,9.0563116,7.5004616z"/>
	<path fill="#FD8000" d="M8.2887011,7.8584929c0.5188026,0.1026616,0.1575613,0.3565187,0.1150837,0.5555229
		C8.3177052,8.4261217,8.2315969,8.4383211,8.145484,8.4505939c-0.0482607-0.08605-0.0965157-0.1721735-0.1447763-0.2583008
		C8.0967007,8.0810232,8.1927013,7.969758,8.2887011,7.8584929z"/>
	<path fill="#573119" d="M8.9145613,6.8075204C8.8398609,6.8189688,8.7651596,6.8304176,8.6904888,6.8419037
		C8.6810322,6.7930565,8.6715479,6.7441711,8.6620893,6.6953216C8.8549061,6.58289,9.0675879,6.5572867,9.2904139,6.5759864
		c0.2324944,0.2564192,0.1061344,0.5576868,0.1267033,0.8405719C9.4074497,7.4812779,9.3837833,7.5414882,9.3462305,7.5971293
		c-0.0521498,0.0576844-0.1133366,0.067163-0.1835279,0.0284004C9.1646767,7.5868454,9.1666508,7.5481606,9.168623,7.5094762
		C9.0488682,7.3403578,9.1396751,7.151444,9.1073112,6.9744272C9.0898304,6.8788123,9.1151457,6.7319002,8.9145613,6.8075204z"/>
	<path fill="#EE6E02" d="M8.6132488,7.182281c0.0181637,0.0714569,0.0363283,0.1429133,0.054574,0.2144308
		C8.6443653,7.5765333,8.5622597,7.7080035,8.341361,7.7251959C8.4318752,7.5442343,8.522563,7.3632574,8.6132488,7.182281z"/>
	<path fill="#121B23" d="M24.6665459,3.3085387c-0.3332539,0.1942108-0.2913399,0.6325481-0.640379,0.816488
		c-0.1310272,0.2673078-0.4454136,0.1040125-0.6385059,0.2255731c-0.2709351,0.047586-0.5135078-0.0698223-0.769392-0.1097407
		c-0.0194931-0.0928135-0.0052509-0.2405062-0.0635357-0.2702332c-0.9555569-0.48738-0.9341183-1.4209554-1.2339497-2.2067044
		c-0.1392612-0.2278633,0.0534649-0.3918972,0.1323338-0.5780822c0.0533619-0.0876493,0.1175346-0.1674637,0.2094841-0.2253087
		c0.092186-0.0456064,0.197298-0.0405722,0.2956657-0.0619824c0.0896435-0.0231685,0.1701603-0.104398,0.2748394-0.0398396
		c0.0428963,0.0390171,0.0857925,0.0780341,0.1286888,0.1170507c0.0854568,0.1763331,0.1710587,0.0422382,0.2566166,0.0000994
		c0.0852203,0.0000127,0.1704388,0.0000252,0.2556572,0.0000378c0.2913628,0.0819055,0.5950203,0.0859227,0.8943825,0.1171352
		c0.0433617-0.0004779,0.0867252-0.0009561,0.130085-0.0014338c0.4452286-0.0120251,0.723032,0.1586977,0.7679024,0.5836732
		C25.0666084,2.219672,25.0670319,2.7640941,24.6665459,3.3085387z"/>
	<path fill="#E26804" d="M23.7651215,4.4545417c-0.2764473,0.3223152-0.7603569-0.0366359-1.0436802,0.2636433
		C22.5712929,4.47679,22.746664,4.466804,22.9370632,4.4650321C23.2130909,4.4624624,23.4891033,4.4581246,23.7651215,4.4545417z"/>
	<path fill="#181D22" d="M23.387661,4.3506002c0.2128353-0.075192,0.4256687-0.1503839,0.638504-0.2255745
		c-0.0007114,0.0369353-0.0014191,0.0738702-0.0021248,0.1107836c-0.0104103,0.0316539-0.0196457,0.0636082-0.0277538,0.0958023
		C23.9217567,4.340817,23.847271,4.3500648,23.7727833,4.359314C23.6444111,4.3564095,23.5160351,4.3535047,23.387661,4.3506002z"/>
	<path fill="#000F29" d="M9.4287348,6.4590197c0.1997433,0.3875132,0.1961527,0.7753634,0.0023241,1.1635289
		C9.3823624,7.5703983,9.3607798,7.5101848,9.36621,7.4419289c0.0327778-0.288898-0.0704937-0.5856113,0.059865-0.8689494
		C9.4263992,6.5349822,9.4272861,6.4969954,9.4287348,6.4590197z"/>
	<path fill="#0D1825" d="M9.426075,6.5729795c0.0003576,0.3116083,0.0007153,0.6232181,0.0010738,0.9348264
		c-0.0378847,0.052218-0.072793,0.0531468-0.1042728-0.0050182C9.3121147,7.1938434,9.3013525,6.8849001,9.2905025,6.5759711
		C9.3356342,6.5749831,9.3808546,6.5739813,9.426075,6.5729795z"/>
	<path fill="#091824" d="M19.6752892,0.6239223c0.7233181-0.1859779,1.4466362-0.1860562,2.1699505,0.0000265
		c-0.0760746,0.0868272-0.1806412,0.1242889-0.296236,0.1429979c-0.5634632,0.0176704-1.1276417,0.0538102-1.6901207-0.0238264
		C19.7853451,0.7191699,19.7242737,0.6792078,19.6752892,0.6239223z"/>
	<path fill="#232323" d="M24.6664391,1.6752713c-0.1721096-0.2860974-0.449934-0.4567968-0.7679119-0.5836664
		c0.2468224-0.2218048,0.458004-0.1062394,0.6454945,0.0699764C24.6952477,1.3037108,24.9361629,1.4435649,24.6664391,1.6752713z"/>
	<path fill="#232323" d="M19.6752892,0.6239223c0.0415134,0.0008112,0.0830231,0.0015805,0.1245365,0.002308
		c0.0308723,0.0235809,0.0452404,0.0501486,0.0431213,0.0797037c-0.0022297,0.0310479-0.0074158,0.0465723-0.0143929,0.045425
		c-0.0795231,0.0515748-0.1378212,0.1091526-0.0489483,0.1991521c0.0517368,0.0894483,0.0890617,0.1793246,0.0387421,0.2792427
		c-0.0537682,0.0280013-0.1035843,0.0218296-0.1500893-0.0136509c-0.0413837-0.0026627-0.0827808-0.0051167-0.124197-0.0073636
		c-0.1491604-0.1410006-0.3166351-0.2694686-0.3844814-0.4661147C19.2297325,0.3363164,19.5094566,0.6853795,19.6752892,0.6239223z"
		/>
	<path fill="#232323" d="M23.6955681,0.8040752c-0.3095894,0.0885423-0.5680828,0.0595894-0.888134,0.0231386
		C23.1183777,0.5780148,23.3759308,0.577399,23.6955681,0.8040752z"/>
	<path fill="#232323" d="M21.593647,0.6275427c0.0838947-0.001186,0.1677876-0.002372,0.2516346-0.0035759
		c0.2975311-0.1524324,0.4121799-0.0541081,0.3878269,0.2347443c-0.0886517,0.0759479-0.1772995,0.1518987-0.2659492,0.22785
		c-0.0582962-0.185158-0.2614059-0.224184-0.4001713-0.3285949C21.5398579,0.7083468,21.5506649,0.6651684,21.593647,0.6275427z"/>
	<path fill="#041526" d="M23.7684517,1.0930319c-0.3225155,0.1154106-0.6132622,0.0295695-0.8943901-0.1171388
		C23.1771698,0.9834533,23.490057,0.9289873,23.7684517,1.0930319z"/>
	<path fill="#232323" d="M22.618412,0.9758588c-0.0883617,0.1451128-0.1885662,0.2782764-0.4046097,0.324993
		c-0.0621624-0.1565062,0.1315517-0.2111883,0.1479855-0.3250949C22.4473343,0.9757925,22.5328732,0.9758257,22.618412,0.9758588z"
		/>
	<path fill="#FE6B00" d="M17.9939194,6.9329896c0.0170193,0.5660286,0.1703415,1.1582246-0.3740768,1.6163974
		c-1.0218964,0.4353199-2.0447683,0.6008205-3.0704222,0.0093088c-0.1158171-0.1613092-0.2061806-0.3456974-0.3523397-0.4795294
		c-0.3995972-0.3658929-0.3571539-0.6717072,0.0200949-1.0461502c0.3545027-0.3518682,0.6149912-0.7606072-0.0186329-1.1531386
		c-0.1982708-0.1228285-0.2023993-0.3827524-0.1325893-0.5950174c0.0812616-0.2470779,1.1582737-0.8840508,1.4468021-0.931488
		c0.9319849-0.1532264,1.682435,0.1611433,2.3556414,0.7058043c-0.0113544,0.4232373,0.0565453,0.797936-0.3748569,1.1903596
		C17.0391159,6.6629043,17.7616234,6.7296658,17.9939194,6.9329896z"/>
	<path fill="#FE6C00" d="M9.8092995,10.4262466c-0.0023985,0.2804174-0.7781401,0.9931965-1.1013784,1.0119848
		c-0.3264608,0.0189753-1.0774889-0.7113552-1.0597281-1.0305233c0.0105419-0.1894484,0.8476529-1.023222,1.0296483-1.0255442
		C8.9961748,9.3781004,9.8118267,10.130765,9.8092995,10.4262466z"/>
	<path fill="#AE530C" d="M9.1627026,7.6255298c0.0427446-0.00244,0.0851393,0.0000567,0.1271811,0.0074911
		C9.4566841,7.8395762,9.4472704,8.1017056,9.553793,8.3272705C9.5595531,8.3649254,9.5592842,8.402545,9.5529795,8.4401274
		c-0.033886,0.0027838-0.0675201,0.007144-0.1008482,0.0131111C9.4020157,8.4494371,9.3518381,8.4456053,9.3016615,8.4417734
		C9.1509743,8.3520222,9.25739,8.1922255,9.183383,8.0815821C9.2461901,7.9269428,9.0225344,7.7830796,9.1627026,7.6255298z"/>
	<path fill="#E17104" d="M9.183383,8.0815821C9.3155003,8.1763897,9.3030252,8.3105774,9.3016386,8.441762
		C9.1310558,8.4297915,8.9604502,8.4178076,8.7899055,8.4056549C8.9194212,8.2958212,9.121459,8.2592993,9.183383,8.0815821z"/>
	<path fill="#1B1E22" d="M9.553793,8.3272705C9.3515234,8.1318693,9.3306503,7.8792863,9.2899323,7.6329818
		c0.0108309-0.0433507,0.0217123-0.0867419,0.0327682-0.1301627c0.0348663,0.00282,0.0696268,0.0044904,0.1044512,0.0049834
		c0.0005598,0.0382829,0.0018368,0.0765424,0.0038662,0.1147637C9.4669123,7.8581867,9.6045704,8.0791149,9.553793,8.3272705z"/>
	<path fill="#EF6D02" d="M17.8916245,1.0831358c-0.5464706-0.0359608-1.0958252-0.0508728-1.6387787-0.1125319
		c-0.9511051-0.1080095-1.8266411,0.2314385-2.7394352,0.3464924C14.9348707,0.6503748,16.3933887,0.5583661,17.8916245,1.0831358z"
		/>
	<path fill="#EF6D02" d="M18.8307419,1.5449938c-0.2809086-0.2135459-0.744236-0.1205469-0.9460182-0.4671228
		c0.2455654,0.0528005,0.4911289,0.1056659,0.7366543,0.1585733C18.6911411,1.3393217,18.7609406,1.4421577,18.8307419,1.5449938z"
		/>
	<path fill="#191D23" d="M19.6682587,1.2161027c0.0436039-0.0023258,0.0872078-0.0046518,0.1308098-0.0069778
		c0.1785107-0.0799789,0.3597965-0.1666278,0.3809223,0.1315358c0.0004005,0.072818,0.0008011,0.1456362,0.0011654,0.2184483
		C20.0101662,1.4447699,19.8392124,1.3304362,19.6682587,1.2161027z"/>
	<path fill="#FE6B00" d="M10.8525772,6.3939471c-0.1324501,1.3301377,0.3941317,2.3132281,1.1935577,3.2014298
		c0.169426,0.188241,0.2812023,0.3539762,0.0481882,0.5488367c-0.3094034,0.2587433-0.3300619-0.0772648-0.4419184-0.1943359
		c-2.3474131-2.4567881-1.6718702-6.7616987,1.8674974-8.2796078c1.0742197-0.4606948,2.2358332-0.7343967,3.5325422-0.42216
		c1.0485363,0.2524803,1.9966507,0.5696875,2.8066654,1.2116451c0.9531918,0.75543,1.621933,1.6713908,1.7096329,2.846729
		c0.0131378,0.1760864,0.4182396,0.4622092,0.0166206,0.5327492c-0.3135471,0.0550714-0.4074936-0.3598375-0.477953-0.5892577
		c-0.45541-1.4829028-1.4636059-2.5328031-2.9426727-3.2332153c-1.4840736-0.7027831-2.941884-0.584097-4.4016209,0.0890114
		c-1.5328331,0.7068155-2.4361563,1.8637528-2.8947315,3.3254011C10.7614336,5.7720647,10.8525772,6.1645193,10.8525772,6.3939471z"
		/>
	<path fill="#FE7100" d="M20.1799908,1.340661c-0.0759697-0.1663892-0.2547054-0.085867-0.3809204-0.1315356
		c-0.0505142-0.0853208-0.1010265-0.1706408-0.1515408-0.2559605c0.130743-0.0814953,0.2772903-0.1197393,0.4334106-0.1322494
		c0.4978809,0.0081024,0.9986305-0.052777,1.4932346,0.0474889c0.0768452,0.0198329,0.1399803,0.0583345,0.1895924,0.115238
		c-0.0608883,0.0747494-0.1217785,0.1494986-0.1826706,0.2242479c-0.1696587,0.0922314-0.2260571,0.2573354-0.3100185,0.4037383
		c-0.1059589,0.1847538-0.241169,0.3013105-0.4863644,0.1970221C20.5831394,1.6526543,20.3815651,1.4966578,20.1799908,1.340661z"/>
	<path fill="#EB7003" d="M20.7847137,1.8086504c0.4754467,0.0306889,0.3914394-0.553944,0.7964039-0.6007588
		C21.49436,1.3932939,21.4076214,1.578698,21.3208332,1.7640119C21.1647949,2.0045509,20.9972382,2.1301663,20.7847137,1.8086504z"
		/>
	<path fill="#B6560B" d="M8.9145613,6.8075204C9.0469456,6.6701198,9.144393,6.7237678,9.1607857,6.8718143
		c0.023325,0.2106466,0.0071526,0.424922,0.0078449,0.6376548C9.1310654,7.5069079,9.0935459,7.5039492,9.0561867,7.5005307
		C8.9931355,7.2721839,9.1524353,7.0061483,8.9145613,6.8075204z"/>
	<path fill="#E96F03" d="M24.2326317,3.2948318c-0.0740318,0.06283-0.1480618,0.1256597-0.2220898,0.1884902
		c-0.6650829,0.4857686-1.3705997,0.3652787-1.8919334-0.3231075c-0.1587658-0.4342475-0.3404369-0.8699057,0.0940876-1.2676188
		c0.0233994,0.0165881,0.0468006,0.0331759,0.0704269,0.0496079c0.0808334,0.1286695,0.0511494,0.2634513,0.0243416,0.3973451
		c-0.0898685,0.4488285,0.138731,0.7582994,0.5480347,0.9575684c0.4231701,0.2060218,0.7817116,0.0470965,1.0965843-0.2301791
		c0.1066036-0.0938735,0.1957798-0.2072475,0.3464146-0.2512612c0.0644875-0.0077288,0.1172237,0.0113192,0.1586761,0.0568326
		C24.4906578,3.0611331,24.3988838,3.1944277,24.2326317,3.2948318z"/>
	<path fill="#703B15" d="M20.0409641,0.9627516C19.9098816,0.9595793,19.7787991,0.9564068,19.6476231,0.9532
		c-0.0683002-0.029992-0.1988316-0.0711598-0.1951408-0.0881853c0.0398579-0.1838446,0.2251129-0.107496,0.3493881-0.1460769
		c0.5968437-0.0488176,1.1935101-0.0650415,1.7897129,0.0078225c0.2680798-0.0037605,0.4492016,0.0677993,0.3756466,0.3598431
		c-0.0679054-0.0343658-0.1357403-0.0686885-0.2035198-0.1029859c-0.0508308-0.0078786-0.101717-0.0157823-0.1526051-0.0236862
		C21.0875683,0.8887644,20.5641747,0.8831369,20.0409641,0.9627516z"/>
	<path fill="#1A1E22" d="M22.1186085,3.1602144c0.7479095,0.6173594,1.0745621,0.6732209,1.8918762,0.3233166
		c-0.1636734,0.4271028-0.5681858,0.4722064-0.9380131,0.3846254C22.6654034,3.7717559,22.1700668,3.689996,22.1186085,3.1602144z"
		/>
	<path fill="#E96F03" d="M22.5991955,1.5424806c0.6589966-0.3471953,1.020483-0.2950035,1.5792923,0.2280197
		c-0.0212803,0.0210367-0.0425587,0.0420732-0.0637722,0.0632834c-0.459734-0.0480938-0.9119358-0.1443359-1.3741169-0.179671
		C22.6810608,1.6299433,22.6340733,1.5925184,22.5991955,1.5424806z"/>
	<path fill="#1F2021" d="M24.2326317,3.2948322c0.0679455-0.1448281,0.135891-0.2896564,0.2038345-0.4344845
		c-0.0476856-0.3137631-0.1765137-0.624264-0.045805-0.9451996C24.848526,2.3505993,24.784256,2.9117215,24.2326317,3.2948322z"/>
	<path fill="#E96F03" d="M24.3906612,1.9151479c0.0932388,0.311911,0.2711792,0.6204246,0.0457439,0.9451588
		c0.000061,0.000041-0.0406837-0.0276012-0.0406837-0.0276012c-0.1706562-0.324527-0.3711624-0.6428475-0.2572632-1.0265396
		c0,0,0.0399742-0.0356151,0.0400009-0.0356405C24.2492123,1.8187159,24.3199348,1.8669319,24.3906612,1.9151479z"/>
	<path fill="#E96F03" d="M22.2126961,1.8925956c0.0465641-0.1920667,0.2086716-0.2782916,0.3865185-0.3500968
		c-0.0000191-0.0000182,0.0355797,0.0336285,0.0355797,0.0336285c0.0800476,0.3083571-0.118721,0.3572986-0.385067,0.3433651
		L22.2126961,1.8925956z"/>
	<path fill="#1D1F21" d="M21.5915833,0.7267603c-0.5965748-0.0025086-1.1931515-0.005017-1.7897186-0.0076741
		c-0.0010567-0.0310484-0.0017357-0.0619557-0.0020351-0.092863c0.5979309,0.0004294,1.1958656,0.0008516,1.793808,0.0012966
		C21.5932064,0.6606196,21.5925159,0.6936921,21.5915833,0.7267603z"/>
	<path fill="#F77001" d="M17.0821037,7.5822492c-0.0029964,0.407114-0.5709629,0.8621058-1.0713158,0.8582196
		c-0.4072695-0.0031633-1.192811-0.6281524-1.1963015-0.9517961c-0.0035734-0.3311615,0.7938471-0.9215393,1.2346849-0.9141121
		C16.6027412,6.5838861,17.0859833,7.0553188,17.0821037,7.5822492z"/>
	<path fill="#F77001" d="M15.9539061,4.8252764c0.2471914,0.0021458,1.0868959,0.5865192,1.0874224,0.7567668
		c0.0003281,0.1057153-0.8203373,0.8351965-0.9419403,0.8372822c-0.2067003,0.0035472-1.0322275-0.6591868-1.0345116-0.8305049
		C15.0609312,5.2929502,15.6089525,4.8222818,15.9539061,4.8252764z"/>
	<path fill="#D35E07" d="M20.0409641,0.9627516c0.5229912-0.1649641,1.0463276-0.1614619,1.5700626-0.0027534
		C21.0877247,0.9608712,20.5643444,0.9618114,20.0409641,0.9627516z"/>
	<path fill="#FB6C00" d="M22.2497272,1.9194924c0.1463737-0.097731,0.3528576-0.1396133,0.3849525-0.3434997
		c0.5253639-0.0532893,1.0395432-0.0466098,1.5038891,0.2300754c0.1148872,0.3362371,0.3605785,0.6451837,0.2572536,1.0266823
		c-0.1221695,0.1313422-0.2286358,0.2789783-0.3692722,0.3910286c-0.3995209,0.3183053-0.8499126,0.468204-1.3329906,0.167311
		c-0.4530373-0.2821827-0.7367477-0.6478441-0.501543-1.1868289C22.2304115,2.1162746,22.231432,2.0147562,22.2497272,1.9194924z"/>
	<path fill="#151924" d="M16.0219402,6.9097972c0.3906212,0.0404782,0.7473049,0.1681895,0.7361431,0.615952
		c-0.010273,0.4121089-0.349268,0.5659819-0.7418423,0.5678005c-0.4265938,0.0019789-0.7830648-0.1866612-0.7703142-0.6092167
		C15.2574158,7.1034994,15.5818834,6.9279051,16.0219402,6.9097972z"/>
	<path fill="#1F1F22" d="M16.4868565,5.3846188c0.2719841,0.2760229,0.1018887,0.4772387-0.1740017,0.5856252
		c-0.3065872,0.1204438-0.6290131,0.101253-0.8481798-0.1881943c-0.1513786-0.1999207-0.0787268-0.3940301,0.1142111-0.5031829
		c0.3194075-0.1807003,0.6622944-0.2761283,0.9117966,0.1146545c-0.1693897,0.1621881-0.4631824-0.0413494-0.6443386,0.20928
		C16.1847477,5.7983069,16.2993412,5.4901438,16.4868565,5.3846188z"/>
	<path fill="#242320" d="M16.3366146,7.4843931c-0.2223778,0.1937299-0.3903503,0.1299238-0.6222773,0.0752711
		C15.9092083,7.3446612,16.0832539,7.3681931,16.3366146,7.4843931z"/>
	<path fill="#1B1924" d="M16.4868565,5.3846188c-0.0257607,0.1108465-0.020668,0.2396784-0.0834064,0.3289666
		c-0.1520405,0.2163763-0.3946819,0.1872535-0.6190109,0.1187272c-0.1568279-0.0479064-0.2315817-0.1762424-0.1772547-0.3224854
		c0.0860147-0.231545,0.3098907-0.231679,0.5227232-0.2094646c0.1225052,0.0127869,0.2405472,0.0610595,0.3606873,0.0932584
		C16.4906826,5.3935213,16.4868565,5.3846188,16.4868565,5.3846188z"/>
</g>
</svg>
