<?xml version="1.0" encoding="utf-8"?>
<!-- Generator: Adobe Illustrator 24.1.1, SVG Export Plug-In . SVG Version: 6.00 Build 0)  -->
<svg version="1.1" id="Слой_1" xmlns="http://www.w3.org/2000/svg" xmlns:xlink="http://www.w3.org/1999/xlink" x="0px" y="0px"
	 viewBox="0 0 32 13" enable-background="new 0 0 32 13" xml:space="preserve" width="32px" height="13px">
<g>
	<path fill="#212121" d="M7.0734558,12.3698511c-1.0849361-0.8513937-1.3914528-1.8841543-0.7921314-2.9923172
		c0.5684981-1.0511723,1.2129931-2.068841,1.9190006-3.0515881c0.4639988-0.5627813,0.7839575-1.204423,1.1910858-1.7983589
		c0.0604296-0.0881572,0.073266-0.2390351,0.257617-0.148869c0.1396637,0.155406,0.126976,0.3311763,0.0849915,0.5112839
		c-0.0330248,0.1136875-0.0839157,0.221858-0.1276398,0.3321176C9.4490757,5.5923243,9.6839218,6.1331277,9.0466661,6.2960324
		c-0.0877209,0.0722914-0.1705894,0.149168-0.248167,0.2306418c-0.4411926,0.5335174-0.7685776,1.1301622-1.145772,1.6990404
		C7.5717468,8.347847,7.5160165,8.4645758,7.6626644,8.5791063C7.7521558,8.649003,7.8514175,8.7098513,7.9053655,8.8098974
		c0.0886292,0.237689-0.0545368,0.4044323-0.2051625,0.5736885c-0.7286358,0.8187561-0.7672467,1.2722263-0.1650839,1.8748064
		c0.6840906,0.6845608,1.1994562,0.7048931,2.2201424,0.0892172c0.0532074-0.0320959,0.1164322-0.0456924,0.1801968-0.0510588
		c0.1000118,0.0168829,0.1598263,0.0941553,0.1315002,0.1626654c-0.1372995,0.3320847,0.1366148-0.0200338,0.1377525,0.0708323
		c0.0911484,0.0166759,0.1235428,0.0787468,0.1426773,0.1513577c0.0096064,0.0454531,0.0208311,0.0908108,0.0387526,0.1334906
		c0.5499086,0.1149378,1.0960741,0.1227846,1.6388931-0.005126c-0.0092831-0.0714951-0.0032167-0.137639,0.068346-0.1836014
		c0.2295437-0.0889254,0.3809633,0.0156498,0.5075798,0.1348763c-0.0156031-0.0708504-0.1151991-0.1102209-0.1983881-0.1589804
		c-0.6373444-0.373559-0.6414328-0.3965254-0.1005926-0.8510666c0.2323265-0.1952534,0.422966-0.4256124,0.6410446-0.6206732
		c-0.0069017,0.0061808,0.006835-0.0182238,0.006835-0.0182238s-0.0285902,0.0274363-0.0329771,0.0321617
		c-0.2670956,0.1405048-0.3145533,0.5550632-0.743434,0.4760103c0.2443209-0.494401,0.2356052-0.9890604,0.0015497-1.4840479
		c0.1937437-0.0745659,0.2693329,0.0584412,0.369173,0.1609859c-0.4228745-0.4307375-0.766573-0.9022989-0.8938637-1.4804444
		c0.0079451-0.2324753-0.0922565-0.4340229-0.2183781-0.6288447c-0.0965128-0.3026381-0.0526142-0.6122322-0.0598173-0.919323
		c0.0029116-0.1235723,0.0184689-0.2453933,0.0629463-0.3628173c0.1223469-0.2100043,0.2247458-0.4251623,0.1980238-0.6723738
		c0.2732916-1.4008899,1.3003855-2.2108204,2.6581631-2.7191858c2.2537441-0.8438251,5.2153072,0.0779514,6.0426807,2.5560341
		c0.0624809,0.1871333,0.0839634,0.3773108,0.0893536,0.5706415c0.1202793,0.5192361,0.1658669,1.0385485,0.0009117,1.55722
		c0.1089935,0.4136815-0.3727093,0.7742009-0.1296234,1.2001848c0.0378685,0.0773621,0.0545998,0.1582117,0.0496998,0.2425556
		c-0.1161671,0.3548584-0.3248672,0.6707945-0.5991077,0.9326897c-0.2930202,0.27983-0.151186,0.4598169,0.0764294,0.6746149
		c0.2949257,0.2783175,0.4807091,0.0772038,0.6780052-0.1038036c0.2543201-0.2333241,0.4212914-0.5253849,0.6332836-0.7869015
		c0.0649033-0.0842056,0.1273689-0.1702127,0.1916447-0.2550917c0.0502987-0.0617743,0.1111851-0.1132612,0.1836491-0.1530533
		c0.0734062-0.0341673,0.1520386-0.0559244,0.2309742-0.0765667c0.1357536-0.0250912,0.2339916-0.1380987,0.3821697-0.1366596
		c0.0578861,0.0228691,0.098402,0.0599489,0.1206036,0.114048c-0.3998127,1.1960497-1.3106709,2.0369396-2.3660164,2.7623405
		c-0.7845173,0.5392456-1.6983662,0.8512583-2.6329803,1.1136751c-0.2468224,0.1620846-0.5310631,0.1158361-0.8028603,0.116169
		c-2.5474272,0.0031233-5.0949507-0.0088587-7.6422262,0.0092134C8.1520185,12.8561144,7.5946403,12.6889277,7.0734558,12.3698511z"
		/>
	<path fill="#313436" d="M12.7951336,0.8539942c1.0704584-0.6511874,2.2959518-0.7940459,3.5303078-0.8109962
		c2.1914387-0.0300935,4.3838882,0.0028782,6.575922,0.0051723c1.3536758,0.0014166,2.3819771,0.4491367,2.9369869,1.6486965
		c0.2212696,0.4782457,0.240303,0.9618049,0.0627117,1.4026418c-0.2152958,0.5344393-0.4935188,1.0641115-0.9110737,1.5105717
		c-0.057621-0.0459652-0.0933151-0.1032238-0.1076164-0.1715393c-0.0051804-0.3725266,0.2835655-0.6381114,0.4269142-0.9566176
		c0.5477448-1.217026,0.1274433-2.3757176-1.0455608-2.8687849c-0.3406982-0.143211-0.6963806-0.1601278-1.0603733-0.1630542
		c-2.022974-0.0162648-4.0460014,0.0095163-6.068594-0.006955c-0.2061176-0.004777-0.4115524,0.0066176-0.6158962,0.0335469
		c-0.3301125-0.020191-0.6602755-0.0456345-0.9918928-0.0370359c-0.361228-0.0270884-0.7084703,0.0175466-1.0352564,0.1680832
		c-0.5028009,0.0390693-0.9370317,0.2978393-1.4298468,0.3703669C12.9549789,0.9685768,12.8613138,0.9355018,12.7951336,0.8539942z"
		/>
	<path fill="#262625" d="M24.9561558,4.4739523c0.0112782,0.0453763,0.0225544,0.0907521,0.0338326,0.1361279
		c-0.7118053,1.16219-1.4293861,2.3215041-2.1326008,3.4879737c-0.285038,0.4728107-0.5255013,0.9677858-0.8092289,1.4412975
		c-0.860981,1.4368935-2.1466312,2.4240694-3.84762,2.9625149c-0.2557983,0.0455866-0.4823437,0.2690544-0.7726192,0.1049871
		c0.8445892-0.3620071,1.7659512-0.5857344,2.5068073-1.1347818c0.987421-0.7317743,1.8813419-1.5293283,2.2258682-2.6999912
		c-0.1037235-0.1042652-0.056963-0.2085104-0.0014133-0.313035c0.4368038-0.7401338,1.0381298-1.400919,1.3020859-2.2251196
		c0.3106613-0.6081777,0.5954857-1.2308321,1.1357555-1.7139492C24.7104645,4.4649668,24.8257198,4.4192791,24.9561558,4.4739523z"
		/>
	<path fill="#969696" d="M17.4279194,12.6068535c0.2703762,0.0430546,0.495039-0.1918478,0.7726192-0.1049881
		c-0.5098057,0.2777119-1.0565758,0.4620018-1.6545696,0.4632444c-2.6786289,0.0055666-5.3573093,0.007494-8.0359011-0.0033541
		c-0.5616937-0.0022745-1.0527201-0.2040777-1.4366131-0.5919037c0.8015389,0.3777437,1.6661558,0.3720245,2.5382318,0.3684769
		c2.0367899-0.0082855,4.0736818,0.0060339,6.1105366,0.0077572C16.294838,12.7465706,16.8689003,12.7495403,17.4279194,12.6068535z
		"/>
	<path fill="#2C2C2C" d="M12.7951336,0.8539942c0.0969534,0.0064148,0.1939077,0.0128298,0.2908611,0.0192447
		c0.0414858,0.1373885-0.0449505,0.2289632-0.1572857,0.2834805c-1.137826,0.552188-1.885355,1.4645165-2.6491642,2.3613324
		c-0.1216183,0.1237812-0.236474,0.2520463-0.2912788,0.4151781C9.9702568,3.9764435,9.9467754,4.0172763,9.9198637,4.0563588
		c-0.0727701,0.0917583-0.1439266,0.1850829-0.2308607,0.26719C9.6676025,4.3350081,9.6458158,4.3460245,9.6240311,4.3570409
		c-0.3894129,0.6121941-0.781352,1.2230835-1.165699,1.8378959C8.3958988,6.294807,8.3099422,6.3208623,8.200325,6.3259459
		c0.7099457-1.1784949,1.369668-2.3852384,2.1463146-3.5262182C10.9293213,1.9437054,11.7463932,1.2606356,12.7951336,0.8539942z"/>
	<path fill="#FA7401" d="M12.1603117,9.1402531c0.5705194,0.4922619,0.5879211,0.9851484,0.0020227,1.4787169
		c-0.0093632,0.0268278-0.0187292,0.0536556-0.0280046,0.080596c-0.2614822,0.1920643-0.4314508,0.0167446-0.5896883-0.1351109
		c-0.1599741-0.1535234-0.3178186-0.3090162-0.4825649-0.4587383c-0.2254591-0.2118673-0.3781118-0.4603453-0.4547119-0.7472248
		c-0.2085295-0.4941025-0.414978-0.9886847-0.6031027-1.4901452C9.7439318,6.673811,9.7761831,5.4966164,10.252367,4.3458171
		c0.1228552-0.2655783,0.3409681-0.4928164,0.3889132-0.7895472c0.05338-0.1614871,0.1356087-0.3082173,0.2713375-0.4263752
		c0.2224207-0.1610036,0.4379683-0.3275478,0.5315113-0.5863285c0.0967875-0.1799293,0.2482309-0.3082523,0.4458895-0.3936467
		c0.2635069-0.0962126,0.4855289-0.2507192,0.7024746-0.4135016c1.3353262-0.8755018,2.8407965-1.039216,4.4210281-0.8576824
		c0.2285728,0.0262581,0.4621143,0.0500775,0.6881161,0.1005087c0.3683338,0.1157242,0.7220325,0.2636046,1.0704212,0.4226944
		c0.0934162,0.0272866,0.182085,0.0639293,0.2675629,0.1075531c1.43643,0.7754706,2.369175,1.904898,2.8872833,3.341888
		c0.1440277,0.3994637,0.1341019,0.7984376,0.1521511,1.2027841c0.0009727,0.2854605,0.0020828,0.5705662,0.0040436,0.8558207
		C22.0721989,7.2018514,22.10495,7.495893,22.0311146,7.7846007c-0.0431557,0.1481419-0.1245441,0.2829299-0.1828327,0.426023
		c-0.1039352,0.2551584-0.1006298,0.6632805-0.5195007,0.5976362c-0.3757401-0.0588837-0.7503872-0.2626238-0.7828846-0.7061443
		c0.5423336-1.3574982,0.4951344-2.6690788-0.3739605-3.9153113c-1.0292759-1.4985092-2.4873524-2.3170075-4.4582338-2.2324104
		c-1.0201216,0.0437874-1.9552994,0.3599793-2.7093792,1.0257796c-0.1849546,0.2393823-0.4350243,0.4315107-0.6020584,0.6842282
		c-0.0477438,0.0654137-0.102025,0.1262686-0.1580648,0.1857295c-0.2724504,0.2716932-0.4477644,0.5922813-0.5712442,0.9397535
		c-0.0186424,0.053443-0.0409422,0.1047583-0.0648975,0.1561742c-0.500741,1.3402228-0.4224291,2.6253781,0.431221,3.8393149
		c0.0572309,0.0813866,0.1057854,0.168314,0.1246252,0.2656918C12.1629105,9.0807734,12.1616106,9.1105137,12.1603117,9.1402531z"/>
	<path fill="#141B23" d="M14.3572102,7.6120071c0.0488338-0.295866-0.1760283-0.4585247-0.3752623-0.631743
		c-0.4644709-0.4038258-0.8456354-0.8807888-0.6646519-1.4767151c0.2996559-0.9866872,1.0133429-1.6176169,2.1837978-1.7309706
		c1.2670259-0.1227062,2.2229948,0.3208783,2.849288,1.32778c0.9917698,1.5944967,0.0077133,3.8813996-2.0290833,4.2666392
		c-0.1446037,0.0273504-0.2858849,0.0692196-0.4287119,0.1043367c-0.0729237-0.1117306-0.0157261-0.2073536,0.0443554-0.3027534
		c0.1869917-0.2158213,0.5315428-0.1713953,0.7312956-0.3667374c0.1466751-0.114377,0.3009796-0.2196379,0.4595928-0.3196421
		c0.2215919-0.1060934,0.3816814-0.2672682,0.5013981-0.4648991c0.116581-0.1505904,0.2365055-0.2984123,0.3764153-0.4318624
		c0.4736195-0.9809752,0.3947392-1.9034519-0.3488312-2.7557621c-0.1561794-0.1587982-0.3184204-0.309423-0.5626526-0.3532248
		c-0.1178989-0.0332742-0.2235222-0.0869093-0.3211269-0.1543059c-0.5807171-0.2776165-1.181015-0.1863699-1.7812157-0.0788612
		c-1.1412134,0.5167756-1.4773684,1.2904758-0.971241,2.2414846c0.1157188,0.2121983,0.2879734,0.3744526,0.5197392,0.4843125
		c0.0771351,0.0413413,0.1526947,0.0843925,0.2299423,0.125679c0.4209967,0.2603083,0.9596386,0.0001163,1.3808517,0.2586083
		c0.0903358,0.1720805,0.0033073,0.3056231-0.1125278,0.4335246C15.4250603,8.1526222,14.8788748,7.9793115,14.3572102,7.6120071z"
		/>
	<path fill="#101924" d="M12.1689415,3.7395608c0.026741-0.032829,0.0534821-0.0656581,0.0802231-0.0984867
		c0.2993307-0.2237928,0.5570717-0.4832938,0.7921314-0.7628899c0.1401215-0.1259615,0.3070679-0.2144151,0.4829264-0.2914195
		c1.3481255-0.6859963,2.7554884-0.7716929,4.2133055-0.3460705c1.0564785,0.2763412,1.7902164,0.9134285,2.351944,1.7422569
		c0.7143059,1.1503425,0.9895973,2.3549323,0.5849171,3.6575565c-0.0820656,0.2641649-0.2007942,0.5021133-0.3525658,0.732934
		c-0.0257626,0.0174837-0.0519581,0.0345669-0.0781574,0.0516491c-0.353981-0.0673447-0.3046322-0.290679-0.162817-0.464489
		c0.1814671-0.2223983,0.1564903-0.4570847,0.162817-0.698288c0.2836418-0.543046,0.2839146-1.0860772-0.0001106-1.6290913
		c-0.1215363-1.3946342-1.2164993-2.548852-2.578476-2.9979539c-1.6458721-0.5427132-3.2135773-0.3186498-4.5771732,0.6842585
		c-0.6708517,0.4934025-1.242116,1.1035762-1.2901411,1.9649911c-0.0934935,0.1909537-0.0788527,0.4209132-0.2542219,0.5823326
		c-0.0008583,0.1164289-0.0017185,0.2328572-0.0025778,0.3492861c-0.1011038,0.0732059-0.1978779,0.0654292-0.2908812-0.0127668
		c-0.1163893-0.5096974,0.240798-0.9440765,0.2755165-1.4297967c-0.0205564-0.0267739-0.0167236-0.0502596,0.0114975-0.0704575
		C11.7882652,4.403904,11.9944553,4.0803213,12.1689415,3.7395608z"/>
	<path fill="#111B23" d="M10.0068998,11.3327227c-0.2620344,0.1886187-0.4943419,0.447135-0.7920933,0.5517731
		c-0.6880779,0.2418041-1.6821513-0.1765261-2.0912008-0.8153887c-0.3550005-0.5544481-0.2285738-1.1360693,0.3815336-1.7047997
		c0.1796041-0.1674242,0.3675661-0.3229218,0.3293862-0.5876036c0.0189075-0.0926771,0.078649-0.1564035,0.1693759-0.198657
		c0.0895958-0.0350313,0.1838617-0.0518732,0.2805681-0.05933c0.1906128-0.0114126,0.3816481-0.0107327,0.5727377-0.0106382
		C9.0471878,8.5145197,9.236742,8.5236521,9.3907442,8.6451073c0.1176691,0.1193371,0.1734571,0.2771902,0.2949047,0.3946018
		c0.1252327,0.138566,0.2720909,0.2589703,0.4041319,0.3921928c0.1188908,0.1492653,0.2552795,0.2932262,0.1969185,0.4999762
		c-0.068224,0.046257-0.1005478,0.1300077-0.1918602,0.1523914C9.7361336,9.9772663,9.7100677,9.4907846,9.2637138,9.4842482
		c-1.0099907-0.3446674-1.7480049,0.2765665-1.6410208,1.0642281c0.0929246,0.6841516,0.6666441,0.9557409,1.6449127,0.7707987
		c0.4230862-0.0281725,0.4910259-0.4252748,0.7618008-0.6090689c0.175128-0.2375135,0.0021181-0.5724945,0.2643671-0.7865601
		c0.4263391,0.3395882,0.3139029,0.7806301,0.2752304,1.2085876c-0.0309391,0.054059-0.0710344,0.1019707-0.1184435,0.1450176
		C10.3145351,11.3721695,10.1760454,11.4553585,10.0068998,11.3327227z"/>
	<path fill="#313130" d="M21.2654858,9.3554688c-0.1656742,0.2453337-0.3079548,0.5072432-0.5014324,0.7328825
		c-0.5685539,0.6630754-0.7806263,0.6465979-1.3507366-0.0236387c-0.1371212-0.1612024-0.1428185-0.2651424,0.0221272-0.3816671
		c0.3816833-0.2696419,0.5288601-0.69063,0.8087711-1.0256872C20.7354431,8.7077723,21.1129723,8.8956213,21.2654858,9.3554688z"/>
	<path fill="#151B23" d="M10.7614365,9.390131c0.0327606,0.2702494,0.3029175,0.4225636,0.3979435,0.6618795
		c0.1267347,0.2149906,0.333849,0.373929,0.4886646,0.5713482c0.1272058,0.1622105,0.352603,0.3033514,0.5201607-0.0065231
		c0,0-0.0057478,0.0021524-0.0058079,0.0021439c0.3415632-0.0978136,0.4718952-0.4388628,0.7882166-0.5657988
		c0.0412312-0.0570288,0.083209-0.0546675,0.1258259-0.0013037c-0.1602745,0.2016954-0.3192873,0.4042349-0.4811802,0.6048527
		c-0.1626616,0.2015648-0.3281937,0.4012156-0.5062437,0.6185188c0.1832094,0.1820488,0.6582699,0.2761765,0.7663374,0.725009
		c-0.3093557-0.0677691-0.4584436-0.4033928-0.8013115-0.3186111c-0.0420179,0.0377808-0.0916681,0.0500612-0.1489725,0.0373659
		c-0.240325-0.1158228-0.4031868-0.333498-0.6670313-0.419281c-0.0730124-0.0397148-0.1299582-0.0935431-0.1722946-0.1603975
		c-0.0621614-0.1123171-0.1109905-0.2312393-0.1996479-0.3308191c-0.29422-0.4521008-0.4263296-0.9642706-0.6490622-1.4435644
		c0.0351772-0.0844488,0.0984116-0.1445847,0.1886368-0.181859C10.6022568,9.1412745,10.7039795,9.2343464,10.7614365,9.390131z"/>
	<path fill="#1D1F21" d="M11.2867708,12.1331539c0.2775269,0.015255,0.6181269,0.0147781,0.9503698,0.0624475
		c0.1194458,0.0171375,0.2978716,0.1172771,0.223443,0.2895098c-0.0543146,0.1256876-0.1962147,0.1255608-0.3284674,0.0955715
		c-0.6264324-0.1420498-1.2552137-0.1191711-1.8840742-0.0177336c-0.112052,0.018074-0.223958,0.0247202-0.2687798-0.0832701
		c-0.0591974-0.1426334,0.0753527-0.2181587,0.180337-0.2633104C10.5014257,12.0693541,10.8709288,12.1850672,11.2867708,12.1331539
		z"/>
	<path fill="#EA6B03" d="M11.1753016,11.1023731c0.0362606,0.0337315,0.0725212,0.0674639,0.1087818,0.1011953
		c0.230587,0.1447916,0.4006176,0.3594398,0.6590719,0.472084c0.0370321,0.0009489,0.0739937,0.0029459,0.1108866,0.0059938
		c0.0407343,0.0428457,0.0814657,0.0856924,0.1221972,0.1285381c0.0062304,0.1763182-0.1395826,0.157403-0.2580366,0.1584558
		c-0.4587154,0.0040798-0.9174929,0.0031261-1.3762369,0.0007954c-0.1464252-0.0007439-0.3057833,0.0108099-0.3094959-0.187252
		l0.0041819,0.0041685c0.2180119-0.2146034,0.3070316-0.4926052,0.443716-0.7475672
		c0.0318756-0.0468626,0.0748444-0.082593,0.1283016-0.1082535C10.9948311,10.8749895,11.0727091,11.0104179,11.1753016,11.1023731z
		"/>
	<path fill="#021626" d="M9.4953938,5.1683927c0.0039921-0.0951967,0.025775-0.1823168,0.1279821-0.2329221
		c0.1428137-0.1774311,0.0116444-0.3913965,0.0931864-0.57722c0.0476856-0.0410061,0.1041002-0.0638375,0.1693726-0.0689077
		c0.0646791,0.0081935,0.1208363,0.0322599,0.1675158,0.0741057c0.1649685,0.2975769-0.0697327,0.5506864-0.1132364,0.8250122
		C9.8416958,5.8097,9.7656479,6.4320383,9.7884102,7.0611968C9.7720346,7.1148596,9.7504587,7.167254,9.7266798,7.2184739
		c-0.126647,0.2238555-0.0269251,0.4932137-0.1706924,0.7140117C9.5136728,7.976131,9.4604025,7.9961977,9.3965654,7.9931688
		C9.3427258,7.9650636,9.3016291,7.9260116,9.2746,7.8749413c-0.0706997-0.1818442-0.0444298-0.380271-0.1171007-0.5626006
		C9.1382055,7.2574167,9.125968,7.2017546,9.1171303,7.144803C9.0880384,6.9279833,9.1807442,6.7363429,9.2636995,6.5421338
		C9.5082989,6.1072998,9.362237,5.6182122,9.4953938,5.1683927z"/>
	<path fill="#031526" d="M11.2976065,6.2204256c0.0811329-0.0014377,0.1622658-0.0028749,0.2433786-0.0043001
		c0.0005875,0.3485594,0.001194,0.6971078,0.0018024,1.0456553c0.2968807,0.1177382,0.1068134,0.4111362,0.254405,0.5827279
		c0.1936255,0.6402736,0.6060762,1.1647964,1.1409397,1.7140393c-0.3994579-0.0309534-0.4885054-0.3821173-0.7777576-0.418314
		c-0.0000629,0.0000191,0.0065985-0.0004015,0.0065985-0.0004015c-0.5408974-0.816699-0.9901571-1.6602745-0.9424-2.6500273
		C11.2291336,6.3953042,11.209425,6.2959485,11.2976065,6.2204256z"/>
	<path fill="#131C23" d="M7.5732203,8.6561089C7.3926649,8.6422348,7.2560787,8.5332928,7.3588419,8.3973331
		c0.480794-0.636096,0.761013-1.3884568,1.3689661-1.9493856c0.0447083,0.0370598,0.0758438,0.0817041,0.0919065,0.1349382
		C8.847641,6.7519779,8.767046,6.8961935,8.6932802,7.0420809C8.5997114,7.2010503,8.5173874,7.3657126,8.4193859,7.5233278
		c-0.1561193,0.1937346-0.2877617,0.3979158-0.34025,0.6366634C8.0538712,8.2304926,8.0142555,8.2939844,7.9573383,8.3475342
		C7.9035711,8.3947344,7.8439865,8.4368181,7.7878542,8.4819489C7.7198043,8.5432186,7.6644683,8.6182098,7.5732203,8.6561089z"/>
	<path fill="#F67101" d="M20.6315975,8.0777874c0.0200939,0.3817263,0.432291,0.4348068,0.6705265,0.6167517
		c0.1889858,0.1443329,0.2714043-0.1128054,0.3103561-0.2370682c0.0680828-0.2171755,0.0772533-0.4505329,0.27775-0.6171403
		c0.0573959,0.0351725,0.0966625,0.0827188,0.1184349,0.1424503c0.0227737,0.4150081-0.0764103,0.7820334-0.4913578,1.0236831
		c-0.0402374,0.0349054-0.080471,0.0698109-0.1207066,0.1047153c-0.4675121-0.0497017-0.6265945-0.4619055-0.9578686-0.6727009
		c-0.0600681-0.1474915-0.0741138-0.2853098,0.0992012-0.3826361C20.5691166,8.0631313,20.600359,8.0704594,20.6315975,8.0777874z"
		/>
	<path fill="#041526" d="M16.0208931,9.2388411c-0.0427666,0.0775003-0.0855331,0.1550016-0.1283026,0.2324963
		c-0.6559582-0.0422544-1.3369112,0.0292273-1.9190969-0.3485956c-0.0265923-0.1343651,0.0743322-0.165514,0.1847973-0.1894846
		C14.7693386,9.0834818,15.4306755,8.9824505,16.0208931,9.2388411z"/>
	<path fill="#202B34" d="M20.5039692,8.4222317c0.4019127,0.1179152,0.6102219,0.4430828,0.8926125,0.6889582
		c-0.0038204,0.0990906-0.0243416,0.1907959-0.1310825,0.244278c-0.2911263-0.2923203-0.6715889-0.4766331-1.0212975-0.6981087
		c-0.0001736-0.077424-0.0003624-0.1548491-0.0005436-0.2322702c0.0000076,0.0000019-0.0003815,0.0003443-0.0003815,0.0003443
		C20.3291607,8.3561802,20.4160671,8.3557682,20.5039692,8.4222317z"/>
	<path fill="#292321" d="M14.3572102,7.6120071c0.5513535,0.0773225,1.0834904,0.3978815,1.6638088,0.1086235
		c0.0688744-0.0343633,0.1207161-0.0195332,0.1556358,0.0443778c-0.0843277,0.35601-0.4073563,0.3168988-0.6890001,0.3400493
		c-0.3490076,0.0286884-0.6986933-0.1123981-1.0479717,0.0025187c-0.0635176,0.0174141-0.1271849,0.0175505-0.1910343,0.002223
		c-0.054863-0.0352249-0.0902719-0.0826216-0.1066675-0.1418157c-0.0135202-0.0927701,0.0174866-0.1724563,0.0867395-0.2407231
		C14.2715511,7.6888423,14.3143797,7.6504245,14.3572102,7.6120071z"/>
	<path fill="#E26D04" d="M10.2324696,11.7821836c0.6441517,0.2268372,1.2930508,0.1808863,1.9437914,0.0279799
		c0.1885624,0.060277,0.281126,0.203331,0.0268946,0.219779c-0.648262,0.0419407-1.303297,0.0330906-1.9531422,0.0018854
		C9.9828978,12.019001,10.0873079,11.8768435,10.2324696,11.7821836z"/>
	<path fill="#0E1924" d="M14.2287207,7.7272606c-0.0034904,0.0760036-0.0069809,0.1520071-0.0104704,0.2280111
		c-0.0839148,0.1304131-0.0237541,0.295475-0.1213846,0.4230309c-0.0195351,0.0474415-0.0423126,0.0933638-0.0653677,0.1394348
		c-0.0611629,0.1150789-0.0863829,0.2524433-0.2328186,0.3153114c-0.1173954,0.0041866-0.2361698,0.0142984-0.336483-0.0602741
		C13.7001276,8.4136219,13.74648,7.9384103,14.2287207,7.7272606z"/>
	<path fill="#1E1F22" d="M9.4953938,5.1683927C9.4244595,5.6710744,9.6455564,6.1940022,9.3683701,6.6823854
		C9.2499228,6.6160326,9.1866932,6.4998431,9.0810337,6.4221311C8.9910421,6.3665843,8.9251032,6.289484,8.8558369,6.2153358
		C9.5718565,6.1201682,9.2351007,5.4935956,9.4953938,5.1683927z"/>
	<path fill="#111B24" d="M22.2891979,8.5396538c-0.1023827,0.0502872-0.1250706,0.1369915-0.128582,0.2324476
		c-0.0415497,0.0013494-0.0830898,0.0023746-0.1246395,0.0030537c-0.1182194-0.0548258-0.1451015-0.159358-0.1734524-0.263135
		c0.0469246-0.1528034,0.1239414-0.2983398,0.1352425-0.4601545c0.0838585-0.1605716-0.0352287-0.4232492,0.2839165-0.4652224
		c0.1195526,0.0663652,0.1762047,0.1669884,0.1924934,0.2899423C22.3258591,8.0774469,22.4007816,8.3301191,22.2891979,8.5396538z"
		/>
	<path fill="#1B1E22" d="M20.2435551,5.6332226c0.3967304,0.5430079,0.3966465,1.0860357,0.0001049,1.6290879
		C20.4128151,6.719274,20.4129658,6.1762438,20.2435551,5.6332226z"/>
	<path fill="#101824" d="M10.0068998,11.3327227c0.1353378-0.030879,0.2706766-0.061759,0.4060144-0.092638
		c0.0849104,0.1468439,0.1230249,0.2807026-0.1136065,0.3383341c-0.2840738,0.0182695-0.3265686,0.3337679-0.6182804,0.4128494
		C9.6413393,11.6912308,10.0586557,11.5997429,10.0068998,11.3327227z"/>
	<path fill="#242424" d="M22.0460644,8.080183c-0.0434341,0.1564894-0.0868702,0.3129778-0.1303082,0.4694653
		c0.1151428,0.1901751-0.0228863,0.3192406-0.1329308,0.4550619c-0.0884991,0.0005836-0.1769981,0.0011683-0.2655087,0.0017529
		c0.1562519-0.3369341,0.375803-0.6538773,0.3953114-1.0340142c0.0363369-0.0476308,0.0826683-0.0607395,0.1407681-0.0336261
		C22.0851116,7.9874492,22.0844002,8.0346365,22.0460644,8.080183z"/>
	<path fill="#E26D04" d="M10.2993078,11.5784187c0.1460867-0.0828056,0.1331425-0.2096786,0.1135473-0.3383732
		c0.0000591,0.0000391-0.0061445,0.0022202-0.0061445,0.0022202c0.1281376-0.0781927,0.1502962-0.2682047,0.3482552-0.2727261
		c0.0287971,0.3778515-0.1279955,0.6584597-0.5181551,0.816844C10.2575378,11.717041,10.2784233,11.6477299,10.2993078,11.5784187z"
		/>
	<path fill="#1F2021" d="M13.4621964,8.7727747c0.1261797-0.0011692,0.2523613-0.0023384,0.378541-0.0035067
		c0.072051-0.0028992,0.1401424,0.0106211,0.2047062,0.0401306c0.0417919,0.022213,0.0750732,0.0523462,0.1005745,0.089695
		c0.0143518,0.0456619-0.0005465,0.0814924-0.0444193,0.1073704c-0.0426998,0.0387602-0.0853996,0.0775194-0.1281023,0.1162786
		C13.8030605,9.0060863,13.6326294,8.889431,13.4621964,8.7727747z"/>
	<path fill="#021526" d="M21.7828255,9.0047102c0.0442543-0.1517582,0.0885086-0.3035145,0.1328449-0.4551668
		c0.1016769,0.0481653,0.1152973,0.1349678,0.1202869,0.2255974C22.0300064,8.9231262,21.948103,9.0019035,21.7828255,9.0047102z"/>
	<path fill="#161D23" d="M11.5435429,5.8668509c0.0528545-0.205615,0.0823603-0.4196534,0.2542295-0.5823321
		C11.7976866,5.5091691,11.8393965,5.7488937,11.5435429,5.8668509z"/>
	<path fill="#161D23" d="M11.7971926,7.8445086c-0.1996679-0.1528049-0.0955315-0.4152055-0.2544069-0.582727
		C11.9532938,7.3385286,11.7443838,7.6387253,11.7971926,7.8445086z"/>
	<path fill="#1E1F22" d="M9.7539921,4.3554182c-0.0342216,0.195086,0.0818567,0.4181376-0.1306162,0.5800552
		C9.6235886,4.7426381,9.6238012,4.5498056,9.6240234,4.357007c0.0000076,0.0000339,0.0024128-0.0022058,0.0024128-0.0022058
		C9.6691856,4.3156562,9.7117157,4.313961,9.7539921,4.3554182z"/>
	<path fill="#151B23" d="M8.8558369,6.2153358c0.1052971,0.0020585,0.200614,0.0222893,0.2555809,0.1159863
		C9.0479383,6.496376,8.9640093,6.6336613,8.7281008,6.5645738C8.7280025,6.5256968,8.7279053,6.4868193,8.727807,6.4479451
		C8.7704849,6.3704104,8.8131609,6.2928739,8.8558369,6.2153358z"/>
	<path fill="#051725" d="M13.0764399,10.0518761c-0.0419436,0.0007391-0.08389,0.0011749-0.1258335,0.0013046
		c0.0169106-0.1018715-0.0409021-0.2270393,0.1002092-0.2892895c0.0224581-0.0099077,0.0962582,0.0248442,0.0951653,0.0300112
		C13.1276188,9.8807354,13.1011276,9.9661474,13.0764399,10.0518761z"/>
	<path fill="#33271E" d="M7.5732203,8.6561089c0.0053315-0.0944643,0.0279641-0.1811771,0.1267476-0.2337742
		c0.1257305,0.0488472,0.2214036,0.1247377,0.2672563,0.245451c-0.044251,0.0362835-0.0885015,0.072567-0.1327248,0.1088848
		C7.7275581,8.7720737,7.6300507,8.7505054,7.5732203,8.6561089z"/>
	<path fill="#232323" d="M24.9561539,4.4739518c-0.0785236,0.0375347-0.1570511,0.075069-0.2355785,0.1126032
		c-0.109642-0.1161504-0.2725182-0.0537124-0.4032021-0.0987935c-0.1197281-0.1102233-0.2030888-0.2422714-0.2725163-0.3830137
		c0.0602512-0.3415792,0.2036686-0.6420655,0.4670677-0.9022715c0.2668648-0.2636304,0.3806686-0.5798607,0.2649555-0.9403794
		c-0.0244045-0.0465491-0.0464725-0.0938883-0.0701199-0.1404994c-0.3073425-0.4306895-0.5883751-0.8869113-1.2191639-0.986183
		c-0.2572975-0.0085011-0.5154095-0.0323783-0.7618389,0.0625544c-0.0558929,0.0260792-0.1109657,0.0535092-0.1678638,0.076924
		c-0.2155857,0.088719-0.4151993,0.4323778-0.6240692,0.2564694c-0.2985268-0.2514175,0.2392178-0.3608054,0.256712-0.5917562
		c0.0541992-0.0600332-0.0887012-0.0887235-0.0199699-0.0428023c0.0274277,0.018326,0.0259628,0.0342596,0.0146198,0.056
		c-0.0690136,0.1322643-0.1553097,0.2268068-0.3354378,0.1436092c-0.6657181-0.3536575-1.3590355-0.2262889-2.0500355-0.0966756
		c-0.0251503,0.0919876-0.0000286,0.2016224-0.1108818,0.2633178c-0.1881466,0.0564191-0.34161-0.0196457-0.4932289-0.1041853
		c-0.611536-0.1484293-1.2225151-0.2977887-1.792057-0.5577164c-0.1423855-0.0820866-0.381937-0.0731956-0.3583355-0.3120897
		c2.0427456-0.0014672,4.0887012,0.0613174,6.1273117-0.0228885c1.9489441-0.0805023,3.1727066,1.6473343,2.2786179,3.3377852
		C25.2955761,3.8980794,25.1216164,4.1841583,24.9561539,4.4739518z"/>
	<path fill="#111A24" d="M17.4285278,0.5146137c0.3434067-0.057192,0.5567665,0.2378876,0.886261,0.2639389
		c0.2218609,0.0175417,0.3894577,0.2471571,0.6816559,0.0616872c0.1514454-0.0961279,0.1987457,0.1284803,0.2227955,0.258033
		c0.0629444,0.1869475-0.1076565,0.2125931-0.2279816,0.2736993c-0.1543884,0.0295589-0.2915764-0.0211017-0.4285336-0.0753044
		c-0.0521832-0.0274327-0.104847-0.0537961-0.1590881-0.0779451c-0.6589203-0.249661-1.3415871-0.4046377-2.0569973-0.4311721
		c-0.7172689-0.0194166-1.4224653,0.0464336-2.1104078,0.2370244c-0.5686102,0.3192126-1.2706242,0.4215403-1.7497454,0.8869188
		c-0.2233686,0.0767734-0.368679,0.2687657-0.5985785,0.3363116c-0.1643047,0.0664506-0.2791405,0.178848-0.3613882,0.3215108
		c-0.1054964,0.2616084-0.3417253,0.4252503-0.5518208,0.6084766c-0.0717249,0.1079731-0.1434498,0.2159469-0.2151737,0.3239202
		c-0.031148,0.1007714-0.0881729,0.1885285-0.1623058,0.2677517c-0.2161455,0.1780951-0.2018032,0.5482066-0.5882978,0.5845335
		C9.965559,4.3539371,9.9221964,4.3538756,9.8788347,4.3538146C9.7714453,4.2374849,9.7877102,4.1214089,9.8797026,4.0054898
		L9.8796062,4.0055971c0.1361361-0.1321588,0.1261683-0.330555,0.2555542-0.4657736
		c0.7223902-1.0211265,1.5465746-1.9478585,2.7809639-2.4996824c0.0698175-0.031212,0.1137505-0.1102651,0.1697998-0.166977
		c0.4504223-0.1671238,0.8736162-0.4213821,1.3954039-0.3595813c0.3211384-0.1529489,0.7037611-0.0694301,1.0254335-0.2203219
		c0.3453608,0.005855,0.7007275-0.068379,1.0250492,0.1058392C16.8503304,0.3117837,17.1303596,0.4713659,17.4285278,0.5146137z"/>
	<path fill="#1A1F22" d="M15.5067616,0.2932609c-0.2855854,0.2895176-0.6660995,0.2140699-1.0253925,0.2203476
		C14.7678041,0.2273325,15.1456633,0.2925261,15.5067616,0.2932609z"/>
	<path fill="#1D1F22" d="M17.4285278,0.5146137c-0.3109627,0.0388765-0.6022701-0.048342-0.8967113-0.1155057
		c0.1368465-0.1686756,0.3357182-0.0985111,0.5133686-0.1101C17.1729813,0.3642471,17.3007545,0.4394304,17.4285278,0.5146137z"/>
	<path fill="#1B1D23" d="M22.2891979,8.5396538c-0.0009651-0.2389145-0.0223637-0.4809418,0.1284447-0.6967378
		c-0.0653515-0.5333295-0.1274662-1.0665264,0.0779228-1.5879302c0.2288952-0.1683884,0.3999424,0.1782532,0.6237049,0.057869
		c0.1573944-0.0048189,0.276268-0.1605134,0.451046-0.097497c-0.0195999,0.6833506-0.5511856,1.1641603-0.8746452,1.718504
		C22.5823021,8.1281519,22.4672508,8.3623734,22.2891979,8.5396538z"/>
	<path fill="#141B23" d="M23.5703163,6.2153578c-0.1331902,0.0706024-0.1857605,0.2515178-0.3846188,0.2322702
		c-0.0659943-0.0654378-0.1102104-0.1402216-0.1203308-0.2298183c0.1237946-0.6265864,0.5691586-1.1148543,0.8689499-1.6664433
		c0.070406-0.0570464,0.1503677-0.0993457,0.2403336-0.1255541c0.0637741-0.0107565,0.1187725,0.0059843,0.1659431,0.0458908
		c0.1115189-0.0360093,0.1321716-0.2176814,0.2782154-0.1732488c0.1460781,0.0444427,0.0868206,0.1851554,0.1017761,0.2881041
		C24.1780128,5.0366259,23.9984493,5.6985159,23.5703163,6.2153578z"/>
	<path fill="#212121" d="M10.1351604,3.5398235c0.0127029,0.1996372-0.0246983,0.3765578-0.2555571,0.4657707
		C9.8711863,3.8079028,9.9043493,3.6290605,10.1351604,3.5398235z"/>
	<path fill="#212121" d="M9.8797016,4.0054898c-0.0002851,0.1161113-0.0005703,0.2322235-0.0008612,0.34833
		C9.8372049,4.3546972,9.7955704,4.3552217,9.7539606,4.3554039C9.7539921,4.3554182,9.6901808,4.354682,9.6901808,4.354682
		S9.6263647,4.3547869,9.6264009,4.354794C9.6282339,4.1888647,9.7095966,4.0705943,9.8797016,4.0054898z"/>
	<path fill="#FE6B00" d="M21.6575813,6.5367608c-0.1039162,0.5042071,0.1890602,1.1049838-0.2303696,1.6366191
		c-0.0855465,0.1084356-0.0911465,0.2712641-0.3052731,0.1802778c-0.1750278-0.0743732-0.27351-0.1695719-0.1798286-0.3626947
		c0.7705574-1.5884733,0.3369656-3.0470037-0.7284374-4.34935c-1.0841236-1.3252287-2.5331821-2.1387691-4.4411449-2.0794516
		c-1.3661966,0.0424747-2.4840622,0.6377407-3.4192352,1.4474775c-1.0855646,0.9399567-1.7488642,2.1545181-1.679656,3.5404253
		c0.0557947,1.1172886,0.5225725,2.1604118,1.3262911,3.0459499c0.1230049,0.1355276,0.3889017,0.243042,0.1099262,0.4601536
		c-0.2560415,0.1992598-0.3975716-0.0066624-0.5214062-0.1428957c-0.6453867-0.7100086-1.0685692-1.5095377-1.2037125-2.4357982
		c-0.0951815-0.6523776-0.0968437-1.2868299-0.0153427-1.9486041c0.2316332-1.8808501,1.4092731-3.166491,3.1772442-3.8944383
		c2.2460766-0.9248028,4.44911-0.5896572,6.3569374,0.8658527c0.7527447,0.5742812,1.2071762,1.3504448,1.5282402,2.2232676
		C21.6511669,5.3198714,21.6155586,5.8920536,21.6575813,6.5367608z"/>
	<path fill="#F67101" d="M13.4036322,2.7069249c-0.1085377,0.0839262-0.2170782,0.1678524-0.3256187,0.2517784
		c-0.0717306,0.0656185-0.153717,0.0702975-0.2426443,0.033746c0.566926-0.7764874,1.5063944-0.9547722,2.3915606-1.1569412
		c1.793622-0.409658,4.2635202,0.7428372,5.0226259,2.2826645c-0.0267849,0.0104117-0.0535717,0.0208225-0.0803585,0.0312581
		C20.0771255,4.1234593,20.031498,4.0581498,19.998106,3.982481c-0.5135231-0.7633824-1.1975403-1.3393664-2.1521759-1.6178977
		C16.3085632,1.8718098,14.8280849,1.9890101,13.4036322,2.7069249z"/>
	<path fill="#F17202" d="M22.0221004,7.9353204c-0.0359554,0.0137005-0.0724621,0.0260553-0.109499,0.0370955
		c-0.0073452-0.0439873-0.0147171-0.0880075-0.0222282-0.1320562c0.0053406-0.3091159,0.0108242-0.6182022,0.0163078-0.927289
		c0.1070709-0.3102169,0.1071892-0.6204267-0.0000763-0.9306297c-0.0151711-1.6832752-0.9438286-2.9254453-2.3100128-3.9575472
		c-0.2078972-0.1570566-0.4968147-0.2218757-0.6330624-0.4600366c0.1873512-0.1380025,0.3566685-0.0384496,0.5286674,0.0317218
		c0.8434372,0.4833173,1.4646435,1.1574115,1.9863567,1.9170936c0.1448193,0.2493656,0.2852325,0.5007451,0.4142914,0.7578189
		c0.0940876,0.2601814,0.2044086,0.5151367,0.2878437,0.7790899C22.3785229,6.0238409,22.5084076,6.9937482,22.0221004,7.9353204z"
		/>
	<path fill="#F26E02" d="M12.4022942,1.8970935c0.4556246-0.4794602,1.1354866-0.6061642,1.7101965-0.8982889
		c0.7189131-0.2266493,1.4595909-0.3230156,2.2188597-0.3064339c0.5044003,0.0856683,1.0373039,0.0622693,1.4976406,0.3197314
		c-0.0072479,0.0309526-0.0145054,0.0619161-0.0217648,0.0928795c-1.0314865-0.0631145-2.0548859-0.2389884-3.0981302-0.0307779
		c-0.7823582,0.1561432-1.4827108,0.445725-2.1425848,0.8401369C12.5041771,1.9683543,12.4494371,1.9626032,12.4022942,1.8970935z"
		/>
	<path fill="#191C23" d="M11.2976065,6.2204256c-0.0764446,0.8854127,0.2244511,1.6832371,0.6852083,2.4443684
		c0.0900049,0.1486797,0.2093201,0.2889204,0.1842175,0.474967c-1.1720037-1.3389077-1.3208027-2.8020802-0.6414194-4.365984
		C11.6151628,5.2774143,11.2352848,5.7201314,11.2976065,6.2204256z"/>
	<path fill="#F67101" d="M20.2495556,4.1181726c0.8317909,0.9695926,0.9533978,2.0714293,0.7006855,3.230998
		c-0.0549469,0.2521272-0.0515118,0.5449815-0.318655,0.7286386c0.0000114-0.0000219-0.0346413-0.0226049-0.0346413-0.0226049
		c-0.0645027-0.1339731-0.027153-0.2661662,0.0141602-0.395925c0.3649788-1.1463089,0.2005348-2.2408142-0.3859825-3.2947526
		c-0.0403481-0.072506-0.0442162-0.1465869-0.0093441-0.2218633L20.2495556,4.1181726z"/>
	<path fill="#F57301" d="M10.3976154,4.2418051c0.0773783,0.4012222-0.2036648,0.7307868-0.285943,1.1026049
		c-0.1960802,0.886096-0.013278,1.7476697,0.0354958,2.6190782c0.0437918,0.0651908,0.0275154,0.1137452-0.049017,0.1457286
		c-0.0342684-0.0041056-0.0683422-0.0082731-0.1026764-0.0123549C9.9423771,8.0546207,9.9024868,8.0038824,9.874506,7.9451542
		c-0.205698-1.2729793-0.2707815-2.5332899,0.4215288-3.722621C10.3298874,4.228919,10.3637505,4.2353621,10.3976154,4.2418051z"/>
	<path fill="#F87001" d="M10.1257019,8.0957832c0.0070953-0.0441484,0.0141907-0.088295,0.0213766-0.1323686
		c0.2800426,0.4487967,0.4478683,0.9374204,0.6143799,1.4266105c-0.1153603-0.0619907-0.2306986-0.1240873-0.3460369-0.186183
		c-0.0594292-0.026679-0.1042089-0.0668516-0.1352148-0.119997C10.2026863,8.7581043,9.902606,8.460535,10.1257019,8.0957832z"/>
	<path fill="#212121" d="M12.1682053,10.6168356c-0.0703135,0.38624-0.3654175,0.3020124-0.5174494,0.1279192
		c-0.183301-0.2098942-0.471591-0.3806219-0.4913778-0.6927433C11.550703,10.1590433,11.5657539,10.8213902,12.1682053,10.6168356z"
		/>
	<path fill="#161B24" d="M12.1689415,3.7395608c-0.090764,0.386121-0.2314053,0.7452171-0.6318378,0.9635546
		C11.6771555,4.3437004,11.8748922,4.0155382,12.1689415,3.7395608z"/>
	<path fill="#232323" d="M19.4688892,1.7007664c-0.1684532-0.0453047-0.3369064-0.0906093-0.5053596-0.1359116
		c-0.0649834-0.0052437-0.1299629-0.0104897-0.1949444-0.0157354c-0.1433105-0.0643375-0.2182541-0.1655608-0.2051926-0.3142641
		c0.134552,0.0300233,0.2691002,0.0600466,0.4036522,0.0900699C19.2506828,1.3218284,19.5193443,1.3352543,19.4688892,1.7007664z"/>
	<path fill="#1D1E22" d="M12.8353691,2.9924488c0.0808821-0.0112484,0.1617632-0.0224972,0.2426443-0.0337455
		c-0.2319746,0.2717874-0.4439983,0.5635924-0.8286829,0.6823502C12.4445667,3.4248655,12.6399679,3.2086573,12.8353691,2.9924488z"
		/>
	<path fill="#F26E02" d="M18.5633926,1.2348554c0.0682087,0.1047354,0.1364193,0.2094705,0.2049122,0.314235
		c-0.3131046-0.1606792-0.6854-0.2160416-0.9610806-0.4441415c0.0000019,0.0000328,0.02314-0.0300497,0.02314-0.0300497
		c0.2867146-0.0991606,0.5081806,0.052345,0.741209,0.159422L18.5633926,1.2348554z"/>
	<path fill="#F57301" d="M10.5559368,3.6659069c0.0678797-0.0546567,0.1357613-0.109313,0.2036142-0.1640813
		c0.0335751,0.3089263-0.068222,0.5632436-0.3619719,0.7399743c0.0000362,0.0000052-0.0321035-0.021965-0.0321035-0.021965
		C10.3149261,4.0027933,10.4197426,3.8298929,10.5559368,3.6659069z"/>
	<path fill="#F67101" d="M21.9066048,5.9824409c0.196661,0.3101969,0.1966152,0.6204057,0.0000744,0.9306288
		C21.9066544,6.6028609,21.9066296,6.2926512,21.9066048,5.9824409z"/>
	<path fill="#F57301" d="M10.974699,3.1777928c0.1346579-0.2397172,0.3255224-0.4373016,0.5518351-0.6083894
		C11.5239601,2.9080608,11.2886562,3.0723958,10.974699,3.1777928z"/>
	<path fill="#F57301" d="M12.4022942,1.8970935c0.0547419,0.0057318,0.1094837,0.0114634,0.1642208,0.0172211
		c-0.2032108,0.1497587-0.3774977,0.3481084-0.6785326,0.3335046C12.031003,2.0965216,12.1724205,1.9432077,12.4022942,1.8970935z"
		/>
	<path fill="#FD6C00" d="M14.3485594,8.0572739c0.0871191-0.3286185,0.3110638-0.1956749,0.5400343-0.1532249
		c0.4484434,0.0831394,0.9135742,0.1889515,1.304142-0.1584077c-0.0125599-0.1981039,0.1068172-0.3301015,0.2663288-0.4421391
		c0.0431442-0.0273004,0.08848-0.0524554,0.132967-0.0770578c0.2252636-0.1943002,0.0727501-0.2631731-0.1293163-0.314652
		c-0.3206062,0.026865-0.640789,0.0258918-0.9586926,0.0457363c-1.0941343,0.0682979-1.413043-0.598774-1.4962959-1.2498827
		c-0.0785446-0.6142678,0.685524-1.2212005,1.4729872-1.2736878c1.1076536-0.0738311,2.0465803,0.1095681,2.4261503,1.2255363
		c0.0369244,0.1085582,0.1915607,0.1515551,0.2480755,0.2605352c0.243269,0.797493,0.0080223,1.5124078-0.4576054,2.1873941
		c-0.0876427,0.2167292-0.2507973,0.3654737-0.4878197,0.4477139c-0.7475529,0.4271507-1.5519409,0.6317339-2.4260502,0.436038
		C14.1765785,8.8553057,13.8035526,8.7177324,14.3485594,8.0572739z"/>
	<path fill="#F87001" d="M18.0606194,5.8673697c-0.255291,0.1155052-0.3241444-0.0039806-0.3789158-0.2144294
		c-0.1744289-0.6702409-0.7357769-1.0440011-1.4944401-1.0706949c-0.8192387-0.0288262-1.587553-0.0071998-1.9648676,0.827322
		c-0.2608681,0.576973,0.2707596,1.343636,0.9547338,1.3922791c0.4967775,0.0353298,0.9905033-0.1051111,1.484724,0.0010242
		c0.0337257,0.1949716-0.1401539,0.2637486-0.265213,0.3629999c-0.6003046,0.246345-1.194809,0.2043214-1.7847853-0.0329027
		c-0.042141-0.0345683-0.0842848-0.0691357-0.1264257-0.103704c-0.212184-0.1318684-0.4088097-0.2758722-0.4854565-0.5139227
		c-0.3496532-0.7165399-0.2206078-1.3541131,0.3806572-1.9144464c0.0430784-0.0481462,0.0945091-0.0871558,0.1529789-0.1187387
		c0.8600597-0.4117532,1.7227192-0.3951292,2.5862751-0.0107064c0.0618114,0.0079174,0.1212158,0.0250807,0.1773739,0.0501156
		c0.1519661,0.1278181,0.3121738,0.2484512,0.4648857,0.3768501c0.1272221,0.1180654,0.1945248,0.2689314,0.2748852,0.4130578
		C18.0784798,5.4954748,18.1814308,5.6777134,18.0606194,5.8673697z"/>
	<path fill="#EB6B03" d="M14.3485594,8.0572739c-0.1089401,0.6759109,0.0283384,0.7604265,0.8381834,0.8457804
		c0.7324114,0.0771923,1.347887-0.2417984,2.0226669-0.3479395c-0.141386,0.1072874-0.2828732,0.2145538-0.4243603,0.3218184
		c-0.8900461,0.3573036-1.7788124,0.4196396-2.6654482-0.0095482l0.0018311,0.0077229
		c-0.2354889-0.1019182-0.2771282-0.2502661-0.1287374-0.444129l-0.0056419,0.0084848
		c0.0727386-0.1227465,0.1361341-0.2509623,0.2483549-0.3505993C14.2723656,8.0760899,14.3100824,8.0655594,14.3485594,8.0572739z"
		/>
	<path fill="#1A1D23" d="M17.9401455,5.2924261c-0.0827866-0.1184468-0.165575-0.2368937-0.2483616-0.3553414
		c-0.0671158-0.051414-0.0802422-0.1169848-0.0607071-0.1911521c0.0188808-0.0164084,0.0378189-0.0327983,0.0567532-0.0491886
		c0.8480492,0.6829972,1.0489368,2.3551898,0.3635159,3.0259032c-0.0679703-0.5731378,0.2661877-1.1235905,0.0943699-1.7105913
		C18.0759525,5.773715,18.0572834,5.5215702,17.9401455,5.2924261z"/>
	<path fill="#F27102" d="M17.313591,4.5749626c-0.4302769,0.0510135-0.7700939-0.2325306-1.2077885-0.2414613
		c-0.5744104-0.0117207-1.0945692,0.138854-1.6347752,0.2398939c0.0208511-0.2860026,0.3072004-0.2963309,0.5033903-0.4006462
		c0.654767-0.1155181,1.3114653-0.258019,1.9275904,0.1231923c0.0484657,0.0777678,0.1237106,0.0930648,0.2130585,0.0754566
		C17.2349358,4.3959832,17.3480701,4.4259968,17.313591,4.5749626z"/>
	<path fill="#F27102" d="M17.9401455,5.2924261c0.4477425,0.6050897,0.3654575,1.2657986,0.240345,1.9291649
		c-0.0318279,0.1687665-0.0854855,0.3341327-0.1291294,0.5010591c-0.1180325,0.1282086-0.2360458,0.2564201-0.354044,0.3847022
		c0.2768307-0.7257538,0.4616299-1.4639139,0.3633842-2.239996C17.9537106,5.6872792,17.9218426,5.4941959,17.9401455,5.2924261z"/>
	<path fill="#141B23" d="M14.8790503,4.2591987c-0.1359806,0.104753-0.2719584,0.2095056-0.40798,0.3142276
		c-0.0000429-0.000031,0.00459-0.0001211,0.00459-0.0001211c-0.6080322,0.5577965-0.78866,1.1977406-0.4505587,1.9374166
		c-0.0200777,0.0205512-0.0402451,0.0410538-0.0604124,0.0615568c-0.5833311-0.6510496-0.4773626-1.3833594,0.2853498-2.0667157
		c0.1838627-0.1647348,0.3866949-0.2919111,0.6207552-0.383451C14.941556,4.1644225,14.944313,4.2101183,14.8790503,4.2591987z"/>
	<path fill="#212121" d="M14.1196012,8.8673849c0.8874035,0.2510767,1.7758198,0.2694054,2.6654501,0.0095711
		c-0.1565075,0.2919655-0.5563622,0.1593904-0.7641602,0.3618879c-0.6538839,0.0189056-1.3058863,0.0249557-1.9192924-0.2323799
		C14.1076002,8.960104,14.1136017,8.913744,14.1196012,8.8673849z"/>
	<path fill="#2A1D23" d="M14.6118555,7.1329679c0.6018219,0.0256805,1.2199202,0.2839489,1.7928133-0.103682
		c0.3643723-0.0512671,0.4048958,0.0876327,0.2447319,0.3443756l-0.0573311,0.0154591l-0.0588818-0.0094738
		c-0.1270466-0.1110291-0.2574749,0.0306602-0.38554-0.004262C15.6321564,7.313221,15.0571232,7.5627489,14.6118555,7.1329679z"/>
	<path fill="#212121" d="M14.8790503,4.2591987c-0.0027628-0.0456991-0.0055265-0.0913978-0.0082741-0.1370916
		c0.6940403-0.1065731,1.4040823-0.3681388,2.0311728,0.1736498C16.2322941,4.0741754,15.5568666,4.1123514,14.8790503,4.2591987z"
		/>
	<path fill="#141B23" d="M16.1476479,7.3753848c0.1294327-0.0674124,0.2615376-0.3346839,0.3855362,0.0042624
		c-0.1135502,0.1219716-0.2271061,0.2439432-0.3405552,0.3659549c-0.0571365-0.0082507-0.1143799-0.016541-0.1716137-0.0249009
		C16.0632305,7.6055489,16.1054401,7.4904671,16.1476479,7.3753848z"/>
	<path fill="#141B23" d="M14.0928717,6.5845556c0.1308537,0.1482363,0.2617044,0.2964721,0.3925581,0.4447083
		c-0.3040257-0.0295486-0.4658003-0.1929908-0.5207014-0.457026c-0.0000391,0.0000405,0.0203934-0.0183434,0.0203934-0.0183434
		C14.0374117,6.516572,14.073329,6.5267925,14.0928717,6.5845556z"/>
	<path fill="#1A1D23" d="M17.313591,4.5749626c-0.0660152-0.0678582-0.1320343-0.1357169-0.198288-0.2035699
		c0.2918587-0.038651,0.4396,0.132606,0.5725155,0.3253989c0.0000114-0.0000477-0.0344639,0.0345716-0.0344639,0.0345716
		c-0.1827374,0.0708027-0.2690735-0.0331407-0.3444195-0.157001L17.313591,4.5749626z"/>
	<path fill="#212121" d="M20.2157784,4.142663c0.7067699,1.2575264,0.849144,2.5604959,0.381218,3.9125719
		c-0.1391335,0.0996981-0.0971375,0.2373266-0.0930271,0.3670111c-0.0868988,0.001049-0.1737995,0.0021124-0.2606945,0.0031815
		c-0.0740204-0.2946301,0.1943417-0.4897413,0.2700081-0.7460985c0.3550472-1.2029438,0.2140789-2.3350763-0.4450321-3.4220018
		c-0.0480461-0.0792341-0.0479145-0.1826077-0.0701656-0.2748027C20.0706635,4.0358744,20.1432228,4.0892692,20.2157784,4.142663z"
		/>
	<path fill="#1D1E22" d="M13.4036322,2.7069244c1.4125748-0.8445262,2.8921328-0.970724,4.4421816-0.3423109
		c-0.5066147,0.0901594-0.930521-0.2217457-1.4294014-0.2296436c-0.9091921-0.0143936-1.7777767,0.0822921-2.587059,0.4808962
		C13.6972561,2.6809301,13.5602646,2.7335567,13.4036322,2.7069244z"/>
	<path fill="#FA6C01" d="M9.3471012,11.4410439c-0.8997908,0.2616673-1.5839024,0.04-1.8682289-0.6053495
		c-0.2418065-0.5488434,0.0337539-1.175149,0.6345978-1.482831c0.4175701-0.2138319,0.8189621-0.1197615,1.2256012,0.0134811
		C10.3497534,10.0704308,10.3441162,10.7261953,9.3471012,11.4410439z"/>
	<path fill="#212021" d="M10.7549658,10.9695396c-0.1042137,0.1033955-0.1315832,0.2880173-0.3483391,0.272543
		c0.1306705-0.4511395,0.0227146-0.8807716-0.1435566-1.3051014c-0.0856333-0.1548996-0.1712685-0.3097992-0.2569027-0.4646988
		c0.0022392-0.111577,0.0328522-0.2092724,0.1551332-0.2621946c0.0931702,0.0147104,0.1734562,0.0369368,0.1012945,0.1463413
		c0.378561,0.421607,0.4995775,0.9550781,0.7523794,1.4313078c-0.0796757,0.06915-0.1699734,0.1259565-0.2590504,0.1841822
		L10.7549658,10.9695396z"/>
	<path fill="#212021" d="M9.3471012,11.4410439c0.8366289-0.8456984,0.8350992-1.2476969-0.0079613-2.0747194
		c0.5202551-0.0150652,0.5090675,0.4785814,0.7957935,0.6870813c0.0979347,0.2325144,0.0976505,0.4650545,0.000206,0.6976175
		C9.8506546,10.960453,9.8586121,11.4458504,9.3471012,11.4410439z"/>
	<path fill="#212121" d="M10.1362915,9.2368126c-0.0033112,0.0967731-0.0260763,0.1846647-0.1301117,0.2354622
		c-0.1709995-0.076952-0.2992983-0.1926746-0.3832045-0.3487043C9.5257158,9.0145054,9.498167,8.8635454,9.3686342,8.7738752
		C9.2340174,8.6069288,9.0338001,8.6737099,8.8574858,8.6553326c-0.0298519-0.0308495-0.0406952-0.0623627-0.032547-0.0945425
		c0.0082321-0.0325098,0.0170555-0.0487652,0.0260105-0.0488815C9.0443954,8.386878,9.2945328,8.3890533,9.4938526,8.2760696
		C9.7346172,8.2905483,9.792244,8.4938202,9.9247303,8.6205559c0.0946083,0.1534958,0.1342535,0.3303671,0.2451487,0.4775763
		C10.186779,9.1499624,10.1766453,9.1964817,10.1362915,9.2368126z"/>
	<path fill="#021526" d="M10.1351395,10.7510233c-0.0000668-0.2325411-0.0001335-0.4650812-0.0002031-0.6976204
		c0.0427094-0.038806,0.0854225-0.0776148,0.1281338-0.1164227c0,0.000001,0.0000019,0,0.0000019,0.000001
		c-0.0068874,0.2685032-0.0132456,0.5370207-0.0226479,0.8054504c-0.0003643,0.0104103-0.0295162,0.0272093-0.0460472,0.0280447
		C10.1750879,10.771452,10.1549234,10.7581367,10.1351395,10.7510233z"/>
	<path fill="#603717" d="M7.9672241,8.6677856C7.7982435,8.6578808,7.704628,8.5801773,7.700007,8.4223566
		c0.0500684-0.0336161,0.1001754-0.0672102,0.1502829-0.1008043C7.9342704,8.3779249,8.037322,8.3985815,8.1281853,8.4429369
		c0.0477209,0.0230074,0.087533,0.054328,0.1215992,0.0921431c0.0196209,0.0514164,0.0028439,0.089819-0.0499992,0.1152029
		C8.1222649,8.6561174,8.0447445,8.661952,7.9672241,8.6677856z"/>
	<path fill="#181D22" d="M8.1997852,8.6502838C8.2106695,8.6169472,8.218256,8.5830021,8.2225437,8.5484486
		C8.4293747,8.371583,8.640893,8.375164,8.8564663,8.5348406c0.0003262,0.0401821,0.0006514,0.0803623,0.0009995,0.1205187
		C8.6382523,8.6536493,8.4190197,8.6519661,8.1997852,8.6502838z"/>
	<path fill="#212021" d="M9.3686342,8.7738752c0.259614,0.0114794,0.2565022,0.1808681,0.2543459,0.3496857
		C9.454154,9.0575123,9.3676138,8.9420052,9.3686342,8.7738752z"/>
	<path fill="#001426" d="M10.1362915,9.2368126c0.0000477-0.038064-0.0007839-0.0761127-0.002492-0.1141453
		C9.8956509,9.0375776,9.9981432,8.7980528,9.8793221,8.658864C9.5994158,8.6769466,9.667016,8.3922129,9.5070047,8.3058186
		C9.3178711,8.2361479,9.245203,8.1298351,9.3752356,7.9597492c0.0402279-0.0000525,0.0804558-0.0002098,0.1206837-0.0004706
		C9.6642342,7.707273,9.4645872,7.409142,9.617897,7.1552553l0.0053596-0.0091052
		c0.3787251,0.222621,0.1185751,0.6676497,0.3907118,0.9273772l-0.0009308-0.0027161
		c0.0627527,0.3702707,0.2207975,0.7118645,0.3831987,1.052146c0.0222607,0.0238581,0.0286522,0.0508242,0.0191784,0.0808907
		c-0.0509319,0.0508471-0.1018696,0.1016998-0.1528139,0.1525679C10.2204943,9.3165569,10.1783934,9.2766848,10.1362915,9.2368126z"
		/>
	<path fill="#E26D04" d="M11.9431553,11.6756525c-0.3437309-0.0142193-0.5011215-0.2434196-0.6590557-0.4720478
		C11.5837259,11.2686987,11.7615643,11.4743404,11.9431553,11.6756525z"/>
	<path fill="#E26D04" d="M10.7559242,10.9719191c-0.0102577-0.1736803,0.1101332-0.1956148,0.2590828-0.1842613
		c0.05338,0.104949,0.1067934,0.2098198,0.1602507,0.314702C11.0355091,11.0588884,10.8957167,11.0154037,10.7559242,10.9719191z"/>
	<path fill="#212121" d="M10.0139685,8.0735273C9.6101217,7.8596478,9.8817253,7.4106326,9.6232576,7.1461468
		c-0.0366688-0.949564,0.1081924-1.8784156,0.385644-2.7921433c0.2689123-0.1725039,0.2261152-0.5497019,0.5469799-0.6881006
		c-0.0633984,0.1846678-0.1268511,0.3693316-0.1903553,0.5539639C9.775979,5.2852774,9.7369032,6.4092984,9.9343166,7.5588217
		C9.9637108,7.7299867,9.9875565,7.9019384,10.0139685,8.0735273z"/>
	<path fill="#A4510E" d="M9.3752356,7.9597492C9.3387957,8.1003685,9.4338217,8.1996546,9.5069609,8.3058271
		C9.4215202,8.690403,9.0889654,8.4952965,8.8564615,8.5348825C8.6451406,8.5393534,8.433814,8.5438671,8.222517,8.5484142
		C8.1721649,8.5369158,8.1217861,8.525382,8.0714064,8.5138483C8.0611296,8.341814,8.1824913,8.2651587,8.3355122,8.21103
		C8.5673676,8.0935507,9.12922,8.3920774,8.9744711,7.7891688C8.9547377,7.6122022,8.9473448,7.4372697,9.062746,7.2800431
		c0.0532284-0.051085,0.1108198-0.0553579,0.1725826-0.0131602L9.2342815,7.2634544
		c0.1549864,0.1793122-0.0128517,0.4133687,0.1223221,0.5960407C9.3489523,7.8950415,9.3551626,7.9284596,9.3752356,7.9597492z"/>
	<path fill="#212121" d="M9.2353287,7.2668829c-0.0381651-0.006042-0.0765085-0.0109291-0.1150293-0.0146632
		C9.0084743,7.0587754,8.8239422,7.007359,8.6003332,7.0322728C8.6429195,6.8763685,8.6855059,6.7204647,8.728096,6.5645676
		C8.8558741,6.486824,8.9836483,6.4090748,9.1114197,6.3313241c0.2610264,0.0109267,0.2572765,0.1819992,0.2569408,0.3510365
		C9.2434845,6.8620706,9.2425938,7.0650764,9.2353287,7.2668829z"/>
	<path fill="#000F28" d="M9.617897,7.1552553C9.5787258,7.4234548,9.7385111,7.7165956,9.4959145,7.9592848
		C9.5457106,7.6924157,9.3781624,7.3983083,9.617897,7.1552553z"/>
	<path fill="#212121" d="M9.3566036,7.8594952C9.198822,7.6806502,9.2363825,7.4686961,9.2343092,7.2634544
		C9.4586096,7.4310088,9.3485498,7.6552663,9.3566036,7.8594952z"/>
	<path fill="#E86D03" d="M8.6003342,7.0322728c0.2036905-0.0276113,0.1871824-0.3010917,0.4266863-0.3088193
		c0.1718912,0.1533036,0.0637846,0.3527341,0.0932436,0.5288C9.1165571,7.4492283,9.1128159,7.6462374,9.1090727,7.843246
		C8.7123232,7.8055358,8.9208622,7.4985418,8.8472109,7.3575444c-0.131443,0.2605977-0.1849813,0.6031017-0.650528,0.6117373
		C8.076643,7.7677135,8.2634153,7.6448965,8.34303,7.4946461C8.4287987,7.3405218,8.5145655,7.1863976,8.6003342,7.0322728z"/>
	<path fill="#EE7903" d="M8.3445568,8.3134594C8.253541,8.3803406,8.1625261,8.4472218,8.0714588,8.5139761
		c-0.162715,0.0202961-0.2343969-0.0457296-0.2211747-0.1924238C7.887846,8.2807903,7.9254022,8.2400265,7.9629583,8.1992626
		c0.0548134-0.0707235,0.0872355-0.1618891,0.1992836-0.1804333C8.3654509,8.0441818,8.471796,8.1191206,8.3445568,8.3134594z"/>
	<path fill="#151B23" d="M8.0943213,8.0752764C8.0505323,8.1166048,8.0067444,8.1579323,7.9629574,8.1992617
		C7.9600697,7.9066353,8.0457411,7.6534801,8.3430319,7.4946456C8.2836647,7.6446452,8.2243004,7.7946439,8.1649351,7.944643
		C8.1761541,8.0037117,8.154294,8.0480061,8.0943213,8.0752764z"/>
	<path fill="#212121" d="M14.2354078,8.0888643C14.2251596,8.2482061,14.136467,8.3615875,13.986989,8.439393
		c-0.0125713-0.1967564,0.0862541-0.3495684,0.2313519-0.4840975C14.2239695,7.9998031,14.2296896,8.0443335,14.2354078,8.0888643z"
		/>
	<path fill="#212121" d="M13.9926949,8.4309788c-0.0226507,0.1637468,0.0126419,0.3136492,0.1286068,0.4442186
		c-0.1159687,0.014164-0.2180042-0.0024195-0.2805023-0.1058779C13.849925,8.6411142,13.8180742,8.4977293,13.9926949,8.4309788z"/>
	<path fill="#0D1924" d="M19.4688892,1.7007664c-0.0652504-0.2379079-0.3202038-0.2664146-0.5018959-0.375788
		c0.0841217-0.075608,0.1681881-0.1511636,0.2522507-0.2267122c0.1799736,0.034026,0.3599548,0.0680453,0.5399323,0.1020645
		c0.0786114-0.0578504,0.1661663-0.0604926,0.2585335-0.0354244c0.3446159,0.1747319,0.6750546,0.364026,0.8465271,0.7098767
		c0.2206097,0.2753041,0.3198051,0.6113904,0.5402184,0.8868074c0.0387878,0.0403595,0.0706615,0.0848155,0.099165,0.131413
		c0.3688507,0.7134972,0.9619846,1.3189154,1.2206898,2.0864229c0.0203896,0.0530553,0.0332928,0.107203,0.0422878,0.1625628
		c0.0125961,0.3601761,0.201498,0.7337685-0.096283,1.0704947c-0.2960339,0.5163603,0.0338631,1.1128688-0.2526665,1.6304402
		c-0.1030884-0.0502415-0.1249561-0.1373386-0.1279869-0.2329855c-0.1425991-0.4123597-0.0456562-0.8349934-0.054533-1.2520494
		c-0.0090313-0.4241958-0.0137424-0.8451304-0.1333923-1.2573218c-0.0298386-0.2718601-0.2048664-0.5048814-0.2553387-0.7713499
		c-0.1255779-0.2778697-0.2405796-0.5616071-0.4807625-0.7818005C20.8347244,2.845861,20.1995029,2.2328331,19.4688892,1.7007664z"
		/>
	<path fill="#222121" d="M22.1608353,4.9365611c0.2278004,0.8837709,0.1055336,1.7814813,0.1288338,2.6733866
		c-0.1997185,0.1059842-0.0561314,0.3590331-0.2436886,0.4702163c-0.0078812-0.0482292-0.0158443-0.096478-0.0238438-0.1447849
		c0.201992-0.9984484,0.1959705-1.9963098-0.0092316-2.9936657C22.0601997,4.8921809,22.1094131,4.8881507,22.1608353,4.9365611z"/>
	<path fill="#101A24" d="M24.8492603,2.1444085c0.2301025,0.3325574,0.1785717,0.6473424-0.0671501,0.9535513
		c-0.2636776,0.3285847-0.5614967,0.6390269-0.6897926,1.0418766c0.0015755,0.1552606-0.1310081,0.1921558-0.2531853,0.2387238
		c-0.6913033,0.229248-1.2381229,0.0686364-1.672924-0.4771419c-0.2742233-0.3442156-0.5498791-0.6853521-0.7723064-1.0598044
		l0.0011921,0.0013936c-0.2623253-0.4037399-0.1519337-0.8476456-0.1678848-1.2777152
		c0.0090466-0.1276592,0.045723-0.2471298,0.1344872-0.3494458C21.4545765,1.1298046,21.5732059,1.0881,21.6988258,1.059075
		c0.0621243-0.0111325,0.1216469-0.0021271,0.1784096,0.0235623c0.1236706-0.0751381,0.2473392-0.1502763,0.3778229-0.2295529
		c0.0931911,0.2947378-0.3039265,0.3583348-0.302597,0.63999c0.2925682-0.07775,0.4021034-0.411835,0.7201481-0.396578
		c0.2932186-0.0755373,0.6093216-0.0035918,0.8969688-0.1150144c0.6562347,0.1788066,1.0238819,0.6200131,1.2796822,1.1629176
		c-0.1351624,0.1546276-0.0119724,0.3379853-0.040596,0.3934467C24.8223267,2.4807241,24.7266293,2.3004267,24.8492603,2.1444085z"
		/>
	<path fill="#B1540B" d="M21.8772354,1.0826371l-0.0538006,0.0027366l-0.0536251-0.0047872
		c-0.5409184-0.1095348-1.0902824-0.0403749-1.6347713-0.0623688c-0.0615292,0.0019695-0.123497,0.0003709-0.1850777-0.0015721
		c-0.1203194-0.0015429-0.2388229-0.0328907-0.3605938-0.0211188c-0.1449661-0.1268601-0.0767136-0.223621,0.0810127-0.226436
		c0.6601582-0.0117823,1.3207607-0.0033408,1.9811974-0.0015684C21.9015369,0.7681932,21.9197712,0.9079005,21.8772354,1.0826371z"
		/>
	<ellipse fill="#091924" cx="20.6909351" cy="0.5740467" rx="1.3384061" ry="0.0365902"/>
	<path fill="#041526" d="M23.5695782,0.9814821c-0.2824879,0.1445737-0.5732117,0.2360757-0.8969479,0.1150263
		C22.9431057,0.8745519,23.2712669,1.024193,23.5695782,0.9814821z"/>
	<path fill="#6E3B16" d="M23.8418045,4.247087c0.0834484-0.0358558,0.1668949-0.0717115,0.2504292-0.107409
		c0.26898-0.0042815,0.2502766,0.1690388,0.2483368,0.3320174c-0.0362072,0.0075507-0.0728989,0.010879-0.110054,0.0099912
		c-0.1431808-0.0184841-0.2973862,0.0004716-0.4163284-0.1010618C23.7808609,4.3289285,23.7879543,4.2839799,23.8418045,4.247087z"
		/>
	<path fill="#E46704" d="M19.5893669,0.9955266c0.0612488-0.0975359,0.1584072-0.1227229,0.2733383-0.1121012
		c0.104002,0.0975785,0.2248878,0.1903194,0.1205463,0.3476003c-0.0747356-0.0102085-0.1494713-0.0204171-0.2241402-0.0306606
		C19.7025738,1.1320626,19.6459694,1.0637945,19.5893669,0.9955266z"/>
	<path fill="#232323" d="M18.5715733,1.2343212c-0.2470913-0.0531075-0.4941845-0.1062145-0.7412415-0.159372
		c-0.439188-0.2447845-0.9615688-0.1912988-1.4304543-0.3296589c-0.0389404-0.0254936-0.0515804-0.0505691-0.0380268-0.0752749
		c0.013422-0.0244668,0.0267582-0.036724,0.0401077-0.036724C17.1604176,0.7284854,17.9360218,0.7725325,18.5715733,1.2343212z"/>
	<path fill="#313436" d="M16.4019585,0.6332915c0.0017071,0.0373747,0.0010548,0.0747152-0.002018,0.1120104
		c-0.7741013-0.0015404-1.5290174,0.1395168-2.287508,0.2534892C14.8260994,0.6205239,15.6155329,0.6346934,16.4019585,0.6332915z"
		/>
	<path fill="#262625" d="M22.6703148,6.2124839c0.0694065-0.3892522-0.1033802-0.7817802,0.0191555-1.1703138
		c0.3285713,0.0716419,0.2417984,0.353291,0.3342705,0.5446806c0.0921631,0.1907487-0.0128403,0.4201088,0.1441364,0.5974059
		c0.0059395,0.087791,0.0118828,0.1755834,0.0178242,0.2633734C22.9586353,6.4693422,22.628994,6.6768246,22.6703148,6.2124839z"/>
	<path fill="#EC6E03" d="M23.1678772,6.1842566c-0.2523727,0.0481396-0.2578068-0.1020646-0.2756004-0.265645
		c-0.0324154-0.2979431-0.0304928-0.604507-0.2028446-0.8764181c0.0000381-0.0000234,0.0005741,0.0045304,0.0005741,0.0045304
		c-0.3022556-0.6562085-0.3022804-0.6555266,0.453104-0.6338415c0.1675758,0.0048103,0.3356533,0.0068369,0.5007706-0.0282207
		c0.141737,0.0671444,0.3988819-0.0793719,0.4307308,0.1918364C23.7723675,5.1124177,23.4701214,5.6483374,23.1678772,6.1842566z"/>
	<path fill="#C56208" d="M24.0746117,4.576498c-0.0939884-0.1350021-0.2506962-0.0886731-0.3840828-0.1097693
		c-0.0171471-0.1019568,0.001791-0.1664891,0.137701-0.1097131c0.1493607,0.0007234,0.3110027-0.0312991,0.4022217,0.124649
		C24.1785488,4.5132899,24.1265793,4.5448937,24.0746117,4.576498z"/>
	<path fill="#131B24" d="M21.3656349,3.5474169c0.3560619,0.1166141,0.3635864,0.4584816,0.540411,0.690932
		c-0.0459633,0.0635571-0.0954494,0.0659137-0.1484623,0.0070634C21.5622368,4.0427661,21.4629383,3.7955544,21.3656349,3.5474169z"
		/>
	<path fill="#1B1D23" d="M21.7575836,4.2454123c0.04949-0.002358,0.0989819-0.0047159,0.1484661-0.0070686
		c0.084938,0.2327361,0.169878,0.465467,0.2548027,0.6982079c-0.0493069,0.0017228-0.0985966,0.0034361-0.1479168,0.0051556
		C21.8703327,4.7270241,21.7741966,4.4982657,21.7575836,4.2454123z"/>
	<path fill="#212021" d="M10.3962364,9.1229572c-0.2640667-0.3096838-0.4731302-0.6359224-0.3832083-1.0521421
		c0.037652,0.0080414,0.0752296,0.016326,0.1127081,0.02491C10.1061583,8.4620533,10.4684792,8.7452192,10.3962364,9.1229572z"/>
	<path fill="#F87001" d="M17.0308266,5.6885343c0.0027122,0.3601933-0.7265568,0.9691448-1.1478062,0.9584384
		c-0.3232784-0.0082169-1.0015707-0.6363363-1.0116663-0.9368382c-0.0131683-0.3918896,0.5736694-0.8836327,1.0627117-0.8905044
		C16.3993225,4.8130932,17.0279846,5.3111467,17.0308266,5.6885343z"/>
	<path fill="#C65B0A" d="M16.6494007,7.3736615c0.0267754-0.1784172,0.0151711-0.3342977-0.2447319-0.3443756
		c0.0857239-0.0755162,0.1714458-0.151032,0.2571774-0.226481C17.0036564,6.9993711,17.0006542,7.1896558,16.6494007,7.3736615z"/>
	<path fill="#F27102" d="M14.0928717,6.5845556c-0.0341167-0.0154672-0.0700397-0.025682-0.1077595-0.030652
		c-0.3807993-0.9771371-0.2648268-1.4452858,0.4905834-1.9805374C14.0138426,5.1911616,13.8340225,5.8533654,14.0928717,6.5845556z"
		/>
	<path fill="#F27102" d="M17.3089352,4.5743623c0.1148262,0.0523167,0.2296505,0.1046324,0.3444481,0.1569753
		c0.0127678,0.0685949,0.0255661,0.1371646,0.0383816,0.2057405C17.5226517,4.852386,17.2957115,4.8181028,17.3089352,4.5743623z"/>
	<path fill="#202021" d="M9.8793221,8.658864c0.084837,0.154603,0.169673,0.309206,0.2544937,0.4638062
		C9.7928753,9.0841732,9.9034309,8.840992,9.8793221,8.658864z"/>
	<path fill="#FE6F00" d="M8.0943213,8.0752764C8.1179562,8.0317326,8.1415901,7.9881883,8.1650801,7.944644
		c0.4332991-0.1309438,0.4644232-0.5528374,0.7096043-0.8606558c0.2304316,0.2430086-0.0337067,0.5717554,0.2344112,0.759264
		c0.2363176,0.400363,0.157095,0.5848036-0.382844,0.4762707C8.6044674,8.295043,8.4720507,8.3142672,8.3445435,8.3134165
		C8.3411684,8.1645966,8.2620134,8.0815077,8.0943213,8.0752764z"/>
	<path fill="#E87103" d="M19.9832516,1.2310257c-0.0402069-0.1159613-0.0804119-0.2319232-0.1205845-0.3477428
		c0.0446644,0.0011811,0.0892925,0.0022197,0.1339188,0.0032583c0.4513321,0.0812037,0.907547,0.0201651,1.3611088,0.0379641
		c0.2652359,0.0104081,0.4487267,0.0489261,0.1629658,0.3015082c-0.0378056,0.0838617-0.0756092,0.1677237-0.1134148,0.2515858
		c-0.083931,0.0276603-0.0934391,0.1031654-0.1266479,0.1636966c-0.0673752,0.1694461-0.1693764,0.3063053-0.382946,0.3390294
		c-0.055294-0.0045128-0.105051-0.022208-0.1492767-0.0527599C20.5713902,1.6245383,20.2199764,1.4798312,19.9832516,1.2310257z"/>
	<path fill="#262220" d="M23.8282299,4.3570161c-0.0458832,0.036581-0.0917645,0.0731621-0.1376743,0.1097279
		c-0.1490936,0.0042253-0.3044052,0.0352826-0.4461308,0.0080009c-0.5724525-0.1101999-0.7149296,0.1048632-0.554472,0.5719757
		c-0.4218159-0.7399621-1.0202904-1.3941565-1.2960434-2.2050986c0.4200516,0.2688427,0.6153622,0.7101138,0.9527855,1.048574
		c0.458231,0.4596372,0.9152603,0.5195045,1.494978,0.3568239C23.8325539,4.2832475,23.8280277,4.3198905,23.8282299,4.3570161z"/>
	<path fill="#262220" d="M20.7483749,1.9275656c0.0354385,0.0005251,0.0708523-0.0001067,0.1062393-0.0018955
		c0.3450527,0.0739276,0.3007851-0.2162341,0.4103317-0.3625494c0.0474186-0.0285399,0.0948372-0.0570793,0.1422787-0.0855701
		c-0.004034,0.455179-0.0080872,0.9103091-0.0121365,1.3654485C20.9603748,2.6657836,20.9764786,2.225399,20.7483749,1.9275656z"/>
	<path fill="#EB7003" d="M22.6783962,3.6435096c-0.9129658-0.6836131-1.0274124-1.2142301-0.4025421-1.8663237
		c0.2117329,0.2055063,0.052742,0.4407814,0.0574818,0.660758c0.0118122,0.5482149,0.3828259,0.9457231,0.887249,0.9251034
		c0.5267582-0.0215328,0.8764248-0.4391081,0.8132839-0.971231c-0.0600853-0.5063721-0.4796467-0.7429953-1.112978-0.643716
		c-0.2129383,0.0333794-0.421566,0.2252859-0.6500435,0.0340669c0.5414619-0.5363162,1.159605-0.601763,1.7250938-0.1826444
		c0.5729218,0.4246279,0.6572227,1.1123439,0.1996479,1.6530896c-0.0774403,0.091517-0.1672688,0.1743722-0.2513733,0.26123
		C23.5546246,3.8180075,23.1331463,3.8649404,22.6783962,3.6435096z"/>
	<path fill="#E46704" d="M21.5206604,1.2260135c0.1071625-0.2291391-0.0365562-0.2371427-0.2350769-0.2494932
		c-0.4298573-0.0267425-0.8739967,0.1025368-1.2891254-0.0901179c0.443718-0.0031414,0.8873062-0.0084386,1.3308983-0.0087277
		c0.1821823-0.0001187,0.399538-0.0524873,0.4424629,0.2029281C21.7132797,1.166605,21.6444378,1.2351927,21.5206604,1.2260135z"/>
	<path fill="#242221" d="M22.6783962,3.6435096c0.4347248,0.0599856,0.8611012,0.0525625,1.2658272-0.129616
		C23.4959431,3.9872015,23.1273079,4.0249634,22.6783962,3.6435096z"/>
	<path fill="#021526" d="M24.8492603,2.1444085c0,0.187041,0,0.3740814,0,0.5611224
		c-0.1365204-0.193012-0.1917534-0.3833573,0-0.561131C24.8492603,2.1443996,24.8492603,2.1444085,24.8492603,2.1444085z"/>
	<path fill="#191C23" d="M15.9494896,6.249692c-0.4057274-0.0212083-0.719965-0.1764817-0.7078686-0.5765877
		c0.0109177-0.3612299,0.3003979-0.5303273,0.688097-0.5329542C16.3102665,5.1375728,16.6191273,5.2795,16.6384468,5.649004
		C16.6590824,6.0436349,16.3627872,6.2195554,15.9494896,6.249692z"/>
	<path fill="#E46D04" d="M21.264946,1.5631206c-0.0612564,0.4481022-0.0808067,0.4653754-0.4102745,0.362517
		C21.0686302,1.8770534,21.1035919,1.6609868,21.264946,1.5631206z"/>
	<path fill="#FE6B00" d="M22.2708473,1.7821673c0.1910934,0.0263938,0.3049793-0.1281859,0.4595661-0.1665808
		c0.4962101-0.1232457,1.0044308-0.1205529,1.325428,0.2996691c0.2679157,0.3507322,0.2802925,0.8095282,0.0406799,1.1556109
		c-0.2366867,0.3418543-0.6672897,0.5896852-1.1516571,0.4411263c-0.5209675-0.1597857-0.859293-0.4968333-0.7817192-1.0531526
		c0.0317707-0.2278373,0.0748672-0.45437,0.1127586-0.6815754C22.2758541,1.7771859,22.2708473,1.7821673,22.2708473,1.7821673z"/>
	<path fill="#202021" d="M16.1940498,5.7069559c-0.039959,0.1062574-0.132822,0.1500349-0.2437267,0.1400161
		c-0.1216717-0.0109906-0.1850834-0.0836205-0.1542721-0.1987987c0.0231028-0.0863543,0.0968809-0.1195579,0.1894722-0.1121783
		C16.0998211,5.545105,16.1803131,5.5932713,16.1940498,5.7069559z"/>
</g>
</svg>
