<svg width="800" height="240" viewBox="0 0 800 240" fill="none" xmlns="http://www.w3.org/2000/svg">
<g clip-path="url(#clip0_92_44)">
<path d="M71.0375 19.7534C75.4999 13.0598 77.3563 10.3396 79.728 8.39027C81.9115 6.59559 84.4275 5.24907 87.132 4.42774C90.0695 3.53565 93.3626 3.5 101.407 3.5H698.593C706.637 3.5 709.93 3.53565 712.868 4.42774C715.572 5.24906 718.089 6.59559 720.272 8.39026C722.644 10.3396 724.5 13.0598 728.963 19.7535L782.296 99.7535C787.794 108.001 790.004 111.409 790.862 114.99C791.651 118.283 791.651 121.717 790.862 125.01C790.004 128.591 787.794 131.999 782.296 140.247L728.963 220.247C724.5 226.94 722.644 229.66 720.272 231.61C718.089 233.404 715.572 234.751 712.868 235.572C709.93 236.464 706.637 236.5 698.593 236.5H101.407C93.3626 236.5 90.0695 236.464 87.132 235.572C84.4275 234.751 81.9115 233.404 79.728 231.61C77.3563 229.66 75.4999 226.94 71.0375 220.247L17.7042 140.247C12.2057 131.999 9.99637 128.591 9.13821 125.01C8.34894 121.717 8.34894 118.283 9.13821 114.99C9.99637 111.409 12.2057 108.001 17.7042 99.7534L71.0375 19.7534Z" fill="url(#paint0_linear_92_44)"/>
<path d="M71.0375 19.7534C75.4999 13.0598 77.3563 10.3396 79.728 8.39027C81.9115 6.59559 84.4275 5.24907 87.132 4.42774C90.0695 3.53565 93.3626 3.5 101.407 3.5H698.593C706.637 3.5 709.93 3.53565 712.868 4.42774C715.572 5.24906 718.089 6.59559 720.272 8.39026C722.644 10.3396 724.5 13.0598 728.963 19.7535L782.296 99.7535C787.794 108.001 790.004 111.409 790.862 114.99C791.651 118.283 791.651 121.717 790.862 125.01C790.004 128.591 787.794 131.999 782.296 140.247L728.963 220.247C724.5 226.94 722.644 229.66 720.272 231.61C718.089 233.404 715.572 234.751 712.868 235.572C709.93 236.464 706.637 236.5 698.593 236.5H101.407C93.3626 236.5 90.0695 236.464 87.132 235.572C84.4275 234.751 81.9115 233.404 79.728 231.61C77.3563 229.66 75.4999 226.94 71.0375 220.247L17.7042 140.247C12.2057 131.999 9.99637 128.591 9.13821 125.01C8.34894 121.717 8.34894 118.283 9.13821 114.99C9.99637 111.409 12.2057 108.001 17.7042 99.7534L71.0375 19.7534Z" stroke="url(#paint1_linear_92_44)" stroke-width="7" style="mix-blend-mode:overlay"/>
<g filter="url(#filter0_dd_92_44)">
<path d="M298.045 155.493C299.663 165.868 304.882 174.034 307.289 176.82L305.267 167.021C305.075 166.637 304.689 163.505 304.689 154.051C304.689 142.235 310.467 129.842 312.49 125.23C314.512 120.619 320.29 114.278 332.712 105.632C342.65 98.7144 363.624 101.02 372.869 103.038L403.491 114.854L440.759 130.13C441.818 129.553 444.63 127.939 447.403 126.095C450.87 123.789 456.937 125.518 460.404 127.536C463.177 129.15 462.907 133.204 462.426 135.029C463.774 135.318 467.337 135.721 470.804 135.029C474.271 134.338 474.56 136.086 474.271 137.047L472.537 140.505C476.1 140.217 483.862 139.814 486.404 140.505C489.582 141.37 486.982 147.711 486.115 149.152C485.422 150.305 481.589 154.436 479.76 156.357H482.649C484.093 155.781 487.502 154.167 489.582 152.322C491.662 150.478 493.338 145.981 493.916 143.964C494.686 143.003 496.862 141.024 499.405 140.794C501.947 140.563 503.545 139.545 504.027 139.064L508.36 132.147C509.323 130.802 512.289 127.593 516.449 125.518C520.609 123.443 518.76 120.619 517.316 119.466L512.116 116.872C501.138 112.164 477.506 101.885 470.804 98.4262C462.426 94.103 452.315 93.2383 447.403 93.2383C443.474 93.2383 437.1 96.3126 434.403 97.8498C433.922 96.793 432.323 93.5842 429.781 89.2034C427.239 84.8225 419.67 82.3823 416.203 81.7098C416.973 81.4216 419.901 80.7299 425.447 80.2687C430.994 79.8076 433.729 81.8059 434.403 82.8626L441.626 89.2034C442.877 89.7798 446.479 90.9326 450.87 90.9326C455.261 90.9326 455.396 85.5526 454.915 82.8626L452.315 78.8276C451.063 77.6748 448.155 75.0232 446.537 73.6398C444.919 72.2564 429.492 65.9541 421.981 62.9759L408.692 59.5173L410.136 58.9409L415.047 58.6527L413.025 57.2116L409.269 56.0587L402.336 55.1941H395.113L392.225 55.4823C391.262 56.0587 389.162 57.9033 388.469 60.6702C387.776 63.437 387.024 62.2073 386.736 61.2466V58.3645C387.024 57.0195 387.891 53.1766 389.047 48.5652C390.491 42.8009 400.314 33.8663 405.514 29.5431C409.674 26.0845 405.321 25.7963 402.625 26.0845C399.254 26.9491 390.896 29.2548 384.424 31.5606C377.953 33.8663 366.32 43.8577 361.313 48.5652C360.542 48.5652 356.055 48.7381 344.268 49.4298C332.481 50.1215 320.29 55.4823 315.667 58.0762C315.764 59.5173 316.823 62.4571 320.29 62.6877C323.756 62.9182 323.082 64.3209 322.312 64.9934C320.386 65.5698 315.956 66.9532 313.645 67.8755C310.756 69.0284 296.311 78.2512 292.556 81.998C289.551 84.9954 289.763 87.0898 290.245 87.7623L294 86.3212H298.334C297.082 87.2819 293.711 90.4715 290.245 95.5441C286.778 100.617 282.637 111.876 281 116.872C282.541 116.776 285.738 116.238 286.2 114.854C286.662 113.471 289.089 112.357 290.245 111.972C289.956 112.741 288.973 116.065 287.356 123.213C285.738 130.36 288.03 139.257 289.378 142.811C290.437 142.811 292.556 142.235 292.556 139.929C292.556 137.623 294.482 135.894 295.445 135.318C295.637 137.719 296.427 145.117 298.045 155.493Z" fill="url(#paint2_linear_92_44)"/>
<path d="M430.648 138.776L437.581 132.724L432.381 130.13L410.136 120.33C403.973 118.505 389.798 114.509 382.402 113.125C373.157 111.396 361.602 110.819 352.935 112.26C346.001 113.413 338.297 117.352 335.312 119.178C335.023 119.37 333.174 120.849 328.09 125.23C321.734 130.706 319.712 139.929 318.267 149.152C316.823 158.375 318.556 161.545 322.023 176.82C324.796 189.041 336.66 204.585 342.246 210.83C341.957 207.755 341.379 200.108 341.379 194.113C341.379 186.62 343.112 178.55 346.29 167.886C348.833 159.355 357.942 151.842 362.179 149.152L359.002 147.999L366.802 140.794C366.802 140.505 369.113 138.949 378.358 135.029C387.602 131.11 405.128 132.628 412.736 133.877L430.648 138.776Z" fill="url(#paint3_linear_92_44)"/>
<path d="M359.002 193.249C359.926 199.474 367.861 209.292 371.713 213.424L370.846 208.236C370.846 206.41 370.962 202.356 371.424 200.742C371.886 199.128 372.965 199.493 373.446 199.878C373.639 200.07 375.295 201.664 380.38 206.506C386.736 212.559 397.136 214 401.469 214C404.936 214 401.951 211.694 400.025 210.541C396.751 208.812 389.913 205.181 388.758 204.489C387.313 203.624 382.402 197.284 380.958 194.401C379.513 191.519 379.802 187.196 381.824 181.432C383.442 176.82 393.284 172.401 398.002 170.768H419.958L442.781 172.497C443.84 172.785 445.901 173.592 445.67 174.515C445.439 175.437 445.766 178.934 445.959 180.567L451.737 177.109H455.492C455.3 177.781 454.857 179.933 454.626 183.161C454.395 186.389 457.418 184.506 458.959 183.161L463.87 179.703C466.759 179.703 473.115 179.587 475.426 179.126C477.737 178.665 479.278 176.628 479.76 175.668V172.785C479.76 171.344 476.293 169.903 475.426 169.327C474.56 168.75 476.582 164.715 477.737 161.257C478.662 158.49 476.774 155.685 475.715 154.628C475.811 154.82 475.946 155.838 475.715 158.375C475.426 161.545 474.271 162.41 473.115 163.563C471.96 164.715 469.648 165.292 465.315 165.292C461.848 165.292 459.633 160.104 458.959 157.51C457.515 157.702 454.164 157.971 452.315 157.51C450.466 157.049 450.581 153.859 450.87 152.322C449.715 152.706 446.306 153.648 441.914 154.34C437.523 155.031 434.114 152.706 432.959 151.458C432.574 150.881 431.976 149.152 432.67 146.846C433.363 144.54 431.611 143.003 430.648 142.523L421.403 140.794C418.514 140.505 410.598 139.987 402.047 140.217C393.496 140.448 381.921 145.309 377.202 147.711L381.535 148.287C381.343 148.383 380.206 148.979 377.202 150.593C374.197 152.207 368.054 158.567 365.357 161.545C364.009 163.659 360.908 168.923 359.291 173.074C357.268 178.261 357.846 185.467 359.002 193.249Z" fill="url(#paint4_linear_92_44)"/>
</g>
</g>
<defs>
<filter id="filter0_dd_92_44" x="232" y="-16" width="330" height="280" filterUnits="userSpaceOnUse" color-interpolation-filters="sRGB">
<feFlood flood-opacity="0" result="BackgroundImageFix"/>
<feColorMatrix in="SourceAlpha" type="matrix" values="0 0 0 0 0 0 0 0 0 0 0 0 0 0 0 0 0 0 127 0" result="hardAlpha"/>
<feOffset dx="-3" dy="4"/>
<feGaussianBlur stdDeviation="0.5"/>
<feComposite in2="hardAlpha" operator="out"/>
<feColorMatrix type="matrix" values="0 0 0 0 0 0 0 0 0 0 0 0 0 0 0 0 0 0 0.36 0"/>
<feBlend mode="normal" in2="BackgroundImageFix" result="effect1_dropShadow_92_44"/>
<feColorMatrix in="SourceAlpha" type="matrix" values="0 0 0 0 0 0 0 0 0 0 0 0 0 0 0 0 0 0 127 0" result="hardAlpha"/>
<feOffset dx="-3" dy="4"/>
<feGaussianBlur stdDeviation="23"/>
<feComposite in2="hardAlpha" operator="out"/>
<feColorMatrix type="matrix" values="0 0 0 0 0 0 0 0 0 0 0 0 0 0 0 0 0 0 0.53 0"/>
<feBlend mode="normal" in2="effect1_dropShadow_92_44" result="effect2_dropShadow_92_44"/>
<feBlend mode="normal" in="SourceGraphic" in2="effect2_dropShadow_92_44" result="shape"/>
</filter>
<linearGradient id="paint0_linear_92_44" x1="720.5" y1="493" x2="60" y2="-165.5" gradientUnits="userSpaceOnUse">
<stop stop-color="#E32DFF"/>
<stop offset="0.565" stop-color="#B52AB5"/>
<stop offset="1" stop-color="#F02FFF"/>
</linearGradient>
<linearGradient id="paint1_linear_92_44" x1="853.2" y1="102.5" x2="-0.830348" y2="138.055" gradientUnits="userSpaceOnUse">
<stop stop-color="#303030"/>
<stop offset="0.495" stop-color="#666666"/>
<stop offset="1" stop-color="#303030"/>
</linearGradient>
<linearGradient id="paint2_linear_92_44" x1="274.676" y1="26" x2="513.151" y2="195.956" gradientUnits="userSpaceOnUse">
<stop stop-color="#C52BCE"/>
<stop offset="0.51" stop-color="#F4ACFF"/>
<stop offset="1" stop-color="#CA2BD8"/>
</linearGradient>
<linearGradient id="paint3_linear_92_44" x1="274.676" y1="26" x2="513.151" y2="195.956" gradientUnits="userSpaceOnUse">
<stop stop-color="#C52BCE"/>
<stop offset="0.51" stop-color="#F4ACFF"/>
<stop offset="1" stop-color="#CA2BD8"/>
</linearGradient>
<linearGradient id="paint4_linear_92_44" x1="274.676" y1="26" x2="513.151" y2="195.956" gradientUnits="userSpaceOnUse">
<stop stop-color="#C52BCE"/>
<stop offset="0.51" stop-color="#F4ACFF"/>
<stop offset="1" stop-color="#CA2BD8"/>
</linearGradient>
<clipPath id="clip0_92_44">
<rect width="800" height="240" fill="white"/>
</clipPath>
</defs>
</svg>
