<svg width="892" height="240" viewBox="0 0 892 240" fill="none" xmlns="http://www.w3.org/2000/svg">
<g clip-path="url(#clip0_107_132)">
<path d="M117.038 19.7534C121.5 13.0598 123.356 10.3396 125.728 8.39027C127.912 6.59559 130.428 5.24907 133.132 4.42774C136.07 3.53565 139.363 3.5 147.407 3.5H744.593C752.637 3.5 755.93 3.53565 758.868 4.42774C761.572 5.24906 764.089 6.59559 766.272 8.39026C768.644 10.3396 770.5 13.0598 774.963 19.7535L828.296 99.7535C833.794 108.001 836.004 111.409 836.862 114.99C837.651 118.283 837.651 121.717 836.862 125.01C836.004 128.591 833.794 131.999 828.296 140.247L774.963 220.247C770.5 226.94 768.644 229.66 766.272 231.61C764.089 233.404 761.572 234.751 758.868 235.572C755.93 236.464 752.637 236.5 744.593 236.5H147.407C139.363 236.5 136.07 236.464 133.132 235.572C130.428 234.751 127.912 233.404 125.728 231.61C123.356 229.66 121.5 226.94 117.038 220.247L63.7042 140.247C58.2057 131.999 55.9964 128.591 55.1382 125.01C54.3489 121.717 54.3489 118.283 55.1382 114.99C55.9964 111.409 58.2057 108.001 63.7042 99.7534L117.038 19.7534Z" fill="url(#paint0_linear_107_132)"/>
<path d="M117.038 19.7534C121.5 13.0598 123.356 10.3396 125.728 8.39027C127.912 6.59559 130.428 5.24907 133.132 4.42774C136.07 3.53565 139.363 3.5 147.407 3.5H744.593C752.637 3.5 755.93 3.53565 758.868 4.42774C761.572 5.24906 764.089 6.59559 766.272 8.39026C768.644 10.3396 770.5 13.0598 774.963 19.7535L828.296 99.7535C833.794 108.001 836.004 111.409 836.862 114.99C837.651 118.283 837.651 121.717 836.862 125.01C836.004 128.591 833.794 131.999 828.296 140.247L774.963 220.247C770.5 226.94 768.644 229.66 766.272 231.61C764.089 233.404 761.572 234.751 758.868 235.572C755.93 236.464 752.637 236.5 744.593 236.5H147.407C139.363 236.5 136.07 236.464 133.132 235.572C130.428 234.751 127.912 233.404 125.728 231.61C123.356 229.66 121.5 226.94 117.038 220.247L63.7042 140.247C58.2057 131.999 55.9964 128.591 55.1382 125.01C54.3489 121.717 54.3489 118.283 55.1382 114.99C55.9964 111.409 58.2057 108.001 63.7042 99.7534L117.038 19.7534Z" stroke="url(#paint1_linear_107_132)" stroke-width="7" style="mix-blend-mode:overlay"/>
<g filter="url(#filter0_dd_107_132)">
<path d="M344.045 155.493C345.663 165.868 350.882 174.034 353.289 176.82L351.267 167.021C351.075 166.637 350.689 163.505 350.689 154.051C350.689 142.235 356.467 129.842 358.49 125.23C360.512 120.619 366.29 114.278 378.712 105.632C388.65 98.7144 409.624 101.02 418.869 103.038L449.491 114.854L486.759 130.13C487.818 129.553 490.63 127.939 493.403 126.095C496.87 123.789 502.937 125.518 506.404 127.536C509.177 129.15 508.907 133.204 508.426 135.029C509.774 135.318 513.337 135.721 516.804 135.029C520.271 134.338 520.56 136.086 520.271 137.047L518.537 140.505C522.1 140.217 529.862 139.814 532.404 140.505C535.582 141.37 532.982 147.711 532.115 149.152C531.422 150.305 527.589 154.436 525.76 156.357H528.649C530.093 155.781 533.502 154.167 535.582 152.322C537.662 150.478 539.338 145.981 539.916 143.964C540.686 143.003 542.862 141.024 545.405 140.794C547.947 140.563 549.545 139.545 550.027 139.064L554.36 132.147C555.323 130.802 558.289 127.593 562.449 125.518C566.609 123.443 564.76 120.619 563.316 119.466L558.116 116.872C547.138 112.164 523.506 101.885 516.804 98.4262C508.426 94.103 498.315 93.2383 493.403 93.2383C489.474 93.2383 483.1 96.3126 480.403 97.8498C479.922 96.793 478.323 93.5842 475.781 89.2034C473.239 84.8225 465.67 82.3823 462.203 81.7098C462.973 81.4216 465.901 80.7299 471.447 80.2687C476.994 79.8076 479.729 81.8059 480.403 82.8626L487.626 89.2034C488.877 89.7798 492.479 90.9326 496.87 90.9326C501.261 90.9326 501.396 85.5526 500.915 82.8626L498.315 78.8276C497.063 77.6748 494.155 75.0232 492.537 73.6398C490.919 72.2564 475.492 65.9541 467.981 62.9759L454.692 59.5173L456.136 58.9409L461.047 58.6527L459.025 57.2116L455.269 56.0587L448.336 55.1941H441.113L438.225 55.4823C437.262 56.0587 435.162 57.9033 434.469 60.6702C433.776 63.437 433.024 62.2073 432.736 61.2466V58.3645C433.024 57.0195 433.891 53.1766 435.047 48.5652C436.491 42.8009 446.314 33.8663 451.514 29.5431C455.674 26.0845 451.321 25.7963 448.625 26.0845C445.254 26.9491 436.896 29.2548 430.424 31.5606C423.953 33.8663 412.32 43.8577 407.313 48.5652C406.542 48.5652 402.055 48.7381 390.268 49.4298C378.481 50.1215 366.29 55.4823 361.667 58.0762C361.764 59.5173 362.823 62.4571 366.29 62.6877C369.756 62.9182 369.082 64.3209 368.312 64.9934C366.386 65.5698 361.956 66.9532 359.645 67.8755C356.756 69.0284 342.311 78.2512 338.556 81.998C335.551 84.9954 335.763 87.0898 336.245 87.7623L340 86.3212H344.334C343.082 87.2819 339.711 90.4715 336.245 95.5441C332.778 100.617 328.637 111.876 327 116.872C328.541 116.776 331.738 116.238 332.2 114.854C332.662 113.471 335.089 112.357 336.245 111.972C335.956 112.741 334.973 116.065 333.356 123.213C331.738 130.36 334.03 139.257 335.378 142.811C336.437 142.811 338.556 142.235 338.556 139.929C338.556 137.623 340.482 135.894 341.445 135.318C341.637 137.719 342.427 145.117 344.045 155.493Z" fill="url(#paint2_linear_107_132)"/>
<path d="M476.648 138.776L483.581 132.724L478.381 130.13L456.136 120.33C449.973 118.505 435.798 114.509 428.402 113.125C419.157 111.396 407.602 110.819 398.935 112.26C392.001 113.413 384.297 117.352 381.312 119.178C381.023 119.37 379.174 120.849 374.09 125.23C367.734 130.706 365.712 139.929 364.267 149.152C362.823 158.375 364.556 161.545 368.023 176.82C370.796 189.041 382.66 204.585 388.246 210.83C387.957 207.755 387.379 200.108 387.379 194.113C387.379 186.62 389.112 178.55 392.29 167.886C394.833 159.355 403.942 151.842 408.179 149.152L405.002 147.999L412.802 140.794C412.802 140.505 415.113 138.949 424.358 135.029C433.602 131.11 451.128 132.628 458.736 133.877L476.648 138.776Z" fill="url(#paint3_linear_107_132)"/>
<path d="M405.002 193.249C405.926 199.474 413.861 209.292 417.713 213.424L416.846 208.236C416.846 206.41 416.962 202.356 417.424 200.742C417.886 199.128 418.965 199.493 419.446 199.878C419.639 200.07 421.295 201.664 426.38 206.506C432.736 212.559 443.136 214 447.469 214C450.936 214 447.951 211.694 446.025 210.541C442.751 208.812 435.913 205.181 434.758 204.489C433.313 203.624 428.402 197.284 426.958 194.401C425.513 191.519 425.802 187.196 427.824 181.432C429.442 176.82 439.284 172.401 444.002 170.768H465.958L488.781 172.497C489.84 172.785 491.901 173.592 491.67 174.515C491.439 175.437 491.766 178.934 491.959 180.567L497.737 177.109H501.492C501.3 177.781 500.857 179.933 500.626 183.161C500.395 186.389 503.418 184.506 504.959 183.161L509.87 179.703C512.759 179.703 519.115 179.587 521.426 179.126C523.737 178.665 525.278 176.628 525.76 175.668V172.785C525.76 171.344 522.293 169.903 521.426 169.327C520.56 168.75 522.582 164.715 523.737 161.257C524.662 158.49 522.774 155.685 521.715 154.628C521.811 154.82 521.946 155.838 521.715 158.375C521.426 161.545 520.271 162.41 519.115 163.563C517.96 164.715 515.648 165.292 511.315 165.292C507.848 165.292 505.633 160.104 504.959 157.51C503.515 157.702 500.164 157.971 498.315 157.51C496.466 157.049 496.581 153.859 496.87 152.322C495.715 152.706 492.306 153.648 487.914 154.34C483.523 155.031 480.114 152.706 478.959 151.458C478.574 150.881 477.976 149.152 478.67 146.846C479.363 144.54 477.611 143.003 476.648 142.523L467.403 140.794C464.514 140.505 456.598 139.987 448.047 140.217C439.496 140.448 427.921 145.309 423.202 147.711L427.535 148.287C427.343 148.383 426.206 148.979 423.202 150.593C420.197 152.207 414.054 158.567 411.357 161.545C410.009 163.659 406.908 168.923 405.291 173.074C403.268 178.261 403.846 185.467 405.002 193.249Z" fill="url(#paint4_linear_107_132)"/>
</g>
<g filter="url(#filter1_d_107_132)">
<path d="M198 68L212.045 105.955L250 120L212.045 134.045L198 172L183.955 134.045L146 120L183.955 105.955L198 68Z" fill="#434343" fill-opacity="0.58" style="mix-blend-mode:overlay" shape-rendering="crispEdges"/>
<path d="M198 68L212.045 105.955L250 120L212.045 134.045L198 172L183.955 134.045L146 120L183.955 105.955L198 68Z" stroke="#353535" style="mix-blend-mode:overlay" shape-rendering="crispEdges"/>
</g>
<g filter="url(#filter2_b_107_132)">
<g filter="url(#filter3_d_107_132)">
<path d="M694 68L708.045 105.955L746 120L708.045 134.045L694 172L679.955 134.045L642 120L679.955 105.955L694 68Z" fill="#434343" fill-opacity="0.58" style="mix-blend-mode:overlay" shape-rendering="crispEdges"/>
<path d="M694 68L708.045 105.955L746 120L708.045 134.045L694 172L679.955 134.045L642 120L679.955 105.955L694 68Z" stroke="#353535" style="mix-blend-mode:overlay" shape-rendering="crispEdges"/>
</g>
</g>
</g>
<path d="M103.649 237.5H152.839L61.2383 121.55L60.014 120L61.2383 118.45L152.839 2.5H103.649C99.1555 2.5 97.3917 2.52211 95.8033 2.97085C94.3271 3.38791 92.9403 4.07314 91.7121 4.99227C90.3907 5.98122 89.3015 7.36873 86.5717 10.9375L13.8829 105.965C9.48453 111.715 7.76259 114.043 7.10202 116.514C6.4915 118.798 6.4915 121.202 7.10202 123.486C7.76259 125.957 9.48453 128.285 13.8829 134.035L86.5717 229.062C89.3015 232.631 90.3907 234.019 91.7121 235.008C92.9403 235.927 94.3271 236.612 95.8033 237.029C97.3917 237.478 99.1555 237.5 103.649 237.5Z" fill="#A92A5D" stroke="#961B38" stroke-width="5"/>
<path d="M740.141 2.5H788.887C793.396 2.5 795.167 2.52227 796.76 2.97398C798.241 3.3938 799.631 4.08349 800.862 5.00835C802.185 6.00346 803.274 7.39944 806.003 10.9899L878.235 106.022C882.59 111.751 884.295 114.07 884.949 116.53C885.554 118.804 885.554 121.196 884.949 123.47C884.295 125.93 882.59 128.249 878.235 133.978L806.003 229.01C803.274 232.601 802.185 233.997 800.862 234.992C799.631 235.917 798.241 236.606 796.76 237.026C795.167 237.478 793.396 237.5 788.887 237.5H740.141L831.166 121.544L832.378 120L831.166 118.456L740.141 2.5Z" fill="#A92A5D" stroke="#961B38" stroke-width="5"/>
<defs>
<filter id="filter0_dd_107_132" x="278" y="-16" width="330" height="280" filterUnits="userSpaceOnUse" color-interpolation-filters="sRGB">
<feFlood flood-opacity="0" result="BackgroundImageFix"/>
<feColorMatrix in="SourceAlpha" type="matrix" values="0 0 0 0 0 0 0 0 0 0 0 0 0 0 0 0 0 0 127 0" result="hardAlpha"/>
<feOffset dx="-3" dy="4"/>
<feGaussianBlur stdDeviation="0.5"/>
<feComposite in2="hardAlpha" operator="out"/>
<feColorMatrix type="matrix" values="0 0 0 0 0 0 0 0 0 0 0 0 0 0 0 0 0 0 0.36 0"/>
<feBlend mode="normal" in2="BackgroundImageFix" result="effect1_dropShadow_107_132"/>
<feColorMatrix in="SourceAlpha" type="matrix" values="0 0 0 0 0 0 0 0 0 0 0 0 0 0 0 0 0 0 127 0" result="hardAlpha"/>
<feOffset dx="-3" dy="4"/>
<feGaussianBlur stdDeviation="23"/>
<feComposite in2="hardAlpha" operator="out"/>
<feColorMatrix type="matrix" values="0 0 0 0 0 0 0 0 0 0 0 0 0 0 0 0 0 0 0.53 0"/>
<feBlend mode="normal" in2="effect1_dropShadow_107_132" result="effect2_dropShadow_107_132"/>
<feBlend mode="normal" in="SourceGraphic" in2="effect2_dropShadow_107_132" result="shape"/>
</filter>
<filter id="filter1_d_107_132" x="136.559" y="66.5592" width="114.881" height="114.882" filterUnits="userSpaceOnUse" color-interpolation-filters="sRGB">
<feFlood flood-opacity="0" result="BackgroundImageFix"/>
<feColorMatrix in="SourceAlpha" type="matrix" values="0 0 0 0 0 0 0 0 0 0 0 0 0 0 0 0 0 0 127 0" result="hardAlpha"/>
<feOffset dx="-4" dy="4"/>
<feGaussianBlur stdDeviation="2"/>
<feComposite in2="hardAlpha" operator="out"/>
<feColorMatrix type="matrix" values="0 0 0 0 0 0 0 0 0 0 0 0 0 0 0 0 0 0 0.42 0"/>
<feBlend mode="normal" in2="BackgroundImageFix" result="effect1_dropShadow_107_132"/>
<feBlend mode="normal" in="SourceGraphic" in2="effect1_dropShadow_107_132" result="shape"/>
</filter>
<filter id="filter2_b_107_132" x="621.159" y="47.1592" width="145.681" height="145.682" filterUnits="userSpaceOnUse" color-interpolation-filters="sRGB">
<feFlood flood-opacity="0" result="BackgroundImageFix"/>
<feGaussianBlur in="BackgroundImageFix" stdDeviation="9.7"/>
<feComposite in2="SourceAlpha" operator="in" result="effect1_backgroundBlur_107_132"/>
<feBlend mode="normal" in="SourceGraphic" in2="effect1_backgroundBlur_107_132" result="shape"/>
</filter>
<filter id="filter3_d_107_132" x="632.559" y="66.5592" width="114.881" height="114.882" filterUnits="userSpaceOnUse" color-interpolation-filters="sRGB">
<feFlood flood-opacity="0" result="BackgroundImageFix"/>
<feColorMatrix in="SourceAlpha" type="matrix" values="0 0 0 0 0 0 0 0 0 0 0 0 0 0 0 0 0 0 127 0" result="hardAlpha"/>
<feOffset dx="-4" dy="4"/>
<feGaussianBlur stdDeviation="2"/>
<feComposite in2="hardAlpha" operator="out"/>
<feColorMatrix type="matrix" values="0 0 0 0 0 0 0 0 0 0 0 0 0 0 0 0 0 0 0.42 0"/>
<feBlend mode="normal" in2="BackgroundImageFix" result="effect1_dropShadow_107_132"/>
<feBlend mode="normal" in="SourceGraphic" in2="effect1_dropShadow_107_132" result="shape"/>
</filter>
<linearGradient id="paint0_linear_107_132" x1="481.5" y1="389.5" x2="200" y2="-113.5" gradientUnits="userSpaceOnUse">
<stop stop-color="#FA5698"/>
<stop offset="0.46" stop-color="#A42759"/>
<stop offset="1" stop-color="#FA5698"/>
</linearGradient>
<linearGradient id="paint1_linear_107_132" x1="781" y1="102.5" x2="88.3778" y2="86.3242" gradientUnits="userSpaceOnUse">
<stop stop-color="#303030"/>
<stop offset="0.495" stop-color="#666666"/>
<stop offset="1" stop-color="#303030"/>
</linearGradient>
<linearGradient id="paint2_linear_107_132" x1="346.5" y1="35.5" x2="516.446" y2="201.631" gradientUnits="userSpaceOnUse">
<stop stop-color="#CE2B7A"/>
<stop offset="0.51" stop-color="#FF7DC0"/>
<stop offset="1" stop-color="#CE2B7A"/>
</linearGradient>
<linearGradient id="paint3_linear_107_132" x1="346.5" y1="35.5" x2="516.446" y2="201.631" gradientUnits="userSpaceOnUse">
<stop stop-color="#CE2B7A"/>
<stop offset="0.51" stop-color="#FF7DC0"/>
<stop offset="1" stop-color="#CE2B7A"/>
</linearGradient>
<linearGradient id="paint4_linear_107_132" x1="346.5" y1="35.5" x2="516.446" y2="201.631" gradientUnits="userSpaceOnUse">
<stop stop-color="#CE2B7A"/>
<stop offset="0.51" stop-color="#FF7DC0"/>
<stop offset="1" stop-color="#CE2B7A"/>
</linearGradient>
<clipPath id="clip0_107_132">
<rect width="800" height="240" fill="white" transform="translate(46)"/>
</clipPath>
</defs>
</svg>
