<svg width="1602" height="378" viewBox="0 0 1602 378" fill="none" xmlns="http://www.w3.org/2000/svg">
<path d="M236.412 254.422L286.869 350.651L280.287 355.103H279.397C279.104 355.262 278.811 355.421 278.518 355.578C277.922 355.897 277.324 356.213 276.724 356.526C275.197 357.323 273.657 358.101 272.105 358.857C271.617 359.095 271.128 359.33 270.637 359.563C269.118 360.287 267.588 360.992 266.047 361.676C265.503 361.917 264.957 362.156 264.41 362.393C263.504 362.785 262.594 363.172 261.68 363.55C260.442 364.063 259.196 364.562 257.944 365.048C257.055 365.394 256.163 365.734 255.268 366.067C253.92 366.568 252.564 367.053 251.202 367.523C250.384 367.806 249.564 368.084 248.741 368.356C247.408 368.796 246.069 369.221 244.724 369.631C243.874 369.891 243.022 370.144 242.167 370.392C240.799 370.789 239.424 371.17 238.043 371.536C237.213 371.756 236.381 371.971 235.546 372.18C234.755 372.378 233.961 372.572 233.165 372.761C232.947 372.812 232.729 372.864 232.511 372.915C229.978 373.505 227.427 374.044 224.856 374.531C214.227 376.544 203.282 377.668 192.103 377.819C191.237 377.83 190.369 377.839 189.5 377.839V347.625C190.171 347.625 190.884 347.618 191.694 347.607L193.458 347.573C202.262 347.358 210.869 346.428 219.231 344.845L220.846 344.53C222.458 344.207 224.061 343.86 225.654 343.489L225.656 343.488L226.205 343.359L227.198 343.12C227.531 343.039 227.866 342.956 228.202 342.872L229.251 342.605C229.6 342.515 229.949 342.424 230.297 342.332L232.032 341.861C232.608 341.701 233.183 341.538 233.755 341.372L234.837 341.055C235.195 340.948 235.549 340.842 235.9 340.735L237.594 340.207L239.27 339.664C239.931 339.446 240.614 339.214 241.333 338.966L243.057 338.36L244.745 337.744C245.088 337.617 245.433 337.486 245.781 337.354L209.653 268.453L209.532 268.221L189.546 228.448L173.813 259.491L173.734 259.645L133.222 337.354C142.522 340.885 152.237 343.567 162.278 345.301L163.331 345.479C164.387 345.654 165.455 345.819 166.535 345.976C173.444 346.976 180.512 347.531 187.714 347.61L189.5 347.625V377.839C188.793 377.839 188.087 377.831 187.383 377.823C178.841 377.729 170.436 377.07 162.203 375.878C160.507 375.632 158.817 375.365 157.136 375.075C136.636 371.534 117.269 364.686 99.6014 355.103H98.8475L92.2167 350.651L146.941 245.677L189.663 161.385L236.412 254.422Z" fill="#4DFF77"/>
<path d="M320.099 52.5618C356.015 86.9392 378.383 135.357 378.383 189C378.383 240.285 357.938 286.795 324.755 320.825L305.371 283.965C337.551 253.348 357.611 210.109 357.611 162.185V158.408C357.611 118.291 343.554 81.4572 320.099 52.5618Z" fill="#4DFF77"/>
<path d="M58.9868 52.5618C35.5315 81.4571 21.4755 118.291 21.4755 158.408V162.185C21.4755 209.118 40.7133 251.557 71.7328 282.048L52.3981 318.814C20.3556 284.974 0.703125 239.282 0.703125 189C0.703125 135.357 23.0705 86.9392 58.9868 52.5618Z" fill="#4DFF77"/>
<path d="M230.452 79.0836L230.364 79.1311L316.366 244.519C316.372 244.505 316.377 244.491 316.383 244.477L343.996 297.555C337.74 306.446 330.739 314.776 323.078 322.447L189.466 71.3757L56.0178 322.612C48.3569 314.961 41.3518 306.653 35.0912 297.783L146.123 84.3625L145.878 84.2357L189.466 0.160156L230.452 79.0836Z" fill="#4DFF77"/>
<path d="M487.674 325H450.85L541.116 53.0707H590.97L681.046 325H644.411L623.261 262.117H508.636L487.674 325ZM506.558 236.812L509.013 239.645C517.322 232.469 522.987 228.881 532.807 228.881H596.446C608.91 229.07 614.764 232.28 622.695 239.456L625.339 236.245C616.841 228.314 611.553 221.705 605.322 206.22L570.953 106.135C567.742 97.8257 567.554 87.6284 567.742 76.4868H563.777C563.777 87.6284 563.021 97.8257 560.567 105.946L525.82 208.297C521.477 222.838 515.056 229.825 506.558 236.812ZM754.095 325H718.782V53.0707H754.095V325ZM844.514 154.1V325H810.9V53.0707H843.003L937.99 252.297C941.767 259.662 942.333 269.481 942.522 280.623H946.865C947.054 269.481 947.432 259.473 951.02 252.108L1045.44 53.0707H1077.92V324.811H1044.31V153.156C1044.31 136.916 1046.57 128.984 1049.78 114.066L1045.44 113.311C1042.8 127.096 1041.85 134.65 1036.56 146.924L953.475 325H935.346L855.656 154.289C849.99 142.581 846.591 130.495 842.814 114.821L837.905 115.954C842.437 132.572 844.514 145.036 844.514 154.1ZM1238.31 330.665C1196.01 330.665 1162.59 312.537 1144.46 281.001C1135.21 265.327 1130.67 246.82 1130.67 225.482V53.2595L1166.55 53.0707V223.027C1166.55 273.069 1203.94 297.241 1238.31 297.241C1272.12 297.241 1310.07 273.636 1310.07 223.027V53.0707H1345.95V225.482C1345.95 267.971 1326.5 300.262 1294.21 317.635C1278.16 326.322 1259.46 330.665 1238.31 330.665ZM1484.44 330.665C1445.92 330.665 1414.38 317.069 1392.86 291.764C1382.09 279.112 1375.48 263.438 1373.4 244.554L1410.98 243.233C1417.78 275.902 1449.32 297.052 1486.33 297.052C1509.94 297.052 1530.33 289.309 1541.85 275.524C1547.52 268.537 1550.35 260.228 1550.35 250.597C1550.35 228.314 1533.92 218.306 1513.52 212.074L1444.03 191.49C1414.38 182.804 1384.92 165.43 1384.92 124.452C1384.92 77.0533 1424.01 47.5943 1480.67 47.5943C1517.49 47.7831 1547.14 60.0577 1567.34 84.0404C1577.35 96.1262 1583.39 112.178 1585.09 132.383L1547.52 133.705C1545.25 110.1 1531.84 94.6155 1512.01 87.0618C1502 83.2851 1491.43 81.3967 1480.29 81.2078C1448 80.4525 1422.31 98.2034 1422.31 122.753C1422.31 139.182 1432.89 148.246 1446.49 154.1C1453.28 156.933 1460.08 159.388 1466.69 161.276L1518.06 175.817C1546 183.937 1586.98 197.533 1586.98 248.52C1586.98 301.962 1541.09 330.665 1484.44 330.665Z" fill="#FFFFFF"/>
</svg>
